<?xml version="1.0" encoding="utf-8"?>
<!-- Generator: Adobe Illustrator 25.4.1, SVG Export Plug-In . SVG Version: 6.00 Build 0)  -->
<svg version="1.1" id="圖層_1" xmlns="http://www.w3.org/2000/svg" xmlns:xlink="http://www.w3.org/1999/xlink" x="0px" y="0px"
	 viewBox="0 0 356.12 41.46" style="enable-background:new 0 0 356.12 41.46;" xml:space="preserve">
<style type="text/css">
	.st0{fill:#FFFFFF;}
</style>
<g id="XMLID_27382_">
	<path id="XMLID_27383_" class="st0" d="M7.72,14.22c-1.05,0-2.01-0.18-2.87-0.54s-1.61-0.85-2.22-1.48s-1.09-1.37-1.43-2.23
		c-0.34-0.86-0.51-1.8-0.51-2.81c0-1,0.17-1.93,0.51-2.8c0.34-0.87,0.82-1.61,1.43-2.24s1.35-1.12,2.22-1.48s1.82-0.54,2.87-0.54
		c1.05,0,2.01,0.18,2.87,0.53C11.46,1,12.2,1.49,12.81,2.12c0.61,0.63,1.09,1.38,1.43,2.24c0.34,0.86,0.51,1.79,0.51,2.81
		s-0.17,1.95-0.51,2.81c-0.34,0.86-0.82,1.6-1.43,2.23s-1.35,1.12-2.22,1.48S8.77,14.22,7.72,14.22z M7.72,12.99
		c0.88,0,1.67-0.15,2.37-0.46c0.7-0.3,1.29-0.72,1.77-1.24c0.49-0.53,0.86-1.14,1.12-1.85s0.39-1.47,0.39-2.28
		c0-0.81-0.13-1.57-0.39-2.28s-0.63-1.33-1.12-1.85c-0.49-0.52-1.08-0.94-1.77-1.24S8.6,1.35,7.72,1.35c-0.89,0-1.68,0.15-2.37,0.46
		S4.06,2.52,3.58,3.04C3.09,3.57,2.71,4.19,2.46,4.89C2.2,5.6,2.07,6.36,2.07,7.17c0,0.81,0.13,1.57,0.39,2.28
		c0.26,0.71,0.63,1.32,1.12,1.85c0.49,0.52,1.08,0.94,1.77,1.24C6.04,12.84,6.83,12.99,7.72,12.99z M9.63,9.46
		c0.1,0.18,0.18,0.37,0.25,0.58c0.06,0.21,0.11,0.44,0.15,0.69c-0.59,0.26-1.28,0.4-2.05,0.4c-0.58,0-1.1-0.1-1.55-0.29
		c-0.46-0.2-0.84-0.47-1.16-0.82C4.96,9.66,4.72,9.24,4.55,8.76S4.31,7.76,4.31,7.19c0-0.57,0.08-1.1,0.26-1.59s0.41-0.92,0.72-1.28
		c0.31-0.36,0.69-0.64,1.14-0.85c0.45-0.21,0.96-0.31,1.53-0.31c0.46,0,0.82,0.03,1.09,0.08C9.31,3.27,9.6,3.35,9.9,3.45
		C9.89,3.68,9.86,3.9,9.82,4.12C9.77,4.35,9.7,4.56,9.6,4.76C9.32,4.67,9.07,4.61,8.85,4.58C8.63,4.55,8.38,4.53,8.1,4.53
		c-0.72,0-1.27,0.24-1.64,0.71C6.08,5.72,5.9,6.37,5.9,7.19c0,0.85,0.2,1.49,0.6,1.92s0.95,0.65,1.64,0.65
		c0.27,0,0.52-0.02,0.76-0.07C9.13,9.66,9.38,9.58,9.63,9.46z"/>
	<path id="XMLID_27387_" class="st0" d="M16.94,13.98l-0.11-0.25l3.72-4.34c0.33-0.39,0.63-0.76,0.92-1.11
		c0.28-0.35,0.53-0.69,0.74-1.01c0.21-0.33,0.37-0.65,0.49-0.97s0.18-0.65,0.18-0.99c0-0.67-0.22-1.18-0.65-1.54
		c-0.43-0.35-1.04-0.53-1.84-0.53c-0.61,0-1.12,0.07-1.54,0.21c-0.42,0.14-0.82,0.3-1.21,0.47c-0.1-0.25-0.2-0.51-0.29-0.78
		s-0.16-0.54-0.18-0.82c0.44-0.19,0.93-0.37,1.47-0.53c0.54-0.16,1.17-0.25,1.89-0.25c0.65,0,1.23,0.07,1.76,0.22
		c0.53,0.15,0.99,0.36,1.38,0.65s0.68,0.66,0.89,1.11c0.21,0.45,0.31,0.98,0.31,1.58c0,0.85-0.23,1.67-0.7,2.47
		c-0.47,0.8-1.13,1.68-1.99,2.66l-1.82,2.07h5.03c0.03,0.14,0.04,0.28,0.06,0.42c0.01,0.14,0.02,0.28,0.02,0.44
		c0,0.14-0.01,0.28-0.02,0.42c-0.01,0.14-0.03,0.27-0.06,0.4H16.94z"/>
	<path id="XMLID_27389_" class="st0" d="M32.85,1.55c0.8,0,1.5,0.16,2.1,0.47c0.6,0.32,1.1,0.76,1.5,1.32s0.7,1.23,0.89,2
		c0.2,0.77,0.29,1.62,0.29,2.54c0,0.91-0.1,1.75-0.3,2.53s-0.5,1.45-0.9,2c-0.4,0.56-0.9,0.99-1.51,1.31
		c-0.61,0.32-1.31,0.47-2.1,0.47c-0.8,0-1.49-0.16-2.09-0.47c-0.59-0.32-1.09-0.75-1.49-1.31c-0.4-0.56-0.7-1.22-0.89-2
		c-0.2-0.78-0.29-1.62-0.29-2.53c0-0.92,0.1-1.77,0.3-2.54s0.5-1.44,0.9-2s0.9-1,1.5-1.32S32.05,1.55,32.85,1.55z M32.83,3.22
		c-0.87,0-1.56,0.39-2.05,1.16c-0.49,0.77-0.74,1.94-0.74,3.51c0,1.57,0.25,2.73,0.74,3.5c0.49,0.76,1.18,1.15,2.05,1.15
		s1.55-0.38,2.03-1.15c0.48-0.77,0.72-1.93,0.72-3.5c0-1.57-0.24-2.74-0.72-3.51C34.38,3.61,33.7,3.22,32.83,3.22z"/>
	<path id="XMLID_27392_" class="st0" d="M39.7,13.98l-0.11-0.25l3.72-4.34c0.33-0.39,0.63-0.76,0.92-1.11
		c0.28-0.35,0.53-0.69,0.74-1.01c0.21-0.33,0.37-0.65,0.49-0.97s0.18-0.65,0.18-0.99c0-0.67-0.22-1.18-0.65-1.54
		c-0.43-0.35-1.04-0.53-1.84-0.53c-0.61,0-1.12,0.07-1.54,0.21c-0.42,0.14-0.82,0.3-1.21,0.47c-0.1-0.25-0.2-0.51-0.29-0.78
		s-0.16-0.54-0.18-0.82c0.44-0.19,0.93-0.37,1.47-0.53c0.54-0.16,1.17-0.25,1.89-0.25c0.65,0,1.23,0.07,1.76,0.22
		c0.53,0.15,0.99,0.36,1.38,0.65s0.68,0.66,0.89,1.11c0.21,0.45,0.31,0.98,0.31,1.58c0,0.85-0.23,1.67-0.7,2.47
		c-0.47,0.8-1.13,1.68-1.99,2.66l-1.82,2.07h5.03c0.03,0.14,0.04,0.28,0.06,0.42c0.01,0.14,0.02,0.28,0.02,0.44
		c0,0.14-0.01,0.28-0.02,0.42c-0.01,0.14-0.03,0.27-0.06,0.4H39.7z"/>
	<path id="XMLID_27394_" class="st0" d="M51.08,13.98l-0.11-0.25l3.72-4.34C55.01,9,55.32,8.63,55.6,8.28
		c0.28-0.35,0.53-0.69,0.74-1.01c0.21-0.33,0.37-0.65,0.49-0.97s0.18-0.65,0.18-0.99c0-0.67-0.22-1.18-0.65-1.54
		c-0.43-0.35-1.04-0.53-1.84-0.53c-0.61,0-1.12,0.07-1.54,0.21c-0.42,0.14-0.82,0.3-1.21,0.47c-0.1-0.25-0.2-0.51-0.29-0.78
		s-0.16-0.54-0.18-0.82c0.44-0.19,0.93-0.37,1.47-0.53c0.54-0.16,1.17-0.25,1.89-0.25c0.65,0,1.23,0.07,1.76,0.22
		c0.53,0.15,0.99,0.36,1.38,0.65s0.68,0.66,0.89,1.11C58.9,3.99,59,4.51,59,5.12c0,0.85-0.23,1.67-0.7,2.47
		c-0.47,0.8-1.13,1.68-1.99,2.66l-1.82,2.07h5.03c0.03,0.14,0.04,0.28,0.06,0.42c0.01,0.14,0.02,0.28,0.02,0.44
		c0,0.14-0.01,0.28-0.02,0.42c-0.01,0.14-0.03,0.27-0.06,0.4H51.08z"/>
	<path id="XMLID_27396_" class="st0" d="M67.46,0.32C67.74,0.3,68,0.27,68.22,0.25s0.45-0.05,0.67-0.07
		c0.22-0.02,0.45-0.03,0.69-0.05s0.51-0.02,0.8-0.02c0.64,0,1.28,0.06,1.92,0.19c0.63,0.13,1.19,0.35,1.69,0.66
		c0.49,0.32,0.89,0.74,1.2,1.28c0.31,0.54,0.46,1.22,0.46,2.04c0,0.49-0.08,0.94-0.25,1.35c-0.17,0.41-0.37,0.77-0.63,1.08
		c-0.25,0.32-0.54,0.59-0.86,0.83c-0.32,0.23-0.63,0.43-0.94,0.58l-0.23,0.11l3.96,5.75c-0.34,0.04-0.73,0.06-1.16,0.06
		c-0.34,0-0.68-0.02-1.02-0.06l-4.36-6.32V7.59l0.15-0.04c0.34-0.09,0.7-0.21,1.08-0.36c0.38-0.15,0.73-0.35,1.05-0.6
		c0.32-0.25,0.59-0.54,0.81-0.89s0.32-0.77,0.32-1.26c0-0.91-0.27-1.59-0.81-2.03c-0.54-0.44-1.26-0.66-2.17-0.66
		c-0.21,0-0.41,0.01-0.6,0.02s-0.39,0.03-0.62,0.06v12.16c-0.14,0.01-0.29,0.03-0.46,0.04c-0.17,0.01-0.33,0.02-0.48,0.02
		s-0.32,0-0.49-0.01c-0.18-0.01-0.34-0.02-0.49-0.05V0.32z"/>
	<path id="XMLID_27398_" class="st0" d="M79.72,9.58c0.03,1.06,0.3,1.84,0.83,2.33c0.52,0.49,1.3,0.74,2.32,0.74
		c0.9,0,1.75-0.16,2.56-0.47c0.1,0.19,0.18,0.42,0.25,0.69c0.06,0.27,0.1,0.54,0.11,0.81c-0.42,0.18-0.88,0.31-1.38,0.4
		c-0.5,0.09-1.05,0.13-1.66,0.13c-0.89,0-1.64-0.12-2.28-0.37c-0.63-0.25-1.15-0.59-1.56-1.04c-0.41-0.45-0.71-0.98-0.9-1.59
		c-0.19-0.61-0.28-1.29-0.28-2.02c0-0.72,0.09-1.39,0.27-2.02c0.18-0.63,0.46-1.17,0.84-1.63c0.38-0.46,0.86-0.83,1.43-1.1
		c0.58-0.27,1.25-0.41,2.04-0.41c0.67,0,1.26,0.11,1.76,0.34s0.93,0.54,1.27,0.94c0.34,0.4,0.6,0.87,0.78,1.42
		c0.18,0.55,0.27,1.15,0.27,1.79c0,0.18-0.01,0.36-0.02,0.56c-0.01,0.2-0.03,0.36-0.04,0.5H79.72z M84.53,8.17
		c0-0.35-0.05-0.69-0.14-1.01c-0.1-0.32-0.23-0.6-0.42-0.84s-0.42-0.43-0.7-0.58c-0.29-0.15-0.62-0.22-1.01-0.22
		c-0.77,0-1.36,0.23-1.77,0.7c-0.41,0.47-0.66,1.12-0.75,1.95H84.53z"/>
	<path id="XMLID_27401_" class="st0" d="M89.05,0.32c0.28-0.03,0.53-0.05,0.76-0.08s0.45-0.05,0.67-0.07
		c0.22-0.02,0.45-0.03,0.69-0.05s0.51-0.02,0.8-0.02c0.64,0,1.28,0.06,1.92,0.19c0.63,0.13,1.19,0.35,1.69,0.66
		c0.49,0.32,0.89,0.74,1.2,1.28c0.31,0.54,0.46,1.22,0.46,2.04c0,0.49-0.08,0.94-0.25,1.35c-0.17,0.41-0.37,0.77-0.63,1.08
		c-0.25,0.32-0.54,0.59-0.86,0.83c-0.32,0.23-0.63,0.43-0.94,0.58l-0.23,0.11l3.96,5.75c-0.34,0.04-0.73,0.06-1.16,0.06
		c-0.34,0-0.68-0.02-1.02-0.06l-4.36-6.32V7.59l0.15-0.04c0.34-0.09,0.7-0.21,1.08-0.36c0.38-0.15,0.73-0.35,1.05-0.6
		c0.32-0.25,0.59-0.54,0.81-0.89s0.32-0.77,0.32-1.26c0-0.91-0.27-1.59-0.81-2.03c-0.54-0.44-1.26-0.66-2.17-0.66
		c-0.21,0-0.41,0.01-0.6,0.02s-0.39,0.03-0.62,0.06v12.16c-0.14,0.01-0.29,0.03-0.46,0.04c-0.17,0.01-0.33,0.02-0.48,0.02
		s-0.32,0-0.49-0.01c-0.18-0.01-0.34-0.02-0.49-0.05V0.32z"/>
	<path id="XMLID_27403_" class="st0" d="M101.3,9.58c0.03,1.06,0.3,1.84,0.83,2.33c0.52,0.49,1.3,0.74,2.32,0.74
		c0.9,0,1.75-0.16,2.56-0.47c0.1,0.19,0.18,0.42,0.25,0.69c0.06,0.27,0.1,0.54,0.11,0.81c-0.42,0.18-0.88,0.31-1.38,0.4
		c-0.5,0.09-1.05,0.13-1.66,0.13c-0.89,0-1.64-0.12-2.28-0.37c-0.63-0.25-1.15-0.59-1.56-1.04c-0.41-0.45-0.71-0.98-0.9-1.59
		c-0.19-0.61-0.28-1.29-0.28-2.02c0-0.72,0.09-1.39,0.27-2.02c0.18-0.63,0.46-1.17,0.84-1.63c0.38-0.46,0.86-0.83,1.43-1.1
		c0.58-0.27,1.25-0.41,2.04-0.41c0.67,0,1.26,0.11,1.76,0.34s0.93,0.54,1.27,0.94c0.34,0.4,0.6,0.87,0.78,1.42
		c0.18,0.55,0.27,1.15,0.27,1.79c0,0.18-0.01,0.36-0.02,0.56c-0.01,0.2-0.03,0.36-0.04,0.5H101.3z M106.12,8.17
		c0-0.35-0.05-0.69-0.14-1.01c-0.1-0.32-0.23-0.6-0.42-0.84s-0.42-0.43-0.7-0.58c-0.29-0.15-0.62-0.22-1.01-0.22
		c-0.77,0-1.36,0.23-1.77,0.7c-0.41,0.47-0.66,1.12-0.75,1.95H106.12z"/>
	<path id="XMLID_27406_" class="st0" d="M111.67,8.93l-2.29-4.68c0.29-0.05,0.62-0.08,0.99-0.08c0.18,0,0.35,0.01,0.52,0.02
		s0.35,0.03,0.54,0.06l2.01,4.7l-2.43,5.03c-0.16,0.03-0.33,0.04-0.48,0.06s-0.31,0.02-0.46,0.02c-0.18,0-0.35-0.01-0.51-0.02
		s-0.33-0.03-0.51-0.06L111.67,8.93z M113.59,8.95l2.03-4.7c0.18-0.03,0.35-0.04,0.53-0.06c0.18-0.01,0.35-0.02,0.53-0.02
		c0.34,0,0.66,0.03,0.95,0.08l-2.26,4.63l2.64,5.1c-0.18,0.03-0.35,0.04-0.51,0.06c-0.17,0.01-0.33,0.02-0.51,0.02
		c-0.34,0-0.66-0.03-0.95-0.08L113.59,8.95z"/>
	<path id="XMLID_27409_" class="st0" d="M119.58,13.98c-0.03-0.18-0.05-0.35-0.07-0.52c-0.02-0.17-0.03-0.34-0.03-0.52
		c0-0.18,0.01-0.36,0.03-0.54c0.02-0.18,0.04-0.36,0.07-0.54c0.18-0.02,0.35-0.04,0.52-0.06c0.17-0.01,0.34-0.02,0.52-0.02
		c0.18,0,0.35,0.01,0.53,0.02c0.18,0.01,0.35,0.03,0.53,0.06c0.03,0.18,0.05,0.35,0.07,0.53c0.02,0.18,0.03,0.35,0.03,0.53
		c0,0.18-0.01,0.35-0.03,0.53c-0.02,0.18-0.04,0.35-0.07,0.53c-0.18,0.03-0.35,0.04-0.52,0.06s-0.34,0.02-0.52,0.02
		s-0.35-0.01-0.53-0.02S119.76,14,119.58,13.98z"/>
	<path id="XMLID_27411_" class="st0" d="M129.09,0.34h7.13c0.03,0.13,0.04,0.26,0.06,0.41s0.02,0.29,0.02,0.43
		c0,0.14-0.01,0.28-0.02,0.44c-0.01,0.15-0.03,0.29-0.06,0.42h-5.2v4h4.34c0.03,0.14,0.04,0.28,0.06,0.43s0.02,0.29,0.02,0.43
		c0,0.14-0.01,0.28-0.02,0.43s-0.03,0.29-0.06,0.43h-4.34v6.24c-0.15,0.03-0.31,0.04-0.46,0.06s-0.33,0.02-0.5,0.02
		c-0.17,0-0.33-0.01-0.5-0.02s-0.33-0.03-0.46-0.06V0.34z"/>
	<path id="XMLID_27413_" class="st0" d="M138.21,4.25c0.14-0.03,0.27-0.04,0.4-0.06c0.13-0.01,0.26-0.02,0.4-0.02
		c0.14,0,0.28,0.01,0.42,0.02c0.14,0.01,0.27,0.03,0.38,0.06c0.04,0.19,0.08,0.44,0.11,0.75c0.04,0.31,0.06,0.57,0.06,0.79
		c0.27-0.43,0.62-0.8,1.05-1.12c0.44-0.32,1-0.47,1.68-0.47c0.1,0,0.21,0,0.31,0.01c0.11,0.01,0.2,0.02,0.28,0.03
		c0.03,0.11,0.04,0.23,0.06,0.36s0.02,0.26,0.02,0.4c0,0.15-0.01,0.31-0.03,0.47c-0.02,0.17-0.04,0.32-0.07,0.47
		c-0.1-0.03-0.21-0.04-0.31-0.04s-0.19,0-0.26,0c-0.34,0-0.67,0.05-0.98,0.14c-0.31,0.09-0.59,0.26-0.83,0.5
		c-0.25,0.24-0.44,0.57-0.59,0.99c-0.15,0.42-0.22,0.96-0.22,1.61v4.84c-0.14,0.03-0.29,0.04-0.46,0.06s-0.33,0.02-0.46,0.02
		c-0.14,0-0.29-0.01-0.46-0.02s-0.33-0.03-0.48-0.06V4.25z"/>
	<path id="XMLID_27415_" class="st0" d="M145.83,5.73h-1.23c-0.03-0.1-0.04-0.22-0.06-0.35c-0.01-0.13-0.02-0.26-0.02-0.39
		c0-0.13,0.01-0.26,0.02-0.39c0.01-0.13,0.03-0.25,0.06-0.35h3.07v9.73c-0.14,0.03-0.29,0.04-0.46,0.06
		c-0.17,0.01-0.33,0.02-0.46,0.02c-0.13,0-0.28-0.01-0.45-0.02s-0.33-0.03-0.46-0.06V5.73z M145.42,2.11
		c-0.03-0.15-0.04-0.32-0.05-0.49c-0.01-0.18-0.01-0.33-0.01-0.47c0-0.14,0-0.3,0.01-0.47c0.01-0.18,0.02-0.33,0.05-0.47
		c0.16-0.03,0.34-0.04,0.53-0.06s0.35-0.02,0.49-0.02c0.14,0,0.3,0.01,0.49,0.02s0.36,0.03,0.51,0.06c0.03,0.14,0.04,0.3,0.05,0.47
		c0.01,0.18,0.01,0.34,0.01,0.47c0,0.14,0,0.3-0.01,0.47c-0.01,0.18-0.02,0.34-0.05,0.49c-0.15,0.03-0.32,0.04-0.5,0.06
		c-0.18,0.01-0.34,0.02-0.48,0.02c-0.15,0-0.32-0.01-0.51-0.02S145.58,2.13,145.42,2.11z"/>
	<path id="XMLID_27418_" class="st0" d="M152.13,9.58c0.03,1.06,0.3,1.84,0.83,2.33c0.52,0.49,1.3,0.74,2.32,0.74
		c0.9,0,1.75-0.16,2.56-0.47c0.1,0.19,0.18,0.42,0.25,0.69c0.06,0.27,0.1,0.54,0.11,0.81c-0.42,0.18-0.88,0.31-1.38,0.4
		c-0.5,0.09-1.05,0.13-1.66,0.13c-0.89,0-1.64-0.12-2.28-0.37c-0.63-0.25-1.15-0.59-1.56-1.04c-0.41-0.45-0.71-0.98-0.9-1.59
		c-0.19-0.61-0.28-1.29-0.28-2.02c0-0.72,0.09-1.39,0.27-2.02c0.18-0.63,0.46-1.17,0.84-1.63c0.38-0.46,0.86-0.83,1.43-1.1
		c0.58-0.27,1.25-0.41,2.04-0.41c0.67,0,1.26,0.11,1.76,0.34s0.93,0.54,1.27,0.94c0.34,0.4,0.6,0.87,0.78,1.42
		c0.18,0.55,0.27,1.15,0.27,1.79c0,0.18-0.01,0.36-0.02,0.56c-0.01,0.2-0.03,0.36-0.04,0.5H152.13z M156.95,8.17
		c0-0.35-0.05-0.69-0.14-1.01c-0.1-0.32-0.23-0.6-0.42-0.84s-0.42-0.43-0.7-0.58c-0.29-0.15-0.62-0.22-1.01-0.22
		c-0.77,0-1.36,0.23-1.77,0.7c-0.41,0.47-0.66,1.12-0.75,1.95H156.95z"/>
	<path id="XMLID_27421_" class="st0" d="M161.27,4.25c0.14-0.03,0.27-0.04,0.41-0.06s0.27-0.02,0.41-0.02
		c0.14,0,0.27,0.01,0.39,0.02s0.25,0.03,0.39,0.06c0.04,0.19,0.08,0.45,0.11,0.77s0.06,0.59,0.06,0.81
		c0.13-0.21,0.29-0.43,0.48-0.64s0.42-0.41,0.67-0.58c0.25-0.17,0.54-0.31,0.87-0.42s0.69-0.16,1.08-0.16
		c1.11,0,1.93,0.32,2.47,0.96s0.8,1.58,0.8,2.84v6.16c-0.14,0.03-0.3,0.04-0.47,0.06s-0.33,0.02-0.47,0.02
		c-0.14,0-0.29-0.01-0.46-0.02s-0.33-0.03-0.46-0.06V8.33c0-0.9-0.14-1.56-0.42-1.98c-0.28-0.42-0.72-0.63-1.33-0.63
		c-0.35,0-0.69,0.06-1,0.19c-0.32,0.13-0.59,0.32-0.83,0.59s-0.43,0.61-0.58,1.03s-0.22,0.93-0.22,1.53v4.93
		c-0.14,0.03-0.29,0.04-0.46,0.06s-0.33,0.02-0.46,0.02c-0.14,0-0.3-0.01-0.47-0.02s-0.33-0.03-0.47-0.06V4.25z"/>
	<path id="XMLID_27423_" class="st0" d="M178.48,0.08c0.14-0.02,0.3-0.04,0.47-0.06S179.28,0,179.4,0c0.14,0,0.29,0.01,0.46,0.02
		s0.33,0.03,0.46,0.06v13.64c-0.48,0.14-1.02,0.26-1.61,0.35s-1.26,0.14-1.99,0.14c-0.68,0-1.33-0.09-1.94-0.26
		c-0.61-0.17-1.15-0.45-1.6-0.84c-0.46-0.39-0.82-0.9-1.08-1.52c-0.27-0.62-0.4-1.38-0.4-2.29c0-0.78,0.12-1.5,0.35-2.14
		c0.23-0.65,0.57-1.2,1-1.66c0.43-0.46,0.95-0.82,1.55-1.07s1.27-0.38,2-0.38c0.33,0,0.66,0.03,1,0.08
		c0.33,0.05,0.63,0.11,0.88,0.19V0.08z M178.48,5.9c-0.25-0.1-0.53-0.18-0.82-0.23s-0.61-0.08-0.95-0.08
		c-0.52,0-0.97,0.09-1.35,0.29c-0.38,0.19-0.69,0.45-0.94,0.78s-0.43,0.72-0.55,1.17c-0.12,0.45-0.18,0.94-0.18,1.47
		c0.01,1.2,0.3,2.06,0.85,2.58s1.32,0.78,2.28,0.78c0.33,0,0.63-0.02,0.91-0.05c0.28-0.03,0.52-0.08,0.74-0.14V5.9z"/>
	<path id="XMLID_27426_" class="st0" d="M183.31,0.08c0.14-0.02,0.29-0.04,0.46-0.06S184.1,0,184.24,0c0.14,0,0.29,0.01,0.46,0.02
		c0.17,0.01,0.33,0.03,0.46,0.06v10.96c0,0.35,0.03,0.63,0.09,0.83s0.15,0.36,0.26,0.46c0.11,0.11,0.23,0.18,0.38,0.21
		c0.15,0.03,0.3,0.05,0.46,0.05c0.11,0,0.24-0.01,0.39-0.02s0.27-0.03,0.37-0.06c0.11,0.44,0.17,0.92,0.17,1.44
		c-0.18,0.06-0.39,0.1-0.65,0.12c-0.25,0.02-0.49,0.03-0.7,0.03c-0.37,0-0.71-0.04-1.02-0.13c-0.32-0.09-0.59-0.23-0.83-0.44
		s-0.43-0.47-0.57-0.82c-0.14-0.34-0.21-0.76-0.21-1.27V0.08z"/>
	<path id="XMLID_27428_" class="st0" d="M192.32,14c-0.1,0-0.21,0-0.31,0.01c-0.11,0.01-0.21,0.01-0.31,0.01
		c-0.13,0-0.26,0-0.4-0.01c-0.14-0.01-0.25-0.02-0.34-0.03l-3.22-9.73c0.17-0.03,0.33-0.04,0.51-0.05c0.18-0.01,0.34-0.01,0.49-0.01
		c0.16,0,0.35,0,0.55,0.01c0.2,0.01,0.37,0.02,0.51,0.05l2.69,9.05l2.79-9.05c0.27-0.04,0.58-0.06,0.93-0.06c0.14,0,0.3,0,0.47,0.01
		c0.18,0.01,0.35,0.02,0.53,0.05l-3.77,11.7c-0.18,0.52-0.36,0.95-0.55,1.31c-0.19,0.35-0.4,0.64-0.64,0.85
		c-0.24,0.21-0.51,0.37-0.81,0.46c-0.3,0.09-0.64,0.13-1.03,0.13c-0.29,0-0.58-0.02-0.86-0.07c-0.28-0.04-0.53-0.1-0.75-0.16
		c0-0.29,0.03-0.55,0.08-0.78c0.05-0.23,0.13-0.46,0.23-0.68c0.11,0.04,0.27,0.08,0.46,0.12c0.2,0.04,0.41,0.07,0.63,0.07
		c0.16,0,0.32-0.02,0.46-0.05c0.15-0.03,0.28-0.09,0.41-0.19c0.13-0.09,0.24-0.23,0.35-0.41s0.21-0.42,0.31-0.72L192.32,14z"/>
	<path id="XMLID_27430_" class="st0" d="M206.03,2.03h-3.55c-0.03-0.13-0.04-0.27-0.06-0.42c-0.01-0.15-0.02-0.3-0.02-0.44
		c0-0.14,0.01-0.28,0.02-0.43s0.03-0.28,0.06-0.41h9.03c0.03,0.13,0.04,0.26,0.06,0.4c0.01,0.14,0.02,0.28,0.02,0.42
		c0,0.14-0.01,0.29-0.02,0.45c-0.01,0.16-0.03,0.3-0.06,0.43h-3.55v11.95c-0.29,0.04-0.61,0.06-0.95,0.06
		c-0.35,0-0.68-0.02-0.99-0.06V2.03z"/>
	<path id="XMLID_27432_" class="st0" d="M217.87,7.79c0.03,0.13,0.04,0.27,0.06,0.43s0.02,0.31,0.02,0.45
		c0,0.14-0.01,0.29-0.02,0.45s-0.03,0.29-0.06,0.41h-4.91c-0.03-0.11-0.04-0.25-0.06-0.41s-0.02-0.31-0.02-0.45
		c0-0.14,0.01-0.29,0.02-0.45s0.03-0.3,0.06-0.43H217.87z"/>
	<path id="XMLID_27434_" class="st0" d="M220.54,0.32c0.28-0.03,0.53-0.05,0.76-0.08s0.45-0.05,0.67-0.07
		c0.22-0.02,0.45-0.03,0.69-0.05s0.51-0.02,0.8-0.02c0.64,0,1.28,0.06,1.92,0.19c0.63,0.13,1.19,0.35,1.69,0.66
		c0.49,0.32,0.89,0.74,1.2,1.28c0.31,0.54,0.46,1.22,0.46,2.04c0,0.49-0.08,0.94-0.25,1.35c-0.17,0.41-0.37,0.77-0.63,1.08
		c-0.25,0.32-0.54,0.59-0.86,0.83c-0.32,0.23-0.63,0.43-0.94,0.58l-0.23,0.11l3.96,5.75c-0.34,0.04-0.73,0.06-1.16,0.06
		c-0.34,0-0.68-0.02-1.02-0.06l-4.36-6.32V7.59l0.15-0.04c0.34-0.09,0.7-0.21,1.08-0.36c0.38-0.15,0.73-0.35,1.05-0.6
		c0.32-0.25,0.59-0.54,0.81-0.89s0.32-0.77,0.32-1.26c0-0.91-0.27-1.59-0.81-2.03c-0.54-0.44-1.26-0.66-2.17-0.66
		c-0.21,0-0.41,0.01-0.6,0.02s-0.39,0.03-0.62,0.06v12.16c-0.14,0.01-0.29,0.03-0.46,0.04c-0.17,0.01-0.33,0.02-0.48,0.02
		s-0.32,0-0.49-0.01c-0.18-0.01-0.34-0.02-0.49-0.05V0.32z"/>
	<path id="XMLID_27436_" class="st0" d="M232.79,9.58c0.03,1.06,0.3,1.84,0.83,2.33c0.52,0.49,1.3,0.74,2.32,0.74
		c0.9,0,1.75-0.16,2.56-0.47c0.1,0.19,0.18,0.42,0.25,0.69c0.06,0.27,0.1,0.54,0.11,0.81c-0.42,0.18-0.88,0.31-1.38,0.4
		c-0.5,0.09-1.05,0.13-1.66,0.13c-0.89,0-1.64-0.12-2.28-0.37c-0.63-0.25-1.15-0.59-1.56-1.04c-0.41-0.45-0.71-0.98-0.9-1.59
		c-0.19-0.61-0.28-1.29-0.28-2.02c0-0.72,0.09-1.39,0.27-2.02c0.18-0.63,0.46-1.17,0.84-1.63c0.38-0.46,0.86-0.83,1.43-1.1
		c0.58-0.27,1.25-0.41,2.04-0.41c0.67,0,1.26,0.11,1.76,0.34s0.93,0.54,1.27,0.94c0.34,0.4,0.6,0.87,0.78,1.42
		c0.18,0.55,0.27,1.15,0.27,1.79c0,0.18-0.01,0.36-0.02,0.56c-0.01,0.2-0.03,0.36-0.04,0.5H232.79z M237.61,8.17
		c0-0.35-0.05-0.69-0.14-1.01c-0.1-0.32-0.23-0.6-0.42-0.84s-0.42-0.43-0.7-0.58c-0.29-0.15-0.62-0.22-1.01-0.22
		c-0.77,0-1.36,0.23-1.77,0.7c-0.41,0.47-0.66,1.12-0.75,1.95H237.61z"/>
	<path id="XMLID_27439_" class="st0" d="M243.17,8.93l-2.29-4.68c0.29-0.05,0.62-0.08,0.99-0.08c0.18,0,0.35,0.01,0.52,0.02
		s0.35,0.03,0.54,0.06l2.01,4.7l-2.43,5.03c-0.16,0.03-0.33,0.04-0.48,0.06s-0.31,0.02-0.46,0.02c-0.18,0-0.35-0.01-0.51-0.02
		s-0.33-0.03-0.51-0.06L243.17,8.93z M245.09,8.95l2.03-4.7c0.18-0.03,0.35-0.04,0.53-0.06c0.18-0.01,0.35-0.02,0.53-0.02
		c0.34,0,0.66,0.03,0.95,0.08l-2.26,4.63l2.64,5.1c-0.18,0.03-0.35,0.04-0.51,0.06c-0.17,0.01-0.33,0.02-0.51,0.02
		c-0.34,0-0.66-0.03-0.95-0.08L245.09,8.95z"/>
	<path id="XMLID_27442_" class="st0" d="M264.72,11.99c0.28,0.54,0.46,1.07,0.53,1.57c-0.53,0.23-1.08,0.39-1.63,0.49
		c-0.56,0.1-1.16,0.15-1.8,0.15c-0.99,0-1.87-0.16-2.67-0.48c-0.79-0.32-1.46-0.78-2-1.38c-0.54-0.6-0.96-1.33-1.25-2.19
		c-0.29-0.86-0.44-1.83-0.44-2.9c0-1.09,0.15-2.07,0.44-2.95c0.29-0.88,0.71-1.63,1.25-2.25c0.54-0.62,1.21-1.1,1.99-1.43
		c0.78-0.33,1.66-0.5,2.64-0.5c0.72,0,1.34,0.05,1.86,0.15c0.52,0.1,0.98,0.22,1.38,0.36c-0.03,0.29-0.08,0.56-0.16,0.81
		c-0.08,0.25-0.18,0.51-0.29,0.79c-0.19-0.06-0.37-0.12-0.55-0.17c-0.18-0.05-0.37-0.09-0.57-0.13c-0.2-0.04-0.43-0.07-0.67-0.08
		c-0.25-0.02-0.53-0.03-0.84-0.03c-1.38,0-2.45,0.47-3.21,1.4c-0.77,0.94-1.15,2.28-1.15,4.04c0,0.9,0.11,1.68,0.32,2.33
		s0.52,1.2,0.91,1.63s0.86,0.75,1.41,0.97s1.17,0.32,1.85,0.32c0.53,0,1.01-0.04,1.44-0.13S264.34,12.15,264.72,11.99z"/>
	<path id="XMLID_27444_" class="st0" d="M271.24,14.21c-0.76,0-1.42-0.13-1.99-0.39c-0.57-0.26-1.04-0.62-1.42-1.07
		c-0.38-0.46-0.66-0.99-0.84-1.61c-0.18-0.62-0.27-1.29-0.27-2.01s0.09-1.39,0.27-2.01c0.18-0.62,0.46-1.16,0.84-1.61
		c0.38-0.46,0.85-0.82,1.42-1.08c0.57-0.27,1.23-0.4,1.99-0.4c0.76,0,1.42,0.13,1.99,0.4s1.04,0.63,1.42,1.08
		c0.38,0.46,0.66,0.99,0.84,1.61c0.18,0.62,0.27,1.29,0.27,2.01s-0.09,1.39-0.27,2.01c-0.18,0.62-0.46,1.16-0.84,1.61
		c-0.38,0.46-0.85,0.81-1.42,1.07C272.66,14.08,272,14.21,271.24,14.21z M271.24,12.71c0.87,0,1.52-0.32,1.93-0.95
		c0.42-0.63,0.63-1.51,0.63-2.64c0-1.13-0.21-2-0.63-2.63c-0.42-0.63-1.06-0.94-1.93-0.94c-0.87,0-1.51,0.31-1.93,0.94
		S268.7,8,268.7,9.12c0,1.12,0.21,2,0.62,2.64C269.73,12.39,270.37,12.71,271.24,12.71z"/>
	<path id="XMLID_27447_" class="st0" d="M278.24,4.25c0.14-0.03,0.27-0.04,0.41-0.06s0.27-0.02,0.41-0.02
		c0.14,0,0.27,0.01,0.39,0.02s0.25,0.03,0.39,0.06c0.04,0.19,0.08,0.44,0.11,0.75c0.04,0.31,0.06,0.57,0.06,0.79
		c0.11-0.23,0.26-0.45,0.43-0.65c0.17-0.21,0.37-0.39,0.61-0.56c0.23-0.16,0.5-0.3,0.81-0.4c0.3-0.1,0.64-0.15,1-0.15
		c0.76,0,1.34,0.16,1.75,0.46c0.41,0.31,0.72,0.74,0.94,1.3c0.13-0.21,0.28-0.43,0.46-0.64s0.39-0.4,0.62-0.57
		c0.23-0.16,0.49-0.3,0.78-0.4c0.29-0.1,0.62-0.15,0.99-0.15c1.12,0,1.94,0.32,2.46,0.95c0.51,0.63,0.77,1.57,0.77,2.81v6.2
		c-0.14,0.03-0.3,0.04-0.47,0.06c-0.18,0.01-0.33,0.02-0.47,0.02c-0.14,0-0.29-0.01-0.46-0.02c-0.17-0.01-0.33-0.03-0.46-0.06V8.33
		c0-0.87-0.13-1.53-0.4-1.96s-0.7-0.65-1.31-0.65c-0.65,0-1.17,0.23-1.57,0.7c-0.4,0.47-0.6,1.16-0.6,2.07v5.5
		c-0.14,0.03-0.29,0.04-0.46,0.06c-0.17,0.01-0.33,0.02-0.46,0.02c-0.14,0-0.29-0.01-0.46-0.02s-0.33-0.03-0.46-0.06V8.19
		c0-0.85-0.13-1.48-0.38-1.91c-0.25-0.42-0.66-0.64-1.21-0.64c-0.32,0-0.61,0.07-0.89,0.21C281.24,6,281,6.21,280.79,6.49
		s-0.37,0.63-0.49,1.05s-0.18,0.91-0.18,1.47v4.97c-0.14,0.03-0.29,0.04-0.46,0.06s-0.33,0.02-0.46,0.02c-0.14,0-0.3-0.01-0.47-0.02
		s-0.33-0.03-0.47-0.06V4.25z"/>
	<path id="XMLID_27449_" class="st0" d="M294.44,4.25c0.14-0.03,0.27-0.04,0.41-0.06s0.27-0.02,0.41-0.02
		c0.14,0,0.27,0.01,0.39,0.02s0.25,0.03,0.39,0.06c0.04,0.19,0.08,0.44,0.11,0.75c0.04,0.31,0.06,0.57,0.06,0.79
		c0.11-0.23,0.26-0.45,0.43-0.65c0.17-0.21,0.37-0.39,0.61-0.56c0.23-0.16,0.5-0.3,0.81-0.4c0.3-0.1,0.64-0.15,1-0.15
		c0.76,0,1.34,0.16,1.75,0.46c0.41,0.31,0.72,0.74,0.94,1.3c0.13-0.21,0.28-0.43,0.46-0.64s0.39-0.4,0.62-0.57
		c0.23-0.16,0.49-0.3,0.78-0.4c0.29-0.1,0.62-0.15,0.99-0.15c1.12,0,1.94,0.32,2.46,0.95c0.51,0.63,0.77,1.57,0.77,2.81v6.2
		c-0.14,0.03-0.3,0.04-0.47,0.06c-0.18,0.01-0.33,0.02-0.47,0.02c-0.14,0-0.29-0.01-0.46-0.02c-0.17-0.01-0.33-0.03-0.46-0.06V8.33
		c0-0.87-0.13-1.53-0.4-1.96s-0.7-0.65-1.31-0.65c-0.65,0-1.17,0.23-1.57,0.7c-0.4,0.47-0.6,1.16-0.6,2.07v5.5
		c-0.14,0.03-0.29,0.04-0.46,0.06c-0.17,0.01-0.33,0.02-0.46,0.02c-0.14,0-0.29-0.01-0.46-0.02s-0.33-0.03-0.46-0.06V8.19
		c0-0.85-0.13-1.48-0.38-1.91c-0.25-0.42-0.66-0.64-1.21-0.64c-0.32,0-0.61,0.07-0.89,0.21c-0.28,0.14-0.52,0.35-0.73,0.63
		s-0.37,0.63-0.49,1.05s-0.18,0.91-0.18,1.47v4.97c-0.14,0.03-0.29,0.04-0.46,0.06s-0.33,0.02-0.46,0.02c-0.14,0-0.3-0.01-0.47-0.02
		s-0.33-0.03-0.47-0.06V4.25z"/>
	<path id="XMLID_27451_" class="st0" d="M310.52,4.25c0.14-0.03,0.3-0.04,0.47-0.06c0.18-0.01,0.33-0.02,0.46-0.02
		c0.14,0,0.3,0.01,0.47,0.02c0.18,0.01,0.33,0.03,0.47,0.06v5.33c0,0.61,0.06,1.11,0.17,1.51c0.11,0.4,0.28,0.71,0.51,0.94
		s0.51,0.39,0.83,0.47c0.33,0.09,0.71,0.13,1.14,0.13c0.64,0,1.2-0.07,1.65-0.21V4.25c0.14-0.03,0.29-0.04,0.46-0.06
		c0.17-0.01,0.33-0.02,0.46-0.02c0.14,0,0.29,0.01,0.46,0.02c0.17,0.01,0.33,0.03,0.46,0.06v9.43c-0.44,0.13-0.97,0.25-1.58,0.36
		s-1.25,0.17-1.91,0.17c-0.62,0-1.21-0.05-1.75-0.16s-1.03-0.33-1.45-0.65s-0.75-0.79-0.99-1.38s-0.36-1.38-0.36-2.35V4.25z"/>
	<path id="XMLID_27453_" class="st0" d="M321.52,4.25c0.14-0.03,0.27-0.04,0.41-0.06s0.27-0.02,0.41-0.02
		c0.14,0,0.27,0.01,0.39,0.02s0.25,0.03,0.39,0.06c0.04,0.19,0.08,0.45,0.11,0.77s0.06,0.59,0.06,0.81
		c0.13-0.21,0.29-0.43,0.48-0.64s0.42-0.41,0.67-0.58c0.25-0.17,0.54-0.31,0.87-0.42s0.69-0.16,1.08-0.16
		c1.11,0,1.93,0.32,2.47,0.96s0.8,1.58,0.8,2.84v6.16c-0.14,0.03-0.3,0.04-0.47,0.06s-0.33,0.02-0.47,0.02
		c-0.14,0-0.29-0.01-0.46-0.02s-0.33-0.03-0.46-0.06V8.33c0-0.9-0.14-1.56-0.42-1.98c-0.28-0.42-0.72-0.63-1.33-0.63
		c-0.35,0-0.69,0.06-1,0.19c-0.32,0.13-0.59,0.32-0.83,0.59s-0.43,0.61-0.58,1.03s-0.22,0.93-0.22,1.53v4.93
		c-0.14,0.03-0.29,0.04-0.46,0.06s-0.33,0.02-0.46,0.02c-0.14,0-0.3-0.01-0.47-0.02s-0.33-0.03-0.47-0.06V4.25z"/>
	<path id="XMLID_27455_" class="st0" d="M333.05,5.73h-1.23c-0.03-0.1-0.04-0.22-0.06-0.35c-0.01-0.13-0.02-0.26-0.02-0.39
		c0-0.13,0.01-0.26,0.02-0.39c0.01-0.13,0.03-0.25,0.06-0.35h3.07v9.73c-0.14,0.03-0.29,0.04-0.46,0.06
		c-0.17,0.01-0.33,0.02-0.46,0.02c-0.13,0-0.28-0.01-0.45-0.02s-0.33-0.03-0.46-0.06V5.73z M332.64,2.11
		c-0.03-0.15-0.04-0.32-0.05-0.49c-0.01-0.18-0.01-0.33-0.01-0.47c0-0.14,0-0.3,0.01-0.47c0.01-0.18,0.02-0.33,0.05-0.47
		c0.16-0.03,0.34-0.04,0.53-0.06s0.35-0.02,0.49-0.02c0.14,0,0.3,0.01,0.49,0.02s0.36,0.03,0.51,0.06c0.03,0.14,0.04,0.3,0.05,0.47
		c0.01,0.18,0.01,0.34,0.01,0.47c0,0.14,0,0.3-0.01,0.47c-0.01,0.18-0.02,0.34-0.05,0.49c-0.15,0.03-0.32,0.04-0.5,0.06
		c-0.18,0.01-0.34,0.02-0.48,0.02c-0.15,0-0.32-0.01-0.51-0.02S332.8,2.13,332.64,2.11z"/>
	<path id="XMLID_27458_" class="st0" d="M338.31,5.75h-1.48l-0.08-0.27l3.26-3.64h0.15v2.41h2.47c0.05,0.22,0.08,0.46,0.08,0.72
		c0,0.14-0.01,0.27-0.02,0.4c-0.01,0.13-0.03,0.25-0.06,0.38h-2.47v4.44c0,0.53,0.02,0.96,0.07,1.27c0.04,0.32,0.12,0.56,0.23,0.73
		c0.11,0.17,0.25,0.29,0.44,0.34c0.18,0.06,0.41,0.08,0.69,0.08c0.21,0,0.42-0.02,0.61-0.05c0.19-0.03,0.36-0.07,0.51-0.1
		c0.09,0.25,0.14,0.51,0.16,0.78c0.02,0.27,0.03,0.5,0.03,0.7c-0.25,0.06-0.52,0.11-0.8,0.14c-0.28,0.03-0.58,0.05-0.89,0.05
		c-0.91,0-1.62-0.22-2.13-0.66c-0.51-0.44-0.77-1.18-0.77-2.2V5.75z"/>
	<path id="XMLID_27460_" class="st0" d="M348.06,14c-0.1,0-0.21,0-0.31,0.01c-0.11,0.01-0.21,0.01-0.31,0.01
		c-0.13,0-0.26,0-0.4-0.01c-0.14-0.01-0.25-0.02-0.34-0.03l-3.22-9.73c0.17-0.03,0.33-0.04,0.51-0.05c0.18-0.01,0.34-0.01,0.49-0.01
		c0.16,0,0.35,0,0.55,0.01c0.2,0.01,0.37,0.02,0.51,0.05l2.69,9.05l2.79-9.05c0.27-0.04,0.58-0.06,0.93-0.06c0.14,0,0.3,0,0.47,0.01
		c0.18,0.01,0.35,0.02,0.53,0.05l-3.77,11.7c-0.18,0.52-0.36,0.95-0.55,1.31c-0.19,0.35-0.4,0.64-0.64,0.85
		c-0.24,0.21-0.51,0.37-0.81,0.46c-0.3,0.09-0.64,0.13-1.03,0.13c-0.29,0-0.58-0.02-0.86-0.07c-0.28-0.04-0.53-0.1-0.75-0.16
		c0-0.29,0.03-0.55,0.08-0.78c0.05-0.23,0.13-0.46,0.23-0.68c0.11,0.04,0.27,0.08,0.46,0.12c0.2,0.04,0.41,0.07,0.63,0.07
		c0.16,0,0.32-0.02,0.46-0.05c0.15-0.03,0.28-0.09,0.41-0.19c0.13-0.09,0.24-0.23,0.35-0.41s0.21-0.42,0.31-0.72L348.06,14z"/>
	<path id="XMLID_27462_" class="st0" d="M353.92,13.98c-0.03-0.18-0.05-0.35-0.07-0.52c-0.02-0.17-0.03-0.34-0.03-0.52
		c0-0.18,0.01-0.36,0.03-0.54c0.02-0.18,0.04-0.36,0.07-0.54c0.18-0.02,0.35-0.04,0.52-0.06c0.17-0.01,0.34-0.02,0.52-0.02
		c0.18,0,0.35,0.01,0.53,0.02c0.18,0.01,0.35,0.03,0.53,0.06c0.03,0.18,0.05,0.35,0.07,0.53c0.02,0.18,0.03,0.35,0.03,0.53
		c0,0.18-0.01,0.35-0.03,0.53c-0.02,0.18-0.04,0.35-0.07,0.53c-0.18,0.03-0.35,0.04-0.52,0.06s-0.34,0.02-0.52,0.02
		s-0.35-0.01-0.53-0.02S354.09,14,353.92,13.98z"/>
	<path id="XMLID_27464_" class="st0" d="M8.08,33.59H2.9l-0.93,3.15c-0.17,0.03-0.33,0.04-0.49,0.06c-0.17,0.01-0.33,0.02-0.49,0.02
		c-0.18,0-0.35-0.01-0.52-0.02C0.29,36.78,0.14,36.76,0,36.74L4.44,23.1c0.16-0.03,0.34-0.04,0.53-0.06
		c0.19-0.01,0.39-0.02,0.59-0.02c0.18,0,0.36,0.01,0.55,0.02c0.19,0.01,0.37,0.03,0.55,0.06l4.42,13.64
		c-0.15,0.03-0.32,0.04-0.51,0.06c-0.19,0.01-0.37,0.02-0.55,0.02c-0.17,0-0.33-0.01-0.5-0.02c-0.17-0.01-0.33-0.03-0.48-0.06
		L8.08,33.59z M3.41,31.9h4.15l-2.09-6.96L3.41,31.9z"/>
	<path id="XMLID_27467_" class="st0" d="M12.88,22.84c0.14-0.03,0.29-0.04,0.46-0.06s0.33-0.02,0.46-0.02
		c0.14,0,0.29,0.01,0.46,0.02c0.17,0.01,0.33,0.03,0.46,0.06V33.8c0,0.35,0.03,0.63,0.09,0.83c0.06,0.2,0.15,0.36,0.26,0.46
		c0.11,0.11,0.23,0.18,0.38,0.21s0.3,0.05,0.46,0.05c0.11,0,0.24-0.01,0.39-0.02s0.27-0.03,0.37-0.06c0.11,0.44,0.17,0.92,0.17,1.44
		c-0.18,0.06-0.39,0.1-0.65,0.12s-0.49,0.03-0.7,0.03c-0.37,0-0.71-0.04-1.02-0.13c-0.32-0.09-0.59-0.23-0.83-0.44
		s-0.43-0.47-0.57-0.82c-0.14-0.34-0.21-0.76-0.21-1.27V22.84z"/>
	<path id="XMLID_27469_" class="st0" d="M18.53,22.84c0.14-0.03,0.29-0.04,0.46-0.06s0.33-0.02,0.46-0.02
		c0.14,0,0.29,0.01,0.46,0.02c0.17,0.01,0.33,0.03,0.46,0.06V33.8c0,0.35,0.03,0.63,0.09,0.83c0.06,0.2,0.15,0.36,0.26,0.46
		c0.11,0.11,0.23,0.18,0.38,0.21s0.3,0.05,0.46,0.05c0.11,0,0.24-0.01,0.39-0.02s0.27-0.03,0.37-0.06c0.11,0.44,0.17,0.92,0.17,1.44
		c-0.18,0.06-0.39,0.1-0.65,0.12s-0.49,0.03-0.7,0.03c-0.37,0-0.71-0.04-1.02-0.13c-0.32-0.09-0.59-0.23-0.83-0.44
		s-0.43-0.47-0.57-0.82c-0.14-0.34-0.21-0.76-0.21-1.27V22.84z"/>
	<path id="XMLID_27471_" class="st0" d="M28.9,23.08c0.28-0.02,0.53-0.05,0.76-0.08s0.45-0.05,0.67-0.07
		c0.22-0.02,0.45-0.04,0.69-0.05s0.51-0.02,0.8-0.02c0.64,0,1.28,0.06,1.92,0.19c0.63,0.13,1.19,0.35,1.69,0.66s0.89,0.74,1.2,1.28
		c0.31,0.54,0.46,1.22,0.46,2.04c0,0.49-0.08,0.94-0.25,1.35c-0.17,0.4-0.37,0.76-0.63,1.08c-0.25,0.32-0.54,0.59-0.86,0.82
		c-0.32,0.23-0.63,0.43-0.94,0.58l-0.23,0.11l3.96,5.75c-0.34,0.04-0.73,0.06-1.16,0.06c-0.34,0-0.68-0.02-1.02-0.06l-4.36-6.32
		v-0.08l0.15-0.04c0.34-0.09,0.7-0.21,1.08-0.36c0.38-0.15,0.73-0.35,1.05-0.6c0.32-0.25,0.59-0.54,0.81-0.89s0.32-0.77,0.32-1.26
		c0-0.91-0.27-1.59-0.81-2.03c-0.54-0.44-1.26-0.66-2.17-0.66c-0.21,0-0.41,0.01-0.6,0.02c-0.18,0.01-0.39,0.03-0.62,0.06v12.16
		c-0.14,0.01-0.29,0.03-0.46,0.04s-0.33,0.02-0.48,0.02s-0.32,0-0.49-0.01c-0.18-0.01-0.34-0.02-0.49-0.05V23.08z"/>
	<path id="XMLID_27473_" class="st0" d="M40.61,28.49h-1.23c-0.03-0.1-0.04-0.22-0.06-0.35C39.3,28,39.3,27.88,39.3,27.75
		c0-0.13,0.01-0.26,0.02-0.39c0.01-0.13,0.03-0.25,0.06-0.35h3.07v9.73c-0.14,0.03-0.29,0.04-0.46,0.06
		c-0.17,0.01-0.33,0.02-0.46,0.02c-0.13,0-0.28-0.01-0.45-0.02c-0.17-0.01-0.33-0.03-0.46-0.06V28.49z M40.19,24.87
		c-0.03-0.15-0.04-0.32-0.05-0.49c-0.01-0.18-0.01-0.33-0.01-0.47c0-0.14,0-0.3,0.01-0.47c0.01-0.18,0.02-0.33,0.05-0.47
		c0.16-0.02,0.34-0.04,0.53-0.06s0.35-0.02,0.49-0.02c0.14,0,0.3,0.01,0.49,0.02s0.36,0.03,0.51,0.06c0.03,0.14,0.04,0.3,0.05,0.47
		c0.01,0.18,0.01,0.33,0.01,0.47c0,0.14,0,0.3-0.01,0.47c-0.01,0.18-0.02,0.34-0.05,0.49c-0.15,0.03-0.32,0.04-0.5,0.06
		c-0.18,0.01-0.34,0.02-0.48,0.02c-0.15,0-0.32-0.01-0.51-0.02C40.53,24.91,40.35,24.89,40.19,24.87z"/>
	<path id="XMLID_27476_" class="st0" d="M50.72,35.49c1.12,0.03,1.94,0.27,2.45,0.72c0.51,0.46,0.76,1.08,0.76,1.88
		c0,0.52-0.13,0.98-0.4,1.39c-0.27,0.41-0.63,0.76-1.1,1.06s-1.02,0.53-1.66,0.68c-0.64,0.16-1.33,0.24-2.08,0.24
		c-1.3,0-2.29-0.2-2.98-0.61c-0.68-0.41-1.02-1.04-1.02-1.92c0-0.52,0.14-0.98,0.42-1.39c0.28-0.41,0.64-0.74,1.08-0.98
		c-0.25-0.16-0.46-0.37-0.64-0.62c-0.17-0.25-0.26-0.55-0.26-0.92c0-0.47,0.1-0.87,0.31-1.21c0.21-0.34,0.49-0.64,0.84-0.91
		c-0.42-0.29-0.75-0.67-1.01-1.13c-0.25-0.46-0.38-0.98-0.38-1.56c0-0.48,0.09-0.93,0.27-1.35c0.18-0.42,0.43-0.78,0.77-1.09
		c0.33-0.31,0.75-0.55,1.24-0.73c0.49-0.18,1.06-0.27,1.69-0.27c0.57,0,1.08,0.08,1.55,0.25c0.46,0.17,0.86,0.37,1.19,0.63
		c0.25-0.2,0.59-0.37,1.02-0.5c0.43-0.13,0.9-0.2,1.42-0.2c0.05,0.24,0.08,0.51,0.08,0.8c0,0.14-0.01,0.29-0.02,0.44
		c-0.01,0.15-0.03,0.3-0.06,0.46H52.5c0.14,0.21,0.25,0.45,0.32,0.7c0.08,0.25,0.11,0.54,0.11,0.87c0,0.52-0.09,0.99-0.28,1.4
		c-0.19,0.42-0.46,0.78-0.81,1.07s-0.76,0.52-1.24,0.68s-1,0.24-1.57,0.24c-0.52,0-0.99-0.06-1.4-0.17
		c-0.18,0.1-0.35,0.26-0.52,0.46c-0.17,0.21-0.26,0.43-0.26,0.67c0,0.23,0.08,0.43,0.25,0.6s0.53,0.26,1.1,0.28L50.72,35.49z
		 M48.16,36.99c-0.57-0.01-1,0.14-1.28,0.46c-0.28,0.32-0.43,0.7-0.43,1.14c0,0.28,0.06,0.51,0.17,0.68
		c0.11,0.18,0.27,0.32,0.48,0.43s0.46,0.18,0.74,0.23c0.29,0.04,0.6,0.07,0.94,0.07c1.01,0,1.8-0.17,2.37-0.5
		c0.57-0.33,0.85-0.76,0.85-1.26c0-0.38-0.12-0.67-0.36-0.87c-0.24-0.2-0.68-0.31-1.33-0.32L48.16,36.99z M49.03,32.24
		c0.68,0,1.19-0.19,1.52-0.57c0.33-0.38,0.49-0.87,0.49-1.46c0-0.61-0.16-1.1-0.49-1.49c-0.33-0.38-0.83-0.58-1.52-0.58
		s-1.19,0.19-1.51,0.58c-0.32,0.39-0.48,0.88-0.48,1.49c0,0.59,0.16,1.08,0.48,1.46C47.84,32.05,48.34,32.24,49.03,32.24z"/>
	<path id="XMLID_27480_" class="st0" d="M55.97,22.84c0.14-0.03,0.29-0.04,0.46-0.06s0.33-0.02,0.46-0.02c0.14,0,0.3,0.01,0.47,0.02
		c0.18,0.01,0.33,0.03,0.47,0.06v5.65c0.11-0.18,0.26-0.37,0.43-0.57s0.38-0.39,0.63-0.56c0.25-0.17,0.53-0.31,0.85-0.42
		s0.68-0.16,1.07-0.16c1.11,0,1.94,0.32,2.48,0.96c0.54,0.64,0.81,1.58,0.81,2.84v6.16c-0.14,0.03-0.29,0.04-0.46,0.06
		c-0.17,0.01-0.33,0.02-0.46,0.02c-0.14,0-0.29-0.01-0.46-0.02c-0.17-0.01-0.33-0.03-0.46-0.06v-5.65c0-0.9-0.15-1.56-0.45-1.98
		c-0.3-0.42-0.75-0.64-1.36-0.64c-0.34,0-0.67,0.06-0.99,0.18c-0.32,0.12-0.59,0.31-0.83,0.57c-0.24,0.26-0.43,0.6-0.57,1.01
		c-0.14,0.42-0.21,0.92-0.21,1.52v4.99c-0.14,0.03-0.3,0.04-0.47,0.06c-0.18,0.01-0.34,0.02-0.47,0.02c-0.13,0-0.28-0.01-0.46-0.02
		c-0.18-0.01-0.33-0.03-0.47-0.06V22.84z"/>
	<path id="XMLID_27482_" class="st0" d="M67.31,28.51h-1.48l-0.08-0.27l3.26-3.64h0.15v2.41h2.47c0.05,0.21,0.08,0.46,0.08,0.72
		c0,0.14-0.01,0.27-0.02,0.4c-0.01,0.13-0.03,0.25-0.06,0.38h-2.47v4.44c0,0.53,0.02,0.96,0.07,1.27c0.04,0.32,0.12,0.56,0.23,0.73
		s0.25,0.28,0.44,0.34c0.18,0.06,0.41,0.09,0.69,0.09c0.21,0,0.42-0.02,0.61-0.05c0.19-0.03,0.36-0.07,0.51-0.1
		c0.09,0.25,0.14,0.51,0.16,0.78c0.02,0.27,0.03,0.5,0.03,0.7c-0.25,0.06-0.52,0.11-0.8,0.14s-0.58,0.05-0.89,0.05
		c-0.91,0-1.62-0.22-2.13-0.66c-0.51-0.44-0.77-1.18-0.77-2.2V28.51z"/>
	<path id="XMLID_27484_" class="st0" d="M73.57,34.97c0.34,0.14,0.72,0.25,1.13,0.33c0.41,0.08,0.82,0.12,1.22,0.12
		c0.29,0,0.57-0.03,0.83-0.09s0.5-0.16,0.69-0.28c0.2-0.13,0.35-0.28,0.47-0.46s0.18-0.39,0.18-0.62c0-0.25-0.05-0.46-0.14-0.63
		s-0.22-0.3-0.38-0.42c-0.16-0.11-0.34-0.21-0.55-0.29c-0.21-0.08-0.43-0.16-0.67-0.24l-0.66-0.25c-0.81-0.3-1.4-0.64-1.76-1.02
		c-0.37-0.38-0.55-0.89-0.55-1.54c0-0.86,0.31-1.54,0.92-2.05s1.51-0.76,2.7-0.76c0.49,0,0.98,0.05,1.45,0.14
		c0.47,0.09,0.89,0.21,1.24,0.33c-0.03,0.25-0.07,0.51-0.14,0.76c-0.07,0.25-0.16,0.49-0.26,0.7c-0.28-0.1-0.61-0.2-1-0.29
		s-0.8-0.14-1.24-0.14c-0.47,0-0.88,0.08-1.24,0.25c-0.36,0.16-0.54,0.46-0.54,0.87c0,0.21,0.04,0.4,0.13,0.55
		c0.09,0.15,0.21,0.28,0.36,0.39s0.33,0.2,0.52,0.28s0.41,0.15,0.64,0.23l0.83,0.28c0.3,0.1,0.59,0.22,0.86,0.36
		c0.27,0.14,0.51,0.31,0.7,0.52c0.2,0.21,0.35,0.46,0.47,0.76c0.12,0.3,0.18,0.65,0.18,1.07c0,0.47-0.09,0.89-0.29,1.28
		c-0.19,0.39-0.46,0.71-0.81,0.99c-0.35,0.27-0.77,0.48-1.26,0.63c-0.49,0.15-1.04,0.23-1.63,0.23c-0.61,0-1.14-0.04-1.59-0.12
		c-0.46-0.08-0.88-0.19-1.27-0.33c0.03-0.25,0.08-0.51,0.16-0.77C73.38,35.48,73.47,35.23,73.57,34.97z"/>
	<path id="XMLID_27486_" class="st0" d="M87.06,23.08c0.28-0.02,0.53-0.05,0.76-0.08s0.45-0.05,0.67-0.07
		c0.22-0.02,0.45-0.04,0.69-0.05s0.51-0.02,0.8-0.02c0.64,0,1.28,0.06,1.92,0.19c0.63,0.13,1.19,0.35,1.69,0.66s0.89,0.74,1.2,1.28
		c0.31,0.54,0.46,1.22,0.46,2.04c0,0.49-0.08,0.94-0.25,1.35c-0.17,0.4-0.37,0.76-0.63,1.08c-0.25,0.32-0.54,0.59-0.86,0.82
		c-0.32,0.23-0.63,0.43-0.94,0.58l-0.23,0.11l3.96,5.75c-0.34,0.04-0.73,0.06-1.16,0.06c-0.34,0-0.68-0.02-1.02-0.06l-4.36-6.32
		v-0.08l0.15-0.04c0.34-0.09,0.7-0.21,1.08-0.36c0.38-0.15,0.73-0.35,1.05-0.6c0.32-0.25,0.59-0.54,0.81-0.89s0.32-0.77,0.32-1.26
		c0-0.91-0.27-1.59-0.81-2.03c-0.54-0.44-1.26-0.66-2.17-0.66c-0.21,0-0.41,0.01-0.6,0.02c-0.18,0.01-0.39,0.03-0.62,0.06v12.16
		c-0.14,0.01-0.29,0.03-0.46,0.04s-0.33,0.02-0.48,0.02s-0.32,0-0.49-0.01c-0.18-0.01-0.34-0.02-0.49-0.05V23.08z"/>
	<path id="XMLID_27488_" class="st0" d="M99.31,32.34c0.03,1.06,0.3,1.84,0.83,2.33c0.52,0.49,1.3,0.74,2.32,0.74
		c0.9,0,1.75-0.16,2.56-0.47c0.1,0.19,0.18,0.42,0.25,0.69c0.06,0.27,0.1,0.54,0.11,0.81c-0.42,0.18-0.88,0.31-1.38,0.4
		c-0.5,0.09-1.05,0.13-1.66,0.13c-0.89,0-1.64-0.12-2.28-0.37c-0.63-0.25-1.15-0.59-1.56-1.04c-0.41-0.45-0.71-0.98-0.9-1.59
		s-0.28-1.29-0.28-2.02c0-0.72,0.09-1.39,0.27-2.02s0.46-1.17,0.84-1.63c0.38-0.46,0.86-0.83,1.43-1.1
		c0.58-0.27,1.25-0.41,2.04-0.41c0.67,0,1.26,0.11,1.76,0.34s0.93,0.54,1.27,0.94c0.34,0.4,0.6,0.87,0.78,1.42
		c0.18,0.55,0.27,1.15,0.27,1.79c0,0.18-0.01,0.36-0.02,0.56s-0.03,0.36-0.04,0.5H99.31z M104.12,30.93c0-0.35-0.05-0.69-0.14-1.01
		c-0.1-0.32-0.23-0.6-0.42-0.84s-0.42-0.43-0.7-0.58c-0.29-0.14-0.62-0.22-1.01-0.22c-0.77,0-1.36,0.23-1.77,0.7
		c-0.41,0.47-0.66,1.12-0.75,1.95H104.12z"/>
	<path id="XMLID_27491_" class="st0" d="M108.28,34.97c0.34,0.14,0.72,0.25,1.13,0.33c0.41,0.08,0.82,0.12,1.22,0.12
		c0.29,0,0.57-0.03,0.83-0.09s0.5-0.16,0.69-0.28c0.2-0.13,0.35-0.28,0.47-0.46s0.18-0.39,0.18-0.62c0-0.25-0.05-0.46-0.14-0.63
		s-0.22-0.3-0.38-0.42c-0.16-0.11-0.34-0.21-0.55-0.29c-0.21-0.08-0.43-0.16-0.67-0.24l-0.66-0.25c-0.81-0.3-1.4-0.64-1.76-1.02
		c-0.37-0.38-0.55-0.89-0.55-1.54c0-0.86,0.31-1.54,0.92-2.05s1.51-0.76,2.7-0.76c0.49,0,0.98,0.05,1.45,0.14
		c0.47,0.09,0.89,0.21,1.24,0.33c-0.03,0.25-0.07,0.51-0.14,0.76c-0.07,0.25-0.16,0.49-0.26,0.7c-0.28-0.1-0.61-0.2-1-0.29
		s-0.8-0.14-1.24-0.14c-0.47,0-0.88,0.08-1.24,0.25c-0.36,0.16-0.54,0.46-0.54,0.87c0,0.21,0.04,0.4,0.13,0.55
		c0.09,0.15,0.21,0.28,0.36,0.39s0.33,0.2,0.52,0.28s0.41,0.15,0.64,0.23l0.83,0.28c0.3,0.1,0.59,0.22,0.86,0.36
		c0.27,0.14,0.51,0.31,0.7,0.52c0.2,0.21,0.35,0.46,0.47,0.76c0.12,0.3,0.18,0.65,0.18,1.07c0,0.47-0.09,0.89-0.29,1.28
		c-0.19,0.39-0.46,0.71-0.81,0.99c-0.35,0.27-0.77,0.48-1.26,0.63c-0.49,0.15-1.04,0.23-1.63,0.23c-0.61,0-1.14-0.04-1.59-0.12
		c-0.46-0.08-0.88-0.19-1.27-0.33c0.03-0.25,0.08-0.51,0.16-0.77C108.09,35.48,108.18,35.23,108.28,34.97z"/>
	<path id="XMLID_27493_" class="st0" d="M118.48,32.34c0.03,1.06,0.3,1.84,0.83,2.33c0.52,0.49,1.3,0.74,2.32,0.74
		c0.9,0,1.75-0.16,2.56-0.47c0.1,0.19,0.18,0.42,0.25,0.69c0.06,0.27,0.1,0.54,0.11,0.81c-0.42,0.18-0.88,0.31-1.38,0.4
		c-0.5,0.09-1.05,0.13-1.66,0.13c-0.89,0-1.64-0.12-2.28-0.37c-0.63-0.25-1.15-0.59-1.56-1.04c-0.41-0.45-0.71-0.98-0.9-1.59
		s-0.28-1.29-0.28-2.02c0-0.72,0.09-1.39,0.27-2.02s0.46-1.17,0.84-1.63c0.38-0.46,0.86-0.83,1.43-1.1
		c0.58-0.27,1.25-0.41,2.04-0.41c0.67,0,1.26,0.11,1.76,0.34s0.93,0.54,1.27,0.94c0.34,0.4,0.6,0.87,0.78,1.42
		c0.18,0.55,0.27,1.15,0.27,1.79c0,0.18-0.01,0.36-0.02,0.56s-0.03,0.36-0.04,0.5H118.48z M123.3,30.93c0-0.35-0.05-0.69-0.14-1.01
		c-0.1-0.32-0.23-0.6-0.42-0.84s-0.42-0.43-0.7-0.58c-0.29-0.14-0.62-0.22-1.01-0.22c-0.77,0-1.36,0.23-1.77,0.7
		c-0.41,0.47-0.66,1.12-0.75,1.95H123.3z"/>
	<path id="XMLID_27496_" class="st0" d="M127.62,27.01c0.14-0.03,0.27-0.04,0.4-0.06c0.13-0.01,0.26-0.02,0.4-0.02
		c0.14,0,0.28,0.01,0.42,0.02c0.14,0.01,0.27,0.03,0.38,0.06c0.04,0.19,0.08,0.44,0.11,0.75s0.06,0.57,0.06,0.79
		c0.27-0.43,0.62-0.8,1.05-1.12c0.44-0.32,1-0.47,1.68-0.47c0.1,0,0.21,0,0.31,0.01c0.11,0.01,0.2,0.02,0.28,0.03
		c0.03,0.11,0.04,0.23,0.06,0.36c0.01,0.13,0.02,0.26,0.02,0.4c0,0.15-0.01,0.31-0.03,0.47c-0.02,0.16-0.04,0.32-0.07,0.47
		c-0.1-0.02-0.21-0.04-0.31-0.04s-0.19,0-0.26,0c-0.34,0-0.67,0.05-0.98,0.14c-0.31,0.09-0.59,0.26-0.83,0.5
		c-0.25,0.24-0.44,0.57-0.59,0.99c-0.15,0.42-0.22,0.96-0.22,1.61v4.84c-0.14,0.03-0.29,0.04-0.46,0.06
		c-0.17,0.01-0.33,0.02-0.46,0.02c-0.14,0-0.29-0.01-0.46-0.02c-0.17-0.01-0.33-0.03-0.48-0.06V27.01z"/>
	<path id="XMLID_27498_" class="st0" d="M133.49,27.01c0.18-0.03,0.36-0.04,0.55-0.06c0.19-0.01,0.36-0.02,0.51-0.02
		c0.16,0,0.34,0.01,0.54,0.02c0.2,0.01,0.36,0.03,0.5,0.06l2.66,8.02l2.67-8.02c0.14-0.03,0.3-0.04,0.47-0.06
		c0.18-0.01,0.35-0.02,0.51-0.02c0.14,0,0.3,0.01,0.47,0.02c0.18,0.01,0.35,0.03,0.53,0.06l-3.79,9.73
		c-0.17,0.03-0.33,0.04-0.49,0.06c-0.17,0.01-0.32,0.02-0.46,0.02c-0.14,0-0.29-0.01-0.45-0.02c-0.16-0.01-0.31-0.03-0.46-0.06
		L133.49,27.01z"/>
	<path id="XMLID_27500_" class="st0" d="M145.78,32.34c0.03,1.06,0.3,1.84,0.83,2.33c0.52,0.49,1.3,0.74,2.32,0.74
		c0.9,0,1.75-0.16,2.56-0.47c0.1,0.19,0.18,0.42,0.25,0.69c0.06,0.27,0.1,0.54,0.11,0.81c-0.42,0.18-0.88,0.31-1.38,0.4
		c-0.5,0.09-1.05,0.13-1.66,0.13c-0.89,0-1.64-0.12-2.28-0.37c-0.63-0.25-1.15-0.59-1.56-1.04c-0.41-0.45-0.71-0.98-0.9-1.59
		s-0.28-1.29-0.28-2.02c0-0.72,0.09-1.39,0.27-2.02s0.46-1.17,0.84-1.63c0.38-0.46,0.86-0.83,1.43-1.1
		c0.58-0.27,1.25-0.41,2.04-0.41c0.67,0,1.26,0.11,1.76,0.34s0.93,0.54,1.27,0.94c0.34,0.4,0.6,0.87,0.78,1.42
		c0.18,0.55,0.27,1.15,0.27,1.79c0,0.18-0.01,0.36-0.02,0.56s-0.03,0.36-0.04,0.5H145.78z M150.59,30.93c0-0.35-0.05-0.69-0.14-1.01
		c-0.1-0.32-0.23-0.6-0.42-0.84s-0.42-0.43-0.7-0.58c-0.29-0.14-0.62-0.22-1.01-0.22c-0.77,0-1.36,0.23-1.77,0.7
		c-0.41,0.47-0.66,1.12-0.75,1.95H150.59z"/>
	<path id="XMLID_27503_" class="st0" d="M161.16,22.84c0.14-0.03,0.3-0.04,0.47-0.06s0.33-0.02,0.46-0.02
		c0.14,0,0.29,0.01,0.46,0.02s0.33,0.03,0.46,0.06v13.64c-0.48,0.14-1.02,0.26-1.61,0.35s-1.26,0.14-1.99,0.14
		c-0.68,0-1.33-0.08-1.94-0.26s-1.15-0.45-1.6-0.84s-0.82-0.9-1.08-1.52c-0.27-0.62-0.4-1.38-0.4-2.29c0-0.78,0.12-1.5,0.35-2.14
		c0.23-0.64,0.57-1.2,1-1.66s0.95-0.82,1.55-1.07s1.27-0.38,2-0.38c0.33,0,0.66,0.03,1,0.08s0.63,0.11,0.88,0.19V22.84z
		 M161.16,28.66c-0.25-0.1-0.53-0.18-0.82-0.23c-0.29-0.05-0.61-0.08-0.95-0.08c-0.52,0-0.97,0.09-1.35,0.28
		c-0.38,0.19-0.69,0.45-0.94,0.78c-0.25,0.33-0.43,0.72-0.55,1.17s-0.18,0.94-0.18,1.47c0.01,1.2,0.3,2.06,0.85,2.58
		c0.56,0.52,1.32,0.78,2.28,0.78c0.33,0,0.63-0.02,0.91-0.05c0.28-0.03,0.52-0.08,0.74-0.14V28.66z"/>
	<path id="XMLID_27506_" class="st0" d="M165.75,36.74c-0.03-0.18-0.05-0.35-0.07-0.52c-0.02-0.17-0.03-0.34-0.03-0.52
		c0-0.18,0.01-0.36,0.03-0.54c0.02-0.18,0.04-0.36,0.07-0.54c0.18-0.03,0.35-0.04,0.52-0.06c0.17-0.01,0.34-0.02,0.52-0.02
		c0.18,0,0.35,0.01,0.53,0.02c0.18,0.01,0.35,0.03,0.53,0.06c0.03,0.18,0.05,0.35,0.07,0.53c0.02,0.18,0.03,0.35,0.03,0.53
		c0,0.18-0.01,0.35-0.03,0.53c-0.02,0.18-0.04,0.35-0.07,0.53c-0.18,0.03-0.35,0.04-0.52,0.06c-0.17,0.01-0.34,0.02-0.52,0.02
		s-0.35-0.01-0.53-0.02C166.1,36.78,165.93,36.76,165.75,36.74z"/>
</g>
</svg>
