<?xml version="1.0" encoding="utf-8"?>
<!-- Generator: Adobe Illustrator 25.4.1, SVG Export Plug-In . SVG Version: 6.00 Build 0)  -->
<svg version="1.1" id="圖層_1" xmlns="http://www.w3.org/2000/svg" xmlns:xlink="http://www.w3.org/1999/xlink" x="0px" y="0px"
	 viewBox="0 0 122.09 16.67" style="enable-background:new 0 0 122.09 16.67;" xml:space="preserve">
<style type="text/css">
	.st0{fill:#FFFFFF;}
</style>
<g id="XMLID_17623_">
	<g>
		<path id="XMLID_00000097492040359325655120000013527769075161491626_" class="st0" d="M8.92,0.74c1.66,0.73,2.96,1.83,3.88,3.3
			s1.36,3.09,1.31,4.87c-0.01,0.2-0.02,0.41-0.05,0.61c-0.13,1.2-0.51,2.36-1.14,3.48s-1.49,2-2.57,2.61
			c-1.05,0.54-2.18,0.82-3.37,0.84s-2.35-0.12-3.47-0.4c-0.44-0.09-0.86-0.23-1.26-0.41s-0.74-0.43-1.03-0.76
			c-0.34-0.46-0.56-0.97-0.68-1.54c-0.51-2.19-0.66-4.42-0.46-6.7C0.13,5.98,0.2,5.33,0.3,4.68C0.39,3.78,0.63,2.93,1,2.11
			c0.54-1.05,1.39-1.69,2.55-1.9C5.42-0.14,7.2,0.04,8.92,0.74z M6.7,9.65c0.56-0.52,0.8-1.12,0.7-1.82
			C7.35,7.5,7.21,7.14,6.97,6.74S6.41,6.09,6.02,5.97C5.71,5.94,5.5,6.15,5.38,6.59S5.2,7.52,5.19,8.04S5.18,8.91,5.21,9.09
			c0.05,0.38,0.22,0.64,0.5,0.79S6.32,9.94,6.7,9.65z"/>
		<path id="XMLID_00000151544260451519044090000001015243284197294732_" class="st0" d="M14.99,8.96c-0.03-1.08-0.03-2.15,0-3.22
			c0.01-0.22,0.02-0.45,0.02-0.69c-0.01-0.65,0.03-1.3,0.11-1.96s0.28-1.25,0.6-1.76c0.54-0.8,1.25-1.24,2.13-1.31
			c0.7-0.01,1.25,0.23,1.65,0.73s0.64,1.1,0.73,1.82c0.11,0.98,0.14,1.95,0.11,2.93c-0.01,0.36-0.01,0.72-0.01,1.08
			c0.02,1.46,0.05,2.93,0.09,4.39c0.01,0.26,0.02,0.52,0.04,0.79c0.05,0.62,0.05,1.24,0.02,1.86s-0.18,1.2-0.45,1.74
			c-0.34,0.62-0.83,1.02-1.47,1.22s-1.25,0.14-1.85-0.15c-0.54-0.3-0.95-0.75-1.22-1.34s-0.41-1.21-0.41-1.86
			c-0.02-0.9-0.04-1.79-0.07-2.68C15.01,9.99,15,9.47,14.99,8.96z"/>
		<path id="XMLID_00000091732453342426849540000001798585312692116104_" class="st0" d="M29.13,6.97c0.61,0.52,1.14,1.11,1.61,1.76
			s0.79,1.35,0.98,2.11c0.2,0.78,0.2,1.56,0.02,2.34s-0.56,1.45-1.14,2.01c-0.6,0.52-1.3,0.88-2.1,1.06
			c-0.8,0.18-1.61,0.26-2.43,0.24c-0.78,0-1.52-0.11-2.2-0.33s-1.3-0.63-1.83-1.24c-0.29-0.34-0.49-0.73-0.6-1.15
			s-0.1-0.85,0.04-1.27c0.16-0.42,0.44-0.75,0.84-0.97s0.82-0.28,1.26-0.16c0.23,0.09,0.46,0.2,0.67,0.34
			c0.18,0.12,0.37,0.23,0.57,0.32c0.23,0.09,0.47,0.1,0.71,0.04s0.4-0.2,0.47-0.42c0.03-0.17,0-0.34-0.09-0.49s-0.21-0.3-0.34-0.42
			c-0.17-0.18-0.35-0.36-0.53-0.54c-0.53-0.52-1.04-1.06-1.52-1.62s-0.86-1.18-1.13-1.83s-0.37-1.38-0.28-2.17
			c0.09-0.88,0.38-1.68,0.9-2.4s1.18-1.27,2-1.63c1.16-0.48,2.32-0.56,3.46-0.24s2.09,0.96,2.83,1.92c0.29,0.38,0.47,0.79,0.56,1.25
			s0.03,0.9-0.17,1.32c-0.23,0.42-0.57,0.72-1.03,0.88s-0.9,0.14-1.32-0.08c-0.12-0.08-0.25-0.19-0.4-0.34
			c-0.2-0.23-0.42-0.39-0.64-0.5s-0.45-0.01-0.66,0.3c-0.14,0.3-0.07,0.59,0.21,0.88s0.59,0.55,0.91,0.78
			C28.92,6.8,29.04,6.89,29.13,6.97z"/>
		<path id="XMLID_00000071518727172210188320000008296031750947217588_" class="st0" d="M45.23,13.12
			c-0.01,0.11-0.02,0.22-0.05,0.33c-0.23,1.02-0.81,1.78-1.76,2.27c-1.06,0.49-2.18,0.73-3.35,0.7c-1.67-0.08-3.24-0.51-4.71-1.29
			c-0.7-0.39-1.29-0.94-1.75-1.63s-0.81-1.42-1.04-2.16c-0.4-1.27-0.53-2.55-0.4-3.85s0.54-2.5,1.21-3.6
			c0.67-1.1,1.61-1.99,2.82-2.66c0.8-0.43,1.69-0.73,2.67-0.91s1.94-0.17,2.89,0.03s1.75,0.65,2.43,1.34c0.68,0.75,1.01,1.63,1,2.65
			c-0.02,0.76-0.27,1.41-0.77,1.97c-0.55,0.55-1.21,0.77-1.97,0.63c-0.27-0.07-0.52-0.18-0.77-0.32c-0.28-0.16-0.57-0.27-0.88-0.34
			c-0.49-0.07-0.9,0.03-1.22,0.3s-0.54,0.63-0.66,1.07c-0.12,0.44-0.13,0.87-0.03,1.29c0.16,0.59,0.47,1.04,0.93,1.34
			s0.99,0.38,1.59,0.23c0.17-0.05,0.35-0.1,0.53-0.16c0.42-0.18,0.86-0.27,1.31-0.26c0.71,0.09,1.23,0.45,1.57,1.08
			S45.28,12.44,45.23,13.12z"/>
		<path id="XMLID_00000038379754552590727900000001922326345218330520_" class="st0" d="M52.25,8.02c-0.03,0.45-0.02,0.9,0.05,1.34
			c0.12,0.68,0.42,1.1,0.87,1.27s0.99,0.19,1.61,0.08c0.76-0.13,1.39-0.04,1.89,0.28s0.8,0.89,0.88,1.7c0.04,0.62-0.1,1.22-0.41,1.8
			s-0.73,1.03-1.27,1.33c-0.43,0.22-0.89,0.37-1.37,0.44s-0.97,0.12-1.45,0.12l-2.23-0.08c-0.45,0-0.89-0.04-1.32-0.13
			s-0.84-0.25-1.22-0.47c-0.6-0.42-1.02-0.98-1.25-1.66s-0.39-1.38-0.48-2.07c-0.15-1.21-0.22-2.43-0.21-3.66
			c-0.01-0.46-0.02-0.92-0.04-1.37c-0.04-0.72-0.03-1.5,0.02-2.36s0.22-1.65,0.52-2.39s0.8-1.31,1.51-1.71
			c0.64-0.31,1.23-0.41,1.78-0.3s1.05,0.45,1.52,1c0.29,0.39,0.47,0.83,0.53,1.31s0.1,0.97,0.09,1.46c-0.01,0.61-0.01,1.2-0.01,1.76
			v1.77C52.27,7.65,52.26,7.83,52.25,8.02z"/>
		<path id="XMLID_00000017502270675371505520000010303342878247489174_" class="st0" d="M64.14,13.79c-0.24,0.74-0.6,1.36-1.08,1.85
			c-0.49,0.52-1.18,0.77-2.05,0.75c-0.69-0.04-1.29-0.27-1.81-0.69s-0.86-0.96-1.03-1.62c-0.12-0.6-0.11-1.21,0.01-1.82
			s0.29-1.21,0.48-1.79c0.07-0.22,0.14-0.43,0.2-0.64c0.37-1.26,0.74-2.52,1.11-3.77c0.17-0.62,0.37-1.25,0.59-1.86
			s0.51-1.2,0.85-1.75c0.35-0.56,0.79-1.05,1.31-1.45s1.11-0.66,1.76-0.77c1-0.12,1.93,0.1,2.79,0.67c0.8,0.52,1.44,1.19,1.93,2
			s0.88,1.66,1.18,2.55c0.54,1.59,1,3.21,1.39,4.86c0.11,0.45,0.22,0.89,0.33,1.32l0.19,0.66c0.21,0.66,0.35,1.31,0.41,1.97
			c0.02,0.55-0.12,1.01-0.45,1.38s-0.72,0.63-1.21,0.78s-0.97,0.16-1.46,0.05c-0.84-0.24-1.5-0.73-2-1.46
			c-0.23-0.34-0.42-0.71-0.55-1.1c-0.1,0.01-0.21,0.01-0.32,0C65.86,13.88,65,13.85,64.14,13.79z M66.26,10.68
			c-0.13-0.6-0.27-1.2-0.41-1.79c-0.07-0.27-0.15-0.4-0.25-0.41s-0.19,0.06-0.28,0.2s-0.15,0.3-0.19,0.48c-0.1,0.48-0.2,1-0.28,1.56
			C65.31,10.69,65.79,10.68,66.26,10.68z"/>
		<path id="XMLID_00000098921849564848835820000018302397648223174567_" class="st0" d="M73.02,8.96c-0.03-1.08-0.03-2.15,0-3.22
			c0.01-0.22,0.02-0.45,0.02-0.69c-0.01-0.65,0.03-1.3,0.11-1.96s0.28-1.25,0.6-1.76C74.3,0.51,75.01,0.07,75.9,0
			c0.7-0.01,1.25,0.23,1.65,0.73s0.64,1.1,0.73,1.82c0.11,0.98,0.14,1.95,0.11,2.93c-0.01,0.36-0.01,0.72-0.01,1.08
			c0.02,1.46,0.05,2.93,0.09,4.39c0.01,0.26,0.02,0.52,0.04,0.79c0.05,0.62,0.05,1.24,0.02,1.86c-0.03,0.62-0.18,1.2-0.45,1.74
			c-0.34,0.62-0.83,1.02-1.47,1.22s-1.25,0.14-1.85-0.15c-0.54-0.3-0.95-0.75-1.22-1.34s-0.41-1.21-0.41-1.86
			c-0.02-0.9-0.04-1.79-0.07-2.68C73.04,9.99,73.03,9.47,73.02,8.96z"/>
		<path id="XMLID_00000183946310799059132280000008219473191964550030_" class="st0" d="M87.11,15.46c-0.77-0.09-1.27-0.54-1.5-1.32
			c-0.01-0.05-0.02-0.09-0.04-0.14c-0.04-0.27-0.12-0.55-0.26-0.83s-0.36-0.39-0.68-0.35c-0.21,0.05-0.36,0.19-0.45,0.4
			s-0.14,0.43-0.18,0.66c-0.1,0.49-0.29,0.95-0.57,1.37s-0.64,0.74-1.09,0.98c-0.47,0.22-0.96,0.29-1.47,0.21s-0.94-0.31-1.27-0.69
			c-0.41-0.58-0.56-1.23-0.43-1.95c0.23-1.26,0.54-2.5,0.95-3.73c0.21-0.68,0.41-1.36,0.59-2.04c0.12-0.49,0.25-0.99,0.36-1.49
			c0.31-1.45,0.73-2.88,1.25-4.28c0.19-0.45,0.49-0.85,0.9-1.19s0.87-0.56,1.36-0.65c0.49-0.07,0.87,0,1.12,0.2S86.2,1.09,86.4,1.4
			c0.19,0.3,0.42,0.57,0.7,0.82c0.44,0.34,0.8,0.39,1.1,0.16s0.57-0.54,0.81-0.95c0.15-0.23,0.3-0.43,0.45-0.62s0.31-0.32,0.49-0.4
			c0.59-0.23,1.09-0.19,1.52,0.12s0.79,0.73,1.07,1.27s0.51,1.02,0.66,1.46c1.19,3.17,2.1,6.42,2.73,9.74
			c0.07,0.35,0.12,0.71,0.13,1.06s-0.04,0.7-0.17,1.03c-0.24,0.53-0.65,0.91-1.22,1.12s-1.15,0.25-1.73,0.09
			c-0.86-0.3-1.52-0.83-1.99-1.59c-0.06-0.11-0.13-0.26-0.21-0.45c-0.14-0.33-0.31-0.64-0.51-0.94s-0.44-0.42-0.71-0.38
			c-0.21,0.06-0.38,0.2-0.49,0.4s-0.22,0.44-0.3,0.71c-0.09,0.24-0.18,0.47-0.29,0.69s-0.26,0.38-0.45,0.49
			C87.69,15.4,87.4,15.48,87.11,15.46z"/>
		<path id="XMLID_00000013912098657278169110000002866885470815030713_" class="st0" d="M107.49,2.29c0.02,0.12,0.04,0.23,0.06,0.34
			c0.09,0.44,0.11,0.88,0.08,1.32s-0.22,0.81-0.54,1.09c-0.26,0.19-0.55,0.29-0.87,0.3s-0.64-0.02-0.96-0.11
			c-0.06-0.02-0.12-0.04-0.19-0.06c-0.34-0.12-0.69-0.16-1.03-0.12c-0.21,0.05-0.37,0.18-0.48,0.36s-0.11,0.37,0.01,0.54
			c0.1,0.12,0.23,0.18,0.39,0.18s0.33-0.01,0.51-0.04c0.16-0.03,0.32-0.05,0.48-0.06c0.45,0.05,0.79,0.26,1.03,0.63
			c0.2,0.36,0.33,0.75,0.38,1.17c0.05,0.33,0.05,0.65,0,0.98s-0.21,0.58-0.47,0.78c-0.33,0.2-0.7,0.27-1.1,0.23
			c-0.07,0-0.14,0-0.21-0.01c-0.25-0.02-0.51-0.01-0.78,0.01s-0.49,0.1-0.66,0.25c-0.11,0.11-0.18,0.24-0.2,0.4s0,0.3,0.08,0.45
			c0.09,0.17,0.24,0.3,0.43,0.38s0.39,0.12,0.59,0.12c0.22-0.01,0.44-0.03,0.66-0.07c0.18-0.03,0.36-0.05,0.54-0.07
			c0.53-0.02,1.03,0.1,1.48,0.37s0.8,0.64,1.03,1.11c0.28,0.64,0.3,1.28,0.06,1.92s-0.7,1.09-1.36,1.37
			c-1.6,0.55-3.22,0.58-4.86,0.06s-2.93-1.45-3.87-2.81c-0.99-1.55-1.48-3.25-1.45-5.11s0.6-3.53,1.73-5
			c0.8-0.99,1.8-1.77,2.98-2.33s2.43-0.79,3.74-0.71c0.71,0.05,1.32,0.24,1.82,0.58S107.34,1.59,107.49,2.29z"/>
		<path id="XMLID_00000013874907698275705290000005809545061893882000_" class="st0" d="M121.97,12.93c0.2,0.7,0.13,1.32-0.18,1.87
			s-0.78,0.95-1.38,1.21s-1.23,0.28-1.9,0.09c-0.65-0.23-1.12-0.62-1.42-1.15s-0.54-1.11-0.72-1.75c-0.19-0.66-0.44-1.26-0.76-1.8
			c-0.14-0.24-0.33-0.43-0.56-0.57c-0.12-0.07-0.25-0.1-0.39-0.09s-0.26,0.06-0.36,0.16c-0.1,0.12-0.15,0.65-0.16,1.57
			s-0.12,1.67-0.33,2.24c-0.33,0.73-0.86,1.25-1.58,1.55c-0.78,0.27-1.49,0.15-2.13-0.35c-0.29-0.3-0.52-0.64-0.7-1.02
			c-0.23-0.46-0.39-0.95-0.46-1.46s-0.11-1.03-0.13-1.54c-0.01-0.25-0.02-0.49-0.04-0.73c-0.02-0.35-0.05-0.7-0.08-1.05
			c-0.09-1.09-0.15-2.18-0.18-3.27c-0.02-1.7,0.35-3.11,1.12-4.25s2-1.9,3.68-2.29c1.39-0.35,2.78-0.38,4.16-0.08
			c0.69,0.17,1.33,0.45,1.92,0.84s1.07,0.89,1.45,1.49c0.36,0.63,0.53,1.35,0.5,2.16s-0.22,1.52-0.59,2.13
			c-0.14,0.23-0.29,0.46-0.46,0.67c-0.18,0.23-0.34,0.46-0.49,0.7c-0.15,0.25-0.25,0.51-0.31,0.79s-0.04,0.55,0.05,0.81
			c0.09,0.22,0.21,0.41,0.38,0.57s0.34,0.31,0.53,0.44c0.15,0.11,0.29,0.23,0.43,0.35C121.38,11.66,121.75,12.25,121.97,12.93z
			 M115.43,6.77c0.22-0.17,0.36-0.38,0.42-0.61s0.03-0.46-0.09-0.68c-0.07-0.12-0.18-0.25-0.34-0.38s-0.33-0.22-0.52-0.28
			s-0.36-0.04-0.53,0.05c-0.19,0.15-0.28,0.38-0.28,0.7s0.03,0.59,0.08,0.81c0.01,0.02,0.01,0.05,0.01,0.07
			c0.01,0.14,0.06,0.27,0.16,0.38c0.13,0.12,0.31,0.17,0.52,0.15S115.28,6.88,115.43,6.77z"/>
	</g>
</g>
</svg>
