<?xml version="1.0" encoding="utf-8"?>
<!-- Generator: Adobe Illustrator 25.4.1, SVG Export Plug-In . SVG Version: 6.00 Build 0)  -->
<svg version="1.1" id="圖層_1" xmlns="http://www.w3.org/2000/svg" xmlns:xlink="http://www.w3.org/1999/xlink" x="0px" y="0px"
	 viewBox="0 0 92.74 66.61" style="enable-background:new 0 0 92.74 66.61;" xml:space="preserve">
<style type="text/css">
	.st0{fill:#FFFFFF;}
	.st1{fill:#231815;}
</style>
<g id="XMLID_26904_">
	<g>
		<g>
			<path id="XMLID_00000081633336928688473670000006880527843729727913_" class="st0" d="M9.71,31.35c1.5,0.43,2.7,1.19,3.6,2.28
				s1.46,2.32,1.67,3.69c0.21,1.36,0.03,2.66-0.56,3.89c-0.59,1.23-1.62,2.19-3.1,2.88c-1.04,0.44-2.12,0.67-3.25,0.7
				s-2.23-0.12-3.31-0.45c-0.73-0.21-1.41-0.52-2.05-0.93c-0.63-0.41-1.13-0.95-1.47-1.6c-0.21-0.47-0.29-1-0.23-1.59
				s0.24-1.12,0.56-1.59c0.32-0.46,0.78-0.73,1.36-0.79c0.38-0.02,0.77,0.02,1.17,0.12c0.41,0.1,0.81,0.22,1.2,0.35
				c0.35,0.11,0.7,0.21,1.03,0.3c0.26,0.07,0.52,0.1,0.78,0.09c0.29-0.03,0.51-0.17,0.64-0.42c0.05-0.14,0.05-0.27,0.01-0.41
				s-0.12-0.26-0.23-0.37c-0.22-0.2-0.47-0.35-0.75-0.45c-1.09-0.42-2.11-0.95-3.05-1.61c-0.93-0.72-1.63-1.68-2.12-2.88
				c-0.48-1.2-0.65-2.38-0.49-3.53c0.19-1.14,0.64-2.16,1.36-3.07c0.72-0.91,1.6-1.62,2.64-2.12c1.18-0.54,2.45-0.81,3.83-0.81
				s2.64,0.29,3.8,0.88c0.55,0.29,1.05,0.69,1.48,1.2c0.44,0.51,0.72,1.07,0.84,1.69c0.12,0.61-0.01,1.21-0.38,1.8
				c-0.53,0.76-1.23,1.31-2.1,1.66s-1.74,0.29-2.62-0.17c-0.08-0.04-0.16-0.09-0.23-0.14c-0.18-0.12-0.36-0.22-0.55-0.3
				c-0.15-0.05-0.29-0.07-0.45-0.06c-0.15,0.01-0.28,0.06-0.4,0.16c-0.16,0.16-0.21,0.35-0.17,0.58c0.04,0.23,0.15,0.42,0.31,0.56
				c0.31,0.23,0.67,0.38,1.06,0.44C9.61,31.33,9.66,31.34,9.71,31.35z"/>
			<path class="st1" d="M7.79,45.79c-1.12,0-2.24-0.17-3.32-0.5c-0.8-0.23-1.58-0.58-2.3-1.05c-0.78-0.5-1.39-1.17-1.81-1.97
				c-0.31-0.68-0.41-1.38-0.34-2.14c0.07-0.77,0.32-1.46,0.74-2.07c0.49-0.7,1.2-1.12,2.07-1.21c0.52-0.03,1.01,0.02,1.51,0.14
				c0,0,0.01,0,0.02,0c-0.41-0.23-0.8-0.48-1.18-0.74c-1.1-0.85-1.92-1.96-2.47-3.32c-0.55-1.35-0.73-2.71-0.56-4.04
				c0.22-1.33,0.74-2.51,1.56-3.55c0.81-1.03,1.82-1.83,2.99-2.4c2.65-1.22,5.93-1.23,8.5,0.07c0.68,0.36,1.27,0.84,1.79,1.44
				c0.55,0.64,0.91,1.36,1.06,2.15c0.17,0.87-0.01,1.72-0.52,2.52c-0.66,0.95-1.52,1.63-2.57,2.04c-0.24,0.1-0.48,0.17-0.72,0.22
				c0.7,0.44,1.32,0.98,1.84,1.62c1.01,1.23,1.65,2.63,1.89,4.17c0.24,1.56,0.03,3.07-0.65,4.47c-0.69,1.44-1.89,2.56-3.58,3.35
				c-1.18,0.5-2.4,0.76-3.64,0.8C8,45.79,7.89,45.79,7.79,45.79z M3.13,38.83c-0.05,0-0.09,0-0.14,0c-0.25,0.03-0.44,0.14-0.6,0.36
				C2.17,39.52,2.04,39.88,2,40.3c-0.04,0.43,0.01,0.79,0.15,1.1c0.24,0.45,0.61,0.85,1.1,1.17c0.55,0.36,1.15,0.63,1.78,0.81
				c1,0.3,2,0.45,3.01,0.42c1-0.03,1.97-0.24,2.89-0.62c1.24-0.58,2.1-1.36,2.59-2.39c0.5-1.05,0.66-2.13,0.48-3.31
				c-0.18-1.18-0.67-2.26-1.46-3.21c-0.77-0.93-1.77-1.57-3.07-1.95c-0.06-0.01-0.11-0.03-0.17-0.05c-0.51-0.1-0.98-0.3-1.4-0.6
				c-0.4-0.35-0.62-0.74-0.7-1.19c-0.1-0.55,0.06-1.07,0.45-1.46l0.08-0.07c0.27-0.22,0.6-0.35,0.96-0.38
				c0.29-0.02,0.57,0.02,0.85,0.12c0.29,0.11,0.55,0.25,0.79,0.42c0.04,0.03,0.07,0.05,0.1,0.06c0.64,0.33,1.21,0.38,1.81,0.14
				c0.69-0.27,1.23-0.7,1.65-1.3c0.21-0.34,0.29-0.68,0.22-1.04c-0.09-0.45-0.29-0.85-0.61-1.23c-0.36-0.42-0.75-0.74-1.19-0.97
				c-2-1.01-4.67-0.99-6.74-0.04c-0.88,0.42-1.65,1.04-2.27,1.83c-0.62,0.78-1,1.64-1.16,2.62c-0.13,0.95,0.02,1.97,0.43,3
				c0.42,1.04,1.01,1.85,1.8,2.46c0.83,0.58,1.78,1.08,2.79,1.47c0.39,0.14,0.75,0.36,1.06,0.64c0.25,0.25,0.41,0.51,0.5,0.79
				c0.12,0.36,0.11,0.74-0.03,1.09l-0.05,0.11c-0.29,0.54-0.79,0.87-1.41,0.94c-0.44,0.02-0.8-0.02-1.16-0.12
				C5.74,39.48,5.38,39.38,5,39.25c-0.38-0.13-0.75-0.24-1.13-0.33C3.61,38.86,3.36,38.83,3.13,38.83z"/>
		</g>
		<g>
			<path id="XMLID_00000155135106414482998110000010850889671989989021_" class="st0" d="M32.73,24.35c0.7,0.65,1.08,1.47,1.14,2.47
				s-0.23,1.85-0.89,2.55c-0.4,0.38-0.83,0.6-1.31,0.66c-0.48,0.07-0.97,0.1-1.48,0.1c-0.34,0-0.63,0.1-0.85,0.31
				c-0.22,0.21-0.39,0.63-0.49,1.27s-0.16,1.61-0.16,2.91c0,1.07-0.02,2.14-0.05,3.2c-0.02,0.53-0.04,1.07-0.05,1.61
				c0,0.81-0.11,1.6-0.33,2.36c-0.22,0.76-0.62,1.42-1.22,1.97c-0.62,0.52-1.34,0.8-2.16,0.84c-0.81,0.04-1.55-0.19-2.22-0.66
				c-0.53-0.43-0.94-0.95-1.22-1.55s-0.46-1.25-0.55-1.91c-0.09-1.05-0.08-2.11,0.05-3.19c0.02-0.26,0.04-0.52,0.05-0.78
				c0.1-1.58,0.09-3.17-0.03-4.75c-0.05-0.54-0.24-0.95-0.57-1.22c-0.33-0.27-0.75-0.45-1.27-0.53c-0.9-0.15-1.65-0.47-2.27-0.97
				s-0.95-1.22-1.02-2.16c-0.01-0.96,0.29-1.77,0.91-2.42s1.41-1.06,2.38-1.22c1.46-0.19,2.94-0.25,4.45-0.2
				c0.45,0.01,0.88,0.02,1.31,0.02c2.03-0.05,4.05,0.1,6.05,0.45C31.66,23.66,32.26,23.94,32.73,24.35z"/>
			<path class="st1" d="M24.71,45.61c-0.96,0-1.84-0.29-2.63-0.86c-0.69-0.55-1.2-1.2-1.54-1.95c-0.32-0.7-0.53-1.44-0.63-2.21
				c-0.1-1.15-0.09-2.29,0.05-3.43c0.02-0.21,0.03-0.46,0.04-0.7c0.1-1.56,0.09-3.11-0.03-4.63c-0.02-0.25-0.1-0.43-0.21-0.53
				c-0.19-0.15-0.46-0.26-0.8-0.32c-1.07-0.17-1.99-0.57-2.74-1.18c-0.83-0.68-1.3-1.64-1.38-2.86c-0.01-1.28,0.38-2.32,1.17-3.17
				c0.77-0.82,1.76-1.33,2.94-1.52c1.54-0.2,3.09-0.27,4.65-0.22c0.43,0.01,0.86,0.02,1.28,0.02c2.06-0.05,4.17,0.1,6.22,0.47
				c0.92,0.18,1.68,0.55,2.28,1.08l0.02,0.01c0.89,0.82,1.38,1.88,1.46,3.14c0.08,1.28-0.31,2.39-1.16,3.29
				c-0.59,0.56-1.21,0.87-1.9,0.97c-0.52,0.07-1.07,0.11-1.62,0.11c-0.12,0-0.16,0.03-0.17,0.05c0.01,0-0.09,0.11-0.19,0.7
				c-0.1,0.59-0.14,1.52-0.14,2.76c0,1.08-0.02,2.16-0.05,3.23c-0.02,0.54-0.04,1.06-0.05,1.6c0,0.88-0.12,1.77-0.37,2.62
				c-0.27,0.93-0.77,1.75-1.5,2.42c-0.83,0.7-1.76,1.06-2.79,1.1C24.86,45.61,24.79,45.61,24.71,45.61z M22.6,24.02
				c-1.14,0-2.26,0.07-3.36,0.21c-0.72,0.12-1.31,0.42-1.78,0.91c-0.44,0.46-0.64,1.03-0.64,1.73c0.04,0.6,0.25,1.07,0.65,1.39
				c0.48,0.39,1.07,0.64,1.8,0.76c0.69,0.11,1.28,0.36,1.75,0.75c0.54,0.44,0.85,1.08,0.93,1.89c0.13,1.64,0.14,3.28,0.03,4.91
				c-0.01,0.25-0.03,0.52-0.05,0.8c-0.12,1.03-0.13,2.04-0.05,3.02c0.07,0.53,0.22,1.07,0.46,1.58c0.22,0.47,0.52,0.86,0.94,1.2
				c0.44,0.32,0.97,0.47,1.55,0.45c0.59-0.03,1.11-0.22,1.56-0.61c0.42-0.39,0.73-0.89,0.9-1.48c0.19-0.67,0.29-1.37,0.29-2.08
				c0.01-0.57,0.03-1.11,0.05-1.65c0.03-1.04,0.05-2.1,0.05-3.16c0-1.36,0.06-2.37,0.17-3.07c0.14-0.89,0.4-1.47,0.8-1.84
				c0.41-0.38,0.94-0.58,1.53-0.58c0.46,0,0.92-0.03,1.34-0.09c0.27-0.04,0.52-0.17,0.77-0.4c0.43-0.46,0.63-1.03,0.58-1.76
				c-0.05-0.74-0.31-1.32-0.82-1.79c-0.33-0.29-0.78-0.5-1.32-0.61c-1.9-0.34-3.87-0.48-5.83-0.43c-0.46,0-0.91,0-1.36-0.02
				C23.23,24.03,22.92,24.02,22.6,24.02z"/>
		</g>
		<g>
			<path id="XMLID_00000011028395499504645290000012329116156502218912_" class="st0" d="M53.31,30.03c0.67,2.15,0.73,4.32,0.2,6.53
				c-0.53,2.21-1.56,4.05-3.09,5.52c-0.92,0.83-1.93,1.47-3.03,1.91c-2.66,1.01-5.27,0.88-7.84-0.39c-2.53-1.36-4.33-3.5-5.41-6.42
				c-0.56-1.59-0.79-3.24-0.67-4.95c0.13-1.6,0.58-3.09,1.34-4.46c0.76-1.37,1.74-2.48,2.95-3.32c1.38-0.91,2.93-1.39,4.62-1.46
				c1.7-0.07,3.3,0.16,4.81,0.7c1.43,0.5,2.67,1.3,3.74,2.39S52.79,28.47,53.31,30.03z M45.68,34.93c0.32-0.54,0.43-1.12,0.33-1.74
				c-0.1-0.62-0.38-1.14-0.84-1.55c-0.65-0.55-1.38-0.74-2.22-0.58c-0.68,0.19-1.21,0.58-1.59,1.17c-0.38,0.61-0.49,1.26-0.34,1.93
				s0.53,1.2,1.15,1.59c0.51,0.29,1.08,0.4,1.71,0.34c0.63-0.07,1.14-0.34,1.54-0.8c0.01-0.01,0.02-0.02,0.03-0.03
				c0-0.01,0.01-0.02,0.02-0.03C45.55,35.13,45.62,35.04,45.68,34.93z"/>
			<path class="st1" d="M43.88,45.64c-1.61,0-3.21-0.39-4.78-1.16c-2.77-1.49-4.75-3.83-5.9-6.97c-0.61-1.73-0.85-3.53-0.73-5.36
				c0.15-1.75,0.64-3.39,1.46-4.87c0.83-1.5,1.92-2.73,3.25-3.66c1.56-1.02,3.28-1.56,5.15-1.64c1.82-0.08,3.56,0.18,5.18,0.75
				c1.56,0.55,2.95,1.43,4.12,2.63c1.17,1.19,2.05,2.66,2.61,4.35l0.01,0.02c0.72,2.31,0.79,4.69,0.22,7.06
				c-0.57,2.39-1.71,4.41-3.37,6c-1.02,0.93-2.14,1.63-3.35,2.11C46.46,45.4,45.16,45.64,43.88,45.64z M42.93,23.96
				c-0.17,0-0.35,0-0.52,0.01c-1.51,0.06-2.89,0.5-4.12,1.3C37.24,26,36.35,27,35.67,28.23c-0.68,1.24-1.09,2.61-1.22,4.06
				c-0.1,1.55,0.1,3.08,0.62,4.54c0.99,2.69,2.61,4.62,4.94,5.88c2.3,1.14,4.61,1.25,7.02,0.34c0.98-0.39,1.9-0.97,2.72-1.71
				c1.37-1.31,2.31-3,2.8-5.01c0.49-2.02,0.42-4.03-0.18-5.99c-0.47-1.4-1.19-2.6-2.15-3.58c-0.96-0.98-2.09-1.7-3.36-2.15
				C45.62,24.17,44.31,23.96,42.93,23.96z M43.52,37.1c-0.67,0-1.29-0.16-1.85-0.49c-0.88-0.55-1.42-1.29-1.62-2.23
				c-0.21-0.93-0.05-1.83,0.46-2.67c0.53-0.82,1.26-1.36,2.18-1.61c1.2-0.24,2.26,0.03,3.13,0.78c0.65,0.59,1.04,1.31,1.18,2.15
				c0.14,0.86-0.01,1.67-0.45,2.42l0,0c-0.03,0.05-0.06,0.1-0.09,0.14v0.04l-0.26,0.28c-0.57,0.67-1.31,1.06-2.2,1.16
				C43.83,37.09,43.68,37.1,43.52,37.1z M43.52,31.99c-0.12,0-0.24,0.01-0.38,0.04c-0.37,0.11-0.7,0.35-0.95,0.74
				c-0.23,0.37-0.29,0.75-0.2,1.17c0.09,0.41,0.32,0.72,0.71,0.96c0.29,0.17,0.66,0.24,1.08,0.19c0.32-0.03,0.57-0.15,0.79-0.35
				l0.17-0.2c0.06-0.06,0.08-0.09,0.1-0.12c0.2-0.34,0.27-0.68,0.2-1.07c-0.07-0.4-0.24-0.71-0.53-0.98
				C44.2,32.12,43.89,31.99,43.52,31.99z"/>
		</g>
		<g>
			<path id="XMLID_00000173857163552523329130000013049037292501128329_" class="st0" d="M72.95,38.54
				c0.37,0.51,0.63,1.06,0.81,1.65c0.18,0.59,0.23,1.19,0.16,1.8c-0.09,0.62-0.34,1.18-0.73,1.66s-0.9,0.8-1.5,0.96
				c-1.02,0.17-1.94-0.09-2.75-0.78c-0.7-0.62-1.25-1.36-1.65-2.22c-0.4-0.85-0.74-1.72-1.02-2.59c-0.12-0.38-0.28-0.75-0.45-1.12
				s-0.41-0.7-0.7-0.97c-0.24-0.2-0.54-0.32-0.9-0.38c-0.36-0.05-0.66,0.04-0.9,0.28c-0.12,0.14-0.18,0.29-0.2,0.48
				c-0.02,0.18,0,0.36,0.04,0.54c0.08,0.49,0.13,0.98,0.14,1.47c0.02,0.24,0.05,0.47,0.08,0.7c0.06,0.34,0.08,0.69,0.06,1.05
				c-0.05,0.75-0.28,1.47-0.67,2.16c-0.4,0.69-0.99,1.11-1.8,1.26c-0.94,0.09-1.8-0.1-2.58-0.58s-1.36-1.15-1.73-2
				c-0.22-0.5-0.37-1-0.45-1.52c-0.08-0.51-0.13-1.03-0.16-1.55c-0.02-0.34-0.05-0.69-0.09-1.03c-0.03-0.31-0.07-0.62-0.11-0.92
				c-0.13-1.01-0.22-2.03-0.27-3.06c-0.07-1.53,0.04-3.03,0.33-4.49c0.29-1.46,0.98-2.77,2.06-3.93c0.93-0.92,1.97-1.56,3.14-1.92
				c1.17-0.36,2.38-0.58,3.64-0.66c1.75-0.15,3.38,0.09,4.88,0.72s2.61,1.81,3.33,3.55c0.37,0.97,0.48,1.88,0.36,2.73
				c-0.12,0.85-0.44,1.73-0.95,2.62c-0.3,0.54-0.68,1.03-1.14,1.45c-0.12,0.1-0.26,0.2-0.39,0.3c-0.17,0.11-0.32,0.24-0.46,0.38
				c-0.14,0.14-0.24,0.3-0.3,0.5c-0.08,0.3-0.03,0.56,0.16,0.78s0.42,0.41,0.68,0.58c0.12,0.09,0.22,0.18,0.33,0.27
				C71.89,37.24,72.46,37.85,72.95,38.54z M63.28,29.49c-0.15,0.4-0.19,0.82-0.14,1.27c0.01,0.1,0.03,0.21,0.05,0.31
				c0.02,0.1,0.06,0.19,0.12,0.27c0.08,0.08,0.18,0.14,0.29,0.16c0.11,0.03,0.22,0.03,0.34,0.02c0.25,0.01,0.49-0.03,0.73-0.11
				c0.44-0.2,0.7-0.51,0.79-0.93s-0.03-0.8-0.35-1.15c-0.29-0.29-0.62-0.44-0.98-0.44S63.47,29.1,63.28,29.49z"/>
			<path class="st1" d="M71.09,45.65c-1.05,0-1.97-0.36-2.8-1.06c-0.82-0.73-1.45-1.59-1.91-2.56c-0.42-0.89-0.78-1.8-1.07-2.71
				c-0.11-0.33-0.25-0.67-0.41-1c-0.12-0.26-0.28-0.48-0.48-0.67c-0.05-0.04-0.16-0.08-0.32-0.11c0,0.03,0.01,0.05,0.01,0.08
				c0.1,0.59,0.16,1.14,0.17,1.67c0.02,0.16,0.04,0.37,0.07,0.59c0.07,0.38,0.1,0.81,0.07,1.24c-0.06,0.91-0.33,1.78-0.8,2.6
				c-0.54,0.94-1.4,1.55-2.48,1.74c-1.23,0.12-2.31-0.12-3.28-0.71c-0.95-0.58-1.67-1.41-2.12-2.45c-0.25-0.58-0.43-1.17-0.52-1.77
				c-0.08-0.54-0.14-1.09-0.17-1.64c-0.02-0.32-0.05-0.65-0.09-0.97c-0.03-0.32-0.07-0.62-0.11-0.91c-0.14-1.05-0.23-2.11-0.27-3.16
				c-0.08-1.6,0.04-3.19,0.35-4.73c0.33-1.64,1.1-3.13,2.31-4.42c1.06-1.05,2.26-1.78,3.57-2.19c1.24-0.39,2.54-0.62,3.88-0.7
				c1.88-0.16,3.67,0.11,5.32,0.79c1.74,0.73,3.05,2.1,3.87,4.09c0.43,1.15,0.57,2.24,0.42,3.26c-0.14,0.97-0.5,1.97-1.07,2.97
				c-0.35,0.63-0.8,1.2-1.33,1.69c-0.19,0.16-0.34,0.27-0.5,0.39c-0.12,0.08-0.23,0.17-0.34,0.27c0.11,0.11,0.24,0.22,0.38,0.31
				l0.41,0.33c0.73,0.59,1.37,1.27,1.91,2.03c0.42,0.59,0.75,1.25,0.96,1.94c0.22,0.71,0.28,1.46,0.19,2.21
				c-0.12,0.83-0.44,1.56-0.95,2.18c-0.53,0.65-1.21,1.08-2.02,1.29C71.64,45.63,71.36,45.65,71.09,45.65z M64.03,35.55
				c0.1,0,0.21,0.01,0.32,0.02c0.54,0.08,1.01,0.28,1.39,0.59c0.43,0.4,0.74,0.83,0.97,1.31c0.19,0.4,0.36,0.82,0.5,1.24
				c0.27,0.84,0.6,1.67,0.98,2.49c0.34,0.73,0.82,1.37,1.41,1.9c0.57,0.48,1.19,0.66,1.93,0.54c0.31-0.08,0.63-0.29,0.89-0.61
				c0.28-0.35,0.45-0.73,0.52-1.18c0.05-0.45,0.01-0.91-0.12-1.37c-0.15-0.48-0.37-0.94-0.67-1.36l0,0
				c-0.44-0.61-0.95-1.16-1.53-1.63l-0.29-0.23c-0.32-0.21-0.6-0.45-0.84-0.73c-0.42-0.47-0.55-1.08-0.38-1.71
				c0.12-0.39,0.31-0.7,0.57-0.95c0.18-0.17,0.38-0.33,0.59-0.48c0.11-0.08,0.22-0.16,0.32-0.24c0.34-0.32,0.66-0.72,0.91-1.17
				c0.45-0.79,0.73-1.56,0.84-2.28c0.1-0.68,0-1.44-0.31-2.24c-0.61-1.47-1.52-2.46-2.78-2.98c-1.34-0.56-2.83-0.78-4.41-0.65
				c-1.2,0.07-2.34,0.28-3.43,0.61c-1.01,0.32-1.93,0.88-2.74,1.68c-0.94,1-1.53,2.13-1.79,3.42c-0.27,1.38-0.38,2.81-0.31,4.25
				c0.04,0.99,0.13,1.99,0.26,2.98c0.04,0.31,0.08,0.63,0.11,0.96c0.04,0.34,0.07,0.71,0.1,1.07c0.03,0.49,0.08,0.98,0.15,1.46
				c0.06,0.42,0.19,0.85,0.37,1.27c0.29,0.67,0.73,1.18,1.34,1.55c0.6,0.37,1.24,0.51,1.96,0.44c0.44-0.08,0.78-0.32,1.03-0.76
				c0.32-0.56,0.5-1.13,0.54-1.74c0.02-0.26,0-0.53-0.05-0.8c-0.04-0.29-0.07-0.54-0.09-0.79c-0.01-0.51-0.06-0.95-0.13-1.39
				c-0.05-0.22-0.07-0.51-0.05-0.79c0.03-0.39,0.18-0.75,0.43-1.04C62.98,35.76,63.49,35.55,64.03,35.55z M63.83,32.53
				c-0.16,0-0.32-0.02-0.47-0.06c-0.29-0.07-0.54-0.21-0.76-0.43c-0.23-0.26-0.34-0.5-0.4-0.77c-0.03-0.14-0.05-0.28-0.06-0.42
				c-0.07-0.58,0-1.16,0.2-1.7l0.04-0.1c0.5-1,1.3-1.14,1.73-1.14c0.63,0,1.21,0.25,1.69,0.73c0.57,0.61,0.78,1.31,0.62,2.05
				c-0.15,0.74-0.62,1.3-1.35,1.63c-0.42,0.15-0.78,0.21-1.12,0.2C63.91,32.52,63.87,32.53,63.83,32.53z M64.19,29.9
				c-0.06,0.2-0.09,0.4-0.07,0.63c0.08-0.01,0.15-0.02,0.23-0.05c0.11-0.06,0.13-0.13,0.14-0.19c0.01-0.06,0.03-0.13-0.1-0.26
				C64.3,29.94,64.24,29.91,64.19,29.9z"/>
		</g>
		<g>
			<path id="XMLID_00000167362520277847753200000000247991844248535218_" class="st0" d="M90.59,24.34
				c0.42,0.57,0.69,1.23,0.81,1.98c0.12,0.75,0.2,1.48,0.23,2.2c0.01,0.15,0.02,0.29,0.03,0.44c0.08,1.76,0.11,3.52,0.08,5.28
				c-0.01,0.84-0.01,1.68,0,2.52c0.01,1.25-0.22,2.47-0.7,3.66s-1.24,2.19-2.29,3.02c-1.29,0.92-2.78,1.42-4.45,1.5
				c-1.68,0.08-3.27-0.06-4.78-0.44c-0.52-0.12-1.1-0.31-1.73-0.56s-1.19-0.57-1.69-0.95c-0.49-0.39-0.79-0.85-0.9-1.39
				c-0.12-0.75,0.02-1.45,0.45-2.09c0.42-0.65,1.05-1.05,1.88-1.2c0.47-0.05,0.93-0.03,1.38,0.08c0.45,0.1,0.89,0.23,1.33,0.39
				c0.57,0.22,1.15,0.38,1.73,0.48c0.45,0.05,0.89,0.03,1.33-0.08c0.44-0.1,0.79-0.31,1.06-0.62c0.12-0.12,0.2-0.27,0.23-0.42
				c0.02-0.17-0.04-0.31-0.17-0.42c-0.12-0.07-0.24-0.1-0.39-0.09c-0.27-0.01-0.53-0.01-0.78,0c-0.13,0.01-0.28,0.02-0.42,0.02
				c-1.1,0.03-2.19-0.12-3.26-0.46c-1.07-0.34-1.98-0.89-2.73-1.66c-0.48-0.5-0.85-1.04-1.1-1.62c-0.26-0.58-0.45-1.19-0.59-1.83
				c-0.38-1.64-0.47-3.28-0.25-4.94c0.12-1.15,0.55-2.18,1.28-3.11c0.37-0.4,0.85-0.64,1.46-0.73s1.19-0.11,1.73-0.06
				c0.62,0.04,1.15,0.21,1.58,0.5c0.6,0.45,1.02,1.04,1.26,1.78c0.23,0.74,0.35,1.5,0.35,2.29c0,0.79-0.06,1.49-0.17,2.1
				c-0.07,0.31-0.11,0.68-0.12,1.11c-0.01,0.43,0.09,0.8,0.28,1.12c0.19,0.32,0.54,0.48,1.05,0.48c0.62-0.06,0.99-0.34,1.13-0.84
				c0.14-0.49,0.19-0.98,0.15-1.46v-0.62c0-0.53-0.03-1.06-0.08-1.59c-0.01-0.11-0.03-0.23-0.05-0.36c-0.1-0.69-0.15-1.38-0.12-2.08
				c0.13-1.3,0.89-2.12,2.27-2.45c0.69-0.12,1.36-0.09,2.02,0.12S90.15,23.84,90.59,24.34z"/>
			<path class="st1" d="M83.41,45.93c-1.43,0-2.81-0.16-4.12-0.49c-0.56-0.13-1.17-0.33-1.85-0.6c-0.72-0.28-1.37-0.65-1.93-1.09
				c-0.69-0.54-1.11-1.21-1.26-1.99c-0.17-1.02,0.03-1.96,0.59-2.82c0.57-0.88,1.43-1.43,2.53-1.64c0.05-0.01,0.1-0.01,0.16-0.02
				c-0.5-0.31-0.96-0.68-1.37-1.11c-0.56-0.59-1-1.23-1.3-1.92c-0.28-0.64-0.5-1.32-0.65-2.02c-0.41-1.73-0.5-3.51-0.26-5.27
				c0.14-1.3,0.64-2.52,1.49-3.59c0.57-0.62,1.26-0.98,2.09-1.1c0.69-0.11,1.35-0.13,1.97-0.07c0.77,0.05,1.47,0.28,2.04,0.67
				c0.81,0.6,1.35,1.36,1.65,2.3c0.26,0.83,0.4,1.71,0.4,2.59c0,0.85-0.06,1.62-0.19,2.29c-0.06,0.28-0.1,0.58-0.1,0.94
				c0,0.24,0.04,0.43,0.13,0.59c0.01-0.01,0.06,0.01,0.16,0.01c0.16-0.02,0.21-0.06,0.21-0.06c0.13-0.43,0.17-0.79,0.13-1.15l0-0.71
				c0-0.5-0.02-1.01-0.07-1.5c-0.01-0.1-0.02-0.19-0.04-0.29c-0.12-0.77-0.16-1.53-0.14-2.28c0.18-1.81,1.23-2.95,3.03-3.39
				c0.9-0.16,1.74-0.12,2.55,0.13c0.84,0.26,1.55,0.71,2.11,1.35l0.06,0.07c0.51,0.7,0.84,1.5,0.99,2.4
				c0.13,0.78,0.21,1.56,0.25,2.32l0.03,0.41c0.08,1.78,0.11,3.58,0.08,5.37c-0.01,0.83-0.01,1.66,0,2.49
				c0.01,1.38-0.25,2.74-0.77,4.04c-0.54,1.35-1.41,2.5-2.6,3.43c-1.48,1.05-3.15,1.62-5.02,1.71
				C84.04,45.93,83.72,45.93,83.41,45.93z M78,39.25c-0.12,0-0.23,0.01-0.35,0.02c-0.49,0.1-0.89,0.34-1.16,0.76
				c-0.29,0.44-0.38,0.88-0.3,1.38c0.05,0.28,0.22,0.53,0.53,0.77c0.42,0.33,0.9,0.6,1.44,0.81c0.59,0.23,1.12,0.41,1.59,0.52
				c1.42,0.35,2.93,0.49,4.5,0.41c1.5-0.07,2.78-0.5,3.93-1.32c0.88-0.69,1.53-1.54,1.94-2.57c0.42-1.06,0.63-2.16,0.62-3.28
				c-0.01-0.84-0.01-1.68,0-2.54c0.03-1.75,0-3.5-0.08-5.22l-0.03-0.42c-0.03-0.7-0.1-1.4-0.22-2.1c-0.1-0.58-0.3-1.08-0.61-1.52
				c-0.31-0.34-0.69-0.58-1.16-0.73c-0.51-0.16-1.02-0.19-1.55-0.09c-0.91,0.22-1.36,0.7-1.45,1.58c-0.01,0.56,0.02,1.19,0.12,1.83
				c0.02,0.13,0.04,0.28,0.05,0.42c0.05,0.54,0.08,1.11,0.08,1.68v0.62c0.05,0.51-0.01,1.13-0.19,1.73
				c-0.15,0.52-0.6,1.41-1.99,1.55l-0.1,0c-1.16,0-1.69-0.61-1.91-0.97c-0.29-0.48-0.43-1.04-0.42-1.65
				c0.01-0.5,0.05-0.94,0.14-1.32c0.09-0.51,0.15-1.15,0.15-1.88c0-0.68-0.1-1.35-0.31-1.99c-0.17-0.54-0.47-0.96-0.9-1.28
				c-0.25-0.17-0.6-0.28-1.05-0.31c-0.49-0.05-0.98-0.03-1.51,0.05c-0.38,0.06-0.67,0.2-0.88,0.43c-0.57,0.73-0.92,1.58-1.02,2.54
				c-0.2,1.55-0.13,3.09,0.23,4.6c0.12,0.59,0.3,1.14,0.53,1.66c0.21,0.47,0.51,0.92,0.91,1.34c0.63,0.65,1.39,1.11,2.31,1.4
				c0.96,0.3,1.94,0.45,2.93,0.42c0.15,0,0.26,0,0.37-0.01c0.3-0.01,0.57-0.01,0.85,0c0.34,0,0.65,0.07,0.93,0.25l0.12,0.09
				c0.39,0.33,0.58,0.81,0.51,1.31c-0.08,0.42-0.25,0.73-0.52,1c-0.36,0.42-0.9,0.74-1.54,0.89c-0.55,0.13-1.11,0.17-1.67,0.1
				c-0.7-0.12-1.34-0.3-1.97-0.54c-0.38-0.13-0.79-0.25-1.2-0.35C78.47,39.27,78.24,39.25,78,39.25z"/>
		</g>
	</g>
</g>
</svg>
