<?xml version="1.0" encoding="utf-8"?>
<!-- Generator: Adobe Illustrator 25.4.1, SVG Export Plug-In . SVG Version: 6.00 Build 0)  -->
<svg version="1.1" id="圖層_1" xmlns="http://www.w3.org/2000/svg" xmlns:xlink="http://www.w3.org/1999/xlink" x="0px" y="0px"
	 viewBox="0 0 280.32 66.61" style="enable-background:new 0 0 280.32 66.61;" xml:space="preserve">
<style type="text/css">
	.st0{fill:#F7B52C;}
	.st1{fill:#FFFFFF;}
	.st2{fill:#231815;}
</style>
<g id="XMLID_9165_">
	<g>
		<path id="XMLID_00000087385140892370087760000010990744906591876224_" class="st0" d="M247.02,61.86H33.31
			c-15.71,0-28.55-12.85-28.55-28.55v0C4.75,17.6,17.6,4.75,33.31,4.75h213.71c15.71,0,28.55,12.85,28.55,28.55v0
			C275.57,49.01,262.72,61.86,247.02,61.86z"/>
		<path class="st1" d="M247.02,66.61H33.31C14.94,66.61,0,51.67,0,33.31C0,14.94,14.94,0,33.31,0h213.71
			c18.37,0,33.31,14.94,33.31,33.31C280.32,51.67,265.38,66.61,247.02,66.61z M33.31,9.5c-13.12,0-23.8,10.68-23.8,23.8
			s10.68,23.8,23.8,23.8h213.71c13.13,0,23.8-10.68,23.8-23.8s-10.68-23.8-23.8-23.8H33.31z"/>
	</g>
	<g id="XMLID_9166_">
		<g>
			<g>
				<path id="XMLID_00000150808114808821034710000010605146978718137013_" class="st1" d="M47.34,39.08
					c-0.08,1.52-0.79,2.57-2.13,3.16c-1.27,0.59-2.59,0.88-3.98,0.85c-1.22-0.04-2.53-0.3-3.95-0.79c-1.42-0.49-2.51-1.21-3.29-2.14
					c-1.34-1.82-2.03-3.88-2.06-6.2c-0.03-2.31,0.55-4.43,1.73-6.35c0.55-0.84,1.36-1.59,2.4-2.25c1.05-0.65,2.2-1.14,3.46-1.45
					c1.25-0.32,2.47-0.38,3.64-0.2c1.17,0.19,2.15,0.7,2.95,1.53c0.81,0.91,1.2,1.98,1.18,3.22c-0.02,0.91-0.32,1.7-0.92,2.38
					c-0.66,0.67-1.44,0.92-2.34,0.76c-0.31-0.09-0.62-0.22-0.92-0.39c-0.33-0.19-0.68-0.32-1.05-0.4c-0.58-0.08-1.07,0.04-1.44,0.37
					c-0.38,0.33-0.64,0.76-0.79,1.29c-0.14,0.53-0.16,1.05-0.04,1.56c0.2,0.71,0.56,1.25,1.11,1.62c0.54,0.36,1.17,0.45,1.89,0.28
					c0.2-0.05,0.41-0.12,0.61-0.19c0.51-0.21,1.03-0.32,1.56-0.31c0.64,0.08,1.17,0.37,1.57,0.89c0.41,0.51,0.66,1.11,0.77,1.77
					C47.35,38.41,47.36,38.74,47.34,39.08z"/>
				<path class="st2" d="M41.4,44.28c-0.07,0-0.13,0-0.2,0c-1.34-0.04-2.79-0.33-4.31-0.86c-1.61-0.56-2.89-1.4-3.82-2.5
					c-1.53-2.07-2.3-4.38-2.34-6.94c-0.03-2.53,0.61-4.88,1.91-6.99c0.66-1.01,1.6-1.89,2.79-2.63c1.16-0.72,2.44-1.26,3.8-1.6
					c1.4-0.35,2.79-0.43,4.11-0.22c1.43,0.23,2.65,0.86,3.63,1.88c1.03,1.16,1.53,2.52,1.51,4.05c-0.03,1.21-0.44,2.26-1.21,3.15
					c-0.98,1-2.16,1.38-3.44,1.15l-0.12-0.03c-0.4-0.12-0.79-0.28-1.17-0.5c-0.23-0.13-0.47-0.22-0.73-0.28
					c-0.24-0.03-0.35,0.06-0.4,0.1c-0.21,0.18-0.34,0.4-0.43,0.71c-0.09,0.34-0.1,0.66-0.02,0.97c0.11,0.4,0.31,0.7,0.61,0.9
					c0.17,0.12,0.44,0.23,0.94,0.11c0.15-0.04,0.32-0.1,0.5-0.16c0.6-0.25,1.28-0.39,1.98-0.38l0.12,0.01
					c0.95,0.11,1.77,0.57,2.37,1.33c0.54,0.68,0.88,1.46,1.01,2.33c0.06,0.45,0.07,0.86,0.04,1.26c-0.11,1.96-1.09,3.4-2.84,4.17
					C44.35,43.96,42.9,44.28,41.4,44.28z M41.85,24.8c-0.66,0-1.34,0.09-2.04,0.26c-1.13,0.28-2.18,0.72-3.12,1.31
					c-0.9,0.56-1.58,1.2-2.04,1.89c-1.05,1.71-1.56,3.58-1.54,5.68c0.03,2.08,0.63,3.88,1.83,5.5c0.61,0.72,1.51,1.31,2.73,1.73
					c1.3,0.45,2.51,0.7,3.6,0.73c1.18,0.03,2.35-0.22,3.44-0.74c0.95-0.42,1.39-1.08,1.45-2.15l0-0.03c0.02-0.24,0.01-0.5-0.02-0.76
					c-0.07-0.43-0.24-0.83-0.52-1.19c-0.2-0.25-0.42-0.39-0.72-0.44c-0.34,0-0.68,0.07-1.02,0.22c-0.29,0.11-0.53,0.18-0.76,0.25
					c-1.05,0.26-2.03,0.11-2.85-0.43c-0.78-0.52-1.32-1.29-1.6-2.29c-0.17-0.74-0.16-1.46,0.03-2.18c0.21-0.77,0.6-1.4,1.16-1.88
					c0.44-0.38,1.22-0.81,2.39-0.64c0.57,0.13,1.01,0.3,1.45,0.54c0.21,0.12,0.41,0.2,0.61,0.27c0.48,0.07,0.85-0.06,1.22-0.44
					c0.36-0.42,0.56-0.94,0.58-1.57c0.01-0.93-0.28-1.72-0.88-2.4c-0.59-0.62-1.33-1-2.25-1.15C42.6,24.83,42.23,24.8,41.85,24.8z"
					/>
			</g>
			<g>
				<path id="XMLID_00000166645485787369268800000003846774529683819158_" class="st1" d="M65.12,29.91
					c0.6,1.91,0.65,3.85,0.18,5.82c-0.48,1.97-1.39,3.6-2.76,4.91c-0.82,0.74-1.72,1.31-2.7,1.7c-2.37,0.9-4.69,0.78-6.99-0.35
					c-2.25-1.22-3.86-3.12-4.81-5.72c-0.5-1.42-0.7-2.89-0.6-4.41c0.12-1.43,0.52-2.75,1.19-3.97c0.67-1.22,1.55-2.21,2.62-2.96
					c1.23-0.81,2.61-1.24,4.12-1.3c1.52-0.06,2.94,0.15,4.29,0.62c1.28,0.45,2.38,1.16,3.34,2.13
					C63.95,27.35,64.65,28.52,65.12,29.91z M58.33,34.28c0.29-0.48,0.39-1,0.29-1.55s-0.35-1.01-0.75-1.39
					c-0.58-0.49-1.23-0.66-1.98-0.51c-0.6,0.17-1.08,0.51-1.42,1.05c-0.33,0.55-0.43,1.12-0.3,1.72s0.48,1.07,1.02,1.41
					c0.45,0.26,0.96,0.36,1.52,0.3c0.56-0.06,1.02-0.3,1.37-0.72c0.01-0.01,0.02-0.02,0.03-0.03c0-0.01,0.01-0.02,0.02-0.03
					C58.21,34.45,58.27,34.37,58.33,34.28z"/>
				<path class="st2" d="M56.72,44.12c-1.48,0-2.95-0.36-4.39-1.07c-2.54-1.37-4.35-3.51-5.4-6.38c-0.56-1.58-0.78-3.23-0.67-4.9
					c0.14-1.61,0.58-3.1,1.33-4.46c0.76-1.38,1.76-2.51,2.98-3.36c1.43-0.94,3.02-1.44,4.75-1.51c1.66-0.07,3.25,0.16,4.73,0.69
					c1.44,0.5,2.71,1.32,3.79,2.42c1.07,1.1,1.88,2.44,2.4,3.99l0.01,0.02c0.66,2.1,0.72,4.27,0.21,6.45
					c-0.53,2.19-1.57,4.04-3.09,5.49c-0.95,0.86-1.98,1.51-3.09,1.95C59.09,43.89,57.9,44.12,56.72,44.12z M55.88,24.8
					c-0.15,0-0.3,0-0.45,0.01c-1.31,0.05-2.46,0.42-3.52,1.11c-0.9,0.63-1.64,1.47-2.23,2.54c-0.59,1.07-0.94,2.25-1.04,3.5
					c-0.09,1.33,0.09,2.66,0.53,3.92c0.86,2.32,2.25,3.99,4.26,5.07c1.96,0.97,3.94,1.07,6,0.28c0.83-0.33,1.61-0.82,2.33-1.47
					c1.18-1.13,1.97-2.54,2.4-4.31c0.42-1.75,0.36-3.49-0.16-5.17c-0.41-1.2-1.03-2.24-1.84-3.07c-0.83-0.85-1.77-1.45-2.88-1.84
					C58.21,24.99,57.07,24.8,55.88,24.8z M56.4,36.5c-0.64,0-1.24-0.16-1.79-0.47c-0.85-0.53-1.39-1.28-1.6-2.18
					c-0.2-0.9-0.05-1.79,0.44-2.6c0.52-0.8,1.23-1.32,2.12-1.57c1.18-0.24,2.21,0.03,3.07,0.76c0.63,0.58,1.01,1.27,1.15,2.09
					c0.14,0.83-0.01,1.63-0.44,2.36l-0.02,0.03c-0.01,0.01-0.02,0.02-0.02,0.04v0.13l-0.34,0.31c-0.55,0.63-1.27,1-2.12,1.09
					C56.7,36.5,56.55,36.5,56.4,36.5z M57.71,33.94l0.62,0.34l-0.66-0.39L57.71,33.94z M56.4,31.96c-0.09,0-0.18,0.01-0.27,0.03
					c-0.24,0.07-0.47,0.24-0.66,0.53c-0.15,0.25-0.2,0.51-0.13,0.81c0.07,0.29,0.22,0.49,0.5,0.67c0.2,0.11,0.45,0.16,0.76,0.12
					c0.13-0.01,0.24-0.04,0.34-0.09v-0.07l0.38-0.29c0.14-0.24,0.18-0.47,0.14-0.74c-0.05-0.29-0.17-0.51-0.38-0.71
					C56.87,32.05,56.65,31.96,56.4,31.96z"/>
			</g>
			<g>
				<path id="XMLID_00000141420587621869132910000009874364846457368197_" class="st1" d="M68.48,26.4c0.31-0.7,0.74-1.25,1.3-1.66
					c0.56-0.41,1.29-0.56,2.18-0.46c0.87,0.14,1.63,0.5,2.27,1.07c0.64,0.58,1.19,1.25,1.64,2.01c0.45,0.77,0.82,1.51,1.11,2.25
					c0.01,0.01,0.01,0.02,0.01,0.03c0.07,0.19,0.16,0.37,0.29,0.54c0.08,0.08,0.18,0.13,0.28,0.17c0.1,0.04,0.2,0.04,0.31,0
					c0.18-0.07,0.29-0.21,0.3-0.42c0.02-0.21,0-0.42-0.05-0.62c-0.22-0.8-0.3-1.69-0.21-2.67c0.08-0.98,0.38-1.8,0.91-2.44
					c0.53-0.65,1.39-0.87,2.56-0.68c0.84,0.21,1.44,0.7,1.83,1.46c0.39,0.76,0.63,1.61,0.74,2.57c0.12,0.96,0.17,1.83,0.18,2.63
					c0.01,0.24,0.02,0.46,0.02,0.65c0.17,3.22-0.21,6.37-1.13,9.45c-0.16,0.66-0.45,1.24-0.88,1.74c-0.36,0.34-0.73,0.58-1.1,0.7
					c-0.38,0.12-0.76,0.18-1.13,0.16c-1.1-0.05-2-0.36-2.7-0.93c-0.71-0.57-1.27-1.24-1.68-2.01c-0.42-0.77-0.74-1.47-0.97-2.11
					c-0.22-0.57-0.41-0.95-0.58-1.14c0.16,0.99,0.2,1.99,0.13,2.98c-0.09,1.04-0.5,1.94-1.21,2.7c-0.64,0.58-1.32,0.85-2.04,0.81
					c-0.72-0.05-1.37-0.31-1.95-0.8c-0.58-0.49-0.98-1.11-1.2-1.86c-0.47-1.76-0.7-3.55-0.7-5.37c0-1.82,0.18-3.62,0.54-5.4
					c0.07-0.37,0.15-0.76,0.24-1.17C67.93,27.82,68.17,27.09,68.48,26.4z"/>
				<path class="st2" d="M70.99,44.37c-0.08,0-0.15,0-0.23-0.01c-0.98-0.07-1.87-0.43-2.64-1.08c-0.76-0.64-1.29-1.46-1.58-2.43
					c-0.5-1.89-0.75-3.8-0.75-5.71c0-1.88,0.19-3.78,0.57-5.64c0.07-0.37,0.15-0.77,0.25-1.2c0.17-0.79,0.43-1.6,0.77-2.38l0-0.01
					c0.39-0.89,0.96-1.61,1.69-2.14c0.81-0.59,1.83-0.82,3.01-0.68c1.16,0.19,2.13,0.65,2.93,1.37c0.66,0.59,1.22,1.27,1.7,2.02
					c0.1-1.2,0.5-2.23,1.18-3.05c0.56-0.68,1.66-1.42,3.67-1.09l0.1,0.02c1.16,0.3,2.05,1.01,2.59,2.07
					c0.45,0.88,0.74,1.88,0.86,2.97c0.12,0.95,0.18,1.88,0.19,2.75c0.01,0.23,0.02,0.46,0.02,0.67c0.17,3.28-0.22,6.59-1.18,9.79
					c-0.18,0.78-0.56,1.53-1.11,2.17l-0.08,0.09c-0.49,0.46-1.01,0.79-1.55,0.97c-0.52,0.17-1.05,0.25-1.56,0.22
					c-1.35-0.06-2.49-0.46-3.39-1.19c-0.58-0.47-1.09-1.01-1.51-1.61c-0.26,0.7-0.66,1.33-1.19,1.91
					C72.86,43.98,71.95,44.37,70.99,44.37z M69.56,26.88c-0.28,0.64-0.49,1.29-0.63,1.94c-0.09,0.41-0.17,0.78-0.23,1.13
					c-0.35,1.73-0.52,3.46-0.52,5.19c0,1.7,0.22,3.41,0.66,5.07c0.14,0.49,0.41,0.91,0.82,1.25c0.39,0.32,0.8,0.5,1.27,0.53
					c0.24,0.02,0.63-0.02,1.16-0.5c0.46-0.5,0.76-1.15,0.82-1.92c0.07-0.89,0.03-1.79-0.11-2.69l-0.71-4.33l2.8,3.38
					c0.25,0.3,0.47,0.74,0.76,1.46c0.22,0.62,0.52,1.27,0.91,1.99c0.35,0.64,0.8,1.18,1.39,1.66c0.51,0.41,1.16,0.63,2.01,0.66
					c0.24,0.01,0.47-0.02,0.71-0.1c0.19-0.06,0.39-0.19,0.61-0.39c0.29-0.35,0.48-0.74,0.59-1.2c0.89-3,1.26-6.05,1.1-9.12
					c0-0.24-0.01-0.44-0.02-0.67c-0.01-0.82-0.07-1.66-0.18-2.54c-0.09-0.82-0.3-1.55-0.62-2.17c-0.23-0.44-0.54-0.7-1.02-0.83
					c-1.03-0.16-1.3,0.16-1.39,0.27c-0.38,0.46-0.59,1.04-0.65,1.78c-0.07,0.84-0.01,1.6,0.17,2.26c0.1,0.37,0.12,0.72,0.09,1.06
					c-0.05,0.63-0.44,1.17-1.05,1.41c-0.41,0.14-0.79,0.14-1.14,0.02c-0.27-0.1-0.49-0.24-0.69-0.41l-0.13-0.14
					c-0.2-0.26-0.36-0.55-0.48-0.87c-0.28-0.69-0.62-1.39-1.03-2.08c-0.38-0.65-0.85-1.23-1.41-1.73c-0.46-0.42-1.01-0.67-1.66-0.78
					c-0.54-0.06-0.97,0.02-1.29,0.25C70.09,25.99,69.79,26.37,69.56,26.88z M76.98,29.83c0,0,0,0.01,0,0.01
					C76.98,29.83,76.98,29.83,76.98,29.83z"/>
			</g>
			<g>
				<path id="XMLID_00000147198941870265822530000000616487751967258806_" class="st1" d="M86.81,26.4c0.31-0.7,0.74-1.25,1.3-1.66
					c0.56-0.41,1.29-0.56,2.18-0.46c0.87,0.14,1.63,0.5,2.27,1.07c0.64,0.58,1.19,1.25,1.64,2.01c0.45,0.77,0.82,1.51,1.11,2.25
					c0.01,0.01,0.01,0.02,0.01,0.03c0.07,0.19,0.16,0.37,0.29,0.54c0.08,0.08,0.18,0.13,0.28,0.17c0.1,0.04,0.2,0.04,0.31,0
					c0.18-0.07,0.29-0.21,0.3-0.42c0.02-0.21,0-0.42-0.05-0.62c-0.22-0.8-0.3-1.69-0.21-2.67c0.08-0.98,0.38-1.8,0.91-2.44
					c0.53-0.65,1.39-0.87,2.56-0.68c0.84,0.21,1.44,0.7,1.83,1.46c0.39,0.76,0.63,1.61,0.74,2.57c0.12,0.96,0.17,1.83,0.18,2.63
					c0.01,0.24,0.02,0.46,0.02,0.65c0.17,3.22-0.21,6.37-1.13,9.45c-0.16,0.66-0.45,1.24-0.88,1.74c-0.36,0.34-0.73,0.58-1.1,0.7
					c-0.38,0.12-0.76,0.18-1.13,0.16c-1.1-0.05-2-0.36-2.7-0.93c-0.71-0.57-1.27-1.24-1.68-2.01c-0.42-0.77-0.74-1.47-0.97-2.11
					c-0.22-0.57-0.41-0.95-0.58-1.14c0.16,0.99,0.2,1.99,0.13,2.98c-0.09,1.04-0.5,1.94-1.21,2.7c-0.64,0.58-1.32,0.85-2.04,0.81
					c-0.72-0.05-1.37-0.31-1.95-0.8c-0.58-0.49-0.98-1.11-1.2-1.86c-0.47-1.76-0.7-3.55-0.7-5.37c0-1.82,0.18-3.62,0.54-5.4
					c0.07-0.37,0.15-0.76,0.24-1.17C86.27,27.82,86.51,27.09,86.81,26.4z"/>
				<path class="st2" d="M89.33,44.37c-0.08,0-0.15,0-0.23-0.01c-0.98-0.07-1.87-0.43-2.64-1.08c-0.76-0.64-1.29-1.46-1.58-2.43
					c-0.5-1.89-0.75-3.8-0.75-5.71c0-1.88,0.19-3.78,0.57-5.64c0.07-0.37,0.15-0.77,0.25-1.2c0.17-0.78,0.43-1.59,0.77-2.38l0-0.01
					c0.39-0.89,0.96-1.61,1.69-2.14c0.81-0.59,1.83-0.82,3.01-0.68c1.16,0.19,2.13,0.65,2.93,1.37c0.66,0.59,1.22,1.27,1.7,2.02
					c0.1-1.2,0.5-2.23,1.18-3.05c0.56-0.68,1.66-1.42,3.67-1.09l0.1,0.02c1.16,0.3,2.05,1.01,2.59,2.06
					c0.45,0.88,0.74,1.88,0.86,2.97c0.12,0.95,0.18,1.88,0.19,2.75c0.01,0.23,0.02,0.46,0.02,0.67c0.17,3.28-0.22,6.6-1.18,9.79
					c-0.18,0.78-0.56,1.53-1.11,2.17l-0.08,0.09c-0.49,0.46-1.01,0.79-1.55,0.97c-0.52,0.17-1.05,0.24-1.57,0.22
					c-1.35-0.06-2.49-0.46-3.39-1.19c-0.58-0.47-1.09-1.01-1.51-1.61c-0.26,0.7-0.66,1.33-1.19,1.91
					C91.19,43.98,90.29,44.37,89.33,44.37z M87.9,26.88c-0.28,0.65-0.49,1.3-0.63,1.94c-0.09,0.41-0.17,0.78-0.23,1.13
					c-0.35,1.73-0.52,3.46-0.52,5.19c0,1.7,0.22,3.41,0.66,5.07c0.14,0.49,0.42,0.91,0.82,1.25c0.39,0.32,0.8,0.5,1.27,0.53
					c0.24,0.02,0.63-0.02,1.16-0.5c0.46-0.5,0.76-1.15,0.82-1.92c0.07-0.88,0.03-1.79-0.11-2.69l-0.71-4.33l2.8,3.38
					c0.25,0.3,0.47,0.74,0.76,1.46c0.22,0.62,0.52,1.27,0.91,1.99c0.35,0.64,0.8,1.18,1.39,1.66c0.51,0.41,1.16,0.63,2.01,0.66
					c0.24,0.01,0.47-0.02,0.72-0.1c0.18-0.06,0.39-0.19,0.61-0.39c0.29-0.35,0.48-0.74,0.59-1.2c0.89-3,1.26-6.05,1.1-9.12
					c0-0.24-0.01-0.44-0.02-0.67c-0.01-0.82-0.07-1.66-0.18-2.54c-0.09-0.82-0.3-1.55-0.62-2.17c-0.23-0.44-0.54-0.7-1.02-0.83
					c-1.04-0.16-1.31,0.16-1.39,0.27c-0.38,0.46-0.59,1.04-0.65,1.78c-0.07,0.84-0.01,1.6,0.17,2.26c0.1,0.37,0.12,0.72,0.09,1.06
					c-0.05,0.63-0.44,1.17-1.05,1.41c-0.4,0.14-0.78,0.14-1.14,0.02c-0.27-0.1-0.49-0.24-0.69-0.41l-0.13-0.14
					c-0.2-0.26-0.36-0.55-0.48-0.87c-0.27-0.68-0.62-1.38-1.03-2.08c-0.38-0.65-0.85-1.23-1.41-1.73c-0.46-0.42-1.01-0.67-1.66-0.78
					c-0.54-0.06-0.97,0.02-1.29,0.25C88.42,25.99,88.12,26.37,87.9,26.88z M95.31,29.83c0,0,0,0.01,0,0.01
					C95.31,29.83,95.31,29.83,95.31,29.83z"/>
			</g>
			<g>
				<path id="XMLID_00000159449217497072869360000007405175845872104633_" class="st1" d="M117.67,38.49
					c0.06,0.88-0.02,1.69-0.24,2.41c-0.19,0.58-0.5,1.03-0.93,1.33c-0.44,0.3-0.95,0.51-1.55,0.62c-1.88,0.37-3.66,0.3-5.36-0.21
					c-1.7-0.51-3.17-1.52-4.4-3.03c-1.34-1.79-2.03-3.82-2.06-6.08c-0.03-2.26,0.55-4.34,1.73-6.22c1.12-1.65,2.66-2.79,4.6-3.42
					c1.94-0.63,3.86-0.6,5.77,0.08c0.45,0.17,0.82,0.44,1.07,0.83c0.16,0.27,0.25,0.56,0.27,0.88c0.03,0.32,0.02,0.64-0.02,0.96
					c-0.03,0.56-0.18,1.07-0.44,1.54c-0.43,0.59-1.01,0.87-1.74,0.84c-0.32-0.01-0.64-0.04-0.96-0.08c-0.03,0-0.06-0.01-0.09-0.01
					c-0.12-0.01-0.23-0.03-0.35-0.06c-0.3-0.07-0.58-0.09-0.84-0.05c-0.12,0.02-0.22,0.07-0.31,0.15c-0.09,0.08-0.15,0.18-0.16,0.28
					c-0.01,0.14,0.03,0.26,0.12,0.36c0.08,0.1,0.19,0.17,0.31,0.23c0.4,0.15,0.82,0.2,1.25,0.17c0.3-0.02,0.59-0.01,0.88,0.04
					c0.79,0.19,1.32,0.67,1.58,1.44c0.27,0.77,0.23,1.5-0.13,2.21c-0.32,0.54-0.79,0.88-1.41,1.02c-0.32,0.05-0.66,0.07-1,0.04
					c-0.41-0.04-0.81,0-1.2,0.11c-0.14,0.05-0.27,0.12-0.38,0.22c-0.12,0.1-0.18,0.21-0.2,0.35c-0.01,0.13,0.02,0.25,0.09,0.36
					c0.07,0.11,0.16,0.19,0.27,0.25c0.24,0.1,0.48,0.13,0.74,0.1c0.38-0.05,0.75-0.13,1.1-0.26c0.41-0.15,0.83-0.24,1.25-0.28
					c0.74-0.02,1.37,0.24,1.89,0.77C117.34,36.93,117.62,37.64,117.67,38.49z"/>
				<path class="st2" d="M112.64,44.27c-1.16,0-2.29-0.16-3.39-0.49c-1.93-0.58-3.6-1.73-4.98-3.42c-1.52-2.02-2.29-4.3-2.33-6.82
					c-0.03-2.49,0.61-4.8,1.91-6.87c1.29-1.9,3.04-3.21,5.24-3.92c2.18-0.71,4.38-0.68,6.53,0.09c0.71,0.26,1.27,0.7,1.67,1.3
					c0.29,0.49,0.43,0.96,0.46,1.46c0.03,0.35,0.02,0.74-0.03,1.17c-0.03,0.66-0.23,1.36-0.59,2l-0.08,0.12
					c-0.27,0.37-0.59,0.67-0.95,0.89c0.36,0.35,0.63,0.79,0.81,1.31c0.37,1.06,0.31,2.14-0.19,3.13c-0.1,0.16-0.2,0.32-0.32,0.46
					c0.47,0.19,0.89,0.47,1.26,0.85c0.73,0.83,1.1,1.79,1.17,2.9l0,0c0.07,1.02-0.03,1.97-0.28,2.83c-0.28,0.86-0.75,1.52-1.39,1.97
					c-0.59,0.4-1.26,0.67-2.01,0.81C114.32,44.19,113.47,44.27,112.64,44.27z M112.26,24.62c-0.8,0-1.6,0.13-2.42,0.4
					c-1.71,0.55-3.01,1.51-3.98,2.95c-1.04,1.67-1.55,3.49-1.53,5.54c0.03,2.03,0.62,3.79,1.82,5.38c1.06,1.3,2.31,2.17,3.79,2.61
					c1.5,0.45,3.12,0.51,4.79,0.18c0.44-0.08,0.8-0.22,1.11-0.43c0.21-0.14,0.36-0.38,0.47-0.71c0.17-0.56,0.23-1.23,0.18-1.97v0
					c-0.04-0.59-0.21-1.06-0.55-1.44c-0.24-0.24-0.57-0.36-0.97-0.36c-0.25,0.03-0.57,0.1-0.87,0.21c-0.44,0.16-0.9,0.27-1.37,0.33
					c-0.46,0.06-0.92,0-1.35-0.18c-0.37-0.19-0.61-0.41-0.8-0.69c-0.22-0.36-0.31-0.73-0.28-1.1c0.08-0.53,0.3-0.91,0.64-1.19
					c0.21-0.18,0.46-0.32,0.75-0.42c0.59-0.17,1.14-0.22,1.69-0.17c0.22,0.02,0.46,0.01,0.69-0.03c0.23-0.06,0.43-0.2,0.59-0.46
					c0.17-0.34,0.19-0.73,0.02-1.2c-0.14-0.39-0.35-0.59-0.75-0.68c-0.11-0.01-0.3-0.02-0.53-0.01c-0.58,0.05-1.17-0.03-1.74-0.24
					l-0.1-0.04c-0.27-0.13-0.51-0.31-0.7-0.53c-0.29-0.31-0.44-0.76-0.4-1.22c0.06-0.46,0.26-0.82,0.56-1.08
					c0.23-0.21,0.55-0.37,0.91-0.43c0.43-0.06,0.86-0.03,1.3,0.07c0.06,0.01,0.12,0.02,0.17,0.03l0.16,0.02
					c0.27,0.04,0.55,0.06,0.83,0.07c0.33,0.01,0.52-0.07,0.71-0.3c0.16-0.3,0.24-0.61,0.26-0.95c0.04-0.34,0.04-0.58,0.02-0.8
					c-0.01-0.15-0.05-0.26-0.12-0.38c-0.08-0.12-0.23-0.23-0.46-0.32C113.97,24.77,113.12,24.62,112.26,24.62z"/>
			</g>
			<g>
				<path id="XMLID_00000098938772422893107560000017170490193278955922_" class="st1" d="M133.07,39.08
					c-0.08,1.52-0.79,2.57-2.13,3.16c-1.27,0.59-2.59,0.88-3.98,0.85c-1.22-0.04-2.53-0.3-3.95-0.79c-1.42-0.49-2.51-1.21-3.29-2.14
					c-1.34-1.82-2.03-3.88-2.06-6.2c-0.03-2.31,0.55-4.43,1.73-6.35c0.55-0.84,1.36-1.59,2.4-2.25c1.05-0.65,2.2-1.14,3.46-1.45
					c1.25-0.32,2.47-0.38,3.64-0.2c1.17,0.19,2.15,0.7,2.95,1.53c0.81,0.91,1.2,1.98,1.18,3.22c-0.02,0.91-0.32,1.7-0.92,2.38
					c-0.66,0.67-1.44,0.92-2.34,0.76c-0.31-0.09-0.62-0.22-0.92-0.39c-0.33-0.19-0.68-0.32-1.05-0.4c-0.58-0.08-1.07,0.04-1.44,0.37
					c-0.38,0.33-0.64,0.76-0.79,1.29c-0.14,0.53-0.16,1.05-0.04,1.56c0.2,0.71,0.56,1.25,1.11,1.62c0.54,0.36,1.17,0.45,1.89,0.28
					c0.2-0.05,0.41-0.12,0.61-0.19c0.51-0.21,1.03-0.32,1.56-0.31c0.64,0.08,1.17,0.37,1.57,0.89c0.41,0.51,0.66,1.11,0.77,1.77
					C133.08,38.41,133.09,38.74,133.07,39.08z"/>
				<path class="st2" d="M127.13,44.28c-0.07,0-0.13,0-0.2,0c-1.35-0.04-2.79-0.33-4.31-0.86c-1.61-0.56-2.89-1.4-3.82-2.5
					c-1.53-2.07-2.3-4.38-2.34-6.94c-0.03-2.53,0.61-4.88,1.91-6.98c0.66-1.01,1.59-1.89,2.79-2.63c1.16-0.72,2.44-1.26,3.8-1.6
					c1.4-0.35,2.79-0.43,4.11-0.22c1.43,0.23,2.65,0.86,3.63,1.88c1.03,1.17,1.53,2.52,1.51,4.05c-0.03,1.21-0.44,2.26-1.21,3.15
					c-0.98,1-2.15,1.38-3.44,1.15l-0.12-0.03c-0.4-0.12-0.79-0.28-1.17-0.49c-0.23-0.13-0.47-0.22-0.73-0.28
					c-0.24-0.03-0.35,0.06-0.4,0.1c-0.21,0.18-0.34,0.4-0.43,0.71c-0.09,0.34-0.1,0.66-0.03,0.97c0.11,0.4,0.31,0.7,0.61,0.9
					c0.17,0.12,0.44,0.23,0.94,0.11c0.15-0.04,0.32-0.1,0.5-0.16c0.6-0.25,1.27-0.39,1.98-0.38l0.12,0.01
					c0.95,0.11,1.77,0.57,2.37,1.33c0.54,0.68,0.88,1.46,1.01,2.33c0.06,0.44,0.07,0.86,0.04,1.26c-0.11,1.96-1.09,3.4-2.84,4.17
					C130.08,43.96,128.63,44.28,127.13,44.28z M127.58,24.8c-0.66,0-1.34,0.09-2.04,0.26c-1.13,0.28-2.18,0.72-3.12,1.31
					c-0.9,0.56-1.58,1.2-2.04,1.89c-1.05,1.71-1.56,3.58-1.54,5.68c0.03,2.08,0.63,3.88,1.83,5.5c0.61,0.72,1.51,1.31,2.73,1.73
					c1.3,0.45,2.51,0.7,3.6,0.73c1.19,0.03,2.35-0.22,3.44-0.74c0.95-0.42,1.39-1.08,1.45-2.15l0-0.02
					c0.02-0.25,0.01-0.51-0.02-0.76c-0.07-0.43-0.24-0.83-0.52-1.19c-0.2-0.25-0.42-0.39-0.72-0.43c-0.34,0-0.68,0.07-1.02,0.22
					c-0.29,0.11-0.53,0.18-0.76,0.25c-1.05,0.26-2.03,0.11-2.85-0.43c-0.78-0.52-1.32-1.29-1.6-2.29c-0.18-0.74-0.16-1.46,0.03-2.19
					c0.21-0.77,0.6-1.4,1.16-1.88c0.44-0.38,1.21-0.81,2.39-0.64c0.57,0.13,1.02,0.3,1.45,0.54c0.2,0.11,0.41,0.2,0.61,0.27
					c0.48,0.07,0.85-0.06,1.22-0.44c0.36-0.42,0.56-0.93,0.58-1.57c0.01-0.93-0.28-1.71-0.88-2.4c-0.59-0.61-1.33-1-2.25-1.15
					C128.34,24.83,127.96,24.8,127.58,24.8z"/>
			</g>
			<g>
				<path id="XMLID_00000085943838442330840480000010719261978262405046_" class="st1" d="M148.9,24.85
					c0.62,0.58,0.96,1.31,1.02,2.2c0.05,0.89-0.21,1.65-0.79,2.27c-0.36,0.33-0.74,0.53-1.17,0.59c-0.42,0.06-0.87,0.09-1.32,0.09
					c-0.3,0-0.56,0.09-0.76,0.28c-0.2,0.19-0.35,0.56-0.44,1.13c-0.09,0.57-0.14,1.44-0.14,2.6c0,0.95-0.02,1.91-0.04,2.85
					c-0.02,0.47-0.03,0.95-0.04,1.44c0,0.72-0.1,1.42-0.29,2.1s-0.56,1.26-1.09,1.75c-0.55,0.46-1.2,0.71-1.92,0.74
					c-0.73,0.03-1.39-0.16-1.98-0.59c-0.48-0.38-0.84-0.84-1.09-1.38c-0.25-0.54-0.41-1.11-0.49-1.71
					c-0.08-0.94-0.07-1.88,0.04-2.84c0.02-0.23,0.03-0.47,0.04-0.7c0.09-1.41,0.08-2.82-0.03-4.23c-0.04-0.48-0.21-0.84-0.51-1.09
					c-0.29-0.24-0.67-0.4-1.13-0.47c-0.79-0.13-1.47-0.42-2.02-0.86c-0.55-0.44-0.85-1.08-0.9-1.92c-0.01-0.85,0.26-1.57,0.81-2.16
					c0.54-0.59,1.25-0.95,2.11-1.08c1.3-0.17,2.62-0.23,3.97-0.18c0.4,0.01,0.79,0.02,1.17,0.02c1.81-0.05,3.6,0.09,5.38,0.4
					C147.95,24.23,148.48,24.48,148.9,24.85z"/>
				<path class="st2" d="M141.77,44.09c-0.93,0-1.77-0.28-2.53-0.82c-0.66-0.52-1.14-1.13-1.47-1.84c-0.3-0.66-0.5-1.35-0.59-2.06
					c-0.1-1.07-0.08-2.11,0.04-3.13c0.01-0.16,0.02-0.38,0.03-0.6c0.09-1.41,0.08-2.78-0.03-4.08c-0.01-0.13-0.04-0.24-0.08-0.27
					c-0.12-0.1-0.31-0.17-0.57-0.21c-1-0.16-1.87-0.54-2.58-1.11c-0.81-0.65-1.26-1.58-1.34-2.76c-0.02-1.23,0.36-2.23,1.13-3.05
					c0.72-0.78,1.66-1.26,2.79-1.45c1.39-0.18,2.79-0.24,4.2-0.2c0.38,0.01,0.76,0.01,1.13,0.01c1.85-0.04,3.74,0.09,5.59,0.42
					c0.88,0.18,1.61,0.52,2.18,1.03l0.02,0.02c0.85,0.79,1.32,1.79,1.4,2.99c0.07,1.24-0.3,2.3-1.12,3.16
					c-0.59,0.55-1.2,0.86-1.87,0.95c-0.44,0.06-0.92,0.1-1.42,0.1c-0.03,0.08-0.06,0.21-0.1,0.42c-0.05,0.35-0.12,1.06-0.12,2.4
					c0,0.96-0.02,1.93-0.04,2.88c-0.02,0.48-0.03,0.95-0.04,1.43c0,0.8-0.11,1.62-0.34,2.4c-0.25,0.88-0.73,1.65-1.42,2.3
					c-0.8,0.67-1.68,1.01-2.67,1.06C141.91,44.09,141.84,44.09,141.77,44.09z M139.9,24.86c-1.01,0-2,0.06-2.97,0.19
					c-0.56,0.09-1.03,0.33-1.39,0.71c-0.35,0.37-0.5,0.79-0.49,1.33c0.04,0.6,0.29,0.87,0.46,1.01c0.39,0.32,0.87,0.52,1.46,0.61
					c0.67,0.11,1.24,0.35,1.7,0.73c0.38,0.32,0.85,0.9,0.94,1.91c0.12,1.42,0.13,2.91,0.03,4.41c-0.01,0.22-0.03,0.46-0.04,0.7
					c-0.11,0.92-0.12,1.79-0.04,2.65c0.05,0.43,0.18,0.89,0.38,1.32c0.18,0.38,0.42,0.69,0.75,0.95c0.33,0.24,0.72,0.35,1.18,0.33
					c0.46-0.02,0.85-0.18,1.21-0.47c0.33-0.31,0.57-0.7,0.71-1.17c0.17-0.57,0.25-1.17,0.25-1.78c0.01-0.52,0.02-1.01,0.04-1.49
					c0.02-0.91,0.04-1.86,0.04-2.8c0-1.2,0.05-2.14,0.15-2.78c0.14-0.86,0.4-1.44,0.8-1.82c0.42-0.39,0.96-0.6,1.57-0.6
					c0.41,0,0.8-0.03,1.15-0.08c0.12-0.02,0.3-0.06,0.53-0.28c0.3-0.33,0.46-0.77,0.42-1.33c-0.04-0.58-0.24-1.02-0.63-1.39
					c-0.26-0.22-0.61-0.38-1.04-0.47c-1.66-0.29-3.39-0.42-5.12-0.38c-0.44,0.01-0.83,0-1.23-0.02
					C140.44,24.86,140.17,24.86,139.9,24.86z"/>
			</g>
			<g>
				<path id="XMLID_00000096040709343205348020000004583519626939621028_" class="st1" d="M166.8,24.57
					c0.25-0.02,0.49,0.02,0.71,0.1c0.31,0.14,0.56,0.35,0.77,0.61c0.43,0.61,0.75,1.29,0.95,2.02v0.04
					c0.03,0.14,0.08,0.27,0.15,0.39c0.05,0.07,0.1,0.12,0.17,0.16c0.07,0.04,0.15,0.06,0.23,0.05c0.1-0.03,0.18-0.08,0.25-0.17
					c0.06-0.08,0.11-0.18,0.15-0.28c0.09-0.19,0.18-0.39,0.26-0.6c0.04-0.07,0.07-0.16,0.12-0.25c0.06-0.15,0.12-0.3,0.15-0.45
					c0.04-0.09,0.07-0.19,0.1-0.31c0.16-0.42,0.41-0.77,0.75-1.06c0.75-0.58,1.61-0.82,2.58-0.7c0.55,0.05,1.01,0.27,1.41,0.64
					c0.42,0.49,0.61,1.07,0.57,1.73c-0.04,0.66-0.15,1.29-0.32,1.87c-0.51,1.88-1.06,3.82-1.63,5.81c-0.56,2-1.1,3.95-1.62,5.83
					c-0.11,0.42-0.24,0.8-0.4,1.15c-0.15,0.35-0.39,0.68-0.73,0.98c-0.6,0.56-1.3,0.88-2.1,0.96c-0.31,0.03-0.64,0-1-0.08
					c-0.36-0.08-0.67-0.22-0.92-0.4c-0.38-0.36-0.71-0.83-0.97-1.39c-0.11-0.22-0.22-0.42-0.33-0.6c-0.03-0.04-0.05-0.07-0.08-0.1
					c-0.02-0.03-0.05-0.05-0.09-0.06c-0.1-0.03-0.19,0.01-0.27,0.1c-0.07,0.1-0.13,0.2-0.15,0.3c-0.29,0.82-0.84,1.39-1.67,1.71
					c-0.84,0.26-1.63,0.16-2.38-0.29c-0.55-0.39-0.99-0.91-1.31-1.57c-0.31-0.65-0.56-1.29-0.75-1.91
					c-0.38-1.16-0.73-2.32-1.06-3.48c-0.17-0.6-0.34-1.18-0.52-1.75c-0.31-1.03-0.6-2.08-0.87-3.16c-0.27-1.07-0.45-2.14-0.55-3.22
					c-0.05-0.49-0.01-0.99,0.1-1.5c0.12-0.51,0.36-0.94,0.74-1.3c0.52-0.41,1.13-0.6,1.84-0.56c0.71,0.03,1.35,0.19,1.93,0.47
					c0.46,0.22,0.81,0.52,1.02,0.89c0.22,0.37,0.4,0.77,0.54,1.21c0.07,0.23,0.16,0.47,0.27,0.71c0.07,0.19,0.17,0.37,0.3,0.54
					c0.15,0.14,0.31,0.22,0.5,0.23c0.18,0.02,0.33-0.07,0.45-0.24c0.09-0.17,0.15-0.34,0.18-0.53l0.03-0.14
					c0.13-0.59,0.42-1.13,0.86-1.61C165.61,24.9,166.15,24.63,166.8,24.57z"/>
				<path class="st2" d="M169.08,44.31c-0.34,0-0.68-0.04-1.04-0.12c-0.52-0.12-0.98-0.33-1.36-0.6l-0.11-0.09
					c-0.27-0.25-0.51-0.55-0.74-0.88c-0.42,0.47-0.94,0.83-1.57,1.08c-1.24,0.39-2.4,0.24-3.43-0.38c-0.79-0.55-1.36-1.24-1.76-2.07
					c-0.34-0.71-0.61-1.41-0.82-2.08c-0.36-1.1-0.72-2.29-1.06-3.5c-0.16-0.58-0.33-1.16-0.51-1.72c-0.31-1.02-0.61-2.1-0.89-3.22
					c-0.28-1.12-0.47-2.27-0.58-3.4c-0.06-0.61-0.01-1.24,0.13-1.87c0.17-0.75,0.54-1.39,1.09-1.91l0.08-0.07
					c0.75-0.59,1.64-0.86,2.63-0.81c0.86,0.04,1.66,0.23,2.39,0.58c0.69,0.33,1.2,0.79,1.54,1.37c0.18,0.31,0.34,0.64,0.48,1
					c0.2-0.37,0.44-0.72,0.74-1.04c0.65-0.69,1.48-1.1,2.41-1.18l0.01,0c0.41-0.03,0.82,0.03,1.21,0.17
					c0.57,0.26,0.98,0.59,1.3,1.01c0.19,0.26,0.35,0.53,0.5,0.81c0.23-0.56,0.58-1.05,1.05-1.44c1.05-0.81,2.22-1.13,3.49-0.97
					c0.78,0.08,1.49,0.4,2.08,0.96l0.09,0.09c0.62,0.73,0.9,1.59,0.85,2.57c-0.04,0.73-0.16,1.46-0.36,2.14
					c-0.51,1.87-1.05,3.81-1.63,5.8c-0.56,1.99-1.1,3.93-1.61,5.81c-0.13,0.48-0.28,0.92-0.46,1.33c-0.21,0.49-0.55,0.95-1.01,1.37
					c-0.78,0.72-1.71,1.15-2.78,1.26C169.32,44.31,169.2,44.31,169.08,44.31z M168.15,41.71c0.11,0.07,0.25,0.12,0.43,0.16
					c0.24,0.06,0.45,0.08,0.63,0.06c0.53-0.06,0.99-0.27,1.4-0.65c0.22-0.2,0.36-0.39,0.45-0.58c0.14-0.3,0.24-0.61,0.34-0.98
					c0.52-1.9,1.06-3.84,1.62-5.85c0.58-1.99,1.12-3.92,1.63-5.8c0.16-0.53,0.25-1.07,0.28-1.62c0.02-0.34-0.06-0.6-0.25-0.85
					c-0.19-0.17-0.4-0.25-0.66-0.28c-0.68-0.09-1.23,0.06-1.73,0.45c-0.14,0.12-0.26,0.29-0.35,0.5c-0.03,0.1-0.06,0.2-0.09,0.29
					c-0.05,0.18-0.11,0.36-0.19,0.54l-0.05,0.11c-0.03,0.06-0.05,0.11-0.08,0.17c-0.08,0.2-0.16,0.38-0.25,0.57
					c-0.07,0.17-0.15,0.34-0.27,0.5c-0.25,0.34-0.56,0.54-0.91,0.64l-0.19,0.04c-0.33,0.03-0.65-0.04-0.93-0.2
					c-0.24-0.15-0.42-0.31-0.55-0.5c-0.2-0.32-0.3-0.59-0.35-0.87l-0.01-0.06c-0.17-0.56-0.41-1.07-0.74-1.52
					c-0.06-0.08-0.16-0.16-0.29-0.22c0.01,0.01-0.02,0-0.06,0.01c-0.02,0-0.04,0-0.06,0c-0.35,0.03-0.62,0.17-0.87,0.43
					c-0.3,0.32-0.49,0.67-0.57,1.05l-0.02,0.1c-0.05,0.32-0.16,0.62-0.32,0.9c-0.41,0.62-0.97,0.9-1.59,0.84
					c-0.44-0.03-0.87-0.23-1.22-0.56l-0.11-0.12c-0.2-0.26-0.36-0.54-0.48-0.85c-0.1-0.23-0.2-0.51-0.29-0.78
					c-0.11-0.35-0.25-0.67-0.43-0.96c-0.1-0.17-0.27-0.31-0.51-0.43c-0.44-0.21-0.92-0.32-1.47-0.35c-0.4-0.01-0.73,0.07-1.02,0.28
					c-0.18,0.18-0.3,0.39-0.35,0.65c-0.09,0.39-0.12,0.77-0.08,1.13c0.09,1.02,0.27,2.04,0.52,3.05c0.27,1.08,0.56,2.12,0.85,3.1
					c0.18,0.58,0.35,1.17,0.52,1.78c0.33,1.18,0.68,2.34,1.04,3.43c0.18,0.59,0.41,1.17,0.7,1.77c0.22,0.47,0.53,0.83,0.92,1.11
					c0.4,0.24,0.83,0.29,1.35,0.13c0.41-0.17,0.71-0.46,0.89-0.94c0.07-0.22,0.17-0.43,0.33-0.64c0.41-0.51,0.99-0.7,1.54-0.54
					c0.26,0.05,0.55,0.25,0.75,0.53l0.11,0.16c0.13,0.21,0.26,0.44,0.39,0.7C167.68,41.13,167.9,41.46,168.15,41.71z"/>
			</g>
			<g>
				<path id="XMLID_00000145039819150672703540000007209652692528576184_" class="st1" d="M180.77,39.83
					c-0.06,0.22-0.12,0.44-0.17,0.65c-0.1,0.37-0.23,0.73-0.38,1.08c-0.15,0.35-0.37,0.64-0.65,0.88c-0.33,0.26-0.68,0.41-1.04,0.45
					c-0.36,0.04-0.75,0.04-1.18,0.01c-0.5-0.02-0.99-0.08-1.47-0.2c-0.48-0.12-0.87-0.36-1.19-0.72c-0.33-0.44-0.48-0.93-0.46-1.48
					c0.02-0.55,0.1-1.09,0.25-1.62c0.26-1.08,0.52-2.17,0.79-3.26c0.26-1.07,0.52-2.16,0.78-3.24c0.08-0.35,0.17-0.69,0.25-1.05
					c0.18-0.83,0.39-1.64,0.62-2.44c0.24-0.8,0.56-1.57,0.97-2.29c0.58-0.99,1.35-1.75,2.34-2.26c0.77-0.4,1.62-0.55,2.54-0.44
					c1.34,0.22,2.44,0.85,3.31,1.89c0.45,0.54,0.83,1.13,1.12,1.78c0.29,0.65,0.56,1.31,0.8,1.99c0.14,0.36,0.28,0.72,0.42,1.07
					c0.24,0.61,0.49,1.23,0.74,1.84l1.47,3.68c0.2,0.47,0.38,0.95,0.54,1.44c0.16,0.49,0.26,0.98,0.3,1.48
					c0.06,0.66-0.04,1.28-0.29,1.86c-0.25,0.58-0.68,1.02-1.29,1.31c-0.54,0.22-1.1,0.37-1.69,0.45c-0.54,0.11-1.1,0.16-1.68,0.14
					c-0.59-0.01-1.09-0.23-1.5-0.65c-0.25-0.32-0.41-0.69-0.49-1.1c-0.03-0.13-0.06-0.25-0.09-0.38c-0.08-0.28-0.17-0.56-0.25-0.86
					h-0.21C182.9,39.89,181.84,39.88,180.77,39.83z M183.41,36.7c-0.1-0.44-0.2-0.9-0.29-1.38l-0.16-0.83
					c-0.03-0.12-0.08-0.24-0.14-0.36c-0.07-0.12-0.16-0.18-0.28-0.2c-0.13,0-0.24,0.06-0.32,0.17c-0.08,0.12-0.14,0.24-0.17,0.38
					c-0.2,0.77-0.39,1.54-0.57,2.31C182.12,36.75,182.76,36.72,183.41,36.7z"/>
				<path class="st2" d="M177.95,44.12c-0.23,0-0.46-0.01-0.7-0.03c-0.52-0.02-1.08-0.09-1.64-0.23c-0.71-0.17-1.32-0.54-1.8-1.09
					c-0.55-0.72-0.78-1.47-0.75-2.31c0.02-0.64,0.12-1.29,0.29-1.91c0.23-0.98,0.49-2.02,0.74-3.06l0.82-3.39
					c0.09-0.37,0.17-0.7,0.24-1.02c0.18-0.82,0.39-1.64,0.64-2.52c0.26-0.88,0.62-1.73,1.07-2.54c0.7-1.2,1.64-2.11,2.83-2.73
					c0.98-0.51,2.06-0.7,3.21-0.57c1.68,0.28,3.04,1.05,4.09,2.31c0.52,0.61,0.95,1.3,1.29,2.05c0.31,0.68,0.59,1.38,0.84,2.08
					l0.4,1.03c0.24,0.61,0.48,1.22,0.73,1.83l1.48,3.68c0.2,0.49,0.39,0.99,0.56,1.51c0.19,0.58,0.31,1.17,0.36,1.77
					c0.07,0.83-0.06,1.65-0.39,2.42c-0.37,0.85-1,1.49-1.87,1.91c-0.69,0.29-1.36,0.47-2.05,0.56c-0.55,0.11-1.21,0.17-1.87,0.15
					c-0.89-0.02-1.69-0.36-2.31-1l-0.1-0.12c-0.35-0.46-0.59-0.99-0.71-1.58c-0.02-0.1-0.04-0.19-0.07-0.27c0,0,0,0,0,0
					c-0.52,0.01-1.07,0-1.62-0.01c-0.11,0.34-0.22,0.67-0.35,0.97c-0.23,0.53-0.56,0.97-0.98,1.33c-0.55,0.42-1.1,0.66-1.67,0.73
					C178.44,44.11,178.2,44.12,177.95,44.12z M182.22,25.06c-0.5,0-0.98,0.11-1.43,0.35c-0.78,0.41-1.39,0.99-1.85,1.8
					c-0.36,0.64-0.65,1.32-0.86,2.03c-0.24,0.82-0.44,1.59-0.6,2.36c-0.08,0.35-0.16,0.69-0.24,1.02l-0.84,3.45
					c-0.25,1.03-0.51,2.06-0.75,3.09c-0.14,0.48-0.21,0.93-0.22,1.39c-0.01,0.29,0.06,0.51,0.22,0.73c0.1,0.11,0.28,0.22,0.52,0.28
					c0.4,0.1,0.8,0.15,1.23,0.17c0.41,0.04,0.72,0.04,1,0c0.14-0.02,0.29-0.09,0.45-0.21c0.11-0.09,0.21-0.23,0.29-0.42
					c0.12-0.29,0.23-0.61,0.32-0.93l0.4-1.56l0.96,0.04c1.07,0.04,2.12,0.05,3.12,0.02h1.14l0.24,0.87
					c0.08,0.29,0.16,0.57,0.24,0.84c0.05,0.16,0.09,0.32,0.12,0.49c0.04,0.2,0.12,0.38,0.23,0.54c0.18,0.16,0.38,0.23,0.62,0.24
					c0.5,0.02,0.96-0.03,1.42-0.12c0.57-0.08,1.04-0.2,1.47-0.38c0.29-0.14,0.52-0.37,0.66-0.69c0.17-0.4,0.24-0.82,0.2-1.28
					c-0.03-0.42-0.11-0.82-0.24-1.21c-0.15-0.46-0.32-0.91-0.51-1.36l-1.48-3.69c-0.25-0.61-0.5-1.23-0.74-1.85L186.9,30
					c-0.24-0.68-0.5-1.32-0.78-1.94c-0.25-0.55-0.57-1.05-0.94-1.5c-0.69-0.83-1.54-1.31-2.6-1.49
					C182.46,25.07,182.34,25.06,182.22,25.06z M179.96,38.1l0.36-1.57c0.18-0.78,0.37-1.57,0.58-2.35c0.05-0.25,0.17-0.52,0.34-0.76
					c0.32-0.44,0.79-0.68,1.29-0.68l0.18,0.01c0.47,0.07,0.87,0.34,1.12,0.77c0.13,0.23,0.21,0.45,0.27,0.66l0.18,0.91
					c0.09,0.46,0.19,0.91,0.29,1.34l0.31,1.4l-1.43,0.05c-0.63,0.02-1.26,0.05-1.89,0.1L179.96,38.1z"/>
			</g>
			<g>
				<path id="XMLID_00000017492629564982259540000005203767576039749781_" class="st1" d="M198.4,34.59
					c0.2,0.78,0.65,1.36,1.37,1.72c0.31,0.13,0.63,0.2,0.95,0.2c0.32,0,0.64-0.03,0.96-0.08c0.51-0.09,1.02-0.1,1.53-0.01
					c0.6,0.16,1.06,0.5,1.37,1.04c0.36,0.73,0.4,1.6,0.14,2.59c-0.26,0.99-0.72,1.71-1.36,2.15c-0.97,0.5-2.1,0.74-3.37,0.72
					c-1.27-0.02-2.35-0.09-3.23-0.21c-0.88-0.12-1.74-0.44-2.56-0.96c-0.61-0.44-1.07-1.04-1.36-1.8c-0.29-0.77-0.49-1.59-0.59-2.46
					c-0.1-0.87-0.17-1.69-0.19-2.44c-0.01-0.17-0.02-0.33-0.03-0.49c-0.1-1.46-0.09-3.01,0.02-4.67c0.12-1.66,0.49-3.15,1.12-4.48
					c0.56-0.99,1.25-1.6,2.09-1.84c0.84-0.23,1.69,0.05,2.56,0.86c0.57,0.6,0.88,1.27,0.96,1.99c0.07,0.72,0.05,1.46-0.05,2.21
					c-0.02,0.21-0.03,0.43-0.04,0.64c-0.05,0.57-0.13,1.08-0.24,1.53c-0.1,0.44-0.18,0.94-0.24,1.5
					C198.14,33.05,198.2,33.81,198.4,34.59z"/>
				<path class="st2" d="M200.15,44.1c-0.06,0-0.11,0-0.17,0c-1.31-0.02-2.45-0.09-3.37-0.22c-1.05-0.15-2.07-0.53-3.04-1.13
					c-0.86-0.61-1.46-1.4-1.83-2.38c-0.32-0.86-0.55-1.78-0.66-2.74c-0.11-0.97-0.18-1.8-0.2-2.54c-0.01-0.16-0.02-0.33-0.03-0.49
					c-0.1-1.43-0.1-3.06,0.02-4.79c0.12-1.81,0.54-3.46,1.23-4.9c0.75-1.34,1.7-2.15,2.84-2.47c0.87-0.24,2.2-0.24,3.69,1.13
					c0.8,0.85,1.23,1.75,1.33,2.74c0.08,0.83,0.06,1.67-0.06,2.5c-0.01,0.14-0.02,0.34-0.03,0.54c-0.06,0.66-0.15,1.23-0.26,1.74
					c-0.09,0.39-0.16,0.85-0.21,1.35c-0.06,0.59-0.01,1.22,0.16,1.87l0,0c0.11,0.45,0.35,0.74,0.75,0.95c0.23,0.08,0.74,0.07,1.18,0
					c0.62-0.12,1.27-0.12,1.92-0.02l0.11,0.02c0.9,0.24,1.63,0.79,2.1,1.59c0.52,1.07,0.6,2.22,0.26,3.49
					c-0.34,1.28-0.96,2.23-1.85,2.83l-0.12,0.07C202.8,43.81,201.54,44.1,200.15,44.1z M195.83,24.68c-0.12,0-0.2,0.02-0.25,0.04
					c-0.52,0.15-0.97,0.56-1.37,1.28c-0.53,1.11-0.86,2.47-0.97,3.97c-0.11,1.62-0.12,3.13-0.02,4.5c0.01,0.19,0.02,0.33,0.03,0.47
					c0.03,0.74,0.09,1.51,0.19,2.4c0.09,0.76,0.27,1.5,0.52,2.17c0.21,0.54,0.51,0.95,0.94,1.25c0.63,0.39,1.31,0.65,2.04,0.75
					c0.82,0.11,1.86,0.18,3.08,0.2c1.03,0.03,1.96-0.17,2.74-0.55c0.37-0.28,0.65-0.76,0.83-1.43c0.19-0.71,0.17-1.29-0.06-1.77
					c-0.1-0.17-0.29-0.32-0.56-0.4c-0.36-0.05-0.71-0.05-1.07,0.02c-0.92,0.16-1.75,0.16-2.58-0.18c-1.1-0.55-1.78-1.41-2.07-2.52v0
					c-0.23-0.92-0.3-1.82-0.22-2.69c0.06-0.6,0.15-1.16,0.26-1.65c0.09-0.41,0.16-0.87,0.21-1.38c0.01-0.17,0.02-0.38,0.04-0.6
					c0.1-0.75,0.12-1.4,0.06-2.04c-0.05-0.46-0.25-0.88-0.64-1.28C196.44,24.78,196.06,24.68,195.83,24.68z"/>
			</g>
			<g>
				<path id="XMLID_00000106831667190037218580000004248372593121131399_" class="st1" d="M211.96,34.59
					c0.2,0.78,0.65,1.36,1.37,1.72c0.31,0.13,0.63,0.2,0.95,0.2c0.32,0,0.64-0.03,0.96-0.08c0.51-0.09,1.02-0.1,1.53-0.01
					c0.6,0.16,1.06,0.5,1.37,1.04c0.36,0.73,0.4,1.6,0.14,2.59c-0.26,0.99-0.72,1.71-1.36,2.15c-0.97,0.5-2.1,0.74-3.37,0.72
					c-1.27-0.02-2.35-0.09-3.23-0.21c-0.88-0.12-1.74-0.44-2.56-0.96c-0.61-0.44-1.07-1.04-1.36-1.8c-0.29-0.77-0.49-1.59-0.59-2.46
					c-0.1-0.87-0.17-1.69-0.19-2.44c-0.01-0.17-0.02-0.33-0.03-0.49c-0.1-1.46-0.09-3.01,0.02-4.67c0.12-1.66,0.49-3.15,1.12-4.48
					c0.56-0.99,1.25-1.6,2.09-1.84c0.84-0.23,1.69,0.05,2.56,0.86c0.57,0.6,0.88,1.27,0.96,1.99c0.07,0.72,0.05,1.46-0.05,2.21
					c-0.02,0.21-0.03,0.43-0.04,0.64c-0.05,0.57-0.13,1.08-0.24,1.53c-0.1,0.44-0.18,0.94-0.24,1.5
					C211.69,33.05,211.76,33.81,211.96,34.59z"/>
				<path class="st2" d="M213.7,44.1c-0.06,0-0.11,0-0.17,0c-1.31-0.02-2.45-0.09-3.37-0.22c-1.05-0.15-2.07-0.53-3.03-1.13
					c-0.86-0.61-1.46-1.4-1.83-2.38c-0.33-0.86-0.55-1.78-0.66-2.74c-0.11-0.96-0.17-1.78-0.2-2.54c-0.01-0.16-0.02-0.33-0.03-0.49
					c-0.1-1.43-0.1-3.06,0.02-4.79c0.12-1.81,0.54-3.46,1.23-4.9c0.75-1.34,1.7-2.15,2.84-2.47c0.87-0.24,2.21-0.24,3.69,1.13
					c0.8,0.85,1.23,1.75,1.33,2.74c0.08,0.83,0.06,1.67-0.06,2.5c-0.01,0.14-0.02,0.33-0.03,0.53c-0.06,0.67-0.15,1.24-0.26,1.74
					c-0.09,0.38-0.16,0.84-0.21,1.36c-0.06,0.59-0.01,1.22,0.16,1.86l0,0c0.11,0.45,0.35,0.74,0.75,0.95c0.22,0.08,0.74,0.07,1.18,0
					c0.62-0.12,1.27-0.12,1.92-0.02l0.11,0.02c0.9,0.24,1.63,0.79,2.1,1.59c0.52,1.07,0.6,2.22,0.26,3.49
					c-0.34,1.28-0.96,2.23-1.85,2.83l-0.12,0.07C216.36,43.81,215.09,44.1,213.7,44.1z M209.38,24.68c-0.12,0-0.2,0.02-0.25,0.04
					c-0.52,0.15-0.97,0.56-1.37,1.28c-0.53,1.11-0.86,2.47-0.97,3.97c-0.11,1.62-0.12,3.13-0.02,4.5c0.01,0.19,0.02,0.33,0.03,0.47
					c0.03,0.75,0.09,1.52,0.19,2.4c0.09,0.76,0.27,1.5,0.52,2.17c0.21,0.54,0.51,0.95,0.94,1.25c0.63,0.39,1.31,0.65,2.04,0.75
					c0.83,0.11,1.86,0.18,3.08,0.2c1.02,0.01,1.96-0.17,2.74-0.56c0.37-0.27,0.65-0.75,0.83-1.43c0.19-0.71,0.17-1.29-0.06-1.77
					c-0.1-0.17-0.29-0.32-0.56-0.4c-0.36-0.05-0.71-0.05-1.07,0.02c-0.93,0.16-1.75,0.16-2.58-0.18c-1.1-0.55-1.78-1.41-2.07-2.52v0
					c-0.23-0.92-0.3-1.82-0.22-2.69c0.06-0.62,0.15-1.16,0.26-1.65c0.09-0.4,0.16-0.86,0.21-1.38c0.01-0.16,0.02-0.38,0.04-0.6
					c0.1-0.74,0.12-1.4,0.06-2.04c-0.05-0.46-0.25-0.88-0.64-1.28C210,24.78,209.62,24.68,209.38,24.68z"/>
			</g>
			<g>
				<path id="XMLID_00000047748944634774974870000014625972629338189702_" class="st1" d="M232.51,38.49
					c0.06,0.88-0.02,1.69-0.24,2.41c-0.19,0.58-0.5,1.03-0.93,1.33c-0.44,0.3-0.95,0.51-1.55,0.62c-1.88,0.37-3.66,0.3-5.36-0.21
					c-1.7-0.51-3.17-1.52-4.4-3.03c-1.34-1.79-2.03-3.82-2.06-6.08c-0.03-2.26,0.55-4.34,1.73-6.22c1.12-1.65,2.66-2.79,4.6-3.42
					c1.94-0.63,3.86-0.6,5.77,0.08c0.45,0.17,0.82,0.44,1.07,0.83c0.16,0.27,0.25,0.56,0.27,0.88c0.03,0.32,0.02,0.64-0.02,0.96
					c-0.03,0.56-0.18,1.07-0.44,1.54c-0.43,0.59-1.01,0.87-1.74,0.84c-0.32-0.01-0.64-0.04-0.96-0.08c-0.03,0-0.06-0.01-0.09-0.01
					c-0.12-0.01-0.23-0.03-0.35-0.06c-0.3-0.07-0.58-0.09-0.84-0.05c-0.12,0.02-0.22,0.07-0.31,0.15c-0.09,0.08-0.15,0.18-0.16,0.28
					c-0.01,0.14,0.03,0.26,0.12,0.36c0.08,0.1,0.19,0.17,0.31,0.23c0.4,0.15,0.82,0.2,1.25,0.17c0.3-0.02,0.59-0.01,0.88,0.04
					c0.79,0.19,1.32,0.67,1.58,1.44c0.27,0.77,0.23,1.5-0.13,2.21c-0.32,0.54-0.79,0.88-1.41,1.02c-0.32,0.05-0.66,0.07-1,0.04
					c-0.41-0.04-0.81,0-1.2,0.11c-0.14,0.05-0.27,0.12-0.38,0.22c-0.12,0.1-0.18,0.21-0.2,0.35c-0.01,0.13,0.02,0.25,0.09,0.36
					c0.07,0.11,0.16,0.19,0.27,0.25c0.24,0.1,0.48,0.13,0.74,0.1c0.38-0.05,0.75-0.13,1.1-0.26c0.41-0.15,0.83-0.24,1.25-0.28
					c0.74-0.02,1.37,0.24,1.89,0.77C232.17,36.93,232.45,37.64,232.51,38.49z"/>
				<path class="st2" d="M227.48,44.27c-1.16,0-2.29-0.17-3.39-0.49c-1.93-0.58-3.6-1.73-4.98-3.42c-1.52-2.02-2.29-4.3-2.33-6.82
					c-0.03-2.49,0.61-4.8,1.91-6.87c1.29-1.9,3.05-3.21,5.24-3.92c2.18-0.71,4.38-0.68,6.53,0.09c0.71,0.26,1.27,0.7,1.67,1.3
					c0.29,0.49,0.43,0.96,0.46,1.45c0.03,0.37,0.02,0.76-0.03,1.17c-0.03,0.66-0.23,1.35-0.59,1.99l-0.08,0.12
					c-0.27,0.37-0.59,0.67-0.95,0.89c0.36,0.35,0.63,0.79,0.81,1.31c0.38,1.06,0.31,2.14-0.19,3.13c-0.1,0.16-0.2,0.32-0.32,0.46
					c0.47,0.19,0.89,0.47,1.26,0.85c0.73,0.83,1.11,1.79,1.17,2.9c0.07,1.02-0.03,1.97-0.28,2.82c-0.28,0.87-0.75,1.52-1.39,1.97
					c-0.59,0.4-1.26,0.67-2.01,0.81C229.15,44.19,228.31,44.27,227.48,44.27z M227.09,24.62c-0.8,0-1.6,0.13-2.42,0.4
					c-1.71,0.55-3.01,1.51-3.98,2.95c-1.04,1.67-1.55,3.49-1.53,5.54c0.03,2.02,0.62,3.79,1.82,5.38c1.06,1.3,2.31,2.17,3.79,2.61
					c1.51,0.45,3.12,0.51,4.79,0.18c0.44-0.08,0.8-0.22,1.11-0.43c0.21-0.14,0.36-0.38,0.47-0.71c0.16-0.56,0.23-1.23,0.18-1.97v0
					c-0.04-0.59-0.21-1.05-0.54-1.43c-0.24-0.24-0.56-0.36-0.97-0.36c-0.25,0.03-0.57,0.1-0.87,0.21c-0.44,0.16-0.9,0.27-1.37,0.33
					c-0.45,0.06-0.92,0-1.35-0.18c-0.37-0.19-0.61-0.41-0.8-0.69c-0.22-0.36-0.31-0.73-0.28-1.11c0.07-0.52,0.29-0.9,0.64-1.18
					c0.2-0.17,0.46-0.32,0.74-0.42c0.6-0.17,1.14-0.22,1.69-0.17c0.22,0.02,0.46,0.01,0.69-0.03c0.23-0.06,0.43-0.2,0.59-0.46
					c0.17-0.34,0.19-0.73,0.02-1.2c-0.14-0.4-0.35-0.59-0.75-0.68c-0.1-0.01-0.31-0.02-0.52-0.01c-0.58,0.05-1.18-0.03-1.74-0.24
					l-0.1-0.04c-0.27-0.13-0.5-0.31-0.69-0.52c-0.29-0.32-0.44-0.76-0.41-1.23c0.06-0.46,0.26-0.82,0.56-1.08
					c0.23-0.22,0.55-0.37,0.91-0.43c0.43-0.06,0.86-0.03,1.3,0.07c0.06,0.01,0.11,0.02,0.17,0.03l0.16,0.02
					c0.27,0.04,0.55,0.06,0.83,0.07c0.3,0.01,0.52-0.07,0.7-0.3c0.16-0.3,0.24-0.61,0.26-0.95c0.04-0.34,0.04-0.58,0.02-0.81
					c-0.01-0.14-0.05-0.26-0.11-0.37c-0.08-0.12-0.24-0.24-0.46-0.32C228.8,24.77,227.95,24.62,227.09,24.62z"/>
			</g>
			<g>
				<path id="XMLID_00000158713526901422435440000012223998159205955746_" class="st1" d="M247.37,24.85
					c0.62,0.58,0.96,1.31,1.02,2.2c0.05,0.89-0.21,1.65-0.79,2.27c-0.36,0.33-0.74,0.53-1.17,0.59C246,29.98,245.56,30,245.11,30
					c-0.3,0-0.56,0.09-0.76,0.28c-0.2,0.19-0.35,0.56-0.44,1.13c-0.09,0.57-0.14,1.44-0.14,2.6c0,0.95-0.02,1.91-0.04,2.85
					c-0.02,0.47-0.03,0.95-0.04,1.44c0,0.72-0.1,1.42-0.29,2.1c-0.19,0.68-0.56,1.26-1.09,1.75c-0.55,0.46-1.2,0.71-1.92,0.74
					c-0.73,0.03-1.39-0.16-1.98-0.59c-0.48-0.38-0.84-0.84-1.09-1.38c-0.25-0.54-0.41-1.11-0.49-1.71
					c-0.08-0.94-0.07-1.88,0.04-2.84c0.02-0.23,0.03-0.47,0.04-0.7c0.09-1.41,0.08-2.82-0.03-4.23c-0.04-0.48-0.21-0.84-0.51-1.09
					c-0.29-0.24-0.67-0.4-1.13-0.47c-0.79-0.13-1.47-0.42-2.02-0.86c-0.55-0.44-0.85-1.08-0.9-1.92c-0.01-0.85,0.26-1.57,0.81-2.16
					c0.54-0.59,1.25-0.95,2.11-1.08c1.3-0.17,2.62-0.23,3.97-0.18c0.4,0.01,0.79,0.02,1.17,0.02c1.81-0.05,3.6,0.09,5.38,0.4
					C246.42,24.23,246.96,24.48,247.37,24.85z"/>
				<path class="st2" d="M240.24,44.09c-0.93,0-1.77-0.28-2.53-0.82c-0.66-0.52-1.14-1.13-1.47-1.84c-0.3-0.66-0.5-1.35-0.59-2.06
					c-0.1-1.07-0.08-2.11,0.04-3.13c0.01-0.16,0.02-0.39,0.04-0.61c0.09-1.41,0.08-2.77-0.03-4.08c-0.01-0.13-0.04-0.24-0.08-0.27
					c-0.12-0.1-0.31-0.17-0.57-0.21c-1-0.16-1.87-0.54-2.58-1.11c-0.81-0.65-1.26-1.58-1.34-2.76c-0.02-1.23,0.36-2.23,1.13-3.05
					c0.72-0.78,1.66-1.26,2.79-1.45c1.39-0.18,2.79-0.24,4.2-0.2c0.38,0.01,0.76,0.01,1.13,0.01c1.85-0.04,3.74,0.09,5.59,0.42
					c0.88,0.18,1.61,0.52,2.18,1.03l0.02,0.02c0.85,0.79,1.32,1.79,1.4,2.99c0.07,1.23-0.3,2.3-1.11,3.16
					c-0.59,0.56-1.2,0.86-1.87,0.95c-0.44,0.06-0.92,0.1-1.42,0.1c-0.03,0.08-0.06,0.21-0.1,0.42c-0.05,0.35-0.12,1.05-0.12,2.4
					c0,0.96-0.02,1.93-0.04,2.89c-0.02,0.48-0.03,0.95-0.04,1.43c0,0.8-0.11,1.62-0.34,2.4c-0.25,0.88-0.73,1.65-1.42,2.3
					c-0.8,0.67-1.68,1.01-2.67,1.06C240.38,44.09,240.31,44.09,240.24,44.09z M238.38,24.86c-1.01,0-2,0.06-2.97,0.19
					c-0.56,0.09-1.03,0.33-1.39,0.72c-0.34,0.37-0.5,0.79-0.49,1.33c0.04,0.6,0.29,0.87,0.46,1.01c0.39,0.32,0.87,0.52,1.46,0.61
					c0.67,0.11,1.25,0.35,1.7,0.73c0.38,0.32,0.85,0.9,0.94,1.9c0.12,1.43,0.13,2.91,0.03,4.41c-0.01,0.22-0.03,0.46-0.04,0.7
					c-0.11,0.91-0.12,1.78-0.04,2.65c0.05,0.43,0.18,0.88,0.38,1.31c0.17,0.38,0.42,0.69,0.75,0.95c0.33,0.24,0.72,0.35,1.18,0.33
					c0.46-0.02,0.86-0.18,1.21-0.47c0.33-0.31,0.57-0.7,0.71-1.17c0.17-0.57,0.25-1.17,0.25-1.78c0.01-0.52,0.02-1,0.04-1.49
					c0.03-0.92,0.04-1.86,0.04-2.8c0-1.22,0.05-2.13,0.15-2.78c0.14-0.87,0.4-1.44,0.8-1.82c0.42-0.39,0.96-0.6,1.57-0.6
					c0.41,0,0.8-0.03,1.15-0.08c0.12-0.02,0.3-0.06,0.53-0.28c0.3-0.33,0.46-0.77,0.42-1.33c-0.04-0.58-0.24-1.02-0.63-1.39
					c-0.26-0.23-0.6-0.38-1.04-0.47c-1.66-0.3-3.39-0.42-5.12-0.38c-0.45,0.01-0.83,0-1.23-0.02
					C238.92,24.86,238.65,24.86,238.38,24.86z"/>
			</g>
		</g>
	</g>
</g>
</svg>
