<?xml version="1.0" encoding="utf-8"?>
<!-- Generator: Adobe Illustrator 25.4.1, SVG Export Plug-In . SVG Version: 6.00 Build 0)  -->
<svg version="1.1" id="圖層_1" xmlns="http://www.w3.org/2000/svg" xmlns:xlink="http://www.w3.org/1999/xlink" x="0px" y="0px"
	 viewBox="0 0 54.27 66.61" style="enable-background:new 0 0 54.27 66.61;" xml:space="preserve">
<style type="text/css">
	.st0{fill:#FFFFFF;}
	.st1{fill:#231815;}
</style>
<g id="XMLID_26801_">
	<g>
		<g>
			<path id="XMLID_00000070840815201162603640000003019088404072834998_" class="st0" d="M13.8,33.84L13.74,34
				c-0.37,0.8-0.97,1.29-1.83,1.47c-0.29,0.04-0.58,0.06-0.88,0.05c-0.44-0.04-0.86,0-1.27,0.14c-0.64,0.31-1.04,0.83-1.22,1.56
				c-0.1,0.43-0.14,0.85-0.1,1.26c0.04,0.41,0.1,0.83,0.18,1.24c0.17,0.72,0.21,1.45,0.12,2.2c-0.2,1.27-0.9,2.1-2.11,2.48
				c-0.77,0.23-1.54,0.21-2.3-0.06c-0.76-0.27-1.39-0.71-1.89-1.33c-0.57-0.76-0.94-1.6-1.09-2.51s-0.25-1.84-0.28-2.77v-0.2
				c-0.12-2.34-0.12-4.69-0.02-7.03c0.03-1.14,0.21-2.23,0.53-3.3c0.32-1.06,0.92-1.98,1.8-2.77c0.85-0.7,1.8-1.16,2.83-1.38
				s2.09-0.31,3.19-0.26s2.16,0.15,3.19,0.3c0.16,0.02,0.31,0.04,0.47,0.05c1.28,0.21,2.11,0.95,2.5,2.22
				c0.15,0.59,0.12,1.18-0.09,1.77s-0.56,1.05-1.07,1.4c-0.43,0.26-0.91,0.46-1.45,0.6c-0.54,0.14-1.06,0.17-1.55,0.1
				c-0.07-0.01-0.15-0.02-0.23-0.03c-0.33-0.08-0.69-0.13-1.07-0.13c-0.38,0-0.68,0.13-0.9,0.4c-0.21,0.29-0.24,0.5-0.09,0.62
				c0.15,0.12,0.38,0.21,0.7,0.24c0.32,0.04,0.64,0.05,0.96,0.05c0.31,0,0.55,0.01,0.7,0.03c0.82,0.17,1.49,0.57,2,1.22
				C13.93,32.33,14.03,33.06,13.8,33.84z"/>
			<path class="st1" d="M5.59,45.56c-0.53,0-1.05-0.09-1.57-0.28c-0.93-0.33-1.71-0.88-2.33-1.64c-0.69-0.91-1.12-1.9-1.3-2.97
				c-0.16-0.95-0.26-1.93-0.29-2.91l0-0.24c-0.12-2.31-0.12-4.71-0.01-7.08c0.03-1.2,0.23-2.4,0.57-3.54
				c0.37-1.23,1.08-2.32,2.09-3.22c1-0.82,2.1-1.36,3.28-1.61c1.11-0.24,2.27-0.33,3.45-0.28c1.11,0.05,2.22,0.16,3.28,0.31
				c0.13,0.02,0.26,0.03,0.4,0.04c1.75,0.28,2.89,1.29,3.38,2.92c0.21,0.83,0.17,1.62-0.1,2.39c-0.27,0.79-0.76,1.43-1.45,1.9
				c-0.53,0.33-1.1,0.56-1.72,0.73c0.38,0.25,0.72,0.56,1.02,0.94l0.06,0.08c0.59,0.92,0.74,1.97,0.43,3.02l-0.09,0.25
				c-0.51,1.13-1.39,1.83-2.55,2.07c-0.41,0.06-0.76,0.08-1.11,0.07c-0.33-0.03-0.59-0.01-0.85,0.07c-0.33,0.18-0.53,0.46-0.63,0.87
				c-0.08,0.32-0.1,0.63-0.08,0.93c0.03,0.38,0.09,0.76,0.16,1.14c0.18,0.8,0.23,1.65,0.14,2.51c-0.26,1.69-1.23,2.82-2.8,3.32
				C6.49,45.49,6.04,45.56,5.59,45.56z M8.81,23.78c-0.81,0-1.6,0.08-2.37,0.25c-0.87,0.19-1.68,0.59-2.41,1.18
				c-0.71,0.64-1.2,1.39-1.47,2.28c-0.3,0.97-0.46,1.99-0.49,3.04c-0.1,2.32-0.1,4.66,0.01,6.96l0,0.25
				c0.03,0.86,0.12,1.74,0.27,2.61c0.13,0.76,0.43,1.44,0.91,2.08c0.36,0.45,0.84,0.78,1.43,0.99c0.56,0.2,1.11,0.21,1.68,0.05
				c0.83-0.26,1.27-0.79,1.41-1.68c0.06-0.59,0.03-1.22-0.11-1.83c-0.1-0.48-0.16-0.93-0.2-1.38c-0.05-0.52,0-1.05,0.13-1.58
				c0.25-1.01,0.85-1.78,1.75-2.22l0.12-0.05c0.54-0.18,1.1-0.25,1.68-0.19c0.17,0,0.41-0.01,0.64-0.04c0.48-0.1,0.83-0.38,1.06-0.9
				l0.02-0.06c0.13-0.47,0.07-0.89-0.18-1.31c-0.36-0.44-0.81-0.7-1.38-0.82c-0.06,0-0.25-0.01-0.5-0.01
				c-0.36,0-0.72-0.02-1.07-0.06c-0.52-0.06-0.92-0.21-1.23-0.47c-0.43-0.36-0.72-1.09-0.09-1.97c0.45-0.56,1.05-0.82,1.72-0.81
				c0.43,0.01,0.85,0.06,1.24,0.15l0.2,0.03c0.36,0.06,0.74,0.03,1.15-0.08c0.44-0.12,0.84-0.28,1.19-0.49
				c0.29-0.2,0.52-0.49,0.65-0.87c0.14-0.41,0.16-0.8,0.06-1.21c-0.26-0.86-0.79-1.33-1.69-1.47c-0.09,0-0.26-0.02-0.44-0.04
				c-1.01-0.14-2.05-0.24-3.1-0.29C9.18,23.78,8.99,23.78,8.81,23.78z"/>
		</g>
		<g>
			<path id="XMLID_00000006686448115030753640000002915806757064493450_" class="st0" d="M21.1,41.05c-0.06,0.25-0.12,0.5-0.19,0.73
				c-0.12,0.42-0.26,0.82-0.42,1.21c-0.17,0.39-0.41,0.72-0.73,0.99c-0.38,0.29-0.76,0.46-1.16,0.51c-0.4,0.05-0.84,0.05-1.32,0.01
				c-0.56-0.02-1.11-0.1-1.65-0.23c-0.54-0.13-0.98-0.4-1.34-0.8c-0.37-0.49-0.54-1.04-0.52-1.66c0.02-0.62,0.11-1.23,0.28-1.82
				c0.29-1.22,0.59-2.44,0.89-3.66c0.29-1.21,0.58-2.42,0.88-3.64c0.09-0.39,0.19-0.78,0.28-1.17c0.2-0.93,0.43-1.84,0.7-2.74
				s0.63-1.76,1.09-2.57c0.65-1.11,1.52-1.96,2.62-2.53c0.86-0.45,1.81-0.61,2.84-0.5c1.5,0.25,2.74,0.96,3.72,2.12
				c0.51,0.6,0.93,1.27,1.26,2s0.63,1.47,0.9,2.23c0.16,0.41,0.31,0.81,0.47,1.2c0.27,0.69,0.55,1.38,0.83,2.06l1.66,4.12
				c0.22,0.53,0.42,1.07,0.6,1.62c0.18,0.55,0.29,1.1,0.34,1.66c0.06,0.74-0.05,1.43-0.33,2.09s-0.77,1.14-1.45,1.48
				c-0.6,0.25-1.23,0.42-1.89,0.5c-0.6,0.12-1.23,0.18-1.89,0.16s-1.22-0.26-1.69-0.73c-0.27-0.36-0.45-0.78-0.55-1.23
				c-0.03-0.15-0.07-0.29-0.11-0.42c-0.09-0.31-0.19-0.64-0.28-0.97h-0.23C23.5,41.11,22.3,41.1,21.1,41.05z M24.07,37.53
				c-0.12-0.5-0.22-1.02-0.33-1.55l-0.19-0.94c-0.03-0.14-0.08-0.27-0.16-0.4c-0.07-0.13-0.18-0.21-0.31-0.23
				c-0.15,0-0.27,0.07-0.36,0.2s-0.16,0.27-0.19,0.43c-0.23,0.86-0.44,1.73-0.64,2.59C22.62,37.59,23.34,37.55,24.07,37.53z"/>
			<path class="st1" d="M17.92,45.52c-0.24,0-0.48-0.01-0.74-0.03c-0.58-0.02-1.2-0.11-1.8-0.25c-0.74-0.18-1.36-0.56-1.85-1.12
				c-0.55-0.73-0.79-1.5-0.76-2.35c0.02-0.7,0.13-1.39,0.32-2.06c0.28-1.18,0.58-2.41,0.88-3.63l1.15-4.8
				c0.2-0.92,0.44-1.86,0.71-2.79c0.29-0.97,0.68-1.91,1.17-2.78c0.74-1.29,1.76-2.27,3.03-2.93c1.04-0.54,2.18-0.74,3.41-0.61
				c1.79,0.3,3.24,1.13,4.37,2.47c0.57,0.67,1.04,1.42,1.4,2.23c0.34,0.75,0.65,1.52,0.93,2.31c0.15,0.38,0.3,0.78,0.46,1.17
				c0.27,0.68,0.54,1.37,0.82,2.05l1.66,4.13c0.22,0.54,0.43,1.1,0.62,1.67c0.21,0.62,0.34,1.27,0.38,1.91
				c0.08,0.89-0.06,1.75-0.41,2.55c-0.38,0.87-1.03,1.54-1.93,1.98c-0.73,0.31-1.46,0.5-2.2,0.59c-0.6,0.13-1.32,0.19-2.04,0.17
				c-0.92-0.02-1.71-0.36-2.37-1.02l-0.09-0.11c-0.36-0.48-0.6-1.03-0.72-1.63c-0.02-0.11-0.05-0.22-0.09-0.33
				c-0.03-0.08-0.05-0.17-0.08-0.25c-0.76,0.01-1.54,0.01-2.32-0.01c-0.13,0.46-0.28,0.89-0.46,1.31c-0.23,0.54-0.57,0.99-1.01,1.37
				c-0.55,0.43-1.11,0.67-1.69,0.73C18.46,45.51,18.2,45.52,17.92,45.52z M22.73,24.13c-0.62,0-1.21,0.14-1.76,0.43
				c-0.94,0.49-1.67,1.19-2.22,2.15c-0.41,0.73-0.75,1.53-0.99,2.35c-0.26,0.88-0.49,1.78-0.68,2.67l-1.16,4.84
				c-0.3,1.22-0.6,2.44-0.89,3.65c-0.15,0.55-0.24,1.08-0.25,1.62c-0.01,0.4,0.09,0.73,0.32,1.04c0.17,0.19,0.44,0.35,0.77,0.43
				c0.47,0.11,0.96,0.18,1.45,0.2c0.46,0.04,0.84,0.04,1.17,0c0.22-0.03,0.44-0.13,0.67-0.31c0.17-0.15,0.32-0.35,0.43-0.6
				c0.15-0.35,0.28-0.71,0.38-1.08l0.38-1.5l0.81,0.04c1.17,0.05,2.36,0.06,3.52,0.03h1.01l0.2,0.73c0.09,0.33,0.18,0.65,0.28,0.95
				c0.05,0.16,0.09,0.33,0.13,0.5c0.06,0.3,0.17,0.56,0.33,0.79c0.27,0.25,0.58,0.38,0.96,0.39c0.58,0.02,1.14-0.04,1.67-0.14
				c0.64-0.08,1.19-0.23,1.71-0.45c0.42-0.2,0.73-0.52,0.92-0.95c0.22-0.5,0.3-1.03,0.25-1.61c-0.04-0.49-0.13-0.97-0.29-1.43
				c-0.17-0.52-0.37-1.04-0.58-1.55l-1.66-4.13c-0.28-0.69-0.56-1.38-0.83-2.07c-0.16-0.4-0.31-0.8-0.47-1.21
				c-0.27-0.76-0.56-1.49-0.88-2.18c-0.29-0.64-0.66-1.23-1.11-1.77c-0.83-0.99-1.85-1.57-3.12-1.79
				C23.03,24.14,22.88,24.13,22.73,24.13z M20.63,38.73l0.3-1.31c0.2-0.88,0.42-1.75,0.65-2.63c0.04-0.24,0.17-0.51,0.34-0.76
				c0.28-0.39,0.7-0.61,1.17-0.61l0.15,0.01c0.44,0.07,0.81,0.32,1.03,0.72c0.12,0.22,0.21,0.44,0.26,0.66l0.19,0.97
				c0.1,0.52,0.21,1.03,0.32,1.52l0.27,1.18l-1.21,0.03c-0.71,0.02-1.42,0.06-2.13,0.11L20.63,38.73z"/>
		</g>
		<g>
			<path id="XMLID_00000099621729932807985510000006356652460328279998_" class="st0" d="M51.32,40.12
				c0.13,0.31,0.27,0.62,0.41,0.94c0.21,0.47,0.37,0.95,0.49,1.45c0.12,0.5,0.13,0.98,0.02,1.45c-0.19,0.6-0.55,1.05-1.09,1.34
				c-0.54,0.29-1.12,0.38-1.74,0.27c-1.05-0.23-1.95-0.8-2.7-1.7c-2.64,0.96-5.22,0.82-7.77-0.42c-2.53-1.36-4.33-3.51-5.41-6.44
				c-0.56-1.59-0.79-3.25-0.67-4.95c0.13-1.6,0.58-3.09,1.34-4.46c0.75-1.37,1.74-2.48,2.95-3.32c1.38-0.91,2.93-1.39,4.62-1.46
				c1.7-0.07,3.3,0.16,4.81,0.7c1.43,0.5,2.67,1.3,3.74,2.39c1.07,1.09,1.86,2.42,2.38,3.97c0.55,1.73,0.7,3.5,0.44,5.32
				C52.89,37,52.28,38.64,51.32,40.12z M40.91,31.86c-0.53,0.68-0.75,1.42-0.66,2.24s0.47,1.5,1.14,2.04
				c0.36,0.27,0.78,0.45,1.25,0.55c-0.12-0.66-0.06-1.24,0.19-1.75s0.79-0.89,1.61-1.12c0.62-0.17,1.25-0.15,1.89,0.05
				c0.01-0.84-0.26-1.58-0.81-2.2c-0.69-0.74-1.54-1.06-2.56-0.97C42.13,30.81,41.44,31.2,40.91,31.86z"/>
			<path class="st1" d="M49.9,46.6c-0.21,0-0.43-0.02-0.65-0.06c-1.1-0.24-2.04-0.75-2.84-1.54c-2.67,0.81-5.33,0.58-7.91-0.67
				c-2.78-1.5-4.75-3.84-5.9-6.99c-0.61-1.73-0.85-3.53-0.73-5.36c0.15-1.75,0.64-3.39,1.46-4.87c0.83-1.5,1.92-2.73,3.25-3.66
				c1.56-1.02,3.28-1.56,5.16-1.64c1.81-0.07,3.56,0.18,5.18,0.75c1.56,0.55,2.95,1.43,4.12,2.63c1.17,1.2,2.05,2.66,2.61,4.35
				c0.6,1.88,0.76,3.82,0.48,5.78c-0.25,1.77-0.82,3.41-1.69,4.89l0.2,0.46c0.23,0.51,0.41,1.06,0.55,1.61
				c0.16,0.64,0.16,1.28,0.03,1.89c-0.28,0.93-0.83,1.59-1.59,2C51.08,46.45,50.51,46.6,49.9,46.6z M47.03,42.68l0.45,0.54
				c0.61,0.74,1.31,1.18,2.15,1.37c0.36,0.06,0.72,0,1.06-0.18c0.3-0.16,0.49-0.4,0.6-0.75c0.05-0.24,0.04-0.57-0.04-0.92
				c-0.1-0.43-0.25-0.86-0.43-1.27l-0.62-1.44l0.29-0.45c0.87-1.35,1.44-2.88,1.68-4.55c0.24-1.66,0.1-3.3-0.4-4.88
				c-0.47-1.39-1.19-2.6-2.15-3.58c-0.96-0.98-2.09-1.7-3.36-2.15c-1.38-0.49-2.87-0.7-4.44-0.64c-1.51,0.06-2.89,0.5-4.12,1.3
				c-1.05,0.74-1.94,1.74-2.62,2.97c-0.68,1.24-1.09,2.61-1.22,4.06c-0.1,1.55,0.1,3.08,0.62,4.54c0.99,2.71,2.61,4.64,4.94,5.89
				c2.28,1.11,4.56,1.23,6.95,0.36L47.03,42.68z M43.9,37.95l-1.45-0.29c-0.61-0.12-1.17-0.37-1.65-0.72
				c-0.91-0.74-1.41-1.64-1.54-2.73c-0.12-1.08,0.17-2.08,0.86-2.97l0.01-0.01c0.69-0.85,1.59-1.37,2.67-1.53
				c1.38-0.13,2.55,0.32,3.44,1.28c0.73,0.83,1.09,1.8,1.08,2.89l-0.02,1.34l-1.28-0.4c-0.46-0.14-0.89-0.15-1.34-0.04
				c-0.35,0.1-0.82,0.29-0.97,0.6c-0.15,0.32-0.19,0.68-0.1,1.13L43.9,37.95z M41.69,32.48c-0.37,0.47-0.51,0.95-0.45,1.51
				c0.05,0.42,0.2,0.78,0.48,1.09c0.06-0.2,0.13-0.39,0.22-0.58c0.38-0.77,1.13-1.32,2.23-1.64c0.3-0.08,0.6-0.13,0.89-0.15
				c-0.08-0.14-0.17-0.27-0.28-0.4c-0.46-0.49-1.01-0.7-1.73-0.64C42.53,31.76,42.06,32.02,41.69,32.48z"/>
		</g>
	</g>
</g>
</svg>
