<?xml version="1.0" encoding="utf-8"?>
<!-- Generator: Adobe Illustrator 25.4.1, SVG Export Plug-In . SVG Version: 6.00 Build 0)  -->
<svg version="1.1" id="圖層_1" xmlns="http://www.w3.org/2000/svg" xmlns:xlink="http://www.w3.org/1999/xlink" x="0px" y="0px"
	 viewBox="0 0 175.98 66.61" style="enable-background:new 0 0 175.98 66.61;" xml:space="preserve">
<style type="text/css">
	.st0{fill:#FFFFFF;}
	.st1{fill:#231815;}
</style>
<g id="XMLID_26772_">
	<g>
		<g>
			<path id="XMLID_00000112615757254850203520000018336938310821694648_" class="st0" d="M17.88,24.35c0.7,0.65,1.08,1.47,1.14,2.47
				s-0.23,1.85-0.89,2.55c-0.4,0.38-0.83,0.6-1.31,0.66c-0.48,0.07-0.97,0.1-1.48,0.1c-0.34,0-0.63,0.1-0.85,0.31
				c-0.22,0.21-0.39,0.63-0.49,1.27c-0.1,0.64-0.16,1.61-0.16,2.91c0,1.07-0.02,2.14-0.05,3.2c-0.02,0.53-0.04,1.07-0.05,1.61
				c0,0.81-0.11,1.6-0.33,2.36c-0.22,0.76-0.62,1.42-1.22,1.97c-0.62,0.52-1.34,0.8-2.16,0.84c-0.81,0.04-1.55-0.19-2.22-0.66
				C7.29,43.52,6.88,43,6.6,42.39s-0.46-1.25-0.55-1.91c-0.09-1.05-0.08-2.11,0.05-3.19c0.02-0.26,0.04-0.52,0.05-0.78
				c0.1-1.58,0.09-3.17-0.03-4.75c-0.05-0.54-0.24-0.95-0.57-1.22c-0.33-0.27-0.75-0.45-1.27-0.53c-0.9-0.15-1.65-0.47-2.27-0.97
				c-0.62-0.5-0.95-1.22-1.02-2.16c-0.01-0.96,0.29-1.77,0.91-2.42c0.61-0.66,1.41-1.06,2.38-1.22c1.46-0.19,2.94-0.25,4.45-0.2
				c0.45,0.01,0.88,0.02,1.31,0.02c2.03-0.05,4.05,0.1,6.05,0.45C16.82,23.66,17.42,23.94,17.88,24.35z"/>
			<path class="st1" d="M9.87,45.61c-0.96,0-1.84-0.29-2.63-0.85c-0.69-0.55-1.2-1.2-1.54-1.95c-0.32-0.7-0.54-1.44-0.63-2.21
				c-0.1-1.15-0.09-2.29,0.05-3.43c0.02-0.21,0.03-0.46,0.04-0.71c0.1-1.56,0.09-3.11-0.03-4.63c-0.02-0.25-0.1-0.43-0.21-0.53
				c-0.19-0.15-0.46-0.26-0.8-0.32c-1.07-0.17-1.99-0.57-2.74-1.18c-0.83-0.68-1.3-1.64-1.38-2.86c-0.02-1.27,0.38-2.32,1.17-3.17
				c0.76-0.82,1.75-1.33,2.94-1.52c1.53-0.2,3.09-0.27,4.65-0.22c0.43,0.01,0.86,0.02,1.28,0.02c2.06-0.06,4.17,0.1,6.22,0.47
				c0.92,0.19,1.68,0.55,2.28,1.08l0.02,0.01c0.89,0.82,1.38,1.88,1.46,3.14c0.08,1.28-0.31,2.39-1.16,3.29
				c-0.59,0.56-1.21,0.87-1.9,0.97c-0.52,0.07-1.07,0.11-1.62,0.11c-0.12,0-0.16,0.03-0.17,0.05c0,0,0,0,0,0c0,0-0.1,0.16-0.19,0.7
				c-0.1,0.58-0.14,1.51-0.14,2.76c0,1.08-0.02,2.16-0.05,3.23c-0.02,0.54-0.04,1.06-0.05,1.6c0,0.88-0.12,1.77-0.37,2.62
				c-0.27,0.93-0.77,1.75-1.5,2.42c-0.83,0.7-1.76,1.05-2.79,1.1C10.01,45.61,9.94,45.61,9.87,45.61z M7.76,24.02
				c-1.14,0-2.26,0.07-3.36,0.21c-0.72,0.12-1.31,0.42-1.78,0.91c-0.44,0.47-0.65,1.03-0.64,1.73c0.04,0.6,0.25,1.08,0.65,1.4
				c0.48,0.39,1.07,0.64,1.8,0.76c0.69,0.11,1.28,0.36,1.75,0.75c0.54,0.44,0.85,1.08,0.93,1.89c0.13,1.64,0.14,3.28,0.03,4.91
				c-0.01,0.25-0.03,0.52-0.05,0.79c-0.12,1.04-0.13,2.04-0.05,3.02c0.07,0.53,0.22,1.07,0.46,1.58c0.22,0.47,0.53,0.86,0.94,1.2
				c0.44,0.31,0.95,0.48,1.55,0.45c0.59-0.03,1.11-0.23,1.56-0.61c0.42-0.39,0.73-0.89,0.9-1.48c0.19-0.67,0.29-1.37,0.29-2.08
				c0.01-0.57,0.03-1.11,0.05-1.65c0.03-1.04,0.05-2.1,0.05-3.16c0-1.37,0.06-2.38,0.17-3.07c0.14-0.88,0.4-1.47,0.8-1.84
				c0.41-0.38,0.93-0.58,1.53-0.58c0.46,0,0.92-0.03,1.34-0.09c0.27-0.04,0.52-0.17,0.77-0.4c0.43-0.46,0.63-1.03,0.58-1.76
				c-0.05-0.74-0.31-1.32-0.82-1.79c-0.33-0.29-0.78-0.5-1.32-0.61c-1.9-0.34-3.87-0.48-5.83-0.43c-0.43,0-0.91,0-1.36-0.02
				C8.39,24.03,8.07,24.02,7.76,24.02z"/>
		</g>
		<g>
			<path id="XMLID_00000153672977647103539910000010829973986187388844_" class="st0" d="M34.81,39.67c0.06,0.99-0.03,1.89-0.27,2.7
				c-0.21,0.66-0.56,1.15-1.05,1.49c-0.49,0.34-1.07,0.57-1.73,0.7c-2.1,0.42-4.11,0.34-6.02-0.23c-1.91-0.57-3.55-1.71-4.93-3.41
				c-1.51-2.01-2.28-4.29-2.31-6.83c-0.03-2.54,0.61-4.87,1.94-6.98c1.26-1.85,2.98-3.13,5.16-3.84c2.18-0.7,4.34-0.67,6.48,0.09
				c0.51,0.19,0.91,0.5,1.2,0.94c0.18,0.3,0.28,0.63,0.3,0.98c0.03,0.35,0.02,0.71-0.02,1.08c-0.03,0.62-0.2,1.2-0.5,1.73
				c-0.48,0.66-1.13,0.97-1.95,0.94c-0.37-0.01-0.72-0.04-1.08-0.09c-0.03,0-0.07,0-0.11-0.02c-0.12-0.01-0.26-0.03-0.39-0.06
				c-0.33-0.08-0.65-0.1-0.94-0.06c-0.14,0.02-0.25,0.08-0.35,0.16c-0.1,0.09-0.16,0.2-0.18,0.32c-0.01,0.16,0.03,0.29,0.13,0.4
				c0.1,0.11,0.22,0.2,0.35,0.26c0.45,0.17,0.92,0.23,1.41,0.19c0.33-0.02,0.66,0,0.98,0.05c0.88,0.22,1.48,0.76,1.78,1.62
				c0.3,0.86,0.25,1.69-0.14,2.48c-0.37,0.6-0.89,0.98-1.58,1.14c-0.37,0.06-0.74,0.08-1.12,0.05c-0.46-0.04-0.91,0-1.34,0.12
				c-0.16,0.05-0.3,0.13-0.43,0.24c-0.13,0.11-0.21,0.24-0.23,0.4c-0.01,0.15,0.02,0.28,0.1,0.41s0.18,0.22,0.3,0.28
				c0.26,0.11,0.54,0.15,0.83,0.11c0.43-0.05,0.84-0.15,1.23-0.3c0.46-0.17,0.93-0.27,1.41-0.31c0.83-0.02,1.54,0.27,2.13,0.86
				C34.43,37.91,34.74,38.71,34.81,39.67z"/>
			<path class="st1" d="M29.16,45.81c-1.27,0-2.51-0.18-3.71-0.54c-2.1-0.63-3.92-1.88-5.42-3.73c-1.66-2.2-2.5-4.7-2.53-7.44
				c-0.03-2.72,0.67-5.26,2.09-7.52c1.4-2.06,3.31-3.49,5.7-4.26c2.38-0.77,4.78-0.74,7.12,0.1c0.72,0.26,1.29,0.71,1.7,1.32
				c0.28,0.48,0.43,0.96,0.47,1.46c0.03,0.42,0.02,0.84-0.03,1.26c-0.03,0.72-0.25,1.45-0.62,2.11l-0.06,0.1
				c-0.38,0.52-0.86,0.9-1.41,1.12c0.55,0.4,0.96,0.96,1.2,1.66c0.39,1.12,0.33,2.21-0.19,3.25c-0.19,0.32-0.41,0.59-0.65,0.83
				c0.67,0.17,1.26,0.51,1.77,1.03c0.75,0.86,1.14,1.86,1.22,3.04v0c0.07,1.1-0.03,2.12-0.3,3.05c-0.28,0.89-0.76,1.56-1.44,2.03
				c-0.61,0.42-1.32,0.71-2.12,0.86C31,45.72,30.07,45.81,29.16,45.81z M28.73,23.75c-0.93,0-1.87,0.15-2.83,0.46
				c-1.98,0.64-3.5,1.77-4.65,3.45c-1.19,1.91-1.79,4.08-1.77,6.41c0.03,2.35,0.72,4.39,2.11,6.24c1.23,1.52,2.69,2.53,4.42,3.05
				c1.74,0.52,3.61,0.6,5.54,0.21c0.53-0.1,0.99-0.28,1.36-0.54c0.3-0.21,0.52-0.53,0.66-0.97c0.2-0.68,0.28-1.47,0.22-2.34
				c-0.05-0.74-0.28-1.34-0.69-1.82c-0.35-0.35-0.76-0.54-1.35-0.52c-0.33,0.03-0.72,0.12-1.09,0.25c-0.47,0.17-0.96,0.29-1.46,0.35
				c-0.46,0.06-0.92,0-1.35-0.19c-0.33-0.17-0.57-0.38-0.75-0.67c-0.19-0.3-0.28-0.65-0.25-1.01c0.06-0.46,0.26-0.82,0.58-1.09
				c0.22-0.19,0.48-0.33,0.76-0.42c0.59-0.17,1.17-0.22,1.75-0.17c0.29,0.02,0.59,0.01,0.87-0.04c0.37-0.09,0.67-0.3,0.89-0.67
				c0.24-0.48,0.27-1.02,0.05-1.63c-0.19-0.54-0.52-0.84-1.08-0.98c-0.17-0.02-0.43-0.04-0.68-0.02c-0.61,0.05-1.23-0.03-1.82-0.25
				c-0.33-0.15-0.55-0.31-0.74-0.52c-0.28-0.3-0.42-0.71-0.39-1.13c0.07-0.44,0.24-0.75,0.51-0.99c0.24-0.21,0.54-0.35,0.86-0.4
				c0.43-0.06,0.87-0.03,1.33,0.08c0.07,0.02,0.15,0.03,0.23,0.04l0.17,0.02c0.32,0.05,0.63,0.07,0.96,0.08
				c0.47,0.02,0.81-0.13,1.09-0.49c0.21-0.38,0.32-0.79,0.34-1.24c0.04-0.36,0.05-0.67,0.03-0.96c-0.02-0.2-0.07-0.38-0.17-0.55
				c-0.14-0.21-0.37-0.39-0.69-0.51C30.73,23.93,29.73,23.75,28.73,23.75z M28.74,36.58C28.74,36.58,28.74,36.58,28.74,36.58
				S28.74,36.58,28.74,36.58z"/>
		</g>
		<g>
			<path id="XMLID_00000144321692294161598570000002867186290365128110_" class="st0" d="M42.79,41.17
				c-0.06,0.25-0.12,0.5-0.19,0.73c-0.12,0.42-0.26,0.82-0.42,1.21c-0.17,0.39-0.41,0.72-0.73,0.99c-0.38,0.29-0.76,0.46-1.16,0.51
				c-0.4,0.05-0.84,0.05-1.32,0.01c-0.56-0.02-1.11-0.1-1.65-0.23c-0.54-0.13-0.98-0.4-1.34-0.8c-0.37-0.49-0.54-1.04-0.52-1.66
				c0.02-0.62,0.11-1.23,0.28-1.82c0.29-1.22,0.59-2.44,0.89-3.66c0.29-1.21,0.58-2.42,0.88-3.64c0.09-0.39,0.19-0.78,0.28-1.17
				c0.2-0.93,0.43-1.84,0.7-2.74c0.27-0.9,0.63-1.76,1.09-2.57c0.65-1.11,1.52-1.96,2.62-2.53c0.86-0.45,1.81-0.61,2.84-0.5
				c1.5,0.25,2.74,0.96,3.72,2.12c0.51,0.6,0.93,1.27,1.26,2c0.33,0.73,0.63,1.47,0.9,2.23c0.16,0.41,0.31,0.81,0.47,1.2
				c0.27,0.69,0.55,1.38,0.83,2.06l1.66,4.12c0.22,0.53,0.42,1.07,0.6,1.62c0.18,0.55,0.29,1.1,0.34,1.66
				c0.06,0.74-0.05,1.44-0.33,2.09c-0.28,0.65-0.77,1.14-1.45,1.48c-0.6,0.25-1.23,0.42-1.89,0.5c-0.6,0.12-1.23,0.18-1.89,0.16
				s-1.22-0.26-1.69-0.73c-0.27-0.36-0.45-0.78-0.55-1.23c-0.03-0.15-0.07-0.29-0.11-0.42c-0.09-0.31-0.19-0.64-0.28-0.97h-0.23
				C45.19,41.23,43.99,41.22,42.79,41.17z M45.76,37.65c-0.12-0.5-0.22-1.02-0.33-1.55l-0.19-0.94c-0.03-0.14-0.08-0.27-0.16-0.4
				c-0.07-0.13-0.18-0.21-0.31-0.23c-0.15,0-0.27,0.07-0.36,0.2c-0.09,0.13-0.16,0.27-0.19,0.43c-0.23,0.86-0.44,1.73-0.64,2.59
				C44.31,37.71,45.03,37.67,45.76,37.65z"/>
			<path class="st1" d="M39.61,45.65c-0.24,0-0.48-0.01-0.74-0.03c-0.58-0.02-1.2-0.11-1.8-0.25c-0.74-0.18-1.36-0.56-1.85-1.12
				c-0.55-0.73-0.79-1.5-0.76-2.35c0.02-0.7,0.13-1.39,0.32-2.06c0.28-1.18,0.58-2.41,0.88-3.63l1.15-4.8
				c0.2-0.92,0.44-1.86,0.71-2.79c0.29-0.97,0.68-1.91,1.17-2.78c0.74-1.29,1.76-2.27,3.03-2.93c1.04-0.54,2.19-0.74,3.41-0.61
				c1.79,0.3,3.24,1.13,4.37,2.47c0.57,0.67,1.04,1.42,1.4,2.23c0.33,0.74,0.65,1.52,0.93,2.31c0.15,0.38,0.3,0.78,0.46,1.17
				c0.27,0.68,0.54,1.37,0.82,2.05l1.66,4.13c0.22,0.54,0.43,1.1,0.62,1.67c0.21,0.62,0.34,1.27,0.38,1.91
				c0.08,0.89-0.06,1.75-0.41,2.55c-0.38,0.87-1.03,1.54-1.93,1.98c-0.73,0.31-1.46,0.5-2.2,0.59c-0.6,0.13-1.32,0.19-2.04,0.17
				c-0.92-0.02-1.71-0.36-2.37-1.02l-0.09-0.11c-0.36-0.48-0.6-1.03-0.72-1.63c-0.02-0.11-0.05-0.22-0.09-0.33
				c-0.03-0.08-0.05-0.17-0.08-0.25c-0.76,0.01-1.54,0.01-2.32-0.01c-0.13,0.46-0.28,0.89-0.46,1.31c-0.23,0.54-0.57,0.99-1.01,1.37
				c-0.55,0.43-1.11,0.67-1.69,0.73C40.15,45.63,39.89,45.65,39.61,45.65z M44.42,24.25c-0.62,0-1.21,0.14-1.76,0.43
				c-0.94,0.49-1.67,1.19-2.22,2.15c-0.41,0.73-0.75,1.53-0.99,2.35c-0.26,0.88-0.49,1.78-0.68,2.67l-1.16,4.84
				c-0.3,1.22-0.6,2.44-0.89,3.65c-0.15,0.55-0.24,1.08-0.25,1.62c-0.01,0.4,0.09,0.73,0.32,1.04c0.17,0.19,0.44,0.35,0.77,0.43
				c0.47,0.11,0.96,0.18,1.45,0.2c0.46,0.04,0.84,0.04,1.17,0c0.22-0.03,0.44-0.13,0.67-0.31c0.17-0.15,0.32-0.35,0.43-0.6
				c0.15-0.35,0.28-0.71,0.38-1.08l0.38-1.5l0.81,0.04c1.17,0.05,2.36,0.06,3.52,0.03h1.01l0.2,0.73c0.09,0.33,0.18,0.65,0.28,0.95
				c0.05,0.16,0.09,0.33,0.13,0.5c0.06,0.3,0.17,0.56,0.33,0.79c0.27,0.25,0.58,0.38,0.96,0.39c0.58,0.02,1.14-0.03,1.67-0.14
				c0.64-0.08,1.19-0.23,1.71-0.45c0.42-0.2,0.73-0.52,0.92-0.95c0.22-0.5,0.3-1.03,0.25-1.61c-0.04-0.49-0.13-0.97-0.29-1.43
				c-0.17-0.52-0.37-1.04-0.58-1.55l-1.66-4.13c-0.28-0.69-0.56-1.38-0.83-2.07c-0.16-0.4-0.31-0.8-0.47-1.21
				c-0.27-0.76-0.56-1.49-0.88-2.18c-0.29-0.64-0.66-1.23-1.11-1.77c-0.83-0.99-1.85-1.57-3.12-1.79
				C44.72,24.26,44.57,24.25,44.42,24.25z M42.32,38.85l0.3-1.31c0.2-0.88,0.42-1.75,0.65-2.63c0.04-0.24,0.17-0.51,0.34-0.76
				c0.28-0.39,0.7-0.61,1.17-0.61l0.15,0.01c0.44,0.07,0.81,0.32,1.03,0.72c0.12,0.22,0.21,0.44,0.26,0.66l0.19,0.97
				c0.1,0.52,0.21,1.03,0.32,1.52L47,38.61l-1.21,0.03c-0.71,0.02-1.42,0.06-2.13,0.11L42.32,38.85z"/>
		</g>
		<g>
			<path id="XMLID_00000075873920827116765220000015684070417359047334_" class="st0" d="M67.45,44.04
				c-0.73-0.06-1.34-0.36-1.84-0.9c-0.5-0.54-0.82-1.14-0.97-1.8l-0.03-0.16c-0.03-0.21-0.1-0.41-0.2-0.59
				c-0.14-0.2-0.3-0.29-0.51-0.27s-0.39,0.1-0.55,0.26c-0.15,0.19-0.26,0.39-0.34,0.61c-0.12,0.27-0.21,0.54-0.3,0.8
				c-0.16,0.49-0.36,0.94-0.6,1.36c-0.25,0.42-0.63,0.75-1.15,1c-0.66,0.31-1.38,0.49-2.17,0.52c-0.79,0.04-1.48-0.17-2.06-0.63
				c-0.43-0.41-0.71-0.89-0.84-1.46c-0.13-0.57-0.17-1.13-0.12-1.68c0.11-1.21,0.32-2.41,0.62-3.62s0.62-2.38,0.98-3.54
				c0.2-0.65,0.39-1.3,0.58-1.97c0.36-1.3,0.76-2.6,1.19-3.91c0.21-0.7,0.49-1.42,0.84-2.16c0.35-0.74,0.84-1.32,1.47-1.75
				c0.84-0.52,1.73-0.63,2.67-0.33c0.93,0.36,1.55,1.01,1.88,1.92c0.03,0.11,0.09,0.23,0.17,0.34c0.08,0.11,0.18,0.15,0.3,0.12
				c0.04-0.01,0.08-0.03,0.1-0.07c0.03-0.04,0.05-0.08,0.09-0.12c0.12-0.2,0.25-0.42,0.38-0.67c0.3-0.64,0.67-1.16,1.09-1.56
				c0.28-0.21,0.62-0.36,1.03-0.45s0.78-0.12,1.12-0.09c0.91,0.09,1.69,0.45,2.36,1.08c0.38,0.34,0.65,0.71,0.82,1.1
				s0.32,0.82,0.45,1.29c0.57,2.11,1.18,4.3,1.81,6.55c0.65,2.23,1.25,4.4,1.83,6.52c0.2,0.66,0.32,1.36,0.36,2.1
				c0.04,0.75-0.17,1.39-0.64,1.95c-0.44,0.42-0.96,0.66-1.58,0.72c-1.08,0.14-2.05-0.12-2.89-0.78c-0.39-0.32-0.67-0.72-0.84-1.2
				c-0.03-0.11-0.07-0.23-0.11-0.34c-0.04-0.16-0.1-0.32-0.17-0.48c-0.04-0.1-0.08-0.2-0.12-0.28c-0.09-0.23-0.19-0.45-0.3-0.67
				c-0.04-0.11-0.1-0.22-0.16-0.31c-0.07-0.09-0.16-0.16-0.27-0.19c-0.09-0.01-0.18,0.01-0.26,0.05s-0.14,0.11-0.2,0.18
				c-0.08,0.14-0.14,0.28-0.17,0.44v0.05c-0.22,0.81-0.57,1.57-1.06,2.27c-0.23,0.3-0.52,0.53-0.86,0.69
				C67.99,44.03,67.73,44.06,67.45,44.04z"/>
			<path class="st1" d="M58.6,45.86c-0.95,0-1.79-0.29-2.5-0.85c-0.64-0.6-1.02-1.26-1.19-2.02c-0.15-0.67-0.2-1.34-0.14-2
				c0.12-1.25,0.33-2.51,0.64-3.76c0.3-1.22,0.63-2.43,0.99-3.59c0.19-0.64,0.39-1.29,0.57-1.95c0.37-1.32,0.77-2.64,1.2-3.95
				c0.21-0.72,0.52-1.49,0.89-2.28c0.43-0.89,1.04-1.62,1.8-2.14c1.14-0.7,2.32-0.85,3.54-0.45c0.86,0.34,1.52,0.84,1.98,1.5
				c0.29-0.51,0.64-0.95,1.03-1.32l0.09-0.08c0.39-0.29,0.86-0.5,1.4-0.62c0.51-0.12,0.99-0.16,1.44-0.12
				c1.14,0.12,2.12,0.57,2.95,1.34c0.47,0.43,0.82,0.91,1.05,1.43c0.19,0.44,0.36,0.92,0.5,1.43c0.57,2.11,1.17,4.29,1.81,6.53
				c0.65,2.23,1.26,4.41,1.83,6.53c0.21,0.7,0.35,1.49,0.39,2.31c0.06,1.01-0.24,1.9-0.88,2.65l-0.07,0.08
				c-0.6,0.57-1.33,0.9-2.16,0.99c-1.33,0.16-2.55-0.17-3.6-0.99c-0.55-0.46-0.93-1-1.17-1.64c-0.05-0.17-0.08-0.26-0.11-0.35
				c-0.04-0.12-0.07-0.22-0.1-0.3c-0.23,0.55-0.52,1.08-0.87,1.58c-0.35,0.46-0.77,0.8-1.26,1.02c-0.45,0.17-0.86,0.23-1.28,0.2
				l-0.01,0c-0.98-0.08-1.82-0.49-2.49-1.21c-0.53-0.56-0.9-1.2-1.11-1.88c-0.04,0.12-0.08,0.23-0.12,0.34
				c-0.18,0.56-0.41,1.08-0.69,1.56c-0.35,0.59-0.88,1.06-1.58,1.39c-0.77,0.37-1.63,0.58-2.56,0.62
				C58.75,45.86,58.67,45.86,58.6,45.86z M63.1,24.65c-0.38,0-0.76,0.11-1.15,0.35c-0.44,0.3-0.81,0.75-1.09,1.33
				c-0.33,0.69-0.6,1.37-0.79,2.01c-0.43,1.3-0.82,2.6-1.18,3.89c-0.19,0.68-0.38,1.34-0.58,1.99c-0.35,1.13-0.67,2.3-0.96,3.49
				c-0.28,1.15-0.48,2.32-0.59,3.47c-0.04,0.44-0.01,0.9,0.1,1.36c0.09,0.38,0.27,0.69,0.55,0.96c0.32,0.25,0.77,0.38,1.33,0.36
				c0.66-0.03,1.26-0.17,1.79-0.43c0.34-0.16,0.57-0.36,0.72-0.61c0.21-0.35,0.38-0.74,0.51-1.16c0.09-0.29,0.2-0.58,0.33-0.88
				c0.1-0.28,0.27-0.57,0.48-0.83l0.1-0.11c0.33-0.31,0.73-0.49,1.16-0.53c0.55-0.05,1.07,0.21,1.41,0.7
				c0.21,0.37,0.32,0.69,0.37,1.01l0.02,0.11c0.1,0.48,0.34,0.91,0.72,1.32c0.33,0.36,0.71,0.54,1.19,0.58
				c0.14,0.01,0.26-0.01,0.37-0.05c0.13-0.06,0.29-0.19,0.42-0.36c0.38-0.54,0.68-1.17,0.87-1.83l0.01-0.07
				c0.05-0.27,0.16-0.53,0.3-0.77c0.17-0.24,0.33-0.39,0.53-0.51c0.26-0.16,0.57-0.23,0.88-0.19l0.15,0.03
				c0.33,0.09,0.61,0.29,0.81,0.56c0.12,0.17,0.22,0.36,0.29,0.55c0.08,0.15,0.18,0.39,0.28,0.64c0.02,0.04,0.08,0.16,0.13,0.29
				c0.08,0.19,0.16,0.4,0.21,0.6c0.03,0.06,0.07,0.2,0.11,0.34c0.09,0.23,0.27,0.49,0.52,0.7c0.6,0.47,1.31,0.66,2.13,0.56
				c0.4-0.04,0.71-0.18,0.98-0.42c0.28-0.35,0.4-0.73,0.37-1.21c-0.04-0.66-0.14-1.29-0.32-1.87c-0.58-2.13-1.19-4.3-1.83-6.53
				c-0.64-2.26-1.24-4.45-1.82-6.56c-0.11-0.42-0.25-0.81-0.4-1.15c-0.12-0.26-0.31-0.52-0.58-0.77c-0.52-0.48-1.1-0.75-1.79-0.82
				c-0.22-0.02-0.5,0-0.8,0.07c-0.25,0.06-0.45,0.14-0.62,0.25c-0.32,0.31-0.6,0.72-0.83,1.22c-0.15,0.3-0.29,0.55-0.43,0.78
				l-0.12,0.17c-0.16,0.23-0.4,0.39-0.67,0.45c-0.49,0.13-1-0.05-1.33-0.48c-0.16-0.21-0.27-0.44-0.34-0.68
				c-0.21-0.58-0.62-1-1.28-1.26C63.52,24.68,63.31,24.65,63.1,24.65z M70.35,40.97l-0.09,0.06c0.03,0.04,0.07,0.08,0.11,0.11
				L70.51,41L70.35,40.97z M70.4,40.93l0.22-0.04l0.04-0.15L70.4,40.93z M70.74,40.68l-0.01,0.1l0.33-0.33L70.74,40.68z
				 M65.75,25.54C65.75,25.54,65.74,25.54,65.75,25.54L65.75,25.54z"/>
		</g>
		<g>
			<path id="XMLID_00000093148015030462348000000012754884140968439999_" class="st0" d="M102.52,38.54
				c0.36,0.51,0.63,1.06,0.81,1.65c0.18,0.59,0.23,1.19,0.16,1.8c-0.09,0.62-0.34,1.18-0.73,1.66c-0.4,0.48-0.9,0.8-1.5,0.96
				c-1.02,0.17-1.94-0.09-2.75-0.78c-0.7-0.62-1.25-1.36-1.65-2.22c-0.4-0.85-0.74-1.72-1.02-2.59c-0.12-0.38-0.28-0.75-0.45-1.12
				c-0.18-0.38-0.41-0.7-0.7-0.97c-0.24-0.2-0.54-0.32-0.9-0.38c-0.36-0.05-0.66,0.04-0.9,0.28c-0.12,0.14-0.18,0.29-0.2,0.48
				c-0.02,0.18,0,0.36,0.04,0.54c0.08,0.49,0.13,0.98,0.14,1.47c0.02,0.24,0.05,0.47,0.08,0.7c0.06,0.34,0.08,0.69,0.06,1.05
				c-0.05,0.75-0.28,1.47-0.67,2.16c-0.4,0.69-1,1.11-1.8,1.26c-0.94,0.09-1.8-0.1-2.58-0.58s-1.36-1.15-1.73-2
				c-0.22-0.5-0.37-1-0.45-1.52c-0.08-0.51-0.13-1.03-0.16-1.55c-0.02-0.34-0.05-0.69-0.09-1.03c-0.03-0.31-0.07-0.62-0.11-0.92
				c-0.14-1.01-0.22-2.03-0.27-3.06c-0.07-1.53,0.04-3.03,0.33-4.49c0.29-1.46,0.98-2.77,2.06-3.93c0.93-0.92,1.97-1.56,3.14-1.92
				c1.17-0.36,2.38-0.58,3.64-0.66c1.75-0.15,3.38,0.09,4.88,0.72s2.61,1.81,3.33,3.55c0.36,0.97,0.48,1.88,0.36,2.73
				c-0.12,0.85-0.44,1.73-0.95,2.62c-0.3,0.54-0.68,1.03-1.14,1.45c-0.12,0.1-0.26,0.2-0.39,0.3c-0.17,0.11-0.32,0.24-0.46,0.38
				c-0.14,0.14-0.24,0.3-0.3,0.5c-0.08,0.3-0.03,0.56,0.16,0.78c0.19,0.22,0.42,0.41,0.68,0.58c0.11,0.09,0.22,0.18,0.33,0.27
				C101.46,37.25,102.03,37.85,102.52,38.54z M92.85,29.5c-0.15,0.4-0.19,0.82-0.14,1.27c0.01,0.1,0.03,0.21,0.05,0.31
				c0.02,0.1,0.06,0.19,0.12,0.27c0.08,0.08,0.18,0.14,0.29,0.16c0.11,0.03,0.22,0.03,0.34,0.02c0.25,0.01,0.49-0.03,0.73-0.11
				c0.44-0.2,0.7-0.51,0.79-0.93c0.09-0.42-0.03-0.8-0.35-1.15c-0.29-0.29-0.62-0.44-0.98-0.44C93.33,28.9,93.05,29.1,92.85,29.5z"
				/>
			<path class="st1" d="M100.67,45.66c-1.05,0-1.98-0.36-2.8-1.06c-0.82-0.73-1.45-1.58-1.91-2.56c-0.42-0.89-0.78-1.8-1.07-2.71
				c-0.11-0.32-0.25-0.67-0.41-1.01c-0.12-0.26-0.28-0.48-0.48-0.66c-0.05-0.04-0.17-0.08-0.32-0.11c0,0.03,0.01,0.05,0.01,0.08
				c0.1,0.6,0.16,1.14,0.17,1.68c0.02,0.16,0.04,0.38,0.07,0.59C94,40.27,94.03,40.7,94,41.13c-0.06,0.91-0.33,1.78-0.8,2.6
				c-0.54,0.94-1.4,1.55-2.48,1.74c-1.23,0.13-2.31-0.12-3.28-0.71c-0.96-0.59-1.67-1.41-2.13-2.45c-0.25-0.58-0.43-1.17-0.52-1.77
				c-0.08-0.54-0.14-1.09-0.17-1.64c-0.02-0.32-0.05-0.65-0.09-0.97c-0.03-0.32-0.07-0.62-0.11-0.91c-0.14-1.04-0.23-2.1-0.27-3.16
				c-0.08-1.6,0.04-3.19,0.35-4.73c0.33-1.64,1.1-3.13,2.31-4.42c1.06-1.05,2.25-1.78,3.57-2.19c1.24-0.39,2.54-0.62,3.88-0.7
				c1.88-0.15,3.67,0.11,5.32,0.79c1.75,0.73,3.04,2.1,3.87,4.09c0.43,1.15,0.57,2.24,0.42,3.26c-0.14,0.97-0.5,1.97-1.07,2.97
				c-0.35,0.62-0.8,1.19-1.33,1.69c-0.19,0.16-0.34,0.28-0.5,0.39c-0.12,0.09-0.24,0.18-0.34,0.27c0.11,0.11,0.24,0.21,0.38,0.31
				l0.41,0.32c0.73,0.59,1.37,1.27,1.91,2.03c0.42,0.6,0.75,1.25,0.96,1.94c0.21,0.72,0.28,1.46,0.19,2.21
				c-0.12,0.83-0.44,1.55-0.95,2.18c-0.53,0.65-1.21,1.08-2.02,1.29C101.22,45.63,100.94,45.66,100.67,45.66z M93.61,35.55
				c0.1,0,0.21,0.01,0.32,0.02c0.54,0.08,1.01,0.28,1.39,0.59c0.43,0.39,0.74,0.82,0.97,1.31c0.19,0.41,0.36,0.83,0.5,1.24
				c0.27,0.84,0.6,1.67,0.98,2.49c0.34,0.73,0.82,1.37,1.41,1.9c0.57,0.48,1.19,0.66,1.93,0.54c0.31-0.08,0.63-0.29,0.89-0.61
				c0.28-0.35,0.45-0.73,0.52-1.18c0.05-0.45,0.01-0.91-0.12-1.37c-0.14-0.48-0.37-0.94-0.67-1.36l0,0
				c-0.44-0.61-0.95-1.16-1.53-1.63l-0.29-0.23c-0.32-0.21-0.6-0.45-0.84-0.73c-0.42-0.47-0.55-1.08-0.38-1.71
				c0.12-0.39,0.31-0.7,0.57-0.95c0.18-0.17,0.38-0.33,0.59-0.48c0.11-0.07,0.21-0.15,0.32-0.24c0.34-0.32,0.66-0.73,0.91-1.17
				c0.45-0.79,0.73-1.56,0.84-2.28c0.1-0.68,0-1.43-0.31-2.24c-0.61-1.47-1.52-2.45-2.78-2.98c-1.34-0.56-2.83-0.78-4.41-0.65
				c-1.2,0.07-2.34,0.28-3.43,0.61c-1.01,0.32-1.93,0.88-2.74,1.68c-0.94,1-1.53,2.13-1.79,3.42c-0.27,1.38-0.38,2.81-0.31,4.25
				c0.04,1,0.13,2,0.26,2.98c0.04,0.31,0.08,0.63,0.11,0.96c0.04,0.34,0.07,0.71,0.1,1.07c0.03,0.49,0.08,0.98,0.15,1.46
				c0.06,0.42,0.19,0.85,0.37,1.27c0.29,0.67,0.73,1.18,1.34,1.55c0.6,0.37,1.23,0.5,1.96,0.44c0.44-0.08,0.78-0.32,1.03-0.76
				c0.32-0.56,0.5-1.13,0.54-1.74c0.02-0.26,0-0.54-0.05-0.8c-0.04-0.29-0.07-0.54-0.09-0.8c-0.01-0.5-0.06-0.95-0.13-1.39
				c-0.05-0.21-0.07-0.5-0.05-0.79c0.03-0.39,0.18-0.74,0.43-1.04C92.56,35.76,93.06,35.55,93.61,35.55z M93.41,32.53
				c-0.16,0-0.32-0.02-0.47-0.06c-0.28-0.07-0.55-0.22-0.76-0.43c-0.22-0.26-0.34-0.5-0.4-0.78c-0.03-0.13-0.05-0.27-0.06-0.41
				c-0.07-0.58,0-1.16,0.2-1.7l0.04-0.1c0.5-1,1.3-1.14,1.73-1.14c0.63,0,1.21,0.25,1.69,0.73c0.57,0.61,0.78,1.31,0.62,2.06
				c-0.16,0.74-0.62,1.3-1.35,1.63c-0.42,0.15-0.77,0.21-1.12,0.2C93.49,32.52,93.45,32.53,93.41,32.53z M93.73,30.87
				C93.73,30.87,93.73,30.87,93.73,30.87C93.73,30.87,93.73,30.87,93.73,30.87z M93.77,29.9c-0.06,0.2-0.09,0.4-0.08,0.63
				c0.08-0.01,0.15-0.02,0.23-0.05c0.11-0.06,0.13-0.13,0.14-0.19c0.01-0.06,0.03-0.12-0.1-0.26C93.88,29.94,93.81,29.91,93.77,29.9
				z"/>
		</g>
		<g>
			<path id="XMLID_00000003106649724459706400000015036552868737858984_" class="st0" d="M119.71,39.67
				c0.06,0.99-0.03,1.89-0.27,2.7c-0.21,0.66-0.56,1.15-1.05,1.49c-0.49,0.34-1.07,0.57-1.73,0.7c-2.1,0.42-4.11,0.34-6.02-0.23
				c-1.91-0.57-3.55-1.71-4.93-3.41c-1.51-2.01-2.28-4.29-2.31-6.83c-0.03-2.54,0.61-4.87,1.94-6.98c1.26-1.85,2.98-3.13,5.16-3.84
				c2.18-0.7,4.34-0.67,6.48,0.09c0.51,0.19,0.91,0.5,1.2,0.94c0.18,0.3,0.28,0.63,0.3,0.98c0.03,0.35,0.02,0.71-0.02,1.08
				c-0.03,0.62-0.2,1.2-0.5,1.73c-0.48,0.66-1.13,0.97-1.95,0.94c-0.37-0.01-0.72-0.04-1.08-0.09c-0.03,0-0.07,0-0.11-0.02
				c-0.12-0.01-0.26-0.03-0.39-0.06c-0.33-0.08-0.65-0.1-0.94-0.06c-0.14,0.02-0.25,0.08-0.35,0.16c-0.1,0.09-0.16,0.2-0.18,0.32
				c-0.01,0.16,0.03,0.29,0.13,0.4c0.1,0.11,0.22,0.2,0.35,0.26c0.45,0.17,0.92,0.23,1.41,0.19c0.33-0.02,0.66,0,0.98,0.05
				c0.88,0.22,1.48,0.76,1.78,1.62c0.3,0.86,0.25,1.69-0.14,2.48c-0.37,0.6-0.89,0.98-1.58,1.14c-0.37,0.06-0.74,0.08-1.12,0.05
				c-0.46-0.04-0.91,0-1.34,0.12c-0.16,0.05-0.3,0.13-0.43,0.24c-0.13,0.11-0.21,0.24-0.23,0.4c-0.01,0.15,0.02,0.28,0.1,0.41
				s0.18,0.22,0.3,0.28c0.26,0.11,0.54,0.15,0.83,0.11c0.43-0.05,0.84-0.15,1.23-0.3c0.46-0.17,0.93-0.27,1.41-0.31
				c0.83-0.02,1.54,0.27,2.12,0.86C119.34,37.91,119.65,38.71,119.71,39.67z"/>
			<path class="st1" d="M114.06,45.81c-1.27,0-2.51-0.18-3.71-0.54c-2.1-0.63-3.92-1.88-5.42-3.73c-1.66-2.2-2.5-4.7-2.53-7.44
				c-0.03-2.72,0.67-5.26,2.09-7.52c1.4-2.06,3.31-3.49,5.7-4.26c2.38-0.77,4.78-0.74,7.12,0.1c0.72,0.26,1.29,0.71,1.7,1.32
				c0.28,0.48,0.43,0.96,0.47,1.46c0.03,0.42,0.02,0.84-0.03,1.26c-0.03,0.72-0.25,1.45-0.62,2.11l-0.06,0.1
				c-0.38,0.52-0.86,0.9-1.41,1.12c0.55,0.4,0.96,0.96,1.2,1.66c0.39,1.12,0.33,2.21-0.19,3.25c-0.19,0.32-0.41,0.59-0.65,0.83
				c0.67,0.17,1.26,0.51,1.77,1.03c0.75,0.86,1.14,1.86,1.22,3.04v0c0.07,1.1-0.03,2.12-0.3,3.05c-0.28,0.89-0.76,1.56-1.44,2.03
				c-0.61,0.42-1.32,0.71-2.12,0.86C115.91,45.72,114.98,45.81,114.06,45.81z M113.63,23.75c-0.93,0-1.87,0.15-2.83,0.46
				c-1.98,0.64-3.5,1.77-4.65,3.45c-1.19,1.91-1.79,4.08-1.77,6.41c0.03,2.35,0.72,4.39,2.11,6.24c1.23,1.52,2.69,2.53,4.42,3.05
				c1.74,0.52,3.61,0.6,5.54,0.21c0.53-0.1,0.99-0.28,1.36-0.54c0.3-0.21,0.52-0.53,0.66-0.97c0.2-0.68,0.28-1.47,0.22-2.34
				c-0.05-0.74-0.28-1.34-0.69-1.82c-0.35-0.35-0.77-0.54-1.35-0.52c-0.33,0.03-0.72,0.12-1.09,0.25c-0.47,0.17-0.96,0.29-1.46,0.35
				c-0.46,0.06-0.92,0-1.35-0.19c-0.33-0.17-0.57-0.38-0.75-0.67c-0.19-0.3-0.28-0.65-0.25-1.01c0.06-0.46,0.26-0.82,0.58-1.09
				c0.22-0.19,0.48-0.33,0.76-0.42c0.59-0.17,1.17-0.22,1.75-0.17c0.29,0.02,0.59,0.01,0.87-0.04c0.37-0.09,0.67-0.3,0.89-0.67
				c0.24-0.48,0.27-1.02,0.05-1.63c-0.19-0.54-0.52-0.84-1.08-0.98c-0.17-0.02-0.43-0.04-0.68-0.02c-0.61,0.05-1.23-0.03-1.82-0.25
				c-0.33-0.15-0.55-0.31-0.74-0.52c-0.28-0.3-0.42-0.71-0.39-1.13c0.07-0.44,0.24-0.75,0.51-0.99c0.24-0.21,0.54-0.35,0.86-0.4
				c0.43-0.06,0.87-0.03,1.33,0.08c0.07,0.02,0.15,0.03,0.23,0.04l0.17,0.02c0.32,0.05,0.63,0.07,0.96,0.08
				c0.47,0.02,0.81-0.13,1.09-0.49c0.21-0.38,0.32-0.79,0.34-1.24c0.04-0.36,0.05-0.67,0.03-0.96c-0.02-0.2-0.07-0.38-0.17-0.55
				c-0.14-0.21-0.37-0.39-0.69-0.51C115.63,23.93,114.64,23.75,113.63,23.75z M113.64,36.58C113.64,36.58,113.64,36.58,113.64,36.58
				S113.64,36.58,113.64,36.58z"/>
		</g>
		<g>
			<path id="XMLID_00000011739988914698062970000012532331025180864131_" class="st0" d="M137.71,38.54
				c0.36,0.51,0.63,1.06,0.81,1.65c0.18,0.59,0.23,1.19,0.16,1.8c-0.09,0.62-0.34,1.18-0.73,1.66c-0.4,0.48-0.9,0.8-1.5,0.96
				c-1.02,0.17-1.94-0.09-2.75-0.78c-0.7-0.62-1.25-1.36-1.65-2.22c-0.4-0.85-0.74-1.72-1.02-2.59c-0.12-0.38-0.28-0.75-0.45-1.12
				c-0.18-0.38-0.41-0.7-0.7-0.97c-0.24-0.2-0.54-0.32-0.9-0.38c-0.36-0.05-0.66,0.04-0.9,0.28c-0.12,0.14-0.18,0.29-0.2,0.48
				c-0.02,0.18,0,0.36,0.04,0.54c0.08,0.49,0.13,0.98,0.14,1.47c0.02,0.24,0.05,0.47,0.08,0.7c0.06,0.34,0.08,0.69,0.06,1.05
				c-0.05,0.75-0.28,1.47-0.67,2.16c-0.4,0.69-1,1.11-1.8,1.26c-0.94,0.09-1.8-0.1-2.58-0.58s-1.36-1.15-1.73-2
				c-0.22-0.5-0.37-1-0.45-1.52c-0.08-0.51-0.13-1.03-0.16-1.55c-0.02-0.34-0.05-0.69-0.09-1.03c-0.03-0.31-0.07-0.62-0.11-0.92
				c-0.14-1.01-0.22-2.03-0.27-3.06c-0.07-1.53,0.04-3.03,0.33-4.49c0.29-1.46,0.98-2.77,2.06-3.93c0.93-0.92,1.97-1.56,3.14-1.92
				c1.17-0.36,2.38-0.58,3.64-0.66c1.75-0.15,3.38,0.09,4.88,0.72s2.61,1.81,3.33,3.55c0.36,0.97,0.48,1.88,0.36,2.73
				c-0.12,0.85-0.44,1.73-0.95,2.62c-0.3,0.54-0.68,1.03-1.14,1.45c-0.12,0.1-0.26,0.2-0.39,0.3c-0.17,0.11-0.32,0.24-0.46,0.38
				c-0.14,0.14-0.24,0.3-0.3,0.5c-0.08,0.3-0.03,0.56,0.16,0.78c0.19,0.22,0.42,0.41,0.68,0.58c0.11,0.09,0.22,0.18,0.33,0.27
				C136.65,37.25,137.22,37.85,137.71,38.54z M128.04,29.5c-0.15,0.4-0.19,0.82-0.14,1.27c0.01,0.1,0.03,0.21,0.05,0.31
				c0.02,0.1,0.06,0.19,0.12,0.27c0.08,0.08,0.18,0.14,0.29,0.16c0.11,0.03,0.22,0.03,0.34,0.02c0.25,0.01,0.49-0.03,0.73-0.11
				c0.44-0.2,0.7-0.51,0.79-0.93c0.09-0.42-0.03-0.8-0.35-1.15c-0.29-0.29-0.62-0.44-0.98-0.44C128.52,28.9,128.24,29.1,128.04,29.5
				z"/>
			<path class="st1" d="M135.86,45.66c-1.05,0-1.98-0.36-2.8-1.06c-0.82-0.73-1.45-1.58-1.91-2.56c-0.42-0.89-0.78-1.8-1.07-2.71
				c-0.11-0.32-0.25-0.67-0.41-1.01c-0.12-0.26-0.28-0.48-0.48-0.66c-0.05-0.04-0.17-0.08-0.32-0.11c0,0.03,0.01,0.05,0.01,0.08
				c0.1,0.6,0.16,1.14,0.17,1.68c0.02,0.16,0.04,0.38,0.07,0.59c0.07,0.37,0.09,0.81,0.07,1.24c-0.06,0.91-0.33,1.78-0.8,2.6
				c-0.54,0.94-1.4,1.55-2.48,1.74c-1.23,0.13-2.31-0.12-3.28-0.71c-0.96-0.59-1.67-1.41-2.13-2.45c-0.25-0.58-0.43-1.17-0.52-1.77
				c-0.08-0.54-0.14-1.09-0.17-1.64c-0.02-0.32-0.05-0.65-0.09-0.97c-0.03-0.32-0.07-0.62-0.11-0.91c-0.14-1.04-0.23-2.1-0.27-3.16
				c-0.08-1.6,0.04-3.19,0.35-4.73c0.33-1.64,1.1-3.13,2.31-4.42c1.06-1.05,2.25-1.78,3.57-2.19c1.24-0.39,2.54-0.62,3.88-0.7
				c1.88-0.15,3.67,0.11,5.32,0.79c1.75,0.73,3.04,2.1,3.87,4.09c0.43,1.15,0.57,2.24,0.42,3.26c-0.14,0.97-0.5,1.97-1.07,2.97
				c-0.35,0.62-0.8,1.19-1.33,1.69c-0.19,0.16-0.34,0.28-0.5,0.39c-0.12,0.09-0.24,0.18-0.34,0.27c0.11,0.11,0.24,0.21,0.38,0.31
				l0.41,0.32c0.73,0.59,1.37,1.27,1.91,2.03c0.42,0.6,0.75,1.25,0.96,1.94c0.21,0.72,0.28,1.46,0.19,2.21
				c-0.12,0.83-0.44,1.55-0.95,2.18c-0.53,0.65-1.21,1.08-2.02,1.29C136.41,45.63,136.13,45.66,135.86,45.66z M128.79,35.55
				c0.1,0,0.21,0.01,0.32,0.02c0.54,0.08,1.01,0.28,1.39,0.59c0.43,0.39,0.74,0.82,0.97,1.31c0.19,0.41,0.36,0.83,0.5,1.24
				c0.27,0.84,0.6,1.67,0.98,2.49c0.34,0.73,0.82,1.37,1.41,1.9c0.57,0.48,1.19,0.66,1.93,0.54c0.31-0.08,0.63-0.29,0.89-0.61
				c0.28-0.35,0.45-0.73,0.52-1.18c0.05-0.45,0.01-0.91-0.12-1.37c-0.14-0.48-0.37-0.94-0.67-1.36l0,0
				c-0.44-0.61-0.95-1.16-1.53-1.63l-0.29-0.23c-0.32-0.21-0.6-0.45-0.84-0.73c-0.42-0.47-0.55-1.08-0.38-1.71
				c0.12-0.39,0.31-0.7,0.57-0.95c0.18-0.17,0.38-0.33,0.59-0.48c0.11-0.07,0.21-0.15,0.32-0.24c0.34-0.32,0.66-0.73,0.91-1.17
				c0.45-0.79,0.73-1.56,0.84-2.28c0.1-0.68,0-1.43-0.31-2.24c-0.61-1.47-1.52-2.45-2.78-2.98c-1.34-0.56-2.83-0.78-4.41-0.65
				c-1.2,0.07-2.34,0.28-3.43,0.61c-1.01,0.32-1.93,0.88-2.74,1.68c-0.94,1-1.53,2.13-1.79,3.42c-0.27,1.38-0.38,2.81-0.31,4.25
				c0.04,1,0.13,2,0.26,2.98c0.04,0.31,0.08,0.63,0.11,0.96c0.04,0.34,0.07,0.71,0.1,1.07c0.03,0.49,0.08,0.98,0.15,1.46
				c0.06,0.42,0.19,0.85,0.37,1.27c0.29,0.67,0.73,1.18,1.34,1.55c0.6,0.37,1.23,0.5,1.96,0.44c0.44-0.08,0.78-0.32,1.03-0.76
				c0.32-0.56,0.5-1.13,0.54-1.74c0.02-0.26,0-0.54-0.05-0.8c-0.04-0.29-0.07-0.54-0.09-0.8c-0.01-0.5-0.06-0.95-0.13-1.39
				c-0.05-0.21-0.07-0.5-0.05-0.79c0.03-0.39,0.18-0.74,0.43-1.04C127.74,35.76,128.25,35.55,128.79,35.55z M128.6,32.53
				c-0.16,0-0.32-0.02-0.47-0.06c-0.28-0.07-0.55-0.22-0.76-0.43c-0.22-0.26-0.34-0.5-0.4-0.78c-0.03-0.13-0.05-0.27-0.06-0.41
				c-0.07-0.58,0-1.16,0.2-1.7l0.04-0.1c0.5-1,1.3-1.14,1.73-1.14c0.63,0,1.21,0.25,1.69,0.73c0.57,0.61,0.78,1.31,0.62,2.06
				c-0.16,0.74-0.62,1.3-1.35,1.63c-0.42,0.15-0.77,0.21-1.12,0.2C128.68,32.52,128.64,32.53,128.6,32.53z M128.92,30.87
				C128.92,30.87,128.92,30.87,128.92,30.87C128.92,30.87,128.92,30.87,128.92,30.87z M128.95,29.9c-0.06,0.2-0.09,0.4-0.08,0.63
				c0.08-0.01,0.15-0.02,0.23-0.05c0.11-0.06,0.13-0.13,0.14-0.19c0.01-0.06,0.03-0.12-0.1-0.26C129.06,29.94,129,29.91,128.95,29.9
				z"/>
		</g>
		<g>
			<path id="XMLID_00000007401166397275505000000015125717806238076803_" class="st0" d="M154.9,39.67c0.06,0.99-0.03,1.89-0.27,2.7
				c-0.21,0.66-0.56,1.15-1.05,1.49c-0.49,0.34-1.07,0.57-1.73,0.7c-2.1,0.42-4.11,0.34-6.02-0.23c-1.91-0.57-3.55-1.71-4.93-3.41
				c-1.51-2.01-2.28-4.29-2.31-6.83c-0.03-2.54,0.61-4.87,1.94-6.98c1.26-1.85,2.98-3.13,5.16-3.84c2.18-0.7,4.34-0.67,6.48,0.09
				c0.51,0.19,0.91,0.5,1.2,0.94c0.18,0.3,0.28,0.63,0.3,0.98c0.03,0.35,0.02,0.71-0.02,1.08c-0.03,0.62-0.2,1.2-0.5,1.73
				c-0.48,0.66-1.13,0.97-1.95,0.94c-0.37-0.01-0.72-0.04-1.08-0.09c-0.03,0-0.07,0-0.11-0.02c-0.12-0.01-0.26-0.03-0.39-0.06
				c-0.33-0.08-0.65-0.1-0.94-0.06c-0.14,0.02-0.25,0.08-0.35,0.16c-0.1,0.09-0.16,0.2-0.18,0.32c-0.01,0.16,0.03,0.29,0.13,0.4
				c0.1,0.11,0.22,0.2,0.35,0.26c0.45,0.17,0.92,0.23,1.41,0.19c0.33-0.02,0.66,0,0.98,0.05c0.88,0.22,1.48,0.76,1.78,1.62
				c0.3,0.86,0.25,1.69-0.14,2.48c-0.37,0.6-0.89,0.98-1.58,1.14c-0.37,0.06-0.74,0.08-1.12,0.05c-0.46-0.04-0.91,0-1.34,0.12
				c-0.16,0.05-0.3,0.13-0.43,0.24c-0.13,0.11-0.21,0.24-0.23,0.4c-0.01,0.15,0.02,0.28,0.1,0.41s0.18,0.22,0.3,0.28
				c0.26,0.11,0.54,0.15,0.83,0.11c0.43-0.05,0.84-0.15,1.23-0.3c0.46-0.17,0.93-0.27,1.41-0.31c0.83-0.02,1.54,0.27,2.12,0.86
				C154.52,37.91,154.84,38.71,154.9,39.67z"/>
			<path class="st1" d="M149.25,45.81c-1.27,0-2.51-0.18-3.71-0.54c-2.1-0.63-3.92-1.88-5.42-3.73c-1.66-2.2-2.5-4.7-2.53-7.44
				c-0.03-2.72,0.67-5.26,2.09-7.52c1.4-2.06,3.31-3.49,5.7-4.26c2.38-0.77,4.78-0.74,7.12,0.1c0.72,0.26,1.29,0.71,1.7,1.32
				c0.28,0.48,0.43,0.96,0.47,1.46c0.03,0.42,0.02,0.84-0.03,1.26c-0.03,0.72-0.25,1.45-0.62,2.11l-0.06,0.1
				c-0.38,0.52-0.86,0.9-1.41,1.12c0.55,0.4,0.96,0.96,1.2,1.66c0.39,1.12,0.33,2.21-0.19,3.25c-0.19,0.32-0.41,0.59-0.65,0.83
				c0.67,0.17,1.26,0.51,1.77,1.03c0.75,0.86,1.14,1.86,1.22,3.04v0c0.07,1.1-0.03,2.12-0.3,3.05c-0.28,0.89-0.76,1.56-1.44,2.03
				c-0.61,0.42-1.32,0.71-2.12,0.86C151.1,45.72,150.17,45.81,149.25,45.81z M148.82,23.75c-0.93,0-1.87,0.15-2.83,0.46
				c-1.98,0.64-3.5,1.77-4.65,3.45c-1.19,1.91-1.79,4.08-1.77,6.41c0.03,2.35,0.72,4.39,2.11,6.24c1.23,1.52,2.69,2.53,4.42,3.05
				c1.74,0.52,3.61,0.6,5.54,0.21c0.53-0.1,0.99-0.28,1.36-0.54c0.3-0.21,0.52-0.53,0.66-0.97c0.2-0.68,0.28-1.47,0.22-2.34
				c-0.05-0.74-0.28-1.34-0.69-1.82c-0.35-0.35-0.77-0.54-1.35-0.52c-0.33,0.03-0.72,0.12-1.09,0.25c-0.47,0.17-0.96,0.29-1.46,0.35
				c-0.45,0.06-0.92,0-1.35-0.19c-0.33-0.17-0.57-0.38-0.75-0.67c-0.19-0.3-0.28-0.65-0.25-1.01c0.06-0.46,0.26-0.82,0.58-1.09
				c0.22-0.19,0.48-0.33,0.76-0.42c0.59-0.17,1.17-0.22,1.75-0.17c0.29,0.02,0.59,0.01,0.87-0.04c0.37-0.09,0.67-0.3,0.89-0.67
				c0.24-0.48,0.27-1.02,0.05-1.63c-0.19-0.54-0.52-0.84-1.08-0.98c-0.17-0.02-0.43-0.04-0.68-0.02c-0.61,0.05-1.23-0.03-1.82-0.25
				c-0.33-0.15-0.55-0.31-0.74-0.52c-0.28-0.3-0.42-0.71-0.39-1.13c0.07-0.44,0.24-0.75,0.51-0.99c0.24-0.21,0.54-0.35,0.86-0.4
				c0.43-0.06,0.87-0.03,1.33,0.08c0.07,0.02,0.15,0.03,0.23,0.04l0.17,0.02c0.32,0.05,0.63,0.07,0.96,0.08
				c0.47,0.02,0.81-0.13,1.09-0.49c0.21-0.38,0.32-0.79,0.34-1.24c0.04-0.36,0.05-0.67,0.03-0.96c-0.02-0.2-0.07-0.38-0.17-0.55
				c-0.14-0.21-0.37-0.39-0.69-0.51C150.82,23.93,149.82,23.75,148.82,23.75z M148.83,36.58C148.83,36.58,148.83,36.58,148.83,36.58
				S148.83,36.58,148.83,36.58z"/>
		</g>
		<g>
			<path id="XMLID_00000181048298956211965450000002428110589999639184_" class="st0" d="M173.12,27.78
				c-0.67,0.74-1.5,1.85-2.49,3.32c-1,1.47-1.35,2.53-1.05,3.16c0.29,0.63,1.07,1.73,2.34,3.3c0.66,0.68,1.2,1.38,1.63,2.12
				c0.43,0.73,0.59,1.53,0.46,2.4c-0.23,1.05-0.94,1.84-2.14,2.36c-1.23,0.46-2.45,0.44-3.67-0.06c-0.57-0.25-1.06-0.56-1.45-0.92
				c-0.4-0.36-0.76-0.77-1.09-1.22c-0.04-0.04-0.1-0.1-0.17-0.19c-0.24-0.29-0.54-0.68-0.91-1.16c-0.46,0.7-0.98,1.36-1.55,2
				c-0.58,0.64-1.25,1.12-2.02,1.46s-1.66,0.41-2.68,0.23c-1.14-0.23-1.96-0.65-2.47-1.27c-0.51-0.62-0.59-1.39-0.25-2.3
				c0.49-1,1.14-1.93,1.95-2.8c0.21-0.24,0.41-0.47,0.59-0.69c1.74-2.15,2.52-3.62,2.35-4.42c-0.17-0.8-0.89-1.81-2.14-3.02
				c-1.26-1.21-2.17-2.17-2.73-2.9c-0.57-0.72-0.72-1.53-0.46-2.41c0.21-0.56,0.63-1,1.27-1.33c0.64-0.32,1.34-0.48,2.1-0.47
				c0.11,0,0.22,0.01,0.33,0.02c0.88,0.09,1.63,0.34,2.27,0.75s1.32,1.03,2.04,1.88s1.27,1.64,1.66,2.39c0.45-0.91,1-1.77,1.65-2.59
				c0.65-0.82,1.52-1.48,2.62-1.98c0.68-0.28,1.39-0.46,2.13-0.55c0.74-0.08,1.42,0,2.04,0.24c0.61,0.25,1.04,0.71,1.28,1.38
				c0.16,0.58,0.07,1.15-0.26,1.71C173.97,26.76,173.58,27.29,173.12,27.78z"/>
			<path class="st1" d="M170.09,45.75c-0.77,0-1.52-0.16-2.28-0.46c-0.69-0.3-1.27-0.67-1.75-1.11c-0.42-0.39-0.82-0.83-1.18-1.3
				c-0.05-0.05-0.1-0.11-0.16-0.18c-0.04-0.05-0.08-0.1-0.12-0.15c-0.27,0.35-0.55,0.68-0.85,1.01c-0.67,0.73-1.46,1.31-2.35,1.7
				c-0.95,0.42-2.05,0.52-3.26,0.29c-1.38-0.28-2.4-0.82-3.06-1.62c-0.52-0.63-1.01-1.7-0.41-3.29c0.57-1.17,1.28-2.2,2.16-3.13
				l0.56-0.65c2.24-2.76,2.14-3.54,2.13-3.57c-0.07-0.34-0.41-1.11-1.86-2.51c-1.3-1.25-2.22-2.23-2.83-3
				c-0.76-0.97-0.98-2.12-0.63-3.31c0.32-0.87,0.91-1.5,1.78-1.94c0.78-0.39,1.61-0.59,2.56-0.58c0.14-0.01,0.28,0.01,0.41,0.02
				c1.03,0.11,1.94,0.41,2.71,0.9c0.73,0.46,1.47,1.14,2.26,2.07c0.31,0.37,0.6,0.73,0.86,1.09c0.28-0.43,0.58-0.86,0.91-1.27
				c0.75-0.94,1.75-1.71,2.98-2.27c0.79-0.33,1.6-0.54,2.44-0.63c0.9-0.1,1.75,0,2.52,0.31c0.88,0.35,1.52,1.03,1.85,1.97
				c0.25,0.91,0.12,1.77-0.34,2.55c-0.36,0.61-0.8,1.2-1.3,1.74c-0.63,0.7-1.44,1.78-2.4,3.2c-1.12,1.66-0.98,2.18-0.98,2.18
				c0.18,0.38,0.7,1.22,2.21,3.1c0.65,0.66,1.24,1.44,1.72,2.24c0.55,0.93,0.75,1.96,0.59,3.05c-0.31,1.45-1.23,2.48-2.73,3.13
				C171.53,45.62,170.81,45.75,170.09,45.75z M164.51,39.16l0.85,1.12c0.36,0.47,0.65,0.84,0.88,1.13c0.04,0.04,0.08,0.08,0.11,0.12
				l0.09,0.11c0.29,0.4,0.62,0.76,0.97,1.08c0.31,0.29,0.71,0.54,1.18,0.74c0.97,0.4,1.93,0.41,2.93,0.04
				c1.14-0.5,1.42-1.17,1.52-1.64c0.08-0.57-0.03-1.14-0.35-1.68c-0.39-0.66-0.89-1.31-1.49-1.93c-1.41-1.74-2.2-2.86-2.53-3.58
				c-0.46-0.99-0.1-2.3,1.13-4.13c1.01-1.5,1.88-2.66,2.58-3.43l0.01-0.01c0.41-0.43,0.76-0.9,1.05-1.4
				c0.19-0.33,0.24-0.62,0.15-0.95c-0.12-0.33-0.34-0.58-0.69-0.72c-0.46-0.18-0.97-0.24-1.56-0.18c-0.65,0.07-1.27,0.23-1.86,0.48
				c-0.91,0.42-1.67,0.99-2.22,1.68c-0.61,0.77-1.12,1.58-1.54,2.42l-0.87,1.77l-0.9-1.76c-0.35-0.68-0.86-1.42-1.53-2.2
				c-0.65-0.76-1.26-1.33-1.81-1.68c-0.51-0.32-1.13-0.52-1.85-0.6c-0.08-0.01-0.18-0.01-0.28-0.01c-0.59,0-1.11,0.12-1.59,0.36
				c-0.41,0.21-0.67,0.46-0.79,0.78c-0.15,0.51-0.06,0.98,0.31,1.45c0.54,0.69,1.43,1.63,2.64,2.8c1.42,1.36,2.21,2.52,2.42,3.52
				c0.25,1.15-0.54,2.78-2.55,5.26l-0.62,0.71c-0.77,0.82-1.37,1.67-1.81,2.58c-0.24,0.65-0.06,1.01,0.12,1.23
				c0.36,0.44,1,0.75,1.9,0.93c0.8,0.15,1.5,0.09,2.08-0.16c0.64-0.29,1.19-0.68,1.68-1.22c0.54-0.59,1.03-1.22,1.46-1.88
				L164.51,39.16z"/>
		</g>
	</g>
</g>
</svg>
