<?xml version="1.0" encoding="utf-8"?>
<!-- Generator: Adobe Illustrator 25.4.1, SVG Export Plug-In . SVG Version: 6.00 Build 0)  -->
<svg version="1.1" id="圖層_1" xmlns="http://www.w3.org/2000/svg" xmlns:xlink="http://www.w3.org/1999/xlink" x="0px" y="0px"
	 viewBox="0 0 271.63 66.61" style="enable-background:new 0 0 271.63 66.61;" xml:space="preserve">
<style type="text/css">
	.st0{fill:#FFFFFF;}
	.st1{fill:#231815;}
</style>
<g id="XMLID_26816_">
	<g>
		<g>
			<path id="XMLID_00000159438046140223528810000000605913193463147964_" class="st0" d="M18.39,38.54
				c0.36,0.51,0.63,1.06,0.81,1.65c0.18,0.59,0.23,1.19,0.16,1.8c-0.09,0.62-0.34,1.18-0.73,1.66c-0.4,0.48-0.9,0.8-1.5,0.96
				c-1.02,0.17-1.94-0.09-2.75-0.78c-0.7-0.62-1.25-1.36-1.65-2.22c-0.4-0.85-0.74-1.72-1.02-2.59c-0.12-0.38-0.28-0.75-0.45-1.12
				c-0.18-0.38-0.41-0.7-0.7-0.97c-0.24-0.2-0.54-0.32-0.9-0.38s-0.66,0.04-0.9,0.28c-0.12,0.14-0.18,0.29-0.2,0.48
				s0,0.36,0.04,0.54c0.08,0.49,0.13,0.98,0.14,1.47c0.02,0.24,0.05,0.47,0.08,0.7c0.06,0.34,0.08,0.69,0.06,1.05
				c-0.05,0.75-0.28,1.47-0.67,2.16c-0.4,0.69-1,1.11-1.8,1.26c-0.94,0.09-1.8-0.1-2.58-0.58c-0.78-0.48-1.36-1.15-1.73-2
				c-0.22-0.5-0.37-1-0.45-1.52s-0.13-1.03-0.16-1.55c-0.02-0.34-0.05-0.69-0.09-1.03c-0.03-0.31-0.07-0.62-0.11-0.92
				c-0.14-1.01-0.22-2.03-0.27-3.06c-0.07-1.53,0.04-3.03,0.33-4.49c0.29-1.46,0.98-2.77,2.06-3.93c0.93-0.92,1.97-1.56,3.14-1.92
				c1.17-0.36,2.38-0.58,3.64-0.66c1.75-0.15,3.38,0.09,4.88,0.72s2.61,1.81,3.33,3.55c0.36,0.97,0.48,1.88,0.36,2.73
				s-0.44,1.73-0.95,2.62c-0.3,0.54-0.68,1.03-1.14,1.45c-0.12,0.1-0.26,0.2-0.39,0.3c-0.17,0.11-0.32,0.24-0.46,0.38
				s-0.24,0.3-0.3,0.5c-0.08,0.3-0.03,0.56,0.16,0.78c0.19,0.22,0.42,0.41,0.68,0.58c0.11,0.09,0.22,0.18,0.33,0.27
				C17.33,37.25,17.9,37.85,18.39,38.54z M8.72,29.5c-0.15,0.4-0.19,0.82-0.14,1.27c0.01,0.1,0.03,0.21,0.05,0.31
				c0.02,0.1,0.06,0.19,0.12,0.27c0.08,0.08,0.18,0.14,0.29,0.16s0.22,0.03,0.34,0.02c0.25,0.01,0.49-0.03,0.73-0.11
				c0.44-0.2,0.7-0.51,0.79-0.93c0.09-0.42-0.03-0.8-0.35-1.15c-0.29-0.29-0.62-0.44-0.98-0.44C9.2,28.9,8.92,29.1,8.72,29.5z"/>
			<path class="st1" d="M16.54,45.66c-1.05,0-1.98-0.36-2.8-1.06c-0.82-0.73-1.45-1.58-1.91-2.56c-0.42-0.89-0.78-1.8-1.07-2.71
				c-0.11-0.32-0.25-0.67-0.41-1.01c-0.12-0.26-0.28-0.48-0.48-0.66c-0.05-0.04-0.17-0.08-0.32-0.11c0,0.03,0.01,0.05,0.01,0.08
				c0.1,0.6,0.16,1.14,0.17,1.68c0.02,0.16,0.04,0.38,0.07,0.59c0.07,0.37,0.1,0.81,0.07,1.24c-0.06,0.91-0.33,1.78-0.8,2.6
				c-0.54,0.94-1.4,1.55-2.48,1.74c-1.23,0.13-2.31-0.12-3.28-0.71c-0.95-0.59-1.67-1.41-2.13-2.45c-0.25-0.58-0.43-1.17-0.52-1.77
				c-0.08-0.54-0.14-1.09-0.17-1.64c-0.02-0.32-0.05-0.65-0.09-0.97c-0.03-0.32-0.07-0.62-0.11-0.91c-0.14-1.04-0.23-2.1-0.27-3.16
				c-0.08-1.6,0.04-3.19,0.35-4.73c0.33-1.64,1.1-3.13,2.31-4.42c1.06-1.05,2.26-1.78,3.57-2.19c1.24-0.39,2.54-0.62,3.88-0.7
				c1.88-0.15,3.67,0.11,5.32,0.79c1.74,0.73,3.05,2.1,3.87,4.09c0.43,1.15,0.57,2.24,0.42,3.26c-0.14,0.97-0.5,1.97-1.07,2.97
				c-0.35,0.62-0.8,1.19-1.33,1.69c-0.19,0.16-0.34,0.28-0.5,0.39c-0.13,0.09-0.24,0.18-0.34,0.27c0.11,0.11,0.24,0.21,0.38,0.31
				l0.41,0.32c0.73,0.59,1.37,1.27,1.91,2.03c0.43,0.6,0.75,1.25,0.96,1.94c0.22,0.72,0.28,1.46,0.19,2.21
				c-0.12,0.83-0.44,1.55-0.95,2.18c-0.53,0.65-1.21,1.08-2.02,1.29C17.09,45.63,16.81,45.66,16.54,45.66z M9.47,35.55
				c0.1,0,0.21,0.01,0.32,0.02c0.54,0.08,1.01,0.28,1.39,0.59c0.43,0.39,0.74,0.82,0.97,1.31c0.19,0.41,0.36,0.83,0.5,1.24
				c0.27,0.84,0.6,1.67,0.98,2.49c0.34,0.73,0.82,1.37,1.41,1.9c0.57,0.48,1.19,0.66,1.93,0.54c0.31-0.08,0.63-0.29,0.89-0.61
				c0.28-0.35,0.45-0.73,0.52-1.18c0.05-0.45,0.01-0.91-0.12-1.37c-0.15-0.48-0.37-0.94-0.67-1.36l0,0
				c-0.44-0.61-0.95-1.16-1.53-1.63l-0.29-0.23c-0.32-0.21-0.6-0.46-0.84-0.73c-0.42-0.47-0.55-1.08-0.38-1.71
				c0.12-0.39,0.31-0.7,0.57-0.95c0.18-0.17,0.38-0.33,0.59-0.48c0.1-0.07,0.21-0.15,0.31-0.24c0.34-0.32,0.66-0.73,0.91-1.17
				c0.45-0.79,0.73-1.56,0.84-2.28c0.1-0.68,0-1.43-0.31-2.24c-0.61-1.47-1.52-2.45-2.78-2.98c-1.34-0.56-2.83-0.78-4.41-0.65
				c-1.2,0.07-2.34,0.28-3.43,0.61c-1.01,0.31-1.93,0.88-2.74,1.68c-0.94,1-1.53,2.13-1.79,3.42c-0.27,1.38-0.38,2.81-0.31,4.25
				c0.04,1,0.13,2,0.26,2.98c0.04,0.31,0.08,0.63,0.11,0.96c0.04,0.34,0.07,0.71,0.1,1.07c0.03,0.49,0.08,0.98,0.15,1.46
				c0.06,0.42,0.19,0.85,0.37,1.27c0.29,0.67,0.73,1.18,1.34,1.55c0.6,0.37,1.24,0.5,1.96,0.44c0.44-0.08,0.78-0.32,1.03-0.76
				c0.32-0.56,0.5-1.13,0.54-1.74c0.02-0.26,0-0.54-0.05-0.8c-0.04-0.29-0.07-0.54-0.09-0.8c-0.01-0.5-0.06-0.95-0.13-1.39
				c-0.05-0.21-0.07-0.5-0.05-0.79c0.03-0.39,0.18-0.74,0.43-1.04C8.42,35.76,8.93,35.55,9.47,35.55z M9.28,32.53
				c-0.16,0-0.32-0.02-0.47-0.06c-0.29-0.07-0.55-0.22-0.76-0.43c-0.23-0.26-0.34-0.5-0.4-0.78c-0.03-0.13-0.05-0.27-0.06-0.41
				c-0.07-0.58,0-1.16,0.2-1.7l0.04-0.1c0.5-1,1.3-1.14,1.73-1.14c0.63,0,1.21,0.25,1.69,0.73c0.57,0.61,0.78,1.31,0.62,2.06
				c-0.16,0.74-0.62,1.3-1.35,1.63c-0.42,0.15-0.77,0.21-1.12,0.2C9.36,32.52,9.32,32.53,9.28,32.53z M9.6,30.87
				C9.6,30.87,9.6,30.87,9.6,30.87C9.6,30.87,9.6,30.87,9.6,30.87z M9.63,29.9c-0.06,0.2-0.09,0.4-0.07,0.62
				c0.08-0.01,0.15-0.02,0.23-0.05c0.11-0.06,0.13-0.13,0.14-0.19c0.01-0.06,0.03-0.12-0.1-0.26C9.74,29.94,9.68,29.91,9.63,29.9z"
				/>
		</g>
		<g>
			<path id="XMLID_00000154390317850029827380000012188766087528544166_" class="st0" d="M35.58,39.67c0.06,0.99-0.03,1.89-0.27,2.7
				c-0.21,0.66-0.56,1.15-1.05,1.49c-0.49,0.34-1.07,0.57-1.73,0.7c-2.1,0.42-4.11,0.34-6.02-0.23c-1.91-0.57-3.55-1.71-4.93-3.41
				c-1.51-2.01-2.28-4.29-2.31-6.83s0.61-4.87,1.94-6.98c1.26-1.85,2.98-3.13,5.16-3.84c2.18-0.7,4.34-0.67,6.48,0.09
				c0.51,0.19,0.91,0.5,1.2,0.94c0.18,0.3,0.28,0.63,0.3,0.98c0.03,0.35,0.02,0.71-0.02,1.08c-0.03,0.62-0.2,1.2-0.5,1.73
				c-0.48,0.66-1.13,0.97-1.95,0.94c-0.37-0.01-0.72-0.04-1.08-0.09c-0.03,0-0.07,0-0.11-0.02c-0.12-0.01-0.26-0.03-0.39-0.06
				c-0.33-0.08-0.65-0.1-0.94-0.06c-0.14,0.02-0.25,0.08-0.35,0.16c-0.1,0.09-0.16,0.2-0.18,0.32c-0.01,0.16,0.03,0.29,0.13,0.4
				c0.1,0.11,0.22,0.2,0.35,0.26c0.45,0.17,0.92,0.23,1.41,0.19c0.33-0.02,0.66,0,0.98,0.05c0.88,0.22,1.48,0.76,1.78,1.62
				c0.3,0.86,0.25,1.68-0.14,2.48c-0.37,0.6-0.89,0.98-1.58,1.14c-0.37,0.06-0.74,0.08-1.12,0.05c-0.46-0.04-0.91,0-1.34,0.12
				c-0.16,0.05-0.3,0.13-0.43,0.24c-0.13,0.11-0.21,0.24-0.23,0.4c-0.01,0.15,0.02,0.28,0.1,0.41s0.18,0.22,0.3,0.28
				c0.26,0.11,0.54,0.15,0.83,0.11c0.43-0.05,0.84-0.15,1.23-0.3c0.46-0.17,0.93-0.27,1.41-0.31c0.83-0.02,1.54,0.27,2.12,0.86
				C35.2,37.91,35.52,38.71,35.58,39.67z"/>
			<path class="st1" d="M29.93,45.81c-1.27,0-2.51-0.18-3.71-0.54c-2.1-0.63-3.92-1.88-5.42-3.73c-1.66-2.2-2.5-4.7-2.53-7.44
				c-0.03-2.72,0.67-5.26,2.09-7.52c1.4-2.06,3.31-3.49,5.7-4.26c2.39-0.77,4.78-0.74,7.12,0.1c0.72,0.26,1.29,0.71,1.7,1.32
				c0.28,0.48,0.43,0.96,0.47,1.46c0.03,0.42,0.02,0.84-0.03,1.26c-0.03,0.72-0.25,1.45-0.62,2.11l-0.06,0.1
				c-0.38,0.52-0.86,0.9-1.41,1.12c0.56,0.4,0.96,0.96,1.2,1.66c0.39,1.12,0.33,2.21-0.19,3.25c-0.19,0.32-0.41,0.59-0.65,0.83
				c0.67,0.17,1.26,0.51,1.77,1.03c0.75,0.86,1.14,1.86,1.22,3.04v0c0.07,1.1-0.03,2.12-0.3,3.05c-0.28,0.89-0.76,1.56-1.44,2.03
				c-0.61,0.42-1.32,0.71-2.12,0.86C31.78,45.72,30.85,45.81,29.93,45.81z M29.5,23.75c-0.93,0-1.87,0.15-2.83,0.46
				c-1.98,0.64-3.5,1.77-4.65,3.45c-1.19,1.91-1.79,4.08-1.77,6.41c0.03,2.35,0.72,4.39,2.11,6.24c1.24,1.52,2.69,2.53,4.42,3.05
				c1.74,0.52,3.61,0.6,5.54,0.21c0.53-0.1,0.99-0.28,1.36-0.54c0.3-0.21,0.52-0.53,0.66-0.97c0.2-0.68,0.28-1.47,0.22-2.34
				c-0.05-0.74-0.28-1.34-0.69-1.82c-0.35-0.35-0.78-0.54-1.35-0.52c-0.33,0.03-0.72,0.12-1.09,0.25C30.98,37.82,30.49,37.94,30,38
				c-0.45,0.06-0.92,0-1.35-0.19c-0.33-0.17-0.57-0.38-0.75-0.67c-0.19-0.3-0.28-0.65-0.25-1.01c0.06-0.46,0.26-0.82,0.58-1.09
				c0.22-0.19,0.48-0.33,0.75-0.42c0.59-0.17,1.17-0.22,1.75-0.17c0.29,0.02,0.58,0.01,0.87-0.04c0.37-0.09,0.67-0.3,0.89-0.67
				c0.24-0.48,0.27-1.02,0.05-1.63c-0.19-0.54-0.52-0.84-1.08-0.98c-0.17-0.02-0.43-0.04-0.68-0.02c-0.61,0.05-1.23-0.03-1.82-0.25
				c-0.33-0.15-0.55-0.31-0.74-0.52c-0.28-0.3-0.42-0.71-0.39-1.13c0.07-0.44,0.24-0.75,0.51-0.99c0.24-0.21,0.54-0.36,0.87-0.41
				c0.42-0.06,0.87-0.03,1.33,0.08c0.07,0.02,0.16,0.03,0.24,0.04l0.17,0.02c0.32,0.05,0.64,0.07,0.96,0.08
				c0.49,0.02,0.81-0.13,1.09-0.49c0.21-0.38,0.32-0.79,0.34-1.24c0.04-0.36,0.05-0.67,0.02-0.96c-0.01-0.2-0.07-0.38-0.17-0.55
				c-0.15-0.21-0.37-0.39-0.69-0.51C31.5,23.93,30.5,23.75,29.5,23.75z M29.51,36.58L29.51,36.58L29.51,36.58z"/>
		</g>
		<g>
			<path id="XMLID_00000055679920303833197270000009820910680691902902_" class="st0" d="M53.58,38.54
				c0.36,0.51,0.63,1.06,0.81,1.65c0.18,0.59,0.23,1.19,0.16,1.8c-0.09,0.62-0.34,1.18-0.73,1.66c-0.4,0.48-0.9,0.8-1.5,0.96
				c-1.02,0.17-1.94-0.09-2.75-0.78c-0.7-0.62-1.25-1.36-1.65-2.22c-0.4-0.85-0.74-1.72-1.02-2.59c-0.12-0.38-0.28-0.75-0.45-1.12
				c-0.18-0.38-0.41-0.7-0.7-0.97c-0.24-0.2-0.54-0.32-0.9-0.38s-0.66,0.04-0.9,0.28c-0.12,0.14-0.18,0.29-0.2,0.48
				s0,0.36,0.04,0.54c0.08,0.49,0.13,0.98,0.14,1.47c0.02,0.24,0.05,0.47,0.08,0.7c0.06,0.34,0.08,0.69,0.06,1.05
				c-0.05,0.75-0.28,1.47-0.67,2.16c-0.4,0.69-1,1.11-1.8,1.26c-0.94,0.09-1.8-0.1-2.58-0.58c-0.78-0.48-1.36-1.15-1.73-2
				c-0.22-0.5-0.37-1-0.45-1.52s-0.13-1.03-0.16-1.55c-0.02-0.34-0.05-0.69-0.09-1.03c-0.03-0.31-0.07-0.62-0.11-0.92
				c-0.14-1.01-0.22-2.03-0.27-3.06c-0.07-1.53,0.04-3.03,0.33-4.49c0.29-1.46,0.98-2.77,2.06-3.93c0.93-0.92,1.97-1.56,3.14-1.92
				c1.17-0.36,2.38-0.58,3.64-0.66c1.75-0.15,3.38,0.09,4.88,0.72s2.61,1.81,3.33,3.55c0.36,0.97,0.48,1.88,0.36,2.73
				s-0.44,1.73-0.95,2.62c-0.3,0.54-0.68,1.03-1.14,1.45c-0.12,0.1-0.26,0.2-0.39,0.3c-0.17,0.11-0.32,0.24-0.46,0.38
				s-0.24,0.3-0.3,0.5c-0.08,0.3-0.03,0.56,0.16,0.78c0.19,0.22,0.42,0.41,0.68,0.58c0.11,0.09,0.22,0.18,0.33,0.27
				C52.52,37.25,53.09,37.85,53.58,38.54z M43.91,29.5c-0.15,0.4-0.19,0.82-0.14,1.27c0.01,0.1,0.03,0.21,0.05,0.31
				c0.02,0.1,0.06,0.19,0.12,0.27c0.08,0.08,0.18,0.14,0.29,0.16s0.22,0.03,0.34,0.02c0.25,0.01,0.49-0.03,0.73-0.11
				c0.44-0.2,0.7-0.51,0.79-0.93c0.09-0.42-0.03-0.8-0.35-1.15c-0.29-0.29-0.62-0.44-0.98-0.44C44.39,28.9,44.1,29.1,43.91,29.5z"/>
			<path class="st1" d="M51.72,45.66c-1.05,0-1.98-0.36-2.8-1.06c-0.82-0.73-1.45-1.58-1.91-2.56c-0.42-0.89-0.78-1.8-1.07-2.71
				c-0.11-0.32-0.25-0.67-0.41-1.01c-0.12-0.26-0.28-0.48-0.48-0.66c-0.05-0.04-0.17-0.08-0.32-0.11c0,0.03,0.01,0.05,0.01,0.08
				c0.1,0.6,0.16,1.14,0.17,1.68c0.02,0.16,0.04,0.38,0.07,0.59c0.07,0.37,0.1,0.81,0.07,1.24c-0.06,0.91-0.33,1.78-0.8,2.6
				c-0.54,0.94-1.4,1.55-2.48,1.74c-1.23,0.13-2.31-0.12-3.28-0.71c-0.95-0.59-1.67-1.41-2.13-2.45c-0.25-0.58-0.43-1.17-0.52-1.77
				c-0.08-0.54-0.14-1.09-0.17-1.64c-0.02-0.32-0.05-0.65-0.09-0.97c-0.03-0.32-0.07-0.62-0.11-0.91c-0.14-1.04-0.23-2.1-0.27-3.16
				c-0.08-1.6,0.04-3.19,0.35-4.73c0.33-1.64,1.1-3.13,2.31-4.42c1.06-1.05,2.26-1.78,3.57-2.19c1.24-0.39,2.54-0.62,3.88-0.7
				c1.88-0.15,3.67,0.11,5.32,0.79c1.74,0.73,3.05,2.1,3.87,4.09c0.43,1.15,0.57,2.24,0.42,3.26c-0.14,0.97-0.5,1.97-1.07,2.97
				c-0.35,0.62-0.8,1.19-1.33,1.69c-0.19,0.16-0.34,0.28-0.5,0.39c-0.13,0.09-0.24,0.18-0.34,0.27c0.11,0.11,0.24,0.21,0.38,0.31
				l0.41,0.32c0.73,0.59,1.37,1.27,1.91,2.03c0.43,0.6,0.75,1.25,0.96,1.94c0.22,0.72,0.28,1.46,0.19,2.21
				c-0.12,0.83-0.44,1.55-0.95,2.18c-0.53,0.65-1.21,1.08-2.02,1.29C52.27,45.63,51.99,45.66,51.72,45.66z M44.66,35.55
				c0.1,0,0.21,0.01,0.32,0.02c0.54,0.08,1.01,0.28,1.39,0.59c0.43,0.39,0.74,0.82,0.97,1.31c0.19,0.41,0.36,0.83,0.5,1.24
				c0.27,0.84,0.6,1.67,0.98,2.49c0.34,0.73,0.82,1.37,1.41,1.9c0.57,0.48,1.19,0.66,1.93,0.54c0.31-0.08,0.63-0.29,0.89-0.61
				c0.28-0.35,0.45-0.73,0.52-1.18c0.05-0.45,0.01-0.91-0.12-1.37c-0.15-0.48-0.37-0.94-0.67-1.36l0,0
				c-0.44-0.61-0.95-1.16-1.53-1.63l-0.29-0.23c-0.32-0.21-0.6-0.46-0.84-0.73c-0.42-0.47-0.55-1.08-0.38-1.71
				c0.12-0.39,0.31-0.7,0.57-0.95c0.18-0.17,0.38-0.33,0.59-0.48c0.1-0.07,0.21-0.15,0.31-0.24c0.34-0.32,0.66-0.73,0.91-1.17
				c0.45-0.79,0.73-1.56,0.84-2.28c0.1-0.68,0-1.43-0.31-2.24c-0.61-1.47-1.52-2.45-2.78-2.98c-1.34-0.56-2.83-0.78-4.41-0.65
				c-1.2,0.07-2.34,0.28-3.43,0.61c-1.01,0.31-1.93,0.88-2.74,1.68c-0.94,1-1.53,2.13-1.79,3.42c-0.27,1.38-0.38,2.81-0.31,4.25
				c0.04,1,0.13,2,0.26,2.98c0.04,0.31,0.08,0.63,0.11,0.96c0.04,0.34,0.07,0.71,0.1,1.07c0.03,0.49,0.08,0.98,0.15,1.46
				c0.06,0.42,0.19,0.85,0.37,1.27c0.29,0.67,0.73,1.18,1.34,1.55c0.6,0.37,1.24,0.5,1.96,0.44c0.44-0.08,0.78-0.32,1.03-0.76
				c0.32-0.56,0.5-1.13,0.54-1.74c0.02-0.26,0-0.54-0.05-0.8c-0.04-0.29-0.07-0.54-0.09-0.8c-0.01-0.5-0.06-0.95-0.13-1.39
				c-0.05-0.21-0.07-0.5-0.05-0.79c0.03-0.39,0.18-0.74,0.43-1.04C43.61,35.76,44.12,35.55,44.66,35.55z M44.47,32.53
				c-0.16,0-0.32-0.02-0.47-0.06c-0.29-0.07-0.55-0.22-0.76-0.43c-0.23-0.26-0.34-0.5-0.4-0.78c-0.03-0.13-0.05-0.27-0.06-0.41
				c-0.07-0.58,0-1.16,0.2-1.7l0.04-0.1c0.5-1,1.3-1.14,1.73-1.14c0.63,0,1.21,0.25,1.69,0.73c0.57,0.61,0.78,1.31,0.62,2.06
				c-0.16,0.74-0.62,1.3-1.35,1.63c-0.42,0.15-0.78,0.21-1.12,0.2C44.54,32.52,44.51,32.53,44.47,32.53z M44.79,30.87
				C44.79,30.87,44.79,30.87,44.79,30.87C44.79,30.87,44.79,30.87,44.79,30.87z M44.82,29.9c-0.06,0.2-0.09,0.4-0.07,0.62
				c0.08-0.01,0.15-0.02,0.23-0.05c0.11-0.06,0.13-0.13,0.14-0.19c0.01-0.06,0.03-0.12-0.1-0.26C44.93,29.94,44.87,29.91,44.82,29.9
				z"/>
		</g>
		<g>
			<path id="XMLID_00000069389279301120651370000007200172988578914746_" class="st0" d="M70.77,39.67c0.06,0.99-0.03,1.89-0.27,2.7
				c-0.21,0.66-0.56,1.15-1.05,1.49c-0.49,0.34-1.07,0.57-1.73,0.7c-2.1,0.42-4.11,0.34-6.02-0.23c-1.91-0.57-3.55-1.71-4.93-3.41
				c-1.51-2.01-2.28-4.29-2.31-6.83s0.61-4.87,1.94-6.98c1.26-1.85,2.98-3.13,5.16-3.84c2.18-0.7,4.34-0.67,6.48,0.09
				c0.51,0.19,0.91,0.5,1.2,0.94c0.18,0.3,0.28,0.63,0.3,0.98c0.03,0.35,0.02,0.71-0.02,1.08c-0.03,0.62-0.2,1.2-0.5,1.73
				c-0.48,0.66-1.13,0.97-1.95,0.94c-0.37-0.01-0.72-0.04-1.08-0.09c-0.03,0-0.07,0-0.11-0.02c-0.12-0.01-0.26-0.03-0.39-0.06
				c-0.33-0.08-0.65-0.1-0.94-0.06c-0.14,0.02-0.25,0.08-0.35,0.16c-0.1,0.09-0.16,0.2-0.18,0.32c-0.01,0.16,0.03,0.29,0.13,0.4
				c0.1,0.11,0.22,0.2,0.35,0.26c0.45,0.17,0.92,0.23,1.41,0.19c0.33-0.02,0.66,0,0.98,0.05c0.88,0.22,1.48,0.76,1.78,1.62
				c0.3,0.86,0.25,1.68-0.14,2.48c-0.37,0.6-0.89,0.98-1.58,1.14c-0.37,0.06-0.74,0.08-1.12,0.05c-0.46-0.04-0.91,0-1.34,0.12
				c-0.16,0.05-0.3,0.13-0.43,0.24c-0.13,0.11-0.21,0.24-0.23,0.4c-0.01,0.15,0.02,0.28,0.1,0.41s0.18,0.22,0.3,0.28
				c0.26,0.11,0.54,0.15,0.83,0.11c0.43-0.05,0.84-0.15,1.23-0.3c0.46-0.17,0.93-0.27,1.41-0.31c0.83-0.02,1.54,0.27,2.12,0.86
				C70.39,37.91,70.7,38.71,70.77,39.67z"/>
			<path class="st1" d="M65.12,45.81c-1.27,0-2.51-0.18-3.71-0.54c-2.1-0.63-3.92-1.88-5.42-3.73c-1.66-2.2-2.5-4.7-2.53-7.44
				c-0.03-2.72,0.67-5.26,2.09-7.52c1.4-2.06,3.31-3.49,5.7-4.26c2.39-0.77,4.78-0.74,7.12,0.1c0.72,0.26,1.29,0.71,1.7,1.32
				c0.28,0.48,0.43,0.96,0.47,1.46c0.03,0.42,0.02,0.84-0.03,1.26c-0.03,0.72-0.25,1.45-0.62,2.11l-0.06,0.1
				c-0.38,0.52-0.86,0.9-1.41,1.12c0.56,0.4,0.96,0.96,1.2,1.66c0.39,1.12,0.33,2.21-0.19,3.25c-0.19,0.32-0.41,0.59-0.65,0.83
				c0.67,0.17,1.26,0.51,1.77,1.03c0.75,0.86,1.14,1.86,1.22,3.04v0c0.07,1.1-0.03,2.12-0.3,3.05c-0.28,0.89-0.76,1.56-1.44,2.03
				c-0.61,0.42-1.32,0.71-2.12,0.86C66.96,45.72,66.03,45.81,65.12,45.81z M64.69,23.75c-0.93,0-1.87,0.15-2.83,0.46
				c-1.98,0.64-3.5,1.77-4.65,3.45c-1.19,1.91-1.79,4.08-1.77,6.41c0.03,2.35,0.72,4.39,2.11,6.24c1.24,1.52,2.69,2.53,4.42,3.05
				c1.75,0.52,3.61,0.6,5.54,0.21c0.53-0.1,0.99-0.28,1.36-0.54c0.3-0.21,0.52-0.53,0.66-0.97c0.2-0.68,0.28-1.47,0.22-2.34
				c-0.05-0.74-0.28-1.34-0.69-1.82c-0.35-0.35-0.78-0.54-1.35-0.52c-0.33,0.03-0.72,0.12-1.09,0.25c-0.47,0.17-0.96,0.29-1.46,0.35
				c-0.45,0.06-0.92,0-1.35-0.19c-0.33-0.17-0.57-0.38-0.75-0.67c-0.19-0.3-0.28-0.65-0.25-1.01c0.06-0.46,0.26-0.82,0.58-1.09
				c0.22-0.19,0.48-0.33,0.75-0.42c0.59-0.17,1.17-0.22,1.75-0.17c0.29,0.02,0.58,0.01,0.87-0.04c0.37-0.09,0.67-0.3,0.89-0.67
				c0.24-0.48,0.27-1.02,0.05-1.63c-0.19-0.54-0.52-0.84-1.08-0.98c-0.17-0.02-0.43-0.04-0.68-0.02c-0.61,0.05-1.23-0.03-1.82-0.25
				c-0.33-0.15-0.55-0.31-0.74-0.52c-0.28-0.3-0.42-0.71-0.39-1.13c0.07-0.44,0.24-0.75,0.51-0.99c0.24-0.21,0.54-0.36,0.87-0.41
				c0.42-0.06,0.87-0.03,1.33,0.08c0.07,0.02,0.16,0.03,0.24,0.04l0.17,0.02c0.32,0.05,0.64,0.07,0.96,0.08
				c0.49,0.02,0.81-0.13,1.09-0.49c0.21-0.38,0.32-0.79,0.34-1.24c0.04-0.36,0.05-0.67,0.02-0.96c-0.01-0.2-0.07-0.38-0.17-0.55
				c-0.15-0.21-0.37-0.39-0.69-0.51C66.69,23.93,65.69,23.75,64.69,23.75z M64.7,36.58L64.7,36.58L64.7,36.58z"/>
		</g>
		<g>
			<path id="XMLID_00000161603273824879518070000010972469558867137442_" class="st0" d="M88.99,27.78
				c-0.67,0.74-1.5,1.85-2.49,3.32c-1,1.47-1.35,2.53-1.05,3.16c0.29,0.63,1.07,1.73,2.34,3.3c0.66,0.68,1.2,1.38,1.63,2.12
				c0.43,0.73,0.59,1.53,0.46,2.4c-0.23,1.05-0.94,1.84-2.14,2.36c-1.23,0.46-2.45,0.44-3.67-0.06c-0.57-0.25-1.06-0.56-1.45-0.92
				c-0.4-0.36-0.76-0.77-1.09-1.22c-0.04-0.04-0.1-0.1-0.17-0.19c-0.24-0.29-0.54-0.68-0.91-1.16c-0.46,0.7-0.98,1.36-1.55,2
				s-1.25,1.12-2.02,1.46c-0.77,0.34-1.66,0.41-2.68,0.23c-1.14-0.23-1.96-0.65-2.47-1.27c-0.51-0.62-0.59-1.39-0.25-2.3
				c0.49-1,1.14-1.93,1.95-2.8c0.21-0.24,0.41-0.47,0.59-0.69c1.74-2.15,2.52-3.62,2.35-4.42s-0.89-1.81-2.14-3.02
				c-1.26-1.21-2.17-2.17-2.73-2.9c-0.57-0.72-0.72-1.53-0.46-2.41c0.21-0.56,0.63-1,1.27-1.33s1.34-0.48,2.1-0.47
				c0.11,0,0.22,0,0.33,0.02c0.88,0.09,1.63,0.34,2.27,0.75s1.32,1.03,2.04,1.88s1.27,1.64,1.66,2.39c0.45-0.91,1-1.77,1.65-2.59
				c0.65-0.82,1.52-1.48,2.62-1.98c0.68-0.28,1.39-0.46,2.13-0.55c0.74-0.08,1.42,0,2.04,0.24c0.61,0.25,1.04,0.71,1.28,1.38
				c0.16,0.58,0.07,1.15-0.26,1.71S89.44,27.29,88.99,27.78z"/>
			<path class="st1" d="M85.96,45.75c-0.77,0-1.52-0.16-2.28-0.46c-0.69-0.3-1.27-0.67-1.75-1.11c-0.42-0.39-0.82-0.83-1.18-1.3
				c-0.05-0.05-0.1-0.11-0.16-0.18c-0.04-0.05-0.08-0.1-0.12-0.15c-0.27,0.35-0.55,0.68-0.85,1.01c-0.67,0.73-1.46,1.31-2.35,1.7
				c-0.95,0.42-2.05,0.52-3.26,0.29c-1.38-0.28-2.4-0.82-3.06-1.62c-0.52-0.63-1.01-1.7-0.41-3.29c0.57-1.17,1.28-2.2,2.16-3.13
				l0.56-0.65c2.24-2.76,2.14-3.54,2.13-3.57c-0.07-0.34-0.41-1.11-1.86-2.51c-1.28-1.23-2.23-2.24-2.83-3
				c-0.76-0.97-0.98-2.12-0.63-3.31c0.32-0.87,0.91-1.5,1.78-1.94c0.78-0.4,1.63-0.59,2.56-0.58c0,0,0,0,0,0
				c0.13,0,0.28,0.01,0.41,0.02c1.03,0.11,1.94,0.41,2.7,0.9c0.73,0.46,1.47,1.14,2.26,2.07c0.31,0.37,0.6,0.73,0.86,1.09
				c0.28-0.43,0.58-0.86,0.91-1.27c0.74-0.94,1.75-1.71,2.98-2.27c0.79-0.33,1.6-0.54,2.44-0.63c0.91-0.1,1.75,0,2.52,0.31
				c0.88,0.35,1.52,1.03,1.85,1.97c0.25,0.91,0.12,1.77-0.34,2.55c-0.36,0.61-0.8,1.2-1.3,1.74c-0.63,0.7-1.44,1.78-2.4,3.2
				c-1.12,1.66-0.98,2.18-0.98,2.18c0.18,0.38,0.7,1.22,2.21,3.1c0.65,0.66,1.24,1.44,1.72,2.24c0.55,0.93,0.75,1.96,0.59,3.05
				c-0.31,1.45-1.23,2.48-2.73,3.13C87.4,45.62,86.68,45.75,85.96,45.75z M80.38,39.16l0.85,1.12c0.35,0.47,0.65,0.84,0.88,1.13
				c0.03,0.04,0.08,0.08,0.11,0.12l0.1,0.11c0.29,0.4,0.62,0.76,0.97,1.08c0.31,0.29,0.71,0.54,1.18,0.74
				c0.97,0.4,1.93,0.41,2.93,0.04c1.14-0.5,1.41-1.17,1.52-1.64c0.08-0.57-0.03-1.14-0.35-1.68c-0.39-0.66-0.89-1.31-1.49-1.93
				c-1.41-1.74-2.2-2.86-2.53-3.58c-0.46-0.99-0.1-2.3,1.13-4.13c1.03-1.53,1.87-2.65,2.58-3.43l0.01-0.01
				c0.41-0.43,0.76-0.9,1.05-1.4c0.19-0.33,0.24-0.62,0.15-0.95c-0.12-0.33-0.34-0.58-0.69-0.72c-0.46-0.19-0.97-0.24-1.56-0.18
				c-0.65,0.07-1.27,0.23-1.86,0.48c-0.91,0.42-1.67,0.99-2.22,1.68c-0.61,0.77-1.12,1.58-1.54,2.42l-0.87,1.77l-0.9-1.76
				c-0.35-0.68-0.86-1.42-1.53-2.2c-0.65-0.76-1.26-1.33-1.81-1.68c-0.51-0.32-1.13-0.52-1.85-0.6c-0.09-0.01-0.18-0.01-0.28-0.01
				c-0.59,0-1.11,0.12-1.59,0.36c-0.41,0.21-0.67,0.46-0.79,0.78c-0.15,0.51-0.06,0.98,0.31,1.45c0.54,0.69,1.43,1.63,2.64,2.8
				c1.41,1.36,2.21,2.51,2.42,3.52c0.25,1.15-0.54,2.78-2.55,5.26l-0.62,0.71c-0.77,0.82-1.37,1.67-1.81,2.58
				c-0.24,0.65-0.06,1.01,0.12,1.23c0.36,0.44,1,0.75,1.9,0.93c0.8,0.15,1.5,0.09,2.08-0.16c0.64-0.29,1.19-0.68,1.68-1.22
				c0.54-0.59,1.03-1.22,1.46-1.88L80.38,39.16z"/>
		</g>
		<g>
			<path id="XMLID_00000126297383965934801020000000482872455854017177_" class="st0" d="M115.1,40.32
				c-0.09,1.71-0.89,2.89-2.39,3.55c-1.42,0.67-2.91,0.98-4.47,0.95c-1.37-0.04-2.84-0.34-4.43-0.89c-1.59-0.55-2.82-1.35-3.7-2.41
				c-1.51-2.04-2.28-4.36-2.31-6.95s0.61-4.97,1.94-7.12c0.62-0.95,1.53-1.79,2.7-2.52c1.18-0.73,2.47-1.28,3.88-1.63
				c1.41-0.35,2.77-0.43,4.09-0.22s2.42,0.78,3.31,1.72c0.91,1.02,1.35,2.22,1.33,3.61c-0.02,1.02-0.37,1.91-1.03,2.67
				c-0.74,0.75-1.62,1.04-2.62,0.86c-0.35-0.1-0.7-0.25-1.03-0.44c-0.38-0.21-0.77-0.36-1.17-0.45c-0.66-0.09-1.2,0.04-1.62,0.41
				c-0.43,0.37-0.72,0.85-0.88,1.45c-0.16,0.59-0.17,1.18-0.04,1.75c0.22,0.8,0.63,1.41,1.24,1.81s1.31,0.51,2.12,0.31
				c0.23-0.06,0.46-0.14,0.69-0.22c0.57-0.24,1.16-0.35,1.75-0.34c0.72,0.08,1.31,0.41,1.77,0.99c0.46,0.58,0.74,1.24,0.86,1.99
				C115.12,39.57,115.13,39.95,115.1,40.32z"/>
			<path class="st1" d="M108.44,45.82c-0.08,0-0.15,0-0.23,0c-1.47-0.04-3.06-0.36-4.74-0.95c-1.75-0.61-3.14-1.52-4.13-2.71
				c-1.67-2.25-2.51-4.78-2.54-7.58c-0.03-2.77,0.67-5.35,2.08-7.66c0.72-1.09,1.73-2.04,3.02-2.85c1.26-0.79,2.66-1.38,4.17-1.75
				c1.53-0.39,3.04-0.47,4.48-0.24c1.53,0.24,2.83,0.92,3.88,2.01c1.1,1.23,1.63,2.68,1.6,4.31c-0.03,1.26-0.46,2.37-1.28,3.31
				c-1.01,1.02-2.22,1.41-3.54,1.18l-0.11-0.03c-0.43-0.13-0.84-0.3-1.24-0.52c-0.29-0.16-0.59-0.28-0.91-0.35
				c-0.39-0.05-0.61,0.08-0.75,0.2c-0.28,0.24-0.47,0.55-0.57,0.95c-0.12,0.44-0.13,0.85-0.03,1.26c0.15,0.54,0.42,0.94,0.83,1.21
				c0.37,0.25,0.8,0.3,1.33,0.17c0.18-0.05,0.38-0.12,0.59-0.19c0.65-0.27,1.37-0.4,2.11-0.4c1.08,0.12,1.9,0.58,2.53,1.37
				c0.56,0.71,0.92,1.54,1.06,2.46c0.06,0.46,0.08,0.9,0.04,1.34c-0.12,2.07-1.15,3.59-2.98,4.39
				C111.64,45.47,110.07,45.82,108.44,45.82z M108.93,23.95c-0.77,0-1.56,0.1-2.37,0.3c-1.31,0.33-2.52,0.84-3.6,1.51
				c-1.05,0.65-1.86,1.4-2.4,2.23c-1.2,1.96-1.8,4.17-1.77,6.57c0.03,2.4,0.72,4.49,2.12,6.37c0.72,0.86,1.82,1.57,3.22,2.06
				c1.48,0.52,2.88,0.8,4.13,0.84c1.38,0.05,2.74-0.26,4.01-0.86c1.18-0.52,1.75-1.37,1.82-2.7l0-0.03c0.02-0.3,0.02-0.6-0.03-0.91
				c-0.09-0.57-0.3-1.07-0.65-1.51c-0.29-0.37-0.64-0.57-1.1-0.62c-0.36-0.01-0.81,0.09-1.25,0.27c-0.3,0.11-0.56,0.19-0.81,0.26
				c-1.1,0.27-2.08,0.12-2.93-0.44c-0.81-0.54-1.37-1.34-1.65-2.38c-0.18-0.77-0.17-1.52,0.04-2.27c0.21-0.78,0.61-1.44,1.19-1.94
				c0.45-0.39,1.23-0.81,2.42-0.65c0.58,0.13,1.06,0.32,1.51,0.57c0.25,0.14,0.51,0.25,0.77,0.34c0.66,0.1,1.2-0.09,1.69-0.59
				c0.47-0.54,0.73-1.21,0.74-1.99c0.02-1.13-0.34-2.09-1.08-2.93c-0.72-0.76-1.62-1.22-2.72-1.4
				C109.82,23.99,109.38,23.95,108.93,23.95z"/>
		</g>
		<g>
			<path id="XMLID_00000011740598155590871540000004603411451179292046_" class="st0" d="M135.06,30.03
				c0.67,2.15,0.73,4.32,0.2,6.53s-1.56,4.05-3.09,5.52c-0.92,0.83-1.93,1.47-3.03,1.91c-2.66,1.01-5.27,0.88-7.84-0.39
				c-2.53-1.36-4.33-3.5-5.41-6.42c-0.56-1.59-0.79-3.25-0.67-4.95c0.13-1.6,0.58-3.09,1.34-4.46c0.75-1.37,1.74-2.48,2.95-3.32
				c1.38-0.91,2.93-1.39,4.62-1.46c1.7-0.07,3.3,0.16,4.81,0.7c1.43,0.5,2.67,1.3,3.74,2.39C133.75,27.15,134.54,28.47,135.06,30.03
				z M127.44,34.93c0.32-0.54,0.43-1.12,0.33-1.74c-0.1-0.62-0.39-1.14-0.84-1.55c-0.65-0.55-1.39-0.75-2.22-0.58
				c-0.68,0.19-1.21,0.58-1.59,1.17c-0.38,0.61-0.49,1.26-0.34,1.93c0.15,0.67,0.53,1.2,1.15,1.59c0.51,0.29,1.08,0.4,1.71,0.34
				c0.63-0.07,1.14-0.34,1.54-0.8c0.01-0.01,0.02-0.02,0.03-0.03c0-0.01,0-0.02,0.02-0.03C127.3,35.13,127.38,35.04,127.44,34.93z"
				/>
			<path class="st1" d="M125.63,45.65c-1.61,0-3.21-0.39-4.78-1.16c-2.77-1.49-4.75-3.83-5.9-6.97c-0.61-1.73-0.85-3.53-0.73-5.36
				c0.15-1.75,0.64-3.39,1.46-4.87c0.83-1.5,1.92-2.73,3.25-3.66c1.56-1.02,3.28-1.56,5.15-1.64c1.82-0.08,3.56,0.18,5.18,0.75
				c1.56,0.55,2.95,1.43,4.12,2.63c1.17,1.2,2.05,2.66,2.61,4.35l0.01,0.02c0.72,2.31,0.79,4.69,0.22,7.06
				c-0.57,2.39-1.71,4.41-3.37,6c-1.02,0.93-2.14,1.63-3.35,2.11C128.21,45.4,126.92,45.65,125.63,45.65z M124.69,23.96
				c-0.17,0-0.35,0-0.52,0.01c-1.51,0.06-2.89,0.5-4.12,1.3c-1.05,0.74-1.94,1.74-2.62,2.97c-0.68,1.24-1.09,2.61-1.22,4.06
				c-0.1,1.55,0.1,3.08,0.62,4.54c0.99,2.69,2.61,4.62,4.94,5.88c2.3,1.14,4.61,1.25,7.02,0.34c0.97-0.39,1.89-0.96,2.72-1.71
				c1.36-1.31,2.31-3,2.79-5.01c0.49-2.02,0.42-4.03-0.18-5.99c-0.47-1.4-1.19-2.6-2.15-3.58c-0.96-0.98-2.09-1.7-3.36-2.15
				C127.38,24.17,126.06,23.96,124.69,23.96z M125.28,37.1c-0.67,0-1.29-0.16-1.85-0.49c-0.88-0.55-1.42-1.29-1.62-2.23
				c-0.21-0.93-0.06-1.83,0.46-2.67c0.53-0.82,1.26-1.36,2.18-1.61c1.2-0.24,2.25,0.03,3.13,0.78c0.65,0.59,1.04,1.3,1.18,2.15
				c0.14,0.86-0.01,1.67-0.45,2.42l0,0c-0.03,0.05-0.06,0.1-0.09,0.14v0.07l-0.29,0.29c-0.54,0.64-1.28,1.03-2.17,1.12
				C125.59,37.09,125.43,37.1,125.28,37.1z M125.28,31.99c-0.12,0-0.24,0.01-0.38,0.04c-0.38,0.11-0.7,0.35-0.95,0.74
				c-0.23,0.37-0.29,0.75-0.2,1.17c0.09,0.41,0.32,0.72,0.71,0.96c0.29,0.17,0.66,0.23,1.08,0.19c0.27-0.03,0.5-0.12,0.69-0.26
				l0.3-0.32c0.03-0.03,0.05-0.05,0.07-0.09c0.2-0.34,0.27-0.68,0.2-1.07c-0.07-0.4-0.24-0.71-0.53-0.98
				C125.96,32.12,125.64,31.99,125.28,31.99z"/>
		</g>
		<g>
			<path id="XMLID_00000124155978425996732090000009870083808794277309_" class="st0" d="M144.48,35.28
				c0.22,0.88,0.74,1.52,1.54,1.93c0.35,0.15,0.71,0.22,1.06,0.22c0.35,0,0.71-0.03,1.08-0.09c0.57-0.1,1.15-0.11,1.72-0.02
				c0.68,0.18,1.19,0.57,1.55,1.17c0.4,0.82,0.45,1.79,0.16,2.91c-0.29,1.11-0.8,1.92-1.53,2.41c-1.09,0.56-2.35,0.83-3.78,0.81
				c-1.43-0.02-2.64-0.1-3.62-0.23c-0.99-0.14-1.95-0.5-2.88-1.08c-0.69-0.49-1.2-1.16-1.52-2.02s-0.55-1.78-0.66-2.76
				c-0.12-0.98-0.19-1.89-0.22-2.73c-0.01-0.19-0.02-0.37-0.03-0.55c-0.12-1.64-0.11-3.38,0.02-5.24c0.13-1.86,0.55-3.53,1.26-5.02
				c0.62-1.11,1.41-1.8,2.34-2.06s1.9,0.06,2.88,0.97c0.63,0.68,0.99,1.42,1.07,2.23s0.06,1.64-0.05,2.48
				c-0.02,0.24-0.04,0.48-0.05,0.72c-0.06,0.64-0.15,1.21-0.27,1.72c-0.12,0.49-0.2,1.05-0.27,1.69
				C144.18,33.55,144.25,34.4,144.48,35.28z"/>
			<path class="st1" d="M146.41,45.62c-0.05,0-0.11,0-0.16,0c-1.46-0.02-2.72-0.1-3.75-0.24c-1.13-0.16-2.23-0.57-3.27-1.22
				c-0.89-0.63-1.53-1.47-1.92-2.51c-0.36-0.93-0.6-1.94-0.72-3c-0.12-0.99-0.19-1.94-0.23-2.81l-0.03-0.53
				c-0.12-1.66-0.11-3.47,0.02-5.37c0.14-1.98,0.59-3.79,1.35-5.38c0.79-1.41,1.78-2.26,2.98-2.59c1.29-0.36,2.57,0.04,3.82,1.2
				c0.84,0.89,1.29,1.84,1.39,2.87c0.08,0.88,0.06,1.8-0.06,2.71c-0.02,0.18-0.03,0.4-0.04,0.63c-0.07,0.73-0.17,1.34-0.29,1.9
				c-0.11,0.45-0.19,0.97-0.25,1.57c-0.07,0.71-0.01,1.45,0.19,2.21v0c0.15,0.6,0.48,1.01,1.02,1.29c0.38,0.15,0.98,0.12,1.52,0.03
				c0.67-0.12,1.36-0.13,2.05-0.02c1.03,0.26,1.75,0.81,2.24,1.65c0.54,1.11,0.61,2.32,0.26,3.66c-0.35,1.35-1.01,2.35-1.94,2.98
				l-0.1,0.06C149.31,45.31,147.94,45.62,146.41,45.62z M141.59,23.82c-0.17,0-0.3,0.03-0.37,0.06c-0.68,0.19-1.25,0.71-1.74,1.59
				c-0.62,1.31-1.01,2.88-1.13,4.61c-0.13,1.8-0.13,3.52-0.02,5.1l0.03,0.56c0.03,0.84,0.1,1.73,0.21,2.67
				c0.1,0.89,0.31,1.74,0.61,2.52c0.26,0.68,0.64,1.19,1.17,1.57c0.75,0.47,1.59,0.79,2.43,0.9c0.94,0.13,2.12,0.21,3.5,0.23
				c1.23,0.02,2.33-0.21,3.26-0.67c0.5-0.35,0.86-0.96,1.08-1.8c0.23-0.89,0.2-1.61-0.09-2.22c-0.18-0.3-0.48-0.53-0.9-0.64
				c-0.37-0.06-0.83-0.05-1.29,0.03c-0.94,0.16-1.82,0.18-2.7-0.18c-1.12-0.56-1.83-1.45-2.12-2.6l0,0
				c-0.25-0.99-0.33-1.97-0.24-2.9c0.07-0.68,0.16-1.29,0.29-1.81c0.1-0.46,0.19-1,0.24-1.59c0.01-0.2,0.02-0.46,0.05-0.71
				c0.11-0.81,0.13-1.57,0.06-2.3c-0.06-0.59-0.32-1.13-0.81-1.65C142.44,23.95,141.92,23.82,141.59,23.82z"/>
		</g>
		<g>
			<path id="XMLID_00000181786607713098409590000016812075967464844725_" class="st0" d="M159.7,35.28
				c0.22,0.88,0.74,1.52,1.54,1.93c0.35,0.15,0.71,0.22,1.06,0.22c0.35,0,0.71-0.03,1.08-0.09c0.57-0.1,1.15-0.11,1.72-0.02
				c0.68,0.18,1.19,0.57,1.55,1.17c0.4,0.82,0.45,1.79,0.16,2.91c-0.29,1.11-0.8,1.92-1.53,2.41c-1.09,0.56-2.35,0.83-3.78,0.81
				c-1.43-0.02-2.64-0.1-3.62-0.23c-0.99-0.14-1.95-0.5-2.88-1.08c-0.69-0.49-1.2-1.16-1.52-2.02s-0.55-1.78-0.66-2.76
				c-0.12-0.98-0.19-1.89-0.22-2.73c-0.01-0.19-0.02-0.37-0.03-0.55c-0.12-1.64-0.11-3.38,0.02-5.24c0.13-1.86,0.55-3.53,1.26-5.02
				c0.62-1.11,1.41-1.8,2.34-2.06s1.9,0.06,2.88,0.97c0.63,0.68,0.99,1.42,1.07,2.23s0.06,1.64-0.05,2.48
				c-0.02,0.24-0.04,0.48-0.05,0.72c-0.06,0.64-0.15,1.21-0.27,1.72c-0.12,0.49-0.2,1.05-0.27,1.69
				C159.4,33.55,159.47,34.4,159.7,35.28z"/>
			<path class="st1" d="M161.63,45.62c-0.05,0-0.11,0-0.16,0c-1.46-0.02-2.72-0.1-3.75-0.24c-1.13-0.16-2.23-0.57-3.27-1.22
				c-0.89-0.63-1.53-1.47-1.92-2.51c-0.36-0.93-0.6-1.94-0.72-3c-0.12-0.99-0.19-1.94-0.23-2.81l-0.03-0.53
				c-0.12-1.66-0.11-3.47,0.02-5.37c0.14-1.98,0.59-3.79,1.35-5.38c0.79-1.41,1.78-2.26,2.98-2.59c1.29-0.36,2.57,0.04,3.82,1.2
				c0.84,0.89,1.29,1.84,1.39,2.87c0.08,0.88,0.06,1.8-0.06,2.71c-0.02,0.18-0.03,0.4-0.04,0.63c-0.07,0.73-0.17,1.34-0.29,1.9
				c-0.11,0.45-0.19,0.97-0.25,1.57c-0.07,0.71-0.01,1.45,0.19,2.21v0c0.15,0.6,0.48,1.01,1.02,1.29c0.38,0.15,0.98,0.12,1.52,0.03
				c0.67-0.12,1.36-0.13,2.05-0.02c1.03,0.26,1.75,0.81,2.24,1.65c0.54,1.11,0.61,2.32,0.26,3.66c-0.35,1.35-1.01,2.35-1.94,2.98
				l-0.1,0.06C164.53,45.31,163.16,45.62,161.63,45.62z M156.81,23.82c-0.17,0-0.3,0.03-0.37,0.06c-0.68,0.19-1.25,0.71-1.74,1.59
				c-0.62,1.31-1.01,2.88-1.13,4.61c-0.13,1.8-0.13,3.52-0.02,5.1l0.03,0.56c0.03,0.84,0.1,1.73,0.21,2.67
				c0.1,0.89,0.31,1.74,0.61,2.52c0.26,0.68,0.64,1.19,1.17,1.57c0.75,0.47,1.59,0.79,2.43,0.9c0.94,0.13,2.12,0.21,3.5,0.23
				c1.24,0.02,2.33-0.21,3.26-0.67c0.5-0.35,0.86-0.96,1.08-1.8c0.23-0.89,0.2-1.61-0.09-2.22c-0.18-0.3-0.48-0.53-0.9-0.64
				c-0.37-0.06-0.83-0.05-1.29,0.03c-0.94,0.16-1.82,0.18-2.7-0.18c-1.12-0.56-1.83-1.45-2.12-2.6l0,0
				c-0.25-0.99-0.33-1.97-0.24-2.9c0.07-0.68,0.16-1.29,0.29-1.81c0.1-0.46,0.19-1,0.24-1.59c0.01-0.2,0.02-0.46,0.05-0.71
				c0.11-0.81,0.13-1.57,0.06-2.3c-0.06-0.59-0.32-1.13-0.81-1.65C157.65,23.95,157.14,23.82,156.81,23.82z"/>
		</g>
		<g>
			<path id="XMLID_00000020371731322545166950000003710915828247830158_" class="st0" d="M182.77,39.67
				c0.06,0.99-0.03,1.89-0.27,2.7c-0.21,0.66-0.56,1.15-1.05,1.49c-0.49,0.34-1.07,0.57-1.73,0.7c-2.1,0.42-4.11,0.34-6.02-0.23
				c-1.91-0.57-3.55-1.71-4.93-3.41c-1.51-2.01-2.28-4.29-2.31-6.83s0.61-4.87,1.94-6.98c1.26-1.85,2.98-3.13,5.16-3.84
				c2.18-0.7,4.34-0.67,6.48,0.09c0.51,0.19,0.91,0.5,1.2,0.94c0.18,0.3,0.28,0.63,0.3,0.98c0.03,0.35,0.02,0.71-0.02,1.08
				c-0.03,0.62-0.2,1.2-0.5,1.73c-0.48,0.66-1.13,0.97-1.95,0.94c-0.37-0.01-0.72-0.04-1.08-0.09c-0.03,0-0.07,0-0.11-0.02
				c-0.12-0.01-0.26-0.03-0.39-0.06c-0.33-0.08-0.65-0.1-0.94-0.06c-0.14,0.02-0.25,0.08-0.35,0.16c-0.1,0.09-0.16,0.2-0.18,0.32
				c-0.01,0.16,0.03,0.29,0.13,0.4c0.1,0.11,0.22,0.2,0.35,0.26c0.45,0.17,0.92,0.23,1.41,0.19c0.33-0.02,0.66,0,0.98,0.05
				c0.88,0.22,1.48,0.76,1.78,1.62c0.3,0.86,0.25,1.68-0.14,2.48c-0.37,0.6-0.89,0.98-1.58,1.14c-0.37,0.06-0.74,0.08-1.12,0.05
				c-0.46-0.04-0.91,0-1.34,0.12c-0.16,0.05-0.3,0.13-0.43,0.24c-0.13,0.11-0.21,0.24-0.23,0.4c-0.01,0.15,0.02,0.28,0.1,0.41
				s0.18,0.22,0.3,0.28c0.26,0.11,0.54,0.15,0.83,0.11c0.43-0.05,0.84-0.15,1.23-0.3c0.46-0.17,0.93-0.27,1.41-0.31
				c0.83-0.02,1.54,0.27,2.12,0.86C182.39,37.91,182.7,38.71,182.77,39.67z"/>
			<path class="st1" d="M177.12,45.81c-1.27,0-2.51-0.18-3.71-0.54c-2.1-0.63-3.92-1.88-5.42-3.73c-1.66-2.2-2.5-4.7-2.53-7.44
				c-0.03-2.72,0.67-5.26,2.09-7.52c1.4-2.06,3.31-3.49,5.7-4.26c2.38-0.77,4.78-0.74,7.12,0.1c0.72,0.26,1.29,0.71,1.7,1.32
				c0.28,0.48,0.43,0.96,0.47,1.46c0.03,0.42,0.02,0.84-0.03,1.26c-0.03,0.72-0.25,1.45-0.62,2.11l-0.06,0.1
				c-0.38,0.52-0.86,0.9-1.41,1.12c0.56,0.4,0.96,0.96,1.2,1.66c0.39,1.12,0.33,2.21-0.19,3.25c-0.19,0.32-0.41,0.59-0.65,0.83
				c0.67,0.17,1.26,0.51,1.77,1.03c0.75,0.86,1.14,1.86,1.22,3.04v0c0.07,1.1-0.03,2.12-0.3,3.05c-0.28,0.89-0.76,1.56-1.44,2.03
				c-0.61,0.42-1.32,0.71-2.12,0.86C178.96,45.72,178.03,45.81,177.12,45.81z M176.69,23.75c-0.93,0-1.87,0.15-2.83,0.46
				c-1.98,0.64-3.5,1.77-4.65,3.45c-1.19,1.91-1.79,4.08-1.77,6.41c0.03,2.35,0.72,4.39,2.11,6.24c1.24,1.52,2.69,2.53,4.42,3.05
				c1.75,0.52,3.61,0.6,5.54,0.21c0.53-0.1,0.99-0.28,1.36-0.54c0.3-0.21,0.52-0.53,0.66-0.97c0.2-0.68,0.28-1.47,0.22-2.34
				c-0.05-0.74-0.28-1.34-0.69-1.82c-0.35-0.35-0.78-0.54-1.35-0.52c-0.33,0.03-0.72,0.12-1.09,0.25c-0.47,0.17-0.96,0.29-1.46,0.35
				c-0.45,0.06-0.92,0-1.35-0.19c-0.33-0.17-0.57-0.38-0.75-0.67c-0.19-0.3-0.28-0.65-0.25-1.01c0.06-0.46,0.26-0.82,0.58-1.09
				c0.22-0.19,0.48-0.33,0.75-0.42c0.6-0.17,1.17-0.22,1.75-0.17c0.29,0.02,0.58,0.01,0.87-0.04c0.37-0.09,0.67-0.3,0.89-0.67
				c0.24-0.48,0.27-1.02,0.05-1.63c-0.19-0.54-0.52-0.84-1.08-0.98c-0.17-0.02-0.43-0.04-0.68-0.02c-0.61,0.05-1.23-0.03-1.82-0.25
				c-0.33-0.15-0.55-0.31-0.74-0.52c-0.28-0.3-0.42-0.71-0.39-1.13c0.07-0.44,0.24-0.75,0.51-0.99c0.24-0.21,0.54-0.36,0.87-0.41
				c0.42-0.06,0.87-0.03,1.33,0.08c0.07,0.02,0.16,0.03,0.24,0.04l0.17,0.02c0.32,0.05,0.64,0.07,0.96,0.08
				c0.49,0.02,0.81-0.13,1.09-0.49c0.21-0.38,0.32-0.79,0.34-1.24c0.04-0.36,0.05-0.67,0.02-0.96c-0.01-0.2-0.07-0.38-0.17-0.55
				c-0.15-0.21-0.37-0.39-0.69-0.51C178.69,23.93,177.69,23.75,176.69,23.75z M176.7,36.58L176.7,36.58L176.7,36.58z"/>
		</g>
		<g>
			<path id="XMLID_00000072972960098603548410000006259222627570285754_" class="st0" d="M200.05,40.32
				c-0.09,1.71-0.89,2.89-2.39,3.55c-1.42,0.67-2.91,0.98-4.47,0.95c-1.37-0.04-2.84-0.34-4.43-0.89c-1.59-0.55-2.82-1.35-3.7-2.41
				c-1.51-2.04-2.28-4.36-2.31-6.95s0.61-4.97,1.94-7.12c0.62-0.95,1.53-1.79,2.7-2.52c1.18-0.73,2.47-1.28,3.88-1.63
				c1.41-0.35,2.77-0.43,4.09-0.22s2.42,0.78,3.31,1.72c0.91,1.02,1.35,2.22,1.33,3.61c-0.02,1.02-0.37,1.91-1.03,2.67
				c-0.74,0.75-1.62,1.04-2.62,0.86c-0.35-0.1-0.7-0.25-1.03-0.44c-0.38-0.21-0.77-0.36-1.17-0.45c-0.66-0.09-1.2,0.04-1.62,0.41
				c-0.43,0.37-0.72,0.85-0.88,1.45c-0.16,0.59-0.17,1.18-0.04,1.75c0.22,0.8,0.63,1.41,1.24,1.81s1.31,0.51,2.12,0.31
				c0.23-0.06,0.46-0.14,0.69-0.22c0.57-0.24,1.16-0.35,1.75-0.34c0.72,0.08,1.31,0.41,1.77,0.99c0.46,0.58,0.74,1.24,0.86,1.99
				C200.07,39.57,200.08,39.95,200.05,40.32z"/>
			<path class="st1" d="M193.4,45.82c-0.08,0-0.15,0-0.23,0c-1.47-0.04-3.06-0.36-4.74-0.95c-1.75-0.61-3.14-1.52-4.13-2.71
				c-1.67-2.25-2.51-4.78-2.54-7.58c-0.03-2.77,0.67-5.35,2.08-7.66c0.72-1.09,1.73-2.04,3.02-2.85c1.26-0.79,2.66-1.38,4.17-1.75
				c1.53-0.39,3.04-0.47,4.48-0.24c1.53,0.24,2.83,0.92,3.88,2.01c1.1,1.23,1.63,2.68,1.6,4.31c-0.03,1.26-0.46,2.37-1.28,3.31
				c-1.01,1.02-2.22,1.41-3.54,1.18l-0.11-0.03c-0.43-0.13-0.84-0.3-1.24-0.52c-0.29-0.16-0.59-0.28-0.91-0.35
				c-0.39-0.05-0.61,0.08-0.75,0.2c-0.28,0.24-0.47,0.55-0.57,0.95c-0.12,0.44-0.13,0.85-0.03,1.26c0.15,0.54,0.42,0.94,0.83,1.21
				c0.37,0.25,0.8,0.3,1.33,0.17c0.18-0.05,0.38-0.12,0.59-0.19c0.65-0.27,1.38-0.4,2.11-0.4c1.08,0.12,1.9,0.58,2.53,1.37
				c0.56,0.71,0.92,1.54,1.06,2.46c0.06,0.46,0.08,0.9,0.04,1.34c-0.12,2.07-1.15,3.59-2.98,4.39
				C196.6,45.47,195.02,45.82,193.4,45.82z M193.89,23.95c-0.77,0-1.56,0.1-2.37,0.3c-1.31,0.33-2.52,0.84-3.6,1.51
				c-1.05,0.65-1.86,1.4-2.4,2.23c-1.2,1.96-1.8,4.17-1.77,6.57c0.03,2.4,0.72,4.49,2.12,6.37c0.72,0.86,1.82,1.57,3.22,2.06
				c1.48,0.52,2.88,0.8,4.13,0.84c1.39,0.05,2.74-0.26,4.01-0.86c1.18-0.52,1.75-1.37,1.82-2.7l0-0.03c0.02-0.3,0.02-0.6-0.03-0.91
				c-0.09-0.57-0.3-1.07-0.65-1.51c-0.29-0.37-0.64-0.57-1.1-0.62c-0.36-0.01-0.81,0.09-1.25,0.27c-0.3,0.11-0.56,0.19-0.81,0.26
				c-1.1,0.27-2.08,0.12-2.93-0.44c-0.81-0.54-1.37-1.34-1.65-2.38c-0.18-0.77-0.17-1.52,0.04-2.27c0.21-0.78,0.61-1.44,1.19-1.94
				c0.45-0.39,1.23-0.81,2.42-0.65c0.58,0.13,1.06,0.32,1.51,0.57c0.25,0.14,0.51,0.25,0.77,0.34c0.66,0.1,1.2-0.09,1.69-0.59
				c0.47-0.54,0.73-1.21,0.74-1.99c0.02-1.13-0.34-2.09-1.08-2.93c-0.72-0.76-1.62-1.22-2.72-1.4
				C194.77,23.99,194.33,23.95,193.89,23.95z"/>
		</g>
		<g>
			<path id="XMLID_00000009548904545459814400000014418187515069445249_" class="st0" d="M217.83,24.35
				c0.7,0.65,1.08,1.47,1.14,2.47s-0.23,1.85-0.89,2.55c-0.4,0.38-0.83,0.6-1.31,0.66c-0.48,0.07-0.97,0.1-1.48,0.1
				c-0.34,0-0.63,0.1-0.85,0.31c-0.22,0.21-0.39,0.63-0.49,1.27c-0.1,0.64-0.16,1.61-0.16,2.91c0,1.07-0.02,2.14-0.05,3.2
				c-0.02,0.53-0.04,1.07-0.05,1.61c0,0.81-0.11,1.6-0.33,2.36s-0.62,1.42-1.22,1.97c-0.62,0.52-1.34,0.8-2.16,0.84
				c-0.81,0.04-1.55-0.19-2.22-0.66c-0.53-0.43-0.94-0.95-1.22-1.55s-0.46-1.25-0.55-1.91c-0.09-1.05-0.08-2.11,0.05-3.19
				c0.02-0.26,0.04-0.52,0.05-0.78c0.1-1.58,0.09-3.17-0.03-4.75c-0.05-0.54-0.24-0.95-0.57-1.22s-0.75-0.45-1.27-0.53
				c-0.9-0.15-1.65-0.47-2.27-0.97c-0.62-0.5-0.95-1.22-1.02-2.16c-0.01-0.96,0.29-1.77,0.91-2.42c0.61-0.66,1.41-1.06,2.38-1.22
				c1.46-0.19,2.94-0.25,4.45-0.2c0.45,0.01,0.88,0.02,1.31,0.02c2.03-0.05,4.05,0.1,6.05,0.45
				C216.76,23.66,217.36,23.94,217.83,24.35z"/>
			<path class="st1" d="M209.82,45.61c-0.96,0-1.84-0.29-2.63-0.85c-0.69-0.55-1.2-1.2-1.54-1.95c-0.32-0.7-0.54-1.44-0.63-2.21
				c-0.1-1.15-0.09-2.29,0.05-3.43c0.02-0.21,0.03-0.46,0.04-0.71c0.1-1.56,0.09-3.11-0.03-4.63c-0.02-0.25-0.1-0.43-0.21-0.53
				c-0.19-0.16-0.46-0.26-0.8-0.32c-1.07-0.17-1.99-0.57-2.74-1.18c-0.83-0.68-1.3-1.64-1.38-2.86c-0.02-1.27,0.38-2.32,1.17-3.17
				c0.77-0.82,1.76-1.33,2.94-1.52c1.53-0.2,3.09-0.27,4.65-0.22c0.43,0.01,0.86,0.02,1.28,0.02c2.06-0.06,4.17,0.1,6.22,0.47
				c0.92,0.18,1.68,0.55,2.28,1.08l0.01,0.01c0.89,0.82,1.38,1.88,1.46,3.14c0.08,1.28-0.31,2.39-1.16,3.29
				c-0.59,0.56-1.21,0.87-1.9,0.97c-0.53,0.07-1.07,0.11-1.62,0.11c-0.12,0-0.16,0.03-0.17,0.05c0,0,0,0,0,0c0,0-0.1,0.16-0.19,0.7
				c-0.1,0.58-0.14,1.51-0.14,2.76c0,1.08-0.02,2.16-0.05,3.23c-0.02,0.54-0.04,1.06-0.05,1.6c0,0.88-0.12,1.77-0.37,2.62
				c-0.27,0.93-0.77,1.75-1.5,2.42c-0.83,0.7-1.76,1.05-2.79,1.1C209.96,45.61,209.89,45.61,209.82,45.61z M207.7,24.02
				c-1.14,0-2.26,0.07-3.36,0.21c-0.72,0.12-1.31,0.42-1.78,0.91c-0.44,0.47-0.65,1.03-0.64,1.73c0.04,0.6,0.25,1.08,0.65,1.4
				c0.48,0.39,1.07,0.64,1.8,0.76c0.69,0.11,1.28,0.36,1.75,0.75c0.54,0.44,0.85,1.08,0.93,1.89c0.13,1.64,0.14,3.28,0.03,4.91
				c-0.01,0.25-0.03,0.52-0.05,0.79c-0.12,1.04-0.14,2.04-0.05,3.02c0.07,0.53,0.22,1.07,0.46,1.58c0.22,0.47,0.52,0.86,0.94,1.2
				c0.44,0.32,0.98,0.47,1.55,0.45c0.59-0.03,1.11-0.23,1.56-0.61c0.42-0.39,0.73-0.89,0.9-1.48c0.19-0.67,0.29-1.37,0.29-2.08
				c0.01-0.57,0.03-1.11,0.05-1.65c0.03-1.04,0.05-2.1,0.05-3.16c0-1.37,0.06-2.38,0.17-3.07c0.14-0.89,0.4-1.47,0.8-1.84
				c0.41-0.38,0.93-0.58,1.53-0.58c0.46,0,0.91-0.03,1.35-0.09c0.27-0.04,0.52-0.17,0.77-0.4c0.43-0.46,0.63-1.03,0.58-1.76
				c-0.05-0.74-0.31-1.32-0.82-1.79c-0.33-0.29-0.78-0.5-1.32-0.6c-1.9-0.34-3.87-0.49-5.83-0.43c-0.46,0.01-0.91,0-1.36-0.02
				C208.33,24.03,208.02,24.02,207.7,24.02z"/>
		</g>
		<g>
			<path id="XMLID_00000167368478645421088370000008617306178323068314_" class="st0" d="M228.13,33.1
				c0.01,1.84-0.01,3.67-0.05,5.48c-0.01,0.34-0.02,0.69-0.03,1.03c0,0.84-0.11,1.66-0.33,2.45s-0.62,1.47-1.22,2.03
				c-0.56,0.5-1.18,0.76-1.85,0.78c-0.67,0.02-1.32-0.18-1.93-0.59c-0.88-0.6-1.45-1.33-1.71-2.16s-0.45-1.92-0.55-3.26
				c-0.01-0.07-0.02-0.15-0.03-0.22c-0.27-2.53-0.41-5.07-0.41-7.62c0-0.3-0.01-0.59-0.02-0.86c-0.04-1.61,0.03-2.92,0.2-3.91
				c0.18-0.99,0.68-1.89,1.52-2.69c0.91-0.77,1.92-1.02,3.05-0.73c0.99,0.25,1.7,0.74,2.14,1.48s0.73,1.77,0.88,3.12
				C227.99,29.29,228.1,31.18,228.13,33.1z"/>
			<path class="st1" d="M224.56,45.88c-0.84,0-1.64-0.26-2.39-0.77c-1.06-0.74-1.77-1.64-2.1-2.69c-0.29-0.91-0.49-2.08-0.6-3.48
				l-0.03-0.16c-0.28-2.57-0.42-5.18-0.42-7.76c0-0.29-0.01-0.56-0.02-0.82c-0.04-1.71,0.03-3.05,0.22-4.12
				c0.21-1.2,0.82-2.28,1.81-3.23c1.19-1.01,2.55-1.34,3.98-0.98c1.25,0.32,2.18,0.97,2.75,1.93c0.52,0.87,0.85,2.02,1.01,3.52
				c0.21,1.87,0.33,3.81,0.35,5.77v0.01c0.01,1.84-0.01,3.7-0.05,5.51l-0.03,1.04c0,0.9-0.12,1.82-0.36,2.69
				c-0.27,0.96-0.77,1.8-1.49,2.49c-0.76,0.68-1.6,1.02-2.5,1.05C224.64,45.88,224.6,45.88,224.56,45.88z M223.89,23.72
				c-0.55,0-1.04,0.2-1.52,0.61c-0.64,0.62-1.04,1.32-1.18,2.1c-0.16,0.92-0.23,2.16-0.19,3.71c0.01,0.27,0.02,0.57,0.02,0.89
				c0,2.51,0.13,5.04,0.4,7.52l0.02,0.16c0.11,1.34,0.28,2.36,0.52,3.13c0.2,0.63,0.63,1.17,1.33,1.65
				c0.43,0.29,0.87,0.44,1.33,0.42c0.44-0.01,0.83-0.19,1.22-0.53c0.44-0.42,0.75-0.93,0.92-1.55c0.19-0.7,0.29-1.44,0.29-2.19
				l0.03-1.06c0.04-1.79,0.06-3.62,0.05-5.45c-0.02-1.89-0.13-3.76-0.34-5.57c-0.13-1.2-0.38-2.11-0.74-2.72
				c-0.3-0.5-0.8-0.84-1.53-1.02C224.3,23.75,224.09,23.72,223.89,23.72z"/>
		</g>
		<g>
			<path id="XMLID_00000027581039292427996420000004503719191674286733_" class="st0" d="M249.25,30.03
				c0.67,2.15,0.73,4.32,0.2,6.53s-1.56,4.05-3.09,5.52c-0.92,0.83-1.93,1.47-3.03,1.91c-2.66,1.01-5.27,0.88-7.84-0.39
				c-2.53-1.36-4.33-3.5-5.41-6.42c-0.56-1.59-0.79-3.25-0.67-4.95c0.13-1.6,0.58-3.09,1.34-4.46c0.75-1.37,1.74-2.48,2.95-3.32
				c1.38-0.91,2.93-1.39,4.62-1.46c1.7-0.07,3.3,0.16,4.81,0.7c1.43,0.5,2.67,1.3,3.74,2.39C247.94,27.15,248.73,28.47,249.25,30.03
				z M241.63,34.93c0.32-0.54,0.43-1.12,0.33-1.74c-0.1-0.62-0.39-1.14-0.84-1.55c-0.65-0.55-1.39-0.75-2.22-0.58
				c-0.68,0.19-1.21,0.58-1.59,1.17c-0.38,0.61-0.49,1.26-0.34,1.93c0.15,0.67,0.53,1.2,1.15,1.59c0.51,0.29,1.08,0.4,1.71,0.34
				c0.63-0.07,1.14-0.34,1.54-0.8c0.01-0.01,0.02-0.02,0.03-0.03c0-0.01,0-0.02,0.02-0.03C241.49,35.13,241.56,35.04,241.63,34.93z"
				/>
			<path class="st1" d="M239.82,45.65c-1.61,0-3.21-0.39-4.78-1.16c-2.77-1.49-4.75-3.83-5.9-6.97c-0.61-1.73-0.85-3.53-0.73-5.36
				c0.15-1.75,0.64-3.39,1.46-4.87c0.83-1.5,1.92-2.73,3.25-3.66c1.56-1.02,3.28-1.56,5.15-1.64c1.82-0.08,3.56,0.18,5.18,0.75
				c1.56,0.55,2.95,1.43,4.12,2.63c1.17,1.2,2.05,2.66,2.61,4.35l0.01,0.02c0.72,2.31,0.79,4.69,0.22,7.06
				c-0.57,2.39-1.71,4.41-3.37,6c-1.02,0.93-2.14,1.63-3.35,2.11C242.4,45.4,241.1,45.65,239.82,45.65z M238.88,23.96
				c-0.17,0-0.35,0-0.52,0.01c-1.51,0.06-2.89,0.5-4.12,1.3c-1.05,0.74-1.94,1.74-2.62,2.97c-0.68,1.24-1.09,2.61-1.22,4.06
				c-0.1,1.55,0.1,3.08,0.62,4.54c0.99,2.69,2.61,4.62,4.94,5.88c2.3,1.14,4.61,1.25,7.02,0.34c0.97-0.39,1.89-0.96,2.72-1.71
				c1.36-1.31,2.31-3,2.79-5.01c0.49-2.02,0.42-4.03-0.18-5.99c-0.47-1.4-1.19-2.6-2.15-3.58c-0.96-0.98-2.09-1.7-3.36-2.15
				C241.57,24.17,240.25,23.96,238.88,23.96z M239.47,37.1c-0.67,0-1.29-0.16-1.85-0.49c-0.88-0.55-1.42-1.29-1.62-2.23
				c-0.21-0.93-0.06-1.83,0.46-2.67c0.53-0.82,1.26-1.36,2.18-1.61c1.2-0.24,2.25,0.03,3.13,0.78c0.65,0.59,1.04,1.3,1.18,2.15
				c0.14,0.86-0.01,1.67-0.45,2.42l0,0c-0.03,0.05-0.06,0.1-0.09,0.14v0.07l-0.29,0.29c-0.54,0.64-1.28,1.03-2.17,1.12
				C239.77,37.09,239.62,37.1,239.47,37.1z M239.46,31.99c-0.12,0-0.24,0.01-0.38,0.04c-0.38,0.11-0.7,0.35-0.95,0.74
				c-0.23,0.37-0.29,0.75-0.2,1.17c0.09,0.41,0.32,0.72,0.71,0.96c0.29,0.17,0.66,0.23,1.08,0.19c0.27-0.03,0.5-0.12,0.69-0.26
				l0.3-0.32c0.03-0.03,0.05-0.05,0.07-0.09c0.2-0.34,0.27-0.68,0.2-1.07c-0.07-0.4-0.24-0.71-0.53-0.98
				C240.14,32.12,239.83,31.99,239.46,31.99z"/>
		</g>
		<g>
			<path id="XMLID_00000075153623024377723630000005017880228749020332_" class="st0" d="M253.02,26.09
				c0.34-0.78,0.83-1.4,1.46-1.86c0.63-0.46,1.45-0.63,2.45-0.52c0.98,0.16,1.83,0.56,2.55,1.2s1.33,1.4,1.84,2.26
				c0.5,0.86,0.92,1.7,1.24,2.52c0.01,0.01,0.02,0.02,0.02,0.03c0.07,0.22,0.18,0.42,0.33,0.61c0.09,0.08,0.2,0.15,0.31,0.19
				c0.11,0.04,0.23,0.04,0.34,0c0.21-0.08,0.32-0.24,0.34-0.48c0.02-0.23,0-0.47-0.06-0.7c-0.25-0.9-0.33-1.9-0.24-3
				c0.09-1.1,0.43-2.02,1.03-2.74c0.6-0.72,1.55-0.98,2.87-0.76c0.94,0.24,1.62,0.78,2.05,1.63c0.43,0.85,0.71,1.81,0.84,2.88
				s0.19,2.06,0.2,2.95c0.01,0.27,0.02,0.52,0.02,0.73c0.19,3.61-0.23,7.15-1.27,10.61c-0.18,0.74-0.51,1.39-0.98,1.95
				c-0.41,0.39-0.82,0.65-1.24,0.79s-0.85,0.2-1.27,0.18c-1.23-0.05-2.24-0.4-3.03-1.04c-0.79-0.64-1.42-1.39-1.89-2.26
				s-0.83-1.66-1.09-2.38c-0.25-0.64-0.46-1.06-0.64-1.28c0.18,1.11,0.22,2.23,0.14,3.34c-0.1,1.17-0.56,2.18-1.36,3.03
				c-0.72,0.66-1.48,0.96-2.29,0.91c-0.81-0.05-1.54-0.35-2.19-0.9c-0.65-0.55-1.1-1.24-1.35-2.09c-0.52-1.98-0.78-3.99-0.78-6.03
				s0.2-4.06,0.61-6.06c0.07-0.42,0.16-0.85,0.27-1.31C252.41,27.68,252.67,26.87,253.02,26.09z"/>
			<path class="st1" d="M255.84,45.92c-0.08,0-0.16,0-0.24-0.01c-1.02-0.07-1.95-0.45-2.76-1.13c-0.8-0.67-1.36-1.53-1.67-2.57
				c-0.55-2.08-0.82-4.19-0.82-6.31c0-2.1,0.21-4.21,0.63-6.26c0.07-0.4,0.16-0.86,0.27-1.34c0.2-0.9,0.49-1.78,0.86-2.62
				c0.41-0.94,1.02-1.7,1.79-2.26c0.83-0.61,1.89-0.84,3.14-0.7c1.21,0.19,2.24,0.68,3.1,1.45c0.79,0.71,1.47,1.55,2.03,2.49
				c0.14,0.23,0.27,0.47,0.4,0.7c-0.01-0.36,0.01-0.72,0.04-1.1c0.1-1.31,0.53-2.42,1.26-3.3c0.58-0.7,1.7-1.46,3.8-1.1
				c1.3,0.33,2.21,1.05,2.78,2.16c0.48,0.95,0.8,2.04,0.94,3.22c0.13,1.1,0.2,2.13,0.21,3.06c0.01,0.26,0.02,0.52,0.02,0.75
				c0.19,3.66-0.25,7.34-1.31,10.89c-0.2,0.84-0.6,1.63-1.18,2.31l-0.07,0.08c-0.51,0.48-1.05,0.83-1.61,1.01
				c-0.54,0.18-1.08,0.25-1.64,0.23c-1.44-0.06-2.65-0.49-3.61-1.26c-0.82-0.67-1.5-1.45-2.02-2.34c-0.24,1.02-0.74,1.92-1.48,2.71
				C257.78,45.52,256.84,45.92,255.84,45.92z M256.34,24.67c-0.51,0-0.94,0.12-1.27,0.36c-0.49,0.36-0.86,0.83-1.14,1.46
				c-0.32,0.72-0.56,1.48-0.74,2.25c-0.1,0.45-0.19,0.87-0.26,1.27c-0.4,1.95-0.59,3.93-0.59,5.89c0,1.95,0.25,3.89,0.75,5.78
				c0.19,0.63,0.53,1.16,1.03,1.58c0.49,0.41,1.02,0.63,1.61,0.67c0.52,0.04,1.04-0.18,1.55-0.65c0.6-0.64,0.95-1.44,1.04-2.38
				c0.08-1.02,0.03-2.07-0.13-3.1l-0.58-3.68l2.34,2.9c0.25,0.31,0.5,0.8,0.79,1.54c0.25,0.69,0.6,1.45,1.04,2.26
				c0.4,0.75,0.96,1.4,1.64,1.96c0.63,0.51,1.43,0.77,2.45,0.82c0.31,0.02,0.61-0.03,0.92-0.13c0.27-0.09,0.55-0.27,0.83-0.53
				c0.36-0.44,0.6-0.93,0.74-1.5c1.01-3.38,1.42-6.84,1.24-10.33c0-0.26-0.01-0.49-0.02-0.75c-0.01-0.88-0.08-1.84-0.2-2.87
				c-0.11-0.95-0.36-1.81-0.73-2.55c-0.3-0.59-0.75-0.95-1.41-1.12c-1.32-0.22-1.72,0.27-1.85,0.43c-0.47,0.57-0.73,1.28-0.81,2.19
				c-0.08,0.98-0.01,1.87,0.21,2.65c0.09,0.35,0.13,0.7,0.1,1.05c-0.06,0.61-0.41,1.09-0.97,1.31c-0.36,0.13-0.72,0.13-1.06,0.01
				c-0.23-0.08-0.44-0.21-0.63-0.38l-0.12-0.13c-0.17-0.22-0.31-0.46-0.42-0.72l0,0l-0.07-0.17c-0.3-0.77-0.7-1.57-1.17-2.38
				c-0.45-0.77-1.01-1.45-1.64-2.02c-0.58-0.52-1.25-0.83-2.04-0.96C256.62,24.68,256.47,24.67,256.34,24.67z"/>
		</g>
	</g>
</g>
</svg>
