<?xml version="1.0" encoding="utf-8"?>
<!-- Generator: Adobe Illustrator 25.4.1, SVG Export Plug-In . SVG Version: 6.00 Build 0)  -->
<svg version="1.1" id="圖層_1" xmlns="http://www.w3.org/2000/svg" xmlns:xlink="http://www.w3.org/1999/xlink" x="0px" y="0px"
	 viewBox="0 0 47.29 47.36" style="enable-background:new 0 0 47.29 47.36;" xml:space="preserve">
<style type="text/css">
	.st0{fill:#231815;}
	.st1{fill:#FFFFFF;}
</style>
<g id="XMLID_7631_">
	<circle id="XMLID_7642_" class="st0" cx="23.68" cy="23.63" r="23.61"/>
	<g id="XMLID_7633_">
		<g id="XMLID_7634_">
			<path id="XMLID_7641_" class="st1" d="M31.01,14.7c-0.9,0-1.62,0.73-1.62,1.62c0,0.9,0.73,1.62,1.62,1.62
				c0.9,0,1.62-0.73,1.62-1.62C32.63,15.42,31.91,14.7,31.01,14.7z"/>
			<path id="XMLID_7638_" class="st1" d="M23.79,16.78c-3.76,0-6.82,3.06-6.82,6.82c0,3.76,3.06,6.82,6.82,6.82
				c3.76,0,6.82-3.06,6.82-6.82C30.61,19.84,27.55,16.78,23.79,16.78z M23.79,27.96c-2.41,0-4.37-1.96-4.37-4.37
				s1.96-4.37,4.37-4.37c2.41,0,4.37,1.96,4.37,4.37S26.2,27.96,23.79,27.96z"/>
			<path id="XMLID_7635_" class="st1" d="M29.21,37.44H18.15c-4.59,0-8.32-3.73-8.32-8.32V18.07c0-4.59,3.73-8.32,8.32-8.32h11.05
				c4.59,0,8.32,3.73,8.32,8.32v11.05C37.52,33.71,33.79,37.44,29.21,37.44z M18.15,12.36c-3.15,0-5.71,2.56-5.71,5.71v11.05
				c0,3.15,2.56,5.71,5.71,5.71h11.05c3.15,0,5.71-2.56,5.71-5.71V18.07c0-3.15-2.56-5.71-5.71-5.71H18.15z"/>
		</g>
	</g>
</g>
</svg>
