<?xml version="1.0" encoding="utf-8"?>
<!-- Generator: Adobe Illustrator 25.4.1, SVG Export Plug-In . SVG Version: 6.00 Build 0)  -->
<svg version="1.1" id="圖層_1" xmlns="http://www.w3.org/2000/svg" xmlns:xlink="http://www.w3.org/1999/xlink" x="0px" y="0px"
	 viewBox="0 0 47.23 47.36" style="enable-background:new 0 0 47.23 47.36;" xml:space="preserve">
<style type="text/css">
	.st0{fill:#231815;}
	.st1{fill:#FFFFFF;}
</style>
<g id="XMLID_7643_">
	<circle id="XMLID_7645_" class="st0" cx="23.61" cy="23.63" r="23.61"/>
	<path id="XMLID_7644_" class="st1" d="M36.66,15.54c-0.82,0.37-1.72,0.59-2.6,0.74c0.42-0.07,1.03-0.83,1.28-1.14
		c0.38-0.47,0.69-1,0.86-1.58c0.02-0.04,0.04-0.1-0.01-0.14c-0.06-0.02-0.09-0.01-0.14,0.01c-0.99,0.53-2,0.91-3.09,1.18
		c-0.09,0.02-0.16,0-0.21-0.06c-0.09-0.1-0.17-0.2-0.27-0.28c-0.46-0.39-0.94-0.69-1.5-0.92c-0.72-0.3-1.51-0.42-2.29-0.37
		c-0.76,0.05-1.5,0.26-2.18,0.61c-0.67,0.35-1.28,0.84-1.76,1.43c-0.5,0.61-0.86,1.33-1.05,2.1c-0.18,0.74-0.17,1.47-0.06,2.22
		c0.02,0.12,0.01,0.14-0.11,0.12c-4.24-0.63-7.76-2.15-10.61-5.4c-0.12-0.14-0.19-0.14-0.29,0.01c-1.25,1.87-0.64,4.88,0.92,6.36
		c0.21,0.2,0.42,0.39,0.65,0.57c-0.08,0.02-1.12-0.1-2.05-0.57c-0.12-0.08-0.19-0.03-0.2,0.11c-0.01,0.2,0.01,0.39,0.03,0.61
		c0.24,1.9,1.55,3.65,3.35,4.34c0.21,0.09,0.45,0.17,0.68,0.21c-0.41,0.09-0.83,0.15-2.01,0.06c-0.15-0.03-0.2,0.05-0.15,0.19
		c0.88,2.41,2.79,3.12,4.22,3.53c0.19,0.03,0.38,0.03,0.57,0.08c-0.01,0.02-0.02,0.02-0.03,0.03c-0.47,0.72-2.12,1.26-2.88,1.53
		c-1.39,0.49-2.91,0.7-4.38,0.56c-0.24-0.03-0.28-0.03-0.35,0c-0.06,0.04-0.01,0.1,0.07,0.16c0.3,0.2,0.6,0.37,0.91,0.54
		c0.93,0.49,1.91,0.89,2.93,1.17c5.26,1.45,11.18,0.39,15.13-3.54c3.1-3.08,4.19-7.33,4.19-11.58c0-0.17,0.2-0.26,0.31-0.35
		c0.81-0.61,1.46-1.33,2.06-2.14c0.14-0.18,0.14-0.34,0.14-0.41c0-0.01,0-0.02,0-0.02C36.77,15.47,36.76,15.49,36.66,15.54z"/>
</g>
</svg>
