<?xml version="1.0" encoding="utf-8"?>
<!-- Generator: Adobe Illustrator 25.4.1, SVG Export Plug-In . SVG Version: 6.00 Build 0)  -->
<svg version="1.1" id="圖層_1" xmlns="http://www.w3.org/2000/svg" xmlns:xlink="http://www.w3.org/1999/xlink" x="0px" y="0px"
	 viewBox="0 0 47.23 47.36" style="enable-background:new 0 0 47.23 47.36;" xml:space="preserve">
<style type="text/css">
	.st0{fill:#231815;}
	.st1{fill:#FFFFFF;}
</style>
<g id="XMLID_7653_">
	<path id="XMLID_7656_" class="st0" d="M47.23,23.63c0,13.04-10.57,23.61-23.61,23.61S0,36.67,0,23.63S10.57,0.02,23.61,0.02
		C36.66,0.02,47.23,10.59,47.23,23.63z"/>
	<path id="XMLID_7655_" class="st1" d="M11.65,24.42l0.1-0.16l6.14-9.61c0.09-0.14,0.3-0.13,0.37,0.03c1.03,2.3,1.91,5.16,1.5,6.94
		c-0.18,0.73-0.66,1.72-1.21,2.64c-0.07,0.13-0.15,0.26-0.23,0.39c-0.04,0.06-0.1,0.09-0.17,0.09h-6.32
		C11.66,24.75,11.56,24.56,11.65,24.42z"/>
	<path id="XMLID_7654_" class="st1" d="M39.03,26.21v1.52c0,0.09-0.05,0.16-0.13,0.2c-0.48,0.2-2.1,0.95-2.78,1.89
		c-1.73,2.4-3.05,5.84-6,5.84H17.81c-4.36,0-7.9-3.55-7.9-7.92V27.6c0-0.12,0.09-0.21,0.21-0.21h6.86c0.14,0,0.24,0.13,0.22,0.26
		c-0.05,0.45,0.03,0.9,0.25,1.32c0.41,0.83,1.25,1.34,2.16,1.34h3.4v-2.65h-3.36c-0.17,0-0.27-0.2-0.17-0.34
		c0.04-0.06,0.08-0.11,0.12-0.18c0.32-0.45,0.77-1.15,1.22-1.95c0.31-0.54,0.61-1.11,0.85-1.69c0.05-0.1,0.09-0.21,0.13-0.32
		c0.07-0.18,0.13-0.36,0.18-0.53c0.05-0.15,0.09-0.3,0.13-0.44c0.11-0.49,0.16-1.01,0.16-1.55c0-0.21-0.01-0.43-0.03-0.64
		c-0.01-0.23-0.04-0.46-0.07-0.69c-0.02-0.2-0.06-0.41-0.09-0.62c-0.05-0.31-0.12-0.61-0.19-0.92l-0.03-0.12
		c-0.06-0.21-0.11-0.41-0.17-0.62c-0.19-0.66-0.41-1.31-0.65-1.91c-0.08-0.24-0.18-0.47-0.28-0.7c-0.14-0.35-0.29-0.66-0.42-0.96
		c-0.07-0.14-0.13-0.26-0.18-0.39c-0.07-0.14-0.13-0.29-0.2-0.42c-0.05-0.1-0.1-0.2-0.14-0.3L19.4,11.6
		c-0.06-0.1,0.04-0.23,0.15-0.2l2.6,0.7h0.01l0.01,0l0.34,0.09l0.38,0.11l0.14,0.04v-1.54c0-0.74,0.6-1.35,1.33-1.35
		c0.37,0,0.7,0.15,0.94,0.4c0.24,0.25,0.39,0.58,0.39,0.95v2.29l0.28,0.08c0.02,0.01,0.04,0.02,0.06,0.03
		c0.07,0.05,0.16,0.13,0.29,0.22c0.1,0.08,0.2,0.17,0.33,0.27c0.25,0.2,0.55,0.46,0.88,0.76c0.09,0.08,0.17,0.15,0.25,0.23
		c0.42,0.39,0.9,0.85,1.35,1.36c0.13,0.14,0.25,0.29,0.38,0.44c0.13,0.16,0.26,0.31,0.38,0.46c0.15,0.2,0.32,0.41,0.46,0.64
		c0.07,0.1,0.15,0.21,0.21,0.32c0.18,0.28,0.35,0.57,0.5,0.86c0.07,0.13,0.13,0.28,0.19,0.42c0.17,0.39,0.31,0.78,0.4,1.17
		c0.03,0.08,0.05,0.18,0.06,0.26v0.02c0.03,0.12,0.04,0.24,0.05,0.37c0.04,0.4,0.02,0.81-0.07,1.21c-0.04,0.17-0.08,0.33-0.14,0.51
		c-0.06,0.16-0.12,0.34-0.19,0.5c-0.15,0.34-0.32,0.67-0.52,0.99c-0.07,0.12-0.14,0.24-0.22,0.36c-0.08,0.12-0.17,0.24-0.25,0.35
		c-0.11,0.15-0.22,0.3-0.34,0.43c-0.1,0.14-0.21,0.29-0.33,0.41c-0.16,0.19-0.32,0.37-0.48,0.55c-0.1,0.11-0.2,0.23-0.31,0.33
		c-0.1,0.12-0.21,0.22-0.31,0.32c-0.16,0.16-0.3,0.29-0.41,0.39L27.9,27.6c-0.04,0.03-0.09,0.05-0.14,0.05h-2.07v2.65h2.6
		c0.58,0,1.14-0.21,1.58-0.58c0.15-0.13,0.82-0.71,1.61-1.58c0.03-0.03,0.06-0.05,0.1-0.06l7.18-2.08
		C38.89,25.97,39.03,26.07,39.03,26.21z"/>
</g>
</svg>
