<?xml version="1.0" encoding="utf-8"?>
<!-- Generator: Adobe Illustrator 25.4.1, SVG Export Plug-In . SVG Version: 6.00 Build 0)  -->
<svg version="1.1" id="圖層_1" xmlns="http://www.w3.org/2000/svg" xmlns:xlink="http://www.w3.org/1999/xlink" x="0px" y="0px"
	 viewBox="0 0 790.64 48.39" style="enable-background:new 0 0 790.64 48.39;" xml:space="preserve">
<style type="text/css">
	.st0{fill:#231815;}
	.st1{fill:#FFFFFF;}
	.st2{fill:#036EB7;}
</style>
<g id="XMLID_27049_">
	<path id="XMLID_27050_" class="st0" d="M32.79,26.65l-0.12,0.31c-0.72,1.58-1.92,2.55-3.6,2.9c-0.58,0.08-1.15,0.11-1.73,0.09
		c-0.86-0.08-1.69,0.01-2.5,0.28c-1.25,0.62-2.05,1.64-2.4,3.08c-0.21,0.84-0.27,1.67-0.2,2.48s0.19,1.63,0.35,2.45
		c0.33,1.42,0.41,2.86,0.25,4.34c-0.39,2.51-1.78,4.14-4.16,4.9c-1.52,0.45-3.03,0.41-4.53-0.12s-2.74-1.41-3.73-2.62
		c-1.13-1.5-1.85-3.15-2.16-4.94c-0.31-1.8-0.49-3.62-0.55-5.47v-0.4c-0.23-4.62-0.24-9.24-0.03-13.86c0.06-2.24,0.41-4.41,1.05-6.5
		s1.82-3.91,3.54-5.45c1.68-1.38,3.54-2.28,5.58-2.73c2.03-0.44,4.13-0.61,6.29-0.51s4.25,0.3,6.28,0.59
		c0.31,0.04,0.62,0.07,0.92,0.09c2.53,0.41,4.17,1.87,4.93,4.37c0.29,1.17,0.23,2.34-0.17,3.5c-0.4,1.16-1.1,2.08-2.11,2.76
		c-0.84,0.51-1.8,0.91-2.87,1.19s-2.08,0.34-3.05,0.2c-0.14-0.02-0.3-0.04-0.46-0.06c-0.66-0.16-1.36-0.25-2.11-0.26
		s-1.34,0.25-1.77,0.79c-0.41,0.58-0.47,0.99-0.17,1.23c0.3,0.25,0.76,0.41,1.39,0.48s1.26,0.11,1.89,0.11
		c0.62,0,1.08,0.02,1.39,0.06c1.62,0.33,2.94,1.13,3.94,2.4C33.04,23.67,33.24,25.11,32.79,26.65z"/>
	<path id="XMLID_27053_" class="st0" d="M71.97,38.61c0.51,1.83,0.35,3.47-0.48,4.91s-2.04,2.51-3.62,3.17
		c-1.58,0.67-3.25,0.74-4.99,0.23c-1.71-0.62-2.95-1.62-3.74-3.02c-0.79-1.4-1.42-2.93-1.89-4.59c-0.49-1.73-1.16-3.31-2-4.74
		c-0.37-0.64-0.86-1.14-1.48-1.51c-0.31-0.19-0.65-0.27-1.02-0.25s-0.69,0.16-0.96,0.43c-0.27,0.33-0.41,1.71-0.42,4.13
		s-0.3,4.38-0.88,5.88c-0.86,1.93-2.25,3.29-4.16,4.07c-2.05,0.7-3.92,0.39-5.61-0.92c-0.76-0.78-1.38-1.67-1.85-2.68
		c-0.62-1.21-1.02-2.49-1.2-3.84c-0.18-1.34-0.3-2.7-0.34-4.05c-0.02-0.66-0.05-1.29-0.09-1.91c-0.06-0.92-0.13-1.85-0.22-2.77
		c-0.25-2.88-0.4-5.74-0.46-8.59c-0.06-4.46,0.92-8.18,2.96-11.17s5.26-5,9.67-6.02c3.66-0.92,7.3-1,10.94-0.22
		c1.81,0.45,3.49,1.19,5.04,2.22s2.82,2.33,3.8,3.91c0.94,1.66,1.38,3.55,1.31,5.67c-0.07,2.12-0.59,3.98-1.56,5.61
		c-0.37,0.62-0.77,1.2-1.2,1.76c-0.47,0.6-0.9,1.21-1.29,1.85c-0.39,0.66-0.66,1.35-0.82,2.08c-0.15,0.73-0.11,1.44,0.14,2.14
		c0.23,0.58,0.55,1.07,0.99,1.49s0.89,0.81,1.39,1.16c0.39,0.29,0.77,0.6,1.14,0.92C70.41,35.27,71.38,36.82,71.97,38.61z
		 M54.79,22.4c0.57-0.45,0.94-0.99,1.09-1.6c0.15-0.62,0.08-1.21-0.23-1.79c-0.18-0.33-0.48-0.66-0.89-0.99
		c-0.41-0.33-0.86-0.57-1.36-0.72c-0.49-0.15-0.96-0.11-1.39,0.14c-0.49,0.39-0.73,1.01-0.72,1.85s0.08,1.55,0.2,2.13
		c0.02,0.06,0.03,0.12,0.03,0.18c0.02,0.37,0.16,0.7,0.43,0.99c0.35,0.33,0.81,0.46,1.37,0.39C53.89,22.9,54.37,22.71,54.79,22.4z"
		/>
	<path id="XMLID_27153_" class="st0" d="M74.32,28.16c-0.08-2.83-0.08-5.66,0-8.47c0.02-0.57,0.04-1.18,0.06-1.82
		c-0.02-1.7,0.08-3.42,0.29-5.16c0.22-1.74,0.74-3.28,1.59-4.64c1.42-2.12,3.29-3.27,5.61-3.45c1.85-0.02,3.29,0.62,4.33,1.91
		s1.68,2.89,1.92,4.77c0.29,2.57,0.38,5.13,0.28,7.7c-0.02,0.94-0.03,1.89-0.03,2.83c0.04,3.84,0.12,7.69,0.25,11.55
		c0.02,0.68,0.05,1.37,0.09,2.06c0.12,1.62,0.14,3.25,0.06,4.88s-0.47,3.16-1.17,4.57c-0.9,1.62-2.19,2.69-3.87,3.2
		c-1.67,0.51-3.29,0.38-4.85-0.4c-1.42-0.8-2.49-1.97-3.2-3.51c-0.72-1.54-1.08-3.17-1.08-4.9c-0.04-2.36-0.1-4.71-0.18-7.05
		C74.37,30.89,74.34,29.52,74.32,28.16z"/>
	<path id="XMLID_27155_" class="st0" d="M120.68,10.64c0.06,0.31,0.11,0.61,0.15,0.89c0.23,1.15,0.29,2.31,0.2,3.48
		s-0.57,2.13-1.43,2.86c-0.68,0.49-1.44,0.76-2.29,0.8s-1.69-0.05-2.51-0.28c-0.16-0.06-0.33-0.11-0.49-0.15
		c-0.9-0.33-1.81-0.43-2.71-0.31c-0.55,0.14-0.98,0.46-1.26,0.95c-0.29,0.49-0.28,0.97,0.03,1.42c0.27,0.31,0.61,0.47,1.03,0.48
		s0.87-0.03,1.34-0.11c0.43-0.08,0.85-0.13,1.26-0.15c1.17,0.12,2.07,0.68,2.71,1.66c0.53,0.94,0.86,1.97,0.99,3.08
		c0.14,0.86,0.14,1.72,0,2.57s-0.55,1.54-1.23,2.05c-0.86,0.51-1.83,0.72-2.9,0.62c-0.18,0-0.37-0.01-0.55-0.03
		c-0.66-0.04-1.34-0.04-2.05,0.02c-0.71,0.05-1.29,0.27-1.74,0.66c-0.29,0.29-0.46,0.64-0.52,1.05s0.01,0.8,0.22,1.17
		c0.25,0.45,0.62,0.78,1.12,0.99s1.02,0.31,1.56,0.31c0.57-0.02,1.15-0.08,1.72-0.19c0.47-0.08,0.94-0.14,1.42-0.19
		c1.4-0.06,2.7,0.26,3.9,0.97c1.2,0.71,2.1,1.68,2.7,2.91c0.74,1.68,0.79,3.36,0.15,5.04c-0.64,1.67-1.83,2.87-3.57,3.59
		c-4.21,1.46-8.47,1.51-12.77,0.17c-4.3-1.34-7.7-3.8-10.18-7.38c-2.61-4.07-3.88-8.54-3.82-13.43s1.58-9.27,4.56-13.15
		c2.12-2.61,4.72-4.65,7.83-6.11c3.1-1.47,6.38-2.09,9.83-1.86c1.87,0.12,3.46,0.63,4.77,1.52C119.44,7.45,120.29,8.81,120.68,10.64
		z"/>
	<path id="XMLID_27157_" class="st0" d="M126.41,12.21c0.88-2.01,2.16-3.59,3.83-4.73c1.67-1.14,3.58-1.47,5.71-1
		c1.81,0.55,3.38,1.66,4.71,3.33s2.54,3.44,3.6,5.33c0.66,1.09,1.3,2.08,1.94,2.99c0.18,0.31,0.41,0.59,0.68,0.83
		c0.27,0.25,0.56,0.38,0.89,0.4c0.6-0.04,1-0.39,1.22-1.03s0.28-1.3,0.2-1.96l-0.18-1.57c-0.25-1.54-0.33-3.08-0.25-4.62
		c0.08-1.05,0.35-2.04,0.82-2.99c0.46-0.94,1.12-1.66,1.99-2.16c1.05-0.55,2.15-0.68,3.31-0.39c1.16,0.3,2.21,0.84,3.16,1.62
		c1.58,1.42,2.59,3.25,3.02,5.48c0.43,2.24,0.68,4.5,0.74,6.78c0.04,0.82,0.09,1.61,0.15,2.37c0.31,4.11,0.33,8.23,0.06,12.35
		c-0.02,0.31-0.03,0.63-0.03,0.96c-0.1,1.75-0.3,3.55-0.6,5.41s-0.89,3.49-1.77,4.88c-0.8,1.19-1.8,2-3,2.42s-2.48,0.47-3.84,0.14
		c-2.01-0.53-3.86-1.47-5.53-2.8s-3.21-2.88-4.61-4.62c-1.4-1.75-2.71-3.48-3.94-5.21c-0.35-0.53-0.71-1.05-1.08-1.54
		c0.25,1.6,0.41,3.22,0.48,4.85c0.07,1.63-0.15,3.2-0.66,4.7c-0.58,1.56-1.51,2.82-2.82,3.79c-1.3,0.97-2.71,1.25-4.21,0.86
		c-1.01-0.31-1.86-0.88-2.56-1.71s-1.26-1.77-1.69-2.82c-0.84-2.12-1.33-4.34-1.46-6.67s-0.15-4.68-0.05-7.04
		c0.06-1.7,0.07-3.38,0.03-5.02c-0.21-3.29,0.12-6.5,0.99-9.64C125.87,13.52,126.12,12.86,126.41,12.21z"/>
	<path id="XMLID_27203_" class="st0" d="M199.7,21.73c0.68,3.45,0.64,6.91-0.12,10.38s-2.26,6.62-4.5,9.46
		c-2.16,2.61-4.68,4.36-7.58,5.27c-2.9,0.9-5.93,1.26-9.09,1.08c-1.97-0.02-3.97-0.33-5.99-0.92c-2.02-0.6-3.67-1.78-4.94-3.54
		c-1.29-2.16-2.12-4.67-2.46-7.55c-0.35-2.87-0.47-5.56-0.37-8.07c0-0.23,0-0.45,0-0.68c0.02-2.32,0.18-4.97,0.48-7.95
		c0.3-2.98,0.98-5.71,2.03-8.19c1.06-2.48,2.74-4.17,5.04-5.05c2.71-0.94,5.47-1.41,8.27-1.39c2.8,0.02,5.52,0.67,8.15,1.94
		c2.88,1.48,5.27,3.55,7.19,6.21C197.72,15.38,199.02,18.38,199.7,21.73z M181.33,31.61c0.06,0.02,0.12,0.03,0.18,0.03
		c0.57,0.06,1.11-0.05,1.6-0.32c0.49-0.28,0.91-0.64,1.26-1.09c1.23-1.6,1.7-3.39,1.42-5.36c-0.17-0.92-0.55-1.86-1.16-2.8
		s-1.39-1.54-2.36-1.79c-1.29-0.14-2.16,0.34-2.6,1.45s-0.64,2.37-0.6,3.79s0.13,2.53,0.28,3.33c0.06,0.6,0.23,1.16,0.49,1.69
		C180.2,31.11,180.7,31.47,181.33,31.61z"/>
	<path id="XMLID_27206_" class="st0" d="M218.09,25.7c-0.08,1.19-0.04,2.36,0.12,3.51c0.33,1.79,1.09,2.9,2.29,3.34
		c1.2,0.44,2.61,0.51,4.24,0.2c1.99-0.35,3.65-0.1,4.97,0.74c1.33,0.84,2.1,2.33,2.33,4.47c0.1,1.62-0.26,3.2-1.08,4.73
		s-1.93,2.7-3.33,3.5c-1.13,0.58-2.33,0.96-3.6,1.16c-1.27,0.19-2.55,0.3-3.82,0.32l-5.85-0.22c-1.17,0-2.33-0.12-3.48-0.35
		c-1.15-0.24-2.22-0.65-3.2-1.25c-1.58-1.11-2.68-2.57-3.3-4.37c-0.62-1.81-1.04-3.62-1.26-5.45c-0.39-3.18-0.58-6.39-0.55-9.61
		c-0.02-1.21-0.05-2.41-0.09-3.6c-0.1-1.89-0.09-3.95,0.05-6.19c0.13-2.24,0.59-4.33,1.37-6.28s2.1-3.45,3.97-4.5
		c1.68-0.82,3.25-1.08,4.68-0.79c1.44,0.3,2.77,1.18,4,2.63c0.76,1.03,1.23,2.18,1.4,3.45s0.25,2.56,0.23,3.85
		c-0.02,1.6-0.03,3.14-0.03,4.62v4.65C218.15,24.72,218.13,25.21,218.09,25.7z"/>
	<path id="XMLID_27211_" class="st0" d="M251.11,31.55c-3.08,0.88-5.89,0.97-8.43,0.26s-4.67-2.15-6.39-4.33
		c-1.38-1.89-2.27-4.09-2.68-6.61s-0.48-4.91-0.22-7.19c0.1-1.15,0.34-2.27,0.72-3.36c0.38-1.09,0.96-2.05,1.74-2.9
		c1.91-1.79,4.14-2.34,6.68-1.66c1.4,0.49,2.46,1.32,3.2,2.48s1.16,2.46,1.26,3.9c0.06,0.86,0.07,1.74,0.03,2.62
		c-0.04,1.03-0.01,2.06,0.09,3.11c0.04,0.86,0.31,1.63,0.8,2.31c0.25,0.33,0.67,0.57,1.28,0.72s1.11,0.17,1.52,0.05
		c0.33-0.12,0.6-0.34,0.82-0.65c0.22-0.31,0.35-0.64,0.42-0.99c0.1-0.72,0.08-1.44-0.06-2.16c-0.27-1.56-0.43-3.16-0.49-4.81
		c-0.06-1.64,0.24-3.11,0.91-4.41c0.67-1.29,1.97-2.21,3.9-2.74c2.01-0.45,3.67-0.22,4.98,0.69c1.3,0.91,2.32,2.19,3.05,3.82
		c0.73,1.63,1.23,3.31,1.49,5.04c0.27,1.79,0.57,5.02,0.92,9.69c0.35,4.67-0.23,9-1.73,12.98c-0.78,1.99-1.87,3.79-3.28,5.39
		s-3.07,2.87-4.98,3.79c-2.18,1.01-4.36,1.56-6.55,1.66s-4.44-0.08-6.76-0.55c-2.36-0.37-4.57-1.14-6.62-2.31
		c-1.03-0.64-1.9-1.44-2.62-2.4c-0.72-0.96-1.16-2.04-1.32-3.23c0-1.19,0.26-2.35,0.79-3.47c0.52-1.12,1.42-1.88,2.7-2.29
		c1.09-0.21,2.22-0.14,3.39,0.18c0.39,0.06,0.76,0.12,1.11,0.19c0.88,0.14,1.76,0.28,2.62,0.4c0.88,0.14,1.77,0.28,2.65,0.4
		c0.9,0.19,1.81,0.24,2.71,0.15c0.97-0.1,1.76-0.51,2.37-1.23c0.27-0.39,0.41-0.82,0.42-1.29
		C251.57,32.34,251.42,31.92,251.11,31.55z"/>
	<path id="XMLID_27236_" class="st0" d="M314.08,7.71c1.38,1.27,2.12,2.9,2.25,4.87c0.12,1.97-0.46,3.65-1.76,5.02
		c-0.78,0.74-1.64,1.18-2.59,1.31c-0.95,0.13-1.92,0.2-2.93,0.2c-0.68,0-1.24,0.21-1.68,0.62s-0.77,1.25-0.97,2.51
		c-0.21,1.26-0.31,3.18-0.31,5.75c0,2.12-0.03,4.22-0.09,6.31c-0.04,1.05-0.07,2.11-0.09,3.17c0,1.6-0.22,3.15-0.65,4.65
		s-1.23,2.79-2.4,3.88c-1.23,1.03-2.65,1.58-4.25,1.65c-1.6,0.07-3.06-0.36-4.37-1.31c-1.05-0.84-1.85-1.86-2.4-3.07
		c-0.55-1.2-0.91-2.46-1.08-3.77c-0.18-2.07-0.15-4.17,0.09-6.28c0.04-0.51,0.07-1.03,0.09-1.54c0.21-3.12,0.19-6.24-0.06-9.37
		c-0.1-1.07-0.48-1.87-1.12-2.4c-0.65-0.53-1.48-0.88-2.51-1.05c-1.77-0.29-3.25-0.92-4.47-1.91s-1.88-2.4-2-4.25
		c-0.02-1.89,0.57-3.48,1.79-4.77c1.21-1.29,2.77-2.09,4.68-2.4c2.88-0.37,5.8-0.5,8.78-0.4c0.88,0.02,1.75,0.03,2.59,0.03
		c4-0.1,7.98,0.2,11.92,0.89C311.97,6.33,313.15,6.89,314.08,7.71z"/>
	<path id="XMLID_27239_" class="st0" d="M320.1,27.65c0-2.27,1.39-3.53,2.59-3.53c2.4,0,3.72,0.32,5.99,0.32s3.6-0.32,5.87-0.32
		c1.14,0,2.46,1.26,2.46,3.53s-1.45,3.41-2.46,3.41c-2.27,0-3.6-0.32-5.87-0.32s-3.6,0.32-5.99,0.32
		C321.61,31.06,320.1,29.92,320.1,27.65z"/>
	<path id="XMLID_27277_" class="st0" d="M375.06,35.68c0.72,1.01,1.25,2.09,1.6,3.25s0.45,2.35,0.31,3.56
		c-0.19,1.23-0.67,2.33-1.45,3.28s-1.77,1.59-2.96,1.89c-2.01,0.33-3.82-0.19-5.42-1.54c-1.38-1.23-2.46-2.69-3.25-4.37
		s-1.46-3.39-2.02-5.11c-0.25-0.74-0.54-1.48-0.89-2.22c-0.35-0.74-0.81-1.38-1.39-1.91c-0.47-0.39-1.06-0.64-1.77-0.74
		s-1.3,0.08-1.77,0.55c-0.23,0.27-0.35,0.58-0.39,0.94c-0.03,0.36,0,0.71,0.08,1.06c0.16,0.97,0.26,1.93,0.28,2.9
		c0.04,0.47,0.09,0.93,0.15,1.39c0.12,0.68,0.16,1.37,0.12,2.06c-0.1,1.48-0.54,2.9-1.32,4.27c-0.78,1.37-1.96,2.19-3.54,2.48
		c-1.85,0.18-3.54-0.2-5.08-1.14c-1.54-0.94-2.68-2.26-3.42-3.94c-0.43-0.99-0.72-1.98-0.88-2.99c-0.15-1.01-0.26-2.02-0.32-3.05
		c-0.04-0.68-0.1-1.36-0.18-2.03c-0.06-0.62-0.13-1.22-0.22-1.82c-0.27-1.99-0.44-4-0.52-6.04c-0.14-3.02,0.07-5.97,0.65-8.86
		s1.93-5.47,4.07-7.75c1.83-1.81,3.89-3.07,6.19-3.79s4.69-1.15,7.18-1.29c3.45-0.29,6.65,0.18,9.61,1.42
		c2.96,1.23,5.14,3.56,6.56,6.99c0.72,1.91,0.96,3.71,0.71,5.39s-0.87,3.41-1.88,5.18c-0.6,1.07-1.34,2.02-2.25,2.87
		c-0.25,0.21-0.5,0.4-0.77,0.59c-0.33,0.23-0.63,0.47-0.91,0.74s-0.48,0.6-0.6,0.99c-0.16,0.6-0.06,1.11,0.32,1.54
		s0.83,0.81,1.34,1.14c0.23,0.19,0.44,0.36,0.65,0.52C372.97,33.12,374.1,34.33,375.06,35.68z M355.99,17.84
		c-0.29,0.78-0.38,1.61-0.28,2.5c0.02,0.21,0.05,0.41,0.09,0.62s0.12,0.38,0.25,0.52c0.16,0.16,0.35,0.27,0.57,0.32
		s0.44,0.07,0.66,0.05c0.49,0.02,0.98-0.05,1.45-0.22c0.86-0.39,1.38-1,1.56-1.83c0.17-0.83-0.06-1.59-0.69-2.26
		c-0.58-0.57-1.22-0.86-1.94-0.86S356.38,17.06,355.99,17.84z"/>
	<path id="XMLID_27283_" class="st0" d="M406.33,10.64c0.06,0.31,0.11,0.61,0.15,0.89c0.23,1.15,0.29,2.31,0.2,3.48
		s-0.57,2.13-1.43,2.86c-0.68,0.49-1.44,0.76-2.29,0.8s-1.69-0.05-2.51-0.28c-0.16-0.06-0.33-0.11-0.49-0.15
		c-0.9-0.33-1.81-0.43-2.71-0.31c-0.55,0.14-0.98,0.46-1.26,0.95c-0.29,0.49-0.28,0.97,0.03,1.42c0.27,0.31,0.61,0.47,1.03,0.48
		s0.87-0.03,1.34-0.11c0.43-0.08,0.85-0.13,1.26-0.15c1.17,0.12,2.07,0.68,2.71,1.66c0.53,0.94,0.86,1.97,0.99,3.08
		c0.14,0.86,0.14,1.72,0,2.57s-0.55,1.54-1.23,2.05c-0.86,0.51-1.83,0.72-2.9,0.62c-0.18,0-0.37-0.01-0.55-0.03
		c-0.66-0.04-1.34-0.04-2.05,0.02c-0.71,0.05-1.29,0.27-1.74,0.66c-0.29,0.29-0.46,0.64-0.52,1.05s0.01,0.8,0.22,1.17
		c0.25,0.45,0.62,0.78,1.12,0.99s1.02,0.31,1.56,0.31c0.57-0.02,1.15-0.08,1.72-0.19c0.47-0.08,0.94-0.14,1.42-0.19
		c1.4-0.06,2.7,0.26,3.9,0.97c1.2,0.71,2.1,1.68,2.7,2.91c0.74,1.68,0.79,3.36,0.15,5.04c-0.64,1.67-1.83,2.87-3.57,3.59
		c-4.21,1.46-8.47,1.51-12.77,0.17s-7.7-3.8-10.18-7.38c-2.61-4.07-3.88-8.54-3.82-13.43s1.58-9.27,4.56-13.15
		c2.12-2.61,4.72-4.65,7.83-6.11c3.1-1.47,6.38-2.09,9.83-1.86c1.87,0.12,3.46,0.63,4.77,1.52C405.09,7.45,405.94,8.81,406.33,10.64
		z"/>
	<path id="XMLID_27360_" class="st0" d="M443.64,36.17c0.86,1.11,1.52,2.27,1.97,3.48c0.45,1.21,0.55,2.42,0.31,3.64
		c-0.31,1.25-1.06,2.35-2.25,3.3c-1.19,0.94-2.65,1.48-4.37,1.6c-2.09,0-3.94-0.53-5.55-1.6c-1.46-1.05-2.64-2.25-3.54-3.6
		c-0.78-1.09-1.53-2.23-2.25-3.42c-0.88,2.01-2,3.95-3.36,5.82c-0.92,1.21-2.17,2.02-3.73,2.43c-1.56,0.41-3.25,0.5-5.05,0.28
		c-2.01-0.21-3.56-0.94-4.65-2.19c-0.64-1.05-0.79-2.12-0.45-3.22s0.82-2.15,1.43-3.16c0.06-0.14,0.13-0.3,0.22-0.46
		c0.99-1.75,2.03-3.47,3.14-5.18c1.58-2.46,2.55-4.51,2.9-6.13c0.35-1.62-1.11-4.32-4.37-8.1c-1.21-1.03-2.34-2.09-3.39-3.19
		c-1.05-1.1-1.8-2.31-2.25-3.62c-0.41-1.38-0.26-2.71,0.45-4c0.71-1.29,1.93-2.18,3.65-2.65c1.56-0.29,3.09-0.15,4.58,0.4
		s2.81,1.29,3.96,2.22c2.14,1.79,3.99,4.06,5.58,6.81c0,0.02,0.01,0.04,0.03,0.06v0.03c0.88-1.52,1.81-3.03,2.77-4.53
		c0.88-1.56,2.04-2.97,3.48-4.22c0.43-0.35,0.91-0.67,1.45-0.96c1.6-0.78,3.37-1.05,5.31-0.8s3.37,1.01,4.3,2.28
		c0.76,1.4,0.91,2.85,0.46,4.37c-0.51,2.34-1.6,4.53-3.27,6.56c-1.25,1.5-2.18,3.11-2.77,4.82s-0.46,3.43,0.4,5.16
		C440.17,31.1,441.79,33.69,443.64,36.17z"/>
	<path id="XMLID_27363_" class="st0" d="M494.47,39.19c-0.18,3.37-1.76,5.7-4.71,6.99c-2.79,1.31-5.73,1.94-8.81,1.88
		c-2.69-0.08-5.6-0.67-8.73-1.76s-5.56-2.67-7.29-4.74c-2.98-4.02-4.5-8.59-4.56-13.71s1.21-9.8,3.82-14.05
		c1.23-1.87,3.01-3.53,5.33-4.98c2.32-1.45,4.87-2.52,7.65-3.22c2.78-0.7,5.47-0.84,8.06-0.43c2.59,0.41,4.76,1.54,6.53,3.39
		c1.79,2.01,2.66,4.39,2.62,7.12c-0.04,2.01-0.72,3.77-2.03,5.27c-1.46,1.48-3.18,2.04-5.17,1.69c-0.7-0.21-1.38-0.49-2.03-0.86
		c-0.74-0.41-1.51-0.71-2.31-0.89c-1.29-0.18-2.36,0.09-3.2,0.82c-0.84,0.73-1.42,1.68-1.74,2.85s-0.34,2.32-0.08,3.45
		c0.43,1.58,1.25,2.77,2.45,3.57s2.59,1.01,4.17,0.62c0.45-0.12,0.9-0.27,1.36-0.43c1.13-0.47,2.28-0.7,3.45-0.68
		c1.42,0.16,2.58,0.82,3.48,1.96c0.9,1.14,1.47,2.45,1.69,3.93C494.51,37.71,494.53,38.45,494.47,39.19z"/>
	<path id="XMLID_27365_" class="st0" d="M534.14,18.34c1.21,2.59,1.94,5.3,2.17,8.13c0.24,2.83-0.12,5.63-1.06,8.38
		c-1.19,3.27-3.12,5.98-5.78,8.13c-2.66,2.16-5.73,3.54-9.2,4.16c-3.55,0.53-7.03,0.18-10.43-1.06c-3.4-1.24-6.39-3.13-8.96-5.67
		c-2.58-2.54-4.39-5.48-5.44-8.83c-1.13-3.94-1.1-7.88,0.09-11.8c1.19-3.92,3.33-7.25,6.41-9.98c3.66-3.04,7.61-4.56,11.86-4.56
		c4.25,0,8.21,1.18,11.89,3.53C529.38,11.12,532.19,14.31,534.14,18.34z M520.41,27.18c0.29-1.6-0.07-3.07-1.06-4.39
		s-2.46-1.9-4.39-1.74c-1.71,0.31-2.86,1.06-3.47,2.25c-0.61,1.19-0.74,2.46-0.42,3.8c0.33,1.35,1.05,2.39,2.16,3.14
		s2.53,0.83,4.25,0.23C519.16,29.74,520.14,28.64,520.41,27.18z"/>
	<path id="XMLID_27368_" class="st0" d="M557.53,45.26c-2.01-0.25-3.33-1.41-3.94-3.48c-0.02-0.12-0.05-0.25-0.09-0.37
		c-0.1-0.72-0.33-1.44-0.68-2.17s-0.94-1.03-1.79-0.91c-0.55,0.14-0.95,0.49-1.17,1.05c-0.23,0.55-0.38,1.13-0.46,1.73
		c-0.27,1.29-0.77,2.49-1.51,3.59c-0.74,1.1-1.69,1.96-2.87,2.57c-1.23,0.57-2.52,0.76-3.87,0.55c-1.35-0.21-2.46-0.81-3.34-1.82
		c-1.09-1.52-1.47-3.22-1.14-5.11c0.59-3.31,1.43-6.57,2.5-9.8c0.55-1.79,1.07-3.57,1.54-5.36c0.33-1.29,0.65-2.6,0.96-3.91
		c0.82-3.82,1.92-7.57,3.3-11.24c0.49-1.19,1.28-2.23,2.37-3.13c1.09-0.89,2.28-1.46,3.57-1.71c1.29-0.19,2.28-0.01,2.96,0.52
		s1.27,1.21,1.79,2.03c0.49,0.78,1.11,1.5,1.85,2.16c1.15,0.88,2.12,1.03,2.9,0.43s1.49-1.43,2.13-2.5c0.39-0.6,0.78-1.13,1.17-1.62
		c0.39-0.48,0.82-0.84,1.29-1.06c1.54-0.6,2.88-0.49,4,0.32c1.13,0.81,2.07,1.92,2.82,3.33s1.33,2.69,1.74,3.84
		c3.12,8.34,5.51,16.87,7.18,25.6c0.18,0.92,0.3,1.85,0.35,2.79c0.05,0.94-0.1,1.83-0.45,2.7c-0.64,1.4-1.71,2.38-3.2,2.96
		c-1.5,0.57-3.02,0.66-4.56,0.25c-2.26-0.78-4-2.18-5.24-4.19c-0.16-0.29-0.35-0.68-0.55-1.17c-0.37-0.86-0.82-1.68-1.34-2.46
		c-0.52-0.78-1.14-1.11-1.86-0.99c-0.55,0.16-0.99,0.52-1.29,1.06c-0.31,0.54-0.58,1.17-0.8,1.86c-0.23,0.64-0.48,1.24-0.77,1.8
		c-0.29,0.56-0.68,0.99-1.17,1.28C559.06,45.11,558.28,45.3,557.53,45.26z"/>
	<path id="XMLID_27370_" class="st0" d="M603.83,45.26c-2.01-0.25-3.33-1.41-3.94-3.48c-0.02-0.12-0.05-0.25-0.09-0.37
		c-0.1-0.72-0.33-1.44-0.68-2.17s-0.94-1.03-1.79-0.91c-0.55,0.14-0.95,0.49-1.17,1.05c-0.23,0.55-0.38,1.13-0.46,1.73
		c-0.27,1.29-0.77,2.49-1.51,3.59c-0.74,1.1-1.69,1.96-2.87,2.57c-1.23,0.57-2.52,0.76-3.87,0.55c-1.35-0.21-2.46-0.81-3.34-1.82
		c-1.09-1.52-1.47-3.22-1.14-5.11c0.59-3.31,1.43-6.57,2.5-9.8c0.55-1.79,1.07-3.57,1.54-5.36c0.33-1.29,0.65-2.6,0.96-3.91
		c0.82-3.82,1.92-7.57,3.3-11.24c0.49-1.19,1.28-2.23,2.37-3.13c1.09-0.89,2.28-1.46,3.57-1.71c1.29-0.19,2.28-0.01,2.96,0.52
		s1.27,1.21,1.79,2.03c0.49,0.78,1.11,1.5,1.85,2.16c1.15,0.88,2.12,1.03,2.9,0.43s1.49-1.43,2.13-2.5c0.39-0.6,0.78-1.13,1.17-1.62
		c0.39-0.48,0.82-0.84,1.29-1.06c1.54-0.6,2.88-0.49,4,0.32c1.13,0.81,2.07,1.92,2.82,3.33s1.33,2.69,1.74,3.84
		c3.12,8.34,5.51,16.87,7.18,25.6c0.18,0.92,0.3,1.85,0.35,2.79c0.05,0.94-0.1,1.83-0.45,2.7c-0.64,1.4-1.71,2.38-3.2,2.96
		c-1.5,0.57-3.02,0.66-4.56,0.25c-2.26-0.78-4-2.18-5.24-4.19c-0.16-0.29-0.35-0.68-0.55-1.17c-0.37-0.86-0.82-1.68-1.34-2.46
		c-0.52-0.78-1.14-1.11-1.86-0.99c-0.55,0.16-0.99,0.52-1.29,1.06c-0.31,0.54-0.58,1.17-0.8,1.86c-0.23,0.64-0.48,1.24-0.77,1.8
		c-0.29,0.56-0.68,0.99-1.17,1.28C605.36,45.11,604.59,45.3,603.83,45.26z"/>
	<path id="XMLID_27372_" class="st0" d="M633.18,5.74c1.4-0.84,2.9-1.08,4.5-0.72s2.94,1.14,4,2.33c1.54,1.89,2.34,4.06,2.4,6.5
		s-0.1,4.93-0.49,7.45c-0.33,2.18-0.49,4.21-0.49,6.1c-0.02,0.86,0.12,1.68,0.43,2.46c0.37,0.84,0.98,1.38,1.82,1.6
		c0.51,0.08,1.01,0,1.48-0.26s0.85-0.61,1.14-1.06c0.51-0.9,0.79-1.9,0.83-2.99c0.12-2.69,0.03-5.37-0.28-8.04
		c-0.17-1.62-0.28-3.24-0.34-4.85s0.02-3.23,0.25-4.85c0.25-1.29,0.86-2.36,1.85-3.19s2.1-1.37,3.36-1.62
		c1.83-0.37,3.23-0.16,4.21,0.62c0.98,0.78,1.74,2.01,2.29,3.7c1.31,3.7,2.06,7.4,2.23,11.11s-0.04,7.47-0.63,11.29
		c-0.27,2.03-0.65,4.03-1.16,5.99c-0.5,1.96-1.3,3.75-2.4,5.36c-1.1,1.61-2.65,2.91-4.67,3.9c-3.43,1.48-7.07,1.76-10.92,0.83
		s-6.94-2.91-9.26-5.95c-1.62-2.32-2.83-4.99-3.62-8.01s-1.24-6.11-1.36-9.27c-0.11-3.16,0.03-6.1,0.42-8.81
		c0.19-1.52,0.55-3.13,1.11-4.82s1.41-3.11,2.56-4.24C632.67,6.09,632.92,5.9,633.18,5.74z"/>
	<path id="XMLID_27374_" class="st0" d="M667.32,12.21c0.88-2.01,2.16-3.59,3.83-4.73c1.67-1.14,3.58-1.47,5.71-1
		c1.81,0.55,3.38,1.66,4.71,3.33s2.54,3.44,3.6,5.33c0.66,1.09,1.3,2.08,1.94,2.99c0.18,0.31,0.41,0.59,0.68,0.83
		c0.27,0.25,0.56,0.38,0.89,0.4c0.6-0.04,1-0.39,1.22-1.03s0.28-1.3,0.2-1.96l-0.18-1.57c-0.25-1.54-0.33-3.08-0.25-4.62
		c0.08-1.05,0.35-2.04,0.82-2.99c0.46-0.94,1.12-1.66,1.99-2.16c1.05-0.55,2.15-0.68,3.31-0.39c1.16,0.3,2.21,0.84,3.16,1.62
		c1.58,1.42,2.59,3.25,3.02,5.48c0.43,2.24,0.68,4.5,0.74,6.78c0.04,0.82,0.09,1.61,0.15,2.37c0.31,4.11,0.33,8.23,0.06,12.35
		c-0.02,0.31-0.03,0.63-0.03,0.96c-0.1,1.75-0.3,3.55-0.6,5.41s-0.89,3.49-1.77,4.88c-0.8,1.19-1.8,2-3,2.42s-2.48,0.47-3.84,0.14
		c-2.01-0.53-3.86-1.47-5.53-2.8s-3.21-2.88-4.61-4.62c-1.4-1.75-2.71-3.48-3.94-5.21c-0.35-0.53-0.71-1.05-1.08-1.54
		c0.25,1.6,0.41,3.22,0.48,4.85s-0.15,3.2-0.66,4.7c-0.58,1.56-1.51,2.82-2.82,3.79c-1.3,0.97-2.71,1.25-4.21,0.86
		c-1.01-0.31-1.86-0.88-2.56-1.71s-1.26-1.77-1.69-2.82c-0.84-2.12-1.33-4.34-1.46-6.67s-0.15-4.68-0.05-7.04
		c0.06-1.7,0.07-3.38,0.03-5.02c-0.21-3.29,0.12-6.5,0.99-9.64C666.78,13.52,667.03,12.86,667.32,12.21z"/>
	<path id="XMLID_27376_" class="st0" d="M705.92,28.16c-0.08-2.83-0.08-5.66,0-8.47c0.02-0.57,0.04-1.18,0.06-1.82
		c-0.02-1.7,0.08-3.42,0.29-5.16c0.22-1.74,0.74-3.28,1.59-4.64c1.42-2.12,3.29-3.27,5.61-3.45c1.85-0.02,3.29,0.62,4.33,1.91
		c1.04,1.29,1.68,2.89,1.92,4.77c0.29,2.57,0.38,5.13,0.28,7.7c-0.02,0.94-0.03,1.89-0.03,2.83c0.04,3.84,0.12,7.69,0.25,11.55
		c0.02,0.68,0.05,1.37,0.09,2.06c0.12,1.62,0.14,3.25,0.06,4.88s-0.47,3.16-1.17,4.57c-0.9,1.62-2.19,2.69-3.87,3.2
		c-1.67,0.51-3.29,0.38-4.85-0.4c-1.42-0.8-2.49-1.97-3.2-3.51c-0.72-1.54-1.08-3.17-1.08-4.9c-0.04-2.36-0.1-4.71-0.18-7.05
		C705.97,30.89,705.94,29.52,705.92,28.16z"/>
	<path id="XMLID_27378_" class="st0" d="M733.61,6.02c2.22,0.02,5.15,0.09,8.81,0.22c3.88,0.12,6.8,0.19,8.75,0.19
		s3.48,0.51,4.57,1.52s1.65,2.57,1.65,4.67c0,1.13-0.23,2.28-0.68,3.45s-1.21,2.08-2.28,2.74c-0.8,0.35-1.79,0.48-2.96,0.4
		c-0.74-0.02-1.43,0.02-2.08,0.12c-0.65,0.1-1.15,0.38-1.49,0.83c-0.51,0.86-0.77,1.8-0.77,2.8c-0.12,2.77-0.05,5.55,0.22,8.32
		c0.14,1.85,0.23,3.69,0.26,5.53c0.03,1.84-0.11,3.68-0.42,5.53c-0.6,2.77-1.99,4.49-4.19,5.16s-4.52,0.19-6.96-1.43
		c-1.31-0.97-2.27-2.21-2.87-3.73c-0.6-1.52-0.88-3.06-0.86-4.62c0.02-1.93,0.15-3.79,0.4-5.58c0.21-1.62,0.34-3.34,0.4-5.14
		c0.04-0.92,0.02-1.93-0.06-3.02s-0.33-2.07-0.75-2.96c-0.42-0.88-1.12-1.48-2.11-1.79c-0.88-0.21-1.75-0.31-2.59-0.31
		c-0.78-0.02-1.53-0.12-2.25-0.29s-1.37-0.59-1.94-1.25c-0.76-0.88-1.28-1.94-1.57-3.17c-0.29-1.23-0.25-2.4,0.12-3.51
		c0.68-1.68,1.89-2.89,3.65-3.62s3.54-1.08,5.34-1.06L733.61,6.02L733.61,6.02z"/>
	<path id="XMLID_27380_" class="st0" d="M776.22,31.55c-3.08,0.88-5.89,0.97-8.43,0.26s-4.67-2.15-6.39-4.33
		c-1.38-1.89-2.27-4.09-2.68-6.61s-0.48-4.91-0.22-7.19c0.1-1.15,0.34-2.27,0.72-3.36c0.38-1.09,0.96-2.05,1.74-2.9
		c1.91-1.79,4.14-2.34,6.68-1.66c1.4,0.49,2.46,1.32,3.2,2.48s1.16,2.46,1.26,3.9c0.06,0.86,0.07,1.74,0.03,2.62
		c-0.04,1.03-0.01,2.06,0.09,3.11c0.04,0.86,0.31,1.63,0.8,2.31c0.25,0.33,0.67,0.57,1.28,0.72c0.61,0.15,1.11,0.17,1.52,0.05
		c0.33-0.12,0.6-0.34,0.82-0.65c0.22-0.31,0.35-0.64,0.42-0.99c0.1-0.72,0.08-1.44-0.06-2.16c-0.27-1.56-0.43-3.16-0.49-4.81
		c-0.06-1.64,0.24-3.11,0.91-4.41c0.67-1.29,1.97-2.21,3.9-2.74c2.01-0.45,3.67-0.22,4.98,0.69c1.3,0.91,2.32,2.19,3.05,3.82
		s1.23,3.31,1.49,5.04c0.27,1.79,0.57,5.02,0.92,9.69c0.35,4.67-0.23,9-1.73,12.98c-0.78,1.99-1.87,3.79-3.28,5.39
		c-1.41,1.6-3.07,2.87-4.98,3.79c-2.18,1.01-4.36,1.56-6.55,1.66s-4.44-0.08-6.76-0.55c-2.36-0.37-4.57-1.14-6.62-2.31
		c-1.03-0.64-1.9-1.44-2.62-2.4c-0.72-0.96-1.16-2.04-1.32-3.23c0-1.19,0.26-2.35,0.79-3.47c0.52-1.12,1.42-1.88,2.7-2.29
		c1.09-0.21,2.22-0.14,3.39,0.18c0.39,0.06,0.76,0.12,1.11,0.19c0.88,0.14,1.76,0.28,2.62,0.4c0.88,0.14,1.77,0.28,2.65,0.4
		c0.9,0.19,1.81,0.24,2.71,0.15c0.97-0.1,1.76-0.51,2.37-1.23c0.27-0.39,0.41-0.82,0.42-1.29
		C776.67,32.34,776.52,31.92,776.22,31.55z"/>
</g>
<g id="XMLID_26943_">
	<g>
		<path id="XMLID_00000168093148941302413390000014235381898899829643_" class="st1" d="M26.25,23.24l-0.12,0.31
			c-0.72,1.58-1.92,2.55-3.6,2.9c-0.57,0.08-1.15,0.11-1.72,0.09c-0.86-0.08-1.7,0.01-2.5,0.28c-1.25,0.62-2.05,1.64-2.4,3.08
			c-0.21,0.84-0.27,1.67-0.2,2.48c0.07,0.81,0.19,1.63,0.36,2.45c0.33,1.42,0.41,2.86,0.25,4.34c-0.39,2.51-1.78,4.14-4.16,4.9
			c-1.52,0.45-3.03,0.41-4.53-0.12s-2.74-1.41-3.73-2.62c-1.13-1.5-1.85-3.15-2.16-4.94c-0.31-1.8-0.49-3.62-0.55-5.47v-0.4
			c-0.23-4.62-0.24-9.24-0.03-13.86c0.06-2.24,0.41-4.41,1.05-6.5s1.82-3.91,3.54-5.45c1.68-1.38,3.54-2.28,5.58-2.73
			c2.03-0.44,4.13-0.61,6.29-0.51s4.25,0.3,6.28,0.59c0.31,0.04,0.62,0.07,0.92,0.09c2.53,0.41,4.17,1.87,4.93,4.37
			c0.29,1.17,0.23,2.34-0.17,3.5s-1.1,2.08-2.11,2.76c-0.84,0.51-1.8,0.91-2.87,1.19c-1.07,0.28-2.08,0.34-3.05,0.2
			c-0.14-0.02-0.3-0.04-0.46-0.06c-0.66-0.16-1.36-0.25-2.11-0.26s-1.34,0.25-1.77,0.79c-0.41,0.58-0.47,0.99-0.17,1.23
			c0.3,0.25,0.76,0.41,1.38,0.48c0.63,0.07,1.26,0.11,1.89,0.11c0.62,0,1.08,0.02,1.39,0.06c1.62,0.33,2.94,1.13,3.94,2.4
			C26.49,20.25,26.7,21.7,26.25,23.24z"/>
		<path class="st2" d="M10.05,45.37c-0.93,0-1.86-0.16-2.77-0.49c-1.67-0.59-3.07-1.58-4.17-2.93c-1.24-1.65-2.03-3.46-2.36-5.4
			c-0.32-1.84-0.51-3.72-0.57-5.6v-0.43c-0.23-4.57-0.24-9.27-0.03-13.91c0.06-2.31,0.43-4.58,1.09-6.75
			C1.93,7.6,3.22,5.61,5.07,3.95c1.83-1.5,3.85-2.48,6.03-2.96c2.11-0.46,4.31-0.63,6.54-0.53c2.18,0.1,4.32,0.3,6.38,0.59
			c0.28,0.04,0.56,0.07,0.85,0.08c3.02,0.49,4.94,2.19,5.82,5.08c0.35,1.41,0.28,2.77-0.18,4.11c-0.47,1.37-1.31,2.46-2.49,3.26
			c-0.96,0.59-2.01,1.02-3.17,1.32c-1.19,0.31-2.35,0.38-3.45,0.22l-0.56-0.08c-0.58-0.14-1.21-0.22-1.88-0.23
			c-0.46-0.01-0.74,0.12-0.97,0.4c0.13,0.04,0.31,0.08,0.55,0.11c0.58,0.07,1.18,0.1,1.78,0.1c0.66,0,1.16,0.02,1.52,0.07
			c1.92,0.39,3.44,1.32,4.6,2.77l0.06,0.08c1.02,1.6,1.27,3.34,0.73,5.16l-0.16,0.4c-0.87,1.92-2.32,3.08-4.32,3.5
			c-0.69,0.1-1.33,0.13-1.96,0.11c-0.75-0.07-1.43,0-2.08,0.21c-0.95,0.49-1.54,1.27-1.81,2.39c-0.18,0.73-0.24,1.46-0.18,2.16
			c0.07,0.76,0.18,1.55,0.34,2.34c0.35,1.49,0.43,3.06,0.26,4.65c-0.46,2.94-2.09,4.86-4.85,5.74
			C11.64,45.25,10.84,45.37,10.05,45.37z M16.39,2.43c-1.66,0-3.3,0.17-4.87,0.51c-1.87,0.41-3.6,1.25-5.16,2.52
			c-1.55,1.38-2.64,3.06-3.22,4.97c-0.61,2-0.94,4.09-1,6.24c-0.2,4.59-0.19,9.23,0.03,13.79v0.45c0.06,1.76,0.24,3.55,0.54,5.3
			c0.28,1.63,0.94,3.15,1.97,4.51c0.84,1.03,1.95,1.81,3.27,2.28c1.31,0.47,2.59,0.5,3.91,0.11c1.99-0.63,3.13-1.98,3.46-4.1
			c0.15-1.32,0.07-2.67-0.23-3.97c-0.18-0.89-0.3-1.75-0.38-2.59c-0.08-0.92,0-1.86,0.23-2.8c0.42-1.73,1.41-2.99,2.93-3.74
			l0.12-0.05c0.93-0.31,1.91-0.42,2.9-0.32c0.46,0.01,0.98-0.01,1.49-0.09c1.31-0.27,2.25-1.04,2.84-2.32l0.09-0.22
			c0.35-1.23,0.19-2.36-0.49-3.44c-0.86-1.07-1.95-1.73-3.33-2c-0.12-0.01-0.49-0.04-1.19-0.04c-0.68,0-1.35-0.04-2.01-0.11
			c-0.83-0.09-1.45-0.32-1.91-0.7c-0.27-0.22-1.08-1.07-0.01-2.58c0.66-0.82,1.55-1.19,2.6-1.2c0.8,0.01,1.57,0.1,2.28,0.28
			l0.42,0.06c0.83,0.12,1.73,0.06,2.66-0.18c0.97-0.25,1.84-0.61,2.6-1.07c0.79-0.53,1.35-1.27,1.69-2.23
			c0.34-0.99,0.39-1.94,0.14-2.93c-0.63-2.08-1.98-3.28-4.12-3.63c-0.23-0.01-0.56-0.04-0.9-0.09c-2-0.28-4.08-0.48-6.2-0.58
			C17.16,2.44,16.78,2.43,16.39,2.43z M17.65,15.08C17.65,15.08,17.66,15.08,17.65,15.08C17.66,15.08,17.65,15.08,17.65,15.08z"/>
	</g>
	<g>
		<path id="XMLID_00000060711372143289419290000011435300756222295183_" class="st1" d="M65.43,35.2c0.51,1.83,0.36,3.47-0.48,4.91
			s-2.04,2.51-3.62,3.17c-1.58,0.67-3.24,0.74-4.99,0.23c-1.71-0.62-2.95-1.62-3.74-3.02s-1.42-2.93-1.89-4.59
			c-0.49-1.73-1.16-3.31-2-4.74c-0.37-0.64-0.86-1.14-1.48-1.51c-0.31-0.19-0.65-0.27-1.02-0.25s-0.69,0.16-0.96,0.43
			c-0.27,0.33-0.41,1.71-0.42,4.13s-0.3,4.38-0.88,5.88c-0.86,1.93-2.25,3.29-4.16,4.07c-2.05,0.7-3.92,0.39-5.61-0.92
			c-0.76-0.78-1.38-1.67-1.85-2.68c-0.62-1.21-1.02-2.49-1.2-3.84c-0.18-1.34-0.3-2.7-0.34-4.05c-0.02-0.66-0.05-1.29-0.09-1.91
			c-0.06-0.92-0.13-1.85-0.22-2.77c-0.25-2.88-0.4-5.74-0.46-8.59c-0.06-4.46,0.92-8.18,2.96-11.17s5.26-5,9.67-6.02
			c3.66-0.92,7.3-1,10.94-0.22c1.81,0.45,3.48,1.19,5.04,2.22s2.82,2.33,3.8,3.91c0.95,1.66,1.38,3.55,1.31,5.67
			c-0.07,2.12-0.59,3.98-1.56,5.61c-0.37,0.62-0.77,1.2-1.2,1.76c-0.47,0.6-0.9,1.21-1.29,1.85c-0.39,0.66-0.66,1.35-0.82,2.08
			c-0.15,0.73-0.11,1.44,0.14,2.14c0.22,0.58,0.55,1.07,0.98,1.49s0.89,0.81,1.39,1.16c0.39,0.29,0.77,0.6,1.14,0.92
			C63.87,31.86,64.84,33.41,65.43,35.2z M48.24,18.99c0.57-0.45,0.94-0.99,1.09-1.6s0.08-1.21-0.23-1.79
			c-0.19-0.33-0.48-0.66-0.89-0.99c-0.41-0.33-0.86-0.57-1.36-0.72c-0.49-0.15-0.96-0.11-1.38,0.14c-0.49,0.39-0.73,1.01-0.72,1.85
			c0.01,0.84,0.08,1.55,0.2,2.13c0.02,0.06,0.03,0.12,0.03,0.18c0.02,0.37,0.16,0.7,0.43,0.99c0.35,0.33,0.81,0.46,1.37,0.39
			C47.34,19.49,47.83,19.3,48.24,18.99z"/>
		<path class="st2" d="M37.71,45.27c-1.48,0-2.85-0.5-4.13-1.5l-0.1-0.09c-0.83-0.86-1.52-1.85-2.04-2.95
			c-0.65-1.28-1.09-2.67-1.29-4.12c-0.19-1.38-0.31-2.78-0.35-4.16c-0.02-0.64-0.05-1.27-0.09-1.87c-0.06-0.92-0.13-1.83-0.21-2.75
			c-0.25-2.9-0.4-5.81-0.46-8.66c-0.06-4.65,0.99-8.6,3.13-11.75c2.17-3.19,5.62-5.35,10.27-6.43c3.77-0.95,7.6-1.03,11.37-0.22
			c1.94,0.48,3.74,1.28,5.38,2.36c1.66,1.1,3.04,2.52,4.1,4.22c1.05,1.85,1.54,3.93,1.46,6.23c-0.08,2.27-0.65,4.32-1.7,6.08
			c-0.39,0.65-0.82,1.28-1.27,1.86c-0.46,0.58-0.87,1.16-1.23,1.75c-0.33,0.55-0.56,1.15-0.69,1.76c-0.12,0.56-0.08,1.08,0.1,1.6
			c0.16,0.42,0.41,0.79,0.74,1.11c0.39,0.38,0.82,0.74,1.27,1.06c0.41,0.3,0.82,0.63,1.22,0.99c1.48,1.46,2.54,3.15,3.18,5.08
			l0.01,0.04c0.59,2.09,0.39,4-0.57,5.68c-0.94,1.63-2.32,2.84-4.1,3.59c-1.79,0.76-3.69,0.85-5.66,0.27
			c-1.98-0.71-3.42-1.88-4.33-3.48c-0.83-1.46-1.49-3.07-1.99-4.81c-0.47-1.63-1.11-3.15-1.9-4.51c-0.29-0.5-0.66-0.88-1.13-1.16
			c-0.13-0.08-0.27-0.12-0.45-0.11c-0.08,0-0.15,0.02-0.21,0.06c-0.07,0.25-0.21,1.06-0.22,3.51c-0.01,2.53-0.33,4.63-0.94,6.24
			c-0.99,2.21-2.57,3.75-4.71,4.63C39.33,45.13,38.5,45.27,37.71,45.27z M34.86,42.25c1.4,1.07,2.91,1.3,4.62,0.73
			c1.62-0.67,2.81-1.83,3.57-3.53c0.51-1.33,0.78-3.19,0.79-5.48c0.01-3.68,0.31-4.35,0.64-4.75l0.07-0.08
			c0.44-0.44,0.99-0.69,1.6-0.72c0.57-0.04,1.1,0.1,1.58,0.38c0.76,0.46,1.37,1.08,1.83,1.86c0.88,1.5,1.59,3.18,2.1,4.97
			c0.45,1.58,1.06,3.05,1.8,4.37c0.68,1.2,1.73,2.04,3.21,2.57c1.47,0.43,2.89,0.37,4.27-0.21c1.39-0.58,2.42-1.49,3.15-2.75
			c0.7-1.21,0.82-2.56,0.39-4.13c-0.54-1.62-1.43-3.04-2.64-4.23c-0.31-0.27-0.67-0.56-1.03-0.83c-0.52-0.37-1.03-0.79-1.49-1.24
			c-0.53-0.52-0.94-1.14-1.22-1.84c-0.32-0.9-0.38-1.8-0.19-2.71c0.17-0.83,0.49-1.63,0.93-2.38c0.41-0.67,0.87-1.33,1.37-1.96
			c0.4-0.51,0.78-1.07,1.13-1.65c0.87-1.47,1.35-3.19,1.42-5.13c0.06-1.92-0.33-3.65-1.18-5.14c-0.88-1.42-2.06-2.63-3.49-3.57
			c-1.45-0.96-3.04-1.66-4.73-2.08c-3.43-0.74-6.96-0.67-10.45,0.21c-4.16,0.97-7.21,2.86-9.09,5.62c-1.91,2.8-2.84,6.37-2.78,10.59
			c0.06,2.8,0.21,5.67,0.46,8.52c0.08,0.93,0.15,1.86,0.22,2.79c0.04,0.63,0.07,1.28,0.09,1.95c0.04,1.31,0.15,2.64,0.33,3.95
			c0.17,1.23,0.54,2.41,1.1,3.52C33.66,40.76,34.2,41.56,34.86,42.25z M46.09,30.37L46.09,30.37L46.09,30.37z M46.49,20.58
			c-0.85,0-1.42-0.35-1.76-0.67c-0.47-0.5-0.7-1.03-0.74-1.63l-0.01-0.06c-0.14-0.64-0.21-1.42-0.22-2.32
			c-0.01-1.16,0.36-2.05,1.1-2.64l0.12-0.08c0.67-0.38,1.42-0.46,2.18-0.23c0.61,0.19,1.17,0.49,1.68,0.9
			c0.52,0.41,0.89,0.83,1.14,1.28c0.44,0.82,0.54,1.66,0.33,2.52c-0.21,0.83-0.69,1.55-1.44,2.14l-0.02,0.01
			c-0.55,0.41-1.2,0.67-1.94,0.76C46.76,20.57,46.62,20.58,46.49,20.58z M45.91,17.75c0.04,0.14,0.06,0.29,0.06,0.44
			c0.01,0.08,0.06,0.19,0.16,0.31c0.01,0.01,0.13,0.13,0.52,0.08c0.39-0.05,0.71-0.17,0.98-0.37c0.4-0.31,0.64-0.66,0.73-1.06
			c0.09-0.37,0.05-0.72-0.14-1.08c-0.11-0.2-0.33-0.43-0.64-0.68c-0.32-0.25-0.65-0.43-1.03-0.55c-0.2-0.06-0.36-0.06-0.53,0.02
			c-0.11,0.11-0.3,0.36-0.29,1.01C45.75,16.62,45.81,17.25,45.91,17.75z"/>
	</g>
	<g>
		<path id="XMLID_00000049218320202811276600000002016108436987628731_" class="st1" d="M67.77,24.75c-0.08-2.83-0.08-5.66,0-8.47
			c0.02-0.57,0.04-1.18,0.06-1.82c-0.02-1.7,0.08-3.42,0.29-5.16c0.22-1.74,0.74-3.28,1.59-4.64c1.42-2.12,3.29-3.27,5.61-3.45
			c1.85-0.02,3.29,0.62,4.33,1.91s1.68,2.89,1.93,4.77c0.29,2.57,0.38,5.13,0.28,7.7c-0.02,0.94-0.03,1.89-0.03,2.83
			c0.04,3.84,0.12,7.69,0.25,11.55c0.02,0.68,0.05,1.37,0.09,2.06c0.12,1.62,0.14,3.25,0.06,4.88c-0.08,1.63-0.47,3.16-1.17,4.57
			c-0.9,1.62-2.19,2.69-3.87,3.2c-1.67,0.51-3.29,0.38-4.85-0.4c-1.42-0.8-2.48-1.97-3.2-3.51c-0.72-1.54-1.08-3.17-1.08-4.9
			c-0.04-2.36-0.1-4.71-0.19-7.05C67.83,27.47,67.79,26.11,67.77,24.75z"/>
		<path class="st2" d="M75.22,46.02c-1.14,0-2.25-0.27-3.33-0.81c-1.64-0.93-2.86-2.26-3.66-3.98c-0.78-1.67-1.17-3.46-1.17-5.32
			c-0.04-2.34-0.1-4.68-0.19-7.02c-0.04-1.38-0.07-2.75-0.09-4.11c-0.08-2.84-0.08-5.71,0-8.52l0.06-1.82
			c-0.02-1.7,0.08-3.48,0.3-5.25c0.23-1.88,0.82-3.57,1.73-5.04c1.61-2.4,3.75-3.71,6.37-3.92c2.25,0.01,3.95,0.74,5.18,2.28
			c1.15,1.43,1.87,3.21,2.14,5.27c0.29,2.62,0.39,5.26,0.29,7.87c-0.02,0.92-0.03,1.86-0.03,2.79c0.04,3.81,0.12,7.68,0.25,11.52
			c0.02,0.67,0.05,1.35,0.09,2.03c0.12,1.64,0.15,3.32,0.06,4.99c-0.09,1.76-0.52,3.43-1.27,4.96c-1.05,1.89-2.55,3.13-4.47,3.72
			C76.72,45.9,75.96,46.02,75.22,46.02z M75.41,2.21c-0.02,0-0.05,0-0.08,0c-1.95,0.16-3.54,1.14-4.79,3.01
			c-0.74,1.19-1.23,2.62-1.43,4.21c-0.21,1.68-0.3,3.37-0.29,5.02l-0.06,1.86c-0.08,2.78-0.08,5.61,0,8.41v0.01
			c0.02,1.35,0.05,2.71,0.09,4.08c0.08,2.34,0.15,4.7,0.19,7.07c0,1.59,0.33,3.09,0.98,4.5c0.63,1.36,1.55,2.36,2.79,3.07
			c1.29,0.64,2.64,0.75,4.07,0.32c1.43-0.44,2.51-1.33,3.29-2.74c0.61-1.24,0.97-2.65,1.04-4.14c0.08-1.59,0.06-3.19-0.06-4.76
			c-0.04-0.72-0.07-1.42-0.1-2.11c-0.12-3.85-0.21-7.74-0.25-11.57c0-0.96,0.01-1.92,0.03-2.87c0.1-2.53,0.01-5.07-0.27-7.57
			c-0.22-1.68-0.8-3.12-1.71-4.26C78.04,2.72,76.91,2.21,75.41,2.21z"/>
	</g>
	<g>
		<path id="XMLID_00000157310414354552667290000017375507538613055628_" class="st1" d="M114.14,7.22c0.06,0.31,0.11,0.61,0.15,0.89
			c0.23,1.15,0.29,2.31,0.2,3.48c-0.09,1.17-0.57,2.13-1.43,2.86c-0.68,0.49-1.44,0.76-2.29,0.8s-1.69-0.05-2.51-0.28
			c-0.16-0.06-0.33-0.11-0.49-0.15c-0.9-0.33-1.81-0.43-2.71-0.31c-0.55,0.14-0.98,0.46-1.26,0.95c-0.29,0.49-0.28,0.97,0.03,1.42
			c0.27,0.31,0.61,0.47,1.03,0.48s0.87-0.03,1.34-0.11c0.43-0.08,0.85-0.13,1.26-0.15c1.17,0.12,2.07,0.68,2.71,1.66
			c0.53,0.94,0.86,1.97,0.98,3.08c0.14,0.86,0.14,1.72,0,2.57s-0.55,1.54-1.23,2.05c-0.86,0.51-1.83,0.72-2.9,0.62
			c-0.19,0-0.37-0.01-0.55-0.03c-0.66-0.04-1.34-0.04-2.05,0.02s-1.29,0.27-1.74,0.66c-0.29,0.29-0.46,0.64-0.52,1.05
			s0.01,0.8,0.21,1.17c0.25,0.45,0.62,0.78,1.12,0.99s1.02,0.31,1.56,0.31c0.57-0.02,1.15-0.08,1.72-0.19
			c0.47-0.08,0.94-0.14,1.42-0.19c1.4-0.06,2.7,0.26,3.9,0.97c1.2,0.71,2.1,1.68,2.7,2.91c0.74,1.68,0.79,3.36,0.15,5.04
			c-0.64,1.67-1.83,2.87-3.57,3.59c-4.21,1.46-8.47,1.51-12.77,0.17s-7.7-3.8-10.18-7.38c-2.61-4.07-3.88-8.54-3.82-13.43
			s1.58-9.27,4.56-13.15c2.12-2.61,4.72-4.65,7.82-6.11s6.38-2.09,9.83-1.86c1.87,0.12,3.46,0.63,4.77,1.52
			C112.89,4.04,113.75,5.4,114.14,7.22z"/>
		<path class="st2" d="M104.74,45.52c-2.15,0-4.29-0.34-6.44-1.01c-4.5-1.41-8.1-4.02-10.7-7.76c-2.72-4.25-4.06-8.95-4-14.01
			c0.06-5.08,1.67-9.71,4.76-13.75c2.22-2.74,4.97-4.88,8.19-6.41c3.24-1.53,6.71-2.2,10.32-1.96c2.04,0.13,3.81,0.71,5.27,1.7
			c1.53,1.04,2.53,2.62,2.97,4.7v0.01c0.07,0.33,0.12,0.64,0.16,0.95c0.23,1.18,0.31,2.44,0.21,3.7c-0.12,1.44-0.71,2.63-1.78,3.54
			c-0.9,0.66-1.85,0.99-2.89,1.04c-0.95,0.05-1.9-0.06-2.82-0.31c-0.21-0.08-0.34-0.12-0.47-0.15l-0.1-0.03
			c-0.74-0.27-1.45-0.35-2.17-0.27c-0.27,0.08-0.46,0.23-0.6,0.48c-0.09,0.16-0.09,0.22-0.04,0.3c0.06,0.06,0.13,0.09,0.27,0.09
			c0.35,0.01,0.74-0.02,1.15-0.09c0.45-0.09,0.92-0.14,1.38-0.17h0.08l0.08,0.01c1.48,0.16,2.64,0.87,3.44,2.11
			c0.63,1.11,1,2.27,1.14,3.51c0.15,0.91,0.15,1.89-0.01,2.85c-0.18,1.11-0.73,2.01-1.61,2.68l-0.09,0.06
			c-1.04,0.62-2.22,0.88-3.5,0.75c-0.12,0.01-0.35-0.01-0.57-0.03c-0.56-0.03-1.2-0.03-1.86,0.02c-0.49,0.04-0.87,0.17-1.16,0.42
			c-0.08,0.09-0.16,0.24-0.19,0.44c-0.03,0.2,0,0.36,0.1,0.54c0.14,0.26,0.34,0.43,0.63,0.55c0.39,0.16,0.77,0.24,1.18,0.24
			c0.49-0.02,1.02-0.08,1.55-0.17c0.51-0.09,1-0.15,1.51-0.2c1.63-0.07,3.12,0.3,4.49,1.1c1.37,0.81,2.41,1.93,3.09,3.34
			c0.86,1.96,0.92,3.9,0.19,5.82c-0.74,1.93-2.13,3.33-4.13,4.16C109.42,45.12,107.08,45.52,104.74,45.52z M105.45,2.57
			c-2.8,0-5.51,0.61-8.05,1.81c-2.95,1.4-5.46,3.36-7.48,5.84c-2.81,3.67-4.28,7.89-4.34,12.54c-0.06,4.67,1.17,9,3.66,12.88
			c2.33,3.34,5.58,5.7,9.64,6.96c4.07,1.27,8.16,1.22,12.15-0.16c1.44-0.59,2.43-1.58,2.97-3c0.54-1.43,0.5-2.83-0.14-4.28
			c-0.5-1.03-1.25-1.84-2.29-2.45c-1.04-0.62-2.14-0.88-3.35-0.83c-0.4,0.04-0.85,0.09-1.29,0.17c-0.61,0.11-1.24,0.18-1.86,0.2
			c-0.67-0.02-1.35-0.13-1.97-0.38c-0.72-0.29-1.26-0.77-1.62-1.43c-0.31-0.56-0.42-1.17-0.33-1.8c0.09-0.62,0.36-1.16,0.8-1.6
			c0.67-0.58,1.45-0.88,2.37-0.95c0.75-0.05,1.48-0.06,2.18-0.02c0.2,0.02,0.35,0.03,0.49,0.03c0.93,0.08,1.67-0.06,2.34-0.45
			c0.45-0.35,0.71-0.81,0.81-1.39c0.13-0.74,0.13-1.49,0-2.24c-0.12-1.02-0.41-1.93-0.87-2.75c-0.43-0.67-1.04-1.05-1.87-1.16
			c-0.34,0.02-0.7,0.07-1.05,0.13c-0.55,0.1-1.07,0.13-1.55,0.12c-0.7-0.02-1.31-0.3-1.76-0.82l-0.07-0.09
			c-0.53-0.77-0.55-1.66-0.07-2.48c0.42-0.72,1.07-1.21,1.87-1.42l0.11-0.02c1.04-0.14,2.1-0.03,3.14,0.34
			c0.18,0.05,0.37,0.11,0.55,0.17c0.63,0.17,1.37,0.25,2.11,0.21c0.66-0.03,1.23-0.23,1.76-0.61c0.6-0.52,0.95-1.23,1.03-2.14
			c0.08-1.08,0.02-2.16-0.19-3.21c-0.05-0.32-0.09-0.6-0.15-0.88c-0.34-1.58-1.04-2.71-2.14-3.46c-1.16-0.79-2.6-1.25-4.28-1.36
			C106.31,2.58,105.88,2.57,105.45,2.57z"/>
	</g>
	<g>
		<path id="XMLID_00000111149802563482695790000004274126774330023826_" class="st1" d="M119.87,8.8c0.88-2.01,2.16-3.59,3.83-4.73
			c1.67-1.14,3.58-1.47,5.71-1c1.81,0.55,3.38,1.66,4.71,3.33c1.34,1.66,2.54,3.44,3.61,5.33c0.66,1.09,1.3,2.08,1.94,2.99
			c0.19,0.31,0.41,0.59,0.68,0.83c0.27,0.25,0.56,0.38,0.89,0.4c0.6-0.04,1-0.39,1.22-1.03c0.21-0.65,0.28-1.3,0.2-1.96l-0.18-1.57
			c-0.25-1.54-0.33-3.08-0.25-4.62c0.08-1.05,0.36-2.04,0.82-2.99c0.46-0.94,1.12-1.66,1.99-2.16c1.05-0.55,2.15-0.68,3.31-0.39
			c1.16,0.3,2.21,0.84,3.16,1.62c1.58,1.42,2.59,3.25,3.02,5.48c0.43,2.24,0.68,4.5,0.74,6.78c0.04,0.82,0.09,1.61,0.15,2.37
			c0.31,4.11,0.33,8.23,0.06,12.35c-0.02,0.31-0.03,0.63-0.03,0.96c-0.1,1.75-0.3,3.55-0.6,5.41s-0.89,3.49-1.77,4.88
			c-0.8,1.19-1.8,2-3,2.42s-2.48,0.47-3.84,0.14c-2.01-0.53-3.86-1.47-5.53-2.8s-3.21-2.88-4.61-4.62c-1.4-1.75-2.71-3.48-3.94-5.21
			c-0.35-0.53-0.71-1.05-1.08-1.54c0.25,1.6,0.4,3.22,0.48,4.85c0.07,1.63-0.15,3.2-0.66,4.7c-0.57,1.56-1.51,2.82-2.82,3.79
			c-1.3,0.97-2.71,1.25-4.21,0.86c-1.01-0.31-1.86-0.88-2.56-1.71s-1.26-1.77-1.7-2.82c-0.84-2.12-1.33-4.34-1.46-6.67
			s-0.15-4.68-0.04-7.04c0.06-1.7,0.07-3.38,0.03-5.02c-0.21-3.29,0.12-6.5,0.99-9.64C119.33,10.11,119.58,9.45,119.87,8.8z"/>
		<path class="st2" d="M147.97,44.85c-0.64,0-1.3-0.08-1.97-0.24c-2.16-0.57-4.14-1.58-5.92-2.99c-1.72-1.38-3.33-2.98-4.76-4.78
			c-0.97-1.21-1.92-2.45-2.84-3.68c0.03,0.37,0.05,0.75,0.06,1.12c0.08,1.75-0.16,3.45-0.71,5.06c-0.65,1.76-1.71,3.19-3.17,4.27
			c-1.55,1.15-3.25,1.49-5.05,1.03c-1.23-0.38-2.25-1.06-3.07-2.03c-0.76-0.9-1.38-1.94-1.85-3.08c-0.88-2.22-1.4-4.57-1.54-6.99
			c-0.13-2.36-0.15-4.76-0.05-7.14c0.06-1.67,0.07-3.34,0.03-4.95c-0.21-3.34,0.13-6.7,1.02-9.93c0.23-0.73,0.49-1.43,0.79-2.11
			c0.96-2.18,2.36-3.91,4.19-5.15c1.9-1.3,4.09-1.68,6.49-1.15c2.07,0.63,3.82,1.86,5.27,3.68c1.36,1.69,2.6,3.53,3.7,5.46
			c0.63,1.04,1.27,2.03,1.89,2.91c0.17,0.29,0.34,0.49,0.54,0.68c0.09,0.08,0.16,0.12,0.22,0.13c0.09-0.02,0.18-0.08,0.27-0.35
			c0.17-0.51,0.22-1,0.16-1.52l-0.18-1.58c-0.25-1.56-0.34-3.18-0.25-4.79c0.09-1.19,0.4-2.31,0.92-3.37
			c0.55-1.12,1.35-1.99,2.39-2.58c1.29-0.69,2.65-0.84,4.05-0.48c1.3,0.33,2.49,0.94,3.54,1.81c1.77,1.58,2.89,3.62,3.36,6.06
			c0.44,2.29,0.69,4.63,0.76,6.94c0.04,0.79,0.09,1.57,0.15,2.32c0.31,4.13,0.33,8.33,0.06,12.5c-0.02,0.29-0.03,0.59-0.03,0.89
			c-0.11,1.84-0.31,3.69-0.61,5.57c-0.32,1.98-0.96,3.75-1.91,5.26c-0.94,1.39-2.11,2.33-3.51,2.83
			C149.62,44.71,148.81,44.85,147.97,44.85z M129.49,25.68l2.38,3.19c0.38,0.51,0.75,1.04,1.11,1.59c1.21,1.69,2.53,3.43,3.89,5.13
			c1.34,1.68,2.84,3.18,4.45,4.46c1.56,1.24,3.3,2.12,5.16,2.62c1.15,0.28,2.22,0.24,3.25-0.12c1-0.35,1.82-1.02,2.5-2.03
			c0.79-1.25,1.34-2.77,1.61-4.48c0.29-1.81,0.49-3.59,0.59-5.31c0-0.29,0.01-0.63,0.03-0.97c0.26-4.07,0.24-8.18-0.06-12.21
			c-0.06-0.76-0.11-1.57-0.16-2.4c-0.06-2.23-0.3-4.45-0.72-6.64c-0.39-2.04-1.28-3.65-2.71-4.93c-0.8-0.66-1.73-1.13-2.74-1.39
			c-0.92-0.24-1.77-0.14-2.6,0.3c-0.66,0.38-1.18,0.95-1.56,1.72c-0.4,0.83-0.65,1.71-0.72,2.63c-0.08,1.44,0,2.92,0.24,4.38
			l0.19,1.61c0.1,0.79,0.02,1.6-0.24,2.38c-0.35,1.04-1.09,1.64-2.09,1.71h-0.06h-0.06c-0.56-0.04-1.07-0.26-1.51-0.66
			c-0.34-0.31-0.62-0.67-0.86-1.05c-0.61-0.86-1.27-1.88-1.94-2.99c-1.05-1.86-2.23-3.61-3.53-5.22c-1.2-1.5-2.62-2.51-4.23-3
			c-1.79-0.39-3.41-0.12-4.86,0.87c-1.51,1.03-2.68,2.48-3.48,4.31l0,0c-0.27,0.62-0.51,1.24-0.7,1.87
			c-0.82,2.99-1.14,6.12-0.94,9.28c0.04,1.69,0.03,3.4-0.03,5.12c-0.1,2.32-0.09,4.65,0.04,6.95c0.13,2.21,0.59,4.35,1.39,6.36
			c0.39,0.94,0.9,1.8,1.53,2.55c0.58,0.69,1.26,1.15,2.09,1.4c1.16,0.3,2.26,0.07,3.32-0.71c1.16-0.85,1.97-1.95,2.48-3.33
			c0.46-1.35,0.67-2.81,0.6-4.31c-0.07-1.6-0.23-3.19-0.47-4.74L129.49,25.68z"/>
	</g>
	<g>
		<path id="XMLID_00000108989798886257271020000011470265166309579703_" class="st1" d="M193.15,18.31
			c0.68,3.45,0.64,6.91-0.12,10.38s-2.26,6.62-4.5,9.46c-2.16,2.61-4.68,4.36-7.58,5.27s-5.93,1.26-9.09,1.08
			c-1.97-0.02-3.97-0.33-5.99-0.92c-2.02-0.6-3.67-1.78-4.94-3.54c-1.29-2.16-2.12-4.67-2.46-7.55c-0.35-2.88-0.47-5.56-0.37-8.07
			c0-0.23,0-0.45,0-0.68c0.02-2.32,0.18-4.97,0.48-7.95c0.3-2.98,0.98-5.71,2.03-8.19c1.06-2.48,2.74-4.17,5.04-5.05
			c2.71-0.94,5.47-1.41,8.27-1.39c2.8,0.02,5.52,0.67,8.15,1.94c2.88,1.48,5.27,3.55,7.19,6.21
			C191.18,11.96,192.48,14.97,193.15,18.31z M174.79,28.2c0.06,0.02,0.12,0.03,0.18,0.03c0.57,0.06,1.11-0.05,1.6-0.32
			c0.49-0.28,0.91-0.64,1.26-1.09c1.23-1.6,1.71-3.39,1.42-5.36c-0.17-0.92-0.55-1.86-1.16-2.8s-1.39-1.54-2.36-1.79
			c-1.29-0.14-2.16,0.34-2.6,1.45s-0.64,2.37-0.6,3.79s0.13,2.53,0.28,3.33c0.06,0.6,0.23,1.16,0.49,1.69
			C173.66,27.7,174.16,28.06,174.79,28.2z"/>
		<path class="st2" d="M173.45,45.54c-0.54,0-1.09-0.02-1.64-0.05c-2-0.02-4.11-0.34-6.21-0.96c-2.23-0.66-4.07-1.97-5.47-3.92
			c-1.41-2.34-2.28-5.01-2.65-8.01c-0.35-2.92-0.48-5.68-0.38-8.23v-0.64c0.02-2.33,0.18-5.04,0.48-8.05
			c0.31-3.06,1.02-5.92,2.11-8.49c1.16-2.73,3.05-4.61,5.6-5.59c2.83-0.99,5.74-1.44,8.64-1.45c2.94,0.02,5.82,0.71,8.57,2.04
			c3.02,1.55,5.56,3.75,7.57,6.52c1.99,2.76,3.36,5.92,4.07,9.4v0.01c0.7,3.57,0.66,7.2-0.13,10.79c-0.79,3.6-2.37,6.92-4.69,9.86
			c-2.29,2.77-4.99,4.64-8.06,5.6C178.76,45.15,176.14,45.54,173.45,45.54z M173.74,2.15c-2.62,0-5.23,0.45-7.77,1.33
			c-2.03,0.78-3.49,2.25-4.45,4.5c-1.01,2.38-1.67,5.04-1.96,7.9c-0.29,2.95-0.45,5.59-0.47,7.86v0.67
			c-0.1,2.48,0.02,5.14,0.36,7.95c0.33,2.72,1.11,5.13,2.33,7.16c1.1,1.53,2.55,2.56,4.37,3.1c1.93,0.57,3.85,0.86,5.72,0.88
			c3.08,0.18,6.01-0.17,8.78-1.03c2.69-0.84,5.09-2.51,7.11-4.95c2.12-2.69,3.57-5.73,4.29-9.04c0.73-3.32,0.77-6.67,0.12-9.97
			c-0.65-3.19-1.9-6.09-3.73-8.62c-1.82-2.52-4.12-4.51-6.84-5.91c-2.46-1.19-5.06-1.81-7.7-1.83
			C173.85,2.15,173.8,2.15,173.74,2.15z M175.29,29.25c-0.12,0-0.25-0.01-0.37-0.02c-0.13-0.01-0.26-0.03-0.38-0.06
			c-0.88-0.21-1.59-0.74-2.07-1.53c-0.36-0.7-0.56-1.39-0.63-2.1c-0.14-0.78-0.24-1.92-0.28-3.4c-0.04-1.55,0.18-2.95,0.67-4.19
			c0.61-1.53,1.9-2.26,3.64-2.07l0.14,0.03c1.21,0.31,2.2,1.05,2.95,2.21c0.67,1.05,1.11,2.11,1.3,3.16
			c0.33,2.27-0.21,4.33-1.61,6.14c-0.43,0.56-0.96,1.01-1.56,1.36C176.51,29.09,175.92,29.25,175.29,29.25z M175.05,27.24h0.04
			c0.37,0.04,0.7-0.03,1.01-0.2c0.38-0.21,0.69-0.49,0.97-0.83c1.07-1.39,1.47-2.9,1.22-4.61c-0.14-0.76-0.48-1.58-1.01-2.41
			c-0.45-0.71-1.01-1.15-1.7-1.34c-0.93-0.09-1.28,0.27-1.5,0.83c-0.39,0.98-0.57,2.12-0.53,3.39c0.04,1.36,0.13,2.43,0.26,3.18
			c0.06,0.55,0.19,1,0.4,1.42c0.17,0.27,0.44,0.47,0.81,0.55L175.05,27.24z"/>
	</g>
	<g>
		<path id="XMLID_00000110445652492040397490000016259004889248788920_" class="st1" d="M211.54,22.29
			c-0.08,1.19-0.04,2.36,0.12,3.51c0.33,1.79,1.09,2.9,2.29,3.34c1.2,0.44,2.61,0.51,4.24,0.2c1.99-0.35,3.65-0.1,4.97,0.74
			c1.33,0.84,2.1,2.33,2.33,4.47c0.1,1.62-0.26,3.2-1.08,4.73s-1.93,2.7-3.33,3.5c-1.13,0.58-2.33,0.96-3.61,1.16
			c-1.27,0.19-2.55,0.3-3.82,0.32l-5.85-0.22c-1.17,0-2.33-0.12-3.48-0.35c-1.15-0.24-2.22-0.65-3.21-1.25
			c-1.58-1.11-2.68-2.57-3.3-4.37c-0.62-1.81-1.04-3.62-1.26-5.45c-0.39-3.18-0.58-6.39-0.55-9.61c-0.02-1.21-0.05-2.41-0.09-3.6
			c-0.1-1.89-0.09-3.95,0.04-6.19c0.13-2.24,0.59-4.33,1.37-6.28s2.11-3.45,3.97-4.5c1.68-0.82,3.24-1.08,4.68-0.79
			c1.44,0.3,2.77,1.18,4.01,2.63c0.76,1.03,1.23,2.18,1.4,3.45c0.18,1.27,0.25,2.56,0.23,3.85c-0.02,1.6-0.03,3.14-0.03,4.62v4.65
			C211.61,21.31,211.58,21.8,211.54,22.29z"/>
		<path class="st2" d="M213.69,45.25l-5.91-0.22h-0.01c-1.19,0-2.42-0.13-3.63-0.37c-1.26-0.26-2.44-0.72-3.52-1.37
			c-1.81-1.26-3.04-2.9-3.72-4.9c-0.64-1.87-1.08-3.77-1.31-5.65c-0.39-3.22-0.58-6.49-0.56-9.74c-0.02-1.18-0.05-2.38-0.09-3.56
			c-0.1-1.89-0.09-4.01,0.05-6.29c0.14-2.34,0.63-4.56,1.44-6.6c0.86-2.16,2.35-3.84,4.41-5c1.93-0.94,3.72-1.23,5.37-0.89
			C207.86,1,209.4,2,210.77,3.63c0.9,1.21,1.43,2.52,1.63,3.96c0.18,1.31,0.26,2.65,0.24,4c-0.02,1.6-0.03,3.13-0.03,4.61v4.65
			c0,0.5-0.02,1-0.07,1.52c-0.08,1.11-0.04,2.22,0.12,3.3c0.26,1.39,0.8,2.24,1.65,2.55c1.02,0.38,2.27,0.43,3.71,0.16
			c2.25-0.4,4.16-0.1,5.69,0.88c1.59,1.01,2.52,2.76,2.78,5.2c0.12,1.85-0.28,3.62-1.19,5.31c-0.9,1.69-2.15,3-3.71,3.89
			c-1.26,0.64-2.58,1.07-3.95,1.28C216.33,45.11,215,45.23,213.69,45.25z M204.83,2.51c-0.95,0-1.99,0.27-3.08,0.8
			c-1.63,0.92-2.79,2.22-3.49,3.97c-0.74,1.84-1.17,3.85-1.3,5.97c-0.13,2.2-0.15,4.24-0.04,6.08c0.04,1.22,0.07,2.42,0.09,3.64
			c-0.02,3.19,0.16,6.38,0.55,9.51c0.21,1.75,0.62,3.51,1.22,5.25c0.55,1.62,1.51,2.89,2.93,3.88c0.83,0.5,1.8,0.88,2.83,1.09
			c1.08,0.22,2.19,0.33,3.28,0.33l5.89,0.22c1.17-0.02,2.41-0.13,3.63-0.31c1.16-0.18,2.27-0.54,3.31-1.06
			c1.18-0.68,2.17-1.72,2.9-3.08s1.05-2.77,0.96-4.2c-0.19-1.79-0.8-3.01-1.87-3.69c-1.12-0.71-2.51-0.91-4.27-0.6
			c-1.78,0.34-3.38,0.25-4.75-0.25c-1.55-0.57-2.54-1.95-2.93-4.1c-0.18-1.25-0.22-2.5-0.14-3.76v-0.01
			c0.04-0.47,0.06-0.92,0.06-1.37v-4.65c0-1.48,0.01-3.03,0.03-4.63c0.02-1.25-0.06-2.49-0.22-3.7c-0.15-1.12-0.55-2.09-1.21-2.99
			c-1.04-1.23-2.2-2-3.41-2.25C205.49,2.54,205.16,2.51,204.83,2.51z"/>
	</g>
	<g>
		<path id="XMLID_00000090252588290417324780000009813035836641583505_" class="st1" d="M244.57,28.14
			c-3.08,0.88-5.89,0.97-8.43,0.26s-4.67-2.15-6.39-4.33c-1.38-1.89-2.27-4.09-2.68-6.61c-0.41-2.52-0.48-4.91-0.22-7.19
			c0.1-1.15,0.34-2.27,0.72-3.36c0.38-1.09,0.96-2.05,1.74-2.9c1.91-1.79,4.14-2.34,6.69-1.66c1.4,0.49,2.46,1.32,3.2,2.48
			c0.74,1.16,1.16,2.46,1.26,3.9c0.06,0.86,0.07,1.74,0.03,2.62c-0.04,1.03-0.01,2.06,0.09,3.11c0.04,0.86,0.31,1.63,0.8,2.31
			c0.25,0.33,0.67,0.57,1.28,0.72s1.11,0.17,1.52,0.05c0.33-0.12,0.6-0.34,0.82-0.65c0.22-0.31,0.36-0.64,0.42-0.99
			c0.1-0.72,0.08-1.44-0.06-2.16c-0.27-1.56-0.43-3.16-0.49-4.81c-0.06-1.64,0.24-3.11,0.91-4.41c0.67-1.29,1.96-2.21,3.9-2.74
			c2.01-0.45,3.67-0.22,4.97,0.69s2.32,2.19,3.05,3.82c0.73,1.63,1.23,3.31,1.49,5.04c0.27,1.79,0.57,5.02,0.92,9.69
			c0.35,4.67-0.23,9-1.73,12.98c-0.78,1.99-1.87,3.79-3.28,5.39s-3.07,2.87-4.98,3.79c-2.18,1.01-4.36,1.56-6.54,1.66
			c-2.19,0.1-4.44-0.08-6.76-0.55c-2.36-0.37-4.57-1.14-6.62-2.31c-1.03-0.64-1.9-1.44-2.62-2.4c-0.72-0.96-1.16-2.04-1.32-3.23
			c0-1.19,0.26-2.35,0.79-3.47c0.52-1.12,1.42-1.88,2.7-2.29c1.09-0.21,2.22-0.14,3.39,0.18c0.39,0.06,0.76,0.12,1.11,0.19
			c0.88,0.14,1.76,0.28,2.62,0.4c0.88,0.14,1.77,0.28,2.65,0.4c0.9,0.19,1.81,0.24,2.71,0.15c0.96-0.1,1.76-0.51,2.37-1.23
			c0.27-0.39,0.41-0.82,0.42-1.29C245.03,28.93,244.88,28.51,244.57,28.14z"/>
		<path class="st2" d="M242.43,45.89c-1.88,0-3.83-0.2-5.79-0.6c-2.43-0.38-4.77-1.2-6.92-2.42c-1.16-0.72-2.13-1.61-2.92-2.67
			c-0.82-1.1-1.33-2.34-1.51-3.69l-0.01-0.14c0-1.33,0.3-2.64,0.88-3.89c0.64-1.38,1.75-2.32,3.29-2.82l0.12-0.03
			c1.22-0.23,2.49-0.17,3.78,0.19c0.38,0.06,0.73,0.12,1.07,0.18c0.86,0.14,1.73,0.27,2.59,0.4c0.89,0.15,1.77,0.28,2.65,0.4
			c0.87,0.17,1.68,0.22,2.48,0.15c0.68-0.07,1.23-0.35,1.67-0.85c0.14-0.22,0.21-0.45,0.21-0.71c0-0.02,0-0.04,0-0.07
			c-2.93,0.72-5.67,0.74-8.14,0.04c-2.73-0.76-5.06-2.33-6.9-4.67c-1.49-2.04-2.45-4.41-2.88-7.07c-0.42-2.59-0.5-5.1-0.22-7.47
			c0.11-1.2,0.37-2.42,0.77-3.57c0.43-1.22,1.08-2.31,1.95-3.24c2.22-2.08,4.78-2.72,7.67-1.95c1.68,0.59,2.93,1.56,3.79,2.91
			c0.82,1.29,1.3,2.76,1.42,4.36c0.06,0.91,0.07,1.83,0.03,2.74c-0.04,0.97-0.01,1.97,0.09,2.97c0.04,0.72,0.24,1.3,0.62,1.82
			c0.04,0.05,0.21,0.21,0.72,0.34c0.53,0.14,0.83,0.11,0.99,0.06c0.08-0.03,0.19-0.12,0.29-0.26c0.13-0.19,0.22-0.38,0.25-0.59
			c0.08-0.57,0.06-1.18-0.06-1.79c-0.28-1.62-0.45-3.28-0.51-4.96c-0.07-1.81,0.28-3.46,1.02-4.9c0.79-1.54,2.31-2.63,4.52-3.25
			c2.33-0.53,4.27-0.24,5.81,0.84c1.45,1.01,2.59,2.44,3.39,4.23c0.76,1.71,1.29,3.49,1.57,5.29c0.27,1.82,0.58,5.1,0.93,9.77
			c0.36,4.8-0.24,9.31-1.79,13.41c-0.82,2.1-1.99,4.01-3.46,5.7c-1.49,1.7-3.27,3.05-5.29,4.03c-2.3,1.06-4.63,1.65-6.93,1.76
			C243.24,45.88,242.84,45.89,242.43,45.89z M227.27,36.3c0.15,1,0.52,1.89,1.13,2.71c0.64,0.86,1.43,1.58,2.35,2.15
			c1.91,1.09,4.02,1.82,6.25,2.17c2.27,0.46,4.47,0.64,6.56,0.54c2.05-0.1,4.12-0.62,6.17-1.57c1.76-0.85,3.33-2.05,4.65-3.54
			c1.32-1.51,2.37-3.22,3.1-5.1c1.44-3.81,2-8.04,1.66-12.55c-0.35-4.62-0.65-7.85-0.92-9.62c-0.25-1.62-0.73-3.23-1.42-4.78
			c-0.65-1.46-1.57-2.61-2.71-3.41c-1.08-0.75-2.44-0.93-4.19-0.54c-1.62,0.45-2.69,1.18-3.23,2.23c-0.59,1.13-0.85,2.45-0.8,3.91
			c0.06,1.6,0.22,3.17,0.48,4.67c0.16,0.8,0.18,1.64,0.06,2.47c-0.09,0.52-0.29,0.99-0.59,1.42c-0.33,0.47-0.76,0.81-1.28,1.01
			c-0.65,0.2-1.33,0.19-2.12-0.01c-0.83-0.21-1.45-0.58-1.83-1.09c-0.61-0.85-0.95-1.8-1-2.86c-0.1-1.04-0.14-2.14-0.09-3.2
			c0.04-0.83,0.03-1.68-0.03-2.51c-0.09-1.26-0.46-2.42-1.11-3.43c-0.62-0.98-1.5-1.66-2.7-2.08c-2.14-0.56-4.02-0.1-5.67,1.45
			c-0.63,0.68-1.15,1.54-1.48,2.5c-0.35,1-0.58,2.05-0.67,3.12c-0.26,2.21-0.19,4.54,0.21,6.94c0.38,2.35,1.23,4.43,2.5,6.18
			c1.56,1.97,3.54,3.31,5.86,3.96c2.34,0.65,5,0.57,7.88-0.26l0.63-0.18l0.42,0.5c0.46,0.56,0.69,1.21,0.67,1.92
			c-0.01,0.66-0.21,1.28-0.59,1.83l-0.06,0.08c-0.78,0.92-1.8,1.44-3.02,1.57c-1.01,0.09-2.02,0.04-3.02-0.17
			c-0.83-0.11-1.72-0.25-2.61-0.39c-0.85-0.12-1.73-0.26-2.62-0.4c-0.36-0.06-0.72-0.12-1.1-0.18l-0.11-0.03
			c-0.99-0.28-1.96-0.34-2.87-0.18c-0.98,0.33-1.64,0.9-2.04,1.75C227.51,34.28,227.28,35.28,227.27,36.3z"/>
	</g>
	<g>
		<path id="XMLID_00000037669780017030943720000005493414251187704721_" class="st1" d="M307.54,4.3c1.38,1.27,2.12,2.9,2.25,4.87
			s-0.46,3.65-1.76,5.02c-0.78,0.74-1.64,1.18-2.59,1.31c-0.95,0.13-1.92,0.2-2.93,0.2c-0.68,0-1.24,0.21-1.68,0.62
			c-0.44,0.41-0.77,1.25-0.97,2.51c-0.21,1.26-0.31,3.18-0.31,5.75c0,2.12-0.03,4.22-0.09,6.31c-0.04,1.05-0.07,2.11-0.09,3.17
			c0,1.6-0.22,3.15-0.65,4.65s-1.23,2.79-2.4,3.88c-1.23,1.03-2.65,1.58-4.25,1.65c-1.6,0.07-3.06-0.36-4.38-1.31
			c-1.05-0.84-1.85-1.86-2.4-3.07c-0.55-1.2-0.91-2.46-1.08-3.77c-0.19-2.07-0.15-4.17,0.09-6.28c0.04-0.51,0.07-1.03,0.09-1.54
			c0.21-3.12,0.19-6.24-0.06-9.37c-0.1-1.07-0.48-1.87-1.12-2.4c-0.65-0.53-1.48-0.88-2.51-1.05c-1.77-0.29-3.26-0.92-4.47-1.91
			c-1.21-0.99-1.88-2.4-2-4.25c-0.02-1.89,0.57-3.48,1.79-4.77c1.21-1.29,2.77-2.09,4.68-2.4c2.88-0.37,5.8-0.5,8.78-0.4
			c0.88,0.02,1.75,0.03,2.59,0.03c4-0.1,7.98,0.2,11.92,0.89C305.43,2.92,306.61,3.48,307.54,4.3z"/>
		<path class="st2" d="M291.74,45.24c-1.68,0-3.23-0.51-4.62-1.5c-1.21-0.97-2.11-2.12-2.73-3.46c-0.59-1.29-0.99-2.66-1.16-4.07
			c-0.19-2.16-0.16-4.35,0.09-6.52c0.04-0.46,0.07-0.96,0.09-1.46c0.2-3.09,0.18-6.19-0.06-9.25c-0.08-0.78-0.33-1.35-0.77-1.71
			c-0.5-0.42-1.19-0.7-2.03-0.83c-1.94-0.31-3.6-1.03-4.94-2.12c-1.43-1.16-2.22-2.83-2.37-4.96c-0.03-2.2,0.66-4.04,2.05-5.52
			c1.36-1.45,3.13-2.36,5.25-2.71c2.94-0.38,5.95-0.52,8.97-0.41c0.86,0.02,1.72,0.03,2.55,0.03c4.03-0.1,8.1,0.2,12.1,0.91
			c1.63,0.33,2.97,0.96,4.03,1.9l0.02,0.01c1.56,1.45,2.43,3.31,2.56,5.54c0.14,2.25-0.54,4.19-2.02,5.76
			c-0.97,0.92-2.03,1.45-3.17,1.61c-0.98,0.14-2.02,0.21-3.06,0.21c-0.43,0-0.75,0.11-1,0.35c-0.1,0.09-0.43,0.5-0.67,1.94
			c-0.19,1.2-0.29,3.08-0.29,5.59c0,2.12-0.03,4.25-0.09,6.34c-0.04,1.05-0.07,2.1-0.09,3.16c0,1.67-0.23,3.32-0.69,4.91
			c-0.48,1.67-1.38,3.13-2.68,4.34c-1.44,1.2-3.06,1.83-4.88,1.91C291.99,45.24,291.86,45.24,291.74,45.24z M287.56,2.67
			c-2.28,0-4.54,0.14-6.73,0.43c-1.67,0.27-3.02,0.96-4.08,2.1c-1.04,1.11-1.53,2.45-1.52,4.08c0.1,1.52,0.64,2.68,1.63,3.49
			c1.07,0.87,2.41,1.44,4,1.7c1.2,0.19,2.2,0.62,2.98,1.26c0.85,0.71,1.35,1.74,1.48,3.08c0.25,3.17,0.27,6.37,0.06,9.53
			c-0.02,0.5-0.05,1.03-0.09,1.55c-0.24,2.08-0.27,4.12-0.09,6.12c0.15,1.17,0.48,2.34,0.99,3.45c0.49,1.06,1.2,1.97,2.12,2.71
			c1.1,0.79,2.32,1.16,3.71,1.09c1.39-0.06,2.59-0.53,3.66-1.42c1.01-0.94,1.7-2.06,2.08-3.39c0.4-1.41,0.61-2.88,0.61-4.38
			c0.02-1.09,0.05-2.16,0.09-3.21c0.06-2.07,0.09-4.18,0.09-6.28c0-2.65,0.1-4.58,0.32-5.9c0.25-1.52,0.65-2.5,1.27-3.08
			c0.63-0.59,1.42-0.88,2.36-0.88c0.96,0,1.89-0.06,2.79-0.19c0.74-0.1,1.41-0.45,2.04-1.05c1.07-1.14,1.55-2.54,1.45-4.24
			c-0.11-1.72-0.74-3.09-1.92-4.19c-0.79-0.7-1.82-1.17-3.07-1.43c-3.84-0.68-7.78-0.98-11.7-0.87c-0.87,0-1.75-0.01-2.64-0.03
			C288.83,2.68,288.19,2.67,287.56,2.67z"/>
	</g>
	<g>
		<path id="XMLID_00000132081750522841387940000008411853408616769460_" class="st1" d="M313.56,24.24c0-2.27,1.39-3.53,2.59-3.53
			c2.4,0,3.72,0.32,5.99,0.32s3.6-0.32,5.87-0.32c1.14,0,2.46,1.26,2.46,3.53s-1.45,3.41-2.46,3.41c-2.27,0-3.6-0.32-5.87-0.32
			s-3.6,0.32-5.99,0.32C315.07,27.65,313.56,26.51,313.56,24.24z"/>
		<path class="st2" d="M328,28.64c-1.18,0-2.12-0.08-3.02-0.16s-1.75-0.15-2.85-0.15c-1.08,0-1.93,0.07-2.83,0.15
			c-0.94,0.08-1.91,0.16-3.17,0.16c-1.72,0-3.58-1.68-3.58-4.4c0-2.83,1.82-4.53,3.58-4.53c1.26,0,2.23,0.08,3.17,0.16
			c0.9,0.08,1.75,0.15,2.83,0.15c1.09,0,1.94-0.08,2.85-0.15c0.91-0.08,1.84-0.16,3.02-0.16c1.7,0,3.46,1.69,3.46,4.53
			C331.46,26.96,329.67,28.64,328,28.64z M322.14,26.34c1.18,0,2.12,0.08,3.02,0.16s1.75,0.15,2.85,0.15c0.38,0,1.47-0.59,1.47-2.41
			c0-1.79-0.95-2.54-1.47-2.54c-1.09,0-1.94,0.08-2.85,0.15c-0.91,0.08-1.84,0.16-3.02,0.16c-1.16,0-2.1-0.08-3-0.16
			s-1.82-0.16-3-0.16c-0.67,0-1.59,0.88-1.59,2.54c0,1.68,1.05,2.41,1.59,2.41c1.17,0,2.1-0.08,3-0.16
			C320.04,26.42,320.97,26.34,322.14,26.34z"/>
	</g>
	<g>
		<path id="XMLID_00000181790313638487712140000010559827246146302604_" class="st1" d="M368.52,32.27c0.72,1.01,1.25,2.09,1.6,3.25
			s0.45,2.35,0.31,3.56c-0.19,1.23-0.67,2.33-1.45,3.28s-1.77,1.59-2.96,1.89c-2.01,0.33-3.82-0.19-5.42-1.54
			c-1.38-1.23-2.46-2.69-3.25-4.37s-1.46-3.39-2.02-5.11c-0.25-0.74-0.54-1.48-0.89-2.22s-0.81-1.38-1.39-1.91
			c-0.47-0.39-1.06-0.64-1.77-0.74s-1.3,0.08-1.77,0.55c-0.23,0.27-0.35,0.58-0.38,0.94s-0.01,0.71,0.08,1.06
			c0.16,0.97,0.26,1.93,0.28,2.9c0.04,0.47,0.09,0.93,0.15,1.39c0.12,0.68,0.16,1.37,0.12,2.06c-0.1,1.48-0.54,2.9-1.32,4.27
			c-0.78,1.37-1.96,2.19-3.54,2.48c-1.85,0.18-3.54-0.2-5.08-1.14c-1.54-0.94-2.68-2.26-3.42-3.94c-0.43-0.99-0.72-1.98-0.88-2.99
			c-0.15-1.01-0.26-2.02-0.32-3.05c-0.04-0.68-0.1-1.36-0.19-2.03c-0.06-0.62-0.13-1.22-0.21-1.82c-0.27-1.99-0.44-4-0.52-6.04
			c-0.14-3.02,0.07-5.97,0.65-8.86c0.57-2.89,1.93-5.47,4.07-7.75c1.83-1.81,3.89-3.07,6.19-3.79s4.69-1.15,7.18-1.29
			c3.45-0.29,6.65,0.18,9.61,1.42s5.14,3.56,6.56,6.99c0.72,1.91,0.96,3.71,0.71,5.39s-0.87,3.41-1.88,5.18
			c-0.6,1.07-1.34,2.02-2.25,2.87c-0.25,0.21-0.5,0.4-0.77,0.59c-0.33,0.23-0.63,0.47-0.91,0.74s-0.48,0.6-0.6,0.99
			c-0.16,0.6-0.06,1.11,0.32,1.54s0.83,0.81,1.34,1.14c0.22,0.19,0.44,0.36,0.65,0.52C366.43,29.71,367.56,30.91,368.52,32.27z
			 M349.45,14.43c-0.29,0.78-0.38,1.61-0.28,2.5c0.02,0.21,0.05,0.41,0.09,0.62s0.12,0.38,0.25,0.52c0.16,0.16,0.35,0.27,0.57,0.32
			c0.21,0.05,0.44,0.07,0.66,0.05c0.49,0.02,0.97-0.05,1.45-0.22c0.86-0.39,1.38-1,1.56-1.83c0.17-0.83-0.06-1.59-0.69-2.26
			c-0.58-0.57-1.22-0.86-1.94-0.86S349.84,13.65,349.45,14.43z"/>
		<path class="st2" d="M364.87,45.34c-1.82,0-3.45-0.63-4.91-1.86c-1.49-1.33-2.66-2.91-3.51-4.71c-0.8-1.71-1.5-3.47-2.06-5.23
			c-0.23-0.68-0.51-1.39-0.85-2.1c-0.29-0.62-0.68-1.16-1.16-1.61c-0.29-0.23-0.71-0.41-1.24-0.48c-0.4-0.06-0.67,0.03-0.92,0.27
			c-0.04,0.05-0.08,0.17-0.1,0.32c-0.02,0.25,0,0.5,0.05,0.75c0.19,1.08,0.28,2.1,0.3,3.1c0.04,0.39,0.09,0.84,0.15,1.27
			c0.13,0.71,0.18,1.48,0.13,2.26c-0.11,1.64-0.6,3.21-1.45,4.7c-0.93,1.62-2.35,2.62-4.23,2.96c-2.14,0.22-4.06-0.21-5.78-1.27
			c-1.71-1.05-2.99-2.53-3.81-4.39c-0.46-1.06-0.78-2.15-0.95-3.24c-0.16-1.05-0.27-2.11-0.33-3.14c-0.04-0.66-0.1-1.31-0.18-1.97
			c-0.06-0.62-0.13-1.22-0.21-1.8c-0.27-2.01-0.45-4.07-0.53-6.13c-0.15-3.08,0.08-6.14,0.66-9.09c0.61-3.06,2.06-5.83,4.32-8.23
			c1.96-1.94,4.18-3.3,6.62-4.06c2.37-0.74,4.86-1.19,7.42-1.34c3.57-0.3,6.96,0.2,10.05,1.49c3.2,1.33,5.58,3.87,7.1,7.53
			c0.79,2.09,1.04,4.07,0.77,5.92c-0.26,1.8-0.94,3.65-2,5.52c-0.64,1.15-1.46,2.2-2.43,3.1c-0.31,0.26-0.59,0.47-0.88,0.67
			s-0.55,0.41-0.79,0.64c-0.16,0.15-0.27,0.33-0.34,0.57c-0.08,0.28-0.01,0.43,0.12,0.58c0.32,0.36,0.7,0.68,1.13,0.96l0.1,0.07
			c0.22,0.18,0.43,0.35,0.63,0.51c1.36,1.1,2.56,2.38,3.58,3.81c0.78,1.09,1.36,2.28,1.74,3.54c0.39,1.28,0.5,2.62,0.34,3.96
			c-0.22,1.44-0.78,2.71-1.67,3.79c-0.91,1.12-2.08,1.87-3.48,2.23C365.8,45.3,365.33,45.34,364.87,45.34z M350.93,27.33
			c0.16,0,0.33,0.01,0.5,0.04c0.89,0.13,1.65,0.45,2.26,0.96c0.71,0.66,1.25,1.4,1.65,2.25c0.37,0.78,0.68,1.57,0.94,2.33
			c0.54,1.69,1.21,3.37,1.97,5.01c0.73,1.55,1.74,2.92,3.01,4.06c1.36,1.15,2.87,1.58,4.6,1.3c0.9-0.24,1.7-0.75,2.35-1.54
			c0.67-0.82,1.08-1.74,1.24-2.8c0.12-1.04,0.03-2.1-0.28-3.12c-0.32-1.05-0.81-2.05-1.46-2.96l0,0c-0.91-1.28-1.99-2.43-3.21-3.41
			c-0.19-0.15-0.39-0.32-0.61-0.49c-0.57-0.37-1.07-0.8-1.5-1.29c-0.6-0.69-0.79-1.54-0.54-2.46c0.18-0.58,0.47-1.06,0.87-1.44
			c0.32-0.31,0.67-0.59,1.04-0.84c0.23-0.16,0.47-0.34,0.69-0.53c0.78-0.73,1.47-1.61,2.02-2.59c0.94-1.66,1.54-3.28,1.76-4.83
			c0.22-1.51,0-3.15-0.65-4.9c-1.31-3.18-3.29-5.29-6.01-6.42c-2.79-1.17-5.87-1.62-9.15-1.34c-2.42,0.14-4.75,0.56-6.96,1.25
			c-2.14,0.67-4.08,1.86-5.79,3.55c-1.97,2.1-3.26,4.55-3.79,7.23c-0.56,2.79-0.77,5.69-0.63,8.61c0.08,2.01,0.25,4.01,0.52,5.95
			c0.08,0.61,0.16,1.22,0.22,1.85c0.08,0.68,0.15,1.37,0.19,2.07c0.06,0.97,0.16,1.97,0.31,2.96c0.14,0.92,0.41,1.84,0.81,2.74
			c0.66,1.51,1.65,2.65,3.03,3.49c1.36,0.84,2.83,1.16,4.46,1c1.21-0.22,2.15-0.88,2.78-1.98c0.7-1.22,1.1-2.52,1.2-3.84
			c0.04-0.61,0-1.22-0.11-1.82c-0.07-0.51-0.12-0.99-0.17-1.48c-0.02-0.97-0.11-1.89-0.27-2.81c-0.09-0.39-0.13-0.85-0.09-1.32
			c0.05-0.57,0.26-1.07,0.62-1.5C349.38,27.64,350.11,27.33,350.93,27.33z M350.56,19.44c-0.24,0-0.47-0.03-0.7-0.08
			c-0.39-0.09-0.75-0.29-1.04-0.59c-0.28-0.33-0.44-0.66-0.52-1.03c-0.05-0.24-0.08-0.48-0.11-0.72c-0.12-1.02-0.01-2.01,0.33-2.93
			l0.04-0.1c0.71-1.42,1.78-1.72,2.55-1.72c0.99,0,1.88,0.39,2.64,1.15c0.88,0.94,1.21,2.02,0.96,3.17
			c-0.24,1.14-0.97,2.02-2.12,2.54c-0.65,0.23-1.23,0.33-1.83,0.3C350.7,19.44,350.63,19.44,350.56,19.44z M350.37,14.83
			c-0.22,0.62-0.29,1.27-0.2,1.98c0.02,0.19,0.04,0.37,0.08,0.54c0.02,0.06,0.04,0.07,0.07,0.07c0.12,0.03,0.23,0.04,0.35,0.02
			l0.07-0.01h0.07c0.37,0.02,0.72-0.04,1.08-0.16c0.49-0.23,0.8-0.58,0.91-1.1c0.11-0.51-0.03-0.94-0.44-1.38
			c-0.37-0.37-0.76-0.55-1.22-0.55C350.96,14.26,350.67,14.26,350.37,14.83z"/>
	</g>
	<g>
		<path id="XMLID_00000128463360025105983430000017877854419843533989_" class="st1" d="M399.79,7.22c0.06,0.31,0.11,0.61,0.15,0.89
			c0.22,1.15,0.29,2.31,0.2,3.48c-0.09,1.17-0.57,2.13-1.43,2.86c-0.68,0.49-1.44,0.76-2.29,0.8s-1.69-0.05-2.51-0.28
			c-0.16-0.06-0.33-0.11-0.49-0.15c-0.9-0.33-1.81-0.43-2.71-0.31c-0.55,0.14-0.98,0.46-1.26,0.95c-0.29,0.49-0.28,0.97,0.03,1.42
			c0.27,0.31,0.61,0.47,1.03,0.48s0.87-0.03,1.34-0.11c0.43-0.08,0.85-0.13,1.26-0.15c1.17,0.12,2.07,0.68,2.71,1.66
			c0.54,0.94,0.86,1.97,0.99,3.08c0.14,0.86,0.14,1.72,0,2.57s-0.55,1.54-1.23,2.05c-0.86,0.51-1.83,0.72-2.9,0.62
			c-0.18,0-0.37-0.01-0.55-0.03c-0.66-0.04-1.34-0.04-2.05,0.02c-0.71,0.05-1.29,0.27-1.74,0.66c-0.29,0.29-0.46,0.64-0.53,1.05
			c-0.06,0.41,0.01,0.8,0.22,1.17c0.25,0.45,0.62,0.78,1.12,0.99s1.02,0.31,1.55,0.31c0.57-0.02,1.15-0.08,1.72-0.19
			c0.47-0.08,0.95-0.14,1.42-0.19c1.4-0.06,2.7,0.26,3.9,0.97s2.1,1.68,2.7,2.91c0.74,1.68,0.79,3.36,0.15,5.04
			c-0.64,1.67-1.83,2.87-3.57,3.59c-4.21,1.46-8.47,1.51-12.77,0.17s-7.7-3.8-10.18-7.38c-2.61-4.07-3.88-8.54-3.82-13.43
			s1.58-9.27,4.56-13.15c2.12-2.61,4.72-4.65,7.83-6.11c3.1-1.47,6.38-2.09,9.83-1.86c1.87,0.12,3.46,0.63,4.78,1.52
			C398.55,4.04,399.4,5.4,399.79,7.22z"/>
		<path class="st2" d="M390.39,45.52c-2.15,0-4.29-0.34-6.44-1.01c-4.5-1.41-8.1-4.02-10.7-7.76c-2.72-4.24-4.06-8.95-4-14.01
			c0.06-5.08,1.67-9.71,4.76-13.75c2.22-2.73,4.97-4.88,8.19-6.41c3.24-1.53,6.71-2.19,10.32-1.96c2.04,0.13,3.81,0.71,5.27,1.7
			c1.53,1.04,2.53,2.62,2.97,4.7v0.02c0.06,0.33,0.12,0.64,0.16,0.94c0.23,1.19,0.31,2.45,0.21,3.7c-0.11,1.44-0.71,2.63-1.78,3.54
			c-0.9,0.66-1.85,0.99-2.89,1.04c-0.95,0.04-1.9-0.06-2.82-0.31c-0.21-0.08-0.34-0.12-0.47-0.15l-0.1-0.03
			c-0.74-0.27-1.45-0.35-2.17-0.27c-0.27,0.08-0.46,0.23-0.6,0.48c-0.09,0.16-0.09,0.22-0.04,0.3c0.06,0.06,0.13,0.09,0.27,0.1
			c0.36,0.01,0.74-0.02,1.15-0.09c0.45-0.09,0.92-0.14,1.38-0.17h0.08l0.08,0.01c1.48,0.16,2.64,0.87,3.44,2.11
			c0.63,1.11,1,2.27,1.14,3.51c0.15,0.92,0.15,1.89-0.01,2.85c-0.19,1.11-0.73,2.01-1.61,2.68l-0.09,0.06
			c-1.04,0.62-2.22,0.88-3.5,0.75c-0.13,0.01-0.35-0.01-0.57-0.03c-0.56-0.03-1.2-0.03-1.86,0.02c-0.49,0.04-0.87,0.17-1.16,0.42
			c-0.09,0.09-0.16,0.24-0.19,0.44c-0.03,0.19,0,0.36,0.1,0.54c0.14,0.26,0.34,0.43,0.63,0.55c0.39,0.16,0.77,0.24,1.18,0.24
			c0.49-0.02,1.03-0.08,1.55-0.17c0.51-0.09,1.01-0.15,1.51-0.2c1.63-0.08,3.12,0.3,4.49,1.1c1.37,0.81,2.41,1.93,3.08,3.34
			c0.86,1.96,0.92,3.9,0.19,5.82c-0.73,1.93-2.12,3.33-4.12,4.15C395.07,45.12,392.73,45.52,390.39,45.52z M391.11,2.57
			c-2.8,0-5.5,0.61-8.05,1.81c-2.95,1.4-5.47,3.36-7.48,5.84c-2.81,3.67-4.28,7.89-4.34,12.54c-0.06,4.67,1.17,9,3.66,12.88
			c2.32,3.34,5.57,5.69,9.64,6.96s8.16,1.22,12.15-0.16c1.44-0.59,2.43-1.58,2.97-3c0.55-1.43,0.5-2.83-0.13-4.28
			c-0.5-1.03-1.25-1.84-2.29-2.45c-1.04-0.62-2.15-0.88-3.35-0.83c-0.4,0.04-0.85,0.09-1.29,0.17c-0.61,0.11-1.24,0.18-1.86,0.2
			c0,0,0,0-0.01,0c-0.7,0-1.35-0.13-1.96-0.38c-0.72-0.29-1.26-0.77-1.62-1.43c-0.31-0.56-0.42-1.16-0.33-1.79
			c0.1-0.63,0.37-1.17,0.81-1.61c0.67-0.58,1.45-0.88,2.37-0.95c0.75-0.05,1.48-0.06,2.18-0.02c0.2,0.02,0.35,0.03,0.49,0.03
			c0.93,0.08,1.67-0.06,2.34-0.45c0.45-0.35,0.71-0.81,0.81-1.39c0.12-0.74,0.12-1.49,0-2.24c-0.11-1.02-0.41-1.93-0.87-2.75
			c-0.43-0.67-1.04-1.05-1.87-1.16c-0.34,0.02-0.7,0.07-1.05,0.13c-0.55,0.1-1.07,0.14-1.55,0.12c-0.7-0.02-1.31-0.3-1.76-0.82
			l-0.07-0.09c-0.53-0.77-0.55-1.65-0.07-2.48c0.42-0.72,1.07-1.21,1.87-1.42l0.11-0.02c1.04-0.14,2.1-0.03,3.14,0.34
			c0.18,0.05,0.37,0.11,0.55,0.17c0.63,0.17,1.37,0.25,2.11,0.21c0.66-0.03,1.23-0.23,1.76-0.61c0.6-0.52,0.95-1.23,1.03-2.14
			c0.09-1.07,0.02-2.15-0.18-3.21c-0.05-0.32-0.1-0.6-0.15-0.88c-0.34-1.58-1.04-2.71-2.14-3.46c-1.16-0.79-2.6-1.25-4.28-1.36
			C391.96,2.58,391.53,2.57,391.11,2.57z"/>
	</g>
	<g>
		<path id="XMLID_00000080903297889634579590000018413649654807091378_" class="st1" d="M437.09,32.76
			c0.86,1.11,1.52,2.27,1.97,3.48s0.55,2.42,0.31,3.64c-0.31,1.25-1.06,2.35-2.25,3.3c-1.19,0.94-2.65,1.48-4.37,1.6
			c-2.1,0-3.94-0.53-5.55-1.6c-1.46-1.05-2.64-2.25-3.54-3.6c-0.78-1.09-1.53-2.23-2.25-3.42c-0.88,2.01-2,3.95-3.36,5.82
			c-0.92,1.21-2.17,2.02-3.73,2.43c-1.56,0.41-3.25,0.5-5.05,0.28c-2.01-0.21-3.56-0.94-4.65-2.19c-0.64-1.05-0.79-2.12-0.45-3.22
			s0.81-2.15,1.43-3.16c0.06-0.14,0.13-0.3,0.21-0.46c0.99-1.75,2.03-3.47,3.14-5.18c1.58-2.46,2.55-4.51,2.9-6.13
			c0.35-1.62-1.11-4.32-4.38-8.1c-1.21-1.03-2.34-2.09-3.39-3.19s-1.8-2.31-2.25-3.62c-0.41-1.38-0.26-2.71,0.45-4
			c0.71-1.29,1.93-2.18,3.65-2.65c1.56-0.29,3.09-0.15,4.58,0.4s2.81,1.29,3.96,2.22c2.14,1.79,3.99,4.06,5.58,6.81
			c0,0.02,0.01,0.04,0.03,0.06v0.03c0.88-1.52,1.81-3.03,2.77-4.53c0.88-1.56,2.04-2.97,3.48-4.22c0.43-0.35,0.91-0.67,1.45-0.96
			c1.6-0.78,3.37-1.05,5.31-0.8s3.37,1.01,4.3,2.28c0.76,1.4,0.91,2.85,0.46,4.37c-0.51,2.34-1.6,4.53-3.27,6.56
			c-1.25,1.5-2.18,3.11-2.77,4.82s-0.46,3.43,0.4,5.16C433.62,27.69,435.25,30.28,437.09,32.76z"/>
		<path class="st2" d="M411.15,45.8c-0.65,0-1.32-0.04-1.99-0.13c-2.24-0.23-4.03-1.08-5.28-2.52l-0.1-0.13
			c-0.79-1.3-0.97-2.65-0.55-4.03c0.35-1.15,0.86-2.27,1.5-3.32c0.06-0.14,0.13-0.29,0.21-0.45c1.02-1.81,2.09-3.57,3.2-5.27
			c1.51-2.35,2.43-4.3,2.76-5.8c0.16-0.72-0.17-2.62-4.11-7.18c-1.21-1.03-2.36-2.11-3.41-3.21c-1.14-1.2-1.97-2.54-2.47-3.98
			c-0.5-1.67-0.32-3.27,0.51-4.81c0.84-1.53,2.27-2.59,4.26-3.13c1.82-0.34,3.53-0.19,5.19,0.43c1.58,0.59,3,1.39,4.23,2.37
			c1.86,1.56,3.53,3.48,4.98,5.72c0.63-1.04,1.28-2.09,1.94-3.11c0.9-1.6,2.15-3.11,3.66-4.43c0.51-0.41,1.04-0.77,1.63-1.08
			c1.81-0.88,3.78-1.18,5.91-0.91c2.22,0.28,3.89,1.18,4.98,2.68l0.07,0.11c0.89,1.63,1.07,3.36,0.54,5.13
			c-0.53,2.42-1.69,4.76-3.45,6.91c-1.18,1.41-2.05,2.92-2.6,4.52c-0.51,1.46-0.39,2.9,0.35,4.39c1.36,2.61,2.96,5.17,4.77,7.6
			c0.92,1.18,1.63,2.44,2.11,3.74c0.52,1.38,0.63,2.79,0.35,4.18c-0.37,1.51-1.24,2.8-2.61,3.88c-1.35,1.07-3,1.68-4.92,1.81
			c0,0-0.01,0-0.02,0c-2.35,0-4.4-0.59-6.15-1.77c-1.58-1.13-2.85-2.43-3.82-3.88c-0.44-0.61-0.87-1.25-1.3-1.91
			c-0.76,1.49-1.66,2.94-2.67,4.34c-1.07,1.41-2.51,2.34-4.28,2.81C413.5,45.65,412.35,45.8,411.15,45.8z M405.43,41.91
			c0.92,1.03,2.21,1.61,3.95,1.79c1.7,0.21,3.27,0.13,4.7-0.25c1.35-0.36,2.4-1.03,3.19-2.07c1.29-1.78,2.39-3.68,3.24-5.62
			l0.77-1.76l0.99,1.64c0.7,1.16,1.44,2.29,2.21,3.35c0.85,1.28,1.96,2.4,3.31,3.38c1.42,0.95,3.05,1.42,4.97,1.42
			c1.46-0.11,2.71-0.56,3.75-1.39c1.02-0.81,1.65-1.71,1.9-2.75c0.2-0.99,0.11-2-0.28-3.05c-0.41-1.11-1.03-2.19-1.83-3.22
			l-0.01-0.02c-1.87-2.52-3.54-5.17-4.95-7.9c-0.99-1.98-1.14-3.98-0.46-5.94c0.63-1.82,1.63-3.55,2.95-5.13
			c1.55-1.89,2.58-3.96,3.06-6.14c0.39-1.32,0.27-2.48-0.33-3.63c-0.76-1.02-1.94-1.62-3.58-1.83c-1.74-0.22-3.33,0.02-4.75,0.71
			c-0.44,0.24-0.88,0.52-1.26,0.83c-1.32,1.15-2.42,2.48-3.24,3.94c-0.98,1.52-1.91,3.04-2.78,4.54L419.09,16l-0.01-3.49
			c-1.49-2.55-3.25-4.69-5.24-6.35c-1.05-0.84-2.29-1.53-3.67-2.05c-1.33-0.5-2.65-0.61-4.05-0.35c-1.38,0.38-2.38,1.09-2.96,2.15
			c-0.58,1.06-0.7,2.12-0.37,3.24c0.39,1.13,1.07,2.23,2.02,3.22c1.02,1.07,2.13,2.11,3.31,3.12l0.11,0.11
			c3.56,4.12,5.02,6.97,4.59,8.96c-0.38,1.76-1.37,3.87-3.03,6.46c-1.09,1.68-2.14,3.4-3.11,5.13c-0.05,0.1-0.11,0.23-0.16,0.36
			l-0.07,0.13c-0.57,0.93-1.02,1.91-1.33,2.93C404.88,40.37,404.98,41.13,405.43,41.91z"/>
	</g>
	<g>
		<path id="XMLID_00000140007380560795848860000007729832141712503214_" class="st1" d="M487.92,35.78
			c-0.18,3.37-1.76,5.7-4.71,6.99c-2.79,1.31-5.73,1.94-8.81,1.88c-2.69-0.08-5.6-0.67-8.73-1.76s-5.56-2.67-7.29-4.74
			c-2.98-4.02-4.5-8.59-4.56-13.71c-0.06-5.11,1.21-9.8,3.82-14.05c1.23-1.87,3.01-3.53,5.33-4.98c2.32-1.45,4.87-2.52,7.65-3.22
			s5.47-0.84,8.05-0.43c2.59,0.41,4.77,1.54,6.53,3.39c1.79,2.01,2.66,4.39,2.62,7.12c-0.04,2.01-0.72,3.77-2.03,5.27
			c-1.46,1.48-3.18,2.04-5.18,1.69c-0.7-0.21-1.38-0.49-2.03-0.86c-0.74-0.41-1.51-0.71-2.31-0.89c-1.29-0.18-2.36,0.09-3.2,0.82
			c-0.84,0.73-1.42,1.68-1.74,2.85s-0.34,2.32-0.08,3.45c0.43,1.58,1.25,2.77,2.45,3.57s2.59,1.01,4.17,0.62
			c0.45-0.12,0.9-0.27,1.36-0.43c1.13-0.47,2.28-0.7,3.45-0.68c1.42,0.16,2.58,0.82,3.48,1.96c0.9,1.14,1.47,2.45,1.7,3.93
			C487.97,34.3,487.99,35.04,487.92,35.78z"/>
		<path class="st2" d="M474.81,45.65c-0.14,0-0.28,0-0.43,0c-2.79-0.09-5.83-0.7-9.04-1.81c-3.29-1.14-5.89-2.84-7.73-5.05
			c-3.12-4.22-4.72-9.03-4.79-14.33c-0.06-5.28,1.27-10.19,3.97-14.58c1.32-2.01,3.22-3.78,5.65-5.3c2.4-1.5,5.07-2.62,7.94-3.34
			c2.9-0.73,5.75-0.88,8.45-0.45c2.8,0.44,5.18,1.68,7.09,3.68c1.97,2.22,2.94,4.84,2.89,7.82c-0.05,2.25-0.81,4.24-2.28,5.91
			c-1.74,1.76-3.77,2.42-6.1,2.02l-0.11-0.03c-0.76-0.22-1.52-0.54-2.24-0.95c-0.65-0.36-1.34-0.63-2.05-0.79
			c-0.92-0.13-1.71,0.06-2.33,0.6c-0.7,0.6-1.16,1.37-1.43,2.36c-0.27,1-0.3,2-0.07,2.96c0.36,1.32,1.03,2.3,2.03,2.97
			c0.97,0.65,2.08,0.8,3.38,0.48c0.4-0.11,0.83-0.25,1.25-0.4c1.21-0.51,2.5-0.76,3.81-0.74c1.78,0.2,3.17,0.99,4.24,2.33
			c1.01,1.27,1.65,2.75,1.9,4.4c0.11,0.82,0.14,1.64,0.07,2.44c-0.21,3.75-1.99,6.39-5.31,7.83
			C480.84,44.99,477.88,45.65,474.81,45.65z M475.78,2.54c-1.6,0-3.24,0.21-4.91,0.63c-2.67,0.67-5.15,1.71-7.37,3.1
			c-2.19,1.36-3.88,2.94-5.03,4.68c-2.48,4.04-3.71,8.58-3.66,13.49c0.06,4.88,1.53,9.29,4.36,13.13c1.57,1.88,3.87,3.37,6.81,4.4
			c3.02,1.05,5.86,1.62,8.44,1.7c2.9,0.07,5.72-0.54,8.36-1.79c2.63-1.15,3.98-3.16,4.14-6.15V35.7c0.05-0.66,0.04-1.33-0.06-2
			c-0.2-1.3-0.69-2.43-1.49-3.45c-0.74-0.93-1.66-1.45-2.82-1.59c-0.94-0.01-1.96,0.19-2.95,0.61c-0.52,0.19-1,0.34-1.48,0.47
			c-1.88,0.47-3.55,0.21-4.99-0.75c-1.4-0.93-2.36-2.33-2.86-4.14c-0.31-1.32-0.28-2.65,0.08-3.97c0.37-1.36,1.06-2.48,2.05-3.34
			c1.07-0.92,2.41-1.28,4-1.05c0.97,0.22,1.84,0.56,2.65,1.01c0.58,0.32,1.17,0.58,1.78,0.76c1.64,0.27,3.03-0.19,4.24-1.42
			c1.12-1.29,1.71-2.8,1.75-4.59c0.04-2.49-0.74-4.6-2.37-6.43c-1.6-1.68-3.55-2.69-5.94-3.07C477.63,2.61,476.71,2.54,475.78,2.54z
			"/>
	</g>
	<g>
		<path id="XMLID_00000087400353129103488680000012598033703832678834_" class="st1" d="M527.6,14.93c1.21,2.59,1.94,5.3,2.17,8.13
			c0.24,2.83-0.12,5.63-1.06,8.38c-1.19,3.27-3.12,5.98-5.78,8.13c-2.66,2.16-5.73,3.54-9.2,4.16c-3.55,0.53-7.03,0.18-10.43-1.06
			c-3.4-1.24-6.39-3.13-8.96-5.67c-2.58-2.54-4.39-5.48-5.44-8.83c-1.13-3.94-1.1-7.88,0.09-11.8c1.19-3.92,3.33-7.25,6.41-9.98
			c3.65-3.04,7.61-4.56,11.86-4.56s8.21,1.18,11.89,3.53C522.84,7.71,525.65,10.9,527.6,14.93z M513.86,23.77
			c0.29-1.6-0.07-3.07-1.06-4.39c-1-1.32-2.46-1.9-4.39-1.74c-1.71,0.31-2.86,1.06-3.47,2.25c-0.61,1.19-0.74,2.46-0.42,3.8
			c0.33,1.35,1.05,2.39,2.16,3.14c1.11,0.75,2.53,0.83,4.25,0.23C512.62,26.32,513.6,25.23,513.86,23.77z"/>
		<path class="st2" d="M510.57,44.96c-2.58,0-5.12-0.46-7.6-1.36c-3.52-1.29-6.65-3.27-9.32-5.89c-2.68-2.64-4.6-5.75-5.69-9.24
			c-1.19-4.13-1.15-8.29,0.09-12.38c1.24-4.08,3.49-7.59,6.7-10.44c3.85-3.2,8.05-4.81,12.52-4.81c4.42,0,8.61,1.24,12.43,3.68
			s6.78,5.79,8.8,9.97l0.01,0.01c1.26,2.68,2.02,5.53,2.26,8.47c0.25,2.96-0.13,5.91-1.11,8.78c-1.25,3.44-3.3,6.32-6.09,8.58
			c-2.78,2.25-6.03,3.72-9.65,4.37C512.79,44.88,511.68,44.96,510.57,44.96z M507.27,2.83c-3.99,0-7.77,1.46-11.22,4.33
			c-2.9,2.57-4.96,5.78-6.09,9.5s-1.16,7.5-0.09,11.24c0.99,3.15,2.73,5.98,5.18,8.39c2.46,2.42,5.36,4.25,8.61,5.44
			c3.23,1.18,6.57,1.52,9.94,1.01c3.26-0.58,6.2-1.91,8.72-3.95c2.5-2.03,4.34-4.62,5.47-7.7c0.89-2.59,1.23-5.28,1-7.96
			c-0.22-2.7-0.92-5.32-2.08-7.79c-1.86-3.84-4.58-6.92-8.08-9.16C515.13,3.96,511.31,2.83,507.27,2.83z M508.8,28.45
			c-1.01,0-1.9-0.27-2.67-0.79c-1.31-0.89-2.18-2.14-2.57-3.73c-0.38-1.58-0.22-3.09,0.5-4.49c0.75-1.48,2.16-2.41,4.18-2.78
			c2.38-0.21,4.15,0.51,5.36,2.12c1.16,1.55,1.58,3.29,1.25,5.16l0,0c-0.33,1.79-1.51,3.15-3.51,4.03
			C510.42,28.29,509.58,28.45,508.8,28.45z M509.03,18.6c-0.17,0-0.35,0.01-0.54,0.02c-1.3,0.24-2.2,0.8-2.66,1.71
			c-0.5,0.98-0.61,2-0.34,3.12c0.27,1.11,0.84,1.94,1.75,2.55c0.84,0.57,1.94,0.61,3.37,0.11c1.3-0.57,2.07-1.41,2.27-2.53
			c0.24-1.33-0.05-2.51-0.88-3.61C511.31,19.06,510.34,18.6,509.03,18.6z"/>
	</g>
	<g>
		<path id="XMLID_00000162314468135037270500000018161057332574936721_" class="st1" d="M550.99,41.85
			c-2.01-0.25-3.33-1.41-3.94-3.48c-0.02-0.12-0.05-0.25-0.09-0.37c-0.1-0.72-0.33-1.44-0.68-2.17s-0.94-1.03-1.79-0.91
			c-0.55,0.14-0.95,0.49-1.17,1.05c-0.23,0.55-0.38,1.13-0.46,1.73c-0.27,1.29-0.77,2.49-1.51,3.59c-0.74,1.1-1.7,1.96-2.87,2.57
			c-1.23,0.57-2.52,0.76-3.87,0.55c-1.35-0.21-2.46-0.81-3.34-1.82c-1.09-1.52-1.47-3.22-1.14-5.11c0.59-3.31,1.43-6.57,2.49-9.8
			c0.55-1.79,1.07-3.57,1.54-5.36c0.33-1.29,0.65-2.6,0.96-3.91c0.82-3.82,1.92-7.57,3.29-11.24c0.49-1.19,1.28-2.23,2.37-3.13
			c1.09-0.89,2.28-1.46,3.57-1.71c1.29-0.19,2.28-0.01,2.96,0.52s1.27,1.21,1.79,2.03c0.49,0.78,1.11,1.5,1.85,2.16
			c1.15,0.88,2.12,1.03,2.89,0.43c0.78-0.6,1.49-1.43,2.13-2.5c0.39-0.6,0.78-1.13,1.17-1.62c0.39-0.48,0.82-0.84,1.29-1.06
			c1.54-0.6,2.88-0.49,4,0.32c1.13,0.81,2.07,1.92,2.82,3.33s1.33,2.69,1.74,3.84c3.12,8.34,5.52,16.87,7.18,25.6
			c0.19,0.92,0.3,1.85,0.36,2.79c0.05,0.94-0.1,1.83-0.45,2.7c-0.64,1.4-1.71,2.38-3.2,2.96c-1.5,0.57-3.02,0.66-4.56,0.25
			c-2.26-0.78-4-2.18-5.24-4.19c-0.16-0.29-0.35-0.68-0.55-1.17c-0.37-0.86-0.82-1.68-1.34-2.46c-0.52-0.78-1.14-1.11-1.86-0.99
			c-0.55,0.16-0.99,0.52-1.29,1.06c-0.31,0.54-0.57,1.17-0.8,1.86c-0.23,0.64-0.48,1.24-0.77,1.8s-0.68,0.99-1.17,1.28
			C552.51,41.7,551.74,41.89,550.99,41.85z"/>
		<path class="st2" d="M535.65,45.48c-0.39,0-0.79-0.03-1.19-0.09c-1.58-0.24-2.9-0.96-3.94-2.14c-1.31-1.82-1.75-3.79-1.37-5.94
			c0.6-3.34,1.45-6.68,2.53-9.94c0.54-1.75,1.06-3.54,1.52-5.3c0.32-1.28,0.64-2.58,0.95-3.88c0.82-3.82,1.94-7.65,3.33-11.37
			c0.57-1.37,1.46-2.56,2.67-3.55c1.21-1,2.57-1.64,4.02-1.92c1.61-0.23,2.86,0.01,3.76,0.72c0.77,0.6,1.44,1.37,2.01,2.29
			c0.44,0.69,1,1.35,1.67,1.94c1.06,0.81,1.47,0.5,1.63,0.38c0.68-0.52,1.31-1.26,1.88-2.21c0.42-0.65,0.84-1.22,1.25-1.73
			c0.48-0.6,1.04-1.05,1.64-1.33c1.94-0.75,3.6-0.6,5.01,0.41c1.25,0.9,2.3,2.13,3.12,3.67c0.77,1.45,1.38,2.78,1.8,3.97
			c3.12,8.34,5.55,17,7.22,25.75c0.19,0.95,0.32,1.93,0.37,2.92c0.06,1.08-0.12,2.13-0.52,3.13c-0.76,1.67-2.03,2.84-3.77,3.51
			c-1.7,0.65-3.43,0.74-5.17,0.28c-2.54-0.88-4.48-2.43-5.83-4.63c-0.2-0.35-0.41-0.78-0.62-1.31c-0.34-0.79-0.76-1.56-1.25-2.29
			c-0.38-0.56-0.66-0.59-0.81-0.57c-0.28,0.1-0.49,0.28-0.66,0.58c-0.27,0.48-0.52,1.05-0.72,1.68c-0.25,0.7-0.53,1.35-0.83,1.95
			c-0.37,0.73-0.9,1.3-1.55,1.69c-0.97,0.53-1.92,0.76-2.87,0.72l-0.07-0.01c-2.4-0.29-4.05-1.74-4.78-4.19l-0.03-0.11
			c-0.01-0.08-0.03-0.15-0.06-0.23l-0.04-0.17c-0.09-0.61-0.29-1.25-0.59-1.88c-0.13-0.28-0.27-0.41-0.69-0.36
			c-0.22,0.07-0.35,0.2-0.45,0.45c-0.19,0.47-0.33,0.97-0.4,1.48c-0.3,1.48-0.86,2.81-1.67,4.01c-0.83,1.23-1.92,2.21-3.23,2.9
			C537.87,45.23,536.77,45.48,535.65,45.48z M545.3,3.25c-0.25,0-0.51,0.02-0.8,0.06c-1.08,0.21-2.13,0.71-3.08,1.49
			s-1.66,1.7-2.08,2.74c-1.34,3.59-2.44,7.33-3.24,11.07c-0.31,1.34-0.63,2.65-0.96,3.95c-0.48,1.8-1,3.62-1.56,5.41
			c-1.06,3.19-1.88,6.44-2.46,9.68c-0.28,1.62,0.03,3.05,0.97,4.36c0.67,0.75,1.57,1.24,2.68,1.41c1.15,0.17,2.23,0.02,3.29-0.47
			c0.97-0.51,1.82-1.27,2.46-2.23c0.66-0.99,1.12-2.07,1.36-3.23c0.08-0.61,0.26-1.28,0.51-1.9c0.34-0.85,0.98-1.41,1.84-1.63
			l0.11-0.02c1.28-0.19,2.28,0.33,2.83,1.46c0.38,0.79,0.63,1.59,0.75,2.38c0.04,0.12,0.07,0.24,0.09,0.36
			c0.5,1.65,1.48,2.52,3.06,2.72c0.56,0.03,1.14-0.13,1.74-0.46c0.31-0.18,0.56-0.46,0.76-0.86c0.26-0.52,0.51-1.09,0.72-1.69
			c0.24-0.73,0.53-1.42,0.87-2.02c0.44-0.78,1.07-1.29,1.88-1.53l0.12-0.03c0.64-0.11,1.86-0.07,2.86,1.41
			c0.56,0.83,1.04,1.71,1.43,2.63c0.19,0.46,0.36,0.82,0.5,1.07c1.1,1.8,2.64,3.03,4.7,3.74c1.28,0.34,2.57,0.27,3.88-0.24
			c1.26-0.48,2.12-1.28,2.65-2.44c0.28-0.69,0.4-1.43,0.36-2.23c-0.05-0.89-0.16-1.78-0.34-2.64c-1.65-8.64-4.04-17.2-7.13-25.45
			c-0.4-1.11-0.96-2.36-1.69-3.72c-0.67-1.26-1.52-2.27-2.52-2.99c-0.85-0.61-1.85-0.67-3.06-0.2c-0.27,0.13-0.59,0.4-0.88,0.76
			c-0.37,0.46-0.74,0.98-1.11,1.54c-0.68,1.14-1.48,2.07-2.36,2.74c-0.81,0.62-2.18,1.04-4.1-0.43c-0.86-0.76-1.54-1.55-2.08-2.41
			c-0.45-0.72-0.98-1.32-1.56-1.78C546.38,3.38,545.91,3.25,545.3,3.25z"/>
	</g>
	<g>
		<path id="XMLID_00000055687493068272295790000002695655058075001992_" class="st1" d="M597.29,41.85
			c-2.01-0.25-3.33-1.41-3.94-3.48c-0.02-0.12-0.05-0.25-0.09-0.37c-0.1-0.72-0.33-1.44-0.68-2.17s-0.94-1.03-1.79-0.91
			c-0.55,0.14-0.95,0.49-1.17,1.05c-0.23,0.55-0.38,1.13-0.46,1.73c-0.27,1.29-0.77,2.49-1.51,3.59c-0.74,1.1-1.7,1.96-2.87,2.57
			c-1.23,0.57-2.52,0.76-3.87,0.55c-1.35-0.21-2.46-0.81-3.34-1.82c-1.09-1.52-1.47-3.22-1.14-5.11c0.59-3.31,1.43-6.57,2.49-9.8
			c0.55-1.79,1.07-3.57,1.54-5.36c0.33-1.29,0.65-2.6,0.96-3.91c0.82-3.82,1.92-7.57,3.29-11.24c0.49-1.19,1.28-2.23,2.37-3.13
			c1.09-0.89,2.28-1.46,3.57-1.71c1.29-0.19,2.28-0.01,2.96,0.52s1.27,1.21,1.79,2.03c0.49,0.78,1.11,1.5,1.85,2.16
			c1.15,0.88,2.12,1.03,2.89,0.43c0.78-0.6,1.49-1.43,2.13-2.5c0.39-0.6,0.78-1.13,1.17-1.62c0.39-0.48,0.82-0.84,1.29-1.06
			c1.54-0.6,2.88-0.49,4,0.32c1.13,0.81,2.07,1.92,2.82,3.33s1.33,2.69,1.74,3.84c3.12,8.34,5.52,16.87,7.18,25.6
			c0.19,0.92,0.3,1.85,0.36,2.79c0.05,0.94-0.1,1.83-0.45,2.7c-0.64,1.4-1.71,2.38-3.2,2.96c-1.5,0.57-3.02,0.66-4.56,0.25
			c-2.26-0.78-4-2.18-5.24-4.19c-0.16-0.29-0.35-0.68-0.55-1.17c-0.37-0.86-0.82-1.68-1.34-2.46c-0.52-0.78-1.14-1.11-1.86-0.99
			c-0.55,0.16-0.99,0.52-1.29,1.06c-0.31,0.54-0.57,1.17-0.8,1.86c-0.23,0.64-0.48,1.24-0.77,1.8s-0.68,0.99-1.17,1.28
			C598.82,41.7,598.04,41.89,597.29,41.85z"/>
		<path class="st2" d="M581.95,45.48c-0.39,0-0.79-0.03-1.19-0.09c-1.58-0.24-2.9-0.96-3.94-2.14c-1.31-1.82-1.75-3.79-1.37-5.94
			c0.6-3.34,1.45-6.68,2.53-9.94c0.54-1.75,1.06-3.54,1.52-5.3c0.32-1.28,0.64-2.58,0.95-3.88c0.82-3.82,1.94-7.65,3.33-11.37
			c0.57-1.37,1.46-2.56,2.67-3.55c1.21-1,2.57-1.64,4.02-1.92c1.61-0.23,2.86,0.01,3.76,0.72c0.77,0.6,1.44,1.37,2.01,2.29
			c0.44,0.69,1,1.35,1.67,1.94c1.06,0.81,1.47,0.5,1.63,0.38c0.68-0.52,1.31-1.26,1.88-2.21c0.42-0.65,0.84-1.22,1.25-1.73
			c0.48-0.6,1.04-1.05,1.64-1.33c1.94-0.75,3.6-0.6,5.01,0.41c1.25,0.9,2.3,2.13,3.12,3.67c0.77,1.45,1.38,2.78,1.8,3.97
			c3.12,8.34,5.55,17,7.22,25.75c0.19,0.95,0.32,1.93,0.37,2.92c0.06,1.08-0.12,2.13-0.52,3.13c-0.76,1.67-2.03,2.84-3.77,3.51
			c-1.7,0.65-3.44,0.74-5.17,0.28c-2.54-0.88-4.48-2.43-5.83-4.63c-0.2-0.35-0.41-0.78-0.62-1.31c-0.34-0.79-0.76-1.56-1.25-2.29
			c-0.38-0.56-0.66-0.59-0.81-0.57c-0.28,0.1-0.49,0.28-0.66,0.58c-0.27,0.48-0.52,1.05-0.72,1.68c-0.25,0.7-0.53,1.35-0.83,1.95
			c-0.37,0.73-0.9,1.3-1.55,1.69c-0.97,0.53-1.92,0.76-2.87,0.72l-0.07-0.01c-2.4-0.29-4.05-1.74-4.78-4.19l-0.03-0.11
			c-0.01-0.08-0.03-0.15-0.06-0.23l-0.04-0.17c-0.09-0.61-0.29-1.25-0.59-1.88c-0.13-0.28-0.27-0.41-0.69-0.36
			c-0.22,0.07-0.35,0.2-0.45,0.45c-0.19,0.47-0.33,0.97-0.4,1.48c-0.3,1.48-0.86,2.81-1.67,4.01c-0.83,1.23-1.92,2.21-3.23,2.9
			C584.17,45.23,583.07,45.48,581.95,45.48z M591.61,3.25c-0.25,0-0.51,0.02-0.8,0.06c-1.08,0.21-2.13,0.71-3.08,1.49
			s-1.66,1.7-2.08,2.74c-1.34,3.59-2.44,7.33-3.24,11.07c-0.31,1.34-0.63,2.65-0.96,3.95c-0.48,1.8-1,3.62-1.56,5.41
			c-1.06,3.19-1.88,6.44-2.46,9.68c-0.28,1.62,0.03,3.05,0.97,4.36c0.67,0.75,1.57,1.24,2.68,1.41c1.15,0.17,2.23,0.02,3.29-0.47
			c0.97-0.51,1.82-1.27,2.46-2.23c0.66-0.99,1.12-2.07,1.36-3.23c0.08-0.61,0.26-1.28,0.51-1.9c0.34-0.85,0.98-1.41,1.84-1.63
			l0.11-0.02c1.28-0.19,2.28,0.33,2.83,1.46c0.38,0.79,0.63,1.59,0.75,2.38c0.04,0.12,0.07,0.24,0.09,0.36
			c0.5,1.65,1.48,2.52,3.06,2.72c0.56,0.03,1.14-0.13,1.74-0.46c0.31-0.18,0.56-0.46,0.76-0.86c0.26-0.52,0.51-1.09,0.72-1.69
			c0.24-0.73,0.53-1.42,0.87-2.02c0.44-0.78,1.07-1.29,1.88-1.53l0.12-0.03c0.64-0.11,1.86-0.07,2.86,1.41
			c0.56,0.83,1.04,1.71,1.43,2.63c0.19,0.46,0.36,0.82,0.5,1.07c1.1,1.8,2.64,3.03,4.7,3.74c1.28,0.34,2.57,0.27,3.88-0.24
			c1.26-0.48,2.12-1.28,2.65-2.44c0.28-0.69,0.4-1.43,0.36-2.23c-0.05-0.89-0.16-1.78-0.34-2.64c-1.65-8.64-4.04-17.2-7.13-25.45
			c-0.4-1.11-0.96-2.36-1.69-3.72c-0.67-1.26-1.52-2.27-2.52-2.99c-0.85-0.61-1.85-0.67-3.06-0.2c-0.27,0.13-0.59,0.4-0.88,0.76
			c-0.37,0.46-0.74,0.98-1.11,1.54c-0.68,1.14-1.48,2.07-2.36,2.74c-0.81,0.62-2.18,1.04-4.1-0.43c-0.86-0.76-1.54-1.55-2.08-2.41
			c-0.45-0.72-0.98-1.32-1.56-1.78C592.68,3.38,592.21,3.25,591.61,3.25z"/>
	</g>
	<g>
		<path id="XMLID_00000163048761382591174490000009085649208603761828_" class="st1" d="M626.64,2.33c1.4-0.84,2.9-1.08,4.5-0.72
			s2.94,1.14,4,2.33c1.54,1.89,2.34,4.06,2.4,6.5s-0.1,4.93-0.49,7.45c-0.33,2.18-0.49,4.21-0.49,6.1
			c-0.02,0.86,0.12,1.68,0.43,2.46c0.37,0.84,0.98,1.38,1.82,1.6c0.51,0.08,1.01,0,1.48-0.26s0.85-0.61,1.14-1.06
			c0.51-0.9,0.79-1.9,0.83-2.99c0.12-2.69,0.03-5.37-0.28-8.04c-0.17-1.62-0.28-3.24-0.34-4.85s0.02-3.23,0.25-4.85
			c0.25-1.29,0.86-2.36,1.85-3.19c0.98-0.83,2.1-1.37,3.36-1.62c1.83-0.37,3.23-0.16,4.21,0.62c0.97,0.78,1.74,2.01,2.29,3.7
			c1.31,3.7,2.06,7.4,2.23,11.11c0.18,3.71-0.04,7.47-0.63,11.29c-0.27,2.03-0.65,4.03-1.15,5.99c-0.5,1.96-1.3,3.75-2.4,5.36
			c-1.1,1.61-2.65,2.91-4.67,3.9c-3.43,1.48-7.07,1.76-10.92,0.83c-3.85-0.92-6.94-2.91-9.26-5.95c-1.62-2.32-2.83-4.99-3.62-8.01
			c-0.79-3.02-1.24-6.11-1.36-9.27c-0.11-3.16,0.03-6.1,0.42-8.81c0.19-1.52,0.55-3.13,1.11-4.82s1.41-3.11,2.56-4.24
			C626.13,2.68,626.38,2.49,626.64,2.33z"/>
		<path class="st2" d="M640.38,45.5c-1.5,0-3.02-0.19-4.56-0.56c-4.06-0.98-7.36-3.1-9.81-6.31c-1.71-2.44-2.98-5.24-3.79-8.36
			c-0.81-3.08-1.27-6.27-1.39-9.49c-0.11-3.21,0.03-6.23,0.42-8.99c0.19-1.56,0.58-3.25,1.15-4.99c0.6-1.84,1.55-3.4,2.8-4.64
			c0.3-0.28,0.6-0.5,0.92-0.69h0.01c1.62-0.97,3.38-1.26,5.23-0.84c1.8,0.4,3.32,1.29,4.53,2.63c1.71,2.09,2.59,4.48,2.66,7.14
			c0.06,2.49-0.11,5.06-0.5,7.63c-0.32,2.11-0.48,4.12-0.48,5.95c-0.02,0.75,0.1,1.45,0.36,2.1c0.23,0.51,0.58,0.84,1.1,0.99
			c0.28,0.03,0.53-0.02,0.8-0.16c0.32-0.18,0.58-0.41,0.78-0.73c0.4-0.71,0.64-1.57,0.68-2.49c0.12-2.62,0.03-5.28-0.27-7.89
			c-0.17-1.62-0.28-3.27-0.35-4.93c-0.06-1.67,0.02-3.37,0.25-5.03c0.3-1.57,1.03-2.83,2.19-3.81c1.11-0.94,2.39-1.55,3.81-1.83
			c2.12-0.43,3.81-0.15,5.02,0.81c1.12,0.9,2.01,2.3,2.62,4.16c1.33,3.75,2.1,7.58,2.28,11.37c0.18,3.75-0.04,7.62-0.64,11.49
			c-0.27,2.04-0.66,4.1-1.17,6.09c-0.53,2.07-1.39,3.98-2.55,5.67c-1.19,1.75-2.89,3.17-5.05,4.23
			C645.15,45.01,642.8,45.5,640.38,45.5z M627.16,3.18c-0.21,0.13-0.41,0.28-0.59,0.44c-1,0.98-1.78,2.27-2.28,3.81
			c-0.53,1.62-0.89,3.18-1.07,4.63c-0.38,2.66-0.52,5.57-0.41,8.65c0.11,3.07,0.56,6.12,1.32,9.06c0.76,2.89,1.93,5.48,3.47,7.69
			c2.14,2.8,5.07,4.68,8.67,5.55c3.62,0.87,7.08,0.61,10.3-0.78c1.8-0.89,3.24-2.08,4.24-3.54c1.03-1.51,1.79-3.21,2.26-5.05
			c0.49-1.91,0.87-3.89,1.13-5.87c0.59-3.76,0.79-7.49,0.62-11.11c-0.17-3.59-0.9-7.23-2.18-10.82c-0.5-1.51-1.16-2.6-1.98-3.25
			c-0.73-0.58-1.87-0.72-3.39-0.42c-1.1,0.22-2.05,0.67-2.91,1.4c-0.82,0.69-1.31,1.54-1.51,2.61c-0.21,1.5-0.29,3.07-0.23,4.63
			c0.06,1.61,0.18,3.22,0.34,4.79c0.31,2.71,0.41,5.46,0.28,8.19c-0.05,1.24-0.37,2.39-0.96,3.43c-0.41,0.64-0.91,1.11-1.53,1.45
			c-0.67,0.36-1.38,0.49-2.11,0.37l-0.1-0.02c-1.13-0.3-1.98-1.05-2.47-2.16c-0.37-0.94-0.54-1.9-0.51-2.89
			c0-1.91,0.17-4.01,0.5-6.22c0.38-2.46,0.54-4.91,0.48-7.28c-0.06-2.24-0.77-4.17-2.18-5.9c-0.91-1.01-2.04-1.67-3.45-1.98
			C629.57,2.27,628.34,2.47,627.16,3.18z"/>
	</g>
	<g>
		<path id="XMLID_00000039117196013919947490000010978438124423469699_" class="st1" d="M660.78,8.8c0.88-2.01,2.16-3.59,3.84-4.73
			c1.67-1.14,3.58-1.47,5.71-1c1.81,0.55,3.38,1.66,4.71,3.33c1.33,1.66,2.54,3.44,3.6,5.33c0.66,1.09,1.3,2.08,1.94,2.99
			c0.18,0.31,0.41,0.59,0.68,0.83c0.27,0.25,0.56,0.38,0.89,0.4c0.6-0.04,1-0.39,1.22-1.03c0.22-0.65,0.28-1.3,0.2-1.96l-0.19-1.57
			c-0.25-1.54-0.33-3.08-0.25-4.62c0.08-1.05,0.35-2.04,0.82-2.99c0.46-0.94,1.12-1.66,1.99-2.16c1.05-0.55,2.15-0.68,3.31-0.39
			c1.16,0.3,2.21,0.84,3.16,1.62c1.58,1.42,2.59,3.25,3.02,5.48c0.43,2.24,0.68,4.5,0.74,6.78c0.04,0.82,0.09,1.61,0.15,2.37
			c0.31,4.11,0.33,8.23,0.06,12.35c-0.02,0.31-0.03,0.63-0.03,0.96c-0.1,1.75-0.3,3.55-0.6,5.41s-0.89,3.49-1.77,4.88
			c-0.8,1.19-1.8,2-3,2.42s-2.48,0.47-3.84,0.14c-2.01-0.53-3.86-1.47-5.53-2.8s-3.21-2.88-4.61-4.62c-1.4-1.75-2.71-3.48-3.94-5.21
			c-0.35-0.53-0.71-1.05-1.08-1.54c0.25,1.6,0.41,3.22,0.48,4.85s-0.15,3.2-0.66,4.7c-0.58,1.56-1.52,2.82-2.82,3.79
			c-1.3,0.97-2.71,1.25-4.21,0.86c-1.01-0.31-1.86-0.88-2.56-1.71s-1.26-1.77-1.69-2.82c-0.84-2.12-1.33-4.34-1.46-6.67
			s-0.15-4.68-0.05-7.04c0.06-1.7,0.07-3.38,0.03-5.02c-0.21-3.29,0.12-6.5,0.99-9.64C660.24,10.11,660.49,9.45,660.78,8.8z"/>
		<path class="st2" d="M688.88,44.85c-0.64,0-1.3-0.08-1.97-0.24c-2.16-0.57-4.14-1.58-5.92-2.99c-1.72-1.38-3.33-2.98-4.76-4.78
			c-0.98-1.22-1.93-2.46-2.83-3.68c0.03,0.37,0.05,0.75,0.06,1.12c0.08,1.75-0.17,3.45-0.71,5.06c-0.65,1.76-1.71,3.19-3.17,4.27
			c-1.55,1.15-3.25,1.49-5.05,1.03c-1.23-0.37-2.25-1.05-3.07-2.03c-0.76-0.91-1.38-1.94-1.85-3.08c-0.88-2.22-1.4-4.57-1.54-6.99
			c-0.14-2.35-0.15-4.75-0.05-7.14c0.06-1.66,0.07-3.33,0.03-4.95c-0.21-3.34,0.13-6.7,1.02-9.93c0.22-0.7,0.48-1.4,0.79-2.11l0,0
			c0.95-2.18,2.36-3.91,4.19-5.15c1.9-1.3,4.09-1.68,6.49-1.15c2.07,0.63,3.82,1.86,5.27,3.68c1.36,1.7,2.6,3.54,3.69,5.46
			c0.63,1.05,1.27,2.03,1.89,2.91c0.17,0.29,0.34,0.49,0.54,0.67c0.09,0.08,0.17,0.12,0.22,0.13c0.09-0.02,0.18-0.08,0.27-0.34
			c0.17-0.51,0.22-1.01,0.16-1.52l-0.19-1.58c-0.25-1.56-0.34-3.19-0.25-4.79c0.09-1.19,0.4-2.32,0.92-3.37
			c0.55-1.12,1.35-1.99,2.39-2.58c1.29-0.69,2.65-0.85,4.05-0.49c1.3,0.33,2.49,0.94,3.54,1.81c1.77,1.58,2.89,3.61,3.36,6.06
			c0.44,2.28,0.69,4.61,0.76,6.94c0.04,0.79,0.09,1.57,0.15,2.32c0.31,4.15,0.33,8.35,0.06,12.5c-0.02,0.29-0.03,0.59-0.03,0.89
			c-0.1,1.82-0.31,3.67-0.61,5.56c-0.32,1.99-0.96,3.75-1.91,5.26c-0.93,1.39-2.11,2.33-3.52,2.83
			C690.53,44.71,689.72,44.85,688.88,44.85z M670.4,25.71l2.38,3.16c0.38,0.51,0.75,1.04,1.12,1.59c1.19,1.67,2.51,3.41,3.89,5.13
			c1.34,1.68,2.84,3.18,4.45,4.46c1.56,1.24,3.29,2.12,5.17,2.62c1.15,0.28,2.22,0.24,3.25-0.12c1-0.35,1.82-1.02,2.51-2.03
			c0.79-1.25,1.34-2.77,1.62-4.49c0.29-1.83,0.49-3.62,0.59-5.31c0-0.29,0.01-0.64,0.03-0.97c0.26-4.05,0.24-8.16-0.06-12.21
			c-0.06-0.76-0.11-1.56-0.16-2.4c-0.06-2.24-0.3-4.47-0.72-6.64c-0.39-2.04-1.28-3.65-2.71-4.93c-0.79-0.66-1.73-1.13-2.74-1.39
			c-0.92-0.24-1.77-0.14-2.6,0.3c-0.67,0.38-1.18,0.95-1.56,1.71c-0.41,0.83-0.65,1.71-0.72,2.63c-0.08,1.44,0,2.92,0.24,4.39
			l0.19,1.61c0.1,0.8,0.02,1.6-0.25,2.39c-0.34,1.03-1.09,1.64-2.09,1.71h-0.07h-0.07c-0.55-0.03-1.08-0.26-1.51-0.66
			c-0.34-0.31-0.62-0.67-0.86-1.05c-0.6-0.85-1.27-1.87-1.94-2.98c-1.05-1.86-2.23-3.61-3.53-5.22c-1.2-1.5-2.62-2.51-4.23-3
			c-1.8-0.39-3.41-0.11-4.86,0.87c-1.51,1.03-2.68,2.48-3.48,4.3l0,0c-0.28,0.64-0.51,1.26-0.7,1.87c-0.82,2.99-1.14,6.12-0.94,9.29
			c0.04,1.7,0.03,3.41-0.03,5.12c-0.1,2.32-0.09,4.66,0.05,6.95c0.13,2.21,0.6,4.35,1.39,6.36c0.39,0.94,0.9,1.8,1.53,2.55
			c0.58,0.69,1.26,1.15,2.08,1.4c1.16,0.3,2.26,0.07,3.32-0.71c1.16-0.85,1.97-1.94,2.48-3.33c0.46-1.35,0.67-2.81,0.6-4.31
			c-0.07-1.58-0.23-3.18-0.47-4.74L670.4,25.71z"/>
	</g>
	<g>
		<path id="XMLID_00000093866227991279503810000000774922009517975962_" class="st1" d="M699.38,24.75c-0.08-2.83-0.08-5.66,0-8.47
			c0.02-0.57,0.04-1.18,0.06-1.82c-0.02-1.7,0.08-3.42,0.29-5.16c0.22-1.74,0.74-3.28,1.59-4.64c1.42-2.12,3.29-3.27,5.61-3.45
			c1.85-0.02,3.29,0.62,4.33,1.91s1.68,2.89,1.93,4.77c0.29,2.57,0.38,5.13,0.28,7.7c-0.02,0.94-0.03,1.89-0.03,2.83
			c0.04,3.84,0.12,7.69,0.25,11.55c0.02,0.68,0.05,1.37,0.09,2.06c0.12,1.62,0.14,3.25,0.06,4.88c-0.08,1.63-0.47,3.16-1.17,4.57
			c-0.9,1.62-2.19,2.69-3.87,3.2c-1.67,0.51-3.29,0.38-4.85-0.4c-1.42-0.8-2.48-1.97-3.2-3.51c-0.72-1.54-1.08-3.17-1.08-4.9
			c-0.04-2.36-0.1-4.71-0.19-7.05C699.43,27.47,699.4,26.11,699.38,24.75z"/>
		<path class="st2" d="M706.82,46.02c-1.14,0-2.25-0.27-3.33-0.81c-1.64-0.93-2.86-2.26-3.66-3.98c-0.78-1.67-1.17-3.46-1.17-5.32
			c-0.04-2.34-0.1-4.68-0.18-7.02c-0.04-1.38-0.07-2.75-0.09-4.11c-0.08-2.84-0.08-5.71,0-8.52l0.06-1.82
			c-0.02-1.7,0.08-3.48,0.3-5.25c0.23-1.88,0.82-3.57,1.73-5.04c1.61-2.4,3.75-3.71,6.37-3.92c0.04,0,0.08,0,0.11,0
			c2.17,0,3.86,0.77,5.07,2.28c1.15,1.43,1.87,3.21,2.14,5.27c0.29,2.62,0.39,5.26,0.28,7.87c-0.02,0.92-0.03,1.86-0.03,2.79
			c0.04,3.81,0.12,7.68,0.25,11.52c0.02,0.67,0.05,1.35,0.09,2.03c0.12,1.64,0.15,3.32,0.06,4.99c-0.09,1.76-0.52,3.43-1.27,4.96
			c-1.05,1.89-2.55,3.13-4.47,3.72C708.32,45.9,707.56,46.02,706.82,46.02z M707.01,2.21c-0.03,0-0.05,0-0.08,0
			c-1.95,0.16-3.54,1.14-4.79,3.01c-0.74,1.19-1.23,2.62-1.42,4.21c-0.21,1.68-0.3,3.37-0.29,5.02l-0.06,1.86
			c-0.08,2.78-0.08,5.61,0,8.41v0.01c0.02,1.35,0.05,2.71,0.09,4.08c0.08,2.34,0.14,4.7,0.19,7.07c0,1.59,0.33,3.09,0.99,4.5
			c0.63,1.36,1.55,2.36,2.79,3.07c1.29,0.64,2.63,0.75,4.07,0.32c1.43-0.44,2.51-1.33,3.29-2.74c0.61-1.24,0.97-2.65,1.04-4.14
			c0.08-1.59,0.06-3.19-0.06-4.76c-0.04-0.72-0.07-1.42-0.1-2.11c-0.12-3.85-0.21-7.74-0.25-11.57c0-0.96,0.01-1.92,0.03-2.87
			c0.1-2.53,0.01-5.07-0.27-7.57c-0.22-1.68-0.8-3.12-1.71-4.26C709.65,2.72,708.51,2.21,707.01,2.21z"/>
	</g>
	<g>
		<path id="XMLID_00000108994216773989711990000003044792081430001592_" class="st1" d="M727.07,2.6c2.22,0.02,5.15,0.09,8.81,0.22
			c3.88,0.12,6.8,0.19,8.75,0.19s3.47,0.51,4.57,1.52c1.1,1.02,1.65,2.57,1.65,4.67c0,1.13-0.23,2.28-0.68,3.45
			s-1.21,2.08-2.28,2.74c-0.8,0.35-1.79,0.48-2.96,0.4c-0.74-0.02-1.43,0.02-2.08,0.12c-0.65,0.1-1.15,0.38-1.49,0.83
			c-0.51,0.86-0.77,1.8-0.77,2.8c-0.12,2.77-0.05,5.55,0.22,8.32c0.14,1.85,0.23,3.69,0.26,5.53c0.03,1.84-0.11,3.68-0.42,5.53
			c-0.6,2.77-1.99,4.49-4.19,5.16s-4.52,0.19-6.96-1.43c-1.31-0.97-2.27-2.21-2.87-3.73c-0.6-1.52-0.88-3.06-0.86-4.62
			c0.02-1.93,0.15-3.79,0.4-5.58c0.21-1.62,0.34-3.34,0.4-5.14c0.04-0.92,0.02-1.93-0.06-3.02s-0.33-2.07-0.75-2.96
			c-0.42-0.88-1.12-1.48-2.11-1.79c-0.88-0.21-1.74-0.31-2.59-0.31c-0.78-0.02-1.53-0.12-2.25-0.29s-1.37-0.59-1.94-1.25
			c-0.76-0.88-1.28-1.94-1.57-3.17c-0.29-1.23-0.25-2.4,0.12-3.51c0.68-1.68,1.89-2.89,3.65-3.62s3.54-1.08,5.35-1.06L727.07,2.6
			L727.07,2.6z"/>
		<path class="st2" d="M734.51,45.37c-1.8,0-3.67-0.63-5.56-1.89c-1.5-1.1-2.58-2.5-3.24-4.19c-0.64-1.63-0.95-3.31-0.93-5
			c0.02-1.95,0.16-3.87,0.41-5.7c0.2-1.57,0.33-3.27,0.39-5.04c0.04-0.88,0.02-1.86-0.06-2.91c-0.07-0.96-0.29-1.83-0.66-2.61
			c-0.3-0.63-0.78-1.04-1.51-1.26c-0.73-0.17-1.53-0.26-2.29-0.26c-0.87-0.02-1.7-0.13-2.49-0.32c-0.92-0.22-1.74-0.75-2.45-1.56
			c-0.87-1.01-1.47-2.22-1.79-3.6c-0.33-1.41-0.28-2.77,0.15-4.05c0.8-1.99,2.21-3.39,4.21-4.22c1.87-0.78,3.76-1.18,5.74-1.14h2.65
			c2.23,0.02,5.2,0.09,8.83,0.22c3.84,0.12,6.77,0.18,8.72,0.18c2.2,0,3.97,0.6,5.25,1.79c1.31,1.21,1.97,3.03,1.97,5.4
			c0,1.25-0.25,2.53-0.74,3.81c-0.53,1.37-1.44,2.46-2.69,3.23l-0.12,0.06c-0.94,0.41-2.1,0.57-3.42,0.48
			c-0.64-0.02-1.27,0.02-1.85,0.11c-0.48,0.08-0.7,0.26-0.83,0.42c-0.4,0.7-0.6,1.43-0.6,2.24c-0.12,2.76-0.05,5.51,0.21,8.22
			c0.15,1.89,0.24,3.77,0.27,5.61c0.03,1.89-0.11,3.81-0.43,5.71c-0.68,3.18-2.32,5.17-4.88,5.95
			C736.02,45.26,735.27,45.37,734.51,45.37z M721.09,14.52c0.89,0,1.83,0.11,2.78,0.33c1.33,0.41,2.24,1.19,2.78,2.33
			c0.47,0.99,0.76,2.11,0.85,3.31c0.08,1.13,0.11,2.18,0.06,3.14c-0.06,1.83-0.2,3.59-0.41,5.23c-0.24,1.76-0.37,3.59-0.39,5.46
			c-0.02,1.43,0.25,2.86,0.79,4.25c0.53,1.35,1.36,2.43,2.53,3.29c2.16,1.43,4.17,1.86,6.08,1.28c1.84-0.56,2.99-2,3.51-4.42
			c0.29-1.73,0.42-3.53,0.39-5.3c-0.03-1.8-0.12-3.64-0.26-5.47c-0.27-2.79-0.34-5.63-0.22-8.44c0-1.14,0.31-2.25,0.91-3.27
			l0.07-0.1c0.51-0.66,1.22-1.06,2.13-1.21c0.71-0.11,1.47-0.16,2.26-0.14c1.01,0.07,1.83-0.03,2.47-0.29
			c0.85-0.54,1.45-1.27,1.81-2.22c0.4-1.05,0.61-2.09,0.61-3.09c0-1.79-0.45-3.12-1.33-3.94c-0.92-0.85-2.19-1.26-3.9-1.26
			c-1.96,0-4.92-0.06-8.78-0.19c-3.62-0.12-6.57-0.19-8.78-0.21h-2.64c-1.67,0.01-3.34,0.31-4.96,0.99
			c-1.51,0.63-2.53,1.63-3.11,3.07c-0.29,0.88-0.32,1.85-0.08,2.92c0.25,1.07,0.71,1.99,1.36,2.75c0.44,0.5,0.9,0.8,1.42,0.93
			C719.69,14.41,720.38,14.5,721.09,14.52L721.09,14.52z"/>
	</g>
	<g>
		<path id="XMLID_00000103966821644262321190000003653148474099967676_" class="st1" d="M769.67,28.14
			c-3.08,0.88-5.89,0.97-8.43,0.26s-4.67-2.15-6.39-4.33c-1.38-1.89-2.27-4.09-2.68-6.61c-0.41-2.52-0.48-4.91-0.22-7.19
			c0.1-1.15,0.34-2.27,0.72-3.36c0.38-1.09,0.96-2.05,1.74-2.9c1.91-1.79,4.14-2.34,6.69-1.66c1.4,0.49,2.46,1.32,3.2,2.48
			s1.16,2.46,1.26,3.9c0.06,0.86,0.07,1.74,0.03,2.62c-0.04,1.03-0.01,2.06,0.09,3.11c0.04,0.86,0.31,1.63,0.8,2.31
			c0.25,0.33,0.67,0.57,1.28,0.72c0.61,0.15,1.11,0.17,1.52,0.05c0.33-0.12,0.6-0.34,0.82-0.65c0.22-0.31,0.36-0.64,0.42-0.99
			c0.1-0.72,0.08-1.44-0.06-2.16c-0.27-1.56-0.43-3.16-0.49-4.81c-0.06-1.64,0.24-3.11,0.91-4.41c0.67-1.29,1.96-2.21,3.9-2.74
			c2.01-0.45,3.67-0.22,4.97,0.69s2.32,2.19,3.05,3.82s1.23,3.31,1.49,5.04c0.27,1.79,0.57,5.02,0.92,9.69
			c0.35,4.67-0.23,9-1.73,12.98c-0.78,1.99-1.87,3.79-3.28,5.39c-1.41,1.6-3.07,2.87-4.98,3.79c-2.18,1.01-4.36,1.56-6.54,1.66
			c-2.19,0.1-4.44-0.08-6.76-0.55c-2.36-0.37-4.57-1.14-6.62-2.31c-1.03-0.64-1.9-1.44-2.62-2.4c-0.72-0.96-1.16-2.04-1.32-3.23
			c0-1.19,0.26-2.35,0.79-3.47c0.52-1.12,1.42-1.88,2.7-2.29c1.09-0.21,2.22-0.14,3.39,0.18c0.39,0.06,0.76,0.12,1.11,0.19
			c0.88,0.14,1.76,0.28,2.62,0.4c0.88,0.14,1.77,0.28,2.65,0.4c0.9,0.19,1.81,0.24,2.71,0.15c0.96-0.1,1.76-0.51,2.37-1.23
			c0.27-0.39,0.41-0.82,0.42-1.29C770.13,28.93,769.98,28.51,769.67,28.14z"/>
		<path class="st2" d="M767.54,45.89c-1.89,0-3.83-0.2-5.79-0.6c-2.43-0.38-4.77-1.2-6.92-2.42c-1.16-0.72-2.13-1.61-2.92-2.67
			c-0.82-1.1-1.33-2.34-1.51-3.69l-0.01-0.14c0-1.33,0.3-2.64,0.88-3.89c0.64-1.38,1.75-2.32,3.29-2.82l0.12-0.03
			c1.22-0.23,2.49-0.17,3.78,0.19c0.38,0.06,0.73,0.12,1.07,0.18c0.86,0.14,1.73,0.27,2.58,0.4c0.89,0.15,1.77,0.28,2.65,0.4
			c0.87,0.17,1.68,0.22,2.48,0.15c0.67-0.07,1.23-0.35,1.67-0.85c0.14-0.22,0.21-0.45,0.21-0.71c0-0.02,0-0.04,0-0.07
			c-2.93,0.72-5.67,0.74-8.14,0.04c-2.73-0.76-5.06-2.33-6.91-4.67c-1.49-2.04-2.45-4.41-2.88-7.07c-0.42-2.59-0.5-5.1-0.22-7.47
			c0.11-1.2,0.37-2.42,0.77-3.57c0.43-1.22,1.08-2.31,1.95-3.24c2.22-2.08,4.78-2.72,7.67-1.95c1.68,0.59,2.93,1.56,3.79,2.91
			c0.82,1.29,1.3,2.76,1.42,4.36c0.06,0.91,0.08,1.83,0.03,2.74c-0.04,0.97-0.01,1.97,0.09,2.97c0.04,0.72,0.24,1.3,0.62,1.82
			c0.04,0.05,0.21,0.21,0.72,0.34c0.53,0.14,0.83,0.11,0.99,0.06c0.08-0.03,0.19-0.12,0.29-0.26c0.13-0.19,0.22-0.38,0.25-0.59
			c0.08-0.57,0.06-1.18-0.06-1.79c-0.28-1.62-0.45-3.28-0.51-4.96c-0.07-1.81,0.28-3.46,1.02-4.9c0.79-1.54,2.31-2.63,4.52-3.25
			c2.33-0.53,4.27-0.24,5.81,0.84c1.45,1.01,2.59,2.44,3.39,4.23c0.76,1.71,1.29,3.49,1.57,5.29c0.27,1.82,0.58,5.1,0.93,9.77
			c0.36,4.8-0.24,9.31-1.79,13.41c-0.82,2.1-1.99,4.01-3.46,5.7c-1.49,1.7-3.27,3.05-5.29,4.03c-2.3,1.06-4.63,1.65-6.93,1.76
			C768.35,45.88,767.94,45.89,767.54,45.89z M752.37,36.3c0.15,1,0.52,1.89,1.13,2.71c0.64,0.86,1.43,1.58,2.35,2.15
			c1.91,1.09,4.02,1.82,6.25,2.17c2.27,0.46,4.47,0.64,6.56,0.54c2.05-0.1,4.12-0.62,6.17-1.57c1.76-0.85,3.33-2.05,4.65-3.54
			c1.32-1.51,2.37-3.22,3.1-5.1c1.44-3.81,2-8.04,1.66-12.55c-0.35-4.62-0.65-7.85-0.92-9.62c-0.25-1.62-0.73-3.23-1.42-4.78
			c-0.65-1.46-1.57-2.61-2.71-3.41c-1.07-0.75-2.44-0.93-4.19-0.54c-1.62,0.45-2.69,1.18-3.23,2.23c-0.58,1.13-0.85,2.45-0.8,3.91
			c0.06,1.6,0.22,3.17,0.48,4.67c0.16,0.8,0.18,1.64,0.07,2.47c-0.09,0.52-0.29,0.99-0.59,1.42c-0.33,0.47-0.76,0.81-1.28,1.01
			c-0.66,0.2-1.33,0.19-2.12-0.01c-0.83-0.21-1.45-0.58-1.83-1.09c-0.62-0.85-0.95-1.8-1-2.86c-0.1-1.04-0.14-2.14-0.09-3.2
			c0.04-0.83,0.03-1.68-0.03-2.51c-0.09-1.26-0.46-2.42-1.11-3.43c-0.62-0.98-1.5-1.66-2.7-2.08c-2.14-0.56-4.02-0.1-5.67,1.45
			c-0.63,0.68-1.15,1.54-1.48,2.5c-0.35,1-0.58,2.05-0.67,3.12c-0.26,2.21-0.19,4.54,0.21,6.94c0.38,2.35,1.22,4.43,2.5,6.18
			c1.56,1.97,3.54,3.31,5.86,3.96c2.34,0.65,5,0.57,7.88-0.26l0.63-0.18l0.42,0.5c0.46,0.56,0.69,1.21,0.67,1.92
			c-0.01,0.66-0.21,1.28-0.59,1.83l-0.07,0.08c-0.78,0.92-1.8,1.44-3.02,1.57c-1.01,0.09-2.02,0.03-3.02-0.17
			c-0.83-0.11-1.72-0.25-2.61-0.39c-0.85-0.12-1.73-0.26-2.62-0.4c-0.36-0.06-0.72-0.12-1.1-0.18l-0.11-0.03
			c-0.99-0.28-1.96-0.34-2.87-0.18c-0.98,0.33-1.64,0.9-2.04,1.75C752.61,34.28,752.38,35.28,752.37,36.3z"/>
	</g>
</g>
</svg>
