<?xml version="1.0" encoding="utf-8"?>
<!-- Generator: Adobe Illustrator 25.4.1, SVG Export Plug-In . SVG Version: 6.00 Build 0)  -->
<svg version="1.1" id="圖層_1" xmlns="http://www.w3.org/2000/svg" xmlns:xlink="http://www.w3.org/1999/xlink" x="0px" y="0px"
	 viewBox="0 0 387.89 58.65" style="enable-background:new 0 0 387.89 58.65;" xml:space="preserve">
<style type="text/css">
	.st0{fill:#231815;}
	.st1{fill:#FFFFFF;}
	.st2{fill:#036EB7;}
</style>
<g id="XMLID_759_">
	<g id="XMLID_22410_">
		<path id="XMLID_22411_" class="st0" d="M44.7,48.59c-0.21,3.77-1.96,6.38-5.27,7.83c-3.13,1.47-6.41,2.17-9.86,2.1
			c-3.01-0.09-6.27-0.75-9.77-1.97c-3.51-1.22-6.22-2.99-8.15-5.31c-3.33-4.5-5.03-9.62-5.1-15.34c-0.07-5.72,1.36-10.96,4.27-15.72
			c1.38-2.09,3.37-3.95,5.96-5.57c2.6-1.62,5.45-2.82,8.57-3.6s6.12-0.94,9.02-0.48s5.33,1.72,7.31,3.79c2,2.25,2.98,4.91,2.93,7.96
			c-0.05,2.25-0.8,4.22-2.28,5.9c-1.63,1.66-3.56,2.29-5.79,1.9c-0.78-0.23-1.54-0.55-2.28-0.97c-0.83-0.46-1.69-0.79-2.58-1
			c-1.45-0.21-2.64,0.1-3.59,0.91c-0.94,0.82-1.59,1.88-1.95,3.19c-0.36,1.31-0.38,2.6-0.09,3.86c0.48,1.77,1.4,3.1,2.74,4
			s2.9,1.13,4.67,0.69c0.51-0.14,1.01-0.3,1.52-0.48c1.26-0.53,2.55-0.78,3.86-0.76c1.59,0.18,2.88,0.91,3.9,2.19
			c1.01,1.28,1.64,2.74,1.9,4.4C44.75,46.93,44.77,47.76,44.7,48.59z"/>
		<path id="XMLID_22413_" class="st0" d="M88.76,25.87c1.47,4.73,1.62,9.54,0.45,14.41c-1.17,4.87-3.45,8.93-6.83,12.17
			c-2.02,1.84-4.25,3.24-6.69,4.21c-5.86,2.23-11.63,1.94-17.31-0.86c-5.58-3.01-9.56-7.73-11.93-14.17
			c-1.24-3.52-1.74-7.16-1.48-10.93c0.3-3.54,1.28-6.82,2.95-9.84c1.67-3.02,3.83-5.46,6.5-7.33c3.06-2,6.46-3.07,10.21-3.22
			s7.29,0.36,10.62,1.53c3.15,1.1,5.9,2.86,8.26,5.28C85.86,19.52,87.61,22.44,88.76,25.87z M71.94,36.69
			c0.71-1.2,0.95-2.48,0.72-3.84c-0.23-1.37-0.85-2.51-1.86-3.43c-1.43-1.22-3.06-1.64-4.9-1.28c-1.49,0.41-2.67,1.28-3.52,2.58
			c-0.83,1.36-1.07,2.78-0.74,4.26c0.33,1.48,1.18,2.65,2.53,3.5c1.13,0.64,2.38,0.89,3.78,0.74c1.39-0.15,2.52-0.74,3.4-1.78
			c0.02-0.02,0.05-0.05,0.07-0.07c0-0.02,0.01-0.05,0.04-0.07C71.64,37.13,71.8,36.92,71.94,36.69z"/>
		<path id="XMLID_22416_" class="st0" d="M109.53,37.47c0.49,1.94,1.63,3.36,3.4,4.26c0.78,0.32,1.56,0.48,2.34,0.48
			s1.57-0.07,2.38-0.21c1.26-0.23,2.53-0.24,3.79-0.04c1.49,0.39,2.63,1.25,3.41,2.59c0.87,1.82,0.99,3.95,0.34,6.41
			c-0.64,2.46-1.77,4.23-3.38,5.31c-2.41,1.24-5.19,1.84-8.34,1.79c-3.15-0.05-5.81-0.22-8-0.52s-4.3-1.09-6.34-2.38
			c-1.52-1.08-2.64-2.57-3.36-4.46c-0.72-1.9-1.21-3.92-1.46-6.08s-0.41-4.17-0.48-6.03c-0.02-0.41-0.05-0.82-0.07-1.21
			c-0.25-3.61-0.24-7.46,0.05-11.57c0.29-4.1,1.21-7.8,2.78-11.08c1.38-2.46,3.1-3.98,5.17-4.55s4.18,0.14,6.34,2.14
			c1.4,1.49,2.19,3.14,2.36,4.93s0.13,3.62-0.12,5.48c-0.05,0.53-0.08,1.06-0.1,1.59c-0.14,1.4-0.33,2.67-0.59,3.79
			c-0.25,1.08-0.45,2.32-0.59,3.72C108.88,33.65,109.04,35.53,109.53,37.47z"/>
		<path id="XMLID_22418_" class="st0" d="M143.11,37.47c0.49,1.94,1.63,3.36,3.4,4.26c0.78,0.32,1.56,0.48,2.34,0.48
			s1.57-0.07,2.38-0.21c1.26-0.23,2.53-0.24,3.79-0.04c1.49,0.39,2.63,1.25,3.41,2.59c0.87,1.82,0.99,3.95,0.34,6.41
			c-0.64,2.46-1.77,4.23-3.38,5.31c-2.41,1.24-5.19,1.84-8.34,1.79s-5.81-0.22-8-0.52s-4.3-1.09-6.34-2.38
			c-1.52-1.08-2.64-2.57-3.36-4.46c-0.72-1.9-1.21-3.92-1.46-6.08s-0.41-4.17-0.48-6.03c-0.02-0.41-0.05-0.82-0.07-1.21
			c-0.25-3.61-0.24-7.46,0.05-11.57c0.29-4.1,1.21-7.8,2.78-11.08c1.38-2.46,3.1-3.98,5.17-4.55c2.07-0.57,4.18,0.14,6.34,2.14
			c1.4,1.49,2.19,3.14,2.36,4.93s0.13,3.62-0.12,5.48c-0.05,0.53-0.08,1.06-0.1,1.59c-0.14,1.4-0.33,2.67-0.59,3.79
			c-0.25,1.08-0.45,2.32-0.59,3.72C142.46,33.65,142.62,35.53,143.11,37.47z"/>
		<path id="XMLID_22420_" class="st0" d="M194.01,47.14c0.14,2.18-0.06,4.17-0.59,5.96c-0.46,1.45-1.23,2.55-2.31,3.29
			c-1.08,0.75-2.36,1.26-3.83,1.53c-4.64,0.92-9.07,0.75-13.29-0.52c-4.22-1.26-7.84-3.77-10.88-7.52
			c-3.33-4.44-5.03-9.46-5.1-15.07s1.36-10.75,4.27-15.41c2.78-4.09,6.58-6.91,11.39-8.46c4.81-1.55,9.58-1.49,14.29,0.19
			c1.13,0.41,2.01,1.1,2.65,2.07c0.39,0.67,0.62,1.39,0.67,2.17c0.06,0.78,0.04,1.57-0.05,2.38c-0.07,1.38-0.44,2.66-1.1,3.83
			c-1.06,1.45-2.49,2.14-4.31,2.07c-0.8-0.02-1.6-0.09-2.38-0.21c-0.07,0-0.15-0.01-0.24-0.03c-0.28-0.02-0.56-0.07-0.86-0.14
			c-0.74-0.18-1.43-0.23-2.07-0.14c-0.3,0.05-0.56,0.17-0.78,0.36c-0.22,0.2-0.35,0.43-0.4,0.71c-0.02,0.34,0.07,0.64,0.29,0.88
			c0.22,0.24,0.48,0.43,0.78,0.57c0.99,0.37,2.02,0.51,3.1,0.41c0.74-0.05,1.46-0.01,2.17,0.1c1.95,0.48,3.26,1.67,3.93,3.57
			s0.56,3.72-0.31,5.46c-0.8,1.33-1.97,2.17-3.48,2.52c-0.8,0.14-1.63,0.17-2.48,0.1c-1.01-0.09-2,0-2.96,0.28
			c-0.34,0.12-0.66,0.29-0.95,0.53s-0.45,0.54-0.5,0.88c-0.02,0.32,0.05,0.62,0.22,0.9s0.4,0.48,0.67,0.62
			c0.57,0.25,1.18,0.33,1.83,0.24c0.94-0.11,1.85-0.33,2.72-0.66c1.01-0.37,2.05-0.6,3.1-0.69c1.84-0.05,3.4,0.59,4.69,1.9
			C193.19,43.25,193.88,45.02,194.01,47.14z"/>
		<path id="XMLID_22422_" class="st0" d="M232.14,48.59c-0.21,3.77-1.96,6.38-5.27,7.83c-3.13,1.47-6.41,2.17-9.86,2.1
			c-3.01-0.09-6.27-0.75-9.77-1.97c-3.51-1.22-6.22-2.99-8.15-5.31c-3.33-4.5-5.03-9.62-5.1-15.34s1.36-10.96,4.27-15.72
			c1.38-2.09,3.37-3.95,5.96-5.57c2.6-1.62,5.45-2.82,8.57-3.6s6.12-0.94,9.02-0.48c2.9,0.46,5.33,1.72,7.31,3.79
			c2,2.25,2.98,4.91,2.93,7.96c-0.05,2.25-0.8,4.22-2.28,5.9c-1.63,1.66-3.56,2.29-5.79,1.9c-0.78-0.23-1.54-0.55-2.28-0.97
			c-0.83-0.46-1.69-0.79-2.58-1c-1.45-0.21-2.64,0.1-3.59,0.91c-0.94,0.82-1.59,1.88-1.95,3.19c-0.36,1.31-0.38,2.6-0.09,3.86
			c0.48,1.77,1.4,3.1,2.74,4c1.34,0.9,2.9,1.13,4.67,0.69c0.51-0.14,1.01-0.3,1.52-0.48c1.26-0.53,2.55-0.78,3.86-0.76
			c1.59,0.18,2.88,0.91,3.9,2.19c1.01,1.28,1.64,2.74,1.9,4.4C232.19,46.93,232.21,47.76,232.14,48.59z"/>
		<path id="XMLID_22424_" class="st0" d="M271.38,13.35c1.54,1.42,2.38,3.24,2.52,5.45c0.14,2.21-0.52,4.08-1.97,5.62
			c-0.87,0.83-1.84,1.32-2.9,1.46c-1.06,0.15-2.15,0.22-3.28,0.22c-0.76,0-1.38,0.23-1.88,0.69s-0.86,1.4-1.09,2.81
			c-0.23,1.41-0.34,3.56-0.34,6.43c0,2.37-0.03,4.72-0.1,7.07c-0.05,1.17-0.08,2.36-0.1,3.55c0,1.79-0.24,3.53-0.72,5.21
			c-0.48,1.68-1.38,3.13-2.69,4.34c-1.38,1.15-2.96,1.76-4.76,1.84c-1.79,0.08-3.42-0.41-4.9-1.46c-1.17-0.94-2.07-2.09-2.69-3.43
			s-1.02-2.75-1.21-4.22c-0.21-2.32-0.17-4.67,0.1-7.03c0.05-0.57,0.08-1.15,0.1-1.72c0.23-3.49,0.21-6.99-0.07-10.48
			c-0.12-1.19-0.53-2.09-1.26-2.69c-0.72-0.6-1.66-0.99-2.81-1.17c-1.98-0.32-3.64-1.03-5-2.14c-1.36-1.1-2.1-2.69-2.24-4.76
			c-0.02-2.11,0.64-3.9,2-5.34c1.36-1.45,3.1-2.34,5.24-2.69c3.22-0.41,6.49-0.56,9.83-0.45c0.99,0.02,1.95,0.04,2.9,0.04
			c4.48-0.12,8.93,0.22,13.34,1C269.02,11.81,270.34,12.43,271.38,13.35z"/>
		<path id="XMLID_22426_" class="st0" d="M294.1,32.66c0.02,4.07-0.01,8.1-0.1,12.1c-0.02,0.76-0.05,1.52-0.07,2.28
			c0,1.86-0.24,3.67-0.72,5.41c-0.48,1.75-1.38,3.24-2.69,4.48c-1.24,1.1-2.6,1.68-4.08,1.72s-2.9-0.39-4.26-1.31
			c-1.93-1.33-3.19-2.92-3.78-4.77s-0.99-4.25-1.22-7.19c-0.02-0.16-0.05-0.32-0.07-0.48c-0.6-5.58-0.9-11.19-0.9-16.82
			c0-0.67-0.01-1.3-0.03-1.9c-0.09-3.56,0.06-6.43,0.45-8.62c0.39-2.18,1.5-4.16,3.34-5.93c2-1.7,4.24-2.24,6.72-1.62
			c2.18,0.55,3.76,1.64,4.72,3.26s1.61,3.91,1.93,6.88C293.8,24.23,294.05,28.41,294.1,32.66z"/>
		<path id="XMLID_22429_" class="st0" d="M340.71,25.87c1.47,4.73,1.62,9.54,0.45,14.41c-1.17,4.87-3.45,8.93-6.83,12.17
			c-2.02,1.84-4.25,3.24-6.69,4.21c-5.86,2.23-11.63,1.94-17.31-0.86c-5.58-3.01-9.56-7.73-11.93-14.17
			c-1.24-3.52-1.74-7.16-1.48-10.93c0.3-3.54,1.28-6.82,2.95-9.84c1.67-3.02,3.83-5.46,6.5-7.33c3.06-2,6.46-3.07,10.21-3.22
			s7.29,0.36,10.62,1.53c3.15,1.1,5.9,2.86,8.26,5.28C337.81,19.52,339.56,22.44,340.71,25.87z M323.88,36.69
			c0.71-1.2,0.95-2.48,0.72-3.84c-0.23-1.37-0.85-2.51-1.86-3.43c-1.43-1.22-3.06-1.64-4.9-1.28c-1.49,0.41-2.67,1.28-3.52,2.58
			c-0.83,1.36-1.07,2.78-0.74,4.26c0.33,1.48,1.18,2.65,2.53,3.5c1.13,0.64,2.38,0.89,3.78,0.74c1.39-0.15,2.52-0.74,3.4-1.78
			c0.02-0.02,0.05-0.05,0.07-0.07c0-0.02,0.01-0.05,0.04-0.07C323.59,37.13,323.75,36.92,323.88,36.69z"/>
		<path id="XMLID_22432_" class="st0" d="M349.02,17.18c0.76-1.72,1.83-3.09,3.22-4.1s3.19-1.39,5.4-1.14
			c2.16,0.34,4.03,1.23,5.62,2.66s2.94,3.08,4.05,4.98c1.12,1.9,2.03,3.75,2.74,5.57c0.02,0.02,0.03,0.05,0.03,0.07
			c0.16,0.48,0.4,0.93,0.72,1.34c0.21,0.18,0.44,0.32,0.69,0.41c0.25,0.09,0.5,0.09,0.76,0c0.46-0.18,0.71-0.53,0.76-1.05
			c0.05-0.52,0-1.03-0.14-1.53c-0.55-1.98-0.73-4.18-0.53-6.62c0.19-2.44,0.95-4.45,2.28-6.05c1.32-1.6,3.43-2.16,6.33-1.67
			c2.07,0.53,3.58,1.73,4.53,3.6c0.95,1.87,1.57,3.99,1.84,6.36c0.28,2.37,0.42,4.54,0.45,6.52c0.02,0.6,0.03,1.14,0.03,1.62
			c0.41,7.98-0.52,15.78-2.79,23.41c-0.39,1.63-1.12,3.07-2.17,4.31c-0.9,0.85-1.81,1.43-2.74,1.74s-1.87,0.44-2.81,0.4
			c-2.71-0.12-4.94-0.88-6.69-2.29c-1.75-1.41-3.14-3.07-4.17-4.98c-1.03-1.91-1.84-3.65-2.41-5.24c-0.55-1.4-1.02-2.34-1.41-2.83
			c0.39,2.46,0.49,4.92,0.31,7.38c-0.23,2.57-1.23,4.8-3,6.69c-1.59,1.45-3.27,2.11-5.05,2c-1.78-0.12-3.39-0.78-4.83-1.98
			c-1.44-1.21-2.43-2.74-2.98-4.6c-1.15-4.37-1.72-8.8-1.72-13.31s0.45-8.96,1.34-13.38c0.16-0.92,0.36-1.88,0.59-2.9
			C347.67,20.69,348.26,18.9,349.02,17.18z"/>
	</g>
	<g id="XMLID_22387_">
		<g>
			<path id="XMLID_00000024707442237506306790000016445346184942321327_" class="st1" d="M40.47,40.31
				c-0.21,3.77-1.96,6.38-5.27,7.83c-3.13,1.47-6.41,2.17-9.86,2.1c-3.01-0.09-6.27-0.75-9.77-1.97c-3.51-1.22-6.22-2.99-8.15-5.31
				c-3.33-4.5-5.03-9.62-5.1-15.34C2.25,21.9,3.68,16.66,6.59,11.9c1.38-2.09,3.37-3.95,5.96-5.57c2.6-1.62,5.45-2.82,8.57-3.6
				s6.12-0.94,9.02-0.48s5.33,1.72,7.31,3.79c2,2.25,2.98,4.91,2.93,7.96c-0.05,2.25-0.8,4.22-2.28,5.9
				c-1.63,1.66-3.56,2.29-5.79,1.9c-0.78-0.23-1.54-0.55-2.28-0.97c-0.83-0.46-1.69-0.79-2.58-1c-1.45-0.21-2.64,0.1-3.59,0.91
				c-0.94,0.82-1.59,1.88-1.95,3.19c-0.36,1.31-0.38,2.6-0.09,3.86c0.48,1.77,1.4,3.1,2.74,4s2.9,1.13,4.67,0.69
				c0.51-0.14,1.01-0.3,1.52-0.48c1.26-0.53,2.55-0.78,3.86-0.76c1.59,0.18,2.88,0.91,3.9,2.19c1.01,1.28,1.64,2.74,1.9,4.4
				C40.52,38.66,40.54,39.48,40.47,40.31z"/>
			<path class="st2" d="M25.79,51.36c-0.16,0-0.32,0-0.47,0c-3.13-0.1-6.53-0.78-10.12-2.03c-3.68-1.28-6.59-3.18-8.65-5.65
				c-3.5-4.73-5.29-10.11-5.36-16.04c-0.07-5.91,1.42-11.4,4.44-16.32c1.48-2.25,3.6-4.23,6.32-5.93c2.68-1.67,5.67-2.93,8.88-3.74
				c3.25-0.82,6.43-0.98,9.46-0.5c3.13,0.5,5.8,1.88,7.94,4.12c2.21,2.49,3.29,5.42,3.24,8.75c-0.05,2.52-0.91,4.74-2.55,6.61
				c-1.94,1.97-4.22,2.72-6.82,2.26l-0.12-0.03c-0.86-0.25-1.7-0.61-2.51-1.06c-0.73-0.4-1.5-0.7-2.29-0.89
				c-1.03-0.14-1.91,0.07-2.61,0.67c-0.78,0.67-1.3,1.54-1.6,2.64c-0.31,1.14-0.33,2.22-0.08,3.31c0.4,1.48,1.15,2.58,2.27,3.33
				c1.08,0.72,2.32,0.9,3.79,0.54c0.45-0.12,0.93-0.27,1.4-0.45c1.35-0.57,2.8-0.84,4.26-0.83l0.11,0.01
				c1.88,0.22,3.44,1.09,4.64,2.6c1.13,1.42,1.84,3.08,2.12,4.92c0.13,0.92,0.15,1.83,0.08,2.73c-0.24,4.2-2.23,7.15-5.94,8.77
				C32.55,50.62,29.23,51.36,25.79,51.36z M26.88,3.11c-1.79,0-3.63,0.23-5.49,0.7c-2.99,0.75-5.76,1.92-8.25,3.47
				c-2.45,1.53-4.34,3.29-5.62,5.24c-2.77,4.52-4.16,9.61-4.09,15.09c0.06,5.46,1.71,10.4,4.88,14.69c1.75,2.1,4.33,3.77,7.62,4.92
				c3.38,1.17,6.55,1.82,9.44,1.9c3.25,0.06,6.4-0.61,9.35-2c2.95-1.29,4.45-3.53,4.64-6.88v-0.03c0.06-0.74,0.04-1.49-0.06-2.24
				c-0.22-1.46-0.77-2.72-1.67-3.86c-0.82-1.03-1.83-1.61-3.1-1.77c-1.12-0.03-2.26,0.21-3.36,0.67c-0.57,0.21-1.11,0.38-1.65,0.53
				c-2.1,0.52-3.97,0.24-5.58-0.84c-1.57-1.05-2.65-2.61-3.2-4.63c-0.35-1.48-0.32-2.96,0.09-4.45c0.41-1.52,1.19-2.78,2.29-3.74
				c1.19-1.03,2.7-1.43,4.47-1.17c1.09,0.25,2.05,0.62,2.97,1.13c0.65,0.36,1.31,0.65,1.99,0.85c1.83,0.31,3.39-0.22,4.75-1.59
				c1.26-1.44,1.91-3.14,1.96-5.14c0.04-2.79-0.83-5.15-2.65-7.2c-1.79-1.87-3.98-3.01-6.65-3.43C28.95,3.19,27.92,3.11,26.88,3.11z
				"/>
		</g>
		<g>
			<path id="XMLID_00000129181676473380430660000007817743676945665942_" class="st1" d="M84.54,17.59
				c1.47,4.73,1.62,9.54,0.45,14.41c-1.17,4.87-3.45,8.93-6.83,12.17c-2.02,1.84-4.25,3.24-6.69,4.21
				c-5.86,2.23-11.63,1.94-17.31-0.86c-5.58-3.01-9.56-7.73-11.93-14.17c-1.24-3.52-1.74-7.16-1.48-10.93
				c0.3-3.54,1.28-6.82,2.95-9.84c1.67-3.02,3.83-5.46,6.5-7.33c3.06-2,6.46-3.07,10.21-3.22s7.29,0.36,10.62,1.53
				c3.15,1.1,5.9,2.86,8.26,5.28C81.63,11.25,83.39,14.17,84.54,17.59z M67.71,28.42c0.71-1.2,0.95-2.48,0.72-3.84
				s-0.85-2.51-1.86-3.43c-1.43-1.22-3.06-1.64-4.9-1.28c-1.49,0.41-2.67,1.28-3.52,2.58c-0.83,1.36-1.07,2.78-0.74,4.26
				s1.18,2.65,2.53,3.5c1.13,0.64,2.38,0.89,3.78,0.74c1.39-0.15,2.52-0.74,3.4-1.78c0.02-0.02,0.05-0.05,0.07-0.07
				c0-0.02,0.01-0.05,0.04-0.07C67.41,28.85,67.57,28.65,67.71,28.42z"/>
			<path class="st2" d="M63.74,50.97c-3.39,0-6.76-0.82-10.07-2.45c-5.84-3.15-10.03-8.12-12.48-14.78
				c-1.29-3.66-1.81-7.48-1.55-11.39c0.31-3.7,1.35-7.16,3.08-10.31c1.74-3.16,4.04-5.75,6.84-7.7c3.24-2.12,6.86-3.27,10.8-3.42
				c3.86-0.15,7.58,0.38,11.03,1.6c3.3,1.16,6.22,3.02,8.68,5.55c2.46,2.52,4.32,5.61,5.52,9.18l0.01,0.02
				c1.52,4.91,1.68,9.95,0.47,15c-1.22,5.06-3.62,9.34-7.14,12.71c-2.13,1.94-4.5,3.43-7.05,4.44
				C69.16,50.45,66.44,50.97,63.74,50.97z M61.64,3.11c-0.4,0-0.8,0.01-1.2,0.02c-3.52,0.14-6.77,1.17-9.64,3.04
				c-2.48,1.74-4.56,4.08-6.13,6.93c-1.58,2.87-2.53,6.03-2.81,9.4c-0.24,3.58,0.24,7.11,1.42,10.46
				c2.25,6.13,6.09,10.7,11.41,13.56c5.33,2.63,10.85,2.9,16.38,0.8c2.29-0.91,4.42-2.25,6.33-3.99c3.19-3.05,5.38-6.97,6.49-11.61
				c1.12-4.65,0.98-9.29-0.42-13.81c-1.09-3.24-2.77-6.04-5-8.32c-2.22-2.28-4.86-3.96-7.83-5C67.82,3.62,64.8,3.11,61.64,3.11z
				 M62.96,32.11c-1.28,0-2.48-0.31-3.56-0.93c-1.65-1.03-2.67-2.45-3.07-4.22c-0.4-1.77-0.1-3.48,0.88-5.08
				c1.02-1.57,2.41-2.59,4.17-3.08c2.26-0.46,4.22,0.06,5.92,1.5c1.22,1.11,1.97,2.48,2.24,4.09c0.27,1.63-0.02,3.18-0.86,4.6l0,0
				c-0.11,0.18-0.23,0.35-0.36,0.51v0.05L68,29.88c-1.08,1.27-2.47,2-4.15,2.18C63.55,32.09,63.25,32.11,62.96,32.11z M62.92,20.85
				c-0.33,0-0.67,0.04-1.02,0.11c-1.15,0.32-2.1,1.02-2.8,2.1c-0.66,1.08-0.86,2.21-0.59,3.41c0.27,1.19,0.94,2.11,2.04,2.8
				c0.89,0.5,1.9,0.7,3.06,0.58c1.1-0.12,1.97-0.57,2.66-1.38c0.05-0.08,0.11-0.15,0.17-0.21c0.12-0.12,0.22-0.25,0.31-0.4
				c0.58-0.97,0.77-1.98,0.58-3.09c-0.19-1.12-0.68-2.04-1.51-2.79C64.96,21.23,63.99,20.85,62.92,20.85z"/>
		</g>
		<g>
			<path id="XMLID_00000111908149194248958350000002844712944459833254_" class="st1" d="M105.31,29.19
				c0.49,1.94,1.63,3.36,3.4,4.26c0.78,0.32,1.56,0.48,2.34,0.48s1.57-0.07,2.38-0.21c1.26-0.23,2.53-0.24,3.79-0.04
				c1.49,0.39,2.63,1.25,3.41,2.59c0.87,1.82,0.99,3.95,0.34,6.41c-0.64,2.46-1.77,4.23-3.38,5.31c-2.41,1.24-5.19,1.84-8.34,1.79
				c-3.15-0.05-5.81-0.22-8-0.52s-4.3-1.09-6.34-2.38c-1.52-1.08-2.64-2.57-3.36-4.46c-0.72-1.9-1.21-3.92-1.46-6.08
				s-0.41-4.17-0.48-6.03c-0.02-0.41-0.05-0.82-0.07-1.21c-0.25-3.61-0.24-7.46,0.05-11.57c0.29-4.1,1.21-7.8,2.78-11.08
				c1.38-2.46,3.1-3.98,5.17-4.55s4.18,0.14,6.34,2.14c1.4,1.49,2.19,3.14,2.36,4.93s0.13,3.62-0.12,5.48
				c-0.05,0.53-0.08,1.06-0.1,1.59c-0.14,1.4-0.33,2.67-0.59,3.79c-0.25,1.08-0.45,2.32-0.59,3.72
				C104.66,25.37,104.81,27.25,105.31,29.19z"/>
			<path class="st2" d="M109.58,50.91c-0.12,0-0.23,0-0.35,0c-3.18-0.05-5.92-0.22-8.13-0.53c-2.33-0.32-4.62-1.17-6.79-2.54
				c-1.74-1.24-3.01-2.91-3.81-5.01c-0.75-1.97-1.27-4.11-1.53-6.35c-0.26-2.18-0.42-4.24-0.49-6.12l-0.07-1.18
				c-0.25-3.63-0.24-7.58,0.05-11.71c0.3-4.22,1.26-8.09,2.88-11.48c1.56-2.78,3.52-4.49,5.88-5.15c2.46-0.68,4.95,0.12,7.4,2.39
				c1.62,1.73,2.52,3.61,2.71,5.64c0.18,1.87,0.14,3.8-0.12,5.74c-0.04,0.46-0.07,0.97-0.09,1.48c-0.15,1.5-0.35,2.82-0.61,3.99
				c-0.24,1.03-0.43,2.24-0.56,3.59c-0.17,1.68-0.02,3.45,0.44,5.25l0,0c0.42,1.63,1.34,2.79,2.82,3.54
				c1.2,0.49,2.64,0.41,4.03,0.17c1.38-0.25,2.78-0.26,4.16-0.04l0.1,0.02c1.78,0.47,3.16,1.51,4.09,3.1
				c1.03,2.13,1.17,4.55,0.46,7.26c-0.71,2.72-2,4.72-3.83,5.95l-0.11,0.07C115.63,50.26,112.76,50.91,109.58,50.91z M98.93,2.83
				c-0.37,0-0.74,0.05-1.1,0.15c-1.79,0.5-3.26,1.81-4.5,4.02c-1.46,3.08-2.36,6.67-2.64,10.62c-0.28,4.03-0.3,7.87-0.05,11.41
				l0.07,1.22c0.07,1.84,0.23,3.84,0.48,5.97c0.24,2.06,0.71,4.02,1.4,5.82c0.65,1.7,1.62,3,2.97,3.95
				c1.85,1.16,3.83,1.91,5.85,2.18c2.12,0.29,4.77,0.46,7.86,0.51c2.92,0.02,5.53-0.51,7.76-1.64c1.34-0.92,2.31-2.48,2.87-4.63
				c0.57-2.19,0.48-4.08-0.27-5.65c-0.58-0.98-1.46-1.66-2.64-1.98c-1.11-0.18-2.24-0.16-3.36,0.04c-1.83,0.31-3.61,0.38-5.35-0.34
				c-2.14-1.08-3.48-2.75-4.05-5.01c-0.52-2.06-0.69-4.09-0.49-6.02c0.14-1.45,0.35-2.75,0.61-3.87c0.24-1.07,0.43-2.3,0.56-3.65
				c0.02-0.48,0.05-1.03,0.1-1.58c0.25-1.82,0.28-3.58,0.12-5.28c-0.15-1.55-0.82-2.95-2.07-4.27
				C101.64,3.49,100.27,2.83,98.93,2.83z"/>
		</g>
		<g>
			<path id="XMLID_00000011031284967287592330000016081599415134176134_" class="st1" d="M138.89,29.19
				c0.49,1.94,1.63,3.36,3.4,4.26c0.78,0.32,1.56,0.48,2.34,0.48s1.57-0.07,2.38-0.21c1.26-0.23,2.53-0.24,3.79-0.04
				c1.49,0.39,2.63,1.25,3.41,2.59c0.87,1.82,0.99,3.95,0.34,6.41c-0.64,2.46-1.77,4.23-3.38,5.31c-2.41,1.24-5.19,1.84-8.34,1.79
				s-5.81-0.22-8-0.52s-4.3-1.09-6.34-2.38c-1.52-1.08-2.64-2.57-3.36-4.46c-0.72-1.9-1.21-3.92-1.46-6.08s-0.41-4.17-0.48-6.03
				c-0.02-0.41-0.05-0.82-0.07-1.21c-0.25-3.61-0.24-7.46,0.05-11.57c0.29-4.1,1.21-7.8,2.78-11.08c1.38-2.46,3.1-3.98,5.17-4.55
				s4.18,0.14,6.34,2.14c1.4,1.49,2.19,3.14,2.36,4.93s0.13,3.62-0.12,5.48c-0.05,0.53-0.08,1.06-0.1,1.59
				c-0.14,1.4-0.33,2.67-0.59,3.79c-0.25,1.08-0.45,2.32-0.59,3.72C138.24,25.37,138.39,27.25,138.89,29.19z"/>
			<path class="st2" d="M143.16,50.91c-0.12,0-0.23,0-0.35,0c-3.18-0.05-5.92-0.22-8.13-0.53c-2.33-0.32-4.62-1.17-6.79-2.54
				c-1.74-1.24-3.01-2.91-3.81-5.01c-0.75-1.97-1.27-4.11-1.53-6.35c-0.26-2.18-0.42-4.24-0.49-6.12l-0.07-1.18
				c-0.25-3.63-0.24-7.58,0.05-11.71c0.3-4.22,1.26-8.09,2.88-11.48c1.56-2.78,3.52-4.49,5.88-5.15c2.46-0.68,4.95,0.12,7.4,2.39
				c1.62,1.73,2.52,3.61,2.71,5.64c0.18,1.87,0.14,3.8-0.12,5.74c-0.04,0.46-0.07,0.97-0.09,1.48c-0.15,1.5-0.35,2.82-0.61,3.99
				c-0.24,1.03-0.43,2.24-0.56,3.59c-0.17,1.68-0.02,3.45,0.44,5.25l0,0c0.42,1.63,1.34,2.79,2.82,3.54
				c1.2,0.49,2.64,0.41,4.03,0.17c1.38-0.25,2.78-0.26,4.16-0.04l0.1,0.02c1.78,0.47,3.16,1.51,4.09,3.1
				c1.03,2.13,1.17,4.55,0.46,7.26c-0.71,2.72-2,4.72-3.83,5.95l-0.11,0.07C149.21,50.26,146.34,50.91,143.16,50.91z M132.51,2.83
				c-0.37,0-0.74,0.05-1.1,0.15c-1.79,0.5-3.26,1.81-4.5,4.02c-1.46,3.08-2.36,6.67-2.64,10.62c-0.28,4.03-0.3,7.87-0.05,11.41
				l0.07,1.22c0.07,1.84,0.23,3.84,0.48,5.97c0.24,2.06,0.71,4.02,1.4,5.82c0.65,1.7,1.62,3,2.97,3.95
				c1.85,1.16,3.83,1.91,5.85,2.18c2.12,0.29,4.77,0.46,7.86,0.51c2.93,0.02,5.53-0.51,7.76-1.64c1.34-0.92,2.31-2.48,2.87-4.63
				c0.57-2.19,0.48-4.08-0.27-5.65c-0.58-0.98-1.46-1.66-2.64-1.98c-1.11-0.18-2.24-0.16-3.36,0.04c-1.83,0.31-3.61,0.38-5.35-0.34
				c-2.14-1.08-3.48-2.75-4.05-5.01c-0.52-2.06-0.69-4.09-0.49-6.02c0.14-1.45,0.35-2.75,0.61-3.87c0.24-1.07,0.43-2.3,0.56-3.65
				c0.02-0.48,0.05-1.03,0.1-1.58c0.25-1.82,0.28-3.58,0.12-5.28c-0.15-1.55-0.82-2.95-2.07-4.27
				C135.22,3.49,133.85,2.83,132.51,2.83z"/>
		</g>
		<g>
			<path id="XMLID_00000029041614576021274160000010730419141503708821_" class="st1" d="M189.79,38.86
				c0.14,2.18-0.06,4.17-0.59,5.96c-0.46,1.45-1.23,2.55-2.31,3.29c-1.08,0.75-2.36,1.26-3.83,1.53c-4.64,0.92-9.07,0.75-13.29-0.52
				c-4.22-1.26-7.84-3.77-10.88-7.52c-3.33-4.44-5.03-9.46-5.1-15.07s1.36-10.75,4.27-15.41c2.78-4.09,6.58-6.91,11.39-8.46
				c4.81-1.55,9.58-1.49,14.29,0.19c1.13,0.41,2.01,1.1,2.65,2.07c0.39,0.67,0.62,1.39,0.67,2.17c0.06,0.78,0.04,1.57-0.05,2.38
				c-0.07,1.38-0.44,2.66-1.1,3.83c-1.06,1.45-2.49,2.14-4.31,2.07c-0.8-0.02-1.6-0.09-2.38-0.21c-0.07,0-0.15-0.01-0.24-0.03
				c-0.28-0.02-0.56-0.07-0.86-0.14c-0.74-0.18-1.43-0.23-2.07-0.14c-0.3,0.05-0.56,0.17-0.78,0.36c-0.22,0.2-0.35,0.43-0.4,0.71
				c-0.02,0.34,0.07,0.64,0.29,0.88c0.22,0.24,0.48,0.43,0.78,0.57c0.99,0.37,2.02,0.51,3.1,0.41c0.74-0.05,1.46-0.01,2.17,0.1
				c1.95,0.48,3.26,1.67,3.93,3.57s0.56,3.72-0.31,5.46c-0.8,1.33-1.97,2.17-3.48,2.52c-0.8,0.14-1.63,0.17-2.48,0.1
				c-1.01-0.09-2,0-2.96,0.28c-0.34,0.12-0.66,0.29-0.95,0.53s-0.45,0.54-0.5,0.88c-0.02,0.32,0.05,0.62,0.22,0.9
				s0.4,0.48,0.67,0.62c0.57,0.25,1.18,0.33,1.83,0.24c0.94-0.11,1.85-0.33,2.72-0.66c1.01-0.37,2.05-0.6,3.1-0.69
				c1.84-0.05,3.4,0.59,4.69,1.9C188.96,34.98,189.65,36.75,189.79,38.86z"/>
			<path class="st2" d="M177.33,51.35c-2.7,0-5.33-0.38-7.87-1.14c-4.42-1.32-8.26-3.97-11.42-7.88c-3.49-4.64-5.28-9.93-5.35-15.75
				c-0.07-5.8,1.42-11.19,4.44-16.02c2.93-4.32,6.96-7.31,12-8.93c5.03-1.62,10.08-1.55,15.01,0.2c1.36,0.5,2.43,1.34,3.21,2.5
				c0.51,0.87,0.79,1.76,0.86,2.71c0.06,0.85,0.04,1.72-0.06,2.59c-0.07,1.48-0.49,2.93-1.24,4.25l-0.07,0.11
				c-1.28,1.76-3.04,2.59-5.25,2.52c-0.82-0.02-1.64-0.09-2.44-0.21c-0.1-0.01-0.21-0.02-0.31-0.04c-0.3-0.03-0.62-0.08-0.94-0.16
				c-0.61-0.15-1.16-0.19-1.66-0.12c-0.07,0.01-0.13,0.04-0.19,0.09c0.1,0.14,0.23,0.24,0.4,0.31c0.76,0.28,1.62,0.39,2.54,0.32
				c0.84-0.05,1.65-0.01,2.44,0.11c2.42,0.6,4.01,2.04,4.8,4.3c0.77,2.18,0.65,4.31-0.36,6.33c-1.01,1.67-2.42,2.69-4.23,3.1
				c-0.95,0.17-1.88,0.2-2.82,0.13c-0.88-0.08-1.74,0-2.57,0.24c-0.17,0.06-0.36,0.17-0.54,0.32c-0.1,0.08-0.11,0.14-0.11,0.17
				c0,0.02,0.02,0.08,0.06,0.16c0.06,0.1,0.13,0.17,0.23,0.21c0.33,0.15,0.73,0.2,1.17,0.13c0.88-0.11,1.71-0.31,2.5-0.6
				c1.1-0.4,2.24-0.65,3.39-0.75c2.22-0.05,4.07,0.69,5.58,2.22c1.45,1.66,2.23,3.67,2.39,6.02l0,0c0.15,2.3-0.07,4.44-0.63,6.35
				c-0.54,1.71-1.46,3.01-2.74,3.89c-1.21,0.83-2.64,1.41-4.26,1.71C181.26,51.15,179.28,51.35,177.33,51.35z M176.37,2.68
				c-2.18,0-4.37,0.35-6.56,1.06c-4.55,1.47-8.19,4.17-10.82,8.03c-2.77,4.42-4.15,9.41-4.08,14.77c0.06,5.34,1.71,10.19,4.88,14.41
				c2.85,3.52,6.33,5.93,10.31,7.12c4.02,1.21,8.31,1.37,12.75,0.49c1.32-0.25,2.46-0.7,3.41-1.36c0.88-0.61,1.49-1.5,1.88-2.71
				c0.48-1.64,0.66-3.51,0.54-5.56c-0.12-1.88-0.71-3.4-1.8-4.65c-1.03-1.04-2.28-1.53-3.82-1.51c-0.89,0.08-1.84,0.29-2.75,0.62
				c-0.95,0.35-1.95,0.59-2.97,0.71c-0.83,0.12-1.64,0.01-2.41-0.33c-0.51-0.25-0.89-0.6-1.17-1.05c-0.3-0.48-0.43-1-0.39-1.56
				c0.09-0.69,0.4-1.23,0.89-1.65c0.39-0.33,0.84-0.58,1.31-0.74c1.14-0.33,2.27-0.43,3.42-0.33c0.74,0.06,1.49,0.03,2.19-0.09
				c1.16-0.27,2.07-0.92,2.72-1.99c0.7-1.4,0.78-2.91,0.21-4.52c-0.54-1.53-1.57-2.47-3.15-2.86c-0.54-0.08-1.19-0.11-1.83-0.07
				c-1.21,0.11-2.42-0.06-3.56-0.48c-0.51-0.23-0.89-0.51-1.21-0.87c-0.42-0.46-0.62-1.05-0.58-1.7l0.01-0.11
				c0.09-0.52,0.35-0.99,0.75-1.35c0.38-0.34,0.84-0.55,1.35-0.63c0.79-0.11,1.64-0.06,2.51,0.16c0.22,0.05,0.46,0.09,0.68,0.11
				l0.31,0.04c0.73,0.11,1.48,0.17,2.25,0.2c1.44,0.06,2.5-0.44,3.34-1.56c0.56-1,0.87-2.1,0.93-3.28c0.09-0.8,0.1-1.53,0.05-2.24
				c-0.05-0.61-0.22-1.17-0.52-1.69c-0.48-0.71-1.17-1.25-2.08-1.59C181.06,3.09,178.72,2.68,176.37,2.68z"/>
		</g>
		<g>
			<path id="XMLID_00000049944636263045753870000017477788737131005887_" class="st1" d="M227.92,40.31
				c-0.21,3.77-1.96,6.38-5.27,7.83c-3.13,1.47-6.41,2.17-9.86,2.1c-3.01-0.09-6.27-0.75-9.77-1.97c-3.51-1.22-6.22-2.99-8.15-5.31
				c-3.33-4.5-5.03-9.62-5.1-15.34c-0.07-5.72,1.36-10.96,4.27-15.72c1.38-2.09,3.37-3.95,5.96-5.57c2.6-1.62,5.45-2.82,8.57-3.6
				s6.12-0.94,9.02-0.48c2.9,0.46,5.33,1.72,7.31,3.79c2,2.25,2.98,4.91,2.93,7.96c-0.05,2.25-0.8,4.22-2.28,5.9
				c-1.63,1.66-3.56,2.29-5.79,1.9c-0.78-0.23-1.54-0.55-2.28-0.97c-0.83-0.46-1.69-0.79-2.58-1c-1.45-0.21-2.64,0.1-3.59,0.91
				c-0.94,0.82-1.59,1.88-1.95,3.19c-0.36,1.31-0.38,2.6-0.09,3.86c0.48,1.77,1.4,3.1,2.74,4c1.34,0.9,2.9,1.13,4.67,0.69
				c0.51-0.14,1.01-0.3,1.52-0.48c1.26-0.53,2.55-0.78,3.86-0.76c1.59,0.18,2.88,0.91,3.9,2.19c1.01,1.28,1.64,2.74,1.9,4.4
				C227.96,38.66,227.99,39.48,227.92,40.31z"/>
			<path class="st2" d="M213.24,51.36c-0.16,0-0.32,0-0.47,0c-3.13-0.1-6.53-0.78-10.12-2.03c-3.68-1.28-6.59-3.18-8.64-5.65
				c-3.5-4.73-5.29-10.11-5.36-16.04c-0.07-5.91,1.42-11.4,4.44-16.32c1.48-2.25,3.6-4.23,6.32-5.93c2.68-1.67,5.67-2.93,8.89-3.74
				c3.25-0.81,6.43-0.98,9.46-0.5c3.13,0.5,5.8,1.88,7.94,4.12c2.21,2.49,3.29,5.42,3.24,8.75c-0.05,2.52-0.91,4.74-2.55,6.61
				c-1.94,1.97-4.22,2.72-6.82,2.26l-0.12-0.03c-0.86-0.25-1.7-0.61-2.51-1.06c-0.73-0.4-1.5-0.7-2.29-0.89
				c-1.03-0.14-1.91,0.07-2.61,0.67c-0.78,0.67-1.3,1.54-1.6,2.64c-0.31,1.14-0.33,2.22-0.08,3.31c0.4,1.48,1.15,2.58,2.28,3.33
				c1.08,0.72,2.32,0.9,3.79,0.54c0.45-0.12,0.93-0.27,1.4-0.45c1.35-0.57,2.8-0.86,4.26-0.83l0.11,0.01
				c1.88,0.22,3.44,1.09,4.64,2.6c1.13,1.42,1.84,3.08,2.12,4.92c0.13,0.92,0.15,1.83,0.08,2.73c-0.24,4.2-2.23,7.15-5.94,8.77
				C219.99,50.62,216.67,51.36,213.24,51.36z M214.32,3.11c-1.79,0-3.63,0.23-5.49,0.7c-2.99,0.75-5.76,1.92-8.25,3.47
				c-2.45,1.53-4.34,3.29-5.62,5.24c-2.77,4.52-4.16,9.61-4.09,15.09c0.06,5.46,1.71,10.4,4.88,14.69c1.75,2.1,4.33,3.77,7.62,4.92
				c3.38,1.17,6.55,1.82,9.44,1.9c3.26,0.07,6.4-0.61,9.35-2c2.95-1.29,4.45-3.53,4.64-6.88v-0.03c0.06-0.74,0.04-1.49-0.06-2.24
				c-0.22-1.46-0.77-2.72-1.67-3.86c-0.82-1.03-1.83-1.61-3.1-1.77c-1.14-0.05-2.26,0.21-3.36,0.67c-0.57,0.21-1.11,0.38-1.65,0.53
				c-2.1,0.52-3.97,0.24-5.58-0.84c-1.57-1.05-2.65-2.61-3.2-4.63c-0.35-1.48-0.32-2.96,0.09-4.45c0.41-1.52,1.18-2.78,2.29-3.74
				c1.19-1.03,2.7-1.43,4.47-1.17c1.08,0.25,2.05,0.62,2.97,1.13c0.65,0.36,1.31,0.65,1.99,0.85c1.83,0.31,3.39-0.22,4.75-1.59
				c1.26-1.44,1.91-3.14,1.96-5.14c0.04-2.79-0.83-5.15-2.65-7.2c-1.79-1.87-3.98-3.01-6.65-3.43
				C216.39,3.19,215.37,3.11,214.32,3.11z"/>
		</g>
		<g>
			<path id="XMLID_00000016062902693063787720000011882821834643182244_" class="st1" d="M267.15,5.08
				c1.54,1.42,2.38,3.24,2.52,5.45c0.14,2.21-0.52,4.08-1.97,5.62c-0.87,0.83-1.84,1.32-2.9,1.46c-1.06,0.15-2.15,0.22-3.28,0.22
				c-0.76,0-1.38,0.23-1.88,0.69s-0.86,1.4-1.09,2.81c-0.23,1.41-0.34,3.56-0.34,6.43c0,2.37-0.03,4.72-0.1,7.07
				c-0.05,1.17-0.08,2.36-0.1,3.55c0,1.79-0.24,3.53-0.72,5.21c-0.48,1.68-1.38,3.13-2.69,4.34c-1.38,1.15-2.96,1.76-4.76,1.84
				c-1.79,0.08-3.42-0.41-4.9-1.46c-1.17-0.94-2.07-2.09-2.69-3.43s-1.02-2.75-1.21-4.22c-0.21-2.32-0.17-4.67,0.1-7.03
				c0.05-0.57,0.08-1.15,0.1-1.72c0.23-3.49,0.21-6.99-0.07-10.48c-0.12-1.19-0.53-2.09-1.26-2.69c-0.72-0.6-1.66-0.99-2.81-1.17
				c-1.98-0.32-3.64-1.03-5-2.14c-1.36-1.1-2.1-2.69-2.24-4.76c-0.02-2.11,0.64-3.9,2-5.34c1.36-1.45,3.1-2.34,5.24-2.69
				c3.22-0.41,6.49-0.56,9.83-0.45c0.99,0.02,1.95,0.04,2.9,0.04c4.48-0.12,8.93,0.22,13.34,1C264.8,3.54,266.12,4.16,267.15,5.08z"
				/>
			<path class="st2" d="M249.47,50.9c-1.88,0-3.62-0.57-5.17-1.68c-1.35-1.08-2.36-2.37-3.05-3.87c-0.67-1.44-1.1-2.97-1.3-4.55
				c-0.22-2.42-0.18-4.86,0.1-7.3c0.04-0.52,0.07-1.08,0.1-1.64c0.23-3.46,0.2-6.93-0.07-10.35c-0.08-0.88-0.37-1.51-0.86-1.92
				c-0.57-0.47-1.33-0.78-2.28-0.93c-2.16-0.35-4.02-1.15-5.53-2.37c-1.6-1.3-2.49-3.17-2.65-5.55c-0.03-2.46,0.75-4.52,2.3-6.18
				c1.52-1.62,3.5-2.64,5.88-3.03c3.3-0.42,6.67-0.58,10.04-0.46c0.97,0.02,1.92,0.04,2.86,0.04c4.5-0.12,9.07,0.22,13.54,1.02
				c1.82,0.37,3.33,1.08,4.51,2.13l0.02,0.02c1.75,1.62,2.72,3.7,2.87,6.2c0.16,2.51-0.61,4.69-2.27,6.45
				c-1.09,1.03-2.27,1.62-3.55,1.8c-1.1,0.16-2.25,0.24-3.43,0.24c-0.48,0-0.83,0.12-1.12,0.39c-0.11,0.1-0.48,0.56-0.75,2.17
				c-0.22,1.35-0.33,3.45-0.33,6.25c0,2.38-0.03,4.77-0.1,7.1c-0.05,1.18-0.08,2.35-0.1,3.54c0,1.87-0.26,3.72-0.77,5.49
				c-0.54,1.87-1.55,3.5-3,4.85c-1.61,1.34-3.43,2.05-5.46,2.14C249.75,50.89,249.61,50.9,249.47,50.9z M244.81,3.26
				c-2.55,0-5.08,0.16-7.54,0.48c-1.87,0.3-3.38,1.07-4.57,2.35c-1.16,1.24-1.72,2.74-1.7,4.57c0.12,1.7,0.71,3,1.83,3.91
				c1.2,0.97,2.7,1.61,4.47,1.9c1.34,0.22,2.46,0.69,3.34,1.41c0.96,0.79,1.51,1.95,1.66,3.44c0.28,3.55,0.3,7.13,0.07,10.66
				c-0.02,0.56-0.06,1.15-0.1,1.74c-0.27,2.32-0.3,4.61-0.1,6.84c0.16,1.31,0.54,2.62,1.11,3.86c0.54,1.18,1.34,2.2,2.38,3.03
				c1.23,0.88,2.6,1.28,4.15,1.22c1.56-0.07,2.9-0.59,4.09-1.59c1.12-1.05,1.9-2.3,2.33-3.8c0.45-1.57,0.68-3.22,0.68-4.9
				c0.02-1.22,0.06-2.41,0.1-3.59c0.07-2.3,0.1-4.67,0.1-7.02c0-2.96,0.12-5.12,0.36-6.61c0.28-1.7,0.73-2.8,1.43-3.45
				c0.7-0.66,1.59-0.99,2.64-0.99c1.07,0,2.12-0.07,3.12-0.21c0.83-0.12,1.58-0.5,2.29-1.17c1.19-1.27,1.74-2.84,1.62-4.74
				c-0.12-1.92-0.82-3.46-2.15-4.69c-0.88-0.78-2.04-1.31-3.44-1.6c-4.29-0.76-8.7-1.09-13.1-0.98c-0.97,0.01-1.95-0.01-2.95-0.04
				C246.22,3.27,245.51,3.26,244.81,3.26z"/>
		</g>
		<g>
			<path id="XMLID_00000018938644629485209700000011830623455873701531_" class="st1" d="M289.87,24.38c0.02,4.07-0.01,8.1-0.1,12.1
				c-0.02,0.76-0.05,1.52-0.07,2.28c0,1.86-0.24,3.67-0.72,5.41c-0.48,1.75-1.38,3.24-2.69,4.48c-1.24,1.1-2.6,1.68-4.08,1.72
				s-2.9-0.39-4.26-1.31c-1.93-1.33-3.19-2.92-3.78-4.77s-0.99-4.25-1.22-7.19c-0.02-0.16-0.05-0.32-0.07-0.48
				c-0.6-5.58-0.9-11.19-0.9-16.82c0-0.67-0.01-1.3-0.03-1.9c-0.09-3.56,0.06-6.43,0.45-8.62c0.39-2.18,1.5-4.16,3.34-5.93
				c2-1.7,4.24-2.24,6.72-1.62c2.18,0.55,3.76,1.64,4.72,3.26s1.61,3.91,1.93,6.88C289.57,15.96,289.83,20.13,289.87,24.38z"/>
			<path class="st2" d="M281.99,51.5c-1.63,0-3.2-0.51-4.67-1.51c-2.14-1.47-3.55-3.28-4.21-5.36c-0.61-1.92-1.04-4.43-1.27-7.44
				l-0.06-0.42c-0.6-5.63-0.91-11.33-0.91-16.98c0-0.65-0.01-1.27-0.03-1.85c-0.09-3.64,0.06-6.61,0.46-8.86
				c0.43-2.41,1.67-4.61,3.67-6.54c2.33-1.99,4.93-2.61,7.76-1.9c2.47,0.62,4.29,1.89,5.41,3.77c1.06,1.78,1.74,4.17,2.08,7.33
				c0.46,4.11,0.72,8.36,0.76,12.62l0,0c0.02,4.03-0.01,8.11-0.1,12.13l-0.07,2.28c0,1.92-0.26,3.84-0.76,5.68
				c-0.54,1.94-1.54,3.62-3,4.99c-1.46,1.3-3.08,1.97-4.82,2.03C282.15,51.49,282.07,51.5,281.99,51.5z M280.52,2.6
				c-1.46,0-2.8,0.53-4.07,1.6c-1.61,1.55-2.62,3.34-2.97,5.28c-0.38,2.09-0.52,4.92-0.43,8.39c0.02,0.6,0.03,1.24,0.03,1.92
				c0,5.57,0.3,11.19,0.89,16.71l0.06,0.44c0.23,2.92,0.63,5.25,1.18,7.01c0.51,1.6,1.63,3.01,3.35,4.19
				c1.16,0.79,2.33,1.16,3.59,1.11c1.22-0.04,2.33-0.51,3.38-1.44c1.14-1.08,1.92-2.38,2.36-3.95c0.45-1.64,0.68-3.36,0.68-5.12
				l0.07-2.31c0.09-3.99,0.12-8.05,0.1-12.06c-0.05-4.19-0.3-8.36-0.75-12.4c-0.3-2.79-0.9-4.96-1.78-6.43
				c-0.82-1.37-2.14-2.27-4.04-2.75C281.61,2.67,281.06,2.6,280.52,2.6z"/>
		</g>
		<g>
			<path id="XMLID_00000013902504849965275680000007523989131644008878_" class="st1" d="M336.48,17.59
				c1.47,4.73,1.62,9.54,0.45,14.41c-1.17,4.87-3.45,8.93-6.83,12.17c-2.02,1.84-4.25,3.24-6.69,4.21
				c-5.86,2.23-11.63,1.94-17.31-0.86c-5.58-3.01-9.56-7.73-11.93-14.17c-1.24-3.52-1.74-7.16-1.48-10.93
				c0.3-3.54,1.28-6.82,2.95-9.84c1.67-3.02,3.83-5.46,6.5-7.33c3.06-2,6.46-3.07,10.21-3.22s7.29,0.36,10.62,1.53
				c3.15,1.1,5.9,2.86,8.26,5.28C333.58,11.25,335.33,14.17,336.48,17.59z M319.66,28.42c0.71-1.2,0.95-2.48,0.72-3.84
				s-0.85-2.51-1.86-3.43c-1.43-1.22-3.06-1.64-4.9-1.28c-1.49,0.41-2.67,1.28-3.52,2.58c-0.83,1.36-1.07,2.78-0.74,4.26
				s1.18,2.65,2.53,3.5c1.13,0.64,2.38,0.89,3.78,0.74c1.39-0.15,2.52-0.74,3.4-1.78c0.02-0.02,0.05-0.05,0.07-0.07
				c0-0.02,0.01-0.05,0.04-0.07C319.36,28.85,319.52,28.65,319.66,28.42z"/>
			<path class="st2" d="M315.68,50.97c-3.39,0-6.76-0.82-10.07-2.45c-5.84-3.15-10.03-8.12-12.48-14.78
				c-1.29-3.66-1.81-7.48-1.55-11.39c0.31-3.7,1.35-7.16,3.08-10.31c1.74-3.16,4.04-5.75,6.84-7.7c3.24-2.12,6.86-3.27,10.8-3.42
				c3.87-0.15,7.58,0.38,11.03,1.6c3.3,1.16,6.22,3.02,8.68,5.55c2.46,2.52,4.32,5.61,5.52,9.18l0.01,0.02
				c1.52,4.91,1.68,9.95,0.47,15c-1.22,5.06-3.62,9.34-7.14,12.71c-2.13,1.94-4.5,3.43-7.05,4.44
				C321.1,50.45,318.38,50.97,315.68,50.97z M313.59,3.11c-0.4,0-0.79,0.01-1.2,0.02c-3.53,0.14-6.77,1.17-9.64,3.04
				c-2.48,1.74-4.56,4.08-6.13,6.93c-1.58,2.87-2.53,6.03-2.81,9.4c-0.24,3.58,0.24,7.11,1.42,10.46
				c2.25,6.13,6.09,10.7,11.41,13.56c5.33,2.63,10.85,2.9,16.38,0.8c2.29-0.91,4.42-2.25,6.34-3.99c3.18-3.05,5.38-6.97,6.49-11.61
				c1.12-4.65,0.97-9.29-0.42-13.81c-1.09-3.24-2.77-6.04-5-8.32c-2.22-2.28-4.86-3.96-7.83-5C319.77,3.62,316.75,3.11,313.59,3.11z
				 M314.91,32.11c-1.28,0-2.48-0.31-3.56-0.93c-1.65-1.03-2.67-2.45-3.07-4.22c-0.4-1.77-0.1-3.48,0.88-5.08
				c1.02-1.57,2.42-2.59,4.17-3.08c2.26-0.46,4.23,0.06,5.92,1.5c1.22,1.11,1.97,2.48,2.24,4.09c0.27,1.63-0.02,3.18-0.87,4.6l0,0
				c-0.11,0.18-0.23,0.35-0.36,0.51v0.05l-0.31,0.32c-1.08,1.27-2.47,2-4.15,2.18C315.5,32.09,315.2,32.11,314.91,32.11z
				 M314.87,20.85c-0.33,0-0.67,0.04-1.03,0.11c-1.15,0.32-2.1,1.02-2.8,2.1c-0.66,1.08-0.86,2.21-0.59,3.41
				c0.27,1.19,0.93,2.11,2.04,2.8c0.89,0.51,1.9,0.7,3.06,0.58c1.1-0.12,1.97-0.57,2.66-1.38c0.05-0.08,0.11-0.15,0.17-0.21
				c0.12-0.12,0.22-0.25,0.31-0.4c0.58-0.97,0.77-1.98,0.58-3.09c-0.19-1.12-0.68-2.04-1.51-2.79
				C316.9,21.23,315.94,20.85,314.87,20.85z"/>
		</g>
		<g>
			<path id="XMLID_00000176043004395222406800000005296052951078805664_" class="st1" d="M344.79,8.9c0.76-1.72,1.83-3.09,3.22-4.1
				s3.19-1.39,5.4-1.14c2.16,0.34,4.03,1.23,5.62,2.66s2.94,3.08,4.05,4.98c1.12,1.9,2.03,3.75,2.74,5.57
				c0.02,0.02,0.03,0.05,0.03,0.07c0.16,0.48,0.4,0.93,0.72,1.34c0.21,0.18,0.44,0.32,0.69,0.41c0.25,0.09,0.5,0.09,0.76,0
				c0.46-0.18,0.71-0.53,0.76-1.05c0.05-0.52,0-1.03-0.14-1.53c-0.55-1.98-0.73-4.18-0.53-6.62c0.19-2.44,0.95-4.45,2.28-6.05
				c1.32-1.6,3.43-2.16,6.33-1.67c2.07,0.53,3.58,1.73,4.53,3.6c0.95,1.87,1.57,3.99,1.84,6.36c0.28,2.37,0.42,4.54,0.45,6.52
				c0.02,0.6,0.03,1.14,0.03,1.62c0.41,7.98-0.52,15.78-2.79,23.41c-0.39,1.63-1.12,3.07-2.17,4.31c-0.9,0.85-1.81,1.43-2.74,1.74
				s-1.87,0.44-2.81,0.4c-2.71-0.12-4.94-0.88-6.69-2.29c-1.75-1.41-3.14-3.07-4.17-4.98c-1.03-1.91-1.84-3.65-2.41-5.24
				c-0.55-1.4-1.02-2.34-1.41-2.83c0.39,2.46,0.49,4.92,0.31,7.38c-0.23,2.57-1.23,4.8-3,6.69c-1.59,1.45-3.27,2.11-5.05,2
				c-1.78-0.12-3.39-0.78-4.83-1.98c-1.44-1.21-2.43-2.74-2.98-4.6c-1.15-4.37-1.72-8.8-1.72-13.31c0-4.5,0.45-8.96,1.34-13.38
				c0.16-0.92,0.36-1.88,0.59-2.9C343.45,12.42,344.03,10.63,344.79,8.9z"/>
			<path class="st2" d="M351.03,51.57c-0.15,0-0.31,0-0.46-0.01c-2.02-0.13-3.86-0.88-5.47-2.24c-1.6-1.34-2.72-3.07-3.33-5.14
				c-1.18-4.47-1.77-9.04-1.77-13.62c0-4.56,0.46-9.13,1.37-13.6c0.16-0.91,0.36-1.9,0.59-2.92c0.43-1.92,1.04-3.8,1.82-5.58
				c0.84-1.9,2.04-3.43,3.59-4.55c1.62-1.18,3.7-1.63,6.18-1.34c2.41,0.38,4.5,1.37,6.24,2.93c1.67,1.5,3.1,3.26,4.27,5.25
				c1.1,1.86,2.02,3.72,2.74,5.52l0.16,0.17l0.02,0.28c0.11,0.29,0.25,0.55,0.44,0.81c0.08,0.06,0.16,0.11,0.25,0.14l0,0
				c0.01,0,0.03-0.03,0.03-0.1c0.03-0.39,0-0.76-0.1-1.14c-0.58-2.09-0.78-4.45-0.57-7c0.21-2.66,1.06-4.9,2.53-6.67
				c1.59-1.92,4.06-2.61,7.37-2.06c2.47,0.63,4.24,2.03,5.34,4.2c1.01,1.98,1.67,4.25,1.96,6.74c0.28,2.4,0.43,4.63,0.46,6.63
				c0.02,0.59,0.03,1.14,0.03,1.63c0.42,8.01-0.54,16.01-2.84,23.73c-0.42,1.74-1.23,3.34-2.39,4.71l-0.08,0.08
				c-1.01,0.96-2.07,1.63-3.15,1.99c-1.06,0.35-2.14,0.5-3.22,0.45c-2.94-0.12-5.41-0.98-7.33-2.54c-1.85-1.5-3.35-3.29-4.45-5.32
				c-0.5-0.92-0.95-1.81-1.35-2.67c-0.01,0.51-0.04,1.02-0.08,1.53c-0.25,2.83-1.36,5.31-3.3,7.37
				C354.77,50.8,352.94,51.57,351.03,51.57z M352.12,4.7c-1.38,0-2.52,0.33-3.45,1.01c-1.22,0.89-2.18,2.12-2.86,3.65
				c-0.73,1.65-1.29,3.39-1.69,5.17c-0.23,0.99-0.42,1.95-0.58,2.85c-0.88,4.35-1.33,8.78-1.33,13.18c0,4.39,0.57,8.77,1.69,13.02
				c0.48,1.63,1.34,2.96,2.62,4.03c1.26,1.06,2.63,1.62,4.18,1.72c1.48,0.1,2.86-0.46,4.23-1.71c1.55-1.65,2.43-3.62,2.64-5.96
				c0.17-2.34,0.07-4.74-0.3-7.11l-0.65-4.12l2.62,3.25c0.47,0.58,0.98,1.6,1.58,3.12c0.56,1.55,1.35,3.27,2.36,5.12
				c0.96,1.77,2.27,3.33,3.89,4.65c1.55,1.25,3.58,1.94,6.04,2.04c0.81,0.04,1.62-0.08,2.41-0.34c0.76-0.25,1.53-0.74,2.28-1.45
				c0.92-1.09,1.56-2.37,1.9-3.8c2.24-7.53,3.17-15.28,2.76-23.09c0-0.53-0.01-1.05-0.04-1.64c-0.02-1.96-0.17-4.11-0.44-6.43
				c-0.26-2.22-0.84-4.24-1.73-5.98c-0.81-1.59-2.06-2.58-3.82-3.03c-2.41-0.4-4.13,0.02-5.19,1.3c-1.17,1.41-1.85,3.24-2.02,5.43
				c-0.18,2.29-0.02,4.39,0.5,6.23c0.17,0.64,0.23,1.29,0.17,1.93c-0.08,0.94-0.6,1.65-1.46,1.99c-0.53,0.19-1.06,0.2-1.56,0.01
				c-0.38-0.13-0.73-0.35-1.05-0.63l-0.14-0.15c-0.36-0.46-0.63-0.95-0.83-1.48l-0.08-0.21c-0.69-1.75-1.58-3.58-2.66-5.41
				c-1.05-1.79-2.34-3.38-3.83-4.72c-1.42-1.27-3.12-2.08-5.05-2.38C352.85,4.72,352.48,4.7,352.12,4.7z"/>
		</g>
	</g>
</g>
</svg>
