<?xml version="1.0" encoding="utf-8"?>
<!-- Generator: Adobe Illustrator 25.4.1, SVG Export Plug-In . SVG Version: 6.00 Build 0)  -->
<svg version="1.1" id="圖層_1" xmlns="http://www.w3.org/2000/svg" xmlns:xlink="http://www.w3.org/1999/xlink" x="0px" y="0px"
	 viewBox="0 0 30.16 30.16" style="enable-background:new 0 0 30.16 30.16;" xml:space="preserve">
<style type="text/css">
	.st0{fill:#231815;}
	.st1{fill:#FFFFFF;}
</style>
<g id="XMLID_281_">
	<g id="XMLID_284_">
		<g id="XMLID_292_">
			<circle id="XMLID_362_" class="st0" cx="15.08" cy="15.08" r="15.08"/>
			<path id="XMLID_341_" class="st1" d="M23.41,9.91c-0.52,0.24-1.1,0.38-1.66,0.47c0.27-0.04,0.66-0.53,0.82-0.72
				c0.24-0.3,0.44-0.64,0.55-1.01c0.01-0.03,0.02-0.06,0-0.09c-0.04-0.01-0.06-0.01-0.09,0.01c-0.63,0.34-1.28,0.58-1.97,0.75
				c-0.06,0.01-0.1,0-0.14-0.04c-0.06-0.06-0.11-0.13-0.17-0.18c-0.29-0.25-0.6-0.44-0.96-0.59c-0.46-0.19-0.97-0.27-1.46-0.24
				c-0.48,0.03-0.96,0.17-1.39,0.39c-0.43,0.23-0.82,0.54-1.12,0.92c-0.32,0.39-0.55,0.85-0.67,1.34c-0.12,0.47-0.11,0.94-0.04,1.42
				c0.01,0.08,0,0.09-0.07,0.08c-2.71-0.4-4.95-1.37-6.78-3.45C8.18,8.9,8.14,8.9,8.08,9c-0.8,1.2-0.41,3.12,0.59,4.06
				c0.13,0.13,0.27,0.25,0.42,0.37c-0.05,0.01-0.72-0.06-1.31-0.37c-0.08-0.05-0.12-0.02-0.13,0.07c-0.01,0.13,0,0.25,0.02,0.39
				c0.15,1.21,0.99,2.33,2.14,2.77c0.14,0.06,0.29,0.11,0.43,0.13c-0.26,0.06-0.53,0.1-1.28,0.04c-0.09-0.02-0.13,0.03-0.09,0.12
				c0.56,1.54,1.78,2,2.69,2.26c0.12,0.02,0.24,0.02,0.37,0.05c-0.01,0.01-0.01,0.01-0.02,0.02c-0.3,0.46-1.35,0.8-1.84,0.98
				c-0.89,0.31-1.86,0.45-2.79,0.36c-0.15-0.02-0.18-0.02-0.22,0c-0.04,0.03-0.01,0.06,0.04,0.1c0.19,0.13,0.38,0.24,0.58,0.35
				c0.6,0.32,1.22,0.57,1.87,0.75c3.36,0.93,7.14,0.25,9.66-2.26c1.98-1.97,2.67-4.68,2.67-7.39c0-0.11,0.13-0.17,0.2-0.22
				c0.52-0.39,0.93-0.85,1.31-1.37c0.09-0.12,0.09-0.22,0.09-0.26c0-0.01,0-0.01,0-0.01C23.48,9.87,23.48,9.88,23.41,9.91z"/>
		</g>
	</g>
</g>
</svg>
