<?xml version="1.0" encoding="utf-8"?>
<!-- Generator: Adobe Illustrator 25.4.1, SVG Export Plug-In . SVG Version: 6.00 Build 0)  -->
<svg version="1.1" id="圖層_1" xmlns="http://www.w3.org/2000/svg" xmlns:xlink="http://www.w3.org/1999/xlink" x="0px" y="0px"
	 viewBox="0 0 474.63 68.1" style="enable-background:new 0 0 474.63 68.1;" xml:space="preserve">
<style type="text/css">
	.st0{fill:#231815;}
	.st1{fill:#FFFFFF;}
	.st2{fill:#036EB7;}
</style>
<g id="XMLID_623_">
	<g id="XMLID_19_">
		<g>
			<g id="XMLID_00000170961848176397377780000015255104754627579549_">
				<path id="XMLID_00000034782000342403909260000010280759423411657891_" class="st0" d="M58.27,13.61
					c1.85,1.71,2.86,3.9,3.03,6.56s-0.62,4.91-2.37,6.77c-1.05,1-2.21,1.58-3.49,1.76s-2.59,0.27-3.94,0.27
					c-0.91,0-1.67,0.28-2.26,0.83c-0.6,0.55-1.03,1.68-1.31,3.38c-0.28,1.7-0.42,4.28-0.42,7.74c0,2.85-0.04,5.69-0.12,8.51
					c-0.06,1.41-0.1,2.84-0.12,4.27c0,2.16-0.29,4.25-0.87,6.27c-0.58,2.02-1.66,3.76-3.24,5.23c-1.66,1.38-3.57,2.12-5.73,2.22
					c-2.16,0.1-4.12-0.49-5.89-1.76c-1.41-1.13-2.49-2.51-3.24-4.13c-0.75-1.62-1.23-3.31-1.45-5.08c-0.25-2.79-0.21-5.62,0.12-8.47
					c0.05-0.69,0.1-1.38,0.12-2.08c0.28-4.21,0.25-8.41-0.08-12.62c-0.14-1.44-0.64-2.52-1.51-3.24c-0.87-0.72-2-1.19-3.38-1.41
					c-2.38-0.39-4.39-1.24-6.02-2.57s-2.53-3.24-2.7-5.73c-0.03-2.54,0.77-4.69,2.41-6.43c1.63-1.74,3.74-2.82,6.31-3.24
					c3.87-0.5,7.82-0.68,11.83-0.54c1.19,0.03,2.35,0.04,3.49,0.04c5.39-0.14,10.75,0.26,16.06,1.2
					C55.43,11.76,57.02,12.5,58.27,13.61z"/>
				<path id="XMLID_00000050635943163235117860000008951425803138451388_" class="st0" d="M103.22,54.29
					c0.17,2.63-0.07,5.02-0.71,7.18c-0.55,1.74-1.48,3.06-2.78,3.96c-1.3,0.9-2.84,1.52-4.61,1.85c-5.59,1.11-10.92,0.9-16-0.62
					c-5.08-1.52-9.44-4.54-13.09-9.05c-4.01-5.34-6.06-11.39-6.14-18.14c-0.08-6.75,1.63-12.94,5.15-18.55
					c3.35-4.93,7.92-8.32,13.72-10.19s11.53-1.79,17.2,0.23c1.35,0.5,2.42,1.33,3.2,2.49c0.47,0.8,0.74,1.67,0.81,2.62
					c0.07,0.94,0.05,1.89-0.06,2.86c-0.08,1.66-0.53,3.2-1.33,4.61c-1.27,1.74-3,2.57-5.19,2.49c-0.97-0.03-1.92-0.11-2.86-0.25
					c-0.08,0-0.18-0.01-0.29-0.04c-0.33-0.03-0.68-0.08-1.04-0.17c-0.89-0.22-1.72-0.28-2.49-0.17c-0.36,0.05-0.67,0.2-0.93,0.44
					c-0.26,0.23-0.42,0.52-0.48,0.85c-0.03,0.41,0.09,0.77,0.35,1.06c0.26,0.29,0.57,0.52,0.93,0.69c1.19,0.44,2.43,0.61,3.74,0.5
					c0.88-0.05,1.76-0.01,2.61,0.12c2.35,0.58,3.93,2.01,4.73,4.29c0.8,2.28,0.68,4.48-0.37,6.58c-0.97,1.61-2.37,2.62-4.19,3.03
					c-0.97,0.17-1.96,0.21-2.99,0.12c-1.22-0.11-2.41,0-3.57,0.33c-0.42,0.14-0.8,0.35-1.14,0.64c-0.35,0.29-0.55,0.64-0.6,1.06
					c-0.03,0.39,0.06,0.75,0.27,1.08c0.21,0.33,0.48,0.58,0.81,0.75c0.69,0.3,1.42,0.4,2.2,0.29c1.13-0.14,2.23-0.4,3.28-0.79
					c1.22-0.44,2.46-0.72,3.74-0.83c2.21-0.06,4.09,0.71,5.64,2.28C102.22,49.61,103.05,51.74,103.22,54.29z"/>
				<path id="XMLID_00000164487136226158236210000001547510793142917527_" class="st0" d="M124.43,58.27
					c-0.17,0.66-0.33,1.31-0.5,1.95c-0.3,1.11-0.68,2.18-1.12,3.21c-0.44,1.04-1.09,1.92-1.95,2.64c-1,0.77-2.03,1.22-3.09,1.35
					c-1.07,0.12-2.24,0.13-3.51,0.02c-1.49-0.06-2.95-0.26-4.38-0.6c-1.43-0.35-2.61-1.06-3.55-2.14c-0.97-1.3-1.43-2.78-1.37-4.42
					c0.06-1.64,0.3-3.26,0.75-4.83c0.77-3.24,1.56-6.47,2.37-9.71c0.77-3.21,1.55-6.43,2.32-9.67c0.25-1.02,0.5-2.06,0.75-3.11
					c0.53-2.46,1.14-4.89,1.85-7.28c0.71-2.39,1.67-4.67,2.88-6.83c1.71-2.96,4.04-5.2,6.97-6.72c2.3-1.19,4.81-1.63,7.55-1.33
					c3.98,0.66,7.28,2.54,9.88,5.64c1.36,1.61,2.47,3.38,3.34,5.31c0.87,1.94,1.67,3.92,2.39,5.94c0.42,1.08,0.83,2.14,1.25,3.2
					c0.72,1.83,1.45,3.65,2.2,5.48l4.4,10.96c0.58,1.41,1.11,2.84,1.6,4.29c0.48,1.45,0.78,2.93,0.89,4.42
					c0.17,1.96-0.12,3.81-0.87,5.54c-0.75,1.73-2.03,3.04-3.86,3.92c-1.6,0.66-3.28,1.11-5.02,1.33c-1.61,0.33-3.28,0.48-5.02,0.44
					c-1.74-0.04-3.24-0.68-4.48-1.93c-0.72-0.97-1.2-2.06-1.45-3.28c-0.08-0.39-0.18-0.76-0.29-1.12c-0.25-0.83-0.5-1.69-0.75-2.57
					h-0.62C130.79,58.44,127.61,58.41,124.43,58.27z M132.31,48.93c-0.3-1.33-0.6-2.7-0.87-4.11l-0.5-2.49
					c-0.08-0.36-0.22-0.71-0.42-1.06s-0.47-0.55-0.83-0.6c-0.39,0-0.71,0.17-0.95,0.52c-0.25,0.35-0.42,0.73-0.5,1.14
					c-0.61,2.3-1.18,4.59-1.7,6.89C128.45,49.08,130.37,48.99,132.31,48.93z"/>
				<path id="XMLID_00000106848602808215679650000013075845673583244935_" class="st0" d="M189.92,65.91
					c-1.94-0.17-3.57-0.96-4.9-2.39s-2.19-3.02-2.57-4.79l-0.08-0.42c-0.08-0.55-0.26-1.08-0.54-1.58
					c-0.36-0.53-0.81-0.77-1.35-0.73c-0.54,0.04-1.03,0.27-1.47,0.68c-0.39,0.5-0.69,1.04-0.91,1.62c-0.31,0.72-0.57,1.43-0.79,2.12
					c-0.42,1.3-0.95,2.5-1.6,3.61c-0.65,1.11-1.67,1.99-3.05,2.66c-1.74,0.83-3.67,1.29-5.77,1.39c-2.1,0.1-3.93-0.46-5.48-1.68
					c-1.13-1.08-1.87-2.37-2.22-3.88c-0.35-1.51-0.45-2.99-0.31-4.46c0.3-3.21,0.85-6.41,1.64-9.61c0.79-3.2,1.65-6.33,2.59-9.4
					c0.53-1.71,1.04-3.46,1.54-5.23c0.97-3.46,2.02-6.92,3.15-10.38c0.55-1.85,1.3-3.76,2.24-5.73s2.24-3.51,3.9-4.65
					c2.24-1.38,4.61-1.67,7.1-0.87c2.46,0.97,4.12,2.67,4.98,5.11c0.08,0.3,0.23,0.6,0.46,0.89s0.48,0.39,0.79,0.31
					c0.11-0.03,0.2-0.09,0.27-0.19c0.07-0.1,0.15-0.2,0.23-0.31c0.33-0.53,0.66-1.12,1-1.78c0.8-1.69,1.77-3.07,2.91-4.15
					c0.75-0.55,1.66-0.96,2.74-1.21c1.08-0.25,2.08-0.33,2.99-0.25c2.41,0.25,4.5,1.2,6.27,2.86c1,0.91,1.72,1.89,2.18,2.93
					c0.46,1.04,0.85,2.18,1.18,3.42c1.52,5.62,3.13,11.41,4.81,17.39c1.71,5.92,3.33,11.69,4.86,17.31
					c0.53,1.74,0.84,3.61,0.96,5.58c0.11,1.98-0.46,3.7-1.7,5.17c-1.16,1.11-2.56,1.74-4.19,1.91c-2.88,0.36-5.44-0.33-7.68-2.08
					c-1.02-0.86-1.77-1.92-2.24-3.2c-0.08-0.3-0.18-0.61-0.29-0.91c-0.11-0.41-0.26-0.84-0.46-1.29c-0.11-0.28-0.22-0.53-0.33-0.75
					c-0.25-0.61-0.51-1.2-0.79-1.79c-0.11-0.3-0.26-0.58-0.44-0.83c-0.18-0.25-0.42-0.41-0.73-0.5c-0.25-0.03-0.48,0.02-0.68,0.15
					c-0.21,0.12-0.38,0.28-0.52,0.48c-0.22,0.36-0.37,0.75-0.46,1.16v0.12c-0.58,2.16-1.52,4.16-2.82,6.02
					c-0.61,0.8-1.37,1.41-2.28,1.83C191.37,65.87,190.67,65.96,189.92,65.91z"/>
				<path id="XMLID_00000091722331672993762740000000376862606381296538_" class="st0" d="M283.1,51.3
					c0.97,1.36,1.69,2.81,2.16,4.38c0.47,1.56,0.61,3.16,0.42,4.79c-0.25,1.66-0.9,3.13-1.95,4.42s-2.38,2.14-3.98,2.55
					c-2.71,0.44-5.15-0.25-7.3-2.07c-1.85-1.66-3.31-3.62-4.38-5.89c-1.07-2.27-1.97-4.56-2.72-6.89c-0.33-1-0.73-1.99-1.2-2.99
					s-1.09-1.85-1.87-2.57c-0.64-0.53-1.43-0.86-2.39-1c-0.95-0.14-1.75,0.11-2.39,0.75c-0.3,0.36-0.48,0.78-0.52,1.27
					c-0.04,0.48-0.01,0.96,0.1,1.43c0.22,1.3,0.34,2.6,0.37,3.9c0.05,0.64,0.12,1.26,0.21,1.87c0.17,0.91,0.22,1.84,0.17,2.78
					c-0.14,1.99-0.73,3.91-1.78,5.75c-1.05,1.84-2.64,2.95-4.77,3.34c-2.49,0.25-4.77-0.26-6.85-1.54
					c-2.08-1.27-3.61-3.04-4.61-5.31c-0.58-1.33-0.98-2.67-1.18-4.03c-0.21-1.36-0.35-2.73-0.44-4.11
					c-0.06-0.91-0.14-1.83-0.25-2.74c-0.08-0.83-0.18-1.64-0.29-2.45c-0.36-2.68-0.6-5.4-0.71-8.13c-0.19-4.07,0.1-8.04,0.87-11.93
					c0.77-3.89,2.6-7.37,5.48-10.44c2.46-2.44,5.24-4.14,8.34-5.11c3.1-0.97,6.32-1.55,9.67-1.74c4.65-0.39,8.96,0.25,12.95,1.91
					s6.93,4.8,8.84,9.42c0.97,2.57,1.29,4.99,0.95,7.26c-0.33,2.27-1.18,4.59-2.53,6.97c-0.8,1.44-1.81,2.72-3.03,3.86
					c-0.33,0.28-0.68,0.54-1.04,0.79c-0.44,0.3-0.85,0.64-1.22,1c-0.37,0.36-0.64,0.8-0.81,1.33c-0.22,0.8-0.08,1.49,0.44,2.07
					c0.51,0.58,1.11,1.09,1.81,1.54c0.3,0.25,0.59,0.48,0.87,0.71C280.27,47.85,281.79,49.47,283.1,51.3z M257.4,27.27
					c-0.39,1.05-0.51,2.17-0.37,3.36c0.03,0.28,0.07,0.55,0.12,0.83c0.06,0.28,0.17,0.51,0.33,0.71c0.22,0.22,0.48,0.37,0.77,0.44
					c0.29,0.07,0.59,0.09,0.89,0.06c0.66,0.03,1.31-0.07,1.95-0.29c1.16-0.53,1.86-1.35,2.1-2.47c0.24-1.12-0.08-2.14-0.93-3.05
					c-0.78-0.78-1.65-1.16-2.62-1.16S257.93,26.22,257.4,27.27z"/>
				<path id="XMLID_00000160186896471439478810000005667623420095584170_" class="st0" d="M328.75,54.29
					c0.17,2.63-0.07,5.02-0.71,7.18c-0.55,1.74-1.48,3.06-2.78,3.96c-1.3,0.9-2.84,1.52-4.61,1.85c-5.59,1.11-10.92,0.9-16-0.62
					c-5.08-1.52-9.44-4.54-13.09-9.05c-4.01-5.34-6.06-11.39-6.14-18.14c-0.08-6.75,1.63-12.94,5.15-18.55
					c3.35-4.93,7.92-8.32,13.72-10.19s11.53-1.79,17.2,0.23c1.35,0.5,2.42,1.33,3.2,2.49c0.47,0.8,0.74,1.67,0.81,2.62
					c0.07,0.94,0.05,1.89-0.06,2.86c-0.08,1.66-0.53,3.2-1.33,4.61c-1.27,1.74-3,2.57-5.19,2.49c-0.97-0.03-1.92-0.11-2.86-0.25
					c-0.08,0-0.18-0.01-0.29-0.04c-0.33-0.03-0.68-0.08-1.04-0.17c-0.89-0.22-1.72-0.28-2.49-0.17c-0.36,0.05-0.67,0.2-0.93,0.44
					c-0.26,0.23-0.42,0.52-0.48,0.85c-0.03,0.41,0.09,0.77,0.35,1.06c0.26,0.29,0.57,0.52,0.93,0.69c1.19,0.44,2.43,0.61,3.74,0.5
					c0.88-0.05,1.76-0.01,2.61,0.12c2.35,0.58,3.93,2.01,4.73,4.29c0.8,2.28,0.68,4.48-0.37,6.58c-0.97,1.61-2.37,2.62-4.19,3.03
					c-0.97,0.17-1.96,0.21-2.99,0.12c-1.22-0.11-2.41,0-3.57,0.33c-0.42,0.14-0.8,0.35-1.14,0.64c-0.35,0.29-0.55,0.64-0.6,1.06
					c-0.03,0.39,0.06,0.75,0.27,1.08c0.21,0.33,0.48,0.58,0.81,0.75c0.69,0.3,1.42,0.4,2.2,0.29c1.13-0.14,2.23-0.4,3.28-0.79
					c1.22-0.44,2.46-0.72,3.74-0.83c2.21-0.06,4.09,0.71,5.64,2.28C327.75,49.61,328.58,51.74,328.75,54.29z"/>
				<path id="XMLID_00000005260323617090869460000014200271801980607621_" class="st0" d="M376.56,51.3
					c0.97,1.36,1.69,2.81,2.16,4.38c0.47,1.56,0.61,3.16,0.42,4.79c-0.25,1.66-0.9,3.13-1.95,4.42s-2.38,2.14-3.98,2.55
					c-2.71,0.44-5.15-0.25-7.3-2.07c-1.85-1.66-3.31-3.62-4.38-5.89c-1.07-2.27-1.97-4.56-2.72-6.89c-0.33-1-0.73-1.99-1.2-2.99
					s-1.09-1.85-1.87-2.57c-0.64-0.53-1.43-0.86-2.39-1c-0.95-0.14-1.75,0.11-2.39,0.75c-0.3,0.36-0.48,0.78-0.52,1.27
					c-0.04,0.48-0.01,0.96,0.1,1.43c0.22,1.3,0.34,2.6,0.37,3.9c0.05,0.64,0.12,1.26,0.21,1.87c0.17,0.91,0.22,1.84,0.17,2.78
					c-0.14,1.99-0.73,3.91-1.78,5.75c-1.05,1.84-2.64,2.95-4.77,3.34c-2.49,0.25-4.77-0.26-6.85-1.54
					c-2.08-1.27-3.61-3.04-4.61-5.31c-0.58-1.33-0.98-2.67-1.18-4.03c-0.21-1.36-0.35-2.73-0.44-4.11
					c-0.06-0.91-0.14-1.83-0.25-2.74c-0.08-0.83-0.18-1.64-0.29-2.45c-0.36-2.68-0.6-5.4-0.71-8.13c-0.19-4.07,0.1-8.04,0.87-11.93
					c0.77-3.89,2.6-7.37,5.48-10.44c2.46-2.44,5.24-4.14,8.34-5.11c3.1-0.97,6.32-1.55,9.67-1.74c4.65-0.39,8.96,0.25,12.95,1.91
					s6.93,4.8,8.84,9.42c0.97,2.57,1.29,4.99,0.95,7.26c-0.33,2.27-1.18,4.59-2.53,6.97c-0.8,1.44-1.81,2.72-3.03,3.86
					c-0.33,0.28-0.68,0.54-1.04,0.79c-0.44,0.3-0.85,0.64-1.22,1c-0.37,0.36-0.64,0.8-0.81,1.33c-0.22,0.8-0.08,1.49,0.44,2.07
					c0.51,0.58,1.11,1.09,1.81,1.54c0.3,0.25,0.59,0.48,0.87,0.71C373.74,47.85,375.26,49.47,376.56,51.3z M350.87,27.27
					c-0.39,1.05-0.51,2.17-0.37,3.36c0.03,0.28,0.07,0.55,0.12,0.83c0.06,0.28,0.17,0.51,0.33,0.71c0.22,0.22,0.48,0.37,0.77,0.44
					c0.29,0.07,0.59,0.09,0.89,0.06c0.66,0.03,1.31-0.07,1.95-0.29c1.16-0.53,1.86-1.35,2.1-2.47c0.24-1.12-0.08-2.14-0.93-3.05
					c-0.78-0.78-1.65-1.16-2.62-1.16S351.4,26.22,350.87,27.27z"/>
				<path id="XMLID_00000087399773182739503670000009579495336496411832_" class="st0" d="M422.22,54.29
					c0.17,2.63-0.07,5.02-0.71,7.18c-0.55,1.74-1.48,3.06-2.78,3.96c-1.3,0.9-2.84,1.52-4.61,1.85c-5.59,1.11-10.92,0.9-16-0.62
					c-5.08-1.52-9.44-4.54-13.09-9.05c-4.01-5.34-6.06-11.39-6.14-18.14c-0.08-6.75,1.63-12.94,5.15-18.55
					c3.35-4.93,7.92-8.32,13.72-10.19s11.53-1.79,17.2,0.23c1.35,0.5,2.42,1.33,3.2,2.49c0.47,0.8,0.74,1.67,0.81,2.62
					c0.07,0.94,0.05,1.89-0.06,2.86c-0.08,1.66-0.53,3.2-1.33,4.61c-1.27,1.74-3,2.57-5.19,2.49c-0.97-0.03-1.92-0.11-2.86-0.25
					c-0.08,0-0.18-0.01-0.29-0.04c-0.33-0.03-0.68-0.08-1.04-0.17c-0.89-0.22-1.72-0.28-2.49-0.17c-0.36,0.05-0.67,0.2-0.93,0.44
					c-0.26,0.23-0.42,0.52-0.48,0.85c-0.03,0.41,0.09,0.77,0.35,1.06c0.26,0.29,0.57,0.52,0.93,0.69c1.19,0.44,2.43,0.61,3.74,0.5
					c0.88-0.05,1.76-0.01,2.61,0.12c2.35,0.58,3.93,2.01,4.73,4.29c0.8,2.28,0.68,4.48-0.37,6.58c-0.97,1.61-2.37,2.62-4.19,3.03
					c-0.97,0.17-1.96,0.21-2.99,0.12c-1.22-0.11-2.41,0-3.57,0.33c-0.42,0.14-0.8,0.35-1.14,0.64c-0.35,0.29-0.55,0.64-0.6,1.06
					c-0.03,0.39,0.06,0.75,0.27,1.08c0.21,0.33,0.48,0.58,0.81,0.75c0.69,0.3,1.42,0.4,2.2,0.29c1.13-0.14,2.23-0.4,3.28-0.79
					c1.22-0.44,2.46-0.72,3.74-0.83c2.21-0.06,4.09,0.71,5.64,2.28C421.22,49.61,422.05,51.74,422.22,54.29z"/>
				<path id="XMLID_00000077298469577623994600000017979164687563378837_" class="st0" d="M470.61,22.7
					c-1.77,1.96-3.98,4.9-6.62,8.82c-2.64,3.92-3.58,6.71-2.8,8.38c0.77,1.67,2.85,4.6,6.23,8.78c1.74,1.8,3.19,3.67,4.34,5.62
					c1.15,1.95,1.56,4.08,1.22,6.37c-0.61,2.79-2.5,4.88-5.69,6.27c-3.26,1.22-6.52,1.16-9.75-0.17c-1.52-0.66-2.81-1.48-3.86-2.45
					c-1.05-0.97-2.02-2.05-2.9-3.24c-0.11-0.11-0.26-0.28-0.46-0.5c-0.64-0.78-1.44-1.8-2.41-3.07c-1.22,1.86-2.59,3.62-4.13,5.31
					c-1.54,1.69-3.32,2.98-5.35,3.88c-2.03,0.9-4.41,1.1-7.12,0.6c-3.02-0.61-5.2-1.74-6.56-3.38c-1.36-1.64-1.58-3.69-0.66-6.12
					c1.3-2.66,3.03-5.13,5.19-7.43c0.55-0.63,1.08-1.24,1.58-1.83c4.62-5.7,6.7-9.61,6.25-11.74c-0.46-2.13-2.35-4.8-5.69-8.01
					c-3.33-3.21-5.75-5.78-7.26-7.7c-1.51-1.92-1.92-4.06-1.22-6.41c0.55-1.49,1.68-2.67,3.38-3.53c1.7-0.86,3.56-1.27,5.58-1.24
					c0.3,0,0.59,0.01,0.87,0.04c2.32,0.25,4.34,0.91,6.04,1.99c1.7,1.08,3.51,2.74,5.42,4.98c1.91,2.24,3.38,4.36,4.4,6.35
					c1.19-2.41,2.65-4.7,4.38-6.89s4.05-3.94,6.95-5.27c1.8-0.75,3.69-1.23,5.67-1.45c1.98-0.22,3.78-0.01,5.42,0.64
					c1.63,0.65,2.77,1.88,3.4,3.67c0.42,1.55,0.19,3.06-0.68,4.54C472.87,20.01,471.83,21.4,470.61,22.7z"/>
			</g>
		</g>
	</g>
	<g id="XMLID_674_">
		<g>
			<g id="XMLID_00000101818381496667414450000016892708237293100184_">
				<g>
					<path id="XMLID_00000054967931923588915400000000633165895176037034_" class="st1" d="M46.41,5.78
						c1.85,1.72,2.86,3.9,3.03,6.56s-0.62,4.91-2.37,6.76c-1.05,1-2.21,1.58-3.49,1.76s-2.59,0.27-3.94,0.27
						c-0.91,0-1.67,0.28-2.26,0.83c-0.6,0.55-1.03,1.68-1.31,3.38c-0.28,1.7-0.42,4.28-0.42,7.74c0,2.85-0.04,5.69-0.12,8.51
						c-0.06,1.41-0.1,2.84-0.12,4.27c0,2.16-0.29,4.25-0.87,6.27c-0.58,2.02-1.66,3.76-3.24,5.23c-1.66,1.38-3.57,2.12-5.73,2.22
						s-4.12-0.49-5.89-1.76c-1.41-1.13-2.49-2.51-3.24-4.13c-0.75-1.62-1.23-3.31-1.45-5.08c-0.25-2.79-0.21-5.62,0.12-8.47
						c0.05-0.69,0.1-1.38,0.12-2.08c0.28-4.21,0.25-8.41-0.08-12.62c-0.14-1.44-0.64-2.52-1.51-3.24c-0.87-0.72-2-1.19-3.38-1.41
						c-2.38-0.39-4.39-1.25-6.02-2.57s-2.53-3.24-2.7-5.73C1.52,9.95,2.32,7.81,3.96,6.07c1.63-1.74,3.74-2.82,6.31-3.24
						c3.87-0.5,7.82-0.68,11.83-0.54c1.19,0.03,2.35,0.04,3.49,0.04c5.39-0.14,10.75,0.26,16.06,1.2
						C43.58,3.92,45.17,4.67,46.41,5.78z"/>
					<path class="st2" d="M25.13,61.15c-2.3,0-4.44-0.69-6.35-2.07c-1.66-1.33-2.9-2.91-3.74-4.74c-0.81-1.75-1.34-3.62-1.58-5.54
						c-0.26-2.94-0.22-5.89,0.12-8.84c0.05-0.61,0.09-1.29,0.12-1.96c0.27-4.15,0.24-8.32-0.08-12.43c-0.1-1-0.41-1.71-0.96-2.16
						c-0.65-0.54-1.54-0.9-2.64-1.08c-2.64-0.43-4.91-1.41-6.75-2.9C1.29,17.83,0.2,15.53,0,12.6c-0.04-3.03,0.92-5.56,2.82-7.6
						c1.86-1.99,4.28-3.24,7.19-3.71C14,0.78,18.06,0.6,22.15,0.74c1.16,0.03,2.31,0.04,3.43,0.04c5.44-0.14,10.94,0.27,16.33,1.23
						c2.24,0.45,4.09,1.32,5.53,2.61l0.02,0.02c2.15,1.99,3.33,4.54,3.52,7.6c0.19,3.09-0.74,5.76-2.79,7.92
						c-1.35,1.28-2.81,2.01-4.4,2.24c-1.34,0.19-2.74,0.28-4.16,0.28c-0.68,0-1.01,0.24-1.21,0.42c-0.08,0.08-0.52,0.57-0.83,2.5
						c-0.26,1.61-0.4,4.13-0.4,7.49c0,2.83-0.04,5.71-0.12,8.55c-0.06,1.42-0.1,2.83-0.12,4.26c0,2.26-0.31,4.51-0.93,6.67
						c-0.66,2.29-1.89,4.29-3.67,5.94c-1.98,1.65-4.22,2.52-6.71,2.63C25.47,61.14,25.3,61.15,25.13,61.15z M19.51,3.8
						c-3.07,0-6.1,0.19-9.05,0.57c-2.2,0.36-3.97,1.26-5.37,2.76c-1.36,1.45-2.01,3.21-1.99,5.36c0.13,1.97,0.83,3.49,2.12,4.54
						c1.41,1.15,3.19,1.91,5.29,2.25c1.65,0.26,3.04,0.85,4.12,1.75c1.2,0.99,1.89,2.43,2.07,4.29c0.34,4.29,0.37,8.61,0.09,12.87
						c-0.03,0.67-0.07,1.38-0.13,2.1c-0.32,2.79-0.36,5.53-0.13,8.21c0.19,1.55,0.64,3.11,1.32,4.57c0.64,1.39,1.58,2.59,2.8,3.57
						c1.43,1.02,3.04,1.51,4.85,1.42c1.83-0.08,3.4-0.69,4.8-1.86c1.32-1.23,2.23-2.71,2.74-4.47c0.54-1.87,0.81-3.83,0.81-5.84
						c0.03-1.48,0.07-2.92,0.13-4.34c0.08-2.8,0.12-5.65,0.12-8.45c0-3.58,0.14-6.19,0.44-7.99c0.34-2.1,0.91-3.46,1.78-4.27
						c0.89-0.83,2-1.25,3.32-1.25c1.28,0,2.53-0.09,3.73-0.25c0.95-0.13,1.82-0.58,2.64-1.35c1.39-1.48,2.02-3.31,1.88-5.54
						c-0.14-2.26-0.97-4.06-2.52-5.51c-1.03-0.91-2.39-1.54-4.03-1.87c-5.15-0.91-10.45-1.31-15.72-1.17
						c-1.2-0.02-2.36-0.01-3.56-0.04C21.21,3.81,20.36,3.8,19.51,3.8z"/>
				</g>
				<g>
					<path id="XMLID_00000150790795421397544340000006146175213833544598_" class="st1" d="M91.36,46.45
						c0.17,2.63-0.07,5.02-0.71,7.18c-0.55,1.74-1.48,3.07-2.78,3.96c-1.3,0.9-2.84,1.51-4.61,1.85c-5.59,1.11-10.92,0.9-16-0.62
						c-5.08-1.52-9.44-4.54-13.09-9.05c-4.01-5.34-6.06-11.39-6.14-18.14s1.63-12.94,5.15-18.55C56.53,8.16,61.1,4.76,66.9,2.89
						c5.8-1.87,11.53-1.79,17.2,0.23c1.35,0.5,2.42,1.33,3.2,2.49c0.47,0.8,0.74,1.67,0.81,2.62c0.07,0.94,0.05,1.9-0.06,2.86
						c-0.08,1.66-0.53,3.2-1.33,4.61c-1.27,1.74-3,2.57-5.19,2.49c-0.97-0.03-1.92-0.11-2.86-0.25c-0.08,0-0.18-0.01-0.29-0.04
						c-0.33-0.03-0.68-0.08-1.04-0.17c-0.89-0.22-1.72-0.28-2.49-0.17c-0.36,0.06-0.67,0.2-0.93,0.44
						c-0.26,0.24-0.42,0.52-0.48,0.85c-0.03,0.41,0.09,0.77,0.35,1.06c0.26,0.29,0.57,0.52,0.93,0.68c1.19,0.44,2.43,0.61,3.74,0.5
						c0.88-0.05,1.76-0.01,2.61,0.12c2.35,0.58,3.93,2.01,4.73,4.3c0.8,2.28,0.68,4.48-0.37,6.58c-0.97,1.61-2.37,2.61-4.19,3.03
						c-0.97,0.17-1.96,0.21-2.99,0.12c-1.22-0.11-2.41,0-3.57,0.33c-0.42,0.14-0.8,0.35-1.14,0.64c-0.35,0.29-0.55,0.64-0.6,1.06
						c-0.03,0.39,0.06,0.75,0.27,1.08c0.21,0.33,0.48,0.58,0.81,0.75c0.69,0.3,1.42,0.4,2.2,0.29c1.13-0.14,2.23-0.4,3.28-0.79
						c1.22-0.44,2.46-0.72,3.74-0.83c2.21-0.06,4.09,0.71,5.64,2.28C90.37,41.77,91.2,43.91,91.36,46.45z"/>
					<path class="st2" d="M76.36,61.69c-3.27,0-6.46-0.46-9.53-1.38c-5.36-1.61-10.02-4.82-13.85-9.56
						c-4.23-5.63-6.4-12.04-6.49-19.09c-0.09-7.02,1.72-13.55,5.38-19.39c3.56-5.24,8.45-8.88,14.56-10.84
						c6.1-1.97,12.23-1.88,18.2,0.24c1.68,0.62,3.01,1.65,3.97,3.09c0.64,1.08,0.98,2.19,1.07,3.36c0.08,1.04,0.05,2.1-0.07,3.15
						c-0.09,1.8-0.6,3.58-1.52,5.2l-0.1,0.15c-1.55,2.12-3.75,3.19-6.41,3.13c2.78,0.72,4.75,2.54,5.71,5.26
						c0.94,2.68,0.79,5.3-0.45,7.79l-0.06,0.11c-0.96,1.6-2.29,2.72-3.95,3.37c0.1-0.01,0.19-0.02,0.29-0.03
						c2.74-0.08,5.03,0.85,6.88,2.74c1.78,2.04,2.74,4.5,2.93,7.38l0,0c0.18,2.8-0.08,5.39-0.77,7.72c-0.67,2.1-1.8,3.71-3.39,4.8
						c-1.47,1.02-3.22,1.72-5.2,2.1C81.12,61.45,78.72,61.69,76.36,61.69z M75.21,3.1c-2.6,0-5.22,0.42-7.84,1.26
						c-5.43,1.75-9.78,4.98-12.91,9.58c-3.31,5.28-4.96,11.24-4.88,17.66c0.08,6.38,2.04,12.18,5.83,17.22
						c3.4,4.2,7.55,7.07,12.3,8.49c4.81,1.44,9.94,1.64,15.25,0.59c1.56-0.29,2.91-0.83,4.03-1.6c1.02-0.7,1.73-1.74,2.18-3.16
						c0.57-1.94,0.79-4.18,0.64-6.61l0,0c-0.14-2.22-0.84-4.01-2.11-5.47c-1.18-1.2-2.66-1.78-4.44-1.75
						c-1.04,0.09-2.16,0.34-3.24,0.74c-1.15,0.43-2.37,0.72-3.62,0.87c-1.03,0.15-2.05,0.01-3.01-0.41
						c-0.66-0.33-1.14-0.77-1.5-1.34c-0.39-0.62-0.55-1.3-0.5-2.01c0.11-0.89,0.51-1.59,1.15-2.13c0.49-0.41,1.05-0.73,1.65-0.93
						c1.41-0.4,2.8-0.53,4.2-0.41c0.88,0.07,1.75,0.03,2.59-0.11c1.31-0.3,2.35-1.04,3.09-2.25c0.84-1.71,0.93-3.45,0.27-5.31
						c-0.62-1.78-1.76-2.82-3.58-3.29c-0.72-0.11-1.47-0.14-2.21-0.1c-1.49,0.13-2.97-0.07-4.37-0.59L74.07,22
						c-0.55-0.25-1.03-0.61-1.43-1.05c-0.55-0.6-0.81-1.37-0.75-2.2l0.02-0.15c0.11-0.68,0.45-1.29,0.98-1.76
						c0.49-0.44,1.07-0.71,1.73-0.81c0.99-0.14,2.02-0.07,3.1,0.19c0.26,0.06,0.54,0.1,0.79,0.13l0.39,0.05
						c0.87,0.13,1.77,0.21,2.68,0.23c1.66,0.07,2.88-0.51,3.84-1.78c0.66-1.19,1.01-2.44,1.08-3.84c0.11-0.96,0.13-1.83,0.06-2.67
						c-0.05-0.71-0.25-1.34-0.6-1.94c-0.55-0.81-1.34-1.43-2.39-1.82C80.81,3.6,78.02,3.1,75.21,3.1z M77.35,36.75
						c-0.77,0-1.52,0.1-2.24,0.31c-0.17,0.06-0.37,0.17-0.57,0.34c-0.06,0.04-0.05,0.07-0.01,0.13c0.07,0.11,0.13,0.16,0.19,0.18
						c0.36,0.15,0.8,0.21,1.29,0.14c1.04-0.13,2.03-0.36,2.96-0.71c0.34-0.12,0.68-0.24,1.03-0.34c-0.62,0.04-1.24,0.02-1.86-0.03
						C77.86,36.77,77.6,36.75,77.35,36.75z M75.32,19.16c0.96,0.35,1.94,0.47,3,0.38c0.16-0.01,0.33-0.02,0.49-0.02
						c-0.1-0.01-0.19-0.03-0.29-0.04c-0.13-0.01-0.26-0.02-0.39-0.05c-0.37-0.04-0.75-0.1-1.14-0.19c-0.66-0.16-1.26-0.22-1.8-0.16
						C75.23,19.11,75.28,19.14,75.32,19.16z"/>
				</g>
				<g>
					<path id="XMLID_00000159462471265004847070000018166997240671494313_" class="st1" d="M112.57,50.43
						c-0.17,0.66-0.33,1.31-0.5,1.95c-0.3,1.11-0.68,2.18-1.12,3.22c-0.44,1.04-1.09,1.92-1.95,2.64c-1,0.77-2.03,1.22-3.09,1.35
						c-1.07,0.12-2.24,0.13-3.51,0.02c-1.49-0.06-2.95-0.26-4.38-0.6c-1.43-0.35-2.61-1.06-3.55-2.14c-0.97-1.3-1.43-2.77-1.37-4.42
						c0.06-1.65,0.3-3.26,0.75-4.83c0.77-3.24,1.56-6.47,2.37-9.71c0.77-3.21,1.55-6.43,2.32-9.67c0.25-1.02,0.5-2.06,0.75-3.11
						c0.53-2.46,1.14-4.89,1.85-7.28c0.71-2.39,1.67-4.67,2.88-6.83c1.71-2.96,4.04-5.2,6.97-6.72c2.3-1.19,4.81-1.63,7.55-1.33
						c3.98,0.66,7.28,2.55,9.88,5.64c1.36,1.61,2.47,3.38,3.34,5.31c0.87,1.94,1.67,3.92,2.39,5.94c0.42,1.08,0.83,2.14,1.25,3.2
						c0.72,1.83,1.45,3.65,2.2,5.48l4.4,10.96c0.58,1.41,1.11,2.84,1.6,4.3c0.48,1.45,0.78,2.93,0.89,4.42
						c0.17,1.96-0.12,3.81-0.87,5.54s-2.03,3.04-3.86,3.92c-1.6,0.66-3.28,1.11-5.02,1.33c-1.61,0.33-3.28,0.48-5.02,0.44
						c-1.74-0.04-3.24-0.68-4.48-1.93c-0.72-0.97-1.2-2.06-1.45-3.28c-0.08-0.39-0.18-0.76-0.29-1.12c-0.25-0.83-0.5-1.69-0.75-2.57
						h-0.62C118.94,50.6,115.75,50.57,112.57,50.43z M120.46,41.1c-0.3-1.33-0.6-2.7-0.87-4.11l-0.5-2.49
						c-0.08-0.36-0.22-0.71-0.42-1.06c-0.19-0.35-0.47-0.55-0.83-0.6c-0.39,0-0.71,0.17-0.95,0.52c-0.25,0.35-0.42,0.73-0.5,1.14
						c-0.61,2.3-1.18,4.59-1.7,6.89C116.6,41.25,118.52,41.15,120.46,41.1z"/>
					<path class="st2" d="M104.13,61.24c-0.6,0-1.22-0.03-1.87-0.08c-1.52-0.05-3.09-0.27-4.61-0.64c-1.74-0.42-3.2-1.3-4.35-2.62
						l-0.08-0.09c-1.18-1.58-1.74-3.4-1.68-5.4c0.06-1.76,0.33-3.51,0.81-5.2c0.76-3.18,1.55-6.42,2.35-9.67
						c0.77-3.2,1.55-6.42,2.32-9.66c0.25-1.02,0.5-2.06,0.75-3.11c0.52-2.45,1.15-4.94,1.87-7.36c0.74-2.5,1.75-4.9,3.02-7.15
						c1.87-3.22,4.42-5.68,7.61-7.34c2.56-1.33,5.4-1.83,8.44-1.49c4.42,0.73,8.06,2.81,10.89,6.19c1.44,1.71,2.64,3.62,3.57,5.67
						c0.88,1.96,1.7,4,2.43,6.05c0.4,1.04,0.81,2.1,1.23,3.15c0.72,1.82,1.45,3.64,2.19,5.46l4.4,10.97
						c0.59,1.44,1.14,2.91,1.63,4.38c0.52,1.57,0.85,3.18,0.97,4.79c0.19,2.2-0.15,4.31-0.99,6.27c-0.9,2.07-2.45,3.65-4.61,4.7
						c-1.79,0.74-3.59,1.22-5.44,1.46c-1.7,0.35-3.48,0.51-5.31,0.46c-2.15-0.05-4.01-0.85-5.54-2.38l-0.15-0.17
						c-0.85-1.14-1.43-2.46-1.73-3.89c-0.07-0.33-0.16-0.66-0.25-0.98c-0.14-0.48-0.29-0.97-0.43-1.46
						c-2.58,0.06-5.2,0.04-7.81-0.05c-0.06,0.25-0.13,0.5-0.19,0.74c-0.33,1.18-0.73,2.33-1.19,3.43c-0.54,1.26-1.34,2.34-2.38,3.22
						c-1.26,0.98-2.56,1.54-3.91,1.7C105.47,61.2,104.82,61.24,104.13,61.24z M95.68,55.89c0.72,0.81,1.61,1.34,2.71,1.6
						c1.32,0.32,2.69,0.51,4.07,0.56c1.24,0.11,2.32,0.1,3.27-0.01c0.79-0.09,1.54-0.43,2.32-1.03c0.63-0.53,1.13-1.2,1.48-2.02
						c0.41-0.97,0.77-1.99,1.05-3.02c0.16-0.61,0.32-1.26,0.49-1.92l0.31-1.23l1.26,0.06c3.13,0.14,6.3,0.16,9.44,0.08l1.84,0
						l0.32,1.13c0.25,0.88,0.49,1.73,0.74,2.55c0.12,0.39,0.23,0.81,0.32,1.24c0.2,0.98,0.56,1.82,1.11,2.58
						c0.94,0.91,2.04,1.37,3.34,1.4c1.62,0.05,3.19-0.1,4.67-0.4l0.12-0.02c1.6-0.2,3.16-0.62,4.62-1.22
						c1.41-0.69,2.43-1.71,3.03-3.1c0.65-1.51,0.9-3.07,0.75-4.79c-0.1-1.38-0.38-2.74-0.82-4.06c-0.47-1.4-0.99-2.81-1.56-4.2
						l-4.41-10.97c-0.75-1.82-1.48-3.66-2.2-5.49c-0.42-1.05-0.83-2.12-1.25-3.21c-0.72-2.01-1.51-3.97-2.35-5.86
						c-0.81-1.79-1.85-3.46-3.11-4.95c-2.38-2.84-5.31-4.51-8.95-5.12c-2.37-0.26-4.55,0.12-6.59,1.18
						c-2.65,1.38-4.79,3.44-6.34,6.12c-1.14,2.03-2.07,4.22-2.74,6.49c-0.69,2.35-1.3,4.76-1.82,7.17
						c-0.26,1.09-0.51,2.13-0.76,3.16c-0.77,3.23-1.55,6.46-2.32,9.67c-0.8,3.24-1.59,6.47-2.36,9.71
						c-0.42,1.51-0.66,3.01-0.71,4.53C94.61,53.78,94.95,54.89,95.68,55.89z M112.71,43.08l0.47-2.04c0.53-2.3,1.1-4.64,1.71-6.94
						c0.1-0.54,0.36-1.12,0.74-1.65c0.54-0.75,1.33-1.16,2.21-1.16l0.24,0.02c0.83,0.13,1.52,0.62,1.95,1.38
						c0.26,0.47,0.46,0.96,0.57,1.46l0.51,2.54c0.27,1.38,0.56,2.74,0.86,4.07l0.42,1.84l-1.89,0.05c-1.9,0.05-3.82,0.15-5.7,0.29
						L112.71,43.08z M117.72,35.54c-0.37,1.41-0.71,2.79-1.04,4.16c0.62-0.03,1.24-0.07,1.87-0.09c-0.16-0.77-0.32-1.55-0.48-2.33
						L117.72,35.54z"/>
				</g>
				<g>
					<path id="XMLID_00000021819255474050801800000000458055056647532946_" class="st1" d="M178.06,58.07
						c-1.94-0.17-3.57-0.96-4.9-2.39c-1.33-1.42-2.19-3.02-2.57-4.79l-0.08-0.42c-0.08-0.55-0.26-1.08-0.54-1.58
						c-0.36-0.53-0.81-0.77-1.35-0.73c-0.54,0.04-1.03,0.27-1.47,0.68c-0.39,0.5-0.69,1.04-0.91,1.62
						c-0.31,0.72-0.57,1.43-0.79,2.12c-0.42,1.3-0.95,2.5-1.6,3.61c-0.65,1.11-1.67,1.99-3.05,2.66c-1.74,0.83-3.67,1.29-5.77,1.39
						s-3.93-0.46-5.48-1.68c-1.13-1.08-1.87-2.37-2.22-3.88c-0.35-1.51-0.45-2.99-0.31-4.46c0.3-3.21,0.85-6.41,1.64-9.61
						c0.79-3.2,1.65-6.33,2.59-9.4c0.53-1.71,1.04-3.46,1.54-5.23c0.97-3.46,2.02-6.92,3.15-10.38c0.55-1.85,1.3-3.76,2.24-5.73
						s2.24-3.51,3.9-4.65c2.24-1.38,4.61-1.67,7.1-0.87c2.46,0.97,4.12,2.67,4.98,5.1c0.08,0.31,0.23,0.6,0.46,0.89
						c0.22,0.29,0.48,0.39,0.79,0.31c0.11-0.03,0.2-0.09,0.27-0.19s0.15-0.2,0.23-0.31c0.33-0.53,0.66-1.12,1-1.78
						c0.8-1.69,1.77-3.07,2.91-4.15c0.75-0.55,1.66-0.96,2.74-1.2s2.08-0.33,2.99-0.25c2.41,0.25,4.5,1.2,6.27,2.86
						c1,0.91,1.72,1.89,2.18,2.93c0.46,1.04,0.85,2.18,1.18,3.42c1.52,5.62,3.13,11.41,4.81,17.39c1.71,5.92,3.33,11.69,4.86,17.31
						c0.53,1.74,0.84,3.6,0.96,5.58c0.11,1.98-0.46,3.7-1.7,5.17c-1.16,1.11-2.56,1.74-4.19,1.91c-2.88,0.36-5.44-0.33-7.68-2.08
						c-1.02-0.86-1.77-1.92-2.24-3.2c-0.08-0.3-0.18-0.61-0.29-0.91c-0.11-0.42-0.26-0.84-0.46-1.29c-0.11-0.28-0.22-0.53-0.33-0.75
						c-0.25-0.61-0.51-1.2-0.79-1.78c-0.11-0.3-0.26-0.58-0.44-0.83c-0.18-0.25-0.42-0.42-0.73-0.5c-0.25-0.03-0.48,0.02-0.68,0.15
						c-0.21,0.12-0.38,0.28-0.52,0.48c-0.22,0.36-0.37,0.75-0.46,1.16v0.12c-0.58,2.16-1.52,4.17-2.82,6.02
						c-0.61,0.8-1.37,1.41-2.28,1.83C179.52,58.03,178.81,58.13,178.06,58.07z"/>
					<path class="st2" d="M154.57,61.81c-2.26,0-4.27-0.68-5.98-2.02l-0.11-0.1c-1.35-1.29-2.25-2.85-2.66-4.66
						c-0.38-1.66-0.5-3.33-0.34-4.95c0.31-3.27,0.87-6.58,1.68-9.83c0.79-3.21,1.67-6.4,2.62-9.48c0.52-1.7,1.03-3.44,1.53-5.19
						c0.97-3.47,2.04-6.98,3.17-10.44c0.56-1.88,1.34-3.88,2.31-5.91c1.05-2.2,2.54-3.97,4.43-5.26c2.69-1.67,5.52-2.01,8.45-1.07
						c2.68,1.05,4.55,2.8,5.64,5.24c0.07-0.14,0.15-0.28,0.22-0.43c0.87-1.83,1.96-3.38,3.22-4.58L178.88,3
						c0.92-0.68,2.03-1.17,3.31-1.47c1.23-0.28,2.4-0.38,3.48-0.28c2.76,0.29,5.17,1.39,7.19,3.28c1.14,1.04,2,2.2,2.54,3.43
						c0.49,1.11,0.91,2.33,1.26,3.65c1.51,5.59,3.13,11.44,4.81,17.37c1.72,5.92,3.35,11.75,4.86,17.32
						c0.55,1.81,0.89,3.81,1.01,5.9c0.13,2.38-0.56,4.49-2.07,6.26l-0.11,0.12c-1.41,1.34-3.13,2.13-5.1,2.33
						c-3.26,0.4-6.22-0.4-8.79-2.4c-1.27-1.06-2.18-2.36-2.74-3.88l-0.04-0.12c-0.07-0.27-0.16-0.53-0.25-0.8l-0.04-0.13
						c-0.09-0.34-0.22-0.7-0.38-1.07c-0.11-0.28-0.21-0.49-0.3-0.68l-0.05-0.1c-0.21-0.5-0.42-1-0.65-1.49l-0.03,0.1
						c-0.63,2.32-1.65,4.51-3.05,6.5c-0.8,1.05-1.77,1.83-2.91,2.35l-0.09,0.04c-0.87,0.33-1.81,0.46-2.78,0.39l-0.02,0
						c-2.32-0.2-4.31-1.17-5.9-2.88c-1.51-1.62-2.51-3.48-2.95-5.52l-0.09-0.44c-0.06-0.41-0.17-0.73-0.33-1.05
						c-0.1,0.02-0.22,0.07-0.36,0.19c-0.25,0.34-0.46,0.72-0.61,1.11c-0.31,0.73-0.56,1.39-0.76,2.04c-0.45,1.4-1.03,2.72-1.74,3.92
						c-0.81,1.37-2.06,2.47-3.72,3.27c-1.93,0.92-4.07,1.44-6.37,1.54C154.92,61.81,154.75,61.81,154.57,61.81z M150.57,57.39
						c1.25,0.96,2.68,1.38,4.39,1.31c1.89-0.09,3.63-0.5,5.17-1.24c1.1-0.53,1.89-1.2,2.38-2.04c0.59-1,1.08-2.11,1.46-3.3
						c0.23-0.73,0.52-1.49,0.84-2.25c0.25-0.67,0.64-1.35,1.12-1.96l0.16-0.18c0.71-0.66,1.52-1.03,2.42-1.1
						c1.08-0.1,2.07,0.41,2.75,1.4l0.08,0.12c0.37,0.66,0.61,1.37,0.72,2.1l0.07,0.34c0.32,1.48,1.04,2.81,2.19,4.04
						c1.06,1.14,2.34,1.76,3.89,1.9c0.5,0.03,0.96-0.02,1.4-0.18c0.66-0.31,1.2-0.74,1.64-1.33c1.12-1.6,1.97-3.39,2.51-5.29
						l0.03-0.22c0.12-0.59,0.34-1.16,0.66-1.67l0.06-0.09c0.26-0.37,0.6-0.67,0.98-0.9c0.49-0.29,1.06-0.42,1.65-0.35l0.24,0.04
						c0.64,0.18,1.19,0.55,1.57,1.08c0.25,0.34,0.45,0.72,0.61,1.13c0.27,0.57,0.53,1.16,0.77,1.75c0.12,0.24,0.24,0.51,0.36,0.81
						c0.2,0.44,0.37,0.93,0.5,1.39c0.11,0.3,0.2,0.6,0.29,0.9c0.38,1,0.95,1.81,1.76,2.49c1.88,1.46,4.01,2.04,6.49,1.73
						c1.3-0.13,2.35-0.6,3.25-1.44c0.95-1.15,1.37-2.46,1.28-4.01c-0.1-1.85-0.4-3.6-0.89-5.22c-1.52-5.59-3.15-11.41-4.86-17.32
						c-1.68-5.95-3.3-11.81-4.82-17.42c-0.31-1.17-0.68-2.24-1.11-3.21c-0.37-0.83-0.98-1.64-1.81-2.41
						c-1.54-1.45-3.3-2.25-5.38-2.46c-0.73-0.07-1.57,0.01-2.48,0.22c-0.83,0.19-1.53,0.49-2.09,0.89c-0.96,0.93-1.8,2.15-2.5,3.62
						c-0.37,0.73-0.73,1.38-1.09,1.95l-0.28,0.39c-0.29,0.4-0.69,0.67-1.16,0.79c-0.88,0.24-1.79-0.08-2.4-0.88
						c-0.33-0.43-0.56-0.88-0.7-1.36c-0.71-1.98-2.04-3.34-4.07-4.13c-1.96-0.63-3.86-0.4-5.71,0.75c-1.37,0.94-2.5,2.29-3.32,4
						c-0.9,1.88-1.63,3.73-2.15,5.5c-1.13,3.45-2.19,6.92-3.15,10.35c-0.5,1.78-1.02,3.54-1.55,5.26c-0.93,3.03-1.79,6.16-2.57,9.32
						c-0.77,3.11-1.31,6.27-1.6,9.38c-0.12,1.29-0.03,2.63,0.28,3.97C149.12,55.53,149.68,56.53,150.57,57.39z M168.61,49.68
						L168.61,49.68L168.61,49.68z M174.43,9.57c0,0.01-0.01,0.01-0.01,0.02L174.43,9.57z"/>
				</g>
				<g>
					<path id="XMLID_00000094604470602930168890000004270793131633057162_" class="st1" d="M271.24,43.46
						c0.97,1.36,1.69,2.82,2.16,4.38c0.47,1.56,0.61,3.16,0.42,4.79c-0.25,1.66-0.9,3.13-1.95,4.42c-1.05,1.29-2.38,2.14-3.98,2.55
						c-2.71,0.44-5.15-0.25-7.3-2.07c-1.85-1.66-3.31-3.62-4.38-5.89c-1.07-2.27-1.97-4.56-2.72-6.89c-0.33-1-0.73-1.99-1.2-2.99
						s-1.09-1.85-1.87-2.57c-0.64-0.52-1.43-0.86-2.39-1c-0.95-0.14-1.75,0.11-2.39,0.75c-0.3,0.36-0.48,0.78-0.52,1.27
						c-0.04,0.48-0.01,0.96,0.1,1.43c0.22,1.3,0.34,2.6,0.37,3.9c0.05,0.64,0.12,1.26,0.21,1.87c0.17,0.91,0.22,1.84,0.17,2.78
						c-0.14,1.99-0.73,3.91-1.78,5.75c-1.05,1.84-2.64,2.95-4.77,3.34c-2.49,0.25-4.77-0.26-6.85-1.54s-3.61-3.04-4.61-5.31
						c-0.58-1.33-0.98-2.67-1.18-4.03c-0.21-1.36-0.35-2.73-0.44-4.11c-0.06-0.91-0.14-1.83-0.25-2.74
						c-0.08-0.83-0.18-1.65-0.29-2.45c-0.36-2.68-0.6-5.4-0.71-8.13c-0.19-4.07,0.1-8.04,0.87-11.93c0.77-3.89,2.6-7.37,5.48-10.44
						c2.46-2.43,5.24-4.14,8.34-5.11c3.1-0.97,6.32-1.55,9.67-1.74c4.65-0.39,8.96,0.25,12.95,1.91s6.93,4.8,8.84,9.42
						c0.97,2.57,1.29,5,0.95,7.26s-1.18,4.59-2.53,6.97c-0.8,1.44-1.81,2.73-3.03,3.86c-0.33,0.28-0.68,0.54-1.04,0.79
						c-0.44,0.3-0.85,0.64-1.22,1c-0.37,0.36-0.64,0.8-0.81,1.33c-0.22,0.8-0.08,1.49,0.44,2.07c0.51,0.58,1.11,1.09,1.81,1.54
						c0.3,0.25,0.59,0.48,0.87,0.71C268.42,40.02,269.94,41.64,271.24,43.46z M245.55,19.43c-0.39,1.05-0.51,2.17-0.37,3.36
						c0.03,0.28,0.07,0.55,0.12,0.83c0.06,0.28,0.17,0.51,0.33,0.71c0.22,0.22,0.48,0.37,0.77,0.44c0.29,0.07,0.59,0.09,0.89,0.06
						c0.66,0.03,1.31-0.07,1.95-0.29c1.16-0.53,1.86-1.35,2.1-2.47c0.24-1.12-0.08-2.14-0.93-3.05c-0.78-0.77-1.65-1.16-2.62-1.16
						S246.07,18.38,245.55,19.43z"/>
					<path class="st2" d="M266.31,61.29c-2.46,0-4.72-0.86-6.74-2.57c-2.04-1.82-3.63-3.97-4.78-6.42
						c-1.09-2.31-2.03-4.69-2.79-7.07c-0.31-0.92-0.69-1.86-1.13-2.8c-0.39-0.82-0.89-1.51-1.52-2.1c-0.35-0.28-0.88-0.5-1.55-0.6
						c-0.53-0.07-0.81,0.07-1.01,0.26c-0.07,0.1-0.11,0.21-0.12,0.35c-0.03,0.32,0,0.63,0.07,0.94l0.02,0.1
						c0.23,1.37,0.36,2.76,0.39,4.13c0.05,0.51,0.11,1.11,0.19,1.7c0.18,0.96,0.24,2.02,0.18,3.08c-0.16,2.23-0.82,4.39-1.99,6.43
						c-1.28,2.25-3.25,3.62-5.84,4.1l-0.12,0.02c-2.82,0.28-5.45-0.31-7.81-1.76c-2.34-1.44-4.1-3.46-5.22-6.01
						c-0.63-1.44-1.07-2.93-1.3-4.41c-0.21-1.4-0.37-2.83-0.45-4.25c-0.05-0.88-0.13-1.77-0.24-2.65c-0.08-0.84-0.18-1.64-0.29-2.43
						c-0.37-2.72-0.61-5.51-0.72-8.28c-0.2-4.16,0.1-8.3,0.9-12.3c0.83-4.16,2.8-7.92,5.87-11.2c2.67-2.64,5.69-4.48,9.01-5.52
						c3.21-1,6.59-1.61,10.04-1.81c4.84-0.4,9.44,0.28,13.64,2.02c4.36,1.82,7.61,5.27,9.68,10.26c1.08,2.86,1.42,5.56,1.05,8.08
						c-0.36,2.45-1.27,4.98-2.72,7.52c-0.87,1.56-1.99,2.99-3.32,4.23c-0.43,0.36-0.81,0.65-1.21,0.93
						c-0.38,0.26-0.72,0.54-1.04,0.84c-0.18,0.18-0.32,0.4-0.41,0.68c-0.08,0.31,0,0.44,0.12,0.58c0.42,0.47,0.91,0.89,1.48,1.26
						l0.15,0.11c0.3,0.25,0.58,0.48,0.86,0.69c1.85,1.5,3.48,3.23,4.86,5.17l0,0c1.06,1.49,1.86,3.12,2.38,4.83
						c0.53,1.76,0.69,3.59,0.47,5.42c-0.3,1.98-1.06,3.72-2.29,5.22c-1.26,1.54-2.88,2.58-4.8,3.07l-0.14,0.03
						C267.51,61.24,266.91,61.29,266.31,61.29z M247.52,36.6c0.23,0,0.47,0.02,0.72,0.05c1.24,0.18,2.3,0.63,3.15,1.33
						c0.99,0.91,1.73,1.94,2.28,3.11c0.49,1.05,0.92,2.11,1.27,3.16c0.73,2.27,1.62,4.52,2.65,6.72c0.97,2.07,2.32,3.88,4.01,5.4
						c1.76,1.49,3.71,2.05,5.95,1.71c1.26-0.34,2.27-1,3.1-2.01c0.88-1.08,1.41-2.28,1.62-3.67c0.16-1.36,0.04-2.76-0.37-4.12
						c-0.42-1.39-1.07-2.71-1.94-3.92v0c-1.21-1.71-2.65-3.24-4.28-4.55c-0.25-0.2-0.53-0.42-0.81-0.66
						c-0.78-0.51-1.47-1.1-2.06-1.77c-0.85-0.96-1.12-2.21-0.77-3.51c0.26-0.83,0.67-1.49,1.23-2.03c0.44-0.42,0.92-0.81,1.42-1.16
						c0.31-0.22,0.62-0.45,0.92-0.7c1.03-0.96,1.95-2.13,2.67-3.43c1.26-2.21,2.05-4.38,2.35-6.44c0.29-2,0-4.18-0.87-6.49
						c-1.75-4.22-4.36-7.03-7.99-8.54c-3.73-1.56-7.85-2.16-12.22-1.79c-3.24,0.19-6.37,0.75-9.34,1.68
						c-2.85,0.89-5.44,2.48-7.71,4.73c-2.62,2.8-4.34,6.06-5.05,9.64c-0.75,3.75-1.03,7.63-0.84,11.56c0.11,2.69,0.34,5.38,0.69,8
						c0.11,0.82,0.21,1.65,0.3,2.5c0.11,0.91,0.2,1.86,0.25,2.8c0.08,1.33,0.22,2.66,0.42,3.97c0.19,1.22,0.55,2.44,1.07,3.64
						c0.87,1.99,2.18,3.5,4,4.61c1.78,1.09,3.69,1.52,5.82,1.32c1.64-0.31,2.83-1.16,3.64-2.57c0.93-1.63,1.46-3.34,1.58-5.09
						c0.05-0.8,0-1.61-0.14-2.4c-0.1-0.7-0.17-1.35-0.23-2.01c-0.03-1.3-0.15-2.53-0.35-3.73c-0.14-0.61-0.18-1.24-0.13-1.87
						c0.07-0.81,0.37-1.53,0.88-2.14l0.09-0.09C245.35,37.02,246.38,36.6,247.52,36.6z M247.04,26.39c-0.34,0-0.67-0.04-1-0.12
						c-0.57-0.14-1.08-0.42-1.5-0.85l-0.08-0.09c-0.34-0.4-0.57-0.87-0.68-1.41c-0.07-0.33-0.11-0.65-0.15-0.98
						c-0.16-1.4-0.01-2.77,0.46-4.05l0.07-0.16c0.78-1.57,2.07-2.43,3.63-2.43c1.39,0,2.64,0.54,3.71,1.62
						c1.24,1.32,1.7,2.85,1.36,4.47c-0.34,1.6-1.37,2.84-2.97,3.56L249.75,26c-0.79,0.27-1.61,0.4-2.43,0.38
						C247.23,26.39,247.13,26.39,247.04,26.39z M246.81,23.26c0.12,0.03,0.23,0.04,0.34,0.03l0.1-0.01l0.1,0
						c0.45,0.02,0.88-0.04,1.31-0.18c0.86-0.41,1.07-0.93,1.15-1.35c0.09-0.44,0.1-0.98-0.55-1.67c-0.6-0.6-1.14-0.67-1.49-0.67
						c-0.18,0-0.47,0-0.82,0.65c-0.28,0.8-0.37,1.64-0.26,2.56C246.74,22.84,246.77,23.05,246.81,23.26z"/>
				</g>
				<g>
					<path id="XMLID_00000087385531732706869830000016769270706672970889_" class="st1" d="M316.9,46.45
						c0.17,2.63-0.07,5.02-0.71,7.18c-0.55,1.74-1.48,3.07-2.78,3.96c-1.3,0.9-2.84,1.51-4.61,1.85c-5.59,1.11-10.92,0.9-16-0.62
						c-5.08-1.52-9.44-4.54-13.09-9.05c-4.01-5.34-6.06-11.39-6.14-18.14s1.63-12.94,5.15-18.55c3.35-4.92,7.92-8.32,13.72-10.19
						c5.8-1.87,11.53-1.79,17.2,0.23c1.35,0.5,2.42,1.33,3.2,2.49c0.47,0.8,0.74,1.67,0.81,2.62c0.07,0.94,0.05,1.9-0.06,2.86
						c-0.08,1.66-0.53,3.2-1.33,4.61c-1.27,1.74-3,2.57-5.19,2.49c-0.97-0.03-1.92-0.11-2.86-0.25c-0.08,0-0.18-0.01-0.29-0.04
						c-0.33-0.03-0.68-0.08-1.04-0.17c-0.89-0.22-1.72-0.28-2.49-0.17c-0.36,0.06-0.67,0.2-0.93,0.44
						c-0.26,0.24-0.42,0.52-0.48,0.85c-0.03,0.41,0.09,0.77,0.35,1.06c0.26,0.29,0.57,0.52,0.93,0.68c1.19,0.44,2.43,0.61,3.74,0.5
						c0.88-0.05,1.76-0.01,2.61,0.12c2.35,0.58,3.93,2.01,4.73,4.3c0.8,2.28,0.68,4.48-0.37,6.58c-0.97,1.61-2.37,2.61-4.19,3.03
						c-0.97,0.17-1.96,0.21-2.99,0.12c-1.22-0.11-2.41,0-3.57,0.33c-0.42,0.14-0.8,0.35-1.14,0.64c-0.35,0.29-0.55,0.64-0.6,1.06
						c-0.03,0.39,0.06,0.75,0.27,1.08c0.21,0.33,0.48,0.58,0.81,0.75c0.69,0.3,1.42,0.4,2.2,0.29c1.13-0.14,2.23-0.4,3.28-0.79
						c1.22-0.44,2.46-0.72,3.74-0.83c2.21-0.06,4.09,0.71,5.64,2.28C315.9,41.77,316.73,43.91,316.9,46.45z"/>
					<path class="st2" d="M301.89,61.69c-3.27,0-6.46-0.46-9.53-1.38c-5.36-1.61-10.02-4.82-13.85-9.56
						c-4.23-5.63-6.4-12.04-6.49-19.09c-0.09-7.02,1.72-13.55,5.38-19.39c3.56-5.24,8.45-8.88,14.56-10.84
						c6.1-1.97,12.23-1.88,18.2,0.24c1.68,0.62,3.01,1.65,3.96,3.09c0.64,1.08,0.98,2.19,1.07,3.36c0.08,1.04,0.05,2.1-0.07,3.15
						c-0.09,1.8-0.6,3.58-1.52,5.2l-0.1,0.15c-1.55,2.12-3.76,3.19-6.41,3.13c2.78,0.72,4.75,2.54,5.71,5.26
						c0.94,2.68,0.79,5.3-0.45,7.79l-0.06,0.11c-0.96,1.6-2.29,2.72-3.95,3.37c0.1-0.01,0.19-0.02,0.29-0.03
						c2.75-0.08,5.03,0.85,6.88,2.74c1.78,2.04,2.74,4.5,2.93,7.38v0c0.18,2.8-0.08,5.39-0.77,7.72c-0.67,2.1-1.8,3.71-3.39,4.8
						c-1.47,1.02-3.22,1.72-5.2,2.1C306.66,61.45,304.25,61.69,301.89,61.69z M300.74,3.1c-2.6,0-5.22,0.42-7.83,1.26
						c-5.43,1.75-9.78,4.98-12.91,9.58c-3.3,5.28-4.96,11.24-4.88,17.66c0.08,6.38,2.04,12.18,5.83,17.22
						c3.4,4.2,7.55,7.07,12.3,8.49c4.81,1.44,9.94,1.64,15.25,0.59c1.56-0.29,2.91-0.83,4.03-1.6c1.02-0.7,1.73-1.74,2.18-3.16
						c0.57-1.94,0.79-4.18,0.64-6.61l0,0c-0.14-2.22-0.83-4.01-2.11-5.47c-1.18-1.2-2.69-1.79-4.44-1.75
						c-1.04,0.09-2.16,0.34-3.24,0.74c-1.15,0.43-2.38,0.72-3.62,0.87c-1.03,0.15-2.05,0.01-3.01-0.41
						c-0.66-0.33-1.14-0.77-1.5-1.34c-0.39-0.62-0.55-1.3-0.5-2.01c0.11-0.89,0.51-1.59,1.15-2.13c0.49-0.41,1.05-0.73,1.65-0.93
						c1.41-0.4,2.8-0.53,4.2-0.41c0.88,0.07,1.75,0.03,2.59-0.11c1.31-0.3,2.35-1.04,3.09-2.25c0.84-1.71,0.92-3.45,0.27-5.31
						c-0.62-1.78-1.76-2.82-3.58-3.29c-0.72-0.11-1.46-0.14-2.21-0.1c-1.49,0.13-2.97-0.07-4.37-0.59L299.6,22
						c-0.55-0.25-1.03-0.61-1.43-1.05c-0.55-0.6-0.81-1.37-0.75-2.2l0.02-0.15c0.11-0.68,0.45-1.29,0.98-1.76
						c0.49-0.44,1.07-0.71,1.73-0.81c0.99-0.14,2.02-0.07,3.1,0.19c0.26,0.06,0.54,0.1,0.79,0.13l0.39,0.05
						c0.87,0.13,1.77,0.21,2.68,0.23c1.66,0.07,2.88-0.51,3.84-1.78c0.66-1.19,1.01-2.44,1.08-3.84c0.11-0.96,0.13-1.83,0.06-2.67
						c-0.05-0.71-0.25-1.34-0.6-1.94c-0.54-0.81-1.34-1.43-2.39-1.82C306.34,3.6,303.55,3.1,300.74,3.1z M302.88,36.75
						c-0.77,0-1.52,0.1-2.24,0.31c-0.17,0.06-0.37,0.17-0.57,0.34c-0.06,0.04-0.05,0.07-0.02,0.13c0.07,0.11,0.13,0.16,0.19,0.18
						c0.36,0.15,0.8,0.21,1.29,0.14c1.04-0.13,2.03-0.36,2.96-0.71c0.34-0.12,0.68-0.24,1.03-0.34c-0.62,0.04-1.24,0.03-1.86-0.03
						C303.39,36.77,303.14,36.75,302.88,36.75z M300.85,19.16c0.96,0.35,1.94,0.47,3,0.38c0.16-0.01,0.33-0.02,0.49-0.02
						c-0.1-0.01-0.2-0.03-0.29-0.04c-0.13-0.01-0.26-0.02-0.39-0.05c-0.37-0.04-0.75-0.1-1.14-0.19c-0.66-0.17-1.26-0.22-1.8-0.16
						C300.76,19.11,300.81,19.14,300.85,19.16z"/>
				</g>
				<g>
					<path id="XMLID_00000100352994795687116780000013872128215525330315_" class="st1" d="M364.71,43.46
						c0.97,1.36,1.69,2.82,2.16,4.38c0.47,1.56,0.61,3.16,0.42,4.79c-0.25,1.66-0.9,3.13-1.95,4.42c-1.05,1.29-2.38,2.14-3.98,2.55
						c-2.71,0.44-5.15-0.25-7.3-2.07c-1.85-1.66-3.31-3.62-4.38-5.89c-1.07-2.27-1.97-4.56-2.72-6.89c-0.33-1-0.73-1.99-1.2-2.99
						s-1.09-1.85-1.87-2.57c-0.64-0.52-1.43-0.86-2.39-1c-0.95-0.14-1.75,0.11-2.39,0.75c-0.3,0.36-0.48,0.78-0.52,1.27
						c-0.04,0.48-0.01,0.96,0.1,1.43c0.22,1.3,0.34,2.6,0.37,3.9c0.05,0.64,0.12,1.26,0.21,1.87c0.17,0.91,0.22,1.84,0.17,2.78
						c-0.14,1.99-0.73,3.91-1.78,5.75c-1.05,1.84-2.64,2.95-4.77,3.34c-2.49,0.25-4.77-0.26-6.85-1.54s-3.61-3.04-4.61-5.31
						c-0.58-1.33-0.98-2.67-1.18-4.03c-0.21-1.36-0.35-2.73-0.44-4.11c-0.06-0.91-0.14-1.83-0.25-2.74
						c-0.08-0.83-0.18-1.65-0.29-2.45c-0.36-2.68-0.6-5.4-0.71-8.13c-0.19-4.07,0.1-8.04,0.87-11.93c0.77-3.89,2.6-7.37,5.48-10.44
						c2.46-2.43,5.24-4.14,8.34-5.11c3.1-0.97,6.32-1.55,9.67-1.74c4.65-0.39,8.96,0.25,12.95,1.91s6.93,4.8,8.84,9.42
						c0.97,2.57,1.29,5,0.95,7.26s-1.18,4.59-2.53,6.97c-0.8,1.44-1.81,2.73-3.03,3.86c-0.33,0.28-0.68,0.54-1.04,0.79
						c-0.44,0.3-0.85,0.64-1.22,1c-0.37,0.36-0.64,0.8-0.81,1.33c-0.22,0.8-0.08,1.49,0.44,2.07c0.51,0.58,1.11,1.09,1.81,1.54
						c0.3,0.25,0.59,0.48,0.87,0.71C361.89,40.02,363.41,41.64,364.71,43.46z M339.02,19.43c-0.39,1.05-0.51,2.17-0.37,3.36
						c0.03,0.28,0.07,0.55,0.12,0.83c0.06,0.28,0.17,0.51,0.33,0.71c0.22,0.22,0.48,0.37,0.77,0.44c0.29,0.07,0.59,0.09,0.89,0.06
						c0.66,0.03,1.31-0.07,1.95-0.29c1.16-0.53,1.86-1.35,2.1-2.47c0.24-1.12-0.08-2.14-0.93-3.05c-0.78-0.77-1.65-1.16-2.62-1.16
						S339.54,18.38,339.02,19.43z"/>
					<path class="st2" d="M359.78,61.29c-2.46,0-4.72-0.86-6.74-2.57c-2.04-1.82-3.63-3.97-4.78-6.42
						c-1.09-2.31-2.03-4.69-2.79-7.07c-0.31-0.92-0.69-1.86-1.13-2.8c-0.39-0.82-0.89-1.51-1.52-2.1c-0.35-0.28-0.88-0.5-1.55-0.6
						c-0.53-0.07-0.81,0.07-1.01,0.26c-0.07,0.1-0.11,0.21-0.12,0.35c-0.03,0.32,0,0.63,0.07,0.94l0.02,0.1
						c0.23,1.37,0.36,2.76,0.39,4.13c0.05,0.51,0.11,1.11,0.19,1.7c0.18,0.96,0.24,2.02,0.18,3.08c-0.16,2.23-0.82,4.39-1.99,6.43
						c-1.28,2.25-3.25,3.62-5.84,4.1l-0.12,0.02c-2.82,0.28-5.45-0.31-7.81-1.76c-2.34-1.44-4.09-3.46-5.22-6.01
						c-0.63-1.44-1.07-2.93-1.3-4.41c-0.21-1.4-0.37-2.83-0.45-4.25c-0.05-0.88-0.13-1.77-0.24-2.65c-0.08-0.84-0.18-1.64-0.29-2.43
						c-0.37-2.72-0.61-5.51-0.72-8.28c-0.2-4.16,0.1-8.3,0.9-12.3c0.83-4.16,2.8-7.92,5.87-11.2c2.67-2.64,5.69-4.48,9.01-5.52
						c3.21-1,6.59-1.61,10.04-1.81c4.84-0.4,9.44,0.28,13.64,2.02c4.36,1.82,7.61,5.27,9.68,10.26c1.08,2.86,1.42,5.56,1.05,8.08
						c-0.36,2.45-1.27,4.98-2.72,7.52c-0.87,1.56-1.99,2.99-3.32,4.23c-0.43,0.36-0.81,0.65-1.21,0.93
						c-0.38,0.26-0.72,0.54-1.04,0.84c-0.18,0.18-0.32,0.4-0.41,0.68c-0.08,0.31,0,0.44,0.12,0.58c0.42,0.47,0.91,0.89,1.48,1.26
						l0.15,0.11c0.3,0.25,0.58,0.48,0.86,0.69c1.85,1.5,3.48,3.23,4.86,5.17l0,0c1.06,1.49,1.86,3.12,2.38,4.83
						c0.53,1.76,0.69,3.59,0.47,5.42c-0.3,1.98-1.06,3.72-2.29,5.22c-1.26,1.54-2.88,2.58-4.8,3.07l-0.14,0.03
						C360.98,61.24,360.37,61.29,359.78,61.29z M340.99,36.6c0.23,0,0.47,0.02,0.72,0.05c1.24,0.18,2.3,0.63,3.15,1.33
						c0.99,0.91,1.73,1.94,2.28,3.11c0.49,1.05,0.92,2.11,1.27,3.16c0.73,2.27,1.62,4.52,2.65,6.72c0.97,2.07,2.32,3.88,4.01,5.4
						c1.76,1.49,3.71,2.05,5.95,1.71c1.26-0.34,2.27-1,3.1-2.01c0.88-1.08,1.41-2.28,1.62-3.67c0.16-1.36,0.04-2.76-0.37-4.12
						c-0.42-1.39-1.07-2.71-1.94-3.92v0c-1.21-1.71-2.65-3.24-4.28-4.55c-0.25-0.2-0.53-0.42-0.81-0.66
						c-0.78-0.51-1.47-1.1-2.06-1.77c-0.85-0.96-1.12-2.21-0.77-3.51c0.26-0.83,0.67-1.49,1.23-2.03c0.44-0.42,0.92-0.81,1.42-1.16
						c0.31-0.22,0.62-0.45,0.92-0.7c1.03-0.96,1.95-2.13,2.67-3.43c1.26-2.21,2.05-4.38,2.35-6.44c0.29-2,0-4.18-0.87-6.49
						c-1.75-4.22-4.36-7.03-7.99-8.54c-3.73-1.56-7.85-2.16-12.22-1.79c-3.24,0.19-6.37,0.75-9.34,1.68
						c-2.85,0.89-5.44,2.48-7.71,4.73c-2.62,2.8-4.34,6.06-5.05,9.64c-0.75,3.75-1.03,7.63-0.84,11.56c0.11,2.69,0.34,5.38,0.69,8
						c0.11,0.82,0.21,1.65,0.3,2.5c0.11,0.91,0.2,1.86,0.25,2.8c0.08,1.33,0.22,2.66,0.42,3.97c0.19,1.22,0.55,2.44,1.07,3.64
						c0.87,1.99,2.18,3.5,4,4.61c1.78,1.09,3.69,1.52,5.82,1.32c1.64-0.31,2.83-1.16,3.64-2.57c0.93-1.63,1.46-3.34,1.58-5.09
						c0.05-0.8,0-1.61-0.14-2.4c-0.1-0.7-0.17-1.35-0.23-2.01c-0.03-1.3-0.15-2.53-0.35-3.73c-0.14-0.61-0.18-1.24-0.13-1.87
						c0.07-0.81,0.37-1.53,0.88-2.14l0.09-0.09C338.82,37.02,339.84,36.6,340.99,36.6z M340.5,26.39c-0.34,0-0.67-0.04-1-0.12
						c-0.57-0.14-1.08-0.42-1.5-0.85l-0.08-0.09c-0.34-0.4-0.57-0.87-0.68-1.41c-0.07-0.33-0.11-0.65-0.15-0.98
						c-0.16-1.4-0.01-2.77,0.46-4.05l0.07-0.16c0.78-1.57,2.07-2.43,3.63-2.43c1.39,0,2.64,0.54,3.71,1.62
						c1.24,1.32,1.7,2.85,1.36,4.47c-0.34,1.6-1.37,2.84-2.97,3.56L343.22,26c-0.79,0.27-1.61,0.4-2.43,0.38
						C340.7,26.39,340.6,26.39,340.5,26.39z M340.28,23.26c0.12,0.03,0.23,0.04,0.34,0.03l0.1-0.01l0.1,0
						c0.45,0.02,0.88-0.04,1.31-0.18c0.86-0.41,1.07-0.93,1.15-1.35c0.09-0.44,0.1-0.98-0.55-1.67c-0.6-0.6-1.14-0.67-1.49-0.67
						c-0.18,0-0.47,0-0.82,0.65c-0.28,0.8-0.37,1.64-0.26,2.56C340.21,22.84,340.24,23.05,340.28,23.26z"/>
				</g>
				<g>
					<path id="XMLID_00000072270892692578146570000009358010886490596014_" class="st1" d="M410.36,46.45
						c0.17,2.63-0.07,5.02-0.71,7.18c-0.55,1.74-1.48,3.07-2.78,3.96c-1.3,0.9-2.84,1.51-4.61,1.85c-5.59,1.11-10.92,0.9-16-0.62
						c-5.08-1.52-9.44-4.54-13.09-9.05c-4.01-5.34-6.06-11.39-6.14-18.14s1.63-12.94,5.15-18.55c3.35-4.92,7.92-8.32,13.72-10.19
						c5.8-1.87,11.53-1.79,17.2,0.23c1.35,0.5,2.42,1.33,3.2,2.49c0.47,0.8,0.74,1.67,0.81,2.62c0.07,0.94,0.05,1.9-0.06,2.86
						c-0.08,1.66-0.53,3.2-1.33,4.61c-1.27,1.74-3,2.57-5.19,2.49c-0.97-0.03-1.92-0.11-2.86-0.25c-0.08,0-0.18-0.01-0.29-0.04
						c-0.33-0.03-0.68-0.08-1.04-0.17c-0.89-0.22-1.72-0.28-2.49-0.17c-0.36,0.06-0.67,0.2-0.93,0.44
						c-0.26,0.24-0.42,0.52-0.48,0.85c-0.03,0.41,0.09,0.77,0.35,1.06c0.26,0.29,0.57,0.52,0.93,0.68c1.19,0.44,2.43,0.61,3.74,0.5
						c0.88-0.05,1.76-0.01,2.61,0.12c2.35,0.58,3.93,2.01,4.73,4.3c0.8,2.28,0.68,4.48-0.37,6.58c-0.97,1.61-2.37,2.61-4.19,3.03
						c-0.97,0.17-1.96,0.21-2.99,0.12c-1.22-0.11-2.41,0-3.57,0.33c-0.42,0.14-0.8,0.35-1.14,0.64c-0.35,0.29-0.55,0.64-0.6,1.06
						c-0.03,0.39,0.06,0.75,0.27,1.08c0.21,0.33,0.48,0.58,0.81,0.75c0.69,0.3,1.42,0.4,2.2,0.29c1.13-0.14,2.23-0.4,3.28-0.79
						c1.22-0.44,2.46-0.72,3.74-0.83c2.21-0.06,4.09,0.71,5.64,2.28C409.37,41.77,410.2,43.91,410.36,46.45z"/>
					<path class="st2" d="M395.36,61.69c-3.27,0-6.46-0.46-9.53-1.38c-5.36-1.61-10.02-4.82-13.85-9.56
						c-4.23-5.63-6.4-12.04-6.49-19.09c-0.09-7.02,1.72-13.55,5.38-19.39c3.56-5.24,8.45-8.88,14.56-10.84
						c6.1-1.97,12.23-1.88,18.2,0.24c1.68,0.62,3.01,1.65,3.96,3.09c0.64,1.08,0.98,2.19,1.07,3.36c0.08,1.04,0.05,2.1-0.07,3.15
						c-0.09,1.8-0.6,3.58-1.52,5.2l-0.1,0.15c-1.55,2.12-3.76,3.19-6.41,3.13c2.78,0.72,4.75,2.54,5.71,5.26
						c0.94,2.68,0.79,5.3-0.45,7.79l-0.06,0.11c-0.96,1.6-2.29,2.72-3.95,3.37c0.1-0.01,0.19-0.02,0.29-0.03
						c2.74-0.08,5.03,0.85,6.88,2.74c1.78,2.04,2.74,4.5,2.93,7.38v0c0.18,2.8-0.08,5.39-0.77,7.72c-0.67,2.1-1.8,3.71-3.39,4.8
						c-1.47,1.02-3.22,1.72-5.2,2.1C400.12,61.45,397.72,61.69,395.36,61.69z M394.21,3.1c-2.6,0-5.22,0.42-7.83,1.26
						c-5.43,1.75-9.78,4.98-12.91,9.58c-3.3,5.28-4.96,11.24-4.88,17.66c0.08,6.38,2.04,12.18,5.83,17.22
						c3.4,4.2,7.55,7.07,12.3,8.49c4.81,1.44,9.94,1.64,15.25,0.59c1.56-0.29,2.91-0.83,4.03-1.6c1.02-0.7,1.73-1.74,2.18-3.16
						c0.57-1.94,0.79-4.18,0.64-6.61l0,0c-0.14-2.22-0.83-4.01-2.11-5.47c-1.18-1.2-2.68-1.79-4.44-1.75
						c-1.04,0.09-2.16,0.34-3.24,0.74c-1.15,0.43-2.38,0.72-3.62,0.87c-1.03,0.15-2.05,0.01-3.01-0.41
						c-0.66-0.33-1.14-0.77-1.5-1.34c-0.39-0.62-0.55-1.3-0.5-2.01c0.11-0.89,0.51-1.59,1.15-2.13c0.49-0.41,1.05-0.73,1.65-0.93
						c1.41-0.4,2.8-0.53,4.2-0.41c0.88,0.07,1.75,0.03,2.59-0.11c1.31-0.3,2.35-1.04,3.09-2.25c0.84-1.71,0.92-3.45,0.27-5.31
						c-0.62-1.78-1.76-2.82-3.58-3.29c-0.72-0.11-1.46-0.14-2.21-0.1c-1.49,0.13-2.97-0.07-4.37-0.59L393.07,22
						c-0.55-0.25-1.03-0.61-1.43-1.05c-0.55-0.6-0.81-1.37-0.75-2.2l0.02-0.15c0.11-0.68,0.45-1.29,0.98-1.76
						c0.49-0.44,1.07-0.71,1.73-0.81c0.99-0.14,2.02-0.07,3.1,0.19c0.26,0.06,0.54,0.1,0.79,0.13l0.39,0.05
						c0.87,0.13,1.77,0.21,2.68,0.23c1.66,0.07,2.88-0.51,3.84-1.78c0.66-1.19,1.01-2.44,1.08-3.84c0.11-0.96,0.13-1.83,0.06-2.67
						c-0.05-0.71-0.25-1.34-0.6-1.94c-0.54-0.81-1.34-1.43-2.39-1.82C399.81,3.6,397.02,3.1,394.21,3.1z M396.35,36.75
						c-0.77,0-1.52,0.1-2.24,0.31c-0.17,0.06-0.37,0.17-0.57,0.34c-0.06,0.04-0.05,0.07-0.02,0.13c0.07,0.11,0.13,0.16,0.19,0.18
						c0.36,0.15,0.8,0.21,1.29,0.14c1.04-0.13,2.03-0.36,2.96-0.71c0.34-0.12,0.68-0.24,1.03-0.34c-0.62,0.04-1.24,0.03-1.86-0.03
						C396.86,36.77,396.6,36.75,396.35,36.75z M394.32,19.16c0.96,0.35,1.94,0.47,3,0.38c0.16-0.01,0.33-0.02,0.49-0.02
						c-0.1-0.01-0.2-0.03-0.29-0.04c-0.13-0.01-0.26-0.02-0.39-0.05c-0.37-0.04-0.75-0.1-1.14-0.19c-0.66-0.17-1.26-0.22-1.8-0.16
						C394.23,19.11,394.27,19.14,394.32,19.16z"/>
				</g>
				<g>
					<path id="XMLID_00000043422717257937235010000000524848066072359061_" class="st1" d="M458.75,14.87
						c-1.77,1.96-3.98,4.9-6.62,8.82c-2.64,3.92-3.58,6.71-2.8,8.38c0.77,1.67,2.85,4.6,6.23,8.78c1.74,1.8,3.19,3.67,4.34,5.62
						c1.15,1.95,1.56,4.08,1.22,6.37c-0.61,2.79-2.5,4.88-5.69,6.27c-3.26,1.22-6.52,1.16-9.75-0.17c-1.52-0.66-2.81-1.48-3.86-2.45
						c-1.05-0.97-2.02-2.05-2.9-3.24c-0.11-0.11-0.26-0.28-0.46-0.5c-0.64-0.77-1.44-1.8-2.41-3.07c-1.22,1.85-2.59,3.62-4.13,5.31
						c-1.54,1.69-3.32,2.98-5.35,3.88c-2.03,0.9-4.41,1.1-7.12,0.6c-3.02-0.61-5.2-1.74-6.56-3.38c-1.36-1.65-1.58-3.69-0.66-6.12
						c1.3-2.66,3.03-5.13,5.19-7.43c0.55-0.64,1.08-1.25,1.58-1.83c4.62-5.7,6.7-9.61,6.25-11.75c-0.46-2.13-2.35-4.8-5.69-8.01
						c-3.33-3.21-5.75-5.78-7.26-7.7c-1.51-1.92-1.92-4.06-1.22-6.41c0.55-1.49,1.68-2.67,3.38-3.53c1.7-0.86,3.56-1.27,5.58-1.24
						c0.3,0,0.59,0.01,0.87,0.04c2.32,0.25,4.34,0.91,6.04,1.99c1.7,1.08,3.51,2.74,5.42,4.98c1.91,2.24,3.38,4.36,4.4,6.35
						c1.19-2.41,2.65-4.7,4.38-6.89s4.05-3.94,6.95-5.27c1.8-0.75,3.69-1.23,5.67-1.45c1.98-0.22,3.78-0.01,5.42,0.64
						c1.63,0.65,2.77,1.87,3.4,3.67c0.42,1.55,0.19,3.07-0.68,4.54C461.02,12.17,459.97,13.57,458.75,14.87z"/>
					<path class="st2" d="M450.74,61.53c-1.9,0-3.78-0.38-5.65-1.15c-1.71-0.74-3.15-1.66-4.32-2.74c-1.09-1-2.11-2.14-3.03-3.37
						c-0.12-0.12-0.27-0.29-0.45-0.49c-0.35-0.43-0.74-0.92-1.17-1.46c-0.94,1.29-1.96,2.54-3.05,3.73
						c-1.67,1.84-3.65,3.27-5.87,4.25c-2.32,1.02-5.02,1.26-8.03,0.71c-3.39-0.68-5.89-2-7.47-3.92c-1.19-1.44-2.31-3.94-0.92-7.65
						l0.06-0.14c1.36-2.78,3.19-5.41,5.45-7.81c0.51-0.59,1.04-1.2,1.53-1.77c5.81-7.16,6.07-9.67,5.91-10.41
						c-0.27-1.25-1.39-3.51-5.25-7.22c-3.37-3.24-5.86-5.89-7.41-7.86c-1.83-2.33-2.33-4.96-1.49-7.81l0.03-0.1
						c0.69-1.87,2.08-3.34,4.14-4.38c1.92-0.97,4.05-1.44,6.3-1.41c0.32,0.03,0.68,0.02,1,0.05c2.57,0.27,4.82,1.02,6.72,2.23
						c1.83,1.16,3.77,2.94,5.77,5.28c1.22,1.43,2.28,2.84,3.17,4.19c0.95-1.62,2.03-3.19,3.22-4.69c1.88-2.37,4.41-4.29,7.52-5.72
						c1.97-0.82,4.02-1.35,6.14-1.58c2.23-0.25,4.3,0,6.16,0.74c2.06,0.82,3.5,2.37,4.29,4.6l0.04,0.12
						c0.53,1.96,0.24,3.89-0.85,5.73c-0.92,1.57-2.04,3.06-3.33,4.43c-1.72,1.91-3.89,4.81-6.48,8.64
						c-3.22,4.78-2.87,6.46-2.68,6.86c0.49,1.06,1.93,3.38,5.98,8.4c1.8,1.87,3.32,3.84,4.51,5.87c1.33,2.25,1.81,4.74,1.42,7.38
						l-0.02,0.11c-0.72,3.3-2.93,5.77-6.58,7.36C454.27,61.2,452.5,61.53,450.74,61.53z M435.96,47l1.33,1.75
						c0.94,1.24,1.74,2.26,2.37,3.03c0.13,0.15,0.26,0.29,0.35,0.38l0.15,0.18c0.82,1.11,1.74,2.12,2.71,3.02
						c0.92,0.85,2.07,1.58,3.43,2.17c2.86,1.17,5.68,1.22,8.59,0.13c2.62-1.14,4.19-2.82,4.7-5.09c0.27-1.93-0.07-3.67-1.03-5.31
						c-1.08-1.83-2.46-3.63-4.12-5.33l-0.09-0.1c-3.49-4.31-5.59-7.29-6.43-9.1c-1.04-2.25-0.12-5.4,2.92-9.9
						c2.67-3.95,4.94-6.98,6.75-8.99l0.02-0.02c1.13-1.21,2.12-2.52,2.93-3.9c0.65-1.1,0.82-2.18,0.54-3.3
						c-0.49-1.34-1.3-2.22-2.49-2.69c-1.39-0.55-2.96-0.73-4.67-0.54c-1.83,0.21-3.59,0.66-5.24,1.34c-2.62,1.2-4.76,2.82-6.33,4.8
						c-1.65,2.09-3.07,4.32-4.2,6.61l-1.36,2.76l-1.41-2.74c-0.97-1.88-2.38-3.92-4.2-6.05c-1.8-2.11-3.5-3.69-5.07-4.68
						c-1.49-0.95-3.3-1.54-5.37-1.76c-0.26-0.03-0.57-0.03-0.87-0.03c-1.72,0-3.3,0.36-4.72,1.08c-1.33,0.67-2.19,1.53-2.61,2.63
						c-0.53,1.86-0.22,3.44,0.97,4.96c1.46,1.86,3.85,4.4,7.12,7.54c3.6,3.46,5.6,6.34,6.13,8.8c0.58,2.71-1.44,6.74-6.56,13.05
						c-0.53,0.62-1.06,1.23-1.61,1.87c-2.06,2.2-3.71,4.55-4.93,7.02c-0.91,2.48-0.19,3.77,0.43,4.52c1.12,1.36,3.02,2.31,5.67,2.85
						c2.36,0.43,4.45,0.27,6.18-0.5c1.83-0.81,3.45-1.99,4.83-3.5c1.47-1.62,2.81-3.34,3.98-5.12L435.96,47z"/>
				</g>
			</g>
		</g>
	</g>
</g>
</svg>
