<?xml version="1.0" encoding="utf-8"?>
<!-- Generator: Adobe Illustrator 25.4.1, SVG Export Plug-In . SVG Version: 6.00 Build 0)  -->
<svg version="1.1" id="圖層_1" xmlns="http://www.w3.org/2000/svg" xmlns:xlink="http://www.w3.org/1999/xlink" x="0px" y="0px"
	 viewBox="0 0 237.41 66.23" style="enable-background:new 0 0 237.41 66.23;" xml:space="preserve">
<style type="text/css">
	.st0{fill:#231815;}
	.st1{fill:#F7B52C;}
	.st2{fill:#FFFFFF;}
</style>
<g id="XMLID_22374_">
	<path id="XMLID_22375_" class="st0" d="M53.15,49.65c0.95,1.33,1.66,2.76,2.12,4.3s0.6,3.1,0.41,4.71
		c-0.24,1.63-0.88,3.08-1.92,4.34s-2.34,2.1-3.91,2.51c-2.66,0.43-5.05-0.24-7.17-2.04c-1.82-1.63-3.25-3.56-4.3-5.79
		s-1.94-4.48-2.67-6.76c-0.33-0.98-0.72-1.96-1.18-2.93c-0.46-0.98-1.07-1.82-1.83-2.53c-0.62-0.52-1.41-0.84-2.34-0.98
		s-1.72,0.11-2.34,0.73c-0.3,0.35-0.47,0.77-0.51,1.24c-0.04,0.48-0.01,0.94,0.1,1.41c0.22,1.28,0.34,2.55,0.37,3.83
		c0.05,0.62,0.12,1.24,0.2,1.83c0.16,0.9,0.22,1.81,0.16,2.73c-0.14,1.96-0.72,3.84-1.75,5.64c-1.03,1.81-2.59,2.9-4.69,3.28
		c-2.45,0.24-4.69-0.26-6.72-1.51s-3.54-2.99-4.52-5.21c-0.57-1.3-0.96-2.62-1.16-3.95s-0.35-2.67-0.43-4.03
		c-0.05-0.9-0.14-1.79-0.24-2.69c-0.08-0.81-0.18-1.62-0.29-2.4c-0.35-2.63-0.58-5.3-0.69-7.99c-0.19-3.99,0.09-7.9,0.86-11.71
		c0.76-3.82,2.55-7.23,5.38-10.25c2.42-2.39,5.15-4.06,8.19-5.01c3.04-0.95,6.21-1.52,9.49-1.71c4.56-0.38,8.8,0.24,12.71,1.87
		s6.8,4.71,8.68,9.25c0.95,2.53,1.26,4.9,0.94,7.13c-0.33,2.23-1.16,4.51-2.49,6.84c-0.79,1.41-1.78,2.68-2.97,3.79
		c-0.33,0.27-0.67,0.53-1.02,0.77c-0.43,0.3-0.83,0.62-1.2,0.98c-0.37,0.35-0.63,0.79-0.79,1.3c-0.22,0.79-0.08,1.47,0.43,2.04
		c0.5,0.57,1.09,1.07,1.77,1.51c0.3,0.24,0.58,0.47,0.86,0.69C50.38,46.27,51.87,47.86,53.15,49.65z M27.93,26.06
		c-0.38,1.03-0.5,2.13-0.37,3.3c0.03,0.27,0.07,0.54,0.12,0.81c0.05,0.27,0.16,0.5,0.33,0.69c0.22,0.22,0.47,0.36,0.75,0.43
		s0.58,0.09,0.88,0.06c0.65,0.03,1.29-0.07,1.92-0.29c1.14-0.52,1.83-1.32,2.06-2.42s-0.08-2.1-0.92-3
		c-0.76-0.76-1.62-1.14-2.57-1.14C29.18,24.51,28.45,25.03,27.93,26.06z"/>
	<path id="XMLID_22378_" class="st0" d="M94.5,16.53c0.08,0.41,0.15,0.8,0.2,1.18c0.3,1.52,0.39,3.06,0.26,4.6s-0.75,2.81-1.89,3.79
		c-0.9,0.65-1.91,1-3.04,1.06s-2.23-0.07-3.32-0.37c-0.22-0.08-0.43-0.15-0.65-0.2c-1.2-0.43-2.39-0.57-3.59-0.41
		c-0.73,0.19-1.29,0.61-1.67,1.26s-0.37,1.28,0.04,1.87c0.35,0.41,0.81,0.62,1.37,0.63c0.56,0.01,1.15-0.03,1.77-0.14
		c0.57-0.11,1.13-0.18,1.67-0.2c1.55,0.16,2.74,0.9,3.59,2.2c0.71,1.25,1.14,2.61,1.3,4.07c0.19,1.14,0.19,2.28,0,3.4
		c-0.19,1.13-0.73,2.03-1.63,2.71c-1.14,0.68-2.42,0.95-3.83,0.81c-0.24,0-0.49-0.01-0.73-0.04c-0.87-0.05-1.77-0.05-2.71,0.02
		s-1.71,0.36-2.3,0.88c-0.38,0.38-0.61,0.84-0.69,1.39c-0.08,0.54,0.01,1.06,0.29,1.55c0.33,0.6,0.82,1.03,1.49,1.3
		s1.35,0.41,2.06,0.41c0.76-0.03,1.52-0.11,2.28-0.24c0.62-0.11,1.25-0.19,1.88-0.24c1.85-0.08,3.56,0.35,5.15,1.28
		c1.59,0.94,2.78,2.22,3.57,3.85c0.98,2.23,1.04,4.45,0.2,6.66c-0.84,2.21-2.42,3.8-4.73,4.75c-5.57,1.93-11.2,2-16.89,0.22
		s-10.18-5.03-13.47-9.76c-3.45-5.38-5.13-11.3-5.05-17.76s2.09-12.26,6.03-17.4c2.8-3.45,6.25-6.15,10.35-8.09
		c4.1-1.94,8.43-2.76,13-2.46c2.47,0.16,4.58,0.83,6.32,2.02S93.99,14.11,94.5,16.53z"/>
	<path id="XMLID_22380_" class="st0" d="M143.52,49.65c0.95,1.33,1.66,2.76,2.12,4.3c0.46,1.54,0.6,3.1,0.41,4.71
		c-0.24,1.63-0.88,3.08-1.92,4.34s-2.34,2.1-3.91,2.51c-2.66,0.43-5.05-0.24-7.17-2.04c-1.82-1.63-3.25-3.56-4.3-5.79
		s-1.94-4.48-2.67-6.76c-0.33-0.98-0.72-1.96-1.18-2.93c-0.46-0.98-1.07-1.82-1.83-2.53c-0.62-0.52-1.41-0.84-2.34-0.98
		s-1.72,0.11-2.34,0.73c-0.3,0.35-0.47,0.77-0.51,1.24c-0.04,0.48-0.01,0.94,0.1,1.41c0.22,1.28,0.34,2.55,0.37,3.83
		c0.05,0.62,0.12,1.24,0.2,1.83c0.16,0.9,0.22,1.81,0.16,2.73c-0.14,1.96-0.72,3.84-1.75,5.64c-1.03,1.81-2.59,2.9-4.69,3.28
		c-2.45,0.24-4.69-0.26-6.72-1.51s-3.54-2.99-4.52-5.21c-0.57-1.3-0.96-2.62-1.16-3.95c-0.2-1.33-0.35-2.67-0.43-4.03
		c-0.05-0.9-0.14-1.79-0.24-2.69c-0.08-0.81-0.18-1.62-0.29-2.4c-0.35-2.63-0.58-5.3-0.69-7.99c-0.19-3.99,0.09-7.9,0.86-11.71
		c0.76-3.82,2.55-7.23,5.38-10.25c2.42-2.39,5.15-4.06,8.19-5.01c3.04-0.95,6.21-1.52,9.49-1.71c4.56-0.38,8.8,0.24,12.71,1.87
		s6.8,4.71,8.68,9.25c0.95,2.53,1.26,4.9,0.94,7.13c-0.33,2.23-1.16,4.51-2.49,6.84c-0.79,1.41-1.78,2.68-2.97,3.79
		c-0.33,0.27-0.67,0.53-1.02,0.77c-0.43,0.3-0.83,0.62-1.2,0.98c-0.37,0.35-0.63,0.79-0.79,1.3c-0.22,0.79-0.08,1.47,0.43,2.04
		c0.5,0.57,1.09,1.07,1.77,1.51c0.3,0.24,0.58,0.47,0.86,0.69C140.75,46.27,142.24,47.86,143.52,49.65z M118.3,26.06
		c-0.38,1.03-0.5,2.13-0.37,3.3c0.03,0.27,0.07,0.54,0.12,0.81c0.05,0.27,0.16,0.5,0.33,0.69c0.22,0.22,0.47,0.36,0.75,0.43
		s0.58,0.09,0.88,0.06c0.65,0.03,1.29-0.07,1.92-0.29c1.14-0.52,1.83-1.32,2.06-2.42c0.23-1.1-0.08-2.1-0.92-3
		c-0.76-0.76-1.62-1.14-2.57-1.14C119.55,24.51,118.82,25.03,118.3,26.06z"/>
	<path id="XMLID_22383_" class="st0" d="M184.87,16.53c0.08,0.41,0.15,0.8,0.2,1.18c0.3,1.52,0.39,3.06,0.26,4.6
		s-0.75,2.81-1.89,3.79c-0.9,0.65-1.91,1-3.04,1.06s-2.23-0.07-3.32-0.37c-0.22-0.08-0.43-0.15-0.65-0.2
		c-1.2-0.43-2.39-0.57-3.59-0.41c-0.73,0.19-1.29,0.61-1.67,1.26s-0.37,1.28,0.04,1.87c0.35,0.41,0.81,0.62,1.37,0.63
		c0.56,0.01,1.15-0.03,1.77-0.14c0.57-0.11,1.13-0.18,1.67-0.2c1.55,0.16,2.74,0.9,3.59,2.2c0.71,1.25,1.14,2.61,1.3,4.07
		c0.19,1.14,0.19,2.28,0,3.4c-0.19,1.13-0.73,2.03-1.63,2.71c-1.14,0.68-2.42,0.95-3.83,0.81c-0.24,0-0.49-0.01-0.73-0.04
		c-0.87-0.05-1.77-0.05-2.71,0.02s-1.71,0.36-2.3,0.88c-0.38,0.38-0.61,0.84-0.69,1.39c-0.08,0.54,0.01,1.06,0.29,1.55
		c0.33,0.6,0.82,1.03,1.49,1.3s1.35,0.41,2.06,0.41c0.76-0.03,1.52-0.11,2.28-0.24c0.62-0.11,1.25-0.19,1.88-0.24
		c1.85-0.08,3.56,0.35,5.15,1.28c1.59,0.94,2.78,2.22,3.57,3.85c0.98,2.23,1.04,4.45,0.2,6.66s-2.42,3.8-4.73,4.75
		c-5.57,1.93-11.2,2-16.89,0.22s-10.18-5.03-13.47-9.76c-3.45-5.38-5.13-11.3-5.05-17.76s2.09-12.26,6.03-17.4
		c2.8-3.45,6.25-6.15,10.35-8.09s8.43-2.76,13-2.46c2.47,0.16,4.58,0.83,6.32,2.02S184.36,14.11,184.87,16.53z"/>
	<path id="XMLID_22385_" class="st0" d="M234.22,50.3c1.14,1.47,2.01,3,2.61,4.6s0.73,3.21,0.41,4.81c-0.41,1.66-1.4,3.11-2.97,4.36
		s-3.5,1.96-5.79,2.12c-2.77,0-5.21-0.71-7.33-2.12c-1.93-1.39-3.49-2.97-4.69-4.77c-1.03-1.44-2.02-2.95-2.97-4.52
		c-1.17,2.66-2.65,5.23-4.44,7.7c-1.22,1.6-2.87,2.67-4.93,3.22c-2.06,0.54-4.29,0.67-6.68,0.37c-2.66-0.27-4.71-1.24-6.15-2.89
		c-0.84-1.39-1.04-2.8-0.59-4.26s1.08-2.84,1.89-4.18c0.08-0.19,0.18-0.39,0.29-0.61c1.3-2.31,2.69-4.59,4.16-6.85
		c2.09-3.26,3.37-5.96,3.83-8.11s-1.47-5.72-5.79-10.72c-1.6-1.36-3.1-2.76-4.48-4.22c-1.39-1.45-2.38-3.05-2.97-4.79
		c-0.54-1.82-0.35-3.58,0.59-5.3c0.94-1.71,2.55-2.88,4.83-3.5c2.06-0.38,4.08-0.2,6.05,0.53s3.71,1.71,5.24,2.93
		c2.82,2.36,5.28,5.36,7.38,9c0,0.03,0.01,0.05,0.04,0.08v0.04c1.17-2.01,2.39-4.01,3.67-5.99c1.17-2.06,2.7-3.92,4.6-5.58
		c0.57-0.46,1.21-0.88,1.92-1.26c2.12-1.03,4.46-1.38,7.03-1.06c2.57,0.33,4.46,1.33,5.68,3.02c1,1.85,1.21,3.78,0.61,5.79
		c-0.68,3.1-2.12,5.99-4.32,8.68c-1.66,1.98-2.88,4.11-3.67,6.38s-0.61,4.54,0.53,6.82C229.63,43.6,231.77,47.02,234.22,50.3z"/>
</g>
<g id="XMLID_22361_">
	<g>
		<path id="XMLID_00000090991360836566121180000012581610095366758819_" class="st1" d="M47.36,43.06c0.95,1.33,1.66,2.76,2.12,4.3
			s0.6,3.1,0.41,4.71c-0.24,1.63-0.88,3.08-1.92,4.34s-2.34,2.1-3.91,2.51c-2.66,0.43-5.05-0.24-7.17-2.04
			c-1.82-1.63-3.25-3.56-4.3-5.79s-1.94-4.48-2.67-6.76c-0.33-0.98-0.72-1.96-1.18-2.93c-0.46-0.98-1.07-1.82-1.83-2.53
			c-0.62-0.52-1.41-0.84-2.34-0.98s-1.72,0.11-2.34,0.73c-0.3,0.35-0.47,0.77-0.51,1.24c-0.04,0.48-0.01,0.94,0.1,1.41
			c0.22,1.28,0.34,2.55,0.37,3.83c0.05,0.62,0.12,1.24,0.2,1.83c0.16,0.9,0.22,1.81,0.16,2.73c-0.14,1.96-0.72,3.84-1.75,5.64
			c-1.03,1.81-2.59,2.9-4.69,3.28c-2.45,0.24-4.69-0.26-6.72-1.51s-3.54-2.99-4.52-5.21c-0.57-1.3-0.96-2.62-1.16-3.95
			c-0.2-1.33-0.35-2.67-0.43-4.03c-0.05-0.9-0.14-1.79-0.24-2.69c-0.08-0.81-0.18-1.62-0.29-2.4c-0.35-2.63-0.58-5.3-0.69-7.99
			c-0.19-3.99,0.09-7.9,0.86-11.71c0.76-3.82,2.55-7.23,5.38-10.25c2.42-2.39,5.15-4.06,8.19-5.01s6.21-1.52,9.49-1.71
			c4.56-0.38,8.8,0.24,12.71,1.87s6.8,4.71,8.68,9.25c0.95,2.53,1.26,4.9,0.94,7.13c-0.33,2.23-1.16,4.51-2.49,6.84
			c-0.79,1.41-1.78,2.68-2.97,3.79c-0.33,0.27-0.67,0.53-1.02,0.77c-0.43,0.3-0.83,0.62-1.2,0.98c-0.37,0.35-0.63,0.79-0.79,1.3
			c-0.22,0.79-0.08,1.47,0.43,2.04c0.5,0.57,1.09,1.07,1.77,1.51c0.3,0.24,0.58,0.47,0.86,0.69C44.59,39.67,46.09,41.26,47.36,43.06
			z M22.14,19.47c-0.38,1.03-0.5,2.13-0.37,3.3c0.03,0.27,0.07,0.54,0.12,0.81c0.05,0.27,0.16,0.5,0.33,0.69
			c0.22,0.22,0.47,0.36,0.75,0.43s0.58,0.09,0.88,0.06c0.65,0.03,1.29-0.07,1.92-0.29c1.14-0.52,1.83-1.32,2.06-2.42
			s-0.08-2.1-0.92-3c-0.76-0.76-1.62-1.14-2.57-1.14C23.39,17.92,22.66,18.43,22.14,19.47z"/>
		<path class="st2" d="M42.52,61.04c-2.52,0-4.85-0.88-6.92-2.64c-2.05-1.84-3.66-4-4.82-6.46c-1.08-2.29-2.01-4.65-2.76-7
			c-0.29-0.87-0.66-1.79-1.09-2.69c-0.35-0.73-0.78-1.34-1.34-1.87c-0.34-0.26-0.77-0.43-1.32-0.51c-0.31-0.05-0.45,0.01-0.56,0.09
			C23.7,39.98,23.7,40,23.7,40.04c-0.02,0.26,0,0.52,0.06,0.77l0.03,0.13c0.23,1.34,0.36,2.71,0.39,4.05
			c0.05,0.57,0.11,1.13,0.19,1.67c0.18,0.96,0.24,2.04,0.18,3.12c-0.16,2.27-0.83,4.46-2.01,6.52c-1.33,2.33-3.38,3.77-6.06,4.26
			l-0.16,0.02c-2.88,0.29-5.56-0.32-7.97-1.79c-2.38-1.46-4.17-3.52-5.31-6.12c-0.64-1.46-1.08-2.95-1.31-4.45
			c-0.21-1.38-0.36-2.8-0.45-4.22c-0.05-0.86-0.13-1.72-0.23-2.57c-0.08-0.83-0.18-1.61-0.28-2.37c-0.36-2.69-0.6-5.43-0.71-8.18
			c-0.2-4.12,0.1-8.23,0.89-12.19c0.83-4.17,2.81-7.95,5.88-11.22c2.69-2.66,5.72-4.51,9.05-5.55c3.18-0.99,6.54-1.6,9.97-1.8
			c4.81-0.4,9.41,0.28,13.6,2.02c4.4,1.83,7.68,5.31,9.76,10.33c1.09,2.89,1.44,5.63,1.07,8.18c-0.36,2.46-1.28,5-2.73,7.54
			c-0.88,1.57-2.01,3.01-3.35,4.26l-0.08,0.07c-0.37,0.31-0.76,0.6-1.16,0.88c-0.35,0.24-0.67,0.5-0.95,0.78
			c-0.12,0.12-0.21,0.27-0.27,0.47c-0.01,0.04-0.01,0.09-0.01,0.09c0.4,0.45,0.86,0.84,1.38,1.17l0.19,0.14
			c0.29,0.24,0.57,0.46,0.84,0.68c1.85,1.5,3.49,3.24,4.86,5.17c1.07,1.5,1.88,3.14,2.4,4.88c0.54,1.79,0.7,3.65,0.48,5.52
			c-0.31,2.04-1.09,3.83-2.35,5.37c-1.3,1.59-2.97,2.66-4.96,3.18l-0.18,0.04C43.75,60.98,43.13,61.04,42.52,61.04z M24.07,35.85
			c0.25,0,0.52,0.02,0.78,0.06c1.3,0.19,2.42,0.66,3.33,1.41l0.09,0.08c0.94,0.88,1.71,1.93,2.28,3.14c0.5,1.05,0.92,2.11,1.27,3.16
			c0.71,2.21,1.58,4.41,2.58,6.54c0.93,1.97,2.21,3.7,3.82,5.15c1.6,1.35,3.39,1.88,5.42,1.57c1.12-0.31,2.03-0.9,2.78-1.81
			c0.81-0.99,1.29-2.09,1.49-3.37c0.15-1.26,0.03-2.57-0.34-3.83c-0.4-1.32-1.01-2.57-1.83-3.71l0,0c-1.16-1.64-2.55-3.11-4.11-4.37
			c-0.24-0.19-0.5-0.41-0.78-0.63c-0.79-0.52-1.5-1.12-2.09-1.8c-0.95-1.07-1.25-2.46-0.85-3.89c0.29-0.91,0.73-1.63,1.33-2.21
			c0.44-0.42,0.93-0.82,1.45-1.18c0.29-0.2,0.56-0.41,0.83-0.63c1.02-0.96,1.88-2.06,2.55-3.26c1.21-2.12,1.96-4.19,2.25-6.16
			c0.27-1.88,0-3.94-0.83-6.14c-1.66-4.01-4.14-6.68-7.58-8.11c-3.59-1.5-7.56-2.08-11.78-1.73c-3.16,0.18-6.19,0.73-9.06,1.63
			c-2.72,0.85-5.2,2.37-7.38,4.52c-2.5,2.67-4.14,5.79-4.82,9.22c-0.73,3.64-1,7.42-0.82,11.23c0.11,2.63,0.33,5.26,0.68,7.81
			c0.11,0.81,0.21,1.63,0.29,2.47c0.11,0.88,0.19,1.83,0.25,2.77c0.08,1.29,0.22,2.59,0.41,3.85c0.18,1.15,0.52,2.32,1.02,3.45
			c0.82,1.86,2.04,3.27,3.74,4.31c1.65,1.01,3.42,1.41,5.4,1.23c1.47-0.29,2.5-1.02,3.23-2.29c0.88-1.53,1.38-3.15,1.49-4.79
			c0.04-0.74,0-1.5-0.14-2.23c-0.1-0.72-0.17-1.36-0.23-2.02l-0.01-0.13c-0.02-1.15-0.14-2.32-0.33-3.48
			c-0.14-0.64-0.19-1.3-0.13-1.96c0.08-0.89,0.41-1.7,0.98-2.37l0.11-0.12C21.7,36.31,22.82,35.85,24.07,35.85z M23.6,26.77
			c-0.37,0-0.73-0.04-1.08-0.13c-0.65-0.15-1.22-0.48-1.71-0.96l-0.1-0.11c-0.39-0.45-0.65-0.99-0.77-1.6
			c-0.07-0.33-0.12-0.68-0.15-1.01c-0.17-1.44-0.01-2.86,0.48-4.19l0.09-0.2c1.15-2.31,2.99-2.65,3.99-2.65
			c1.47,0,2.85,0.6,3.98,1.73c1.34,1.42,1.83,3.07,1.46,4.82c-0.36,1.73-1.47,3.06-3.19,3.84l-0.17,0.07
			c-0.82,0.29-1.67,0.42-2.53,0.4C23.8,26.77,23.7,26.77,23.6,26.77z M23.81,22.76l0.13,0.01c0.37,0.01,0.73-0.03,1.09-0.15
			c0.62-0.3,0.77-0.65,0.84-0.98c0.08-0.38,0.04-0.73-0.42-1.21c-0.45-0.45-0.83-0.51-1.11-0.51c-0.06,0-0.17,0-0.36,0.35
			c-0.24,0.71-0.31,1.45-0.22,2.27c0.01,0.08,0.02,0.15,0.03,0.22H23.81z"/>
	</g>
	<g>
		<path id="XMLID_00000051373465196936167660000014940706733926848130_" class="st1" d="M88.72,9.93c0.08,0.41,0.15,0.8,0.2,1.18
			c0.3,1.52,0.39,3.06,0.26,4.6s-0.75,2.81-1.89,3.79c-0.9,0.65-1.91,1-3.04,1.06s-2.23-0.07-3.32-0.37
			c-0.22-0.08-0.43-0.15-0.65-0.2c-1.2-0.43-2.39-0.57-3.59-0.41c-0.73,0.19-1.29,0.61-1.67,1.26s-0.37,1.28,0.04,1.87
			c0.35,0.41,0.81,0.62,1.37,0.63c0.56,0.01,1.15-0.03,1.77-0.14c0.57-0.11,1.13-0.18,1.67-0.2c1.55,0.16,2.74,0.9,3.59,2.2
			c0.71,1.25,1.14,2.61,1.3,4.07c0.19,1.14,0.19,2.28,0,3.4c-0.19,1.13-0.73,2.03-1.63,2.71c-1.14,0.68-2.42,0.95-3.83,0.81
			c-0.24,0-0.49-0.01-0.73-0.04c-0.87-0.05-1.77-0.05-2.71,0.02s-1.71,0.36-2.3,0.88c-0.38,0.38-0.61,0.84-0.69,1.39
			C72.79,39,72.88,39.51,73.15,40c0.33,0.6,0.82,1.03,1.49,1.3s1.35,0.41,2.06,0.41c0.76-0.03,1.52-0.11,2.28-0.24
			c0.62-0.11,1.25-0.19,1.88-0.24c1.85-0.08,3.56,0.35,5.15,1.28c1.59,0.94,2.78,2.22,3.57,3.85c0.98,2.23,1.04,4.45,0.2,6.66
			c-0.84,2.21-2.42,3.8-4.73,4.75c-5.57,1.93-11.2,2-16.89,0.22s-10.18-5.03-13.47-9.76c-3.45-5.38-5.13-11.3-5.05-17.76
			s2.09-12.26,6.03-17.4c2.8-3.45,6.25-6.15,10.35-8.09s8.43-2.76,13-2.46c2.47,0.16,4.58,0.83,6.32,2.02S88.2,7.51,88.72,9.93z"/>
		<path class="st2" d="M76.31,61.27c-2.91,0-5.83-0.46-8.74-1.37c-6.1-1.91-10.98-5.45-14.51-10.52c-3.69-5.75-5.5-12.1-5.41-18.93
			c0.09-6.88,2.25-13.13,6.44-18.59c3.01-3.71,6.72-6.61,11.08-8.68c4.4-2.08,9.1-2.98,13.98-2.65c2.82,0.19,5.28,0.98,7.31,2.36
			c2.17,1.48,3.59,3.71,4.21,6.64l0.01,0.03c0.09,0.44,0.16,0.87,0.22,1.28c0.32,1.6,0.42,3.33,0.28,5.05
			c-0.16,2.09-1.03,3.82-2.59,5.15l-0.12,0.1c-1.21,0.88-2.6,1.37-4.12,1.44c-0.18,0.01-0.37,0.01-0.55,0.01
			c0.51,0.43,0.96,0.95,1.34,1.55l0.06,0.1c0.83,1.47,1.35,3.07,1.54,4.78c0.22,1.34,0.21,2.69-0.01,4.01
			c-0.28,1.64-1.08,2.98-2.4,3.97l-0.18,0.12C82.67,38,81,38.37,79.2,38.22c-0.29,0-0.57-0.02-0.86-0.05
			c-0.68-0.04-1.5-0.03-2.34,0.03c-0.46,0.03-0.81,0.15-1.07,0.34c-0.04,0.05-0.07,0.12-0.09,0.22c-0.01,0.09-0.01,0.16,0.06,0.28
			c0.08,0.15,0.2,0.3,0.49,0.42c0.43,0.17,0.85,0.26,1.3,0.26c0.59-0.02,1.27-0.09,1.93-0.21c0.69-0.12,1.37-0.21,2.06-0.27
			c2.32-0.1,4.42,0.42,6.34,1.55c1.93,1.14,3.39,2.72,4.35,4.7c1.22,2.78,1.3,5.53,0.27,8.24c-1.04,2.74-3.01,4.72-5.83,5.89
			l-0.11,0.04C82.61,60.73,79.47,61.27,76.31,61.27z M77.23,4.46c-3.6,0-7.08,0.78-10.35,2.33c-3.81,1.8-7.06,4.34-9.65,7.54
			c-3.62,4.72-5.51,10.17-5.58,16.16c-0.08,6.04,1.52,11.64,4.74,16.66c2.97,4.27,7.15,7.29,12.38,8.93
			c5.23,1.64,10.47,1.57,15.58-0.19c1.76-0.74,2.93-1.91,3.57-3.59c0.65-1.72,0.6-3.4-0.17-5.15c-0.59-1.21-1.5-2.19-2.75-2.93
			c-1.26-0.74-2.58-1.07-4.05-1.01c-0.48,0.04-1.06,0.12-1.62,0.22c-0.84,0.15-1.7,0.24-2.55,0.27h-0.01
			c-1.03,0-1.98-0.19-2.88-0.56c-1.08-0.44-1.94-1.2-2.48-2.2c-0.48-0.86-0.65-1.83-0.51-2.8c0.15-0.97,0.57-1.82,1.25-2.5l0.11-0.1
			c0.93-0.8,2.09-1.26,3.46-1.36c1.02-0.07,2.02-0.08,2.98-0.02c0.27,0.03,0.44,0.04,0.61,0.04l0.19,0.01
			c0.94,0.09,1.77-0.07,2.52-0.48c0.44-0.36,0.68-0.79,0.78-1.38c0.15-0.9,0.15-1.82,0-2.74l-0.01-0.11
			c-0.13-1.19-0.47-2.25-1.03-3.26c-0.48-0.72-1.09-1.11-1.94-1.23c-0.4,0.03-0.81,0.08-1.23,0.16c-0.78,0.14-1.51,0.2-2.2,0.18
			c-1.12-0.03-2.1-0.48-2.83-1.32l-0.14-0.18c-0.84-1.23-0.88-2.69-0.12-4.01c0.65-1.11,1.65-1.87,2.9-2.19l0.23-0.04
			c1.48-0.2,2.98-0.04,4.45,0.48c0.22,0.06,0.45,0.13,0.67,0.21c0.85,0.23,1.73,0.32,2.62,0.28c0.71-0.03,1.33-0.24,1.89-0.63
			c0.7-0.62,1.06-1.38,1.14-2.38c0.11-1.36,0.03-2.72-0.23-4.06c-0.07-0.44-0.13-0.79-0.2-1.16c-0.41-1.91-1.24-3.26-2.55-4.15
			C82.79,5.23,81,4.66,78.9,4.53C78.34,4.48,77.78,4.46,77.23,4.46z"/>
	</g>
	<g>
		<path id="XMLID_00000070828144085581992730000015559345682340216453_" class="st1" d="M137.73,43.06c0.95,1.33,1.66,2.76,2.12,4.3
			c0.46,1.54,0.6,3.1,0.41,4.71c-0.24,1.63-0.88,3.08-1.92,4.34s-2.34,2.1-3.91,2.51c-2.66,0.43-5.05-0.24-7.17-2.04
			c-1.82-1.63-3.25-3.56-4.3-5.79s-1.94-4.48-2.67-6.76c-0.33-0.98-0.72-1.96-1.18-2.93c-0.46-0.98-1.07-1.82-1.83-2.53
			c-0.62-0.52-1.41-0.84-2.34-0.98s-1.72,0.11-2.34,0.73c-0.3,0.35-0.47,0.77-0.51,1.24c-0.04,0.48-0.01,0.94,0.1,1.41
			c0.22,1.28,0.34,2.55,0.37,3.83c0.05,0.62,0.12,1.24,0.2,1.83c0.16,0.9,0.22,1.81,0.16,2.73c-0.14,1.96-0.72,3.84-1.75,5.64
			c-1.03,1.81-2.59,2.9-4.69,3.28c-2.45,0.24-4.69-0.26-6.72-1.51s-3.54-2.99-4.52-5.21c-0.57-1.3-0.96-2.62-1.16-3.95
			c-0.2-1.33-0.35-2.67-0.43-4.03c-0.05-0.9-0.14-1.79-0.24-2.69c-0.08-0.81-0.18-1.62-0.29-2.4c-0.35-2.63-0.58-5.3-0.69-7.99
			c-0.19-3.99,0.09-7.9,0.86-11.71c0.76-3.82,2.55-7.23,5.38-10.25c2.42-2.39,5.15-4.06,8.19-5.01s6.21-1.52,9.49-1.71
			c4.56-0.38,8.8,0.24,12.71,1.87s6.8,4.71,8.68,9.25c0.95,2.53,1.26,4.9,0.94,7.13c-0.33,2.23-1.16,4.51-2.49,6.84
			c-0.79,1.41-1.78,2.68-2.97,3.79c-0.33,0.27-0.67,0.53-1.02,0.77c-0.43,0.3-0.83,0.62-1.2,0.98c-0.37,0.35-0.63,0.79-0.79,1.3
			c-0.22,0.79-0.08,1.47,0.43,2.04c0.5,0.57,1.09,1.07,1.77,1.51c0.3,0.24,0.58,0.47,0.86,0.69
			C134.96,39.67,136.46,41.26,137.73,43.06z M112.51,19.47c-0.38,1.03-0.5,2.13-0.37,3.3c0.03,0.27,0.07,0.54,0.12,0.81
			c0.05,0.27,0.16,0.5,0.33,0.69c0.22,0.22,0.47,0.36,0.75,0.43s0.58,0.09,0.88,0.06c0.65,0.03,1.29-0.07,1.92-0.29
			c1.14-0.52,1.83-1.32,2.06-2.42c0.23-1.1-0.08-2.1-0.92-3c-0.76-0.76-1.62-1.14-2.57-1.14C113.76,17.92,113.03,18.43,112.51,19.47
			z"/>
		<path class="st2" d="M132.89,61.04c-2.52,0-4.85-0.88-6.92-2.64c-2.05-1.84-3.66-4-4.82-6.46c-1.08-2.29-2.01-4.65-2.76-7
			c-0.29-0.87-0.66-1.79-1.09-2.69c-0.35-0.73-0.78-1.34-1.34-1.87c-0.34-0.26-0.77-0.43-1.32-0.51c-0.31-0.05-0.45,0.01-0.56,0.09
			c-0.01,0.02-0.01,0.04-0.01,0.08c-0.02,0.26,0,0.52,0.06,0.77l0.03,0.13c0.23,1.34,0.36,2.71,0.39,4.05
			c0.05,0.57,0.11,1.13,0.19,1.67c0.18,0.96,0.24,2.04,0.18,3.12c-0.16,2.27-0.83,4.46-2.01,6.52c-1.33,2.33-3.38,3.77-6.06,4.26
			l-0.16,0.02c-2.88,0.29-5.56-0.32-7.97-1.79c-2.38-1.46-4.17-3.52-5.31-6.12c-0.64-1.46-1.08-2.95-1.31-4.45
			c-0.21-1.38-0.36-2.8-0.45-4.22c-0.05-0.86-0.13-1.72-0.23-2.57c-0.08-0.83-0.18-1.61-0.28-2.37c-0.36-2.69-0.6-5.43-0.71-8.18
			c-0.2-4.12,0.1-8.23,0.89-12.19c0.83-4.17,2.81-7.95,5.88-11.22c2.69-2.66,5.72-4.51,9.05-5.55c3.18-0.99,6.54-1.6,9.97-1.8
			c4.81-0.4,9.41,0.28,13.6,2.02c4.4,1.83,7.68,5.31,9.76,10.33c1.09,2.89,1.44,5.63,1.07,8.18c-0.36,2.46-1.28,5-2.73,7.54
			c-0.88,1.57-2.01,3.01-3.35,4.26l-0.08,0.07c-0.37,0.31-0.76,0.6-1.16,0.88c-0.35,0.24-0.67,0.5-0.95,0.78
			c-0.12,0.12-0.21,0.27-0.27,0.47c-0.01,0.04-0.01,0.09-0.01,0.09c0.4,0.45,0.86,0.84,1.38,1.17l0.19,0.14
			c0.29,0.24,0.57,0.46,0.84,0.68c1.85,1.5,3.49,3.24,4.86,5.17c1.07,1.5,1.88,3.14,2.4,4.88c0.54,1.79,0.7,3.65,0.48,5.52
			c-0.31,2.04-1.09,3.83-2.35,5.37c-1.3,1.59-2.97,2.66-4.96,3.18l-0.18,0.04C134.12,60.98,133.5,61.04,132.89,61.04z M114.44,35.85
			c0.25,0,0.52,0.02,0.78,0.06c1.3,0.19,2.42,0.66,3.33,1.41l0.09,0.08c0.94,0.88,1.71,1.93,2.28,3.14c0.5,1.05,0.92,2.11,1.27,3.16
			c0.71,2.21,1.58,4.41,2.58,6.54c0.93,1.97,2.21,3.7,3.82,5.15c1.6,1.35,3.39,1.88,5.42,1.57c1.12-0.31,2.03-0.9,2.78-1.81
			c0.81-0.99,1.29-2.09,1.49-3.37c0.15-1.26,0.03-2.57-0.34-3.83c-0.4-1.32-1.01-2.57-1.83-3.71l0,0c-1.16-1.64-2.55-3.11-4.11-4.37
			c-0.24-0.19-0.5-0.41-0.78-0.63c-0.79-0.52-1.5-1.12-2.09-1.8c-0.95-1.07-1.25-2.46-0.85-3.89c0.29-0.91,0.73-1.63,1.33-2.21
			c0.44-0.42,0.93-0.82,1.45-1.18c0.29-0.2,0.56-0.41,0.83-0.63c1.02-0.96,1.88-2.06,2.55-3.26c1.21-2.12,1.96-4.19,2.25-6.16
			c0.27-1.88,0-3.94-0.83-6.14c-1.66-4.01-4.14-6.68-7.58-8.11c-3.59-1.5-7.56-2.08-11.78-1.73c-3.16,0.18-6.19,0.73-9.06,1.63
			c-2.72,0.85-5.2,2.37-7.38,4.52c-2.5,2.67-4.14,5.79-4.82,9.22c-0.73,3.64-1,7.42-0.82,11.23c0.11,2.63,0.33,5.26,0.68,7.81
			c0.11,0.81,0.21,1.63,0.29,2.47c0.11,0.88,0.19,1.83,0.25,2.77c0.08,1.29,0.22,2.59,0.41,3.85c0.18,1.15,0.52,2.32,1.02,3.45
			c0.82,1.86,2.04,3.27,3.74,4.31c1.65,1.01,3.42,1.41,5.4,1.23c1.47-0.29,2.5-1.02,3.23-2.29c0.88-1.53,1.38-3.15,1.49-4.79
			c0.04-0.74,0-1.5-0.14-2.23c-0.1-0.72-0.17-1.36-0.23-2.02l-0.01-0.13c-0.02-1.15-0.14-2.32-0.33-3.48
			c-0.14-0.64-0.19-1.3-0.13-1.96c0.08-0.89,0.41-1.7,0.98-2.37l0.11-0.12C112.07,36.31,113.19,35.85,114.44,35.85z M113.97,26.77
			c-0.37,0-0.73-0.04-1.08-0.13c-0.65-0.15-1.22-0.48-1.71-0.96l-0.1-0.11c-0.39-0.45-0.65-0.99-0.77-1.6
			c-0.07-0.33-0.12-0.68-0.15-1.01c-0.17-1.44-0.01-2.86,0.48-4.19l0.09-0.2c1.15-2.31,2.99-2.65,3.99-2.65
			c1.47,0,2.85,0.6,3.98,1.73c1.34,1.42,1.83,3.07,1.46,4.82c-0.36,1.73-1.47,3.06-3.19,3.84l-0.17,0.07
			c-0.82,0.29-1.67,0.42-2.53,0.4C114.17,26.77,114.07,26.77,113.97,26.77z M114.18,22.76l0.13,0.01c0.37,0.01,0.73-0.03,1.09-0.15
			c0.62-0.3,0.77-0.65,0.84-0.98c0.08-0.38,0.04-0.73-0.42-1.21c-0.45-0.45-0.83-0.51-1.11-0.51c-0.06,0-0.17,0-0.36,0.35
			c-0.24,0.71-0.31,1.45-0.22,2.27c0.01,0.08,0.02,0.15,0.03,0.22H114.18z"/>
	</g>
	<g>
		<path id="XMLID_00000011715959100783462270000000889348977911228316_" class="st1" d="M179.09,9.93c0.08,0.41,0.15,0.8,0.2,1.18
			c0.3,1.52,0.39,3.06,0.26,4.6s-0.75,2.81-1.89,3.79c-0.9,0.65-1.91,1-3.04,1.06s-2.23-0.07-3.32-0.37
			c-0.22-0.08-0.43-0.15-0.65-0.2c-1.2-0.43-2.39-0.57-3.59-0.41c-0.73,0.19-1.29,0.61-1.67,1.26s-0.37,1.28,0.04,1.87
			c0.35,0.41,0.81,0.62,1.37,0.63c0.56,0.01,1.15-0.03,1.77-0.14c0.57-0.11,1.13-0.18,1.67-0.2c1.55,0.16,2.74,0.9,3.59,2.2
			c0.71,1.25,1.14,2.61,1.3,4.07c0.19,1.14,0.19,2.28,0,3.4c-0.19,1.13-0.73,2.03-1.63,2.71c-1.14,0.68-2.42,0.95-3.83,0.81
			c-0.24,0-0.49-0.01-0.73-0.04c-0.87-0.05-1.77-0.05-2.71,0.02s-1.71,0.36-2.3,0.88c-0.38,0.38-0.61,0.84-0.69,1.39
			c-0.08,0.54,0.01,1.06,0.29,1.55c0.33,0.6,0.82,1.03,1.49,1.3s1.35,0.41,2.06,0.41c0.76-0.03,1.52-0.11,2.28-0.24
			c0.62-0.11,1.25-0.19,1.88-0.24c1.85-0.08,3.56,0.35,5.15,1.28c1.59,0.94,2.78,2.22,3.57,3.85c0.98,2.23,1.04,4.45,0.2,6.66
			s-2.42,3.8-4.73,4.75c-5.57,1.93-11.2,2-16.89,0.22s-10.18-5.03-13.47-9.76c-3.45-5.38-5.13-11.3-5.05-17.76s2.09-12.26,6.03-17.4
			c2.8-3.45,6.25-6.15,10.35-8.09s8.43-2.76,13-2.46c2.47,0.16,4.58,0.83,6.32,2.02S178.57,7.51,179.09,9.93z"/>
		<path class="st2" d="M166.68,61.27c-2.91,0-5.83-0.46-8.74-1.37c-6.1-1.91-10.98-5.45-14.51-10.52c-3.69-5.75-5.5-12.1-5.41-18.93
			c0.09-6.88,2.25-13.13,6.44-18.59c3.01-3.71,6.72-6.61,11.08-8.68c4.4-2.08,9.1-2.98,13.98-2.65c2.82,0.19,5.28,0.98,7.31,2.36
			c2.17,1.48,3.59,3.71,4.21,6.64l0.01,0.03c0.09,0.44,0.16,0.87,0.22,1.28c0.32,1.6,0.42,3.33,0.28,5.05
			c-0.16,2.09-1.03,3.82-2.59,5.15l-0.12,0.1c-1.21,0.88-2.6,1.37-4.12,1.44c-0.18,0.01-0.37,0.01-0.55,0.01
			c0.51,0.43,0.96,0.95,1.34,1.55l0.06,0.1c0.83,1.47,1.35,3.07,1.54,4.78c0.22,1.34,0.21,2.69-0.01,4.01
			c-0.28,1.64-1.08,2.98-2.4,3.97l-0.18,0.12c-1.48,0.88-3.15,1.25-4.95,1.1c-0.29,0-0.57-0.02-0.86-0.05
			c-0.68-0.04-1.5-0.03-2.34,0.03c-0.46,0.03-0.81,0.15-1.07,0.34c-0.04,0.05-0.07,0.12-0.09,0.22c-0.01,0.09-0.01,0.16,0.06,0.28
			c0.08,0.15,0.2,0.3,0.49,0.42c0.43,0.17,0.85,0.26,1.3,0.26c0.59-0.02,1.27-0.09,1.93-0.21c0.69-0.12,1.37-0.21,2.06-0.27
			c2.32-0.1,4.42,0.42,6.34,1.55c1.93,1.14,3.39,2.72,4.35,4.7c1.22,2.78,1.3,5.53,0.27,8.24c-1.04,2.74-3.01,4.72-5.83,5.89
			l-0.11,0.04C172.98,60.73,169.84,61.27,166.68,61.27z M167.6,4.46c-3.6,0-7.08,0.78-10.35,2.33c-3.81,1.8-7.06,4.34-9.65,7.54
			c-3.62,4.72-5.51,10.17-5.58,16.16c-0.08,6.04,1.52,11.64,4.74,16.66c2.97,4.27,7.15,7.29,12.38,8.93
			c5.23,1.64,10.47,1.57,15.58-0.19c1.76-0.74,2.93-1.91,3.57-3.59c0.65-1.72,0.6-3.4-0.17-5.15c-0.59-1.21-1.5-2.19-2.75-2.93
			c-1.26-0.74-2.58-1.07-4.05-1.01c-0.48,0.04-1.06,0.12-1.62,0.22c-0.84,0.15-1.7,0.24-2.55,0.27c-1.03-0.03-1.98-0.19-2.89-0.56
			c-1.08-0.44-1.94-1.2-2.48-2.2c-0.48-0.86-0.65-1.83-0.51-2.8c0.15-0.97,0.57-1.82,1.25-2.5l0.11-0.1
			c0.93-0.8,2.09-1.26,3.46-1.36c1.02-0.07,2.02-0.08,2.98-0.02c0.27,0.03,0.44,0.04,0.61,0.04l0.19,0.01
			c0.94,0.09,1.77-0.07,2.52-0.48c0.44-0.36,0.68-0.79,0.78-1.38c0.15-0.9,0.15-1.82,0-2.74l-0.01-0.11
			c-0.13-1.19-0.47-2.25-1.03-3.26c-0.48-0.72-1.09-1.11-1.94-1.23c-0.4,0.03-0.81,0.08-1.23,0.16c-0.78,0.14-1.5,0.2-2.2,0.18
			c-1.12-0.03-2.1-0.48-2.83-1.32l-0.14-0.18c-0.84-1.23-0.88-2.69-0.12-4.01c0.65-1.11,1.65-1.87,2.9-2.19l0.23-0.04
			c1.48-0.2,2.98-0.04,4.45,0.48c0.22,0.06,0.45,0.13,0.67,0.21c0.85,0.23,1.73,0.32,2.62,0.28c0.71-0.03,1.33-0.24,1.89-0.63
			c0.7-0.62,1.06-1.38,1.14-2.38c0.11-1.36,0.03-2.72-0.23-4.06c-0.07-0.44-0.13-0.79-0.2-1.16c-0.41-1.91-1.24-3.26-2.55-4.15
			c-1.43-0.97-3.22-1.54-5.32-1.67C168.7,4.48,168.15,4.46,167.6,4.46z"/>
	</g>
	<g>
		<path id="XMLID_00000085209483178710866960000016812377644084153995_" class="st1" d="M228.43,43.71c1.14,1.47,2.01,3,2.61,4.6
			s0.73,3.21,0.41,4.81c-0.41,1.66-1.4,3.11-2.97,4.36s-3.5,1.96-5.79,2.12c-2.77,0-5.21-0.71-7.33-2.12
			c-1.93-1.39-3.49-2.97-4.69-4.77c-1.03-1.44-2.02-2.95-2.97-4.52c-1.17,2.66-2.65,5.23-4.44,7.7c-1.22,1.6-2.87,2.67-4.93,3.22
			c-2.06,0.54-4.29,0.67-6.68,0.37c-2.66-0.27-4.71-1.24-6.15-2.89c-0.84-1.39-1.04-2.8-0.59-4.26s1.08-2.84,1.89-4.18
			c0.08-0.19,0.18-0.39,0.29-0.61c1.3-2.31,2.69-4.59,4.16-6.85c2.09-3.26,3.37-5.96,3.83-8.11s-1.47-5.72-5.79-10.72
			c-1.6-1.36-3.1-2.76-4.48-4.22c-1.39-1.45-2.38-3.05-2.97-4.79c-0.54-1.82-0.35-3.58,0.59-5.3c0.94-1.71,2.55-2.88,4.83-3.5
			c2.06-0.38,4.08-0.2,6.05,0.53s3.71,1.71,5.24,2.93c2.82,2.36,5.28,5.36,7.38,9c0,0.03,0.01,0.05,0.04,0.08v0.04
			c1.17-2.01,2.39-4.01,3.67-5.99c1.17-2.06,2.7-3.92,4.6-5.58c0.57-0.46,1.21-0.88,1.92-1.26c2.12-1.03,4.46-1.38,7.03-1.06
			c2.57,0.33,4.46,1.33,5.68,3.02c1,1.85,1.21,3.78,0.61,5.79c-0.68,3.1-2.12,5.99-4.32,8.68c-1.66,1.98-2.88,4.11-3.67,6.38
			s-0.61,4.54,0.53,6.82C223.84,37,225.98,40.42,228.43,43.71z"/>
		<path class="st2" d="M194.11,61.63c-0.89,0-1.8-0.06-2.72-0.17c-3.13-0.32-5.64-1.52-7.41-3.56l-0.2-0.27
			c-1.13-1.86-1.41-3.9-0.79-5.89c0.48-1.56,1.16-3.08,2.03-4.51c0.08-0.18,0.17-0.37,0.27-0.58l0.05-0.09
			c1.32-2.33,2.74-4.67,4.22-6.95c1.94-3.03,3.14-5.54,3.55-7.44c0.08-0.37,0.2-2.54-5.24-8.87c-1.61-1.37-3.13-2.8-4.52-4.26
			c-1.58-1.66-2.73-3.51-3.42-5.52c-0.72-2.42-0.47-4.72,0.73-6.91c1.2-2.2,3.24-3.7,6.05-4.47l0.17-0.04
			c2.42-0.44,4.81-0.24,7.11,0.62c2.16,0.81,4.11,1.9,5.79,3.25c2.27,1.9,4.32,4.18,6.13,6.83c0.65-1.06,1.31-2.12,1.98-3.17
			c1.27-2.23,2.95-4.27,5-6.05c0.72-0.58,1.47-1.08,2.28-1.52c2.54-1.24,5.28-1.66,8.23-1.28c3.12,0.4,5.5,1.68,7.05,3.82l0.14,0.22
			c1.25,2.3,1.52,4.73,0.79,7.24c-0.75,3.37-2.33,6.54-4.71,9.45c-1.51,1.8-2.62,3.74-3.33,5.77c-0.61,1.75-0.47,3.48,0.43,5.27
			c1.77,3.42,3.88,6.77,6.24,9.95c1.25,1.62,2.23,3.34,2.89,5.12c0.73,1.95,0.89,3.94,0.49,5.91c-0.53,2.17-1.77,4-3.69,5.53
			c-1.89,1.5-4.21,2.35-6.88,2.55h-0.14c-3.16,0-6-0.83-8.44-2.45c-2.17-1.56-3.92-3.34-5.24-5.32c-0.36-0.5-0.73-1.03-1.09-1.56
			c-0.9,1.64-1.92,3.25-3.04,4.81c-1.52,2-3.54,3.32-6.04,3.98C197.33,61.44,195.76,61.63,194.11,61.63z M187.11,55.4
			c1.1,1.19,2.65,1.87,4.73,2.09c2.17,0.27,4.16,0.16,5.97-0.31c1.64-0.43,2.9-1.25,3.85-2.5c1.67-2.31,3.09-4.77,4.2-7.29
			l1.55-3.53l1.99,3.3c0.92,1.52,1.89,3,2.89,4.39c1.09,1.64,2.5,3.07,4.23,4.31c1.72,1.15,3.74,1.73,6.09,1.74
			c1.86-0.14,3.37-0.7,4.62-1.69c1.23-0.98,1.97-2.04,2.27-3.27c0.23-1.16,0.13-2.37-0.34-3.63c-0.52-1.4-1.3-2.77-2.31-4.07
			l-0.03-0.03c-2.5-3.35-4.72-6.9-6.61-10.54c-1.4-2.8-1.61-5.62-0.64-8.4c0.86-2.49,2.22-4.84,4.02-7c1.98-2.42,3.29-5.05,3.9-7.83
			l0.04-0.14c0.43-1.45,0.3-2.81-0.39-4.14c-0.9-1.17-2.29-1.86-4.24-2.1c-2.19-0.28-4.12,0.01-5.9,0.87
			c-0.52,0.28-1.06,0.64-1.53,1.02c-1.67,1.45-3.07,3.16-4.12,5.01l-0.06,0.1c-1.25,1.95-2.47,3.94-3.62,5.91l-3.73,6.42v-6.94
			c-1.92-3.25-4.17-5.96-6.7-8.08c-1.32-1.06-2.89-1.94-4.65-2.59c-1.61-0.6-3.22-0.75-4.91-0.45c-1.71,0.48-2.86,1.31-3.52,2.51
			c-0.68,1.23-0.82,2.47-0.43,3.76c0.48,1.38,1.33,2.74,2.51,3.98c1.33,1.39,2.78,2.76,4.33,4.07l0.22,0.22
			c4.93,5.71,6.85,9.54,6.23,12.44c-0.52,2.41-1.86,5.27-4.1,8.77c-1.44,2.21-2.8,4.46-4.07,6.7c-0.08,0.17-0.15,0.32-0.22,0.47
			l-0.13,0.25c-0.73,1.19-1.29,2.44-1.69,3.72C186.54,53.77,186.64,54.56,187.11,55.4z"/>
	</g>
</g>
</svg>
