<?xml version="1.0" encoding="utf-8"?>
<!-- Generator: Adobe Illustrator 25.4.1, SVG Export Plug-In . SVG Version: 6.00 Build 0)  -->
<svg version="1.1" id="圖層_1" xmlns="http://www.w3.org/2000/svg" xmlns:xlink="http://www.w3.org/1999/xlink" x="0px" y="0px"
	 viewBox="0 0 252.06 42.19" style="enable-background:new 0 0 252.06 42.19;" xml:space="preserve">
<style type="text/css">
	.st0{fill:#F7B52C;}
</style>
<g>
	<path id="XMLID_27509_" class="st0" d="M14.18,41.78h-0.4c-1.78,0-3.43-0.28-4.96-0.85c-0.88,0.57-1.88,0.85-2.98,0.85
		c-1.57,0-2.9-0.56-4-1.68c-1.1-1.12-1.65-2.49-1.65-4.09L0,5.74c0-1.58,0.55-2.93,1.65-4.06C2.75,0.56,4.08,0,5.65,0h0.12
		c1.17,0,2.22,0.34,3.16,1.03C10.74,0.34,12.71,0,14.84,0c2.2,0,4.22,0.37,6.07,1.11s3.42,1.72,4.72,2.93l0.12,0.09
		c2.22,1.88,3.98,4.21,5.28,7c1.34,2.89,2.02,6.1,2.04,9.64c0,2.87-0.51,5.57-1.54,8.1c-1.02,2.53-2.42,4.75-4.19,6.67
		s-3.78,3.42-6.03,4.53S16.68,41.74,14.18,41.78z M14.06,30.21c2.18-0.12,4-1.1,5.47-2.96c1.46-1.86,2.2-4.01,2.2-6.47v-0.12
		c-0.1-3.18-1.1-5.68-3.01-7.5l-0.17-0.15c-0.17-0.12-0.33-0.24-0.49-0.38c-0.98-0.66-2.07-1.02-3.27-1.05
		c-0.98,0-1.86,0.21-2.64,0.62c-0.23,0.14-0.48,0.34-0.75,0.62l0.06,15.62c0.04,0.23,0.06,0.46,0.06,0.69s0.19,0.43,0.57,0.63
		c0.55,0.31,1.12,0.47,1.69,0.47H14.06z"/>
	<path id="XMLID_27512_" class="st0" d="M42.07,12.07c-1.57,0-2.9-0.56-4-1.68c-1.1-1.12-1.65-2.49-1.65-4.09V5.83
		c0-1.6,0.55-2.96,1.65-4.09c1.1-1.12,2.43-1.68,4-1.68c1.55,0,2.88,0.56,3.98,1.68c1.1,1.12,1.65,2.49,1.65,4.09V6.3
		c0,1.6-0.55,2.96-1.65,4.09C44.95,11.51,43.62,12.07,42.07,12.07z M42.07,41.95c-1.57,0-2.9-0.56-4-1.68
		c-1.1-1.12-1.65-2.49-1.65-4.09V19.78c0-1.6,0.55-2.96,1.65-4.09c1.1-1.12,2.43-1.68,4-1.68c1.55,0,2.88,0.56,3.98,1.68
		c1.1,1.12,1.65,2.49,1.65,4.09v16.41c0,1.6-0.55,2.96-1.65,4.09C44.95,41.39,43.62,41.95,42.07,41.95z"/>
	<path id="XMLID_27515_" class="st0" d="M62.1,41.75h-6.06c-1.22,0-2.27-0.44-3.13-1.33c-0.86-0.89-1.29-1.96-1.29-3.21
		c0-1.23,0.43-2.29,1.29-3.18c0.86-0.89,1.9-1.33,3.13-1.33h4.65l0.03-0.23h-4.1c-1.36,0-2.47-0.35-3.33-1.05
		c-1.19-0.74-2.18-1.82-2.97-3.22s-1.19-3.05-1.19-4.92c0-1.84,0.37-3.44,1.12-4.82c0.75-1.38,1.7-2.45,2.86-3.22
		c1.16-0.77,2.33-1.16,3.52-1.16h6.03c1.22,0,2.27,0.44,3.14,1.32c0.87,0.88,1.31,1.94,1.31,3.19s-0.44,2.32-1.31,3.21
		c-0.87,0.89-1.92,1.33-3.14,1.33H58v0.23h4.1c1.36,0,2.47,0.34,3.33,1.03c1.19,0.76,2.18,1.85,2.97,3.25s1.19,3.05,1.19,4.92
		c0,1.84-0.38,3.44-1.13,4.82s-1.71,2.45-2.86,3.22C64.46,41.36,63.29,41.75,62.1,41.75z"/>
	<path id="XMLID_27517_" class="st0" d="M84.2,42.04c-2.53,0-4.82-0.63-6.89-1.89s-3.72-2.94-4.95-5.05
		c-1.23-2.11-1.85-4.45-1.85-7.03s0.62-4.92,1.85-7.03c1.23-2.11,2.88-3.79,4.95-5.05s4.36-1.89,6.89-1.89
		c2.01,0,3.88,0.41,5.62,1.23s3.25,1.94,4.53,3.37c0.94,1.17,1.41,2.43,1.41,3.78c0,0.76-0.15,1.5-0.44,2.23
		c-0.3,0.72-0.75,1.37-1.36,1.93c-1.15,0.96-2.37,1.44-3.67,1.44c-0.75,0-1.47-0.15-2.18-0.45c-0.71-0.3-1.34-0.76-1.89-1.38
		s-1.22-0.92-2.01-0.92c-0.75,0-1.38,0.27-1.91,0.81c-0.53,0.54-0.79,1.19-0.79,1.95s0.26,1.41,0.79,1.95
		c0.53,0.54,1.16,0.81,1.91,0.81c0.73,0,1.35-0.26,1.87-0.79c1.17-1.05,2.44-1.58,3.82-1.58c1.45,0,2.77,0.57,3.96,1.7
		c1.03,1.21,1.55,2.52,1.55,3.93c0,1.46-0.55,2.8-1.66,4.01c-1.24,1.23-2.68,2.2-4.3,2.9C87.8,41.69,86.06,42.04,84.2,42.04z"/>
	<path id="XMLID_27519_" class="st0" d="M102.23,41.98c-1.57,0-2.9-0.56-4-1.68c-1.1-1.12-1.65-2.49-1.65-4.09V5.83
		c0-1.6,0.55-2.96,1.65-4.09c1.1-1.12,2.43-1.68,4-1.68c1.55,0,2.88,0.56,3.99,1.68c1.11,1.12,1.67,2.49,1.67,4.09v30.38
		c0,1.6-0.55,2.96-1.67,4.09C105.11,41.42,103.78,41.98,102.23,41.98z"/>
	<path id="XMLID_27521_" class="st0" d="M131.93,42.04c-1.19,0-2.25-0.33-3.19-1c-1.59,0.64-3.27,0.97-5.05,0.97
		c-2.53,0-4.83-0.63-6.92-1.9s-3.75-2.97-4.99-5.1c-1.24-2.13-1.87-4.48-1.87-7.06c0-2.6,0.62-4.96,1.87-7.09
		c1.24-2.13,2.91-3.83,4.99-5.1s4.39-1.9,6.92-1.9c1.8,0,3.49,0.33,5.08,1c0.94-0.64,1.99-0.97,3.16-0.97
		c1.55,0,2.87,0.56,3.97,1.68s1.65,2.49,1.65,4.09v16.61c0,1.6-0.55,2.96-1.65,4.09S133.48,42.04,131.93,42.04z M123.69,30.5
		c0.69,0,1.28-0.25,1.76-0.75s0.73-1.1,0.73-1.8s-0.24-1.3-0.73-1.8s-1.08-0.75-1.76-0.75c-0.69,0-1.28,0.25-1.77,0.75
		c-0.49,0.5-0.73,1.1-0.73,1.8s0.24,1.3,0.73,1.8C122.42,30.25,123,30.5,123.69,30.5z"/>
	<path id="XMLID_27524_" class="st0" d="M146.19,12.07c-1.57,0-2.9-0.56-4-1.68c-1.1-1.12-1.65-2.49-1.65-4.09V5.83
		c0-1.6,0.55-2.96,1.65-4.09c1.1-1.12,2.43-1.68,4-1.68c1.55,0,2.88,0.56,3.98,1.68c1.1,1.12,1.65,2.49,1.65,4.09V6.3
		c0,1.6-0.55,2.96-1.65,4.09C149.07,11.51,147.74,12.07,146.19,12.07z M146.19,41.95c-1.57,0-2.9-0.56-4-1.68
		c-1.1-1.12-1.65-2.49-1.65-4.09V19.78c0-1.6,0.55-2.96,1.65-4.09c1.1-1.12,2.43-1.68,4-1.68c1.55,0,2.88,0.56,3.98,1.68
		c1.1,1.12,1.65,2.49,1.65,4.09v16.41c0,1.6-0.55,2.96-1.65,4.09C149.07,41.39,147.74,41.95,146.19,41.95z"/>
	<path id="XMLID_27527_" class="st0" d="M191.68,41.98c-1.57,0-2.9-0.56-4-1.68c-1.1-1.12-1.65-2.49-1.65-4.09V26.07
		c-0.98-0.45-1.82-0.67-2.53-0.67s-1.54,0.22-2.5,0.67v10.14c0,1.6-0.56,2.96-1.67,4.09s-2.44,1.68-3.99,1.68
		c-1.57,0-2.9-0.57-4-1.7c-1.1-1.13-1.65-2.49-1.65-4.07V26.07c-0.98-0.45-1.82-0.67-2.53-0.67c-0.71,0-1.54,0.22-2.5,0.67v10.14
		c0,1.6-0.56,2.96-1.67,4.09s-2.44,1.68-3.99,1.68c-1.57,0-2.9-0.56-4-1.68c-1.1-1.12-1.65-2.49-1.65-4.09V25.22
		c0-2.79,1.14-5.31,3.42-7.56c1.21-1.11,2.7-2.02,4.49-2.72s3.75-1.05,5.9-1.05c3.02,0,5.75,0.71,8.18,2.14
		c2.41-1.43,5.13-2.14,8.15-2.14c2.14,0,4.11,0.35,5.91,1.05c1.8,0.7,3.3,1.61,4.51,2.72c2.28,2.25,3.42,4.77,3.42,7.56v10.99
		c0,1.6-0.55,2.96-1.66,4.09C194.56,41.42,193.23,41.98,191.68,41.98z"/>
	<path id="XMLID_27529_" class="st0" d="M212.2,41.75c-2.49,0-4.75-0.62-6.8-1.86c-2.05-1.24-3.68-2.91-4.89-5s-1.82-4.4-1.82-6.94
		s0.61-4.85,1.82-6.94s2.85-3.75,4.89-5c2.05-1.24,4.31-1.86,6.8-1.86c1.99,0,3.84,0.4,5.55,1.2s3.19,1.9,4.43,3.31
		c0.69,0.84,1.03,1.76,1.03,2.75c0,1.07-0.4,2.05-1.21,2.93l-9.53,9.26c1.42-0.1,2.59-0.62,3.53-1.55c0.84-0.74,1.76-1.11,2.75-1.11
		c1.05,0,2.01,0.43,2.87,1.29c0.73,0.86,1.09,1.8,1.09,2.81c0,1.07-0.41,2.05-1.23,2.93c-1.22,1.19-2.63,2.12-4.22,2.78
		S214,41.75,212.2,41.75z M206.66,28.07l5.91-5.77l-0.37-0.03c-1.53,0-2.84,0.56-3.92,1.67s-1.62,2.45-1.62,4.01V28.07z"/>
	<path id="XMLID_27532_" class="st0" d="M230.11,42.19c-1.55,0-2.88-0.56-3.97-1.68c-1.1-1.12-1.65-2.48-1.65-4.06V25.46
		c0-2.79,1.14-5.3,3.42-7.53c1.19-1.13,2.68-2.05,4.48-2.75c1.8-0.7,3.76-1.05,5.88-1.05c2.14,0,4.11,0.35,5.91,1.05
		s3.29,1.62,4.48,2.75c2.28,2.23,3.42,4.74,3.42,7.53c0,1.58-0.55,2.93-1.65,4.06c-1.1,1.12-2.42,1.68-3.97,1.68
		c-1.42,0-2.64-0.46-3.67-1.38s-1.67-2.08-1.92-3.49c-0.98-0.47-1.84-0.7-2.58-0.7c-0.69,0-1.52,0.22-2.5,0.67v10.14
		c0,1.58-0.55,2.93-1.65,4.06C233.01,41.63,231.68,42.19,230.11,42.19z"/>
</g>
</svg>
