<?xml version="1.0" encoding="utf-8"?>
<!-- Generator: Adobe Illustrator 25.4.1, SVG Export Plug-In . SVG Version: 6.00 Build 0)  -->
<svg version="1.1" id="圖層_1" xmlns="http://www.w3.org/2000/svg" xmlns:xlink="http://www.w3.org/1999/xlink" x="0px" y="0px"
	 viewBox="0 0 172.19 79.35" style="enable-background:new 0 0 172.19 79.35;" xml:space="preserve">
<style type="text/css">
	.st0{fill:#231815;}
	.st1{fill:#FFFFFF;}
	.st2{fill:#036EB7;}
</style>
<g id="XMLID_2352_">
	<g id="XMLID_22443_">
		<g>
			<path id="XMLID_00000048459552458511126710000013279869014215995314_" class="st0" d="M51.71,43.36c-0.8,2.2-2.08,3.52-3.83,3.97
				c-1.75,0.45-3.66,0.61-5.73,0.49h-1.95c-0.31,0-0.61,0.02-0.9,0.07c-0.29,0.05-0.56,0.15-0.81,0.3c-0.34,0.31-0.56,0.7-0.65,1.18
				c-0.09,0.48-0.09,0.95,0,1.42c0.25,1.79,0.63,3.57,1.16,5.33c0.25,0.8,0.46,1.62,0.65,2.46c0.77,2.66,0.83,5.29,0.19,7.89
				c-1.11,3.03-3.17,5.15-6.17,6.36c-3.43,1.27-6.76,1.21-9.97-0.16c-3.22-1.38-5.77-3.58-7.65-6.61c-1.02-1.76-1.72-3.57-2.09-5.43
				s-0.63-3.74-0.79-5.66c-0.12-1.24-0.28-2.47-0.46-3.71c-0.8-5.5-0.91-11.02-0.33-16.56c0.46-4.39,1.71-8.54,3.73-12.43
				c2.02-3.9,4.88-7,8.56-9.32c3-1.73,6.04-2.71,9.12-2.92c3.08-0.22,6.21-0.19,9.39,0.09c1.73,0.12,3.46,0.22,5.2,0.28
				c1.48,0,2.95,0.17,4.38,0.51c1.44,0.34,2.73,0.96,3.87,1.86c1.27,1.08,2.14,2.42,2.62,4.01c0.48,1.59,0.5,3.19,0.07,4.8
				c-1.11,3.28-3.34,5.41-6.68,6.4c-1.45,0.28-2.88,0.28-4.27,0l-1.58-0.19c-2.26-0.19-4.52-0.14-6.77,0.14
				c-0.53,0.06-1.04,0.19-1.53,0.39c-0.5,0.2-0.85,0.53-1.07,1c-0.16,0.5-0.13,0.97,0.07,1.42c0.2,0.45,0.52,0.81,0.95,1.09
				c0.87,0.46,1.81,0.7,2.83,0.7c0.25,0,0.49,0.02,0.74,0.05c1.61,0.03,3.2,0.23,4.78,0.6c1.92,0.46,3.43,1.48,4.55,3.06
				c0.62,0.96,0.95,2.03,1,3.2c0.05,1.17-0.1,2.32-0.44,3.43C51.83,43,51.77,43.17,51.71,43.36z"/>
			<path id="XMLID_00000014632437099450208440000010334850690570903486_" class="st0" d="M78.2,63.67
				c-0.96,2.94-2.38,5.38-4.27,7.33c-1.95,2.04-4.65,3.03-8.12,2.97c-2.72-0.16-5.11-1.06-7.17-2.71c-2.06-1.65-3.41-3.8-4.06-6.42
				c-0.46-2.38-0.45-4.78,0.05-7.19c0.5-2.41,1.13-4.78,1.9-7.1c0.28-0.87,0.54-1.72,0.79-2.55c1.45-4.98,2.92-9.96,4.41-14.94
				c0.68-2.47,1.46-4.93,2.34-7.37c0.88-2.44,2-4.75,3.36-6.91c1.39-2.23,3.12-4.14,5.2-5.75c2.07-1.61,4.39-2.63,6.96-3.06
				c3.96-0.49,7.64,0.39,11.04,2.64c3.15,2.07,5.7,4.72,7.63,7.93c1.93,3.22,3.49,6.59,4.66,10.11c2.13,6.31,3.97,12.73,5.52,19.25
				c0.43,1.76,0.87,3.51,1.3,5.24l0.74,2.6c0.84,2.6,1.38,5.2,1.62,7.79c0.09,2.17-0.5,3.98-1.76,5.45c-1.27,1.47-2.87,2.5-4.8,3.08
				c-1.93,0.59-3.86,0.65-5.78,0.19c-3.31-0.96-5.95-2.89-7.93-5.8c-0.93-1.36-1.66-2.81-2.18-4.36c-0.4,0.03-0.82,0.03-1.25,0
				C85,64.06,81.6,63.92,78.2,63.67z M86.59,51.38c-0.53-2.38-1.07-4.75-1.62-7.1c-0.28-1.05-0.61-1.59-1-1.62
				c-0.39-0.03-0.76,0.23-1.11,0.79s-0.61,1.19-0.77,1.9c-0.4,1.89-0.77,3.94-1.11,6.17C82.84,51.43,84.71,51.38,86.59,51.38z"/>
			<path id="XMLID_00000000186476223686739100000012064912494180010673_" class="st0" d="M168.88,30c1.79,3.99,2.86,8.14,3.2,12.46
				c0.34,4.31-0.19,8.56-1.58,12.73c-1.14,3.28-2.8,6.21-4.96,8.81c0.9,1.52,1.51,3.17,1.86,4.96c0.28,1.79,0.08,3.58-0.58,5.36
				c-0.67,1.78-1.82,3.16-3.46,4.15c-1.3,0.68-2.67,0.97-4.11,0.86c-1.44-0.11-2.76-0.5-3.97-1.18c-1.98-1.21-3.65-2.74-5.01-4.59
				c-0.62,0.15-1.24,0.28-1.86,0.37c-5.23,0.83-10.34,0.31-15.35-1.58c-5.01-1.89-9.41-4.77-13.2-8.65
				c-3.79-3.88-6.47-8.37-8.05-13.48c-1.67-6-1.62-11.99,0.14-17.97c1.76-5.98,4.92-11.06,9.46-15.24
				c5.38-4.64,11.2-6.96,17.46-6.96c6.26,0,12.11,1.8,17.53,5.4C161.86,19.06,166.01,23.91,168.88,30z M140.54,33.71
				c-2.63,0.46-4.43,1.65-5.4,3.55c-0.97,1.9-1.22,3.93-0.74,6.08c0.48,2.15,1.54,3.86,3.18,5.13c0.28-0.93,0.71-1.86,1.3-2.78
				c1.36-2.04,2.99-3.29,4.89-3.73c1.9-0.45,3.75-0.22,5.54,0.67c0.12-2.47-0.6-4.65-2.18-6.52
				C145.55,34.23,143.36,33.43,140.54,33.71z"/>
		</g>
	</g>
	<g id="XMLID_22434_">
		<g>
			<g>
				<path id="XMLID_00000127018140395609311550000004000386188239510158_" class="st1" d="M41.26,35.08
					c-0.8,2.2-2.08,3.52-3.83,3.97c-1.75,0.45-3.66,0.61-5.73,0.49h-1.95c-0.31,0-0.61,0.02-0.9,0.07c-0.29,0.05-0.56,0.15-0.81,0.3
					c-0.34,0.31-0.56,0.7-0.65,1.18c-0.09,0.48-0.09,0.95,0,1.42c0.25,1.79,0.63,3.57,1.16,5.33c0.25,0.8,0.46,1.62,0.65,2.46
					c0.77,2.66,0.83,5.29,0.19,7.89c-1.11,3.03-3.17,5.15-6.17,6.36c-3.43,1.27-6.76,1.21-9.97-0.16c-3.22-1.38-5.77-3.58-7.65-6.61
					C4.56,56,3.87,54.19,3.5,52.33s-0.63-3.74-0.79-5.66c-0.12-1.24-0.28-2.47-0.46-3.71c-0.8-5.5-0.91-11.02-0.32-16.56
					c0.46-4.39,1.71-8.54,3.73-12.43c2.02-3.9,4.88-7,8.56-9.32c3-1.73,6.04-2.71,9.12-2.92c3.08-0.22,6.21-0.19,9.39,0.09
					c1.73,0.12,3.46,0.22,5.2,0.28c1.48,0,2.95,0.17,4.38,0.51c1.44,0.34,2.73,0.96,3.87,1.86c1.27,1.08,2.14,2.42,2.62,4.01
					c0.48,1.59,0.5,3.19,0.07,4.8c-1.11,3.28-3.34,5.41-6.68,6.4c-1.46,0.28-2.88,0.28-4.27,0l-1.58-0.19
					c-2.26-0.19-4.52-0.14-6.77,0.14c-0.53,0.06-1.04,0.19-1.53,0.39c-0.49,0.2-0.85,0.53-1.07,1c-0.16,0.5-0.13,0.97,0.07,1.42
					c0.2,0.45,0.52,0.81,0.95,1.09c0.87,0.46,1.81,0.7,2.83,0.7c0.25,0,0.49,0.02,0.74,0.05c1.61,0.03,3.2,0.23,4.78,0.6
					c1.92,0.46,3.43,1.48,4.55,3.06c0.62,0.96,0.95,2.03,1,3.2c0.05,1.17-0.1,2.32-0.44,3.43C41.38,34.72,41.32,34.89,41.26,35.08z"
					/>
				<path class="st2" d="M18.34,66.99c-1.94,0-3.85-0.4-5.71-1.2c-3.5-1.5-6.31-3.92-8.36-7.22c-1.13-1.94-1.89-3.93-2.29-5.94
					c-0.38-1.89-0.65-3.86-0.81-5.84c-0.12-1.18-0.27-2.4-0.45-3.61c-0.82-5.61-0.93-11.31-0.33-16.95
					c0.48-4.57,1.79-8.93,3.9-12.98c2.14-4.12,5.2-7.46,9.11-9.92c3.24-1.87,6.53-2.93,9.83-3.16c3.15-0.22,6.39-0.19,9.64,0.1
					c1.69,0.12,3.42,0.21,5.12,0.27c1.55,0.03,3.13,0.19,4.68,0.55c1.65,0.39,3.16,1.11,4.47,2.14c1.54,1.32,2.58,2.91,3.15,4.79
					c0.56,1.87,0.59,3.77,0.08,5.65l-0.03,0.1c-1.28,3.77-3.87,6.25-7.71,7.39l-0.15,0.04c-1.62,0.31-3.24,0.31-4.8,0.01l-1.52-0.18
					c-2.09-0.17-4.26-0.13-6.4,0.14c-0.39,0.05-0.77,0.14-1.14,0.29c-0.1,0.04-0.16,0.09-0.2,0.13c-0.01,0.1,0.01,0.15,0.03,0.21
					c0.07,0.16,0.17,0.28,0.33,0.39c0.63,0.32,1.29,0.48,2.04,0.48c0.28,0,0.57,0.02,0.85,0.05c1.68,0.04,3.37,0.25,5.02,0.64
					c2.29,0.55,4.13,1.79,5.46,3.68c0.81,1.25,1.22,2.59,1.28,4.04c0.05,1.34-0.12,2.67-0.51,3.94l-0.04,0.13
					c-0.05,0.13-0.1,0.26-0.15,0.41l-0.02,0.05c-0.99,2.69-2.64,4.36-4.9,4.93c-1.89,0.49-3.98,0.67-6.21,0.53l-1.85,0
					c-0.23,0-0.45,0.02-0.66,0.05c-0.03,0.01-0.07,0.01-0.1,0.02c-0.03,0.05-0.06,0.13-0.08,0.23c-0.05,0.28-0.05,0.55,0,0.82
					c0.25,1.79,0.62,3.51,1.13,5.19c0.25,0.83,0.48,1.69,0.68,2.56c0.82,2.82,0.89,5.74,0.18,8.6l-0.05,0.16
					c-1.27,3.45-3.64,5.89-7.05,7.26C21.95,66.65,20.13,66.99,18.34,66.99z M27.39,3.13c-1.33,0-2.65,0.05-3.95,0.14
					c-2.82,0.2-5.67,1.11-8.45,2.72c-3.38,2.13-6.07,5.07-7.96,8.69c-1.93,3.7-3.13,7.7-3.57,11.88C2.89,31.95,3,37.39,3.78,42.74
					c0.19,1.25,0.35,2.53,0.47,3.78c0.15,1.89,0.41,3.73,0.77,5.51c0.34,1.68,0.98,3.35,1.91,4.95c1.71,2.74,3.98,4.71,6.92,5.96
					c2.86,1.23,5.75,1.27,8.83,0.13c2.53-1.02,4.25-2.78,5.22-5.36c0.56-2.29,0.49-4.64-0.19-7c-0.2-0.89-0.41-1.67-0.64-2.43
					c-0.55-1.85-0.96-3.72-1.21-5.58c-0.12-0.57-0.12-1.24,0.01-1.92c0.16-0.82,0.54-1.5,1.13-2.04l0.23-0.17
					c0.42-0.26,0.89-0.44,1.39-0.52c0.38-0.06,0.76-0.09,1.15-0.09h1.95c2,0.12,3.76-0.03,5.34-0.44c1.23-0.31,2.13-1.29,2.75-2.97
					c0.06-0.18,0.12-0.35,0.19-0.51c0.27-0.92,0.39-1.88,0.36-2.86c-0.03-0.9-0.28-1.69-0.75-2.42c-0.86-1.22-2.05-2.02-3.61-2.39
					c-1.45-0.34-2.95-0.53-4.44-0.56l-0.16-0.01c-0.18-0.02-0.37-0.03-0.55-0.03c-1.27,0-2.47-0.3-3.56-0.88l-0.11-0.06
					c-0.69-0.44-1.2-1.04-1.53-1.76c-0.36-0.79-0.4-1.66-0.13-2.52l0.07-0.19c0.38-0.81,1.03-1.43,1.89-1.78
					c0.63-0.25,1.28-0.42,1.94-0.5c2.34-0.29,4.72-0.34,7.08-0.14l1.76,0.21c1.16,0.23,2.37,0.24,3.6,0.01
					c2.79-0.85,4.61-2.6,5.56-5.34c0.35-1.32,0.32-2.6-0.07-3.9c-0.4-1.31-1.1-2.39-2.14-3.28c-0.91-0.71-2.01-1.24-3.22-1.53
					c-1.32-0.31-2.67-0.47-4.02-0.47c-1.79-0.06-3.56-0.16-5.31-0.28C30.86,3.21,29.11,3.13,27.39,3.13z"/>
			</g>
			<g>
				<path id="XMLID_00000031179461687884812320000007516657596073933712_" class="st1" d="M67.74,55.39
					c-0.96,2.94-2.38,5.38-4.27,7.33c-1.95,2.04-4.65,3.03-8.12,2.97c-2.72-0.16-5.11-1.06-7.17-2.71c-2.06-1.65-3.41-3.8-4.06-6.42
					c-0.46-2.38-0.45-4.78,0.05-7.19s1.13-4.78,1.9-7.1c0.28-0.87,0.54-1.72,0.79-2.55c1.45-4.98,2.92-9.96,4.41-14.94
					c0.68-2.47,1.46-4.93,2.34-7.38c0.88-2.44,2-4.75,3.36-6.91c1.39-2.23,3.12-4.14,5.2-5.75c2.07-1.61,4.39-2.63,6.96-3.06
					c3.96-0.49,7.64,0.39,11.04,2.64c3.15,2.07,5.7,4.72,7.63,7.93c1.93,3.22,3.49,6.59,4.66,10.11c2.13,6.31,3.97,12.73,5.52,19.25
					c0.43,1.76,0.87,3.51,1.3,5.24l0.74,2.6c0.84,2.6,1.38,5.2,1.62,7.79c0.09,2.17-0.49,3.98-1.76,5.45
					c-1.27,1.47-2.87,2.5-4.8,3.08c-1.93,0.59-3.86,0.65-5.78,0.19c-3.31-0.96-5.95-2.89-7.93-5.8c-0.93-1.36-1.66-2.81-2.18-4.36
					c-0.4,0.03-0.82,0.03-1.25,0C74.55,55.78,71.15,55.64,67.74,55.39z M76.14,43.1c-0.53-2.38-1.07-4.75-1.62-7.1
					c-0.28-1.05-0.61-1.59-1-1.62c-0.39-0.03-0.76,0.23-1.11,0.79s-0.61,1.19-0.77,1.9c-0.4,1.89-0.77,3.94-1.11,6.17
					C72.38,43.15,74.25,43.1,76.14,43.1z"/>
				<path class="st2" d="M91.85,67.83c-0.97,0-1.94-0.12-2.9-0.35c-3.72-1.07-6.67-3.23-8.85-6.43c-0.79-1.16-1.45-2.39-1.97-3.67
					c-0.1,0-0.19-0.01-0.29-0.02c-2.95-0.02-6-0.14-9.03-0.34c-1.02,2.66-2.43,4.93-4.22,6.78c-2.24,2.35-5.37,3.5-9.26,3.44
					c-3.1-0.18-5.81-1.2-8.11-3.06c-2.31-1.86-3.86-4.3-4.59-7.26c-0.52-2.65-0.5-5.27,0.03-7.87c0.5-2.46,1.16-4.91,1.95-7.28
					c0.27-0.84,0.53-1.68,0.77-2.5c1.45-4.97,2.92-9.96,4.41-14.94c0.68-2.46,1.48-4.98,2.37-7.46c0.91-2.54,2.1-4.96,3.51-7.21
					c1.48-2.37,3.35-4.44,5.56-6.15c2.27-1.76,4.84-2.89,7.65-3.37c4.38-0.55,8.45,0.42,12.15,2.88c3.33,2.19,6.06,5.02,8.1,8.43
					c1.98,3.3,3.6,6.81,4.8,10.42c2.14,6.32,4.01,12.84,5.56,19.38c0.43,1.75,0.86,3.49,1.29,5.22l0.73,2.55
					c0.85,2.63,1.42,5.37,1.68,8.07c0.12,2.64-0.6,4.84-2.13,6.61c-1.46,1.69-3.32,2.88-5.52,3.55
					C94.31,67.64,93.08,67.83,91.85,67.83z M80.28,54.17l0.39,1.14c0.48,1.4,1.15,2.74,1.99,3.98c1.79,2.62,4.1,4.32,7.08,5.18
					c1.59,0.38,3.21,0.33,4.89-0.18c1.66-0.51,2.99-1.36,4.08-2.62c1.01-1.17,1.46-2.6,1.39-4.37c-0.23-2.4-0.75-4.92-1.55-7.39
					l-0.76-2.65c-0.45-1.78-0.88-3.53-1.31-5.3C94.95,35.53,93.11,29.1,91,22.86c-1.14-3.4-2.66-6.7-4.52-9.81
					c-1.8-3-4.21-5.5-7.15-7.44c-3.12-2.07-6.38-2.85-10-2.4c-2.23,0.38-4.34,1.31-6.2,2.75c-1.92,1.49-3.54,3.29-4.83,5.35
					c-1.3,2.06-2.38,4.29-3.22,6.62c-0.87,2.4-1.64,4.84-2.31,7.26c-1.49,5.01-2.96,9.98-4.41,14.96c-0.25,0.85-0.52,1.71-0.8,2.59
					c-0.76,2.27-1.38,4.6-1.86,6.94c-0.45,2.2-0.47,4.41-0.04,6.58c0.56,2.24,1.71,4.06,3.51,5.51c1.81,1.46,3.87,2.24,6.28,2.38
					c2.98,0.03,5.26-0.76,6.91-2.49c1.72-1.78,3.03-4.04,3.92-6.74l0.38-1.15l1.21,0.09c3.34,0.24,6.74,0.38,10.11,0.41
					c0.45,0.03,0.8,0.03,1.12,0L80.28,54.17z M68.71,44.88l0.29-1.88c0.34-2.25,0.72-4.35,1.13-6.26c0.19-0.89,0.52-1.7,0.98-2.41
					c0.85-1.34,1.85-1.56,2.54-1.5c1.67,0.14,2.18,2.05,2.38,2.77c0.57,2.4,1.11,4.77,1.64,7.16l0.42,1.89h-1.93
					c-1.85,0-3.71,0.05-5.54,0.14L68.71,44.88z M73.2,37.2c-0.02,0.07-0.03,0.14-0.05,0.21c-0.28,1.31-0.55,2.72-0.8,4.21
					c0.62-0.02,1.23-0.04,1.85-0.05C73.88,40.1,73.55,38.65,73.2,37.2z M73.86,35.81L73.86,35.81L73.86,35.81z"/>
			</g>
			<g>
				<path id="XMLID_00000140010105026689934290000010534035430558579625_" class="st1" d="M158.43,21.72
					c1.79,3.99,2.86,8.14,3.2,12.46c0.34,4.31-0.19,8.56-1.58,12.73c-1.14,3.28-2.8,6.21-4.96,8.81c0.9,1.52,1.51,3.17,1.86,4.96
					c0.28,1.79,0.08,3.58-0.58,5.36c-0.67,1.78-1.82,3.16-3.46,4.15c-1.3,0.68-2.67,0.97-4.11,0.86c-1.44-0.11-2.76-0.5-3.96-1.18
					c-1.98-1.21-3.65-2.74-5.01-4.59c-0.62,0.15-1.24,0.28-1.86,0.37c-5.23,0.83-10.34,0.31-15.35-1.58
					c-5.01-1.89-9.41-4.77-13.2-8.65c-3.79-3.88-6.47-8.37-8.05-13.48c-1.67-6-1.62-11.99,0.14-17.97
					c1.76-5.98,4.92-11.06,9.46-15.24c5.38-4.64,11.2-6.96,17.46-6.96c6.26,0,12.11,1.8,17.54,5.4
					C151.4,10.78,155.55,15.63,158.43,21.72z M130.09,25.43c-2.63,0.46-4.43,1.65-5.4,3.55c-0.97,1.9-1.22,3.93-0.74,6.08
					c0.48,2.15,1.54,3.86,3.18,5.13c0.28-0.93,0.71-1.86,1.3-2.78c1.36-2.04,2.99-3.29,4.89-3.73c1.9-0.45,3.75-0.22,5.54,0.67
					c0.12-2.47-0.6-4.65-2.18-6.52C135.1,25.95,132.9,25.15,130.09,25.43z"/>
				<path class="st2" d="M149.39,72.62c-0.23,0-0.46-0.01-0.7-0.03c-1.66-0.12-3.21-0.59-4.61-1.38c-1.89-1.15-3.51-2.56-4.87-4.21
					c-0.33,0.07-0.67,0.12-1,0.18c-5.46,0.87-10.89,0.31-16.13-1.66c-5.2-1.96-9.83-4.99-13.76-9.02c-3.94-4.04-6.78-8.78-8.42-14.1
					c-1.75-6.3-1.71-12.63,0.13-18.87c1.84-6.23,5.17-11.59,9.9-15.94c5.68-4.9,11.9-7.37,18.51-7.37c6.54,0,12.73,1.91,18.39,5.66
					c5.64,3.74,10.01,8.85,13,15.17l0.01,0.03c1.86,4.13,2.98,8.5,3.33,12.97c0.35,4.5-0.2,8.99-1.65,13.34
					c-1.09,3.11-2.62,5.96-4.58,8.49c0.71,1.4,1.22,2.91,1.52,4.51c0.33,2.1,0.1,4.17-0.65,6.19c-0.79,2.11-2.17,3.77-4.11,4.94
					C152.3,72.26,150.86,72.62,149.39,72.62z M140.46,63.52l0.62,0.84c1.23,1.68,2.77,3.09,4.57,4.18c0.96,0.54,2.07,0.87,3.27,0.96
					c1.16,0.08,2.22-0.14,3.27-0.69c1.26-0.76,2.18-1.87,2.72-3.32c0.57-1.54,0.74-3.04,0.5-4.58c-0.3-1.56-0.86-3.06-1.66-4.41
					l-0.56-0.94l0.7-0.84c2.03-2.44,3.61-5.25,4.69-8.33c1.31-3.94,1.82-8.01,1.49-12.1c-0.32-4.11-1.35-8.12-3.06-11.93
					c-2.74-5.8-6.75-10.47-11.9-13.9c-5.14-3.41-10.76-5.15-16.68-5.15c-5.85,0-11.39,2.21-16.45,6.58
					c-4.28,3.93-7.31,8.82-8.99,14.5c-1.67,5.67-1.71,11.43-0.13,17.12c1.49,4.8,4.07,9.12,7.66,12.81
					c3.61,3.7,7.86,6.49,12.63,8.28c4.73,1.78,9.63,2.28,14.56,1.5c0.59-0.09,1.16-0.2,1.72-0.34L140.46,63.52z M127.95,42.78
					l-1.78-1.38c-1.92-1.49-3.18-3.51-3.74-6.01c-0.56-2.5-0.26-4.9,0.88-7.12c1.2-2.35,3.4-3.82,6.52-4.37l0.12-0.02
					c3.33-0.33,6,0.66,7.93,2.93c1.83,2.17,2.69,4.73,2.54,7.59l-0.12,2.37l-2.12-1.06c-1.47-0.74-2.94-0.92-4.5-0.55
					c-1.52,0.36-2.81,1.37-3.96,3.08c-0.49,0.77-0.87,1.58-1.1,2.37L127.95,42.78z M130.3,26.97c-2.11,0.38-3.5,1.27-4.24,2.72
					c-0.81,1.58-1.01,3.23-0.61,5.03c0.23,1.03,0.61,1.93,1.15,2.71c0.16-0.29,0.32-0.57,0.5-0.86c1.6-2.4,3.56-3.87,5.85-4.41
					c1.42-0.33,2.81-0.35,4.18-0.06c-0.26-1.19-0.81-2.28-1.65-3.28C134.26,27.36,132.57,26.75,130.3,26.97z"/>
			</g>
		</g>
	</g>
</g>
</svg>
