<?xml version="1.0" encoding="utf-8"?>
<!-- Generator: Adobe Illustrator 25.4.1, SVG Export Plug-In . SVG Version: 6.00 Build 0)  -->
<svg version="1.1" id="圖層_1" xmlns="http://www.w3.org/2000/svg" xmlns:xlink="http://www.w3.org/1999/xlink" x="0px" y="0px"
	 viewBox="0 0 257.92 71.22" style="enable-background:new 0 0 257.92 71.22;" xml:space="preserve">
<style type="text/css">
	.st0{fill:#231815;}
	.st1{fill:#F7B52C;}
	.st2{fill:#FFFFFF;}
</style>
<g id="XMLID_26923_">
	<path id="XMLID_26924_" class="st0" d="M59.52,50.34c1.02,1.43,1.78,2.98,2.28,4.63s0.64,3.34,0.44,5.07
		c-0.26,1.75-0.95,3.31-2.06,4.67c-1.11,1.36-2.52,2.26-4.21,2.7c-2.87,0.47-5.44-0.26-7.72-2.19c-1.96-1.75-3.5-3.83-4.63-6.23
		s-2.08-4.83-2.87-7.28c-0.35-1.05-0.78-2.11-1.27-3.16c-0.5-1.05-1.16-1.96-1.97-2.72c-0.67-0.56-1.51-0.91-2.52-1.05
		c-1.01-0.15-1.85,0.12-2.52,0.79c-0.32,0.38-0.5,0.83-0.55,1.34c-0.04,0.51-0.01,1.02,0.11,1.51c0.23,1.38,0.37,2.75,0.39,4.12
		c0.06,0.67,0.13,1.33,0.22,1.97c0.18,0.96,0.23,1.95,0.18,2.94c-0.15,2.11-0.78,4.13-1.89,6.08s-2.79,3.12-5.04,3.53
		c-2.63,0.26-5.04-0.28-7.24-1.62c-2.19-1.34-3.82-3.22-4.87-5.62c-0.61-1.4-1.03-2.82-1.25-4.25s-0.37-2.88-0.46-4.34
		c-0.06-0.96-0.15-1.93-0.26-2.9c-0.09-0.88-0.19-1.74-0.31-2.59c-0.38-2.84-0.63-5.7-0.75-8.6c-0.21-4.3,0.1-8.5,0.92-12.61
		s2.75-7.79,5.79-11.03c2.6-2.57,5.54-4.37,8.82-5.4c3.28-1.02,6.68-1.64,10.22-1.84c4.91-0.41,9.48,0.26,13.69,2.02
		c4.21,1.75,7.33,5.07,9.34,9.96c1.02,2.72,1.36,5.28,1.01,7.68s-1.24,4.85-2.68,7.37c-0.85,1.52-1.92,2.88-3.2,4.08
		c-0.35,0.29-0.72,0.57-1.1,0.83c-0.47,0.32-0.9,0.67-1.29,1.05s-0.68,0.85-0.86,1.4c-0.23,0.85-0.08,1.58,0.46,2.19
		c0.54,0.61,1.18,1.16,1.91,1.62c0.32,0.26,0.63,0.51,0.92,0.75C56.54,46.7,58.15,48.41,59.52,50.34z M32.37,24.94
		c-0.41,1.11-0.54,2.3-0.39,3.55c0.03,0.29,0.07,0.59,0.13,0.88c0.06,0.29,0.17,0.54,0.35,0.75c0.23,0.23,0.5,0.39,0.81,0.46
		s0.62,0.1,0.94,0.07c0.7,0.03,1.39-0.07,2.06-0.31c1.23-0.56,1.97-1.43,2.21-2.61c0.25-1.18-0.08-2.26-0.99-3.22
		c-0.82-0.82-1.74-1.23-2.76-1.23S32.92,23.83,32.37,24.94z"/>
	<path id="XMLID_26929_" class="st0" d="M104.05,14.68c0.09,0.44,0.16,0.86,0.22,1.27c0.32,1.64,0.42,3.29,0.29,4.96
		c-0.13,1.67-0.81,3.03-2.04,4.08c-0.97,0.7-2.06,1.08-3.27,1.14s-2.41-0.07-3.58-0.39c-0.24-0.09-0.47-0.16-0.7-0.22
		c-1.29-0.47-2.57-0.61-3.86-0.44c-0.79,0.21-1.39,0.66-1.8,1.36s-0.4,1.38,0.04,2.02c0.38,0.44,0.87,0.67,1.47,0.68
		s1.23-0.04,1.91-0.15c0.61-0.12,1.21-0.19,1.8-0.22c1.67,0.17,2.95,0.96,3.86,2.37c0.76,1.34,1.23,2.81,1.4,4.39
		c0.2,1.23,0.2,2.45,0,3.66c-0.21,1.21-0.79,2.19-1.75,2.92c-1.23,0.73-2.6,1.02-4.12,0.88c-0.26,0-0.53-0.01-0.79-0.04
		c-0.94-0.06-1.91-0.05-2.92,0.02c-1.01,0.07-1.84,0.39-2.48,0.94c-0.41,0.41-0.66,0.91-0.75,1.49s0.01,1.14,0.31,1.67
		c0.35,0.64,0.88,1.11,1.6,1.4s1.45,0.44,2.22,0.44c0.82-0.03,1.64-0.12,2.46-0.26c0.67-0.12,1.34-0.2,2.02-0.26
		c1.99-0.09,3.84,0.37,5.55,1.38c1.71,1.01,2.99,2.39,3.84,4.15c1.05,2.4,1.13,4.79,0.22,7.17c-0.91,2.38-2.6,4.09-5.09,5.11
		c-6,2.08-12.06,2.16-18.18,0.24S70.96,61,67.42,55.92c-3.71-5.79-5.53-12.17-5.44-19.13s2.25-13.21,6.49-18.73
		c3.01-3.71,6.73-6.62,11.14-8.71c4.42-2.09,9.08-2.98,13.99-2.65c2.66,0.18,4.93,0.9,6.8,2.17
		C102.28,10.14,103.49,12.07,104.05,14.68z"/>
	<path id="XMLID_26933_" class="st0" d="M156.83,50.34c1.02,1.43,1.78,2.98,2.28,4.63s0.64,3.34,0.44,5.07
		c-0.26,1.75-0.95,3.31-2.06,4.67c-1.11,1.36-2.52,2.26-4.21,2.7c-2.87,0.47-5.44-0.26-7.72-2.19c-1.96-1.75-3.5-3.83-4.63-6.23
		s-2.08-4.83-2.87-7.28c-0.35-1.05-0.78-2.11-1.27-3.16c-0.5-1.05-1.16-1.96-1.97-2.72c-0.67-0.56-1.51-0.91-2.52-1.05
		c-1.01-0.15-1.85,0.12-2.52,0.79c-0.32,0.38-0.5,0.83-0.55,1.34c-0.04,0.51-0.01,1.02,0.11,1.51c0.23,1.38,0.37,2.75,0.39,4.12
		c0.06,0.67,0.13,1.33,0.22,1.97c0.18,0.96,0.23,1.95,0.18,2.94c-0.15,2.11-0.78,4.13-1.89,6.08s-2.79,3.12-5.04,3.53
		c-2.63,0.26-5.04-0.28-7.24-1.62c-2.19-1.34-3.82-3.22-4.87-5.62c-0.61-1.4-1.03-2.82-1.25-4.25s-0.37-2.88-0.46-4.34
		c-0.06-0.96-0.15-1.93-0.26-2.9c-0.09-0.88-0.19-1.74-0.31-2.59c-0.38-2.84-0.63-5.7-0.75-8.6c-0.21-4.3,0.1-8.5,0.92-12.61
		s2.75-7.79,5.79-11.03c2.6-2.57,5.54-4.37,8.82-5.4c3.28-1.02,6.68-1.64,10.22-1.84c4.91-0.41,9.48,0.26,13.69,2.02
		c4.21,1.75,7.33,5.07,9.34,9.96c1.02,2.72,1.36,5.28,1.01,7.68s-1.24,4.85-2.68,7.37c-0.85,1.52-1.92,2.88-3.2,4.08
		c-0.35,0.29-0.72,0.57-1.1,0.83c-0.47,0.32-0.9,0.67-1.29,1.05s-0.68,0.85-0.86,1.4c-0.23,0.85-0.08,1.58,0.46,2.19
		c0.54,0.61,1.18,1.16,1.91,1.62c0.32,0.26,0.63,0.51,0.92,0.75C153.84,46.7,155.45,48.41,156.83,50.34z M129.67,24.94
		c-0.41,1.11-0.54,2.3-0.39,3.55c0.03,0.29,0.07,0.59,0.13,0.88c0.06,0.29,0.17,0.54,0.35,0.75c0.23,0.23,0.5,0.39,0.81,0.46
		s0.62,0.1,0.94,0.07c0.7,0.03,1.39-0.07,2.06-0.31c1.23-0.56,1.97-1.43,2.21-2.61c0.25-1.18-0.08-2.26-0.99-3.22
		c-0.82-0.82-1.74-1.23-2.76-1.23S130.23,23.83,129.67,24.94z"/>
	<path id="XMLID_26937_" class="st0" d="M201.35,14.68c0.09,0.44,0.16,0.86,0.22,1.27c0.32,1.64,0.42,3.29,0.29,4.96
		c-0.13,1.67-0.81,3.03-2.04,4.08c-0.97,0.7-2.06,1.08-3.27,1.14s-2.41-0.07-3.58-0.39c-0.24-0.09-0.47-0.16-0.7-0.22
		c-1.29-0.47-2.57-0.61-3.86-0.44c-0.79,0.21-1.39,0.66-1.8,1.36s-0.4,1.38,0.04,2.02c0.38,0.44,0.87,0.67,1.47,0.68
		s1.23-0.04,1.91-0.15c0.61-0.12,1.21-0.19,1.8-0.22c1.67,0.17,2.95,0.96,3.86,2.37c0.76,1.34,1.23,2.81,1.4,4.39
		c0.2,1.23,0.2,2.45,0,3.66c-0.21,1.21-0.79,2.19-1.75,2.92c-1.23,0.73-2.6,1.02-4.12,0.88c-0.26,0-0.53-0.01-0.79-0.04
		c-0.94-0.06-1.91-0.05-2.92,0.02s-1.84,0.39-2.48,0.94c-0.41,0.41-0.66,0.91-0.75,1.49s0.01,1.14,0.31,1.67
		c0.35,0.64,0.88,1.11,1.6,1.4s1.45,0.44,2.22,0.44c0.82-0.03,1.64-0.12,2.46-0.26c0.67-0.12,1.34-0.2,2.02-0.26
		c1.99-0.09,3.84,0.37,5.55,1.38c1.71,1.01,2.99,2.39,3.84,4.15c1.05,2.4,1.13,4.79,0.22,7.17c-0.91,2.38-2.6,4.09-5.09,5.11
		c-6,2.08-12.06,2.16-18.18,0.24s-10.96-5.42-14.5-10.51c-3.71-5.79-5.53-12.17-5.44-19.13s2.25-13.21,6.49-18.73
		c3.01-3.71,6.73-6.62,11.14-8.71c4.42-2.09,9.08-2.98,13.99-2.65c2.66,0.18,4.93,0.9,6.8,2.17
		C199.58,10.14,200.8,12.07,201.35,14.68z"/>
	<path id="XMLID_26940_" class="st0" d="M254.48,51.05c1.23,1.58,2.16,3.23,2.81,4.96s0.79,3.45,0.44,5.18
		c-0.44,1.78-1.51,3.35-3.2,4.69s-3.77,2.11-6.23,2.28c-2.98,0-5.62-0.76-7.9-2.28c-2.08-1.49-3.76-3.2-5.04-5.13
		c-1.11-1.55-2.18-3.17-3.2-4.87c-1.26,2.87-2.85,5.63-4.78,8.29c-1.32,1.73-3.09,2.88-5.31,3.47c-2.22,0.58-4.62,0.72-7.19,0.39
		c-2.87-0.29-5.08-1.33-6.62-3.12c-0.91-1.49-1.12-3.02-0.64-4.58s1.16-3.06,2.04-4.5c0.09-0.2,0.19-0.42,0.31-0.66
		c1.4-2.49,2.9-4.94,4.47-7.37c2.25-3.51,3.63-6.42,4.12-8.73s-1.58-6.16-6.23-11.54c-1.73-1.46-3.33-2.98-4.83-4.54
		c-1.49-1.56-2.56-3.28-3.2-5.15c-0.58-1.96-0.37-3.86,0.64-5.7s2.74-3.1,5.2-3.77c2.22-0.41,4.39-0.22,6.51,0.57s4,1.84,5.64,3.16
		c3.04,2.54,5.69,5.78,7.94,9.7c0,0.03,0.01,0.06,0.04,0.09v0.04c1.26-2.16,2.57-4.31,3.95-6.45c1.26-2.22,2.91-4.23,4.96-6.01
		c0.61-0.5,1.3-0.95,2.06-1.36c2.28-1.11,4.8-1.49,7.57-1.14s4.8,1.43,6.12,3.25c1.08,1.99,1.3,4.07,0.66,6.23
		c-0.73,3.33-2.28,6.45-4.65,9.34c-1.79,2.13-3.1,4.42-3.95,6.87c-0.85,2.44-0.66,4.89,0.57,7.35
		C249.54,43.82,251.85,47.51,254.48,51.05z"/>
</g>
<g id="XMLID_395_">
	<g>
		<path id="XMLID_00000127033604245699385660000006813750440400409265_" class="st1" d="M51.56,46.21c1.02,1.43,1.78,2.98,2.28,4.63
			s0.64,3.34,0.44,5.07c-0.26,1.75-0.95,3.31-2.06,4.67s-2.52,2.26-4.21,2.7c-2.87,0.47-5.44-0.26-7.72-2.19
			c-1.96-1.75-3.5-3.83-4.63-6.23c-1.13-2.4-2.08-4.83-2.87-7.28c-0.35-1.05-0.78-2.11-1.27-3.16c-0.5-1.05-1.16-1.96-1.97-2.72
			c-0.67-0.56-1.51-0.91-2.52-1.05c-1.01-0.15-1.85,0.12-2.52,0.79c-0.32,0.38-0.5,0.83-0.55,1.34c-0.04,0.51-0.01,1.02,0.11,1.51
			c0.23,1.38,0.37,2.75,0.39,4.12c0.06,0.67,0.13,1.33,0.22,1.97c0.18,0.96,0.23,1.95,0.18,2.94c-0.15,2.11-0.78,4.13-1.89,6.08
			c-1.11,1.95-2.79,3.12-5.04,3.53c-2.63,0.26-5.04-0.28-7.24-1.62c-2.19-1.34-3.82-3.22-4.87-5.62c-0.61-1.4-1.03-2.82-1.25-4.26
			C4.35,50,4.2,48.55,4.11,47.09c-0.06-0.96-0.15-1.93-0.26-2.9c-0.09-0.88-0.19-1.74-0.31-2.59c-0.38-2.84-0.63-5.7-0.75-8.6
			c-0.21-4.3,0.1-8.5,0.92-12.61S6.46,12.6,9.5,9.36c2.6-2.57,5.54-4.37,8.82-5.4C21.6,2.94,25,2.32,28.54,2.12
			c4.9-0.41,9.46,0.26,13.67,2.01s7.33,5.07,9.34,9.96c1.02,2.72,1.36,5.28,1.01,7.68c-0.35,2.4-1.24,4.85-2.68,7.37
			c-0.85,1.52-1.92,2.88-3.2,4.08c-0.35,0.29-0.72,0.57-1.1,0.83c-0.47,0.32-0.9,0.67-1.29,1.05s-0.68,0.85-0.86,1.4
			c-0.23,0.85-0.08,1.58,0.46,2.19c0.54,0.61,1.18,1.16,1.91,1.62c0.32,0.26,0.63,0.51,0.92,0.75
			C48.57,42.56,50.18,44.28,51.56,46.21z M24.4,20.8c-0.41,1.11-0.54,2.3-0.39,3.55c0.03,0.29,0.07,0.59,0.13,0.88
			c0.06,0.29,0.17,0.54,0.35,0.75c0.23,0.23,0.5,0.39,0.81,0.46s0.62,0.1,0.94,0.07c0.7,0.03,1.39-0.07,2.06-0.31
			c1.23-0.56,1.97-1.43,2.21-2.61c0.25-1.18-0.08-2.26-0.99-3.22c-0.82-0.82-1.74-1.23-2.76-1.23S24.96,19.69,24.4,20.8z"/>
		<path class="st2" d="M46.34,65.41c-2.68,0-5.15-0.94-7.36-2.81c-2.19-1.96-3.91-4.28-5.15-6.91c-1.16-2.47-2.16-5-2.97-7.52
			c-0.32-0.95-0.72-1.94-1.18-2.92c-0.38-0.81-0.87-1.48-1.48-2.07c-0.38-0.3-0.87-0.49-1.5-0.58c-0.4-0.06-0.6,0.03-0.75,0.15
			c-0.02,0.04-0.04,0.08-0.04,0.16c-0.03,0.3-0.01,0.59,0.06,0.88l0.02,0.12c0.25,1.44,0.39,2.91,0.42,4.35
			c0.05,0.62,0.12,1.22,0.2,1.81c0.19,1.03,0.26,2.17,0.19,3.33c-0.17,2.42-0.89,4.76-2.15,6.95c-1.41,2.47-3.57,3.99-6.42,4.51
			l-0.16,0.02c-3.06,0.3-5.92-0.34-8.48-1.91c-2.54-1.56-4.44-3.75-5.66-6.52c-0.68-1.56-1.15-3.16-1.4-4.76
			c-0.23-1.48-0.39-3-0.48-4.52c-0.06-0.92-0.14-1.85-0.25-2.77c-0.09-0.9-0.19-1.73-0.3-2.56C1.11,38.96,0.86,36,0.74,33.05
			C0.56,28.66,0.88,24.25,1.73,20c0.89-4.46,3.01-8.5,6.29-12.01c2.87-2.84,6.11-4.82,9.68-5.94c3.42-1.07,7.02-1.72,10.7-1.93
			c5.16-0.43,10.08,0.3,14.57,2.17c4.7,1.96,8.2,5.67,10.42,11.04c1.16,3.09,1.54,6,1.14,8.73c-0.38,2.63-1.37,5.35-2.92,8.07
			c-0.94,1.68-2.15,3.22-3.58,4.55l-0.08,0.07c-0.39,0.33-0.81,0.64-1.24,0.94c-0.38,0.26-0.73,0.55-1.05,0.85
			c-0.15,0.15-0.26,0.33-0.34,0.57c-0.04,0.16-0.01,0.19,0.05,0.27c0.42,0.47,0.92,0.9,1.49,1.26l0.19,0.14
			c0.31,0.26,0.62,0.5,0.9,0.73c1.98,1.6,3.73,3.46,5.21,5.53l0,0c1.14,1.6,2.01,3.36,2.57,5.21c0.57,1.91,0.75,3.89,0.51,5.88
			c-0.33,2.17-1.16,4.07-2.5,5.7c-1.38,1.69-3.15,2.82-5.26,3.37l-0.18,0.04C47.65,65.35,46.99,65.41,46.34,65.41z M26.48,38.59
			c0.27,0,0.54,0.02,0.82,0.06c1.37,0.2,2.55,0.7,3.51,1.49l0.09,0.08c1,0.93,1.82,2.05,2.42,3.33c0.53,1.12,0.99,2.26,1.36,3.38
			c0.77,2.38,1.7,4.75,2.79,7.07c1.01,2.14,2.4,4.02,4.15,5.59c1.76,1.49,3.73,2.07,5.97,1.72c1.25-0.34,2.25-1,3.08-2
			c0.89-1.09,1.42-2.3,1.63-3.7c0.16-1.38,0.04-2.81-0.38-4.19c-0.43-1.44-1.1-2.8-1.99-4.04l0,0c-1.26-1.77-2.76-3.37-4.46-4.74
			c-0.26-0.21-0.55-0.44-0.84-0.68c-0.84-0.55-1.59-1.2-2.23-1.92c-0.98-1.12-1.3-2.55-0.89-4.05c0.3-0.95,0.76-1.7,1.4-2.31
			c0.47-0.45,0.99-0.88,1.55-1.26c0.31-0.22,0.62-0.45,0.91-0.69c1.11-1.04,2.04-2.24,2.78-3.55c1.31-2.3,2.13-4.55,2.44-6.68
			c0.3-2.05,0-4.3-0.9-6.68c-1.8-4.36-4.5-7.26-8.24-8.82c-3.89-1.62-8.18-2.25-12.75-1.87C25.28,4.31,22,4.9,18.9,5.87
			c-2.95,0.92-5.65,2.58-8.01,4.91c-2.71,2.9-4.49,6.28-5.23,10c-0.78,3.93-1.08,8.01-0.89,12.13c0.12,2.84,0.36,5.67,0.73,8.43
			c0.12,0.87,0.23,1.75,0.31,2.66c0.12,0.96,0.21,1.97,0.27,2.97c0.08,1.4,0.23,2.8,0.44,4.16c0.19,1.25,0.56,2.52,1.1,3.76
			c0.89,2.03,2.23,3.58,4.08,4.71c1.81,1.11,3.74,1.55,5.91,1.35c1.64-0.32,2.78-1.13,3.59-2.54c0.95-1.67,1.5-3.43,1.63-5.22
			c0.05-0.81,0-1.64-0.15-2.44c-0.11-0.76-0.18-1.45-0.24-2.16l-0.01-0.13c-0.03-1.25-0.15-2.52-0.36-3.78
			c-0.15-0.68-0.2-1.38-0.14-2.08c0.08-0.93,0.42-1.76,1.01-2.46l0.11-0.12C24.01,39.08,25.17,38.59,26.48,38.59z M25.97,28.52
			c-0.38,0-0.76-0.04-1.13-0.13c-0.67-0.16-1.26-0.49-1.76-0.99l-0.1-0.11c-0.4-0.47-0.67-1.03-0.8-1.66
			c-0.07-0.35-0.12-0.71-0.16-1.06c-0.18-1.53-0.01-3.04,0.51-4.44l0.09-0.2c1.21-2.41,3.12-2.77,4.16-2.77
			c1.55,0,2.99,0.63,4.18,1.81c1.4,1.49,1.91,3.22,1.53,5.05c-0.38,1.81-1.54,3.2-3.35,4.02l-0.17,0.07
			c-0.87,0.3-1.77,0.45-2.68,0.42C26.18,28.52,26.07,28.52,25.97,28.52z M26.1,24.84L26.1,24.84L26.1,24.84z M26.24,21.6
			c-0.27,0.79-0.35,1.62-0.25,2.52c0.01,0.14,0.03,0.27,0.05,0.39c0.01,0,0.01,0,0.02,0l0.13-0.01l0.13,0.01
			c0.42,0.01,0.83-0.04,1.23-0.17c0.74-0.36,0.92-0.79,1-1.16c0.08-0.39,0.08-0.84-0.49-1.44c-0.53-0.52-0.98-0.6-1.31-0.6
			C26.66,21.14,26.49,21.14,26.24,21.6z"/>
	</g>
	<g>
		<path id="XMLID_00000045600314522277412330000005590229440282088355_" class="st1" d="M96.08,10.54c0.09,0.44,0.16,0.86,0.22,1.27
			c0.32,1.64,0.42,3.29,0.29,4.96s-0.81,3.03-2.04,4.08c-0.97,0.7-2.06,1.08-3.27,1.14s-2.41-0.07-3.58-0.39
			c-0.24-0.09-0.47-0.16-0.7-0.22c-1.29-0.47-2.57-0.61-3.86-0.44c-0.79,0.21-1.39,0.66-1.8,1.36s-0.4,1.38,0.04,2.02
			c0.38,0.44,0.87,0.67,1.47,0.68c0.6,0.02,1.23-0.04,1.91-0.15c0.61-0.12,1.21-0.19,1.8-0.22c1.67,0.18,2.95,0.97,3.86,2.37
			c0.76,1.35,1.23,2.81,1.4,4.39c0.2,1.23,0.2,2.45,0,3.66c-0.21,1.21-0.79,2.19-1.75,2.92c-1.23,0.73-2.6,1.02-4.12,0.88
			c-0.26,0-0.53-0.01-0.79-0.04c-0.94-0.06-1.91-0.05-2.92,0.02c-1.01,0.07-1.84,0.39-2.48,0.94c-0.41,0.41-0.66,0.91-0.75,1.49
			c-0.09,0.59,0.01,1.14,0.31,1.67c0.35,0.64,0.88,1.11,1.6,1.4s1.45,0.44,2.22,0.44c0.82-0.03,1.64-0.12,2.46-0.26
			c0.67-0.12,1.34-0.2,2.02-0.26c1.99-0.09,3.84,0.37,5.55,1.38c1.71,1.01,2.99,2.39,3.84,4.15c1.05,2.4,1.13,4.79,0.22,7.17
			c-0.91,2.38-2.6,4.09-5.09,5.11c-6,2.08-12.06,2.16-18.18,0.24c-6.13-1.92-10.96-5.42-14.5-10.51
			c-3.71-5.79-5.53-12.17-5.44-19.13s2.25-13.21,6.49-18.73c3.01-3.71,6.73-6.62,11.14-8.71c4.42-2.09,9.08-2.98,13.99-2.65
			c2.66,0.18,4.93,0.9,6.8,2.17C94.31,6,95.53,7.94,96.08,10.54z"/>
		<path class="st2" d="M82.72,65.66c-3.12,0-6.24-0.49-9.37-1.46c-6.53-2.04-11.76-5.83-15.54-11.27
			c-3.95-6.16-5.89-12.97-5.8-20.29c0.09-7.37,2.42-14.07,6.91-19.92c3.22-3.97,7.21-7.09,11.87-9.3c4.71-2.23,9.75-3.18,14.98-2.84
			c3.01,0.2,5.63,1.04,7.79,2.51c2.3,1.57,3.81,3.94,4.47,7.05v0.02c0.09,0.46,0.17,0.9,0.23,1.33c0.35,1.79,0.45,3.62,0.31,5.45
			c-0.17,2.2-1.09,4.03-2.73,5.44l-0.13,0.1c-1.28,0.93-2.75,1.44-4.35,1.52c-0.33,0-0.67,0.01-1.02,0
			c0.68,0.51,1.27,1.15,1.76,1.91l0.06,0.1c0.88,1.56,1.44,3.28,1.64,5.1c0.23,1.42,0.23,2.86-0.01,4.27
			c-0.29,1.73-1.14,3.14-2.52,4.18l-0.18,0.12c-1.57,0.94-3.33,1.32-5.24,1.16c-0.29,0-0.57-0.02-0.86-0.05
			c-0.83-0.05-1.71-0.04-2.6,0.02c-0.54,0.04-0.95,0.17-1.25,0.41c-0.07,0.08-0.11,0.17-0.14,0.33c-0.02,0.15,0,0.26,0.08,0.4
			c0.14,0.25,0.32,0.41,0.61,0.52c0.48,0.2,0.96,0.29,1.46,0.29c0.65-0.02,1.38-0.1,2.1-0.23c0.74-0.13,1.47-0.22,2.2-0.29
			c2.46-0.11,4.7,0.45,6.74,1.65c2.05,1.21,3.6,2.89,4.62,5c1.3,2.95,1.38,5.87,0.29,8.75c-1.11,2.91-3.19,5.01-6.2,6.25l-0.11,0.04
			C89.47,65.08,86.11,65.66,82.72,65.66z M83.72,4.49c-3.91,0-7.67,0.85-11.21,2.52c-4.12,1.95-7.64,4.7-10.45,8.16
			c-3.92,5.11-5.96,11.01-6.05,17.5c-0.08,6.53,1.64,12.59,5.12,18.02c3.22,4.63,7.75,7.91,13.41,9.68s11.34,1.7,16.88-0.2
			c1.94-0.81,3.23-2.11,3.93-3.95c0.72-1.89,0.66-3.74-0.18-5.66c-0.65-1.34-1.65-2.42-3.02-3.23c-1.38-0.81-2.83-1.18-4.44-1.11
			c-0.52,0.05-1.15,0.13-1.77,0.24c-0.89,0.16-1.81,0.26-2.73,0.29H83.2c-1.08,0-2.08-0.2-3.03-0.59c-1.15-0.47-2.02-1.24-2.6-2.3
			c-0.5-0.9-0.68-1.89-0.53-2.92c0.15-1.01,0.59-1.89,1.31-2.61l0.11-0.1c0.97-0.84,2.2-1.32,3.64-1.42
			c1.09-0.08,2.16-0.09,3.19-0.02l0.1,0.01c0.19,0.02,0.38,0.03,0.57,0.03l0.19,0.01c1.05,0.1,1.97-0.08,2.81-0.55
			c0.5-0.41,0.79-0.92,0.91-1.59c0.17-0.99,0.17-2,0-3l-0.01-0.11c-0.14-1.28-0.52-2.48-1.13-3.57c-0.55-0.83-1.24-1.26-2.21-1.4
			c-0.44,0.03-0.9,0.09-1.37,0.18c-0.83,0.14-1.61,0.21-2.33,0.19c-1.17-0.03-2.18-0.5-2.93-1.37l-0.14-0.18
			c-0.87-1.28-0.92-2.79-0.12-4.16c0.68-1.16,1.72-1.95,3.02-2.29l0.23-0.05c1.57-0.22,3.16-0.04,4.72,0.51
			c0.24,0.06,0.48,0.14,0.72,0.23c0.94,0.25,1.9,0.35,2.87,0.3c0.8-0.04,1.49-0.27,2.12-0.71c0.79-0.7,1.2-1.55,1.29-2.67
			c0.12-1.48,0.03-2.96-0.25-4.41l-0.02-0.1c-0.05-0.37-0.12-0.75-0.2-1.15c-0.45-2.09-1.37-3.58-2.81-4.56
			c-1.56-1.06-3.52-1.68-5.81-1.83C84.91,4.51,84.31,4.49,83.72,4.49z M83.55,22.9c-0.07,0.02-0.14,0.06-0.2,0.09
			c0.34-0.02,0.7-0.06,1.07-0.12h0.01C84.14,22.86,83.84,22.87,83.55,22.9z"/>
	</g>
	<g>
		<path id="XMLID_00000039851179285802990120000017998311442684486046_" class="st1" d="M148.86,46.21
			c1.02,1.43,1.78,2.98,2.28,4.63s0.64,3.34,0.44,5.07c-0.26,1.75-0.95,3.31-2.06,4.67s-2.52,2.26-4.21,2.7
			c-2.87,0.47-5.44-0.26-7.72-2.19c-1.96-1.75-3.5-3.83-4.63-6.23c-1.13-2.4-2.08-4.83-2.87-7.28c-0.35-1.05-0.78-2.11-1.27-3.16
			c-0.5-1.05-1.16-1.96-1.97-2.72c-0.67-0.56-1.51-0.91-2.52-1.05c-1.01-0.15-1.85,0.12-2.52,0.79c-0.32,0.38-0.5,0.83-0.55,1.34
			c-0.04,0.51-0.01,1.02,0.11,1.51c0.23,1.38,0.37,2.75,0.39,4.12c0.06,0.67,0.13,1.33,0.22,1.97c0.18,0.96,0.23,1.95,0.18,2.94
			c-0.15,2.11-0.78,4.13-1.89,6.08c-1.11,1.95-2.79,3.12-5.04,3.53c-2.63,0.26-5.04-0.28-7.24-1.62c-2.19-1.34-3.82-3.22-4.87-5.62
			c-0.61-1.4-1.03-2.82-1.25-4.26c-0.22-1.43-0.37-2.88-0.46-4.34c-0.06-0.96-0.15-1.93-0.26-2.9c-0.09-0.88-0.19-1.74-0.31-2.59
			c-0.38-2.84-0.63-5.7-0.75-8.6c-0.21-4.3,0.1-8.5,0.92-12.61s2.75-7.79,5.79-11.03c2.6-2.57,5.54-4.37,8.82-5.4
			c3.28-1.02,6.68-1.64,10.22-1.84c4.91-0.41,9.48,0.26,13.69,2.02c4.21,1.75,7.33,5.07,9.34,9.96c1.02,2.72,1.36,5.28,1.01,7.68
			s-1.24,4.85-2.68,7.37c-0.85,1.52-1.92,2.88-3.2,4.08c-0.35,0.29-0.72,0.57-1.1,0.83c-0.47,0.32-0.9,0.67-1.29,1.05
			s-0.68,0.85-0.86,1.4c-0.23,0.85-0.08,1.58,0.46,2.19c0.54,0.61,1.18,1.16,1.91,1.62c0.32,0.26,0.63,0.51,0.92,0.75
			C145.88,42.56,147.49,44.28,148.86,46.21z M121.7,20.8c-0.41,1.11-0.54,2.3-0.39,3.55c0.03,0.29,0.07,0.59,0.13,0.88
			c0.06,0.29,0.17,0.54,0.35,0.75c0.23,0.23,0.5,0.39,0.81,0.46s0.62,0.1,0.94,0.07c0.7,0.03,1.39-0.07,2.06-0.31
			c1.23-0.56,1.97-1.43,2.21-2.61c0.25-1.18-0.08-2.26-0.99-3.22c-0.82-0.82-1.74-1.23-2.76-1.23S122.26,19.69,121.7,20.8z"/>
		<path class="st2" d="M143.65,65.41c-2.68,0-5.15-0.94-7.36-2.81c-2.19-1.96-3.91-4.28-5.15-6.91c-1.16-2.47-2.16-5-2.97-7.52
			c-0.32-0.95-0.72-1.94-1.18-2.92c-0.38-0.81-0.87-1.48-1.48-2.07c-0.38-0.3-0.87-0.49-1.5-0.58c-0.41-0.06-0.6,0.03-0.75,0.15
			c-0.02,0.04-0.04,0.08-0.04,0.16c-0.03,0.3-0.01,0.59,0.06,0.88l0.02,0.12c0.25,1.44,0.39,2.91,0.42,4.35
			c0.05,0.62,0.12,1.22,0.2,1.81c0.19,1.03,0.26,2.17,0.19,3.33c-0.17,2.42-0.89,4.76-2.15,6.95c-1.41,2.47-3.57,3.99-6.42,4.51
			l-0.16,0.02c-3.06,0.3-5.92-0.34-8.48-1.91c-2.54-1.56-4.44-3.75-5.66-6.52c-0.68-1.56-1.15-3.16-1.4-4.76
			c-0.23-1.48-0.39-3-0.48-4.52c-0.06-0.92-0.14-1.85-0.25-2.77c-0.09-0.9-0.19-1.73-0.3-2.56c-0.39-2.88-0.64-5.84-0.76-8.79
			c-0.21-4.43,0.11-8.83,0.96-13.08c0.89-4.46,3.01-8.5,6.29-12.01c2.87-2.84,6.11-4.82,9.68-5.94c3.42-1.07,7.02-1.72,10.7-1.93
			c5.17-0.43,10.08,0.3,14.57,2.17c4.7,1.96,8.2,5.67,10.42,11.04c1.16,3.09,1.54,6,1.14,8.73c-0.38,2.63-1.37,5.35-2.92,8.07
			c-0.94,1.68-2.15,3.22-3.58,4.55l-0.08,0.07c-0.39,0.33-0.81,0.64-1.24,0.94c-0.38,0.26-0.73,0.55-1.05,0.85
			c-0.15,0.15-0.26,0.33-0.34,0.57c-0.04,0.16-0.01,0.19,0.05,0.27c0.42,0.47,0.92,0.9,1.49,1.26l0.19,0.14
			c0.31,0.26,0.62,0.5,0.9,0.73c1.98,1.6,3.73,3.46,5.21,5.53l0,0c1.14,1.6,2.01,3.36,2.57,5.21c0.57,1.91,0.75,3.89,0.51,5.88
			c-0.33,2.17-1.16,4.07-2.5,5.7c-1.38,1.69-3.15,2.82-5.26,3.37l-0.18,0.04C144.96,65.35,144.3,65.41,143.65,65.41z M123.79,38.59
			c0.27,0,0.54,0.02,0.82,0.06c1.37,0.2,2.55,0.7,3.51,1.49l0.09,0.08c1,0.93,1.82,2.05,2.42,3.33c0.53,1.12,0.99,2.26,1.36,3.38
			c0.77,2.38,1.7,4.75,2.79,7.07c1.01,2.14,2.4,4.02,4.15,5.59c1.76,1.49,3.73,2.07,5.97,1.72c1.25-0.34,2.25-1,3.08-2
			c0.89-1.09,1.42-2.3,1.63-3.7c0.16-1.38,0.04-2.81-0.38-4.19c-0.43-1.44-1.1-2.8-1.99-4.04l0,0c-1.26-1.77-2.76-3.37-4.46-4.74
			c-0.26-0.21-0.55-0.44-0.84-0.68c-0.84-0.55-1.59-1.2-2.23-1.92c-0.98-1.12-1.3-2.55-0.89-4.05c0.3-0.95,0.76-1.7,1.4-2.31
			c0.47-0.45,0.99-0.88,1.55-1.26c0.31-0.22,0.62-0.45,0.91-0.69c1.11-1.04,2.04-2.24,2.78-3.55c1.31-2.3,2.13-4.55,2.44-6.68
			c0.3-2.05,0-4.3-0.9-6.68c-1.8-4.36-4.5-7.26-8.24-8.82c-3.89-1.62-8.18-2.25-12.75-1.87c-3.41,0.2-6.69,0.79-9.79,1.76
			c-2.95,0.92-5.65,2.58-8.01,4.91c-2.71,2.9-4.49,6.28-5.23,10c-0.78,3.93-1.08,8.01-0.89,12.13c0.12,2.84,0.36,5.67,0.73,8.43
			c0.12,0.87,0.23,1.75,0.31,2.66c0.12,0.96,0.21,1.97,0.27,2.97c0.08,1.4,0.23,2.8,0.44,4.16c0.19,1.25,0.56,2.52,1.1,3.76
			c0.89,2.03,2.23,3.58,4.08,4.71c1.81,1.11,3.74,1.55,5.91,1.35c1.64-0.32,2.78-1.13,3.59-2.54c0.95-1.67,1.5-3.43,1.63-5.22
			c0.05-0.81,0-1.64-0.15-2.44c-0.11-0.76-0.18-1.45-0.24-2.16l-0.01-0.13c-0.03-1.25-0.15-2.52-0.36-3.78
			c-0.15-0.68-0.2-1.38-0.14-2.08c0.08-0.93,0.42-1.76,1.01-2.46l0.11-0.12C121.31,39.08,122.48,38.59,123.79,38.59z M123.27,28.52
			c-0.38,0-0.76-0.04-1.13-0.13c-0.67-0.16-1.26-0.49-1.76-0.99l-0.1-0.11c-0.4-0.47-0.67-1.03-0.8-1.66
			c-0.07-0.35-0.12-0.71-0.16-1.06c-0.18-1.53-0.01-3.04,0.51-4.44l0.09-0.2c1.21-2.41,3.12-2.77,4.16-2.77
			c1.55,0,2.99,0.63,4.18,1.81c1.4,1.49,1.91,3.22,1.53,5.05c-0.38,1.81-1.54,3.2-3.35,4.02l-0.17,0.07
			c-0.87,0.3-1.77,0.45-2.68,0.42C123.48,28.52,123.38,28.52,123.27,28.52z M123.4,24.84L123.4,24.84L123.4,24.84z M123.54,21.6
			c-0.27,0.79-0.35,1.62-0.25,2.52c0.01,0.14,0.03,0.27,0.05,0.39c0.01,0,0.01,0,0.02,0l0.13-0.01l0.13,0.01
			c0.42,0.01,0.83-0.04,1.23-0.17c0.74-0.36,0.92-0.79,1-1.16c0.08-0.39,0.08-0.84-0.49-1.44c-0.53-0.52-0.98-0.6-1.31-0.6
			C123.96,21.14,123.8,21.14,123.54,21.6z"/>
	</g>
	<g>
		<path id="XMLID_00000157300550674559241460000006247084882175825067_" class="st1" d="M193.39,10.54
			c0.09,0.44,0.16,0.86,0.22,1.27c0.32,1.64,0.42,3.29,0.29,4.96s-0.81,3.03-2.04,4.08c-0.97,0.7-2.06,1.08-3.27,1.14
			s-2.41-0.07-3.58-0.39c-0.24-0.09-0.47-0.16-0.7-0.22c-1.29-0.47-2.57-0.61-3.86-0.44c-0.79,0.21-1.39,0.66-1.8,1.36
			s-0.4,1.38,0.04,2.02c0.38,0.44,0.87,0.67,1.47,0.68c0.6,0.02,1.23-0.04,1.91-0.15c0.61-0.12,1.21-0.19,1.8-0.22
			c1.67,0.18,2.95,0.97,3.86,2.37c0.76,1.35,1.23,2.81,1.4,4.39c0.2,1.23,0.2,2.45,0,3.66c-0.21,1.21-0.79,2.19-1.75,2.92
			c-1.23,0.73-2.6,1.02-4.12,0.88c-0.26,0-0.53-0.01-0.79-0.04c-0.94-0.06-1.91-0.05-2.92,0.02s-1.84,0.39-2.48,0.94
			c-0.41,0.41-0.66,0.91-0.75,1.49c-0.09,0.59,0.01,1.14,0.31,1.67c0.35,0.64,0.88,1.11,1.6,1.4s1.45,0.44,2.22,0.44
			c0.82-0.03,1.64-0.12,2.46-0.26c0.67-0.12,1.34-0.2,2.02-0.26c1.99-0.09,3.84,0.37,5.55,1.38c1.71,1.01,2.99,2.39,3.84,4.15
			c1.05,2.4,1.13,4.79,0.22,7.17c-0.91,2.38-2.6,4.09-5.09,5.11c-6,2.08-12.06,2.16-18.18,0.24c-6.13-1.92-10.96-5.42-14.5-10.51
			c-3.71-5.79-5.53-12.17-5.44-19.13s2.25-13.21,6.49-18.73c3.01-3.71,6.73-6.62,11.14-8.71c4.42-2.09,9.08-2.98,13.99-2.65
			c2.66,0.18,4.93,0.9,6.8,2.17C191.62,6,192.83,7.94,193.39,10.54z"/>
		<path class="st2" d="M180.03,65.66c-3.12,0-6.24-0.49-9.37-1.46c-6.53-2.04-11.76-5.83-15.54-11.27
			c-3.95-6.16-5.89-12.97-5.8-20.29c0.09-7.37,2.42-14.07,6.91-19.92c3.22-3.97,7.21-7.09,11.87-9.3c4.71-2.23,9.75-3.18,14.98-2.84
			c3.01,0.2,5.63,1.04,7.79,2.51c2.3,1.57,3.81,3.94,4.47,7.05v0.02c0.09,0.46,0.17,0.9,0.23,1.33c0.35,1.79,0.45,3.62,0.31,5.45
			c-0.17,2.2-1.09,4.03-2.73,5.44l-0.13,0.1c-1.28,0.93-2.75,1.44-4.35,1.52c-0.34,0.02-0.69,0.02-1.03,0.01
			c0.68,0.51,1.27,1.15,1.76,1.91l0.06,0.1c0.88,1.56,1.44,3.28,1.64,5.1c0.23,1.42,0.23,2.86-0.01,4.27
			c-0.29,1.73-1.14,3.14-2.52,4.18l-0.18,0.12c-1.57,0.94-3.33,1.32-5.24,1.16c-0.29,0-0.57-0.02-0.86-0.05
			c-0.83-0.05-1.7-0.04-2.6,0.02c-0.54,0.04-0.95,0.17-1.25,0.41c-0.07,0.08-0.11,0.17-0.14,0.33c-0.02,0.15,0,0.26,0.08,0.4
			c0.14,0.25,0.32,0.41,0.61,0.52c0.48,0.2,0.96,0.29,1.46,0.29c0.65-0.02,1.38-0.1,2.1-0.23c0.74-0.13,1.47-0.22,2.2-0.29
			c2.46-0.11,4.7,0.45,6.74,1.65c2.05,1.21,3.6,2.89,4.62,5c1.3,2.95,1.38,5.87,0.29,8.75c-1.11,2.91-3.19,5.01-6.2,6.25l-0.11,0.04
			C186.77,65.08,183.41,65.66,180.03,65.66z M181.02,4.49c-3.91,0-7.67,0.85-11.21,2.52c-4.12,1.95-7.64,4.7-10.45,8.16
			c-3.92,5.11-5.96,11.01-6.05,17.5c-0.08,6.53,1.64,12.59,5.12,18.02c3.22,4.63,7.75,7.91,13.41,9.68s11.34,1.7,16.88-0.2
			c1.94-0.81,3.23-2.11,3.93-3.95c0.72-1.89,0.66-3.74-0.18-5.66c-0.65-1.34-1.65-2.42-3.02-3.23c-1.38-0.81-2.83-1.18-4.44-1.11
			c-0.52,0.05-1.15,0.13-1.77,0.24c-0.89,0.16-1.81,0.26-2.73,0.29h-0.01c-1.08,0-2.08-0.2-3.03-0.59c-1.15-0.47-2.02-1.24-2.6-2.3
			c-0.5-0.9-0.68-1.89-0.53-2.92c0.15-1.01,0.59-1.89,1.31-2.61l0.11-0.1c0.97-0.84,2.2-1.32,3.64-1.42
			c1.09-0.08,2.16-0.09,3.19-0.02l0.1,0.01c0.19,0.02,0.38,0.03,0.57,0.03l0.19,0.01c1.06,0.1,1.97-0.08,2.81-0.55
			c0.5-0.41,0.79-0.92,0.91-1.59c0.17-0.99,0.17-2,0-3l-0.01-0.11c-0.14-1.28-0.52-2.48-1.13-3.57c-0.55-0.83-1.24-1.26-2.21-1.4
			c-0.44,0.03-0.9,0.09-1.37,0.18c-0.83,0.14-1.61,0.21-2.33,0.19c-1.17-0.03-2.18-0.5-2.93-1.37l-0.14-0.18
			c-0.87-1.28-0.92-2.79-0.12-4.16c0.68-1.16,1.72-1.95,3.02-2.29l0.23-0.05c1.57-0.22,3.16-0.04,4.72,0.51
			c0.24,0.06,0.48,0.14,0.72,0.23c0.94,0.25,1.9,0.35,2.87,0.3c0.8-0.04,1.49-0.27,2.12-0.71c0.79-0.7,1.2-1.55,1.29-2.67
			c0.12-1.48,0.03-2.96-0.25-4.41l-0.02-0.1c-0.05-0.37-0.12-0.75-0.2-1.15c-0.45-2.09-1.37-3.58-2.81-4.56
			c-1.56-1.06-3.52-1.68-5.81-1.83C182.21,4.51,181.62,4.49,181.02,4.49z M180.85,22.9c-0.07,0.02-0.14,0.06-0.2,0.09
			c0.34-0.02,0.7-0.06,1.07-0.12h0.01C181.44,22.86,181.15,22.87,180.85,22.9z"/>
	</g>
	<g>
		<path id="XMLID_00000132795004273503630780000016711946110025409197_" class="st1" d="M246.51,46.91
			c1.23,1.58,2.16,3.23,2.81,4.96s0.79,3.45,0.44,5.18c-0.44,1.78-1.51,3.35-3.2,4.69s-3.77,2.11-6.23,2.28
			c-2.98,0-5.62-0.76-7.9-2.28c-2.08-1.49-3.76-3.2-5.04-5.13c-1.11-1.55-2.18-3.17-3.2-4.87c-1.26,2.87-2.85,5.63-4.78,8.29
			c-1.32,1.73-3.09,2.88-5.31,3.47c-2.22,0.58-4.62,0.72-7.19,0.39c-2.87-0.29-5.08-1.33-6.62-3.11c-0.91-1.49-1.12-3.02-0.64-4.58
			s1.16-3.06,2.04-4.5c0.09-0.2,0.19-0.42,0.31-0.66c1.4-2.49,2.9-4.94,4.47-7.37c2.25-3.51,3.63-6.42,4.12-8.73
			c0.5-2.31-1.58-6.16-6.23-11.54c-1.73-1.46-3.33-2.98-4.83-4.54c-1.49-1.56-2.56-3.28-3.2-5.15c-0.58-1.96-0.37-3.86,0.64-5.7
			s2.74-3.1,5.2-3.77c2.22-0.41,4.39-0.22,6.51,0.57s4,1.84,5.64,3.16c3.04,2.54,5.69,5.78,7.94,9.7c0,0.03,0.01,0.06,0.04,0.09
			v0.04c1.26-2.16,2.57-4.31,3.95-6.45c1.26-2.22,2.91-4.23,4.96-6.01c0.61-0.5,1.3-0.95,2.06-1.36c2.28-1.11,4.8-1.49,7.57-1.14
			c2.76,0.35,4.8,1.43,6.12,3.25c1.08,1.99,1.3,4.07,0.66,6.23c-0.73,3.33-2.28,6.45-4.65,9.34c-1.79,2.14-3.1,4.42-3.95,6.87
			c-0.85,2.44-0.66,4.89,0.57,7.35C241.57,39.68,243.88,43.37,246.51,46.91z"/>
		<path class="st2" d="M209.56,66.06c-0.95,0-1.92-0.06-2.91-0.19c-3.33-0.34-6-1.62-7.89-3.79l-0.2-0.27
			c-1.19-1.97-1.48-4.11-0.84-6.21c0.52-1.67,1.25-3.3,2.17-4.83c0.09-0.2,0.19-0.41,0.3-0.63l0.05-0.09
			c1.42-2.51,2.95-5.03,4.54-7.48c2.11-3.28,3.4-6,3.85-8.06c0.12-0.58,0.08-2.99-5.69-9.69c-1.73-1.47-3.36-3.01-4.86-4.58
			c-1.68-1.77-2.91-3.75-3.65-5.88c-0.77-2.56-0.5-4.99,0.77-7.31c1.27-2.33,3.44-3.92,6.42-4.74l0.17-0.04
			c2.57-0.47,5.12-0.25,7.57,0.66c2.31,0.86,4.39,2.03,6.19,3.47c2.49,2.08,4.73,4.6,6.71,7.51c0.73-1.21,1.49-2.42,2.26-3.61
			c1.36-2.39,3.16-4.57,5.35-6.48c0.76-0.62,1.56-1.15,2.43-1.61c2.7-1.32,5.63-1.76,8.77-1.36c3.32,0.42,5.84,1.79,7.49,4.06
			l0.14,0.22c1.33,2.44,1.61,5.03,0.84,7.68c-0.8,3.6-2.5,7.01-5.04,10.11c-1.63,1.95-2.84,4.05-3.61,6.26
			c-0.67,1.93-0.52,3.82,0.47,5.8c1.91,3.69,4.18,7.31,6.73,10.74c1.34,1.73,2.38,3.57,3.09,5.47c0.77,2.07,0.95,4.18,0.53,6.27
			c-0.56,2.3-1.88,4.24-3.92,5.86c-2.01,1.59-4.48,2.51-7.33,2.71h-0.14c-3.37,0-6.4-0.88-9.01-2.62c-2.32-1.67-4.19-3.57-5.6-5.69
			c-0.44-0.61-0.88-1.24-1.31-1.89c-0.99,1.84-2.13,3.64-3.39,5.38c-1.61,2.12-3.76,3.53-6.42,4.23
			C213.01,65.84,211.32,66.06,209.56,66.06z M201.9,59.59c1.21,1.32,2.91,2.08,5.2,2.31c2.35,0.29,4.52,0.18,6.48-0.34
			c1.8-0.47,3.18-1.37,4.23-2.74c1.81-2.49,3.35-5.16,4.54-7.88l1.55-3.53l1.99,3.3c0.99,1.65,2.04,3.24,3.12,4.74
			c1.19,1.78,2.72,3.33,4.59,4.67c1.89,1.26,4.09,1.89,6.66,1.91c2.03-0.16,3.69-0.76,5.06-1.85c1.35-1.07,2.17-2.25,2.5-3.6
			c0.26-1.28,0.14-2.62-0.37-4c-0.57-1.53-1.42-3.02-2.51-4.43l-0.03-0.03c-2.68-3.61-5.07-7.42-7.1-11.33
			c-1.49-2.97-1.71-5.97-0.68-8.93c0.93-2.66,2.37-5.18,4.3-7.49c2.14-2.62,3.57-5.48,4.23-8.49l0.04-0.14
			c0.48-1.6,0.34-3.11-0.44-4.59c-0.99-1.3-2.52-2.06-4.68-2.34c-2.39-0.3-4.5,0.01-6.44,0.96c-0.57,0.31-1.16,0.7-1.68,1.12
			c-1.81,1.58-3.34,3.43-4.47,5.44l-0.06,0.1c-1.36,2.11-2.67,4.25-3.9,6.37l-3.73,6.42v-6.94c-2.08-3.53-4.52-6.48-7.27-8.78
			c-1.43-1.15-3.14-2.11-5.05-2.82c-1.77-0.66-3.52-0.82-5.37-0.49c-1.88,0.53-3.16,1.44-3.89,2.78c-0.75,1.37-0.9,2.73-0.47,4.17
			c0.52,1.51,1.45,3,2.73,4.35c1.44,1.51,3.01,2.99,4.67,4.4l0.22,0.22c5.2,6.02,7.32,10.24,6.67,13.27
			c-0.55,2.57-1.99,5.64-4.4,9.39c-1.54,2.37-3.02,4.8-4.39,7.23c-0.09,0.18-0.17,0.35-0.24,0.51l-0.13,0.25
			c-0.79,1.28-1.4,2.64-1.83,4.04C201.25,57.74,201.36,58.64,201.9,59.59z"/>
	</g>
</g>
</svg>
