<?xml version="1.0" encoding="utf-8"?>
<!-- Generator: Adobe Illustrator 25.4.1, SVG Export Plug-In . SVG Version: 6.00 Build 0)  -->
<svg version="1.1" id="圖層_1" xmlns="http://www.w3.org/2000/svg" xmlns:xlink="http://www.w3.org/1999/xlink" x="0px" y="0px"
	 viewBox="0 0 415.18 67.71" style="enable-background:new 0 0 415.18 67.71;" xml:space="preserve">
<style type="text/css">
	.st0{fill:#231815;}
	.st1{fill:#FFFFFF;}
	.st2{fill:#036EB7;}
</style>
<g id="XMLID_12309_">
	<g id="XMLID_26642_">
		<g>
			<path id="XMLID_00000108990969719634689420000012419103284590698160_" class="st0" d="M55.6,13.03c1.85,1.72,2.86,3.9,3.03,6.56
				s-0.62,4.91-2.37,6.76c-1.05,1-2.21,1.58-3.49,1.76s-2.59,0.27-3.94,0.27c-0.91,0-1.67,0.28-2.26,0.83
				c-0.6,0.55-1.03,1.68-1.31,3.38c-0.28,1.7-0.42,4.28-0.42,7.74c0,2.85-0.04,5.69-0.12,8.51c-0.06,1.41-0.1,2.84-0.12,4.27
				c0,2.16-0.29,4.25-0.87,6.27c-0.58,2.02-1.66,3.76-3.24,5.23c-1.66,1.38-3.57,2.12-5.73,2.22s-4.12-0.49-5.89-1.76
				c-1.41-1.13-2.49-2.51-3.24-4.13c-0.75-1.62-1.23-3.31-1.45-5.08c-0.25-2.79-0.21-5.62,0.12-8.47c0.05-0.69,0.1-1.38,0.12-2.08
				c0.28-4.21,0.25-8.41-0.08-12.62c-0.14-1.44-0.64-2.52-1.51-3.24c-0.87-0.72-2-1.19-3.38-1.41c-2.38-0.39-4.39-1.25-6.02-2.57
				s-2.53-3.24-2.7-5.73c-0.03-2.54,0.77-4.69,2.41-6.43c1.63-1.74,3.74-2.82,6.31-3.24c3.87-0.5,7.82-0.68,11.83-0.54
				c1.19,0.03,2.35,0.04,3.49,0.04c5.39-0.14,10.75,0.26,16.06,1.2C52.77,11.17,54.36,11.92,55.6,13.03z"/>
			<path id="XMLID_00000094583668445456972870000009583786846926266765_" class="st0" d="M98.06,9.62c3.01,0.03,5.31,1.17,6.89,3.42
				c1.58,2.26,2.64,5.46,3.18,9.61c0.54,4.15,0.79,9.09,0.77,14.82c0.03,3.1-0.04,6.47-0.21,10.13s-0.61,7.08-1.33,10.27
				c-0.72,3.2-1.92,5.65-3.61,7.37c-1.69,1.71-4.04,2.19-7.06,1.41c-2.02-0.66-3.56-1.87-4.63-3.63c-1.07-1.76-1.79-3.56-2.18-5.42
				c-0.19-0.83-0.32-1.67-0.37-2.53c-0.03-1.44-0.33-2.79-0.91-4.07c-0.31-0.61-0.75-1.11-1.35-1.49s-1.25-0.55-1.97-0.5
				c-1.22,0.22-2.09,0.89-2.62,1.99c-0.42,1.05-0.6,2.14-0.54,3.28c0.08,1.49-0.03,2.99-0.33,4.48c-0.58,2.41-1.8,4.48-3.65,6.23
				c-1.58,1.27-3.3,1.94-5.17,1.99c-1.87,0.05-3.65-0.46-5.33-1.54c-2.44-1.58-4.02-3.45-4.75-5.62c-0.73-2.17-1.25-5-1.56-8.49
				l-0.08-0.58c-0.75-6.58-1.12-13.2-1.12-19.84c0-0.75-0.01-1.49-0.04-2.24c-0.14-4.21,0.04-7.59,0.54-10.17s1.92-4.88,4.28-6.93
				c2.49-2.02,5.3-2.67,8.43-1.95c2.77,0.64,4.75,1.91,5.96,3.82c1.2,1.91,2.01,4.62,2.43,8.13c0.11,1.41,0.08,2.89-0.08,4.44
				c-0.11,1.14-0.17,2.26-0.17,3.36c0,1.11,0.21,2.14,0.62,3.11c0.36,0.94,1.01,1.54,1.95,1.79c0.61,0.14,1.2,0.08,1.76-0.19
				c0.57-0.26,1.03-0.66,1.39-1.18c0.61-1.02,0.91-2.13,0.91-3.32c0.05-0.5,0.1-0.98,0.12-1.45c0.11-3.71,0.66-7.39,1.66-11.04
				c0.64-2.1,1.69-3.86,3.17-5.27C94.54,10.41,96.21,9.68,98.06,9.62z"/>
			<path id="XMLID_00000066474968776728725230000005765446901246599330_" class="st0" d="M154.76,53.7
				c0.17,2.63-0.07,5.02-0.71,7.18c-0.55,1.74-1.48,3.07-2.78,3.96c-1.3,0.9-2.84,1.51-4.61,1.85c-5.59,1.11-10.92,0.9-16-0.62
				c-5.08-1.52-9.44-4.54-13.09-9.05c-4.01-5.34-6.06-11.39-6.14-18.14s1.63-12.94,5.15-18.55c3.35-4.92,7.92-8.32,13.72-10.19
				c5.8-1.87,11.53-1.79,17.2,0.23c1.35,0.5,2.42,1.33,3.2,2.49c0.47,0.8,0.74,1.67,0.81,2.62c0.07,0.94,0.05,1.9-0.06,2.86
				c-0.08,1.66-0.53,3.2-1.33,4.61c-1.27,1.74-3,2.57-5.19,2.49c-0.97-0.03-1.92-0.11-2.86-0.25c-0.08,0-0.18-0.01-0.29-0.04
				c-0.33-0.03-0.68-0.08-1.04-0.17c-0.89-0.22-1.72-0.28-2.49-0.17c-0.36,0.06-0.67,0.2-0.93,0.44c-0.26,0.24-0.42,0.52-0.48,0.85
				c-0.03,0.41,0.09,0.77,0.35,1.06c0.26,0.29,0.57,0.52,0.93,0.68c1.19,0.44,2.43,0.61,3.74,0.5c0.88-0.05,1.76-0.01,2.61,0.12
				c2.35,0.58,3.93,2.01,4.73,4.3c0.8,2.28,0.68,4.48-0.37,6.58c-0.97,1.61-2.37,2.61-4.19,3.03c-0.97,0.17-1.96,0.21-2.99,0.12
				c-1.22-0.11-2.41,0-3.57,0.33c-0.42,0.14-0.8,0.35-1.14,0.64c-0.35,0.29-0.55,0.64-0.6,1.06c-0.03,0.39,0.06,0.75,0.27,1.08
				c0.21,0.33,0.48,0.58,0.81,0.75c0.69,0.3,1.42,0.4,2.2,0.29c1.13-0.14,2.23-0.4,3.28-0.79c1.22-0.44,2.46-0.72,3.74-0.83
				c2.21-0.06,4.09,0.71,5.64,2.28C153.76,49.03,154.59,51.16,154.76,53.7z"/>
			<path id="XMLID_00000105417860183206497920000007330656972423797665_" class="st0" d="M197.26,31.62
				c3.98,1.13,7.17,3.15,9.57,6.06c2.39,2.91,3.87,6.17,4.44,9.79c0.57,3.62,0.07,7.07-1.49,10.33s-4.31,5.81-8.24,7.64
				c-2.77,1.16-5.64,1.78-8.63,1.87s-5.92-0.32-8.8-1.2c-1.94-0.55-3.75-1.38-5.44-2.47c-1.69-1.09-2.99-2.51-3.9-4.25
				c-0.55-1.24-0.76-2.66-0.62-4.23c0.14-1.58,0.64-2.98,1.49-4.21c0.86-1.23,2.06-1.93,3.61-2.1c1-0.06,2.03,0.05,3.11,0.31
				c1.08,0.26,2.14,0.58,3.2,0.93c0.94,0.31,1.85,0.57,2.74,0.79c0.69,0.19,1.38,0.28,2.07,0.25c0.77-0.08,1.34-0.46,1.7-1.12
				c0.14-0.36,0.15-0.73,0.02-1.1c-0.12-0.37-0.33-0.7-0.6-0.98c-0.58-0.52-1.25-0.93-1.99-1.2c-2.91-1.11-5.6-2.53-8.09-4.28
				c-2.46-1.91-4.34-4.45-5.62-7.64c-1.29-3.18-1.72-6.31-1.31-9.38c0.5-3.02,1.7-5.73,3.61-8.16c1.91-2.42,4.25-4.29,7.01-5.62
				c3.13-1.44,6.52-2.16,10.17-2.16s7.01,0.77,10.08,2.32c1.47,0.77,2.78,1.84,3.94,3.2c1.16,1.36,1.9,2.85,2.22,4.48
				c0.32,1.63-0.02,3.22-1.02,4.77c-1.41,2.02-3.27,3.49-5.58,4.4c-2.31,0.91-4.63,0.76-6.95-0.46c-0.22-0.11-0.43-0.23-0.62-0.37
				c-0.47-0.33-0.95-0.59-1.45-0.79c-0.39-0.14-0.78-0.19-1.18-0.17c-0.4,0.03-0.75,0.17-1.06,0.42c-0.42,0.42-0.57,0.93-0.46,1.54
				c0.11,0.61,0.39,1.11,0.83,1.49c0.83,0.61,1.77,1,2.82,1.16C196.98,31.55,197.12,31.59,197.26,31.62z"/>
			<path id="XMLID_00000021112744384505421860000017468546118821919676_" class="st0" d="M258.39,13.03
				c1.85,1.72,2.86,3.9,3.03,6.56s-0.62,4.91-2.37,6.76c-1.05,1-2.21,1.58-3.49,1.76c-1.27,0.18-2.59,0.27-3.94,0.27
				c-0.91,0-1.67,0.28-2.26,0.83c-0.6,0.55-1.03,1.68-1.31,3.38c-0.28,1.7-0.42,4.28-0.42,7.74c0,2.85-0.04,5.69-0.12,8.51
				c-0.06,1.41-0.1,2.84-0.12,4.27c0,2.16-0.29,4.25-0.87,6.27c-0.58,2.02-1.66,3.76-3.24,5.23c-1.66,1.38-3.57,2.12-5.73,2.22
				s-4.12-0.49-5.89-1.76c-1.41-1.13-2.49-2.51-3.24-4.13c-0.75-1.62-1.23-3.31-1.45-5.08c-0.25-2.79-0.21-5.62,0.12-8.47
				c0.05-0.69,0.1-1.38,0.12-2.08c0.28-4.21,0.25-8.41-0.08-12.62c-0.14-1.44-0.64-2.52-1.51-3.24c-0.87-0.72-2-1.19-3.38-1.41
				c-2.38-0.39-4.39-1.25-6.02-2.57s-2.53-3.24-2.7-5.73c-0.03-2.54,0.77-4.69,2.41-6.43c1.63-1.74,3.74-2.82,6.31-3.24
				c3.87-0.5,7.82-0.68,11.83-0.54c1.19,0.03,2.35,0.04,3.49,0.04c5.39-0.14,10.75,0.26,16.06,1.2
				C255.55,11.17,257.15,11.92,258.39,13.03z"/>
			<path id="XMLID_00000093877392237256259130000017441166154546335121_" class="st0" d="M313.05,28.09
				c1.77,5.7,1.95,11.48,0.54,17.35c-1.41,5.87-4.15,10.75-8.22,14.65c-2.44,2.21-5.12,3.9-8.05,5.06c-7.05,2.68-14,2.34-20.83-1.04
				c-6.72-3.62-11.51-9.31-14.36-17.06c-1.49-4.23-2.09-8.62-1.78-13.16c0.36-4.26,1.54-8.21,3.55-11.85
				c2.01-3.64,4.61-6.58,7.82-8.82c3.68-2.41,7.77-3.7,12.29-3.88c4.51-0.18,8.77,0.44,12.78,1.85c3.79,1.33,7.1,3.45,9.94,6.35
				C309.56,20.46,311.67,23.97,313.05,28.09z M292.8,41.13c0.86-1.44,1.15-2.98,0.87-4.63s-1.02-3.02-2.24-4.13
				c-1.72-1.47-3.68-1.98-5.89-1.54c-1.8,0.5-3.21,1.54-4.23,3.11c-1,1.63-1.29,3.34-0.89,5.13c0.4,1.78,1.42,3.19,3.05,4.21
				c1.35,0.78,2.87,1.07,4.54,0.89c1.67-0.18,3.04-0.89,4.09-2.14c0.03-0.03,0.05-0.06,0.08-0.08c0-0.03,0.01-0.05,0.04-0.08
				C292.44,41.65,292.63,41.4,292.8,41.13z"/>
			<path id="XMLID_00000088114300652309491200000016083730806925233849_" class="st0" d="M365.22,50.71
				c0.97,1.36,1.69,2.82,2.16,4.38c0.47,1.56,0.61,3.16,0.42,4.79c-0.25,1.66-0.9,3.13-1.95,4.42c-1.05,1.29-2.38,2.14-3.98,2.55
				c-2.71,0.44-5.15-0.25-7.3-2.07c-1.85-1.66-3.31-3.62-4.38-5.89c-1.07-2.27-1.97-4.56-2.72-6.89c-0.33-1-0.73-1.99-1.2-2.99
				s-1.09-1.85-1.87-2.57c-0.64-0.52-1.43-0.86-2.39-1c-0.95-0.14-1.75,0.11-2.39,0.75c-0.3,0.36-0.48,0.78-0.52,1.27
				c-0.04,0.48-0.01,0.96,0.1,1.43c0.22,1.3,0.34,2.6,0.37,3.9c0.05,0.64,0.12,1.26,0.21,1.87c0.17,0.91,0.22,1.84,0.17,2.78
				c-0.14,1.99-0.73,3.91-1.78,5.75c-1.05,1.84-2.64,2.95-4.77,3.34c-2.49,0.25-4.77-0.26-6.85-1.54s-3.61-3.04-4.61-5.31
				c-0.58-1.33-0.98-2.67-1.18-4.03c-0.21-1.36-0.35-2.73-0.44-4.11c-0.06-0.91-0.14-1.83-0.25-2.74c-0.08-0.83-0.18-1.65-0.29-2.45
				c-0.36-2.68-0.6-5.4-0.71-8.13c-0.19-4.07,0.1-8.04,0.87-11.93c0.77-3.89,2.6-7.37,5.48-10.44c2.46-2.43,5.24-4.14,8.34-5.11
				c3.1-0.97,6.32-1.55,9.67-1.74c4.65-0.39,8.96,0.25,12.95,1.91s6.93,4.8,8.84,9.42c0.97,2.57,1.29,5,0.95,7.26
				s-1.18,4.59-2.53,6.97c-0.8,1.44-1.81,2.73-3.03,3.86c-0.33,0.28-0.68,0.54-1.04,0.79c-0.44,0.3-0.85,0.64-1.22,1
				c-0.37,0.36-0.64,0.8-0.81,1.33c-0.22,0.8-0.08,1.49,0.44,2.07c0.51,0.58,1.11,1.09,1.81,1.54c0.3,0.25,0.59,0.48,0.87,0.71
				C362.4,47.27,363.92,48.89,365.22,50.71z M339.53,26.68c-0.39,1.05-0.51,2.17-0.37,3.36c0.03,0.28,0.07,0.55,0.12,0.83
				c0.06,0.28,0.17,0.51,0.33,0.71c0.22,0.22,0.48,0.37,0.77,0.44c0.29,0.07,0.59,0.09,0.89,0.06c0.66,0.03,1.31-0.07,1.95-0.29
				c1.16-0.53,1.86-1.35,2.1-2.47c0.24-1.12-0.08-2.14-0.93-3.05c-0.78-0.77-1.65-1.16-2.62-1.16S340.06,25.63,339.53,26.68z"/>
			<path id="XMLID_00000133494475648607832830000001555203874355613630_" class="st0" d="M412.08,12.99
				c1.11,1.52,1.83,3.27,2.16,5.25s0.54,3.92,0.62,5.83c0.03,0.39,0.06,0.78,0.08,1.16c0.22,4.68,0.29,9.35,0.21,14.03
				c-0.03,2.24-0.03,4.47,0,6.68c0.03,3.32-0.59,6.56-1.85,9.71c-1.26,3.15-3.29,5.82-6.08,8.01c-3.43,2.43-7.37,3.76-11.83,3.98
				c-4.46,0.22-8.69-0.17-12.7-1.16c-1.38-0.33-2.91-0.83-4.59-1.49c-1.67-0.66-3.17-1.51-4.48-2.53c-1.31-1.02-2.11-2.25-2.39-3.69
				c-0.33-1.99,0.06-3.85,1.18-5.56c1.12-1.71,2.79-2.78,5-3.2c1.24-0.14,2.46-0.07,3.65,0.21c1.19,0.28,2.37,0.62,3.53,1.04
				c1.52,0.58,3.06,1.01,4.61,1.29c1.19,0.14,2.37,0.07,3.53-0.21s2.1-0.83,2.82-1.66c0.33-0.33,0.54-0.71,0.62-1.12
				c0.05-0.44-0.1-0.82-0.46-1.12c-0.3-0.19-0.65-0.28-1.04-0.25c-0.72-0.03-1.41-0.03-2.08,0c-0.36,0.03-0.73,0.04-1.12,0.04
				c-2.93,0.08-5.82-0.33-8.65-1.22c-2.84-0.9-5.25-2.37-7.24-4.42c-1.27-1.33-2.25-2.77-2.93-4.32c-0.68-1.55-1.2-3.17-1.56-4.86
				c-1.02-4.34-1.25-8.72-0.66-13.12c0.33-3.04,1.47-5.8,3.4-8.26c0.97-1.05,2.26-1.7,3.88-1.95c1.62-0.25,3.15-0.3,4.59-0.17
				c1.66,0.11,3.06,0.55,4.19,1.33c1.6,1.19,2.72,2.77,3.34,4.73c0.62,1.96,0.93,3.99,0.93,6.08s-0.15,3.95-0.46,5.58
				c-0.19,0.83-0.3,1.81-0.31,2.95s0.24,2.13,0.75,2.99s1.45,1.29,2.8,1.29c1.63-0.17,2.64-0.91,3.01-2.22
				c0.37-1.31,0.5-2.61,0.39-3.88V27.1c0-1.41-0.07-2.82-0.21-4.23c-0.03-0.3-0.07-0.62-0.12-0.95c-0.28-1.83-0.39-3.67-0.33-5.52
				c0.36-3.46,2.37-5.63,6.02-6.52c1.83-0.33,3.62-0.23,5.37,0.31C409.46,10.72,410.92,11.66,412.08,12.99z"/>
		</g>
	</g>
	<g id="XMLID_25853_">
		<g>
			<g>
				<path id="XMLID_00000073696301903015124060000014453729963199500440_" class="st1" d="M46.41,5.78c1.85,1.72,2.86,3.9,3.03,6.56
					s-0.62,4.91-2.37,6.76c-1.05,1-2.21,1.58-3.49,1.76s-2.59,0.27-3.94,0.27c-0.91,0-1.67,0.28-2.26,0.83
					c-0.6,0.55-1.03,1.68-1.31,3.38c-0.28,1.7-0.42,4.28-0.42,7.74c0,2.85-0.04,5.69-0.12,8.51c-0.06,1.41-0.1,2.84-0.12,4.27
					c0,2.16-0.29,4.25-0.87,6.27c-0.58,2.02-1.66,3.76-3.24,5.23c-1.66,1.38-3.57,2.12-5.73,2.22s-4.12-0.49-5.89-1.76
					c-1.41-1.13-2.49-2.51-3.24-4.13c-0.75-1.62-1.23-3.31-1.45-5.08c-0.25-2.79-0.21-5.62,0.12-8.47c0.05-0.69,0.1-1.38,0.12-2.08
					c0.28-4.21,0.25-8.41-0.08-12.62c-0.14-1.44-0.64-2.52-1.51-3.24c-0.87-0.72-2-1.19-3.38-1.41c-2.38-0.39-4.39-1.25-6.02-2.57
					s-2.53-3.24-2.7-5.73C1.52,9.95,2.32,7.81,3.96,6.07c1.63-1.74,3.74-2.82,6.31-3.24c3.87-0.5,7.82-0.68,11.83-0.54
					c1.19,0.03,2.35,0.04,3.49,0.04c5.39-0.14,10.75,0.26,16.06,1.2C43.58,3.92,45.17,4.67,46.41,5.78z"/>
				<path class="st2" d="M25.13,61.15c-2.3,0-4.44-0.69-6.35-2.07c-1.66-1.33-2.9-2.91-3.74-4.74c-0.81-1.75-1.34-3.62-1.58-5.54
					c-0.26-2.94-0.22-5.89,0.12-8.84c0.05-0.61,0.09-1.29,0.12-1.96c0.27-4.15,0.24-8.32-0.08-12.43c-0.1-1-0.41-1.71-0.96-2.16
					c-0.65-0.54-1.54-0.9-2.64-1.08c-2.64-0.43-4.91-1.41-6.75-2.9C1.29,17.83,0.2,15.53,0,12.6c-0.04-3.03,0.92-5.56,2.82-7.6
					c1.86-1.99,4.28-3.24,7.19-3.71C14,0.78,18.06,0.6,22.15,0.74c1.16,0.03,2.31,0.04,3.43,0.04c5.43-0.14,10.94,0.27,16.33,1.23
					c2.24,0.45,4.09,1.32,5.53,2.61l0.02,0.02c2.15,1.99,3.33,4.54,3.52,7.6c0.19,3.09-0.74,5.76-2.79,7.92
					c-1.35,1.28-2.81,2.01-4.4,2.24c-1.34,0.19-2.74,0.28-4.16,0.28c-0.68,0-1.01,0.24-1.21,0.42c-0.08,0.08-0.52,0.57-0.83,2.5
					c-0.26,1.61-0.4,4.13-0.4,7.49c0,2.83-0.04,5.71-0.12,8.55c-0.06,1.42-0.1,2.83-0.12,4.26c0,2.26-0.31,4.51-0.93,6.67
					c-0.66,2.29-1.89,4.29-3.67,5.94c-1.98,1.65-4.22,2.52-6.71,2.63C25.47,61.14,25.3,61.15,25.13,61.15z M19.51,3.8
					c-3.07,0-6.1,0.19-9.05,0.57c-2.2,0.36-3.97,1.26-5.37,2.76c-1.36,1.45-2.01,3.21-1.99,5.36c0.13,1.97,0.83,3.49,2.12,4.54
					c1.41,1.15,3.19,1.91,5.29,2.25c1.65,0.26,3.04,0.85,4.12,1.75c1.2,0.99,1.89,2.43,2.07,4.29c0.34,4.29,0.37,8.61,0.09,12.87
					c-0.03,0.67-0.07,1.38-0.13,2.1c-0.32,2.79-0.36,5.53-0.13,8.21c0.19,1.55,0.64,3.11,1.32,4.57c0.64,1.39,1.58,2.59,2.8,3.57
					c1.43,1.02,3.03,1.51,4.85,1.42c1.83-0.08,3.4-0.69,4.8-1.86c1.32-1.23,2.23-2.71,2.74-4.47c0.54-1.87,0.81-3.83,0.81-5.84
					c0.03-1.48,0.07-2.92,0.13-4.34c0.08-2.8,0.12-5.65,0.12-8.45c0-3.58,0.14-6.19,0.44-7.99c0.34-2.1,0.91-3.46,1.78-4.27
					c0.89-0.83,2-1.25,3.32-1.25c1.28,0,2.53-0.09,3.73-0.25c0.95-0.13,1.82-0.58,2.64-1.35c1.39-1.48,2.02-3.31,1.88-5.54
					c-0.14-2.26-0.97-4.06-2.52-5.51c-1.03-0.91-2.39-1.54-4.03-1.87c-5.15-0.91-10.45-1.31-15.72-1.17
					c-1.19-0.01-2.36-0.01-3.56-0.04C21.21,3.81,20.36,3.8,19.51,3.8z"/>
			</g>
			<g>
				<path id="XMLID_00000030480242722857978560000002559525814890209209_" class="st1" d="M88.87,2.37
					c3.01,0.03,5.31,1.17,6.89,3.42c1.58,2.26,2.64,5.46,3.18,9.61c0.54,4.15,0.79,9.09,0.77,14.82c0.03,3.1-0.04,6.47-0.21,10.13
					s-0.61,7.08-1.33,10.27c-0.72,3.2-1.92,5.65-3.61,7.37c-1.69,1.71-4.04,2.19-7.06,1.41c-2.02-0.66-3.56-1.87-4.63-3.63
					c-1.07-1.76-1.79-3.56-2.18-5.42c-0.19-0.83-0.32-1.67-0.37-2.53c-0.03-1.44-0.33-2.79-0.91-4.07
					c-0.31-0.61-0.75-1.11-1.35-1.49s-1.25-0.55-1.97-0.5c-1.22,0.22-2.09,0.89-2.62,1.99c-0.42,1.05-0.6,2.14-0.54,3.28
					c0.08,1.49-0.03,2.99-0.33,4.48c-0.58,2.41-1.8,4.48-3.65,6.23c-1.58,1.27-3.3,1.94-5.17,1.99c-1.87,0.05-3.65-0.46-5.33-1.54
					c-2.44-1.58-4.02-3.45-4.75-5.62c-0.73-2.17-1.25-5-1.56-8.49l-0.08-0.58c-0.75-6.58-1.12-13.2-1.12-19.84
					c0-0.75-0.01-1.49-0.04-2.24c-0.14-4.21,0.04-7.59,0.54-10.17s1.92-4.88,4.28-6.93c2.49-2.02,5.3-2.67,8.43-1.95
					c2.77,0.64,4.75,1.91,5.96,3.82c1.2,1.91,2.01,4.62,2.43,8.13c0.11,1.41,0.08,2.89-0.08,4.44c-0.11,1.14-0.17,2.26-0.17,3.36
					c0,1.11,0.21,2.14,0.62,3.11c0.36,0.94,1.01,1.54,1.95,1.79c0.61,0.14,1.2,0.08,1.76-0.19c0.57-0.26,1.03-0.66,1.39-1.18
					c0.61-1.02,0.91-2.13,0.91-3.32c0.05-0.5,0.1-0.98,0.12-1.45c0.11-3.71,0.66-7.39,1.66-11.04c0.64-2.1,1.69-3.86,3.17-5.27
					C85.35,3.16,87.02,2.43,88.87,2.37z"/>
				<path class="st2" d="M90.14,61.31c-0.94,0-1.95-0.14-3.03-0.41l-0.1-0.03c-2.37-0.78-4.21-2.23-5.47-4.3
					c-1.15-1.9-1.95-3.89-2.37-5.9c-0.2-0.87-0.34-1.81-0.4-2.75c-0.03-1.29-0.29-2.45-0.78-3.52c-0.16-0.31-0.42-0.6-0.79-0.84
					c-0.29-0.19-0.58-0.27-0.93-0.25c-0.67,0.14-1.09,0.46-1.39,1.07c-0.32,0.84-0.46,1.68-0.41,2.58c0.09,1.61-0.03,3.25-0.36,4.87
					c-0.66,2.75-2.04,5.1-4.11,7.05l-0.09,0.08c-1.84,1.48-3.89,2.27-6.09,2.33c-2.19,0.06-4.27-0.54-6.21-1.78
					c-2.73-1.77-4.54-3.93-5.39-6.44c-0.77-2.28-1.32-5.26-1.63-8.85l-0.07-0.5c-0.76-6.66-1.14-13.39-1.14-20.06
					c0-0.73-0.01-1.46-0.04-2.19c-0.14-4.31,0.05-7.84,0.57-10.52c0.56-2.91,2.17-5.53,4.78-7.81c2.91-2.36,6.19-3.12,9.79-2.29
					c3.17,0.73,5.5,2.24,6.92,4.5c1.34,2.13,2.21,5,2.66,8.78c0.12,1.57,0.09,3.16-0.08,4.79c-0.1,1.06-0.16,2.14-0.16,3.2
					c0,0.9,0.16,1.72,0.5,2.5c0.2,0.53,0.47,0.78,0.92,0.9c0.22,0.05,0.46,0.02,0.72-0.09c0.31-0.14,0.56-0.36,0.76-0.65
					c0.42-0.71,0.64-1.53,0.64-2.44l0.01-0.17c0.05-0.47,0.09-0.93,0.12-1.38c0.11-3.76,0.69-7.6,1.71-11.35
					c0.72-2.39,1.93-4.39,3.6-5.99c1.76-1.68,3.78-2.56,6.02-2.63l0.06,0c3.53,0.03,6.27,1.41,8.15,4.09
					c1.71,2.45,2.87,5.92,3.44,10.3c0.55,4.2,0.81,9.25,0.78,15.02c0.03,3.1-0.04,6.54-0.21,10.19c-0.17,3.72-0.63,7.27-1.36,10.54
					c-0.78,3.47-2.13,6.2-4.02,8.12C94.2,60.57,92.35,61.31,90.14,61.31z M87.94,57.91c2.44,0.62,4.24,0.29,5.51-1.01
					c1.47-1.5,2.55-3.72,3.2-6.62c0.7-3.09,1.13-6.46,1.29-10c0.16-3.6,0.23-6.97,0.21-10.04c0.03-5.65-0.23-10.57-0.75-14.63
					c-0.51-3.88-1.48-6.88-2.91-8.92c-1.28-1.83-3.11-2.73-5.6-2.76c-1.46,0.05-2.75,0.63-3.95,1.77c-1.28,1.22-2.21,2.76-2.76,4.6
					c-0.95,3.48-1.49,7.07-1.59,10.64c-0.03,0.51-0.07,1-0.12,1.5c-0.02,1.43-0.4,2.79-1.13,4.02c-0.57,0.84-1.25,1.42-2.07,1.8
					c-0.88,0.41-1.81,0.51-2.76,0.29c-1.48-0.39-2.52-1.33-3.05-2.74c-0.47-1.1-0.72-2.35-0.72-3.67c0-1.16,0.06-2.34,0.17-3.51
					c0.16-1.46,0.18-2.85,0.08-4.17c-0.38-3.21-1.12-5.73-2.19-7.43c-0.98-1.56-2.62-2.59-4.99-3.13c-2.66-0.61-4.98-0.07-7.1,1.64
					c-2.06,1.8-3.3,3.78-3.73,6.02c-0.47,2.45-0.65,5.75-0.51,9.82c0.03,0.76,0.04,1.53,0.04,2.29c0,6.55,0.37,13.16,1.11,19.66
					l0.08,0.54c0.3,3.43,0.8,6.16,1.49,8.21c0.61,1.82,2,3.44,4.13,4.82c1.42,0.91,2.88,1.33,4.44,1.29
					c1.52-0.05,2.89-0.57,4.19-1.61c1.62-1.54,2.65-3.31,3.16-5.42c0.26-1.3,0.37-2.68,0.29-4.03c-0.07-1.36,0.15-2.68,0.65-3.93
					l0.04-0.1c0.74-1.56,2.03-2.54,3.74-2.85l0.16-0.02c1.06-0.09,2.05,0.17,2.94,0.75c0.82,0.54,1.46,1.24,1.89,2.1
					c0.69,1.51,1.05,3.09,1.08,4.73c0.05,0.7,0.16,1.47,0.33,2.21c0.36,1.71,1.03,3.37,2,4.97C85.07,56.39,86.29,57.36,87.94,57.91z
					"/>
			</g>
			<g>
				<path id="XMLID_00000058555204004974175750000014409186023354656671_" class="st1" d="M145.57,46.45
					c0.17,2.63-0.07,5.02-0.71,7.18c-0.55,1.74-1.48,3.07-2.78,3.96c-1.3,0.9-2.84,1.51-4.61,1.85c-5.59,1.11-10.92,0.9-16-0.62
					c-5.08-1.52-9.44-4.54-13.09-9.05c-4.01-5.34-6.06-11.39-6.14-18.14s1.63-12.94,5.15-18.55c3.35-4.92,7.92-8.32,13.72-10.19
					c5.8-1.87,11.53-1.79,17.2,0.23c1.35,0.5,2.42,1.33,3.2,2.49c0.47,0.8,0.74,1.67,0.81,2.62c0.07,0.94,0.05,1.9-0.06,2.86
					c-0.08,1.66-0.53,3.2-1.33,4.61c-1.27,1.74-3,2.57-5.19,2.49c-0.97-0.03-1.92-0.11-2.86-0.25c-0.08,0-0.18-0.01-0.29-0.04
					c-0.33-0.03-0.68-0.08-1.04-0.17c-0.89-0.22-1.72-0.28-2.49-0.17c-0.36,0.06-0.67,0.2-0.93,0.44c-0.26,0.24-0.42,0.52-0.48,0.85
					c-0.03,0.41,0.09,0.77,0.35,1.06c0.26,0.29,0.57,0.52,0.93,0.68c1.19,0.44,2.43,0.61,3.74,0.5c0.88-0.05,1.76-0.01,2.61,0.12
					c2.35,0.58,3.93,2.01,4.73,4.3c0.8,2.28,0.68,4.48-0.37,6.58c-0.97,1.61-2.37,2.61-4.19,3.03c-0.97,0.17-1.96,0.21-2.99,0.12
					c-1.22-0.11-2.41,0-3.57,0.33c-0.42,0.14-0.8,0.35-1.14,0.64c-0.35,0.29-0.55,0.64-0.6,1.06c-0.03,0.39,0.06,0.75,0.27,1.08
					c0.21,0.33,0.48,0.58,0.81,0.75c0.69,0.3,1.42,0.4,2.2,0.29c1.13-0.14,2.23-0.4,3.28-0.79c1.22-0.44,2.46-0.72,3.74-0.83
					c2.21-0.06,4.09,0.71,5.64,2.28C144.57,41.77,145.4,43.9,145.57,46.45z"/>
				<path class="st2" d="M130.56,61.69c-3.27,0-6.46-0.46-9.53-1.38c-5.36-1.61-10.02-4.82-13.85-9.56
					c-4.23-5.63-6.4-12.04-6.49-19.09c-0.09-7.02,1.72-13.55,5.38-19.39c3.56-5.24,8.45-8.88,14.56-10.84
					c6.1-1.97,12.23-1.88,18.2,0.24c1.68,0.62,3.01,1.65,3.97,3.09c0.64,1.08,0.98,2.19,1.07,3.36c0.08,1.04,0.05,2.1-0.07,3.15
					c-0.09,1.8-0.6,3.58-1.52,5.2l-0.1,0.15c-1.55,2.12-3.75,3.19-6.41,3.13c2.78,0.72,4.75,2.54,5.71,5.26
					c0.94,2.68,0.79,5.3-0.45,7.79l-0.06,0.11c-0.96,1.6-2.29,2.72-3.95,3.37c0.1-0.01,0.19-0.02,0.29-0.03
					c2.74-0.08,5.03,0.85,6.88,2.74c1.78,2.04,2.74,4.5,2.93,7.38l0,0c0.18,2.8-0.08,5.39-0.77,7.72c-0.67,2.1-1.8,3.71-3.39,4.8
					c-1.47,1.02-3.22,1.72-5.2,2.1C135.33,61.45,132.92,61.69,130.56,61.69z M129.41,3.1c-2.6,0-5.22,0.42-7.84,1.26
					c-5.43,1.75-9.78,4.98-12.91,9.58c-3.31,5.28-4.96,11.24-4.88,17.66c0.08,6.38,2.04,12.18,5.83,17.22
					c3.4,4.2,7.55,7.07,12.3,8.49c4.81,1.44,9.94,1.64,15.25,0.59c1.56-0.29,2.91-0.83,4.03-1.6c1.02-0.7,1.73-1.74,2.18-3.16
					c0.57-1.94,0.79-4.18,0.64-6.61l0,0c-0.14-2.22-0.84-4.01-2.11-5.47c-1.18-1.2-2.66-1.79-4.44-1.75
					c-1.04,0.09-2.16,0.34-3.24,0.74c-1.15,0.43-2.37,0.72-3.62,0.87c-1.03,0.15-2.05,0.01-3.01-0.41c-0.66-0.33-1.14-0.77-1.5-1.34
					c-0.39-0.62-0.55-1.3-0.5-2.01c0.11-0.89,0.51-1.59,1.15-2.13c0.49-0.41,1.05-0.73,1.65-0.93c1.41-0.4,2.79-0.53,4.2-0.41
					c0.88,0.07,1.75,0.04,2.59-0.11c1.31-0.3,2.35-1.04,3.09-2.25c0.84-1.71,0.93-3.45,0.27-5.31c-0.62-1.78-1.76-2.82-3.58-3.29
					c-0.72-0.11-1.46-0.15-2.21-0.1c-1.49,0.13-2.97-0.07-4.37-0.59L128.27,22c-0.55-0.25-1.03-0.61-1.43-1.05
					c-0.55-0.6-0.81-1.37-0.75-2.2l0.02-0.15c0.11-0.68,0.45-1.29,0.98-1.76c0.49-0.44,1.07-0.71,1.73-0.81
					c0.99-0.14,2.02-0.07,3.1,0.19c0.26,0.06,0.54,0.1,0.79,0.13l0.39,0.05c0.87,0.13,1.77,0.21,2.68,0.23
					c1.65,0.07,2.88-0.51,3.84-1.78c0.66-1.19,1.01-2.44,1.08-3.84c0.11-0.96,0.13-1.83,0.06-2.67c-0.05-0.71-0.25-1.34-0.6-1.94
					c-0.55-0.81-1.34-1.43-2.39-1.82C135.02,3.6,132.22,3.1,129.41,3.1z M131.55,36.75c-0.77,0-1.52,0.1-2.24,0.31
					c-0.17,0.06-0.37,0.17-0.57,0.34c-0.06,0.04-0.05,0.07-0.01,0.13c0.07,0.11,0.13,0.16,0.19,0.18c0.36,0.15,0.8,0.21,1.29,0.14
					c1.04-0.13,2.03-0.36,2.96-0.71c0.34-0.12,0.68-0.24,1.03-0.34c-0.62,0.03-1.24,0.03-1.86-0.03
					C132.07,36.77,131.81,36.75,131.55,36.75z M129.53,19.16c0.96,0.35,1.94,0.47,3,0.38c0.16-0.01,0.33-0.02,0.49-0.02
					c-0.1-0.01-0.19-0.03-0.29-0.04c-0.13-0.01-0.26-0.02-0.39-0.05c-0.37-0.04-0.75-0.1-1.14-0.19c-0.66-0.16-1.26-0.22-1.8-0.16
					C129.43,19.11,129.48,19.14,129.53,19.16z"/>
			</g>
			<g>
				<path id="XMLID_00000056409204933616066640000009460017900572667805_" class="st1" d="M188.07,24.37
					c3.98,1.13,7.17,3.15,9.57,6.06c2.39,2.91,3.87,6.17,4.44,9.79c0.57,3.62,0.07,7.07-1.49,10.33s-4.31,5.81-8.24,7.64
					c-2.77,1.16-5.64,1.78-8.63,1.87s-5.92-0.32-8.8-1.2c-1.94-0.55-3.75-1.38-5.44-2.47c-1.69-1.09-2.99-2.51-3.9-4.25
					c-0.55-1.24-0.76-2.66-0.62-4.23c0.14-1.58,0.64-2.98,1.49-4.21c0.86-1.23,2.06-1.93,3.61-2.1c1-0.06,2.03,0.05,3.11,0.31
					c1.08,0.26,2.14,0.58,3.2,0.93c0.94,0.31,1.85,0.57,2.74,0.79c0.69,0.19,1.38,0.28,2.07,0.25c0.77-0.08,1.34-0.46,1.7-1.12
					c0.14-0.36,0.15-0.73,0.02-1.1c-0.12-0.37-0.33-0.7-0.6-0.98c-0.58-0.52-1.25-0.93-1.99-1.2c-2.91-1.11-5.6-2.53-8.09-4.28
					c-2.46-1.91-4.34-4.45-5.62-7.64c-1.29-3.18-1.72-6.31-1.31-9.38c0.5-3.02,1.7-5.73,3.61-8.16c1.91-2.42,4.25-4.29,7.01-5.62
					c3.13-1.44,6.52-2.16,10.17-2.16s7.01,0.77,10.08,2.32c1.47,0.77,2.78,1.84,3.94,3.2c1.16,1.36,1.9,2.85,2.22,4.48
					c0.32,1.63-0.02,3.22-1.02,4.77c-1.41,2.02-3.27,3.49-5.58,4.4c-2.31,0.91-4.63,0.76-6.95-0.46c-0.22-0.11-0.43-0.23-0.62-0.37
					c-0.47-0.33-0.95-0.59-1.45-0.79c-0.39-0.14-0.78-0.19-1.18-0.17c-0.4,0.03-0.75,0.17-1.06,0.42c-0.42,0.42-0.57,0.93-0.46,1.54
					c0.11,0.61,0.39,1.11,0.83,1.49c0.83,0.61,1.77,1,2.82,1.16C187.79,24.3,187.93,24.34,188.07,24.37z"/>
				<path class="st2" d="M182.95,61.62c-2.87,0-5.73-0.43-8.5-1.28c-2.05-0.58-4.02-1.48-5.82-2.65c-1.91-1.23-3.4-2.86-4.43-4.84
					c-0.7-1.57-0.95-3.25-0.79-5.09c0.16-1.84,0.76-3.51,1.77-4.96c1.12-1.61,2.71-2.54,4.72-2.75c1.22-0.07,2.42,0.05,3.65,0.35
					c1.11,0.27,2.23,0.6,3.33,0.97c0.88,0.29,1.76,0.54,2.61,0.75c0.55,0.16,1.07,0.23,1.58,0.21c0.18-0.03,0.29-0.08,0.36-0.17
					c-0.05-0.18-0.12-0.29-0.22-0.39c-0.38-0.34-0.87-0.63-1.43-0.84c-3.03-1.15-5.86-2.65-8.44-4.46c-2.73-2.11-4.79-4.9-6.17-8.33
					c-1.38-3.42-1.86-6.84-1.41-10.17c0.55-3.31,1.86-6.29,3.93-8.91c2.05-2.6,4.59-4.64,7.56-6.06c3.34-1.54,6.98-2.31,10.84-2.31
					c3.88,0,7.51,0.84,10.78,2.49c1.66,0.88,3.14,2.07,4.42,3.57c1.33,1.56,2.2,3.3,2.57,5.19c0.4,2.03-0.02,4.02-1.23,5.91
					c-1.62,2.31-3.73,3.98-6.32,5c-2.74,1.08-5.51,0.91-8.24-0.52c-0.27-0.13-0.55-0.3-0.81-0.49c-0.35-0.25-0.73-0.45-1.11-0.6
					c-0.14-0.05-0.33-0.08-0.51-0.06c-0.04,0-0.07,0.01-0.1,0.02c-0.01,0.03-0.01,0.06,0,0.11c0.04,0.24,0.13,0.42,0.28,0.57
					c0.62,0.44,1.3,0.71,2.08,0.84l0.34,0.1c0.04,0.02,0.08,0.03,0.13,0.04l0.13,0.03c4.27,1.22,7.75,3.43,10.34,6.56
					c2.56,3.11,4.17,6.66,4.78,10.54c0.61,3.92,0.07,7.71-1.63,11.25c-1.72,3.58-4.74,6.4-8.98,8.37c-2.98,1.25-6.08,1.92-9.24,2.01
					C183.49,61.62,183.22,61.62,182.95,61.62z M170.58,43.13c-0.15,0-0.29,0-0.44,0.01c-1.03,0.11-1.82,0.57-2.42,1.43
					c-0.71,1.02-1.11,2.15-1.22,3.46c-0.11,1.31,0.05,2.47,0.49,3.47c0.75,1.43,1.85,2.63,3.33,3.58c1.55,1,3.24,1.77,5.02,2.28
					c2.73,0.84,5.53,1.21,8.33,1.14c2.78-0.08,5.5-0.67,8.08-1.75c3.52-1.64,6.04-3.96,7.44-6.88c1.42-2.96,1.88-6.13,1.36-9.42
					c-0.52-3.33-1.9-6.37-4.11-9.05c-2.17-2.63-5.11-4.49-8.74-5.54c-0.15-0.03-0.3-0.08-0.45-0.13c-1.23-0.22-2.35-0.69-3.33-1.42
					l-0.1-0.08c-0.71-0.62-1.16-1.43-1.34-2.39c-0.2-1.1,0.11-2.14,0.89-2.91l0.11-0.1c0.55-0.45,1.21-0.71,1.93-0.76
					c0.62-0.04,1.22,0.04,1.81,0.25c0.66,0.26,1.26,0.58,1.83,0.98c0.14,0.1,0.28,0.18,0.42,0.25c1.95,1.02,3.8,1.15,5.69,0.4
					c2.04-0.81,3.64-2.06,4.88-3.84c0.75-1.16,1.01-2.35,0.77-3.59c-0.27-1.38-0.88-2.61-1.88-3.77c-1.03-1.2-2.2-2.15-3.49-2.83
					c-2.81-1.42-5.97-2.14-9.36-2.14c-3.41,0-6.61,0.68-9.52,2.02c-2.52,1.21-4.69,2.95-6.45,5.17c-1.74,2.2-2.85,4.71-3.3,7.45
					c-0.37,2.74,0.04,5.63,1.22,8.54c1.18,2.91,2.9,5.26,5.14,6.99c2.31,1.62,4.92,3,7.7,4.05c0.92,0.34,1.75,0.85,2.48,1.5
					c0.51,0.51,0.83,1.04,1.03,1.64c0.24,0.71,0.22,1.45-0.04,2.14l-0.09,0.18c-0.61,1.12-1.61,1.78-2.9,1.92l-0.1,0.01
					c-0.85,0.03-1.71-0.07-2.56-0.31c-0.88-0.22-1.83-0.49-2.8-0.81c-1.03-0.35-2.06-0.65-3.08-0.9
					C172.03,43.22,171.29,43.13,170.58,43.13z"/>
			</g>
			<g>
				<path id="XMLID_00000034073487577149139280000002447823507305055625_" class="st1" d="M249.2,5.78c1.85,1.72,2.86,3.9,3.03,6.56
					s-0.62,4.91-2.37,6.76c-1.05,1-2.21,1.58-3.49,1.76s-2.59,0.27-3.94,0.27c-0.91,0-1.67,0.28-2.26,0.83
					c-0.6,0.55-1.03,1.68-1.31,3.38c-0.28,1.7-0.42,4.28-0.42,7.74c0,2.85-0.04,5.69-0.12,8.51c-0.06,1.41-0.1,2.84-0.12,4.27
					c0,2.16-0.29,4.25-0.87,6.27c-0.58,2.02-1.66,3.76-3.24,5.23c-1.66,1.38-3.57,2.12-5.73,2.22s-4.12-0.49-5.89-1.76
					c-1.41-1.13-2.49-2.51-3.24-4.13c-0.75-1.62-1.23-3.31-1.45-5.08c-0.25-2.79-0.21-5.62,0.12-8.47c0.05-0.69,0.1-1.38,0.12-2.08
					c0.28-4.21,0.25-8.41-0.08-12.62c-0.14-1.44-0.64-2.52-1.51-3.24c-0.87-0.72-2-1.19-3.38-1.41c-2.38-0.39-4.39-1.25-6.02-2.57
					s-2.53-3.24-2.7-5.73c-0.03-2.54,0.77-4.69,2.41-6.43c1.63-1.74,3.74-2.82,6.31-3.24c3.87-0.5,7.82-0.68,11.83-0.54
					c1.19,0.03,2.35,0.04,3.49,0.04c5.39-0.14,10.75,0.26,16.06,1.2C246.37,3.92,247.96,4.67,249.2,5.78z"/>
				<path class="st2" d="M227.91,61.15c-2.31,0-4.44-0.69-6.35-2.07c-1.66-1.33-2.9-2.91-3.74-4.74c-0.81-1.75-1.34-3.62-1.58-5.54
					c-0.26-2.94-0.22-5.89,0.12-8.84c0.05-0.61,0.09-1.29,0.11-1.96c0.27-4.15,0.25-8.32-0.08-12.43c-0.1-1-0.41-1.71-0.96-2.16
					c-0.65-0.54-1.54-0.9-2.64-1.08c-2.64-0.43-4.91-1.41-6.75-2.9c-1.97-1.6-3.07-3.9-3.27-6.83c-0.04-3.03,0.92-5.56,2.82-7.6
					c1.86-1.99,4.28-3.24,7.19-3.71c3.98-0.51,8.05-0.7,12.13-0.56c1.16,0.03,2.31,0.04,3.43,0.04c5.43-0.14,10.94,0.27,16.33,1.23
					c2.24,0.45,4.09,1.32,5.53,2.61l0.02,0.02c2.15,1.99,3.33,4.54,3.52,7.6c0.19,3.09-0.74,5.76-2.79,7.92
					c-1.35,1.28-2.81,2.01-4.4,2.24c-1.34,0.19-2.74,0.28-4.16,0.28c-0.68,0-1.01,0.24-1.21,0.42c-0.08,0.08-0.52,0.57-0.83,2.5
					c-0.26,1.61-0.39,4.13-0.39,7.49c0,2.83-0.04,5.71-0.12,8.55c-0.06,1.42-0.1,2.83-0.12,4.26c0,2.26-0.31,4.51-0.93,6.67
					c-0.66,2.29-1.89,4.29-3.67,5.94c-1.98,1.65-4.22,2.52-6.71,2.63C228.26,61.14,228.09,61.15,227.91,61.15z M222.3,3.8
					c-3.07,0-6.1,0.19-9.05,0.57c-2.2,0.36-3.97,1.26-5.37,2.76c-1.36,1.45-2.01,3.21-1.99,5.36c0.13,1.97,0.83,3.49,2.12,4.54
					c1.41,1.15,3.19,1.91,5.29,2.25c1.65,0.26,3.04,0.85,4.12,1.75c1.2,0.99,1.89,2.43,2.07,4.29c0.34,4.29,0.37,8.61,0.09,12.87
					c-0.03,0.67-0.07,1.38-0.13,2.1c-0.32,2.79-0.36,5.53-0.13,8.21c0.19,1.55,0.64,3.11,1.32,4.57c0.64,1.39,1.58,2.59,2.8,3.57
					c1.43,1.02,3.04,1.51,4.85,1.42c1.83-0.08,3.4-0.69,4.8-1.86c1.32-1.23,2.23-2.71,2.74-4.47c0.54-1.87,0.81-3.83,0.81-5.84
					c0.03-1.48,0.07-2.92,0.13-4.34c0.08-2.8,0.12-5.65,0.12-8.45c0-3.58,0.14-6.19,0.44-7.99c0.34-2.1,0.91-3.46,1.78-4.27
					c0.89-0.83,2-1.25,3.32-1.25c1.28,0,2.53-0.09,3.73-0.25c0.95-0.13,1.82-0.58,2.64-1.35c1.39-1.48,2.02-3.31,1.88-5.54
					c-0.14-2.26-0.97-4.06-2.52-5.51c-1.03-0.91-2.39-1.54-4.04-1.87c-5.15-0.91-10.45-1.31-15.72-1.17
					c-1.21-0.02-2.36-0.01-3.56-0.04C223.99,3.81,223.14,3.8,222.3,3.8z"/>
			</g>
			<g>
				<path id="XMLID_00000039830964248043995420000013710083618479126946_" class="st1" d="M303.86,20.84
					c1.77,5.7,1.95,11.48,0.54,17.35c-1.41,5.87-4.15,10.75-8.22,14.65c-2.44,2.21-5.12,3.9-8.05,5.06
					c-7.05,2.68-14,2.34-20.83-1.04c-6.72-3.62-11.51-9.31-14.36-17.06c-1.49-4.23-2.09-8.62-1.78-13.16
					c0.36-4.26,1.54-8.21,3.55-11.85c2.01-3.64,4.61-6.58,7.82-8.82c3.68-2.41,7.77-3.7,12.29-3.88c4.51-0.18,8.77,0.44,12.78,1.85
					c3.79,1.33,7.1,3.45,9.94,6.35C300.37,13.21,302.48,16.72,303.86,20.84z M283.61,33.87c0.86-1.44,1.15-2.98,0.87-4.63
					s-1.02-3.02-2.24-4.13c-1.72-1.47-3.68-1.98-5.89-1.54c-1.8,0.5-3.21,1.54-4.23,3.11c-1,1.63-1.29,3.34-0.89,5.13
					c0.4,1.78,1.42,3.19,3.05,4.21c1.35,0.78,2.87,1.07,4.54,0.89c1.67-0.18,3.04-0.89,4.09-2.14c0.03-0.03,0.05-0.06,0.08-0.08
					c0-0.03,0.01-0.05,0.04-0.08C283.25,34.4,283.44,34.15,283.61,33.87z"/>
				<path class="st2" d="M278.82,61.23c-4.12,0-8.2-0.99-12.21-2.97c-7.09-3.82-12.16-9.84-15.13-17.91
					c-1.56-4.43-2.19-9.07-1.88-13.79c0.38-4.49,1.63-8.68,3.74-12.49c2.11-3.83,4.9-6.97,8.29-9.34c3.94-2.58,8.34-3.97,13.11-4.16
					c4.69-0.19,9.18,0.46,13.36,1.93c4,1.4,7.54,3.67,10.54,6.73c2.99,3.06,5.24,6.81,6.69,11.13l0.01,0.03
					c1.85,5.95,2.04,12.06,0.57,18.17c-1.47,6.13-4.38,11.31-8.65,15.41c-2.59,2.36-5.46,4.16-8.55,5.39
					C285.4,60.6,282.1,61.23,278.82,61.23z M276.31,3.62c-0.48,0-0.96,0.01-1.44,0.03c-4.2,0.17-8.07,1.39-11.5,3.63
					c-2.96,2.07-5.43,4.86-7.31,8.27c-1.89,3.43-3.02,7.21-3.36,11.23c-0.29,4.28,0.29,8.5,1.7,12.51
					c2.7,7.33,7.29,12.79,13.63,16.21c6.44,3.18,12.85,3.5,19.55,0.95c2.73-1.08,5.28-2.69,7.56-4.76c3.8-3.65,6.42-8.32,7.75-13.87
					c1.34-5.55,1.17-11.11-0.51-16.51c-1.3-3.87-3.31-7.22-5.96-9.94c-2.66-2.72-5.8-4.73-9.34-5.97
					C283.7,4.22,280.08,3.62,276.31,3.62z M277.88,38.53c-1.58,0-3.05-0.38-4.38-1.15c-2.04-1.28-3.3-3.02-3.79-5.22
					c-0.49-2.18-0.13-4.29,1.08-6.27c1.25-1.93,2.98-3.2,5.14-3.8l0.11-0.03c2.69-0.54,5.12,0.1,7.2,1.88
					c1.51,1.37,2.43,3.06,2.76,5.05c0.34,2.01-0.02,3.92-1.07,5.68l0,0c-0.12,0.2-0.26,0.4-0.4,0.58v0.08l-0.44,0.45l-1.16-1.03
					l0.4,0.41l0.75,0.63c-1.31,1.55-3.03,2.45-5.11,2.68C278.61,38.51,278.24,38.53,277.88,38.53z M276.7,25.09
					c-1.41,0.4-2.48,1.2-3.29,2.45c-0.76,1.25-0.99,2.55-0.68,3.94c0.31,1.38,1.08,2.44,2.36,3.24c1.02,0.58,2.21,0.81,3.56,0.67
					c1.12-0.12,2.04-0.54,2.79-1.29v-0.05l0.52-0.54c0.11-0.11,0.23-0.26,0.33-0.43c0.67-1.12,0.89-2.29,0.67-3.58
					c-0.22-1.3-0.79-2.36-1.75-3.24C279.9,25.16,278.41,24.76,276.7,25.09z"/>
			</g>
			<g>
				<path id="XMLID_00000018234859691409384740000007371420130148758677_" class="st1" d="M356.03,43.46
					c0.97,1.36,1.69,2.82,2.16,4.38c0.47,1.56,0.61,3.16,0.42,4.79c-0.25,1.66-0.9,3.13-1.95,4.42c-1.05,1.29-2.38,2.14-3.98,2.55
					c-2.71,0.44-5.15-0.25-7.3-2.07c-1.85-1.66-3.31-3.62-4.38-5.89c-1.07-2.27-1.97-4.56-2.72-6.89c-0.33-1-0.73-1.99-1.2-2.99
					s-1.09-1.85-1.87-2.57c-0.64-0.52-1.43-0.86-2.39-1c-0.95-0.14-1.75,0.11-2.39,0.75c-0.3,0.36-0.48,0.78-0.52,1.27
					c-0.04,0.48-0.01,0.96,0.1,1.43c0.22,1.3,0.34,2.6,0.37,3.9c0.05,0.64,0.12,1.26,0.21,1.87c0.17,0.91,0.22,1.84,0.17,2.78
					c-0.14,1.99-0.73,3.91-1.78,5.75c-1.05,1.84-2.64,2.95-4.77,3.34c-2.49,0.25-4.77-0.26-6.85-1.54s-3.61-3.04-4.61-5.31
					c-0.58-1.33-0.98-2.67-1.18-4.03c-0.21-1.36-0.35-2.73-0.44-4.11c-0.06-0.91-0.14-1.83-0.25-2.74
					c-0.08-0.83-0.18-1.65-0.29-2.45c-0.36-2.68-0.6-5.4-0.71-8.13c-0.19-4.07,0.1-8.04,0.87-11.93c0.77-3.89,2.6-7.37,5.48-10.44
					c2.46-2.43,5.24-4.14,8.34-5.11c3.1-0.97,6.32-1.55,9.67-1.74c4.65-0.39,8.96,0.25,12.95,1.91s6.93,4.8,8.84,9.42
					c0.97,2.57,1.29,5,0.95,7.26s-1.18,4.59-2.53,6.97c-0.8,1.44-1.81,2.73-3.03,3.86c-0.33,0.28-0.68,0.54-1.04,0.79
					c-0.44,0.3-0.85,0.64-1.22,1c-0.37,0.36-0.64,0.8-0.81,1.33c-0.22,0.8-0.08,1.49,0.44,2.07c0.51,0.58,1.11,1.09,1.81,1.54
					c0.3,0.25,0.59,0.48,0.87,0.71C353.21,40.02,354.73,41.64,356.03,43.46z M330.34,19.43c-0.39,1.05-0.51,2.17-0.37,3.36
					c0.03,0.28,0.07,0.55,0.12,0.83c0.06,0.28,0.17,0.51,0.33,0.71c0.22,0.22,0.48,0.37,0.77,0.44c0.29,0.07,0.59,0.09,0.89,0.06
					c0.66,0.03,1.31-0.07,1.95-0.29c1.16-0.53,1.86-1.35,2.1-2.47c0.24-1.12-0.08-2.14-0.93-3.05c-0.78-0.77-1.65-1.16-2.62-1.16
					S330.87,18.38,330.34,19.43z"/>
				<path class="st2" d="M351.11,61.29c-2.46,0-4.72-0.86-6.74-2.57c-2.04-1.82-3.63-3.97-4.78-6.42c-1.09-2.31-2.03-4.69-2.79-7.07
					c-0.31-0.92-0.69-1.86-1.13-2.8c-0.39-0.82-0.89-1.51-1.52-2.1c-0.35-0.28-0.88-0.5-1.55-0.6c-0.53-0.07-0.81,0.07-1.01,0.26
					c-0.07,0.1-0.11,0.21-0.12,0.35c-0.03,0.32,0,0.63,0.07,0.94l0.02,0.1c0.23,1.37,0.36,2.76,0.39,4.13
					c0.05,0.51,0.11,1.11,0.19,1.7c0.18,0.96,0.24,2.02,0.18,3.08c-0.16,2.23-0.82,4.39-1.99,6.43c-1.28,2.25-3.25,3.62-5.84,4.1
					l-0.12,0.02c-2.82,0.28-5.45-0.31-7.81-1.76c-2.34-1.44-4.09-3.46-5.22-6.01c-0.63-1.44-1.07-2.93-1.3-4.41
					c-0.21-1.4-0.37-2.83-0.45-4.25c-0.05-0.88-0.13-1.77-0.24-2.65c-0.08-0.84-0.18-1.64-0.29-2.43c-0.37-2.72-0.61-5.51-0.72-8.28
					c-0.2-4.16,0.1-8.3,0.9-12.3c0.83-4.16,2.8-7.92,5.87-11.2c2.67-2.64,5.69-4.48,9.01-5.52c3.21-1,6.59-1.61,10.04-1.81
					c4.84-0.4,9.44,0.28,13.64,2.02c4.36,1.82,7.61,5.27,9.68,10.26c1.08,2.86,1.42,5.56,1.05,8.08c-0.36,2.45-1.27,4.98-2.72,7.52
					c-0.87,1.56-1.99,2.99-3.32,4.23c-0.43,0.36-0.81,0.65-1.21,0.93c-0.38,0.26-0.72,0.54-1.04,0.84c-0.18,0.18-0.32,0.4-0.41,0.68
					c-0.08,0.31,0,0.44,0.12,0.58c0.42,0.47,0.91,0.89,1.48,1.26l0.15,0.11c0.3,0.25,0.58,0.48,0.86,0.69
					c1.85,1.5,3.48,3.23,4.86,5.17l0,0c1.06,1.49,1.86,3.12,2.38,4.83c0.53,1.76,0.69,3.59,0.47,5.42c-0.3,1.98-1.06,3.72-2.29,5.22
					c-1.26,1.54-2.88,2.58-4.8,3.07l-0.14,0.03C352.3,61.24,351.7,61.29,351.11,61.29z M332.32,36.6c0.23,0,0.47,0.02,0.72,0.05
					c1.24,0.18,2.3,0.63,3.15,1.33c0.99,0.91,1.73,1.94,2.28,3.11c0.49,1.05,0.92,2.11,1.27,3.16c0.73,2.27,1.62,4.52,2.65,6.72
					c0.97,2.07,2.32,3.88,4.01,5.4c1.76,1.49,3.71,2.05,5.95,1.71c1.26-0.34,2.27-1,3.1-2.01c0.88-1.08,1.41-2.28,1.62-3.67
					c0.16-1.36,0.04-2.76-0.37-4.12c-0.42-1.39-1.07-2.71-1.94-3.92v0c-1.21-1.71-2.65-3.24-4.28-4.55
					c-0.25-0.2-0.53-0.42-0.81-0.66c-0.78-0.51-1.47-1.1-2.06-1.77c-0.85-0.96-1.12-2.21-0.77-3.51c0.26-0.83,0.67-1.49,1.23-2.03
					c0.44-0.42,0.92-0.81,1.42-1.16c0.31-0.22,0.62-0.45,0.92-0.7c1.03-0.96,1.95-2.13,2.67-3.43c1.26-2.21,2.05-4.38,2.35-6.44
					c0.29-2,0-4.18-0.87-6.49c-1.75-4.22-4.36-7.03-7.99-8.54c-3.73-1.56-7.85-2.16-12.22-1.79c-3.24,0.19-6.37,0.75-9.34,1.68
					c-2.85,0.89-5.44,2.48-7.71,4.73c-2.62,2.8-4.34,6.06-5.05,9.64c-0.75,3.75-1.03,7.63-0.84,11.56c0.11,2.69,0.34,5.38,0.69,8
					c0.11,0.82,0.21,1.65,0.3,2.5c0.11,0.91,0.2,1.86,0.25,2.8c0.08,1.33,0.22,2.66,0.42,3.97c0.19,1.22,0.55,2.44,1.07,3.64
					c0.87,1.99,2.18,3.5,4,4.61c1.78,1.09,3.69,1.52,5.82,1.32c1.64-0.31,2.83-1.16,3.64-2.57c0.93-1.63,1.46-3.34,1.58-5.09
					c0.05-0.8,0-1.61-0.14-2.4c-0.1-0.7-0.17-1.35-0.23-2.01c-0.03-1.3-0.15-2.53-0.35-3.73c-0.14-0.61-0.18-1.24-0.13-1.87
					c0.07-0.81,0.37-1.53,0.88-2.14l0.09-0.09C330.15,37.02,331.17,36.6,332.32,36.6z M331.83,26.39c-0.34,0-0.67-0.04-1-0.12
					c-0.57-0.14-1.08-0.42-1.5-0.85l-0.08-0.09c-0.34-0.4-0.57-0.87-0.68-1.41c-0.07-0.33-0.11-0.65-0.15-0.98
					c-0.16-1.4-0.01-2.77,0.46-4.05l0.07-0.16c0.78-1.57,2.07-2.43,3.63-2.43c1.39,0,2.64,0.54,3.71,1.62
					c1.24,1.32,1.7,2.85,1.36,4.47c-0.34,1.6-1.37,2.84-2.97,3.56L334.55,26c-0.79,0.27-1.6,0.4-2.43,0.38
					C332.02,26.39,331.92,26.39,331.83,26.39z M331.6,23.26c0.12,0.03,0.23,0.03,0.34,0.03l0.1-0.01l0.1,0
					c0.45,0.02,0.88-0.04,1.31-0.18c0.86-0.41,1.07-0.93,1.15-1.35c0.09-0.44,0.1-0.98-0.55-1.67c-0.6-0.6-1.14-0.67-1.49-0.67
					c-0.18,0-0.47,0-0.82,0.65c-0.28,0.8-0.37,1.64-0.26,2.56C331.53,22.84,331.56,23.05,331.6,23.26z"/>
			</g>
			<g>
				<path id="XMLID_00000092430964081564389640000014535549928218257292_" class="st1" d="M402.89,5.73
					c1.11,1.52,1.83,3.27,2.16,5.25s0.54,3.92,0.62,5.83c0.03,0.39,0.06,0.78,0.08,1.16c0.22,4.68,0.29,9.35,0.21,14.03
					c-0.03,2.24-0.03,4.47,0,6.68c0.03,3.32-0.59,6.56-1.85,9.71c-1.26,3.15-3.29,5.82-6.08,8.01c-3.43,2.43-7.37,3.76-11.83,3.98
					c-4.46,0.22-8.69-0.17-12.7-1.16c-1.38-0.33-2.91-0.83-4.59-1.49c-1.67-0.66-3.17-1.51-4.48-2.53
					c-1.31-1.02-2.11-2.25-2.39-3.69c-0.33-1.99,0.06-3.85,1.18-5.56c1.12-1.71,2.79-2.78,5-3.2c1.24-0.14,2.46-0.07,3.65,0.21
					c1.19,0.28,2.37,0.62,3.53,1.04c1.52,0.58,3.06,1.01,4.61,1.29c1.19,0.14,2.37,0.07,3.53-0.21s2.1-0.83,2.82-1.66
					c0.33-0.33,0.54-0.71,0.62-1.12c0.05-0.44-0.1-0.82-0.46-1.12c-0.3-0.19-0.65-0.28-1.04-0.25c-0.72-0.03-1.41-0.03-2.08,0
					c-0.36,0.03-0.73,0.04-1.12,0.04c-2.93,0.08-5.82-0.33-8.65-1.22c-2.84-0.9-5.25-2.37-7.24-4.42c-1.27-1.33-2.25-2.77-2.93-4.32
					c-0.68-1.55-1.2-3.17-1.56-4.86c-1.02-4.34-1.25-8.72-0.66-13.12c0.33-3.04,1.47-5.8,3.4-8.26c0.97-1.05,2.26-1.7,3.88-1.95
					c1.62-0.25,3.15-0.3,4.59-0.17c1.66,0.11,3.06,0.55,4.19,1.33c1.6,1.19,2.72,2.77,3.34,4.73c0.62,1.96,0.93,3.99,0.93,6.08
					s-0.15,3.95-0.46,5.58c-0.19,0.83-0.3,1.81-0.31,2.95s0.24,2.13,0.75,2.99s1.45,1.29,2.8,1.29c1.63-0.17,2.64-0.91,3.01-2.22
					c0.37-1.31,0.5-2.61,0.39-3.88v-1.66c0-1.41-0.07-2.82-0.21-4.23c-0.03-0.3-0.07-0.62-0.12-0.95c-0.28-1.83-0.39-3.67-0.33-5.52
					c0.36-3.46,2.37-5.63,6.02-6.52c1.83-0.33,3.62-0.23,5.37,0.31C400.27,3.47,401.73,4.41,402.89,5.73z"/>
				<path class="st2" d="M383.82,62.01c-3.71,0-7.3-0.42-10.69-1.27c-1.44-0.34-3.05-0.87-4.78-1.56c-1.8-0.71-3.44-1.64-4.86-2.75
					c-1.61-1.26-2.61-2.81-2.96-4.63c-0.4-2.42,0.07-4.66,1.41-6.7c1.36-2.08,3.38-3.38,6.02-3.87l0.11-0.02
					c1.41-0.16,2.82-0.08,4.17,0.24c1.24,0.29,2.49,0.66,3.7,1.09c1.46,0.56,2.91,0.96,4.36,1.22c0.91,0.1,1.92,0.04,2.9-0.19
					c0.81-0.19,1.45-0.55,1.95-1.1c-0.57-0.02-1.13-0.01-1.65,0.01c-0.34,0.03-0.76,0.04-1.18,0.04c-3.05,0.08-6.13-0.35-9.12-1.3
					c-3.07-0.97-5.72-2.59-7.88-4.82c-1.4-1.46-2.49-3.07-3.24-4.78c-0.72-1.64-1.27-3.38-1.65-5.15
					c-1.06-4.48-1.29-9.08-0.68-13.64c0.36-3.29,1.61-6.33,3.72-9.01l0.08-0.09c1.21-1.31,2.82-2.13,4.78-2.43
					c1.74-0.27,3.41-0.33,4.97-0.18c1.89,0.13,3.56,0.66,4.92,1.59c1.92,1.42,3.23,3.27,3.95,5.55c0.67,2.1,1.01,4.31,1.01,6.55
					c0,2.17-0.16,4.15-0.48,5.87c-0.18,0.79-0.27,1.66-0.29,2.68c-0.01,0.85,0.16,1.56,0.53,2.17c0.08,0.13,0.3,0.51,1.39,0.53
					c1.33-0.16,1.5-0.76,1.6-1.09c0.32-1.12,0.44-2.24,0.34-3.32l-0.01-0.13v-1.66c0-1.35-0.07-2.73-0.2-4.08
					c-0.03-0.28-0.06-0.56-0.11-0.85c-0.29-1.93-0.41-3.88-0.35-5.82l0.01-0.11c0.43-4.11,2.91-6.82,7.2-7.86
					c2.15-0.4,4.21-0.27,6.2,0.34c2.03,0.62,3.74,1.72,5.09,3.26l0.09,0.11c1.24,1.71,2.06,3.7,2.43,5.91
					c0.34,2.04,0.56,4.06,0.64,6.02l0.08,1.12c0.22,4.73,0.29,9.49,0.21,14.17c-0.03,2.21-0.03,4.44,0,6.63
					c0.03,3.51-0.63,6.98-1.96,10.31c-1.36,3.4-3.57,6.31-6.57,8.66c-3.72,2.64-7.97,4.08-12.71,4.31
					C385.46,61.98,384.64,62.01,383.82,62.01z M368.46,44.29c-1.77,0.34-3.05,1.16-3.93,2.51c-0.91,1.39-1.22,2.85-0.95,4.46
					c0.2,1.03,0.79,1.93,1.81,2.73c1.19,0.93,2.57,1.71,4.1,2.31c1.6,0.63,3.07,1.11,4.38,1.43c3.85,0.96,7.98,1.33,12.26,1.12
					c4.13-0.21,7.84-1.45,11.01-3.7c2.5-1.96,4.39-4.44,5.54-7.32c1.18-2.95,1.76-6.02,1.74-9.12c-0.03-2.21-0.03-4.47,0-6.71
					c0.08-4.62,0.01-9.31-0.21-13.94l-0.08-1.13c-0.08-1.87-0.28-3.77-0.6-5.68c-0.29-1.71-0.91-3.23-1.84-4.54
					c-0.97-1.09-2.16-1.84-3.62-2.29c-1.53-0.47-3.05-0.56-4.64-0.27c-2.91,0.71-4.44,2.33-4.75,5.09
					c-0.05,1.73,0.06,3.48,0.32,5.18c0.06,0.35,0.1,0.71,0.14,1.05c0.14,1.44,0.21,2.92,0.21,4.37v1.6c0.12,1.44-0.04,2.9-0.45,4.37
					c-0.32,1.11-1.3,3.03-4.34,3.34l-0.16,0.01c-2.41,0-3.58-1.11-4.13-2.04c-0.66-1.1-0.98-2.38-0.97-3.8
					c0.02-1.24,0.13-2.35,0.35-3.28c0.27-1.46,0.42-3.25,0.42-5.23c0-1.92-0.29-3.81-0.86-5.61c-0.53-1.66-1.44-2.95-2.79-3.96
					c-0.85-0.58-2-0.93-3.37-1.03c-1.35-0.13-2.76-0.08-4.25,0.15c-1.25,0.19-2.21,0.66-2.94,1.43c-1.72,2.21-2.74,4.7-3.04,7.42
					c-0.56,4.23-0.34,8.45,0.63,12.59c0.34,1.61,0.83,3.14,1.47,4.59c0.6,1.37,1.48,2.67,2.62,3.86c1.8,1.85,4.02,3.2,6.59,4.01
					c2.66,0.84,5.4,1.22,8.14,1.15c0.39,0,0.72-0.01,1.05-0.04c0.73-0.03,1.45-0.03,2.18-0.01c0.69-0.03,1.33,0.14,1.88,0.49
					l0.18,0.13c0.76,0.65,1.11,1.53,0.99,2.49l-0.02,0.12c-0.14,0.7-0.48,1.33-1.01,1.87c-0.93,1.05-2.14,1.77-3.6,2.11
					c-1.33,0.32-2.7,0.4-4.07,0.24c-1.73-0.31-3.38-0.76-4.98-1.38c-1.07-0.38-2.2-0.71-3.33-0.98
					C370.54,44.24,369.51,44.18,368.46,44.29z"/>
			</g>
		</g>
	</g>
</g>
</svg>
